<?xml version="1.0" encoding="UTF-8" standalone="no"?>
<!DOCTYPE svg PUBLIC "-//W3C//DTD SVG 1.1//EN"
 "http://www.w3.org/Graphics/SVG/1.1/DTD/svg11.dtd">
<!-- Generated by graphviz version 2.40.1 (20161225.0304)
 -->
<!-- Title: oneDegreeRelationshipsDiagram Pages: 1 -->
<svg width="575pt" height="362pt"
 viewBox="0.00 0.00 575.00 361.70" xmlns="http://www.w3.org/2000/svg" xmlns:xlink="http://www.w3.org/1999/xlink">
<g id="graph0" class="graph" transform="scale(1 1) rotate(0) translate(4 357.7)">
<title>oneDegreeRelationshipsDiagram</title>
<polygon fill="#ffffff" stroke="transparent" points="-4,4 -4,-357.7 571,-357.7 571,4 -4,4"/>
<text text-anchor="middle" x="72.4936" y="-7.3" font-family="Helvetica,sans-Serif" font-size="11.00" fill="#000000">Generated by SchemaSpy</text>
<!-- action_article -->
<g id="node1" class="node">
<title>action_article</title>
<g id="a_node1"><a xlink:href="../../tables/action_article.html" xlink:title="action_article" target="_top">
<polygon fill="#ffffff" stroke="transparent" points="365,-171.7 365,-349.7 559,-349.7 559,-171.7 365,-171.7"/>
<polygon fill="#f5f5f5" stroke="transparent" points="367,-324.7 367,-347.7 557,-347.7 557,-324.7 367,-324.7"/>
<polygon fill="none" stroke="#000000" points="367,-324.7 367,-347.7 557,-347.7 557,-324.7 367,-324.7"/>
<text text-anchor="start" x="372" y="-333.8" font-family="Helvetica,sans-Serif" font-weight="bold" font-size="11.00" fill="#000000">action_article</text>
<text text-anchor="start" x="522.0437" y="-332.8" font-family="Helvetica,sans-Serif" font-size="11.00" fill="#000000">[table]</text>
<polygon fill="none" stroke="#000000" points="367,-302.7 367,-324.7 465,-324.7 465,-302.7 367,-302.7"/>
<image xlink:href="../../images/primaryKeys.png" width="11px" height="12px" preserveAspectRatio="xMinYMin meet" x="372" y="-319.7"/>
<text text-anchor="start" x="387" y="-309.8" font-family="Helvetica,sans-Serif" font-size="11.00" fill="#000000">id</text>
<polygon fill="none" stroke="#000000" points="465,-302.7 465,-324.7 557,-324.7 557,-302.7 465,-302.7"/>
<text text-anchor="start" x="468" y="-310.4" font-family="Helvetica,sans-Serif" font-size="11.00" fill="#000000">bigserial[19]</text>
<polygon fill="#ffffff" stroke="transparent" points="367,-280.7 367,-302.7 465,-302.7 465,-280.7 367,-280.7"/>
<polygon fill="none" stroke="#000000" points="367,-280.7 367,-302.7 465,-302.7 465,-280.7 367,-280.7"/>
<image xlink:href="../../images/foreignKeys.png" width="11px" height="12px" preserveAspectRatio="xMinYMin meet" x="372" y="-297.7"/>
<text text-anchor="start" x="387" y="-287.8" font-family="Helvetica,sans-Serif" font-size="11.00" fill="#000000">user_id</text>
<polygon fill="none" stroke="#000000" points="465,-280.7 465,-302.7 557,-302.7 557,-280.7 465,-280.7"/>
<text text-anchor="start" x="468" y="-288.4" font-family="Helvetica,sans-Serif" font-size="11.00" fill="#000000">int8[19]</text>
<polygon fill="#ffffff" stroke="transparent" points="367,-258.7 367,-280.7 465,-280.7 465,-258.7 367,-258.7"/>
<polygon fill="none" stroke="#000000" points="367,-258.7 367,-280.7 465,-280.7 465,-258.7 367,-258.7"/>
<text text-anchor="start" x="387" y="-265.8" font-family="Helvetica,sans-Serif" font-size="11.00" fill="#000000">action</text>
<polygon fill="none" stroke="#000000" points="465,-258.7 465,-280.7 557,-280.7 557,-258.7 465,-258.7"/>
<text text-anchor="start" x="468" y="-266.4" font-family="Helvetica,sans-Serif" font-size="11.00" fill="#000000">text[2147483647]</text>
<polygon fill="#ffffff" stroke="transparent" points="367,-236.7 367,-258.7 465,-258.7 465,-236.7 367,-236.7"/>
<polygon fill="none" stroke="#000000" points="367,-236.7 367,-258.7 465,-258.7 465,-236.7 367,-236.7"/>
<image xlink:href="../../images/foreignKeys.png" width="11px" height="12px" preserveAspectRatio="xMinYMin meet" x="372" y="-253.7"/>
<text text-anchor="start" x="387" y="-243.8" font-family="Helvetica,sans-Serif" font-size="11.00" fill="#000000">target_id</text>
<polygon fill="none" stroke="#000000" points="465,-236.7 465,-258.7 557,-258.7 557,-236.7 465,-236.7"/>
<text text-anchor="start" x="468" y="-244.4" font-family="Helvetica,sans-Serif" font-size="11.00" fill="#000000">int8[19]</text>
<polygon fill="none" stroke="#000000" points="367,-214.7 367,-236.7 465,-236.7 465,-214.7 367,-214.7"/>
<text text-anchor="start" x="387" y="-221.8" font-family="Helvetica,sans-Serif" font-size="11.00" fill="#000000">updated_at</text>
<polygon fill="none" stroke="#000000" points="465,-214.7 465,-236.7 557,-236.7 557,-214.7 465,-214.7"/>
<text text-anchor="start" x="467.6023" y="-222.4" font-family="Helvetica,sans-Serif" font-size="11.00" fill="#000000">timestamptz[35,6]</text>
<polygon fill="none" stroke="#000000" points="367,-192.7 367,-214.7 465,-214.7 465,-192.7 367,-192.7"/>
<text text-anchor="start" x="387" y="-199.8" font-family="Helvetica,sans-Serif" font-size="11.00" fill="#000000">created_at</text>
<polygon fill="none" stroke="#000000" points="465,-192.7 465,-214.7 557,-214.7 557,-192.7 465,-192.7"/>
<text text-anchor="start" x="467.6023" y="-200.4" font-family="Helvetica,sans-Serif" font-size="11.00" fill="#000000">timestamptz[35,6]</text>
<polygon fill="#ffffff" stroke="transparent" points="367,-173.7 367,-192.7 420,-192.7 420,-173.7 367,-173.7"/>
<polygon fill="none" stroke="#000000" points="367,-173.7 367,-192.7 420,-192.7 420,-173.7 367,-173.7"/>
<text text-anchor="start" x="370" y="-179.8" font-family="Helvetica,sans-Serif" font-size="11.00" fill="#000000">&lt; 2</text>
<polygon fill="#ffffff" stroke="transparent" points="420,-173.7 420,-192.7 465,-192.7 465,-173.7 420,-173.7"/>
<polygon fill="none" stroke="#000000" points="420,-173.7 420,-192.7 465,-192.7 465,-173.7 420,-173.7"/>
<text text-anchor="start" x="455.8862" y="-179.8" font-family="Helvetica,sans-Serif" font-size="11.00" fill="#000000"> &#160;</text>
<polygon fill="#ffffff" stroke="transparent" points="465,-173.7 465,-192.7 557,-192.7 557,-173.7 465,-173.7"/>
<polygon fill="none" stroke="#000000" points="465,-173.7 465,-192.7 557,-192.7 557,-173.7 465,-173.7"/>
<text text-anchor="start" x="538.4053" y="-179.8" font-family="Helvetica,sans-Serif" font-size="11.00" fill="#000000">0 &gt;</text>
<polygon fill="none" stroke="#000000" stroke-width="2" points="366,-172.7 366,-348.7 558,-348.7 558,-172.7 366,-172.7"/>
</a>
</g>
</g>
<!-- article -->
<g id="node2" class="node">
<title>article</title>
<g id="a_node2"><a xlink:href="../../tables/article.html" xlink:title="article" target="_top">
<polygon fill="#ffffff" stroke="transparent" points="224,-38.2 224,-275.2 316,-275.2 316,-38.2 224,-38.2"/>
<polygon fill="#f5f5f5" stroke="transparent" points="224,-251.7 224,-274.7 316,-274.7 316,-251.7 224,-251.7"/>
<polygon fill="none" stroke="#000000" points="224,-251.7 224,-274.7 316,-274.7 316,-251.7 224,-251.7"/>
<text text-anchor="start" x="229" y="-260.8" font-family="Helvetica,sans-Serif" font-weight="bold" font-size="11.00" fill="#000000">article</text>
<text text-anchor="start" x="281.0437" y="-259.8" font-family="Helvetica,sans-Serif" font-size="11.00" fill="#000000">[table]</text>
<polygon fill="none" stroke="#000000" points="224,-229.7 224,-251.7 316,-251.7 316,-229.7 224,-229.7"/>
<image xlink:href="../../images/primaryKeys.png" width="11px" height="12px" preserveAspectRatio="xMinYMin meet" x="229" y="-246.7"/>
<text text-anchor="start" x="244" y="-236.8" font-family="Helvetica,sans-Serif" font-size="11.00" fill="#000000">id</text>
<polygon fill="#ffffff" stroke="transparent" points="224,-207.7 224,-229.7 316,-229.7 316,-207.7 224,-207.7"/>
<polygon fill="none" stroke="#000000" points="224,-207.7 224,-229.7 316,-229.7 316,-207.7 224,-207.7"/>
<image xlink:href="../../images/foreignKeys.png" width="11px" height="12px" preserveAspectRatio="xMinYMin meet" x="229" y="-224.7"/>
<text text-anchor="start" x="244" y="-214.8" font-family="Helvetica,sans-Serif" font-size="11.00" fill="#000000">author_id</text>
<polygon fill="none" stroke="#000000" points="224,-185.7 224,-207.7 316,-207.7 316,-185.7 224,-185.7"/>
<image xlink:href="../../images/foreignKeys.png" width="11px" height="12px" preserveAspectRatio="xMinYMin meet" x="229" y="-202.7"/>
<text text-anchor="start" x="244" y="-192.8" font-family="Helvetica,sans-Serif" font-size="11.00" fill="#000000">upstream_id</text>
<polygon fill="none" stroke="#000000" points="224,-163.7 224,-185.7 316,-185.7 316,-163.7 224,-163.7"/>
<image xlink:href="../../images/foreignKeys.png" width="11px" height="12px" preserveAspectRatio="xMinYMin meet" x="229" y="-180.7"/>
<text text-anchor="start" x="244" y="-170.8" font-family="Helvetica,sans-Serif" font-size="11.00" fill="#000000">cover</text>
<polygon fill="#ffffff" stroke="transparent" points="224,-141.7 224,-163.7 316,-163.7 316,-141.7 224,-141.7"/>
<polygon fill="none" stroke="#000000" points="224,-141.7 224,-163.7 316,-163.7 316,-141.7 224,-141.7"/>
<text text-anchor="start" x="244" y="-148.8" font-family="Helvetica,sans-Serif" font-size="11.00" fill="#000000">media_hash</text>
<polygon fill="#ffffff" stroke="transparent" points="224,-119.7 224,-141.7 316,-141.7 316,-119.7 224,-119.7"/>
<polygon fill="none" stroke="#000000" points="224,-119.7 224,-141.7 316,-141.7 316,-119.7 224,-119.7"/>
<text text-anchor="start" x="244" y="-126.8" font-family="Helvetica,sans-Serif" font-size="11.00" fill="#000000">state</text>
<polygon fill="#ffffff" stroke="transparent" points="224,-97.7 224,-119.7 316,-119.7 316,-97.7 224,-97.7"/>
<polygon fill="none" stroke="#000000" points="224,-97.7 224,-119.7 316,-119.7 316,-97.7 224,-97.7"/>
<text text-anchor="start" x="244" y="-104.8" font-family="Helvetica,sans-Serif" font-size="11.00" fill="#000000">created_at</text>
<polygon fill="none" stroke="#000000" points="224,-75.7 224,-97.7 316,-97.7 316,-75.7 224,-75.7"/>
<image xlink:href="../../images/foreignKeys.png" width="11px" height="12px" preserveAspectRatio="xMinYMin meet" x="229" y="-92.7"/>
<text text-anchor="start" x="244" y="-82.8" font-family="Helvetica,sans-Serif" font-size="11.00" fill="#000000">draft_id</text>
<polygon fill="none" stroke="#000000" points="224,-56.7 224,-75.7 316,-75.7 316,-56.7 224,-56.7"/>
<text text-anchor="start" x="227" y="-62.8" font-family="Helvetica,sans-Serif" font-size="11.00" fill="#000000">...</text>
<polygon fill="#ffffff" stroke="transparent" points="224,-37.7 224,-56.7 261,-56.7 261,-37.7 224,-37.7"/>
<polygon fill="none" stroke="#000000" points="224,-37.7 224,-56.7 261,-56.7 261,-37.7 224,-37.7"/>
<text text-anchor="start" x="227" y="-43.8" font-family="Helvetica,sans-Serif" font-size="11.00" fill="#000000">&lt; 4</text>
<polygon fill="#ffffff" stroke="transparent" points="261,-37.7 261,-56.7 281,-56.7 281,-37.7 261,-37.7"/>
<polygon fill="none" stroke="#000000" points="261,-37.7 261,-56.7 281,-56.7 281,-37.7 261,-37.7"/>
<text text-anchor="start" x="271.8862" y="-43.8" font-family="Helvetica,sans-Serif" font-size="11.00" fill="#000000"> &#160;</text>
<polygon fill="#ffffff" stroke="transparent" points="281,-37.7 281,-56.7 316,-56.7 316,-37.7 281,-37.7"/>
<polygon fill="none" stroke="#000000" points="281,-37.7 281,-56.7 316,-56.7 316,-37.7 281,-37.7"/>
<text text-anchor="start" x="291.2904" y="-43.8" font-family="Helvetica,sans-Serif" font-size="11.00" fill="#000000">14 &gt;</text>
</a>
</g>
</g>
<!-- action_article&#45;&gt;article -->
<g id="edge1" class="edge">
<title>action_article:w&#45;&gt;article:e</title>
<path fill="none" stroke="#000000" d="M352.5965,-246.6063C340.3977,-244.6375 333.1594,-240.7 316,-240.7"/>
<polygon fill="#000000" stroke="#000000" points="359.023,-247.0942 366.7274,-251.2897 363.0115,-247.3971 367,-247.7 367,-247.7 367,-247.7 363.0115,-247.3971 367.2726,-244.1103 359.023,-247.0942 359.023,-247.0942"/>
<ellipse fill="none" stroke="#000000" cx="355.8322" cy="-246.8519" rx="3.2" ry="3.2"/>
</g>
<!-- user -->
<g id="node3" class="node">
<title>user</title>
<g id="a_node3"><a xlink:href="../../tables/user.html" xlink:title="user" target="_top">
<polygon fill="#ffffff" stroke="transparent" points="8,-78.2 8,-293.2 175,-293.2 175,-78.2 8,-78.2"/>
<polygon fill="#f5f5f5" stroke="transparent" points="8.5,-269.7 8.5,-292.7 175.5,-292.7 175.5,-269.7 8.5,-269.7"/>
<polygon fill="none" stroke="#000000" points="8.5,-269.7 8.5,-292.7 175.5,-292.7 175.5,-269.7 8.5,-269.7"/>
<text text-anchor="start" x="13.5" y="-278.8" font-family="Helvetica,sans-Serif" font-weight="bold" font-size="11.00" fill="#000000">user</text>
<text text-anchor="start" x="140.5437" y="-277.8" font-family="Helvetica,sans-Serif" font-size="11.00" fill="#000000">[table]</text>
<polygon fill="none" stroke="#000000" points="8.5,-247.7 8.5,-269.7 175.5,-269.7 175.5,-247.7 8.5,-247.7"/>
<image xlink:href="../../images/primaryKeys.png" width="11px" height="12px" preserveAspectRatio="xMinYMin meet" x="13.5" y="-264.7"/>
<text text-anchor="start" x="28.5" y="-254.8" font-family="Helvetica,sans-Serif" font-size="11.00" fill="#000000">id</text>
<polygon fill="#ffffff" stroke="transparent" points="8.5,-225.7 8.5,-247.7 175.5,-247.7 175.5,-225.7 8.5,-225.7"/>
<polygon fill="none" stroke="#000000" points="8.5,-225.7 8.5,-247.7 175.5,-247.7 175.5,-225.7 8.5,-225.7"/>
<text text-anchor="start" x="28.5" y="-232.8" font-family="Helvetica,sans-Serif" font-size="11.00" fill="#000000">uuid</text>
<polygon fill="#ffffff" stroke="transparent" points="8.5,-203.7 8.5,-225.7 175.5,-225.7 175.5,-203.7 8.5,-203.7"/>
<polygon fill="none" stroke="#000000" points="8.5,-203.7 8.5,-225.7 175.5,-225.7 175.5,-203.7 8.5,-203.7"/>
<text text-anchor="start" x="28.5" y="-210.8" font-family="Helvetica,sans-Serif" font-size="11.00" fill="#000000">user_name</text>
<polygon fill="none" stroke="#000000" points="8.5,-181.7 8.5,-203.7 175.5,-203.7 175.5,-181.7 8.5,-181.7"/>
<image xlink:href="../../images/foreignKeys.png" width="11px" height="12px" preserveAspectRatio="xMinYMin meet" x="13.5" y="-198.7"/>
<text text-anchor="start" x="28.5" y="-188.8" font-family="Helvetica,sans-Serif" font-size="11.00" fill="#000000">avatar</text>
<polygon fill="#ffffff" stroke="transparent" points="8.5,-159.7 8.5,-181.7 175.5,-181.7 175.5,-159.7 8.5,-159.7"/>
<polygon fill="none" stroke="#000000" points="8.5,-159.7 8.5,-181.7 175.5,-181.7 175.5,-159.7 8.5,-159.7"/>
<text text-anchor="start" x="28.5" y="-166.8" font-family="Helvetica,sans-Serif" font-size="11.00" fill="#000000">email</text>
<polygon fill="#ffffff" stroke="transparent" points="8.5,-137.7 8.5,-159.7 175.5,-159.7 175.5,-137.7 8.5,-137.7"/>
<polygon fill="none" stroke="#000000" points="8.5,-137.7 8.5,-159.7 175.5,-159.7 175.5,-137.7 8.5,-137.7"/>
<text text-anchor="start" x="28.5" y="-144.8" font-family="Helvetica,sans-Serif" font-size="11.00" fill="#000000">state</text>
<polygon fill="#ffffff" stroke="transparent" points="8.5,-115.7 8.5,-137.7 175.5,-137.7 175.5,-115.7 8.5,-115.7"/>
<polygon fill="none" stroke="#000000" points="8.5,-115.7 8.5,-137.7 175.5,-137.7 175.5,-115.7 8.5,-115.7"/>
<text text-anchor="start" x="28.5" y="-122.8" font-family="Helvetica,sans-Serif" font-size="11.00" fill="#000000">liker_id</text>
<polygon fill="none" stroke="#000000" points="8.5,-96.7 8.5,-115.7 175.5,-115.7 175.5,-96.7 8.5,-96.7"/>
<text text-anchor="start" x="11.5" y="-102.8" font-family="Helvetica,sans-Serif" font-size="11.00" fill="#000000">...</text>
<polygon fill="#ffffff" stroke="transparent" points="8.5,-77.7 8.5,-96.7 82.5,-96.7 82.5,-77.7 8.5,-77.7"/>
<polygon fill="none" stroke="#000000" points="8.5,-77.7 8.5,-96.7 82.5,-96.7 82.5,-77.7 8.5,-77.7"/>
<text text-anchor="start" x="11.5" y="-83.8" font-family="Helvetica,sans-Serif" font-size="11.00" fill="#000000">&lt; 1</text>
<polygon fill="#ffffff" stroke="transparent" points="82.5,-77.7 82.5,-96.7 121.5,-96.7 121.5,-77.7 82.5,-77.7"/>
<polygon fill="none" stroke="#000000" points="82.5,-77.7 82.5,-96.7 121.5,-96.7 121.5,-77.7 82.5,-77.7"/>
<text text-anchor="start" x="112.3862" y="-83.8" font-family="Helvetica,sans-Serif" font-size="11.00" fill="#000000"> &#160;</text>
<polygon fill="#ffffff" stroke="transparent" points="121.5,-77.7 121.5,-96.7 175.5,-96.7 175.5,-77.7 121.5,-77.7"/>
<polygon fill="none" stroke="#000000" points="121.5,-77.7 121.5,-96.7 175.5,-96.7 175.5,-77.7 121.5,-77.7"/>
<text text-anchor="start" x="150.7904" y="-83.8" font-family="Helvetica,sans-Serif" font-size="11.00" fill="#000000">42 &gt;</text>
</a>
</g>
</g>
<!-- action_article&#45;&gt;user -->
<g id="edge2" class="edge">
<title>action_article:w&#45;&gt;user:e</title>
<path fill="none" stroke="#000000" d="M352.4335,-291.9343C296.5413,-293.7391 275.017,-304.8561 216,-285.7 195.4235,-279.0211 197.1333,-258.7 175.5,-258.7"/>
<polygon fill="#000000" stroke="#000000" points="359.001,-291.8287 367.0579,-295.2995 363.0005,-291.7644 367,-291.7 367,-291.7 367,-291.7 363.0005,-291.7644 366.9421,-288.1005 359.001,-291.8287 359.001,-291.8287"/>
<ellipse fill="none" stroke="#000000" cx="355.8014" cy="-291.8802" rx="3.2" ry="3.2"/>
</g>
<!-- article&#45;&gt;user -->
<g id="edge3" class="edge">
<title>article:w&#45;&gt;user:e</title>
<path fill="none" stroke="#000000" d="M209.9951,-223.6048C197.5984,-234.2859 197.3288,-258.7 175.5,-258.7"/>
<polygon fill="#000000" stroke="#000000" points="216.4496,-221.3443 225.1899,-222.0977 220.2248,-220.0222 224,-218.7 224,-218.7 224,-218.7 220.2248,-220.0222 222.8101,-215.3023 216.4496,-221.3443 216.4496,-221.3443"/>
<ellipse fill="none" stroke="#000000" cx="213.4295" cy="-222.402" rx="3.2" ry="3.2"/>
</g>
</g>
</svg>
