<?xml version="1.0" encoding="UTF-8" standalone="no"?>
<!DOCTYPE svg PUBLIC "-//W3C//DTD SVG 1.1//EN"
 "http://www.w3.org/Graphics/SVG/1.1/DTD/svg11.dtd">
<!-- Generated by graphviz version 2.40.1 (20161225.0304)
 -->
<!-- Title: oneDegreeRelationshipsDiagram Pages: 1 -->
<svg width="421pt" height="391pt"
 viewBox="0.00 0.00 421.00 391.20" xmlns="http://www.w3.org/2000/svg" xmlns:xlink="http://www.w3.org/1999/xlink">
<g id="graph0" class="graph" transform="scale(1 1) rotate(0) translate(4 387.2)">
<title>oneDegreeRelationshipsDiagram</title>
<polygon fill="#ffffff" stroke="transparent" points="-4,4 -4,-387.2 417,-387.2 417,4 -4,4"/>
<text text-anchor="middle" x="72.4936" y="-7.3" font-family="Helvetica,sans-Serif" font-size="11.00" fill="#000000">Generated by SchemaSpy</text>
<!-- action_tag -->
<g id="node1" class="node">
<title>action_tag</title>
<g id="a_node1"><a xlink:href="../../tables/action_tag.html" xlink:title="action_tag" target="_top">
<polygon fill="#ffffff" stroke="transparent" points="224,-128.7 224,-306.7 405,-306.7 405,-128.7 224,-128.7"/>
<polygon fill="#f5f5f5" stroke="transparent" points="226.5,-281.7 226.5,-304.7 403.5,-304.7 403.5,-281.7 226.5,-281.7"/>
<polygon fill="none" stroke="#000000" points="226.5,-281.7 226.5,-304.7 403.5,-304.7 403.5,-281.7 226.5,-281.7"/>
<text text-anchor="start" x="231.5" y="-290.8" font-family="Helvetica,sans-Serif" font-weight="bold" font-size="11.00" fill="#000000">action_tag</text>
<text text-anchor="start" x="368.5437" y="-289.8" font-family="Helvetica,sans-Serif" font-size="11.00" fill="#000000">[table]</text>
<polygon fill="none" stroke="#000000" points="226.5,-259.7 226.5,-281.7 311.5,-281.7 311.5,-259.7 226.5,-259.7"/>
<image xlink:href="../../images/primaryKeys.png" width="11px" height="12px" preserveAspectRatio="xMinYMin meet" x="231.5" y="-276.7"/>
<text text-anchor="start" x="246.5" y="-266.8" font-family="Helvetica,sans-Serif" font-size="11.00" fill="#000000">id</text>
<polygon fill="none" stroke="#000000" points="311.5,-259.7 311.5,-281.7 403.5,-281.7 403.5,-259.7 311.5,-259.7"/>
<text text-anchor="start" x="314.5" y="-267.4" font-family="Helvetica,sans-Serif" font-size="11.00" fill="#000000">bigserial[19]</text>
<polygon fill="#ffffff" stroke="transparent" points="226.5,-237.7 226.5,-259.7 311.5,-259.7 311.5,-237.7 226.5,-237.7"/>
<polygon fill="none" stroke="#000000" points="226.5,-237.7 226.5,-259.7 311.5,-259.7 311.5,-237.7 226.5,-237.7"/>
<image xlink:href="../../images/foreignKeys.png" width="11px" height="12px" preserveAspectRatio="xMinYMin meet" x="231.5" y="-254.7"/>
<text text-anchor="start" x="246.5" y="-244.8" font-family="Helvetica,sans-Serif" font-size="11.00" fill="#000000">user_id</text>
<polygon fill="none" stroke="#000000" points="311.5,-237.7 311.5,-259.7 403.5,-259.7 403.5,-237.7 311.5,-237.7"/>
<text text-anchor="start" x="314.5" y="-245.4" font-family="Helvetica,sans-Serif" font-size="11.00" fill="#000000">int8[19]</text>
<polygon fill="#ffffff" stroke="transparent" points="226.5,-215.7 226.5,-237.7 311.5,-237.7 311.5,-215.7 226.5,-215.7"/>
<polygon fill="none" stroke="#000000" points="226.5,-215.7 226.5,-237.7 311.5,-237.7 311.5,-215.7 226.5,-215.7"/>
<text text-anchor="start" x="246.5" y="-222.8" font-family="Helvetica,sans-Serif" font-size="11.00" fill="#000000">action</text>
<polygon fill="none" stroke="#000000" points="311.5,-215.7 311.5,-237.7 403.5,-237.7 403.5,-215.7 311.5,-215.7"/>
<text text-anchor="start" x="314.5" y="-223.4" font-family="Helvetica,sans-Serif" font-size="11.00" fill="#000000">text[2147483647]</text>
<polygon fill="#ffffff" stroke="transparent" points="226.5,-193.7 226.5,-215.7 311.5,-215.7 311.5,-193.7 226.5,-193.7"/>
<polygon fill="none" stroke="#000000" points="226.5,-193.7 226.5,-215.7 311.5,-215.7 311.5,-193.7 226.5,-193.7"/>
<image xlink:href="../../images/foreignKeys.png" width="11px" height="12px" preserveAspectRatio="xMinYMin meet" x="231.5" y="-210.7"/>
<text text-anchor="start" x="246.5" y="-200.8" font-family="Helvetica,sans-Serif" font-size="11.00" fill="#000000">target_id</text>
<polygon fill="none" stroke="#000000" points="311.5,-193.7 311.5,-215.7 403.5,-215.7 403.5,-193.7 311.5,-193.7"/>
<text text-anchor="start" x="314.5" y="-201.4" font-family="Helvetica,sans-Serif" font-size="11.00" fill="#000000">int8[19]</text>
<polygon fill="none" stroke="#000000" points="226.5,-171.7 226.5,-193.7 311.5,-193.7 311.5,-171.7 226.5,-171.7"/>
<text text-anchor="start" x="246.5" y="-178.8" font-family="Helvetica,sans-Serif" font-size="11.00" fill="#000000">updated_at</text>
<polygon fill="none" stroke="#000000" points="311.5,-171.7 311.5,-193.7 403.5,-193.7 403.5,-171.7 311.5,-171.7"/>
<text text-anchor="start" x="314.1023" y="-179.4" font-family="Helvetica,sans-Serif" font-size="11.00" fill="#000000">timestamptz[35,6]</text>
<polygon fill="none" stroke="#000000" points="226.5,-149.7 226.5,-171.7 311.5,-171.7 311.5,-149.7 226.5,-149.7"/>
<text text-anchor="start" x="246.5" y="-156.8" font-family="Helvetica,sans-Serif" font-size="11.00" fill="#000000">created_at</text>
<polygon fill="none" stroke="#000000" points="311.5,-149.7 311.5,-171.7 403.5,-171.7 403.5,-149.7 311.5,-149.7"/>
<text text-anchor="start" x="314.1023" y="-157.4" font-family="Helvetica,sans-Serif" font-size="11.00" fill="#000000">timestamptz[35,6]</text>
<polygon fill="#ffffff" stroke="transparent" points="226.5,-130.7 226.5,-149.7 273.5,-149.7 273.5,-130.7 226.5,-130.7"/>
<polygon fill="none" stroke="#000000" points="226.5,-130.7 226.5,-149.7 273.5,-149.7 273.5,-130.7 226.5,-130.7"/>
<text text-anchor="start" x="229.5" y="-136.8" font-family="Helvetica,sans-Serif" font-size="11.00" fill="#000000">&lt; 2</text>
<polygon fill="#ffffff" stroke="transparent" points="273.5,-130.7 273.5,-149.7 311.5,-149.7 311.5,-130.7 273.5,-130.7"/>
<polygon fill="none" stroke="#000000" points="273.5,-130.7 273.5,-149.7 311.5,-149.7 311.5,-130.7 273.5,-130.7"/>
<text text-anchor="start" x="302.3862" y="-136.8" font-family="Helvetica,sans-Serif" font-size="11.00" fill="#000000"> &#160;</text>
<polygon fill="#ffffff" stroke="transparent" points="311.5,-130.7 311.5,-149.7 403.5,-149.7 403.5,-130.7 311.5,-130.7"/>
<polygon fill="none" stroke="#000000" points="311.5,-130.7 311.5,-149.7 403.5,-149.7 403.5,-130.7 311.5,-130.7"/>
<text text-anchor="start" x="384.9053" y="-136.8" font-family="Helvetica,sans-Serif" font-size="11.00" fill="#000000">0 &gt;</text>
<polygon fill="none" stroke="#000000" stroke-width="2" points="225,-129.7 225,-305.7 404,-305.7 404,-129.7 225,-129.7"/>
</a>
</g>
</g>
<!-- tag -->
<g id="node2" class="node">
<title>tag</title>
<g id="a_node2"><a xlink:href="../../tables/tag.html" xlink:title="tag" target="_top">
<polygon fill="#ffffff" stroke="transparent" points="49,-38.2 49,-143.2 134,-143.2 134,-38.2 49,-38.2"/>
<polygon fill="#f5f5f5" stroke="transparent" points="49.5,-119.7 49.5,-142.7 134.5,-142.7 134.5,-119.7 49.5,-119.7"/>
<polygon fill="none" stroke="#000000" points="49.5,-119.7 49.5,-142.7 134.5,-142.7 134.5,-119.7 49.5,-119.7"/>
<text text-anchor="start" x="54.5" y="-128.8" font-family="Helvetica,sans-Serif" font-weight="bold" font-size="11.00" fill="#000000">tag</text>
<text text-anchor="start" x="99.5437" y="-127.8" font-family="Helvetica,sans-Serif" font-size="11.00" fill="#000000">[table]</text>
<polygon fill="none" stroke="#000000" points="49.5,-97.7 49.5,-119.7 134.5,-119.7 134.5,-97.7 49.5,-97.7"/>
<image xlink:href="../../images/primaryKeys.png" width="11px" height="12px" preserveAspectRatio="xMinYMin meet" x="54.5" y="-114.7"/>
<text text-anchor="start" x="69.5" y="-104.8" font-family="Helvetica,sans-Serif" font-size="11.00" fill="#000000">id</text>
<polygon fill="#ffffff" stroke="transparent" points="49.5,-75.7 49.5,-97.7 134.5,-97.7 134.5,-75.7 49.5,-75.7"/>
<polygon fill="none" stroke="#000000" points="49.5,-75.7 49.5,-97.7 134.5,-97.7 134.5,-75.7 49.5,-75.7"/>
<text text-anchor="start" x="69.5" y="-82.8" font-family="Helvetica,sans-Serif" font-size="11.00" fill="#000000">content</text>
<polygon fill="none" stroke="#000000" points="49.5,-56.7 49.5,-75.7 134.5,-75.7 134.5,-56.7 49.5,-56.7"/>
<text text-anchor="start" x="52.5" y="-62.8" font-family="Helvetica,sans-Serif" font-size="11.00" fill="#000000">...</text>
<polygon fill="#ffffff" stroke="transparent" points="49.5,-37.7 49.5,-56.7 81.5,-56.7 81.5,-37.7 49.5,-37.7"/>
<polygon fill="none" stroke="#000000" points="49.5,-37.7 49.5,-56.7 81.5,-56.7 81.5,-37.7 49.5,-37.7"/>
<text text-anchor="start" x="52.5" y="-43.8" font-family="Helvetica,sans-Serif" font-size="11.00" fill="#000000"> &#160;</text>
<polygon fill="#ffffff" stroke="transparent" points="81.5,-37.7 81.5,-56.7 103.5,-56.7 103.5,-37.7 81.5,-37.7"/>
<polygon fill="none" stroke="#000000" points="81.5,-37.7 81.5,-56.7 103.5,-56.7 103.5,-37.7 81.5,-37.7"/>
<text text-anchor="start" x="94.3862" y="-43.8" font-family="Helvetica,sans-Serif" font-size="11.00" fill="#000000"> &#160;</text>
<polygon fill="#ffffff" stroke="transparent" points="103.5,-37.7 103.5,-56.7 134.5,-56.7 134.5,-37.7 103.5,-37.7"/>
<polygon fill="none" stroke="#000000" points="103.5,-37.7 103.5,-56.7 134.5,-56.7 134.5,-37.7 103.5,-37.7"/>
<text text-anchor="start" x="115.9053" y="-43.8" font-family="Helvetica,sans-Serif" font-size="11.00" fill="#000000">3 &gt;</text>
</a>
</g>
</g>
<!-- action_tag&#45;&gt;tag -->
<g id="edge1" class="edge">
<title>action_tag:w&#45;&gt;tag:e</title>
<path fill="none" stroke="#000000" d="M212.3505,-201.3629C198.3806,-193.0462 199.4326,-170.834 183,-153.7 162.6466,-132.4779 163.9048,-108.7 134.5,-108.7"/>
<polygon fill="#000000" stroke="#000000" points="218.7136,-202.8636 225.6736,-208.2039 222.6068,-203.7818 226.5,-204.7 226.5,-204.7 226.5,-204.7 222.6068,-203.7818 227.3264,-201.1961 218.7136,-202.8636 218.7136,-202.8636"/>
<ellipse fill="none" stroke="#000000" cx="215.5991" cy="-202.129" rx="3.2" ry="3.2"/>
</g>
<!-- user -->
<g id="node3" class="node">
<title>user</title>
<g id="a_node3"><a xlink:href="../../tables/user.html" xlink:title="user" target="_top">
<polygon fill="#ffffff" stroke="transparent" points="8,-164.2 8,-379.2 175,-379.2 175,-164.2 8,-164.2"/>
<polygon fill="#f5f5f5" stroke="transparent" points="8.5,-355.7 8.5,-378.7 175.5,-378.7 175.5,-355.7 8.5,-355.7"/>
<polygon fill="none" stroke="#000000" points="8.5,-355.7 8.5,-378.7 175.5,-378.7 175.5,-355.7 8.5,-355.7"/>
<text text-anchor="start" x="13.5" y="-364.8" font-family="Helvetica,sans-Serif" font-weight="bold" font-size="11.00" fill="#000000">user</text>
<text text-anchor="start" x="140.5437" y="-363.8" font-family="Helvetica,sans-Serif" font-size="11.00" fill="#000000">[table]</text>
<polygon fill="none" stroke="#000000" points="8.5,-333.7 8.5,-355.7 175.5,-355.7 175.5,-333.7 8.5,-333.7"/>
<image xlink:href="../../images/primaryKeys.png" width="11px" height="12px" preserveAspectRatio="xMinYMin meet" x="13.5" y="-350.7"/>
<text text-anchor="start" x="28.5" y="-340.8" font-family="Helvetica,sans-Serif" font-size="11.00" fill="#000000">id</text>
<polygon fill="#ffffff" stroke="transparent" points="8.5,-311.7 8.5,-333.7 175.5,-333.7 175.5,-311.7 8.5,-311.7"/>
<polygon fill="none" stroke="#000000" points="8.5,-311.7 8.5,-333.7 175.5,-333.7 175.5,-311.7 8.5,-311.7"/>
<text text-anchor="start" x="28.5" y="-318.8" font-family="Helvetica,sans-Serif" font-size="11.00" fill="#000000">uuid</text>
<polygon fill="#ffffff" stroke="transparent" points="8.5,-289.7 8.5,-311.7 175.5,-311.7 175.5,-289.7 8.5,-289.7"/>
<polygon fill="none" stroke="#000000" points="8.5,-289.7 8.5,-311.7 175.5,-311.7 175.5,-289.7 8.5,-289.7"/>
<text text-anchor="start" x="28.5" y="-296.8" font-family="Helvetica,sans-Serif" font-size="11.00" fill="#000000">user_name</text>
<polygon fill="none" stroke="#000000" points="8.5,-267.7 8.5,-289.7 175.5,-289.7 175.5,-267.7 8.5,-267.7"/>
<image xlink:href="../../images/foreignKeys.png" width="11px" height="12px" preserveAspectRatio="xMinYMin meet" x="13.5" y="-284.7"/>
<text text-anchor="start" x="28.5" y="-274.8" font-family="Helvetica,sans-Serif" font-size="11.00" fill="#000000">avatar</text>
<polygon fill="#ffffff" stroke="transparent" points="8.5,-245.7 8.5,-267.7 175.5,-267.7 175.5,-245.7 8.5,-245.7"/>
<polygon fill="none" stroke="#000000" points="8.5,-245.7 8.5,-267.7 175.5,-267.7 175.5,-245.7 8.5,-245.7"/>
<text text-anchor="start" x="28.5" y="-252.8" font-family="Helvetica,sans-Serif" font-size="11.00" fill="#000000">email</text>
<polygon fill="#ffffff" stroke="transparent" points="8.5,-223.7 8.5,-245.7 175.5,-245.7 175.5,-223.7 8.5,-223.7"/>
<polygon fill="none" stroke="#000000" points="8.5,-223.7 8.5,-245.7 175.5,-245.7 175.5,-223.7 8.5,-223.7"/>
<text text-anchor="start" x="28.5" y="-230.8" font-family="Helvetica,sans-Serif" font-size="11.00" fill="#000000">state</text>
<polygon fill="#ffffff" stroke="transparent" points="8.5,-201.7 8.5,-223.7 175.5,-223.7 175.5,-201.7 8.5,-201.7"/>
<polygon fill="none" stroke="#000000" points="8.5,-201.7 8.5,-223.7 175.5,-223.7 175.5,-201.7 8.5,-201.7"/>
<text text-anchor="start" x="28.5" y="-208.8" font-family="Helvetica,sans-Serif" font-size="11.00" fill="#000000">liker_id</text>
<polygon fill="none" stroke="#000000" points="8.5,-182.7 8.5,-201.7 175.5,-201.7 175.5,-182.7 8.5,-182.7"/>
<text text-anchor="start" x="11.5" y="-188.8" font-family="Helvetica,sans-Serif" font-size="11.00" fill="#000000">...</text>
<polygon fill="#ffffff" stroke="transparent" points="8.5,-163.7 8.5,-182.7 82.5,-182.7 82.5,-163.7 8.5,-163.7"/>
<polygon fill="none" stroke="#000000" points="8.5,-163.7 8.5,-182.7 82.5,-182.7 82.5,-163.7 8.5,-163.7"/>
<text text-anchor="start" x="11.5" y="-169.8" font-family="Helvetica,sans-Serif" font-size="11.00" fill="#000000">&lt; 1</text>
<polygon fill="#ffffff" stroke="transparent" points="82.5,-163.7 82.5,-182.7 121.5,-182.7 121.5,-163.7 82.5,-163.7"/>
<polygon fill="none" stroke="#000000" points="82.5,-163.7 82.5,-182.7 121.5,-182.7 121.5,-163.7 82.5,-163.7"/>
<text text-anchor="start" x="112.3862" y="-169.8" font-family="Helvetica,sans-Serif" font-size="11.00" fill="#000000"> &#160;</text>
<polygon fill="#ffffff" stroke="transparent" points="121.5,-163.7 121.5,-182.7 175.5,-182.7 175.5,-163.7 121.5,-163.7"/>
<polygon fill="none" stroke="#000000" points="121.5,-163.7 121.5,-182.7 175.5,-182.7 175.5,-163.7 121.5,-163.7"/>
<text text-anchor="start" x="150.7904" y="-169.8" font-family="Helvetica,sans-Serif" font-size="11.00" fill="#000000">42 &gt;</text>
</a>
</g>
</g>
<!-- action_tag&#45;&gt;user -->
<g id="edge2" class="edge">
<title>action_tag:w&#45;&gt;user:e</title>
<path fill="none" stroke="#000000" d="M212.4189,-252.825C188.1253,-271.2 217.7746,-344.7 175.5,-344.7"/>
<polygon fill="#000000" stroke="#000000" points="218.8226,-250.9491 227.5121,-252.1548 222.6613,-249.8245 226.5,-248.7 226.5,-248.7 226.5,-248.7 222.6613,-249.8245 225.4879,-245.2452 218.8226,-250.9491 218.8226,-250.9491"/>
<ellipse fill="none" stroke="#000000" cx="215.7517" cy="-251.8487" rx="3.2" ry="3.2"/>
</g>
</g>
</svg>
