<?xml version="1.0" encoding="UTF-8" standalone="no"?>
<!DOCTYPE svg PUBLIC "-//W3C//DTD SVG 1.1//EN"
 "http://www.w3.org/Graphics/SVG/1.1/DTD/svg11.dtd">
<!-- Generated by graphviz version 2.40.1 (20161225.0304)
 -->
<!-- Title: oneDegreeRelationshipsDiagram Pages: 1 -->
<svg width="424pt" height="311pt"
 viewBox="0.00 0.00 424.00 310.70" xmlns="http://www.w3.org/2000/svg" xmlns:xlink="http://www.w3.org/1999/xlink">
<g id="graph0" class="graph" transform="scale(1 1) rotate(0) translate(4 306.7)">
<title>oneDegreeRelationshipsDiagram</title>
<polygon fill="#ffffff" stroke="transparent" points="-4,4 -4,-306.7 420,-306.7 420,4 -4,4"/>
<text text-anchor="middle" x="72.4936" y="-7.3" font-family="Helvetica,sans-Serif" font-size="11.00" fill="#000000">Generated by SchemaSpy</text>
<!-- action_user -->
<g id="node1" class="node">
<title>action_user</title>
<g id="a_node1"><a xlink:href="../../tables/action_user.html" xlink:title="action_user" target="_top">
<polygon fill="#ffffff" stroke="transparent" points="224,-120.7 224,-298.7 408,-298.7 408,-120.7 224,-120.7"/>
<polygon fill="#f5f5f5" stroke="transparent" points="226,-273.7 226,-296.7 406,-296.7 406,-273.7 226,-273.7"/>
<polygon fill="none" stroke="#000000" points="226,-273.7 226,-296.7 406,-296.7 406,-273.7 226,-273.7"/>
<text text-anchor="start" x="231" y="-282.8" font-family="Helvetica,sans-Serif" font-weight="bold" font-size="11.00" fill="#000000">action_user</text>
<text text-anchor="start" x="371.0437" y="-281.8" font-family="Helvetica,sans-Serif" font-size="11.00" fill="#000000">[table]</text>
<polygon fill="none" stroke="#000000" points="226,-251.7 226,-273.7 314,-273.7 314,-251.7 226,-251.7"/>
<image xlink:href="../../images/primaryKeys.png" width="11px" height="12px" preserveAspectRatio="xMinYMin meet" x="231" y="-268.7"/>
<text text-anchor="start" x="246" y="-258.8" font-family="Helvetica,sans-Serif" font-size="11.00" fill="#000000">id</text>
<polygon fill="none" stroke="#000000" points="314,-251.7 314,-273.7 406,-273.7 406,-251.7 314,-251.7"/>
<text text-anchor="start" x="317" y="-259.4" font-family="Helvetica,sans-Serif" font-size="11.00" fill="#000000">bigserial[19]</text>
<polygon fill="#ffffff" stroke="transparent" points="226,-229.7 226,-251.7 314,-251.7 314,-229.7 226,-229.7"/>
<polygon fill="none" stroke="#000000" points="226,-229.7 226,-251.7 314,-251.7 314,-229.7 226,-229.7"/>
<image xlink:href="../../images/foreignKeys.png" width="11px" height="12px" preserveAspectRatio="xMinYMin meet" x="231" y="-246.7"/>
<text text-anchor="start" x="246" y="-236.8" font-family="Helvetica,sans-Serif" font-size="11.00" fill="#000000">user_id</text>
<polygon fill="none" stroke="#000000" points="314,-229.7 314,-251.7 406,-251.7 406,-229.7 314,-229.7"/>
<text text-anchor="start" x="317" y="-237.4" font-family="Helvetica,sans-Serif" font-size="11.00" fill="#000000">int8[19]</text>
<polygon fill="#ffffff" stroke="transparent" points="226,-207.7 226,-229.7 314,-229.7 314,-207.7 226,-207.7"/>
<polygon fill="none" stroke="#000000" points="226,-207.7 226,-229.7 314,-229.7 314,-207.7 226,-207.7"/>
<text text-anchor="start" x="246" y="-214.8" font-family="Helvetica,sans-Serif" font-size="11.00" fill="#000000">action</text>
<polygon fill="none" stroke="#000000" points="314,-207.7 314,-229.7 406,-229.7 406,-207.7 314,-207.7"/>
<text text-anchor="start" x="317" y="-215.4" font-family="Helvetica,sans-Serif" font-size="11.00" fill="#000000">text[2147483647]</text>
<polygon fill="#ffffff" stroke="transparent" points="226,-185.7 226,-207.7 314,-207.7 314,-185.7 226,-185.7"/>
<polygon fill="none" stroke="#000000" points="226,-185.7 226,-207.7 314,-207.7 314,-185.7 226,-185.7"/>
<image xlink:href="../../images/foreignKeys.png" width="11px" height="12px" preserveAspectRatio="xMinYMin meet" x="231" y="-202.7"/>
<text text-anchor="start" x="246" y="-192.8" font-family="Helvetica,sans-Serif" font-size="11.00" fill="#000000">target_id</text>
<polygon fill="none" stroke="#000000" points="314,-185.7 314,-207.7 406,-207.7 406,-185.7 314,-185.7"/>
<text text-anchor="start" x="317" y="-193.4" font-family="Helvetica,sans-Serif" font-size="11.00" fill="#000000">int8[19]</text>
<polygon fill="none" stroke="#000000" points="226,-163.7 226,-185.7 314,-185.7 314,-163.7 226,-163.7"/>
<text text-anchor="start" x="246" y="-170.8" font-family="Helvetica,sans-Serif" font-size="11.00" fill="#000000">updated_at</text>
<polygon fill="none" stroke="#000000" points="314,-163.7 314,-185.7 406,-185.7 406,-163.7 314,-163.7"/>
<text text-anchor="start" x="316.6023" y="-171.4" font-family="Helvetica,sans-Serif" font-size="11.00" fill="#000000">timestamptz[35,6]</text>
<polygon fill="none" stroke="#000000" points="226,-141.7 226,-163.7 314,-163.7 314,-141.7 226,-141.7"/>
<text text-anchor="start" x="246" y="-148.8" font-family="Helvetica,sans-Serif" font-size="11.00" fill="#000000">created_at</text>
<polygon fill="none" stroke="#000000" points="314,-141.7 314,-163.7 406,-163.7 406,-141.7 314,-141.7"/>
<text text-anchor="start" x="316.6023" y="-149.4" font-family="Helvetica,sans-Serif" font-size="11.00" fill="#000000">timestamptz[35,6]</text>
<polygon fill="#ffffff" stroke="transparent" points="226,-122.7 226,-141.7 274,-141.7 274,-122.7 226,-122.7"/>
<polygon fill="none" stroke="#000000" points="226,-122.7 226,-141.7 274,-141.7 274,-122.7 226,-122.7"/>
<text text-anchor="start" x="229" y="-128.8" font-family="Helvetica,sans-Serif" font-size="11.00" fill="#000000">&lt; 2</text>
<polygon fill="#ffffff" stroke="transparent" points="274,-122.7 274,-141.7 314,-141.7 314,-122.7 274,-122.7"/>
<polygon fill="none" stroke="#000000" points="274,-122.7 274,-141.7 314,-141.7 314,-122.7 274,-122.7"/>
<text text-anchor="start" x="304.8862" y="-128.8" font-family="Helvetica,sans-Serif" font-size="11.00" fill="#000000"> &#160;</text>
<polygon fill="#ffffff" stroke="transparent" points="314,-122.7 314,-141.7 406,-141.7 406,-122.7 314,-122.7"/>
<polygon fill="none" stroke="#000000" points="314,-122.7 314,-141.7 406,-141.7 406,-122.7 314,-122.7"/>
<text text-anchor="start" x="387.4053" y="-128.8" font-family="Helvetica,sans-Serif" font-size="11.00" fill="#000000">0 &gt;</text>
<polygon fill="none" stroke="#000000" stroke-width="2" points="225,-121.7 225,-297.7 407,-297.7 407,-121.7 225,-121.7"/>
</a>
</g>
</g>
<!-- user -->
<g id="node2" class="node">
<title>user</title>
<g id="a_node2"><a xlink:href="../../tables/user.html" xlink:title="user" target="_top">
<polygon fill="#ffffff" stroke="transparent" points="8,-38.2 8,-253.2 175,-253.2 175,-38.2 8,-38.2"/>
<polygon fill="#f5f5f5" stroke="transparent" points="8.5,-229.7 8.5,-252.7 175.5,-252.7 175.5,-229.7 8.5,-229.7"/>
<polygon fill="none" stroke="#000000" points="8.5,-229.7 8.5,-252.7 175.5,-252.7 175.5,-229.7 8.5,-229.7"/>
<text text-anchor="start" x="13.5" y="-238.8" font-family="Helvetica,sans-Serif" font-weight="bold" font-size="11.00" fill="#000000">user</text>
<text text-anchor="start" x="140.5437" y="-237.8" font-family="Helvetica,sans-Serif" font-size="11.00" fill="#000000">[table]</text>
<polygon fill="none" stroke="#000000" points="8.5,-207.7 8.5,-229.7 175.5,-229.7 175.5,-207.7 8.5,-207.7"/>
<image xlink:href="../../images/primaryKeys.png" width="11px" height="12px" preserveAspectRatio="xMinYMin meet" x="13.5" y="-224.7"/>
<text text-anchor="start" x="28.5" y="-214.8" font-family="Helvetica,sans-Serif" font-size="11.00" fill="#000000">id</text>
<polygon fill="#ffffff" stroke="transparent" points="8.5,-185.7 8.5,-207.7 175.5,-207.7 175.5,-185.7 8.5,-185.7"/>
<polygon fill="none" stroke="#000000" points="8.5,-185.7 8.5,-207.7 175.5,-207.7 175.5,-185.7 8.5,-185.7"/>
<text text-anchor="start" x="28.5" y="-192.8" font-family="Helvetica,sans-Serif" font-size="11.00" fill="#000000">uuid</text>
<polygon fill="#ffffff" stroke="transparent" points="8.5,-163.7 8.5,-185.7 175.5,-185.7 175.5,-163.7 8.5,-163.7"/>
<polygon fill="none" stroke="#000000" points="8.5,-163.7 8.5,-185.7 175.5,-185.7 175.5,-163.7 8.5,-163.7"/>
<text text-anchor="start" x="28.5" y="-170.8" font-family="Helvetica,sans-Serif" font-size="11.00" fill="#000000">user_name</text>
<polygon fill="none" stroke="#000000" points="8.5,-141.7 8.5,-163.7 175.5,-163.7 175.5,-141.7 8.5,-141.7"/>
<image xlink:href="../../images/foreignKeys.png" width="11px" height="12px" preserveAspectRatio="xMinYMin meet" x="13.5" y="-158.7"/>
<text text-anchor="start" x="28.5" y="-148.8" font-family="Helvetica,sans-Serif" font-size="11.00" fill="#000000">avatar</text>
<polygon fill="#ffffff" stroke="transparent" points="8.5,-119.7 8.5,-141.7 175.5,-141.7 175.5,-119.7 8.5,-119.7"/>
<polygon fill="none" stroke="#000000" points="8.5,-119.7 8.5,-141.7 175.5,-141.7 175.5,-119.7 8.5,-119.7"/>
<text text-anchor="start" x="28.5" y="-126.8" font-family="Helvetica,sans-Serif" font-size="11.00" fill="#000000">email</text>
<polygon fill="#ffffff" stroke="transparent" points="8.5,-97.7 8.5,-119.7 175.5,-119.7 175.5,-97.7 8.5,-97.7"/>
<polygon fill="none" stroke="#000000" points="8.5,-97.7 8.5,-119.7 175.5,-119.7 175.5,-97.7 8.5,-97.7"/>
<text text-anchor="start" x="28.5" y="-104.8" font-family="Helvetica,sans-Serif" font-size="11.00" fill="#000000">state</text>
<polygon fill="#ffffff" stroke="transparent" points="8.5,-75.7 8.5,-97.7 175.5,-97.7 175.5,-75.7 8.5,-75.7"/>
<polygon fill="none" stroke="#000000" points="8.5,-75.7 8.5,-97.7 175.5,-97.7 175.5,-75.7 8.5,-75.7"/>
<text text-anchor="start" x="28.5" y="-82.8" font-family="Helvetica,sans-Serif" font-size="11.00" fill="#000000">liker_id</text>
<polygon fill="none" stroke="#000000" points="8.5,-56.7 8.5,-75.7 175.5,-75.7 175.5,-56.7 8.5,-56.7"/>
<text text-anchor="start" x="11.5" y="-62.8" font-family="Helvetica,sans-Serif" font-size="11.00" fill="#000000">...</text>
<polygon fill="#ffffff" stroke="transparent" points="8.5,-37.7 8.5,-56.7 82.5,-56.7 82.5,-37.7 8.5,-37.7"/>
<polygon fill="none" stroke="#000000" points="8.5,-37.7 8.5,-56.7 82.5,-56.7 82.5,-37.7 8.5,-37.7"/>
<text text-anchor="start" x="11.5" y="-43.8" font-family="Helvetica,sans-Serif" font-size="11.00" fill="#000000">&lt; 1</text>
<polygon fill="#ffffff" stroke="transparent" points="82.5,-37.7 82.5,-56.7 121.5,-56.7 121.5,-37.7 82.5,-37.7"/>
<polygon fill="none" stroke="#000000" points="82.5,-37.7 82.5,-56.7 121.5,-56.7 121.5,-37.7 82.5,-37.7"/>
<text text-anchor="start" x="112.3862" y="-43.8" font-family="Helvetica,sans-Serif" font-size="11.00" fill="#000000"> &#160;</text>
<polygon fill="#ffffff" stroke="transparent" points="121.5,-37.7 121.5,-56.7 175.5,-56.7 175.5,-37.7 121.5,-37.7"/>
<polygon fill="none" stroke="#000000" points="121.5,-37.7 121.5,-56.7 175.5,-56.7 175.5,-37.7 121.5,-37.7"/>
<text text-anchor="start" x="150.7904" y="-43.8" font-family="Helvetica,sans-Serif" font-size="11.00" fill="#000000">42 &gt;</text>
</a>
</g>
</g>
<!-- action_user&#45;&gt;user -->
<g id="edge1" class="edge">
<title>action_user:w&#45;&gt;user:e</title>
<path fill="none" stroke="#000000" d="M211.5981,-199.9462C199.4282,-206.0658 194.0526,-218.7 175.5,-218.7"/>
<polygon fill="#000000" stroke="#000000" points="218.1958,-198.4591 226.7916,-200.2119 222.0979,-197.5796 226,-196.7 226,-196.7 226,-196.7 222.0979,-197.5796 225.2084,-193.1881 218.1958,-198.4591 218.1958,-198.4591"/>
<ellipse fill="none" stroke="#000000" cx="215.0741" cy="-199.1627" rx="3.2" ry="3.2"/>
</g>
<!-- action_user&#45;&gt;user -->
<g id="edge2" class="edge">
<title>action_user:w&#45;&gt;user:e</title>
<path fill="none" stroke="#000000" d="M211.5981,-237.4538C199.4282,-231.3342 194.0526,-218.7 175.5,-218.7"/>
<polygon fill="#000000" stroke="#000000" points="218.1958,-238.9409 225.2084,-244.2119 222.0979,-239.8204 226,-240.7 226,-240.7 226,-240.7 222.0979,-239.8204 226.7916,-237.1881 218.1958,-238.9409 218.1958,-238.9409"/>
<ellipse fill="none" stroke="#000000" cx="215.0741" cy="-238.2373" rx="3.2" ry="3.2"/>
</g>
</g>
</svg>
