<?xml version="1.0" encoding="UTF-8" standalone="no"?>
<!DOCTYPE svg PUBLIC "-//W3C//DTD SVG 1.1//EN"
 "http://www.w3.org/Graphics/SVG/1.1/DTD/svg11.dtd">
<!-- Generated by graphviz version 2.40.1 (20161225.0304)
 -->
<!-- Title: oneDegreeRelationshipsDiagram Pages: 1 -->
<svg width="636pt" height="340pt"
 viewBox="0.00 0.00 636.00 339.70" xmlns="http://www.w3.org/2000/svg" xmlns:xlink="http://www.w3.org/1999/xlink">
<g id="graph0" class="graph" transform="scale(1 1) rotate(0) translate(4 335.7)">
<title>oneDegreeRelationshipsDiagram</title>
<polygon fill="#ffffff" stroke="transparent" points="-4,4 -4,-335.7 632,-335.7 632,4 -4,4"/>
<text text-anchor="middle" x="72.4936" y="-7.3" font-family="Helvetica,sans-Serif" font-size="11.00" fill="#000000">Generated by SchemaSpy</text>
<!-- action_comment -->
<g id="node1" class="node">
<title>action_comment</title>
<g id="a_node1"><a xlink:href="../../tables/action_comment.html" xlink:title="action_comment" target="_top">
<polygon fill="#ffffff" stroke="transparent" points="408,-149.7 408,-327.7 620,-327.7 620,-149.7 408,-149.7"/>
<polygon fill="#f5f5f5" stroke="transparent" points="410,-302.7 410,-325.7 618,-325.7 618,-302.7 410,-302.7"/>
<polygon fill="none" stroke="#000000" points="410,-302.7 410,-325.7 618,-325.7 618,-302.7 410,-302.7"/>
<text text-anchor="start" x="415" y="-311.8" font-family="Helvetica,sans-Serif" font-weight="bold" font-size="11.00" fill="#000000">action_comment</text>
<text text-anchor="start" x="583.0437" y="-310.8" font-family="Helvetica,sans-Serif" font-size="11.00" fill="#000000">[table]</text>
<polygon fill="none" stroke="#000000" points="410,-280.7 410,-302.7 526,-302.7 526,-280.7 410,-280.7"/>
<image xlink:href="../../images/primaryKeys.png" width="11px" height="12px" preserveAspectRatio="xMinYMin meet" x="415" y="-297.7"/>
<text text-anchor="start" x="430" y="-287.8" font-family="Helvetica,sans-Serif" font-size="11.00" fill="#000000">id</text>
<polygon fill="none" stroke="#000000" points="526,-280.7 526,-302.7 618,-302.7 618,-280.7 526,-280.7"/>
<text text-anchor="start" x="529" y="-288.4" font-family="Helvetica,sans-Serif" font-size="11.00" fill="#000000">bigserial[19]</text>
<polygon fill="#ffffff" stroke="transparent" points="410,-258.7 410,-280.7 526,-280.7 526,-258.7 410,-258.7"/>
<polygon fill="none" stroke="#000000" points="410,-258.7 410,-280.7 526,-280.7 526,-258.7 410,-258.7"/>
<image xlink:href="../../images/foreignKeys.png" width="11px" height="12px" preserveAspectRatio="xMinYMin meet" x="415" y="-275.7"/>
<text text-anchor="start" x="430" y="-265.8" font-family="Helvetica,sans-Serif" font-size="11.00" fill="#000000">user_id</text>
<polygon fill="none" stroke="#000000" points="526,-258.7 526,-280.7 618,-280.7 618,-258.7 526,-258.7"/>
<text text-anchor="start" x="529" y="-266.4" font-family="Helvetica,sans-Serif" font-size="11.00" fill="#000000">int8[19]</text>
<polygon fill="#ffffff" stroke="transparent" points="410,-236.7 410,-258.7 526,-258.7 526,-236.7 410,-236.7"/>
<polygon fill="none" stroke="#000000" points="410,-236.7 410,-258.7 526,-258.7 526,-236.7 410,-236.7"/>
<text text-anchor="start" x="430" y="-243.8" font-family="Helvetica,sans-Serif" font-size="11.00" fill="#000000">action</text>
<polygon fill="none" stroke="#000000" points="526,-236.7 526,-258.7 618,-258.7 618,-236.7 526,-236.7"/>
<text text-anchor="start" x="529" y="-244.4" font-family="Helvetica,sans-Serif" font-size="11.00" fill="#000000">text[2147483647]</text>
<polygon fill="#ffffff" stroke="transparent" points="410,-214.7 410,-236.7 526,-236.7 526,-214.7 410,-214.7"/>
<polygon fill="none" stroke="#000000" points="410,-214.7 410,-236.7 526,-236.7 526,-214.7 410,-214.7"/>
<image xlink:href="../../images/foreignKeys.png" width="11px" height="12px" preserveAspectRatio="xMinYMin meet" x="415" y="-231.7"/>
<text text-anchor="start" x="430" y="-221.8" font-family="Helvetica,sans-Serif" font-size="11.00" fill="#000000">target_id</text>
<polygon fill="none" stroke="#000000" points="526,-214.7 526,-236.7 618,-236.7 618,-214.7 526,-214.7"/>
<text text-anchor="start" x="529" y="-222.4" font-family="Helvetica,sans-Serif" font-size="11.00" fill="#000000">int8[19]</text>
<polygon fill="none" stroke="#000000" points="410,-192.7 410,-214.7 526,-214.7 526,-192.7 410,-192.7"/>
<text text-anchor="start" x="430" y="-199.8" font-family="Helvetica,sans-Serif" font-size="11.00" fill="#000000">updated_at</text>
<polygon fill="none" stroke="#000000" points="526,-192.7 526,-214.7 618,-214.7 618,-192.7 526,-192.7"/>
<text text-anchor="start" x="528.6023" y="-200.4" font-family="Helvetica,sans-Serif" font-size="11.00" fill="#000000">timestamptz[35,6]</text>
<polygon fill="none" stroke="#000000" points="410,-170.7 410,-192.7 526,-192.7 526,-170.7 410,-170.7"/>
<text text-anchor="start" x="430" y="-177.8" font-family="Helvetica,sans-Serif" font-size="11.00" fill="#000000">created_at</text>
<polygon fill="none" stroke="#000000" points="526,-170.7 526,-192.7 618,-192.7 618,-170.7 526,-170.7"/>
<text text-anchor="start" x="528.6023" y="-178.4" font-family="Helvetica,sans-Serif" font-size="11.00" fill="#000000">timestamptz[35,6]</text>
<polygon fill="#ffffff" stroke="transparent" points="410,-151.7 410,-170.7 472,-170.7 472,-151.7 410,-151.7"/>
<polygon fill="none" stroke="#000000" points="410,-151.7 410,-170.7 472,-170.7 472,-151.7 410,-151.7"/>
<text text-anchor="start" x="413" y="-157.8" font-family="Helvetica,sans-Serif" font-size="11.00" fill="#000000">&lt; 2</text>
<polygon fill="#ffffff" stroke="transparent" points="472,-151.7 472,-170.7 526,-170.7 526,-151.7 472,-151.7"/>
<polygon fill="none" stroke="#000000" points="472,-151.7 472,-170.7 526,-170.7 526,-151.7 472,-151.7"/>
<text text-anchor="start" x="516.8862" y="-157.8" font-family="Helvetica,sans-Serif" font-size="11.00" fill="#000000"> &#160;</text>
<polygon fill="#ffffff" stroke="transparent" points="526,-151.7 526,-170.7 618,-170.7 618,-151.7 526,-151.7"/>
<polygon fill="none" stroke="#000000" points="526,-151.7 526,-170.7 618,-170.7 618,-151.7 526,-151.7"/>
<text text-anchor="start" x="599.4053" y="-157.8" font-family="Helvetica,sans-Serif" font-size="11.00" fill="#000000">0 &gt;</text>
<polygon fill="none" stroke="#000000" stroke-width="2" points="409,-150.7 409,-326.7 619,-326.7 619,-150.7 409,-150.7"/>
</a>
</g>
</g>
<!-- comment -->
<g id="node2" class="node">
<title>comment</title>
<g id="a_node2"><a xlink:href="../../tables/comment.html" xlink:title="comment" target="_top">
<polygon fill="#ffffff" stroke="transparent" points="224,-38.2 224,-253.2 359,-253.2 359,-38.2 224,-38.2"/>
<polygon fill="#f5f5f5" stroke="transparent" points="224.5,-229.7 224.5,-252.7 359.5,-252.7 359.5,-229.7 224.5,-229.7"/>
<polygon fill="none" stroke="#000000" points="224.5,-229.7 224.5,-252.7 359.5,-252.7 359.5,-229.7 224.5,-229.7"/>
<text text-anchor="start" x="229.5" y="-238.8" font-family="Helvetica,sans-Serif" font-weight="bold" font-size="11.00" fill="#000000">comment</text>
<text text-anchor="start" x="324.5437" y="-237.8" font-family="Helvetica,sans-Serif" font-size="11.00" fill="#000000">[table]</text>
<polygon fill="none" stroke="#000000" points="224.5,-207.7 224.5,-229.7 359.5,-229.7 359.5,-207.7 224.5,-207.7"/>
<image xlink:href="../../images/primaryKeys.png" width="11px" height="12px" preserveAspectRatio="xMinYMin meet" x="229.5" y="-224.7"/>
<text text-anchor="start" x="244.5" y="-214.8" font-family="Helvetica,sans-Serif" font-size="11.00" fill="#000000">id</text>
<polygon fill="#ffffff" stroke="transparent" points="224.5,-185.7 224.5,-207.7 359.5,-207.7 359.5,-185.7 224.5,-185.7"/>
<polygon fill="none" stroke="#000000" points="224.5,-185.7 224.5,-207.7 359.5,-207.7 359.5,-185.7 224.5,-185.7"/>
<text text-anchor="start" x="244.5" y="-192.8" font-family="Helvetica,sans-Serif" font-size="11.00" fill="#000000">uuid</text>
<polygon fill="#ffffff" stroke="transparent" points="224.5,-163.7 224.5,-185.7 359.5,-185.7 359.5,-163.7 224.5,-163.7"/>
<polygon fill="none" stroke="#000000" points="224.5,-163.7 224.5,-185.7 359.5,-185.7 359.5,-163.7 224.5,-163.7"/>
<image xlink:href="../../images/foreignKeys.png" width="11px" height="12px" preserveAspectRatio="xMinYMin meet" x="229.5" y="-180.7"/>
<text text-anchor="start" x="244.5" y="-170.8" font-family="Helvetica,sans-Serif" font-size="11.00" fill="#000000">author_id</text>
<polygon fill="#ffffff" stroke="transparent" points="224.5,-141.7 224.5,-163.7 359.5,-163.7 359.5,-141.7 224.5,-141.7"/>
<polygon fill="none" stroke="#000000" points="224.5,-141.7 224.5,-163.7 359.5,-163.7 359.5,-141.7 224.5,-141.7"/>
<image xlink:href="../../images/foreignKeys.png" width="11px" height="12px" preserveAspectRatio="xMinYMin meet" x="229.5" y="-158.7"/>
<text text-anchor="start" x="244.5" y="-148.8" font-family="Helvetica,sans-Serif" font-size="11.00" fill="#000000">article_id</text>
<polygon fill="#ffffff" stroke="transparent" points="224.5,-119.7 224.5,-141.7 359.5,-141.7 359.5,-119.7 224.5,-119.7"/>
<polygon fill="none" stroke="#000000" points="224.5,-119.7 224.5,-141.7 359.5,-141.7 359.5,-119.7 224.5,-119.7"/>
<image xlink:href="../../images/foreignKeys.png" width="11px" height="12px" preserveAspectRatio="xMinYMin meet" x="229.5" y="-136.7"/>
<text text-anchor="start" x="244.5" y="-126.8" font-family="Helvetica,sans-Serif" font-size="11.00" fill="#000000">parent_comment_id</text>
<polygon fill="#ffffff" stroke="transparent" points="224.5,-97.7 224.5,-119.7 359.5,-119.7 359.5,-97.7 224.5,-97.7"/>
<polygon fill="none" stroke="#000000" points="224.5,-97.7 224.5,-119.7 359.5,-119.7 359.5,-97.7 224.5,-97.7"/>
<text text-anchor="start" x="244.5" y="-104.8" font-family="Helvetica,sans-Serif" font-size="11.00" fill="#000000">state</text>
<polygon fill="none" stroke="#000000" points="224.5,-75.7 224.5,-97.7 359.5,-97.7 359.5,-75.7 224.5,-75.7"/>
<image xlink:href="../../images/foreignKeys.png" width="11px" height="12px" preserveAspectRatio="xMinYMin meet" x="229.5" y="-92.7"/>
<text text-anchor="start" x="244.5" y="-82.8" font-family="Helvetica,sans-Serif" font-size="11.00" fill="#000000">reply_to</text>
<polygon fill="none" stroke="#000000" points="224.5,-56.7 224.5,-75.7 359.5,-75.7 359.5,-56.7 224.5,-56.7"/>
<text text-anchor="start" x="227.5" y="-62.8" font-family="Helvetica,sans-Serif" font-size="11.00" fill="#000000">...</text>
<polygon fill="#ffffff" stroke="transparent" points="224.5,-37.7 224.5,-56.7 285.5,-56.7 285.5,-37.7 224.5,-37.7"/>
<polygon fill="none" stroke="#000000" points="224.5,-37.7 224.5,-56.7 285.5,-56.7 285.5,-37.7 224.5,-37.7"/>
<text text-anchor="start" x="227.5" y="-43.8" font-family="Helvetica,sans-Serif" font-size="11.00" fill="#000000">&lt; 4</text>
<polygon fill="#ffffff" stroke="transparent" points="285.5,-37.7 285.5,-56.7 317.5,-56.7 317.5,-37.7 285.5,-37.7"/>
<polygon fill="none" stroke="#000000" points="285.5,-37.7 285.5,-56.7 317.5,-56.7 317.5,-37.7 285.5,-37.7"/>
<text text-anchor="start" x="308.3862" y="-43.8" font-family="Helvetica,sans-Serif" font-size="11.00" fill="#000000"> &#160;</text>
<polygon fill="#ffffff" stroke="transparent" points="317.5,-37.7 317.5,-56.7 359.5,-56.7 359.5,-37.7 317.5,-37.7"/>
<polygon fill="none" stroke="#000000" points="317.5,-37.7 317.5,-56.7 359.5,-56.7 359.5,-37.7 317.5,-37.7"/>
<text text-anchor="start" x="340.9053" y="-43.8" font-family="Helvetica,sans-Serif" font-size="11.00" fill="#000000">5 &gt;</text>
</a>
</g>
</g>
<!-- action_comment&#45;&gt;comment -->
<g id="edge1" class="edge">
<title>action_comment:w&#45;&gt;comment:e</title>
<path fill="none" stroke="#000000" d="M395.3606,-224.5441C383.5074,-222.5559 376.3173,-218.7 359.5,-218.7"/>
<polygon fill="#000000" stroke="#000000" points="402.0248,-225.0702 409.7166,-229.2888 406.0124,-225.3851 410,-225.7 410,-225.7 410,-225.7 406.0124,-225.3851 410.2834,-222.1112 402.0248,-225.0702 402.0248,-225.0702"/>
<ellipse fill="none" stroke="#000000" cx="398.8348" cy="-224.8183" rx="3.2" ry="3.2"/>
</g>
<!-- user -->
<g id="node3" class="node">
<title>user</title>
<g id="a_node3"><a xlink:href="../../tables/user.html" xlink:title="user" target="_top">
<polygon fill="#ffffff" stroke="transparent" points="8,-45.2 8,-260.2 175,-260.2 175,-45.2 8,-45.2"/>
<polygon fill="#f5f5f5" stroke="transparent" points="8.5,-236.7 8.5,-259.7 175.5,-259.7 175.5,-236.7 8.5,-236.7"/>
<polygon fill="none" stroke="#000000" points="8.5,-236.7 8.5,-259.7 175.5,-259.7 175.5,-236.7 8.5,-236.7"/>
<text text-anchor="start" x="13.5" y="-245.8" font-family="Helvetica,sans-Serif" font-weight="bold" font-size="11.00" fill="#000000">user</text>
<text text-anchor="start" x="140.5437" y="-244.8" font-family="Helvetica,sans-Serif" font-size="11.00" fill="#000000">[table]</text>
<polygon fill="none" stroke="#000000" points="8.5,-214.7 8.5,-236.7 175.5,-236.7 175.5,-214.7 8.5,-214.7"/>
<image xlink:href="../../images/primaryKeys.png" width="11px" height="12px" preserveAspectRatio="xMinYMin meet" x="13.5" y="-231.7"/>
<text text-anchor="start" x="28.5" y="-221.8" font-family="Helvetica,sans-Serif" font-size="11.00" fill="#000000">id</text>
<polygon fill="#ffffff" stroke="transparent" points="8.5,-192.7 8.5,-214.7 175.5,-214.7 175.5,-192.7 8.5,-192.7"/>
<polygon fill="none" stroke="#000000" points="8.5,-192.7 8.5,-214.7 175.5,-214.7 175.5,-192.7 8.5,-192.7"/>
<text text-anchor="start" x="28.5" y="-199.8" font-family="Helvetica,sans-Serif" font-size="11.00" fill="#000000">uuid</text>
<polygon fill="#ffffff" stroke="transparent" points="8.5,-170.7 8.5,-192.7 175.5,-192.7 175.5,-170.7 8.5,-170.7"/>
<polygon fill="none" stroke="#000000" points="8.5,-170.7 8.5,-192.7 175.5,-192.7 175.5,-170.7 8.5,-170.7"/>
<text text-anchor="start" x="28.5" y="-177.8" font-family="Helvetica,sans-Serif" font-size="11.00" fill="#000000">user_name</text>
<polygon fill="none" stroke="#000000" points="8.5,-148.7 8.5,-170.7 175.5,-170.7 175.5,-148.7 8.5,-148.7"/>
<image xlink:href="../../images/foreignKeys.png" width="11px" height="12px" preserveAspectRatio="xMinYMin meet" x="13.5" y="-165.7"/>
<text text-anchor="start" x="28.5" y="-155.8" font-family="Helvetica,sans-Serif" font-size="11.00" fill="#000000">avatar</text>
<polygon fill="#ffffff" stroke="transparent" points="8.5,-126.7 8.5,-148.7 175.5,-148.7 175.5,-126.7 8.5,-126.7"/>
<polygon fill="none" stroke="#000000" points="8.5,-126.7 8.5,-148.7 175.5,-148.7 175.5,-126.7 8.5,-126.7"/>
<text text-anchor="start" x="28.5" y="-133.8" font-family="Helvetica,sans-Serif" font-size="11.00" fill="#000000">email</text>
<polygon fill="#ffffff" stroke="transparent" points="8.5,-104.7 8.5,-126.7 175.5,-126.7 175.5,-104.7 8.5,-104.7"/>
<polygon fill="none" stroke="#000000" points="8.5,-104.7 8.5,-126.7 175.5,-126.7 175.5,-104.7 8.5,-104.7"/>
<text text-anchor="start" x="28.5" y="-111.8" font-family="Helvetica,sans-Serif" font-size="11.00" fill="#000000">state</text>
<polygon fill="#ffffff" stroke="transparent" points="8.5,-82.7 8.5,-104.7 175.5,-104.7 175.5,-82.7 8.5,-82.7"/>
<polygon fill="none" stroke="#000000" points="8.5,-82.7 8.5,-104.7 175.5,-104.7 175.5,-82.7 8.5,-82.7"/>
<text text-anchor="start" x="28.5" y="-89.8" font-family="Helvetica,sans-Serif" font-size="11.00" fill="#000000">liker_id</text>
<polygon fill="none" stroke="#000000" points="8.5,-63.7 8.5,-82.7 175.5,-82.7 175.5,-63.7 8.5,-63.7"/>
<text text-anchor="start" x="11.5" y="-69.8" font-family="Helvetica,sans-Serif" font-size="11.00" fill="#000000">...</text>
<polygon fill="#ffffff" stroke="transparent" points="8.5,-44.7 8.5,-63.7 82.5,-63.7 82.5,-44.7 8.5,-44.7"/>
<polygon fill="none" stroke="#000000" points="8.5,-44.7 8.5,-63.7 82.5,-63.7 82.5,-44.7 8.5,-44.7"/>
<text text-anchor="start" x="11.5" y="-50.8" font-family="Helvetica,sans-Serif" font-size="11.00" fill="#000000">&lt; 1</text>
<polygon fill="#ffffff" stroke="transparent" points="82.5,-44.7 82.5,-63.7 121.5,-63.7 121.5,-44.7 82.5,-44.7"/>
<polygon fill="none" stroke="#000000" points="82.5,-44.7 82.5,-63.7 121.5,-63.7 121.5,-44.7 82.5,-44.7"/>
<text text-anchor="start" x="112.3862" y="-50.8" font-family="Helvetica,sans-Serif" font-size="11.00" fill="#000000"> &#160;</text>
<polygon fill="#ffffff" stroke="transparent" points="121.5,-44.7 121.5,-63.7 175.5,-63.7 175.5,-44.7 121.5,-44.7"/>
<polygon fill="none" stroke="#000000" points="121.5,-44.7 121.5,-63.7 175.5,-63.7 175.5,-44.7 121.5,-44.7"/>
<text text-anchor="start" x="150.7904" y="-50.8" font-family="Helvetica,sans-Serif" font-size="11.00" fill="#000000">42 &gt;</text>
</a>
</g>
</g>
<!-- action_comment&#45;&gt;user -->
<g id="edge2" class="edge">
<title>action_comment:w&#45;&gt;user:e</title>
<path fill="none" stroke="#000000" d="M395.4142,-269.9603C320.275,-272.6553 291.0415,-294.7429 216,-263.7 193.1918,-254.2648 200.1827,-225.7 175.5,-225.7"/>
<polygon fill="#000000" stroke="#000000" points="402.0013,-269.8428 410.0643,-273.2994 406.0006,-269.7714 410,-269.7 410,-269.7 410,-269.7 406.0006,-269.7714 409.9357,-266.1006 402.0013,-269.8428 402.0013,-269.8428"/>
<ellipse fill="none" stroke="#000000" cx="398.8018" cy="-269.9" rx="3.2" ry="3.2"/>
</g>
<!-- comment&#45;&gt;user -->
<g id="edge3" class="edge">
<title>comment:w&#45;&gt;user:e</title>
<path fill="none" stroke="#000000" d="M210.5912,-179.7765C196.7553,-192.6764 200.7939,-225.7 175.5,-225.7"/>
<polygon fill="#000000" stroke="#000000" points="216.9849,-177.4429 225.7343,-178.0818 220.7425,-176.0715 224.5,-174.7 224.5,-174.7 224.5,-174.7 220.7425,-176.0715 223.2657,-171.3182 216.9849,-177.4429 216.9849,-177.4429"/>
<ellipse fill="none" stroke="#000000" cx="213.9789" cy="-178.5401" rx="3.2" ry="3.2"/>
</g>
</g>
</svg>
