<?xml version="1.0" encoding="UTF-8" standalone="no"?>
<!DOCTYPE svg PUBLIC "-//W3C//DTD SVG 1.1//EN"
 "http://www.w3.org/Graphics/SVG/1.1/DTD/svg11.dtd">
<!-- Generated by graphviz version 2.40.1 (20161225.0304)
 -->
<!-- Title: oneDegreeRelationshipsDiagram Pages: 1 -->
<svg width="356pt" height="311pt"
 viewBox="0.00 0.00 356.00 310.70" xmlns="http://www.w3.org/2000/svg" xmlns:xlink="http://www.w3.org/1999/xlink">
<g id="graph0" class="graph" transform="scale(1 1) rotate(0) translate(4 306.7)">
<title>oneDegreeRelationshipsDiagram</title>
<polygon fill="#ffffff" stroke="transparent" points="-4,4 -4,-306.7 352,-306.7 352,4 -4,4"/>
<text text-anchor="middle" x="72.4936" y="-7.3" font-family="Helvetica,sans-Serif" font-size="11.00" fill="#000000">Generated by SchemaSpy</text>
<!-- article_boost -->
<g id="node1" class="node">
<title>article_boost</title>
<g id="a_node1"><a xlink:href="../../tables/article_boost.html" xlink:title="article_boost" target="_top">
<polygon fill="#ffffff" stroke="transparent" points="149,-142.7 149,-298.7 340,-298.7 340,-142.7 149,-142.7"/>
<polygon fill="#f5f5f5" stroke="transparent" points="151.5,-273.7 151.5,-296.7 338.5,-296.7 338.5,-273.7 151.5,-273.7"/>
<polygon fill="none" stroke="#000000" points="151.5,-273.7 151.5,-296.7 338.5,-296.7 338.5,-273.7 151.5,-273.7"/>
<text text-anchor="start" x="156.5" y="-282.8" font-family="Helvetica,sans-Serif" font-weight="bold" font-size="11.00" fill="#000000">article_boost</text>
<text text-anchor="start" x="303.5437" y="-281.8" font-family="Helvetica,sans-Serif" font-size="11.00" fill="#000000">[table]</text>
<polygon fill="none" stroke="#000000" points="151.5,-251.7 151.5,-273.7 246.5,-273.7 246.5,-251.7 151.5,-251.7"/>
<image xlink:href="../../images/primaryKeys.png" width="11px" height="12px" preserveAspectRatio="xMinYMin meet" x="156.5" y="-268.7"/>
<text text-anchor="start" x="171.5" y="-258.8" font-family="Helvetica,sans-Serif" font-size="11.00" fill="#000000">id</text>
<polygon fill="none" stroke="#000000" points="246.5,-251.7 246.5,-273.7 338.5,-273.7 338.5,-251.7 246.5,-251.7"/>
<text text-anchor="start" x="249.5" y="-259.4" font-family="Helvetica,sans-Serif" font-size="11.00" fill="#000000">bigserial[19]</text>
<polygon fill="none" stroke="#000000" points="151.5,-229.7 151.5,-251.7 246.5,-251.7 246.5,-229.7 151.5,-229.7"/>
<image xlink:href="../../images/foreignKeys.png" width="11px" height="12px" preserveAspectRatio="xMinYMin meet" x="156.5" y="-246.7"/>
<text text-anchor="start" x="171.5" y="-236.8" font-family="Helvetica,sans-Serif" font-size="11.00" fill="#000000">article_id</text>
<polygon fill="none" stroke="#000000" points="246.5,-229.7 246.5,-251.7 338.5,-251.7 338.5,-229.7 246.5,-229.7"/>
<text text-anchor="start" x="249.5" y="-237.4" font-family="Helvetica,sans-Serif" font-size="11.00" fill="#000000">int8[19]</text>
<polygon fill="none" stroke="#000000" points="151.5,-207.7 151.5,-229.7 246.5,-229.7 246.5,-207.7 151.5,-207.7"/>
<text text-anchor="start" x="171.5" y="-214.8" font-family="Helvetica,sans-Serif" font-size="11.00" fill="#000000">boost</text>
<polygon fill="none" stroke="#000000" points="246.5,-207.7 246.5,-229.7 338.5,-229.7 338.5,-207.7 246.5,-207.7"/>
<text text-anchor="start" x="249.5" y="-215.4" font-family="Helvetica,sans-Serif" font-size="11.00" fill="#000000">float4[8,8]</text>
<polygon fill="none" stroke="#000000" points="151.5,-185.7 151.5,-207.7 246.5,-207.7 246.5,-185.7 151.5,-185.7"/>
<text text-anchor="start" x="171.5" y="-192.8" font-family="Helvetica,sans-Serif" font-size="11.00" fill="#000000">created_at</text>
<polygon fill="none" stroke="#000000" points="246.5,-185.7 246.5,-207.7 338.5,-207.7 338.5,-185.7 246.5,-185.7"/>
<text text-anchor="start" x="249.1023" y="-193.4" font-family="Helvetica,sans-Serif" font-size="11.00" fill="#000000">timestamptz[35,6]</text>
<polygon fill="none" stroke="#000000" points="151.5,-163.7 151.5,-185.7 246.5,-185.7 246.5,-163.7 151.5,-163.7"/>
<text text-anchor="start" x="171.5" y="-170.8" font-family="Helvetica,sans-Serif" font-size="11.00" fill="#000000">updated_at</text>
<polygon fill="none" stroke="#000000" points="246.5,-163.7 246.5,-185.7 338.5,-185.7 338.5,-163.7 246.5,-163.7"/>
<text text-anchor="start" x="249.1023" y="-171.4" font-family="Helvetica,sans-Serif" font-size="11.00" fill="#000000">timestamptz[35,6]</text>
<polygon fill="#ffffff" stroke="transparent" points="151.5,-144.7 151.5,-163.7 203.5,-163.7 203.5,-144.7 151.5,-144.7"/>
<polygon fill="none" stroke="#000000" points="151.5,-144.7 151.5,-163.7 203.5,-163.7 203.5,-144.7 151.5,-144.7"/>
<text text-anchor="start" x="154.5" y="-150.8" font-family="Helvetica,sans-Serif" font-size="11.00" fill="#000000">&lt; 1</text>
<polygon fill="#ffffff" stroke="transparent" points="203.5,-144.7 203.5,-163.7 246.5,-163.7 246.5,-144.7 203.5,-144.7"/>
<polygon fill="none" stroke="#000000" points="203.5,-144.7 203.5,-163.7 246.5,-163.7 246.5,-144.7 203.5,-144.7"/>
<text text-anchor="start" x="237.3862" y="-150.8" font-family="Helvetica,sans-Serif" font-size="11.00" fill="#000000"> &#160;</text>
<polygon fill="#ffffff" stroke="transparent" points="246.5,-144.7 246.5,-163.7 338.5,-163.7 338.5,-144.7 246.5,-144.7"/>
<polygon fill="none" stroke="#000000" points="246.5,-144.7 246.5,-163.7 338.5,-163.7 338.5,-144.7 246.5,-144.7"/>
<text text-anchor="start" x="319.9053" y="-150.8" font-family="Helvetica,sans-Serif" font-size="11.00" fill="#000000">0 &gt;</text>
<polygon fill="none" stroke="#000000" stroke-width="2" points="150,-143.7 150,-297.7 339,-297.7 339,-143.7 150,-143.7"/>
</a>
</g>
</g>
<!-- article -->
<g id="node2" class="node">
<title>article</title>
<g id="a_node2"><a xlink:href="../../tables/article.html" xlink:title="article" target="_top">
<polygon fill="#ffffff" stroke="transparent" points="8,-38.2 8,-275.2 100,-275.2 100,-38.2 8,-38.2"/>
<polygon fill="#f5f5f5" stroke="transparent" points="8,-251.7 8,-274.7 100,-274.7 100,-251.7 8,-251.7"/>
<polygon fill="none" stroke="#000000" points="8,-251.7 8,-274.7 100,-274.7 100,-251.7 8,-251.7"/>
<text text-anchor="start" x="13" y="-260.8" font-family="Helvetica,sans-Serif" font-weight="bold" font-size="11.00" fill="#000000">article</text>
<text text-anchor="start" x="65.0437" y="-259.8" font-family="Helvetica,sans-Serif" font-size="11.00" fill="#000000">[table]</text>
<polygon fill="none" stroke="#000000" points="8,-229.7 8,-251.7 100,-251.7 100,-229.7 8,-229.7"/>
<image xlink:href="../../images/primaryKeys.png" width="11px" height="12px" preserveAspectRatio="xMinYMin meet" x="13" y="-246.7"/>
<text text-anchor="start" x="28" y="-236.8" font-family="Helvetica,sans-Serif" font-size="11.00" fill="#000000">id</text>
<polygon fill="#ffffff" stroke="transparent" points="8,-207.7 8,-229.7 100,-229.7 100,-207.7 8,-207.7"/>
<polygon fill="none" stroke="#000000" points="8,-207.7 8,-229.7 100,-229.7 100,-207.7 8,-207.7"/>
<image xlink:href="../../images/foreignKeys.png" width="11px" height="12px" preserveAspectRatio="xMinYMin meet" x="13" y="-224.7"/>
<text text-anchor="start" x="28" y="-214.8" font-family="Helvetica,sans-Serif" font-size="11.00" fill="#000000">author_id</text>
<polygon fill="none" stroke="#000000" points="8,-185.7 8,-207.7 100,-207.7 100,-185.7 8,-185.7"/>
<image xlink:href="../../images/foreignKeys.png" width="11px" height="12px" preserveAspectRatio="xMinYMin meet" x="13" y="-202.7"/>
<text text-anchor="start" x="28" y="-192.8" font-family="Helvetica,sans-Serif" font-size="11.00" fill="#000000">upstream_id</text>
<polygon fill="none" stroke="#000000" points="8,-163.7 8,-185.7 100,-185.7 100,-163.7 8,-163.7"/>
<image xlink:href="../../images/foreignKeys.png" width="11px" height="12px" preserveAspectRatio="xMinYMin meet" x="13" y="-180.7"/>
<text text-anchor="start" x="28" y="-170.8" font-family="Helvetica,sans-Serif" font-size="11.00" fill="#000000">cover</text>
<polygon fill="#ffffff" stroke="transparent" points="8,-141.7 8,-163.7 100,-163.7 100,-141.7 8,-141.7"/>
<polygon fill="none" stroke="#000000" points="8,-141.7 8,-163.7 100,-163.7 100,-141.7 8,-141.7"/>
<text text-anchor="start" x="28" y="-148.8" font-family="Helvetica,sans-Serif" font-size="11.00" fill="#000000">media_hash</text>
<polygon fill="#ffffff" stroke="transparent" points="8,-119.7 8,-141.7 100,-141.7 100,-119.7 8,-119.7"/>
<polygon fill="none" stroke="#000000" points="8,-119.7 8,-141.7 100,-141.7 100,-119.7 8,-119.7"/>
<text text-anchor="start" x="28" y="-126.8" font-family="Helvetica,sans-Serif" font-size="11.00" fill="#000000">state</text>
<polygon fill="#ffffff" stroke="transparent" points="8,-97.7 8,-119.7 100,-119.7 100,-97.7 8,-97.7"/>
<polygon fill="none" stroke="#000000" points="8,-97.7 8,-119.7 100,-119.7 100,-97.7 8,-97.7"/>
<text text-anchor="start" x="28" y="-104.8" font-family="Helvetica,sans-Serif" font-size="11.00" fill="#000000">created_at</text>
<polygon fill="none" stroke="#000000" points="8,-75.7 8,-97.7 100,-97.7 100,-75.7 8,-75.7"/>
<image xlink:href="../../images/foreignKeys.png" width="11px" height="12px" preserveAspectRatio="xMinYMin meet" x="13" y="-92.7"/>
<text text-anchor="start" x="28" y="-82.8" font-family="Helvetica,sans-Serif" font-size="11.00" fill="#000000">draft_id</text>
<polygon fill="none" stroke="#000000" points="8,-56.7 8,-75.7 100,-75.7 100,-56.7 8,-56.7"/>
<text text-anchor="start" x="11" y="-62.8" font-family="Helvetica,sans-Serif" font-size="11.00" fill="#000000">...</text>
<polygon fill="#ffffff" stroke="transparent" points="8,-37.7 8,-56.7 45,-56.7 45,-37.7 8,-37.7"/>
<polygon fill="none" stroke="#000000" points="8,-37.7 8,-56.7 45,-56.7 45,-37.7 8,-37.7"/>
<text text-anchor="start" x="11" y="-43.8" font-family="Helvetica,sans-Serif" font-size="11.00" fill="#000000">&lt; 4</text>
<polygon fill="#ffffff" stroke="transparent" points="45,-37.7 45,-56.7 65,-56.7 65,-37.7 45,-37.7"/>
<polygon fill="none" stroke="#000000" points="45,-37.7 45,-56.7 65,-56.7 65,-37.7 45,-37.7"/>
<text text-anchor="start" x="55.8862" y="-43.8" font-family="Helvetica,sans-Serif" font-size="11.00" fill="#000000"> &#160;</text>
<polygon fill="#ffffff" stroke="transparent" points="65,-37.7 65,-56.7 100,-56.7 100,-37.7 65,-37.7"/>
<polygon fill="none" stroke="#000000" points="65,-37.7 65,-56.7 100,-56.7 100,-37.7 65,-37.7"/>
<text text-anchor="start" x="75.2904" y="-43.8" font-family="Helvetica,sans-Serif" font-size="11.00" fill="#000000">14 &gt;</text>
</a>
</g>
</g>
<!-- article_boost&#45;&gt;article -->
<g id="edge1" class="edge">
<title>article_boost:w&#45;&gt;article:e</title>
<path fill="none" stroke="#000000" d="M137.0156,-240.7C124.6771,-240.7 117.1667,-240.7 100,-240.7"/>
<polygon fill="#000000" stroke="#000000" points="143.5,-240.7001 151.5,-244.3 147.5,-240.7 151.5,-240.7 151.5,-240.7 151.5,-240.7 147.5,-240.7 151.5,-237.1 143.5,-240.7001 143.5,-240.7001"/>
<ellipse fill="none" stroke="#000000" cx="140.3" cy="-240.7001" rx="3.2" ry="3.2"/>
</g>
</g>
</svg>
