<?xml version="1.0" encoding="UTF-8" standalone="no"?>
<!DOCTYPE svg PUBLIC "-//W3C//DTD SVG 1.1//EN"
 "http://www.w3.org/Graphics/SVG/1.1/DTD/svg11.dtd">
<!-- Generated by graphviz version 2.40.1 (20161225.0304)
 -->
<!-- Title: oneDegreeRelationshipsDiagram Pages: 1 -->
<svg width="1084pt" height="1640pt"
 viewBox="0.00 0.00 1083.57 1639.88" xmlns="http://www.w3.org/2000/svg" xmlns:xlink="http://www.w3.org/1999/xlink">
<g id="graph0" class="graph" transform="scale(1 1) rotate(0) translate(4 1635.8824)">
<title>oneDegreeRelationshipsDiagram</title>
<polygon fill="#ffffff" stroke="transparent" points="-4,4 -4,-1635.8824 1079.5672,-1635.8824 1079.5672,4 -4,4"/>
<text text-anchor="middle" x="72.4936" y="-7.3" font-family="Helvetica,sans-Serif" font-size="11.00" fill="#000000">Generated by SchemaSpy</text>
<!-- action_article -->
<g id="node1" class="node">
<title>action_article</title>
<g id="a_node1"><a xlink:href="../../tables/action_article.html" xlink:title="action_article" target="_top">
<polygon fill="#ffffff" stroke="transparent" points="785.5672,-1478.8824 785.5672,-1627.8824 892.5672,-1627.8824 892.5672,-1478.8824 785.5672,-1478.8824"/>
<polygon fill="#f5f5f5" stroke="transparent" points="786.0672,-1604.3824 786.0672,-1627.3824 893.0672,-1627.3824 893.0672,-1604.3824 786.0672,-1604.3824"/>
<polygon fill="none" stroke="#000000" points="786.0672,-1604.3824 786.0672,-1627.3824 893.0672,-1627.3824 893.0672,-1604.3824 786.0672,-1604.3824"/>
<text text-anchor="start" x="790.6733" y="-1613.4824" font-family="Helvetica,sans-Serif" font-weight="bold" font-size="11.00" fill="#000000">action_article</text>
<text text-anchor="start" x="858.5891" y="-1612.4824" font-family="Helvetica,sans-Serif" font-size="11.00" fill="#000000">[table]</text>
<polygon fill="none" stroke="#000000" points="786.0672,-1582.3824 786.0672,-1604.3824 893.0672,-1604.3824 893.0672,-1582.3824 786.0672,-1582.3824"/>
<image xlink:href="../../images/primaryKeys.png" width="11px" height="12px" preserveAspectRatio="xMinYMin meet" x="791.067" y="-1599.38"/>
<text text-anchor="start" x="811.0672" y="-1589.4824" font-family="Helvetica,sans-Serif" font-size="11.00" fill="#000000">id</text>
<polygon fill="#ffffff" stroke="transparent" points="786.0672,-1560.3824 786.0672,-1582.3824 893.0672,-1582.3824 893.0672,-1560.3824 786.0672,-1560.3824"/>
<polygon fill="none" stroke="#000000" points="786.0672,-1560.3824 786.0672,-1582.3824 893.0672,-1582.3824 893.0672,-1560.3824 786.0672,-1560.3824"/>
<image xlink:href="../../images/foreignKeys.png" width="11px" height="12px" preserveAspectRatio="xMinYMin meet" x="791.067" y="-1577.38"/>
<text text-anchor="start" x="811.0672" y="-1567.4824" font-family="Helvetica,sans-Serif" font-size="11.00" fill="#000000">user_id</text>
<polygon fill="#ffffff" stroke="transparent" points="786.0672,-1538.3824 786.0672,-1560.3824 893.0672,-1560.3824 893.0672,-1538.3824 786.0672,-1538.3824"/>
<polygon fill="none" stroke="#000000" points="786.0672,-1538.3824 786.0672,-1560.3824 893.0672,-1560.3824 893.0672,-1538.3824 786.0672,-1538.3824"/>
<text text-anchor="start" x="811.0672" y="-1545.4824" font-family="Helvetica,sans-Serif" font-size="11.00" fill="#000000">action</text>
<polygon fill="#ffffff" stroke="transparent" points="786.0672,-1516.3824 786.0672,-1538.3824 893.0672,-1538.3824 893.0672,-1516.3824 786.0672,-1516.3824"/>
<polygon fill="none" stroke="#000000" points="786.0672,-1516.3824 786.0672,-1538.3824 893.0672,-1538.3824 893.0672,-1516.3824 786.0672,-1516.3824"/>
<image xlink:href="../../images/foreignKeys.png" width="11px" height="12px" preserveAspectRatio="xMinYMin meet" x="791.067" y="-1533.38"/>
<text text-anchor="start" x="811.0672" y="-1523.4824" font-family="Helvetica,sans-Serif" font-size="11.00" fill="#000000">target_id</text>
<polygon fill="none" stroke="#000000" points="786.0672,-1497.3824 786.0672,-1516.3824 893.0672,-1516.3824 893.0672,-1497.3824 786.0672,-1497.3824"/>
<text text-anchor="start" x="789.0672" y="-1503.4824" font-family="Helvetica,sans-Serif" font-size="11.00" fill="#000000">...</text>
<polygon fill="#ffffff" stroke="transparent" points="786.0672,-1478.3824 786.0672,-1497.3824 838.0672,-1497.3824 838.0672,-1478.3824 786.0672,-1478.3824"/>
<polygon fill="none" stroke="#000000" points="786.0672,-1478.3824 786.0672,-1497.3824 838.0672,-1497.3824 838.0672,-1478.3824 786.0672,-1478.3824"/>
<text text-anchor="start" x="789.0672" y="-1484.4824" font-family="Helvetica,sans-Serif" font-size="11.00" fill="#000000">&lt; 2</text>
<polygon fill="#ffffff" stroke="transparent" points="838.0672,-1478.3824 838.0672,-1497.3824 865.0672,-1497.3824 865.0672,-1478.3824 838.0672,-1478.3824"/>
<polygon fill="none" stroke="#000000" points="838.0672,-1478.3824 838.0672,-1497.3824 865.0672,-1497.3824 865.0672,-1478.3824 838.0672,-1478.3824"/>
<text text-anchor="start" x="855.9534" y="-1484.4824" font-family="Helvetica,sans-Serif" font-size="11.00" fill="#000000"> &#160;</text>
<polygon fill="#ffffff" stroke="transparent" points="865.0672,-1478.3824 865.0672,-1497.3824 893.0672,-1497.3824 893.0672,-1478.3824 865.0672,-1478.3824"/>
<polygon fill="none" stroke="#000000" points="865.0672,-1478.3824 865.0672,-1497.3824 893.0672,-1497.3824 893.0672,-1478.3824 865.0672,-1478.3824"/>
<text text-anchor="start" x="883.9534" y="-1484.4824" font-family="Helvetica,sans-Serif" font-size="11.00" fill="#000000"> &#160;</text>
</a>
</g>
</g>
<!-- article -->
<g id="node2" class="node">
<title>article</title>
<g id="a_node2"><a xlink:href="../../tables/article.html" xlink:title="article" target="_top">
<polygon fill="#ffffff" stroke="transparent" points="511.5672,-432.3824 511.5672,-940.3824 701.5672,-940.3824 701.5672,-432.3824 511.5672,-432.3824"/>
<polygon fill="#f5f5f5" stroke="transparent" points="513.5672,-915.3824 513.5672,-938.3824 699.5672,-938.3824 699.5672,-915.3824 513.5672,-915.3824"/>
<polygon fill="none" stroke="#000000" points="513.5672,-915.3824 513.5672,-938.3824 699.5672,-938.3824 699.5672,-915.3824 513.5672,-915.3824"/>
<text text-anchor="start" x="518.5672" y="-924.4824" font-family="Helvetica,sans-Serif" font-weight="bold" font-size="11.00" fill="#000000">article</text>
<text text-anchor="start" x="664.6109" y="-923.4824" font-family="Helvetica,sans-Serif" font-size="11.00" fill="#000000">[table]</text>
<polygon fill="none" stroke="#000000" points="513.5672,-893.3824 513.5672,-915.3824 605.5672,-915.3824 605.5672,-893.3824 513.5672,-893.3824"/>
<image xlink:href="../../images/primaryKeys.png" width="11px" height="12px" preserveAspectRatio="xMinYMin meet" x="518.567" y="-910.382"/>
<text text-anchor="start" x="533.5672" y="-900.4824" font-family="Helvetica,sans-Serif" font-size="11.00" fill="#000000">id</text>
<polygon fill="none" stroke="#000000" points="605.5672,-893.3824 605.5672,-915.3824 699.5672,-915.3824 699.5672,-893.3824 605.5672,-893.3824"/>
<text text-anchor="start" x="608.5672" y="-901.0824" font-family="Helvetica,sans-Serif" font-size="11.00" fill="#000000">bigserial[19]</text>
<polygon fill="none" stroke="#000000" points="513.5672,-871.3824 513.5672,-893.3824 605.5672,-893.3824 605.5672,-871.3824 513.5672,-871.3824"/>
<text text-anchor="start" x="533.5672" y="-878.4824" font-family="Helvetica,sans-Serif" font-size="11.00" fill="#000000">uuid</text>
<polygon fill="none" stroke="#000000" points="605.5672,-871.3824 605.5672,-893.3824 699.5672,-893.3824 699.5672,-871.3824 605.5672,-871.3824"/>
<text text-anchor="start" x="608.543" y="-879.0824" font-family="Helvetica,sans-Serif" font-size="11.00" fill="#000000">uuid[2147483647]</text>
<polygon fill="#ffffff" stroke="transparent" points="513.5672,-849.3824 513.5672,-871.3824 605.5672,-871.3824 605.5672,-849.3824 513.5672,-849.3824"/>
<polygon fill="none" stroke="#000000" points="513.5672,-849.3824 513.5672,-871.3824 605.5672,-871.3824 605.5672,-849.3824 513.5672,-849.3824"/>
<image xlink:href="../../images/foreignKeys.png" width="11px" height="12px" preserveAspectRatio="xMinYMin meet" x="518.567" y="-866.382"/>
<text text-anchor="start" x="533.5672" y="-856.4824" font-family="Helvetica,sans-Serif" font-size="11.00" fill="#000000">author_id</text>
<polygon fill="none" stroke="#000000" points="605.5672,-849.3824 605.5672,-871.3824 699.5672,-871.3824 699.5672,-849.3824 605.5672,-849.3824"/>
<text text-anchor="start" x="608.5672" y="-857.0824" font-family="Helvetica,sans-Serif" font-size="11.00" fill="#000000">int8[19]</text>
<polygon fill="none" stroke="#000000" points="513.5672,-827.3824 513.5672,-849.3824 605.5672,-849.3824 605.5672,-827.3824 513.5672,-827.3824"/>
<image xlink:href="../../images/foreignKeys.png" width="11px" height="12px" preserveAspectRatio="xMinYMin meet" x="518.567" y="-844.382"/>
<text text-anchor="start" x="533.5672" y="-834.4824" font-family="Helvetica,sans-Serif" font-size="11.00" fill="#000000">upstream_id</text>
<polygon fill="none" stroke="#000000" points="605.5672,-827.3824 605.5672,-849.3824 699.5672,-849.3824 699.5672,-827.3824 605.5672,-827.3824"/>
<text text-anchor="start" x="608.5672" y="-835.0824" font-family="Helvetica,sans-Serif" font-size="11.00" fill="#000000">int8[19]</text>
<polygon fill="none" stroke="#000000" points="513.5672,-805.3824 513.5672,-827.3824 605.5672,-827.3824 605.5672,-805.3824 513.5672,-805.3824"/>
<text text-anchor="start" x="533.5672" y="-812.4824" font-family="Helvetica,sans-Serif" font-size="11.00" fill="#000000">title</text>
<polygon fill="none" stroke="#000000" points="605.5672,-805.3824 605.5672,-827.3824 699.5672,-827.3824 699.5672,-805.3824 605.5672,-805.3824"/>
<text text-anchor="start" x="608.5672" y="-813.0824" font-family="Helvetica,sans-Serif" font-size="11.00" fill="#000000">varchar[255]</text>
<polygon fill="none" stroke="#000000" points="513.5672,-783.3824 513.5672,-805.3824 605.5672,-805.3824 605.5672,-783.3824 513.5672,-783.3824"/>
<text text-anchor="start" x="533.5672" y="-790.4824" font-family="Helvetica,sans-Serif" font-size="11.00" fill="#000000">slug</text>
<polygon fill="none" stroke="#000000" points="605.5672,-783.3824 605.5672,-805.3824 699.5672,-805.3824 699.5672,-783.3824 605.5672,-783.3824"/>
<text text-anchor="start" x="608.5672" y="-791.0824" font-family="Helvetica,sans-Serif" font-size="11.00" fill="#000000">varchar[255]</text>
<polygon fill="none" stroke="#000000" points="513.5672,-761.3824 513.5672,-783.3824 605.5672,-783.3824 605.5672,-761.3824 513.5672,-761.3824"/>
<image xlink:href="../../images/foreignKeys.png" width="11px" height="12px" preserveAspectRatio="xMinYMin meet" x="518.567" y="-778.382"/>
<text text-anchor="start" x="533.5672" y="-768.4824" font-family="Helvetica,sans-Serif" font-size="11.00" fill="#000000">cover</text>
<polygon fill="none" stroke="#000000" points="605.5672,-761.3824 605.5672,-783.3824 699.5672,-783.3824 699.5672,-761.3824 605.5672,-761.3824"/>
<text text-anchor="start" x="608.5672" y="-769.0824" font-family="Helvetica,sans-Serif" font-size="11.00" fill="#000000">int8[19]</text>
<polygon fill="none" stroke="#000000" points="513.5672,-739.3824 513.5672,-761.3824 605.5672,-761.3824 605.5672,-739.3824 513.5672,-739.3824"/>
<text text-anchor="start" x="533.5672" y="-746.4824" font-family="Helvetica,sans-Serif" font-size="11.00" fill="#000000">summary</text>
<polygon fill="none" stroke="#000000" points="605.5672,-739.3824 605.5672,-761.3824 699.5672,-761.3824 699.5672,-739.3824 605.5672,-739.3824"/>
<text text-anchor="start" x="608.5672" y="-747.0824" font-family="Helvetica,sans-Serif" font-size="11.00" fill="#000000">varchar[255]</text>
<polygon fill="none" stroke="#000000" points="513.5672,-717.3824 513.5672,-739.3824 605.5672,-739.3824 605.5672,-717.3824 513.5672,-717.3824"/>
<text text-anchor="start" x="533.5672" y="-724.4824" font-family="Helvetica,sans-Serif" font-size="11.00" fill="#000000">word_count</text>
<polygon fill="none" stroke="#000000" points="605.5672,-717.3824 605.5672,-739.3824 699.5672,-739.3824 699.5672,-717.3824 605.5672,-717.3824"/>
<text text-anchor="start" x="608.5672" y="-725.0824" font-family="Helvetica,sans-Serif" font-size="11.00" fill="#000000">int4[10]</text>
<polygon fill="none" stroke="#000000" points="513.5672,-695.3824 513.5672,-717.3824 605.5672,-717.3824 605.5672,-695.3824 513.5672,-695.3824"/>
<text text-anchor="start" x="533.5672" y="-702.4824" font-family="Helvetica,sans-Serif" font-size="11.00" fill="#000000">data_hash</text>
<polygon fill="none" stroke="#000000" points="605.5672,-695.3824 605.5672,-717.3824 699.5672,-717.3824 699.5672,-695.3824 605.5672,-695.3824"/>
<text text-anchor="start" x="608.5672" y="-703.0824" font-family="Helvetica,sans-Serif" font-size="11.00" fill="#000000">varchar[255]</text>
<polygon fill="#ffffff" stroke="transparent" points="513.5672,-673.3824 513.5672,-695.3824 605.5672,-695.3824 605.5672,-673.3824 513.5672,-673.3824"/>
<polygon fill="none" stroke="#000000" points="513.5672,-673.3824 513.5672,-695.3824 605.5672,-695.3824 605.5672,-673.3824 513.5672,-673.3824"/>
<text text-anchor="start" x="533.5672" y="-680.4824" font-family="Helvetica,sans-Serif" font-size="11.00" fill="#000000">media_hash</text>
<polygon fill="none" stroke="#000000" points="605.5672,-673.3824 605.5672,-695.3824 699.5672,-695.3824 699.5672,-673.3824 605.5672,-673.3824"/>
<text text-anchor="start" x="608.5672" y="-681.0824" font-family="Helvetica,sans-Serif" font-size="11.00" fill="#000000">varchar[255]</text>
<polygon fill="none" stroke="#000000" points="513.5672,-651.3824 513.5672,-673.3824 605.5672,-673.3824 605.5672,-651.3824 513.5672,-651.3824"/>
<text text-anchor="start" x="533.5672" y="-658.4824" font-family="Helvetica,sans-Serif" font-size="11.00" fill="#000000">content</text>
<polygon fill="none" stroke="#000000" points="605.5672,-651.3824 605.5672,-673.3824 699.5672,-673.3824 699.5672,-651.3824 605.5672,-651.3824"/>
<text text-anchor="start" x="608.5672" y="-659.0824" font-family="Helvetica,sans-Serif" font-size="11.00" fill="#000000">text[2147483647]</text>
<polygon fill="#ffffff" stroke="transparent" points="513.5672,-629.3824 513.5672,-651.3824 605.5672,-651.3824 605.5672,-629.3824 513.5672,-629.3824"/>
<polygon fill="none" stroke="#000000" points="513.5672,-629.3824 513.5672,-651.3824 605.5672,-651.3824 605.5672,-629.3824 513.5672,-629.3824"/>
<text text-anchor="start" x="533.5672" y="-636.4824" font-family="Helvetica,sans-Serif" font-size="11.00" fill="#000000">state</text>
<polygon fill="none" stroke="#000000" points="605.5672,-629.3824 605.5672,-651.3824 699.5672,-651.3824 699.5672,-629.3824 605.5672,-629.3824"/>
<text text-anchor="start" x="608.5672" y="-637.0824" font-family="Helvetica,sans-Serif" font-size="11.00" fill="#000000">text[2147483647]</text>
<polygon fill="none" stroke="#000000" points="513.5672,-607.3824 513.5672,-629.3824 605.5672,-629.3824 605.5672,-607.3824 513.5672,-607.3824"/>
<text text-anchor="start" x="533.5672" y="-614.4824" font-family="Helvetica,sans-Serif" font-size="11.00" fill="#000000">public</text>
<polygon fill="none" stroke="#000000" points="605.5672,-607.3824 605.5672,-629.3824 699.5672,-629.3824 699.5672,-607.3824 605.5672,-607.3824"/>
<text text-anchor="start" x="608.5672" y="-615.0824" font-family="Helvetica,sans-Serif" font-size="11.00" fill="#000000">bool[1]</text>
<polygon fill="none" stroke="#000000" points="513.5672,-585.3824 513.5672,-607.3824 605.5672,-607.3824 605.5672,-585.3824 513.5672,-585.3824"/>
<text text-anchor="start" x="533.5672" y="-592.4824" font-family="Helvetica,sans-Serif" font-size="11.00" fill="#000000">live</text>
<polygon fill="none" stroke="#000000" points="605.5672,-585.3824 605.5672,-607.3824 699.5672,-607.3824 699.5672,-585.3824 605.5672,-585.3824"/>
<text text-anchor="start" x="608.5672" y="-593.0824" font-family="Helvetica,sans-Serif" font-size="11.00" fill="#000000">bool[1]</text>
<polygon fill="#ffffff" stroke="transparent" points="513.5672,-563.3824 513.5672,-585.3824 605.5672,-585.3824 605.5672,-563.3824 513.5672,-563.3824"/>
<polygon fill="none" stroke="#000000" points="513.5672,-563.3824 513.5672,-585.3824 605.5672,-585.3824 605.5672,-563.3824 513.5672,-563.3824"/>
<text text-anchor="start" x="533.5672" y="-570.4824" font-family="Helvetica,sans-Serif" font-size="11.00" fill="#000000">created_at</text>
<polygon fill="none" stroke="#000000" points="605.5672,-563.3824 605.5672,-585.3824 699.5672,-585.3824 699.5672,-563.3824 605.5672,-563.3824"/>
<text text-anchor="start" x="608.5672" y="-571.0824" font-family="Helvetica,sans-Serif" font-size="11.00" fill="#000000">timestamptz[35,6]</text>
<polygon fill="none" stroke="#000000" points="513.5672,-541.3824 513.5672,-563.3824 605.5672,-563.3824 605.5672,-541.3824 513.5672,-541.3824"/>
<text text-anchor="start" x="533.5672" y="-548.4824" font-family="Helvetica,sans-Serif" font-size="11.00" fill="#000000">updated_at</text>
<polygon fill="none" stroke="#000000" points="605.5672,-541.3824 605.5672,-563.3824 699.5672,-563.3824 699.5672,-541.3824 605.5672,-541.3824"/>
<text text-anchor="start" x="608.5672" y="-549.0824" font-family="Helvetica,sans-Serif" font-size="11.00" fill="#000000">timestamptz[35,6]</text>
<polygon fill="none" stroke="#000000" points="513.5672,-519.3824 513.5672,-541.3824 605.5672,-541.3824 605.5672,-519.3824 513.5672,-519.3824"/>
<image xlink:href="../../images/foreignKeys.png" width="11px" height="12px" preserveAspectRatio="xMinYMin meet" x="518.567" y="-536.382"/>
<text text-anchor="start" x="533.5672" y="-526.4824" font-family="Helvetica,sans-Serif" font-size="11.00" fill="#000000">draft_id</text>
<polygon fill="none" stroke="#000000" points="605.5672,-519.3824 605.5672,-541.3824 699.5672,-541.3824 699.5672,-519.3824 605.5672,-519.3824"/>
<text text-anchor="start" x="608.5672" y="-527.0824" font-family="Helvetica,sans-Serif" font-size="11.00" fill="#000000">int8[19]</text>
<polygon fill="none" stroke="#000000" points="513.5672,-497.3824 513.5672,-519.3824 605.5672,-519.3824 605.5672,-497.3824 513.5672,-497.3824"/>
<text text-anchor="start" x="533.5672" y="-504.4824" font-family="Helvetica,sans-Serif" font-size="11.00" fill="#000000">remark</text>
<polygon fill="none" stroke="#000000" points="605.5672,-497.3824 605.5672,-519.3824 699.5672,-519.3824 699.5672,-497.3824 605.5672,-497.3824"/>
<text text-anchor="start" x="608.5672" y="-505.0824" font-family="Helvetica,sans-Serif" font-size="11.00" fill="#000000">text[2147483647]</text>
<polygon fill="none" stroke="#000000" points="513.5672,-475.3824 513.5672,-497.3824 605.5672,-497.3824 605.5672,-475.3824 513.5672,-475.3824"/>
<text text-anchor="start" x="533.5672" y="-482.4824" font-family="Helvetica,sans-Serif" font-size="11.00" fill="#000000">sticky</text>
<polygon fill="none" stroke="#000000" points="605.5672,-475.3824 605.5672,-497.3824 699.5672,-497.3824 699.5672,-475.3824 605.5672,-475.3824"/>
<text text-anchor="start" x="608.5672" y="-483.0824" font-family="Helvetica,sans-Serif" font-size="11.00" fill="#000000">bool[1]</text>
<polygon fill="none" stroke="#000000" points="513.5672,-453.3824 513.5672,-475.3824 605.5672,-475.3824 605.5672,-453.3824 513.5672,-453.3824"/>
<text text-anchor="start" x="533.5672" y="-460.4824" font-family="Helvetica,sans-Serif" font-size="11.00" fill="#000000">language</text>
<polygon fill="none" stroke="#000000" points="605.5672,-453.3824 605.5672,-475.3824 699.5672,-475.3824 699.5672,-453.3824 605.5672,-453.3824"/>
<text text-anchor="start" x="608.5672" y="-461.0824" font-family="Helvetica,sans-Serif" font-size="11.00" fill="#000000">varchar[255]</text>
<polygon fill="#ffffff" stroke="transparent" points="513.5672,-434.3824 513.5672,-453.3824 563.5672,-453.3824 563.5672,-434.3824 513.5672,-434.3824"/>
<polygon fill="none" stroke="#000000" points="513.5672,-434.3824 513.5672,-453.3824 563.5672,-453.3824 563.5672,-434.3824 513.5672,-434.3824"/>
<text text-anchor="start" x="516.5672" y="-440.4824" font-family="Helvetica,sans-Serif" font-size="11.00" fill="#000000">&lt; 4</text>
<polygon fill="#ffffff" stroke="transparent" points="563.5672,-434.3824 563.5672,-453.3824 605.5672,-453.3824 605.5672,-434.3824 563.5672,-434.3824"/>
<polygon fill="none" stroke="#000000" points="563.5672,-434.3824 563.5672,-453.3824 605.5672,-453.3824 605.5672,-434.3824 563.5672,-434.3824"/>
<text text-anchor="start" x="596.4534" y="-440.4824" font-family="Helvetica,sans-Serif" font-size="11.00" fill="#000000"> &#160;</text>
<polygon fill="#ffffff" stroke="transparent" points="605.5672,-434.3824 605.5672,-453.3824 699.5672,-453.3824 699.5672,-434.3824 605.5672,-434.3824"/>
<polygon fill="none" stroke="#000000" points="605.5672,-434.3824 605.5672,-453.3824 699.5672,-453.3824 699.5672,-434.3824 605.5672,-434.3824"/>
<text text-anchor="start" x="674.8576" y="-440.4824" font-family="Helvetica,sans-Serif" font-size="11.00" fill="#000000">14 &gt;</text>
<polygon fill="none" stroke="#000000" stroke-width="2" points="512.5672,-433.3824 512.5672,-939.3824 700.5672,-939.3824 700.5672,-433.3824 512.5672,-433.3824"/>
</a>
</g>
</g>
<!-- action_article&#45;&gt;article -->
<g id="edge1" class="edge">
<title>action_article:w&#45;&gt;article:e</title>
<path fill="none" stroke="#000000" d="M771.3884,-1526.8218C710.8735,-1520.9387 761.6059,-1460.4376 709.5672,-972.3824 706.3285,-942.0073 730.1145,-904.3824 699.5672,-904.3824"/>
<polygon fill="#000000" stroke="#000000" points="778.073,-1527.077 785.9298,-1530.9798 782.0701,-1527.2297 786.0672,-1527.3824 786.0672,-1527.3824 786.0672,-1527.3824 782.0701,-1527.2297 786.2046,-1523.785 778.073,-1527.077 778.073,-1527.077"/>
<ellipse fill="none" stroke="#000000" cx="774.8754" cy="-1526.9549" rx="3.2" ry="3.2"/>
</g>
<!-- user -->
<g id="node3" class="node">
<title>user</title>
<g id="a_node3"><a xlink:href="../../tables/user.html" xlink:title="user" target="_top">
<polygon fill="#ffffff" stroke="transparent" points="148.5672,-254.8824 148.5672,-469.8824 315.5672,-469.8824 315.5672,-254.8824 148.5672,-254.8824"/>
<polygon fill="#f5f5f5" stroke="transparent" points="149.0672,-446.3824 149.0672,-469.3824 316.0672,-469.3824 316.0672,-446.3824 149.0672,-446.3824"/>
<polygon fill="none" stroke="#000000" points="149.0672,-446.3824 149.0672,-469.3824 316.0672,-469.3824 316.0672,-446.3824 149.0672,-446.3824"/>
<text text-anchor="start" x="154.0672" y="-455.4824" font-family="Helvetica,sans-Serif" font-weight="bold" font-size="11.00" fill="#000000">user</text>
<text text-anchor="start" x="281.1109" y="-454.4824" font-family="Helvetica,sans-Serif" font-size="11.00" fill="#000000">[table]</text>
<polygon fill="none" stroke="#000000" points="149.0672,-424.3824 149.0672,-446.3824 316.0672,-446.3824 316.0672,-424.3824 149.0672,-424.3824"/>
<image xlink:href="../../images/primaryKeys.png" width="11px" height="12px" preserveAspectRatio="xMinYMin meet" x="154.067" y="-441.382"/>
<text text-anchor="start" x="169.0672" y="-431.4824" font-family="Helvetica,sans-Serif" font-size="11.00" fill="#000000">id</text>
<polygon fill="#ffffff" stroke="transparent" points="149.0672,-402.3824 149.0672,-424.3824 316.0672,-424.3824 316.0672,-402.3824 149.0672,-402.3824"/>
<polygon fill="none" stroke="#000000" points="149.0672,-402.3824 149.0672,-424.3824 316.0672,-424.3824 316.0672,-402.3824 149.0672,-402.3824"/>
<text text-anchor="start" x="169.0672" y="-409.4824" font-family="Helvetica,sans-Serif" font-size="11.00" fill="#000000">uuid</text>
<polygon fill="#ffffff" stroke="transparent" points="149.0672,-380.3824 149.0672,-402.3824 316.0672,-402.3824 316.0672,-380.3824 149.0672,-380.3824"/>
<polygon fill="none" stroke="#000000" points="149.0672,-380.3824 149.0672,-402.3824 316.0672,-402.3824 316.0672,-380.3824 149.0672,-380.3824"/>
<text text-anchor="start" x="169.0672" y="-387.4824" font-family="Helvetica,sans-Serif" font-size="11.00" fill="#000000">user_name</text>
<polygon fill="none" stroke="#000000" points="149.0672,-358.3824 149.0672,-380.3824 316.0672,-380.3824 316.0672,-358.3824 149.0672,-358.3824"/>
<image xlink:href="../../images/foreignKeys.png" width="11px" height="12px" preserveAspectRatio="xMinYMin meet" x="154.067" y="-375.382"/>
<text text-anchor="start" x="169.0672" y="-365.4824" font-family="Helvetica,sans-Serif" font-size="11.00" fill="#000000">avatar</text>
<polygon fill="#ffffff" stroke="transparent" points="149.0672,-336.3824 149.0672,-358.3824 316.0672,-358.3824 316.0672,-336.3824 149.0672,-336.3824"/>
<polygon fill="none" stroke="#000000" points="149.0672,-336.3824 149.0672,-358.3824 316.0672,-358.3824 316.0672,-336.3824 149.0672,-336.3824"/>
<text text-anchor="start" x="169.0672" y="-343.4824" font-family="Helvetica,sans-Serif" font-size="11.00" fill="#000000">email</text>
<polygon fill="#ffffff" stroke="transparent" points="149.0672,-314.3824 149.0672,-336.3824 316.0672,-336.3824 316.0672,-314.3824 149.0672,-314.3824"/>
<polygon fill="none" stroke="#000000" points="149.0672,-314.3824 149.0672,-336.3824 316.0672,-336.3824 316.0672,-314.3824 149.0672,-314.3824"/>
<text text-anchor="start" x="169.0672" y="-321.4824" font-family="Helvetica,sans-Serif" font-size="11.00" fill="#000000">state</text>
<polygon fill="#ffffff" stroke="transparent" points="149.0672,-292.3824 149.0672,-314.3824 316.0672,-314.3824 316.0672,-292.3824 149.0672,-292.3824"/>
<polygon fill="none" stroke="#000000" points="149.0672,-292.3824 149.0672,-314.3824 316.0672,-314.3824 316.0672,-292.3824 149.0672,-292.3824"/>
<text text-anchor="start" x="169.0672" y="-299.4824" font-family="Helvetica,sans-Serif" font-size="11.00" fill="#000000">liker_id</text>
<polygon fill="none" stroke="#000000" points="149.0672,-273.3824 149.0672,-292.3824 316.0672,-292.3824 316.0672,-273.3824 149.0672,-273.3824"/>
<text text-anchor="start" x="152.0672" y="-279.4824" font-family="Helvetica,sans-Serif" font-size="11.00" fill="#000000">...</text>
<polygon fill="#ffffff" stroke="transparent" points="149.0672,-254.3824 149.0672,-273.3824 223.0672,-273.3824 223.0672,-254.3824 149.0672,-254.3824"/>
<polygon fill="none" stroke="#000000" points="149.0672,-254.3824 149.0672,-273.3824 223.0672,-273.3824 223.0672,-254.3824 149.0672,-254.3824"/>
<text text-anchor="start" x="152.0672" y="-260.4824" font-family="Helvetica,sans-Serif" font-size="11.00" fill="#000000">&lt; 1</text>
<polygon fill="#ffffff" stroke="transparent" points="223.0672,-254.3824 223.0672,-273.3824 262.0672,-273.3824 262.0672,-254.3824 223.0672,-254.3824"/>
<polygon fill="none" stroke="#000000" points="223.0672,-254.3824 223.0672,-273.3824 262.0672,-273.3824 262.0672,-254.3824 223.0672,-254.3824"/>
<text text-anchor="start" x="252.9534" y="-260.4824" font-family="Helvetica,sans-Serif" font-size="11.00" fill="#000000"> &#160;</text>
<polygon fill="#ffffff" stroke="transparent" points="262.0672,-254.3824 262.0672,-273.3824 316.0672,-273.3824 316.0672,-254.3824 262.0672,-254.3824"/>
<polygon fill="none" stroke="#000000" points="262.0672,-254.3824 262.0672,-273.3824 316.0672,-273.3824 316.0672,-254.3824 262.0672,-254.3824"/>
<text text-anchor="start" x="291.3576" y="-260.4824" font-family="Helvetica,sans-Serif" font-size="11.00" fill="#000000">42 &gt;</text>
</a>
</g>
</g>
<!-- action_article&#45;&gt;user -->
<g id="edge2" class="edge">
<title>action_article:w&#45;&gt;user:e</title>
<path fill="none" stroke="#000000" d="M771.5409,-1571.2058C351.5694,-1560.861 486.912,-1097.975 356.5672,-685.3824 339.6134,-631.7169 372.347,-435.3824 316.0672,-435.3824"/>
<polygon fill="#000000" stroke="#000000" points="778.0678,-1571.2851 786.0234,-1574.9821 782.0675,-1571.3337 786.0672,-1571.3824 786.0672,-1571.3824 786.0672,-1571.3824 782.0675,-1571.3337 786.111,-1567.7827 778.0678,-1571.2851 778.0678,-1571.2851"/>
<ellipse fill="none" stroke="#000000" cx="774.868" cy="-1571.2462" rx="3.2" ry="3.2"/>
</g>
<!-- article&#45;&gt;article -->
<g id="edge6" class="edge">
<title>article:w&#45;&gt;article:e</title>
<path fill="none" stroke="#000000" d="M506.8901,-851.1776C465.9034,-931.4469 472.452,-957.3824 606.5672,-957.3824 747.5672,-957.3824 747.5672,-948.7157 699.5672,-904.3824"/>
<polygon fill="#000000" stroke="#000000" points="509.8661,-845.4748 516.7588,-840.0479 511.7166,-841.9286 513.5672,-838.3824 513.5672,-838.3824 513.5672,-838.3824 511.7166,-841.9286 510.3756,-836.7169 509.8661,-845.4748 509.8661,-845.4748"/>
<ellipse fill="none" stroke="#000000" cx="508.3856" cy="-848.3117" rx="3.2" ry="3.2"/>
</g>
<!-- article&#45;&gt;user -->
<g id="edge3" class="edge">
<title>article:w&#45;&gt;user:e</title>
<path fill="none" stroke="#000000" d="M499.4695,-856.9398C434.5034,-820.7432 532.12,-510.087 470.5672,-449.3824 421.4765,-400.9682 385.0152,-435.3824 316.0672,-435.3824"/>
<polygon fill="#000000" stroke="#000000" points="505.7956,-858.4846 512.7132,-863.8796 509.6814,-859.4335 513.5672,-860.3824 513.5672,-860.3824 513.5672,-860.3824 509.6814,-859.4335 514.4212,-856.8852 505.7956,-858.4846 505.7956,-858.4846"/>
<ellipse fill="none" stroke="#000000" cx="502.6869" cy="-857.7254" rx="3.2" ry="3.2"/>
</g>
<!-- asset -->
<g id="node4" class="node">
<title>asset</title>
<g id="a_node4"><a xlink:href="../../tables/asset.html" xlink:title="asset" target="_top">
<polygon fill="#ffffff" stroke="transparent" points="14.5672,-422.8824 14.5672,-549.8824 99.5672,-549.8824 99.5672,-422.8824 14.5672,-422.8824"/>
<polygon fill="#f5f5f5" stroke="transparent" points="15.0672,-526.3824 15.0672,-549.3824 100.0672,-549.3824 100.0672,-526.3824 15.0672,-526.3824"/>
<polygon fill="none" stroke="#000000" points="15.0672,-526.3824 15.0672,-549.3824 100.0672,-549.3824 100.0672,-526.3824 15.0672,-526.3824"/>
<text text-anchor="start" x="20.0672" y="-535.4824" font-family="Helvetica,sans-Serif" font-weight="bold" font-size="11.00" fill="#000000">asset</text>
<text text-anchor="start" x="65.1109" y="-534.4824" font-family="Helvetica,sans-Serif" font-size="11.00" fill="#000000">[table]</text>
<polygon fill="none" stroke="#000000" points="15.0672,-504.3824 15.0672,-526.3824 100.0672,-526.3824 100.0672,-504.3824 15.0672,-504.3824"/>
<image xlink:href="../../images/primaryKeys.png" width="11px" height="12px" preserveAspectRatio="xMinYMin meet" x="20.0672" y="-521.382"/>
<text text-anchor="start" x="35.0672" y="-511.4824" font-family="Helvetica,sans-Serif" font-size="11.00" fill="#000000">id</text>
<polygon fill="#ffffff" stroke="transparent" points="15.0672,-482.3824 15.0672,-504.3824 100.0672,-504.3824 100.0672,-482.3824 15.0672,-482.3824"/>
<polygon fill="none" stroke="#000000" points="15.0672,-482.3824 15.0672,-504.3824 100.0672,-504.3824 100.0672,-482.3824 15.0672,-482.3824"/>
<text text-anchor="start" x="35.0672" y="-489.4824" font-family="Helvetica,sans-Serif" font-size="11.00" fill="#000000">uuid</text>
<polygon fill="none" stroke="#000000" points="15.0672,-460.3824 15.0672,-482.3824 100.0672,-482.3824 100.0672,-460.3824 15.0672,-460.3824"/>
<image xlink:href="../../images/foreignKeys.png" width="11px" height="12px" preserveAspectRatio="xMinYMin meet" x="20.0672" y="-477.382"/>
<text text-anchor="start" x="35.0672" y="-467.4824" font-family="Helvetica,sans-Serif" font-size="11.00" fill="#000000">author_id</text>
<polygon fill="none" stroke="#000000" points="15.0672,-441.3824 15.0672,-460.3824 100.0672,-460.3824 100.0672,-441.3824 15.0672,-441.3824"/>
<text text-anchor="start" x="18.0672" y="-447.4824" font-family="Helvetica,sans-Serif" font-size="11.00" fill="#000000">...</text>
<polygon fill="#ffffff" stroke="transparent" points="15.0672,-422.3824 15.0672,-441.3824 51.0672,-441.3824 51.0672,-422.3824 15.0672,-422.3824"/>
<polygon fill="none" stroke="#000000" points="15.0672,-422.3824 15.0672,-441.3824 51.0672,-441.3824 51.0672,-422.3824 15.0672,-422.3824"/>
<text text-anchor="start" x="18.0672" y="-428.4824" font-family="Helvetica,sans-Serif" font-size="11.00" fill="#000000">&lt; 1</text>
<polygon fill="#ffffff" stroke="transparent" points="51.0672,-422.3824 51.0672,-441.3824 71.0672,-441.3824 71.0672,-422.3824 51.0672,-422.3824"/>
<polygon fill="none" stroke="#000000" points="51.0672,-422.3824 51.0672,-441.3824 71.0672,-441.3824 71.0672,-422.3824 51.0672,-422.3824"/>
<text text-anchor="start" x="61.9534" y="-428.4824" font-family="Helvetica,sans-Serif" font-size="11.00" fill="#000000"> &#160;</text>
<polygon fill="#ffffff" stroke="transparent" points="71.0672,-422.3824 71.0672,-441.3824 100.0672,-441.3824 100.0672,-422.3824 71.0672,-422.3824"/>
<polygon fill="none" stroke="#000000" points="71.0672,-422.3824 71.0672,-441.3824 100.0672,-441.3824 100.0672,-422.3824 71.0672,-422.3824"/>
<text text-anchor="start" x="81.4725" y="-428.4824" font-family="Helvetica,sans-Serif" font-size="11.00" fill="#000000">9 &gt;</text>
</a>
</g>
</g>
<!-- article&#45;&gt;asset -->
<g id="edge4" class="edge">
<title>article:w&#45;&gt;asset:e</title>
<path fill="none" stroke="#000000" d="M499.1582,-769.1724C422.1999,-742.3705 159.9601,-556.458 140.5672,-543.3824 122.4232,-531.1488 121.9502,-515.3824 100.0672,-515.3824"/>
<polygon fill="#000000" stroke="#000000" points="505.7586,-770.6428 512.7844,-775.8963 509.6629,-771.5126 513.5672,-772.3824 513.5672,-772.3824 513.5672,-772.3824 509.6629,-771.5126 514.35,-768.8685 505.7586,-770.6428 505.7586,-770.6428"/>
<ellipse fill="none" stroke="#000000" cx="502.6352" cy="-769.9469" rx="3.2" ry="3.2"/>
</g>
<!-- draft -->
<g id="node5" class="node">
<title>draft</title>
<g id="a_node5"><a xlink:href="../../tables/draft.html" xlink:title="draft" target="_top">
<polygon fill="#ffffff" stroke="transparent" points="364.5672,-459.8824 364.5672,-674.8824 462.5672,-674.8824 462.5672,-459.8824 364.5672,-459.8824"/>
<polygon fill="#f5f5f5" stroke="transparent" points="364.5672,-651.3824 364.5672,-674.3824 462.5672,-674.3824 462.5672,-651.3824 364.5672,-651.3824"/>
<polygon fill="none" stroke="#000000" points="364.5672,-651.3824 364.5672,-674.3824 462.5672,-674.3824 462.5672,-651.3824 364.5672,-651.3824"/>
<text text-anchor="start" x="369.5672" y="-660.4824" font-family="Helvetica,sans-Serif" font-weight="bold" font-size="11.00" fill="#000000">draft</text>
<text text-anchor="start" x="427.6109" y="-659.4824" font-family="Helvetica,sans-Serif" font-size="11.00" fill="#000000">[table]</text>
<polygon fill="none" stroke="#000000" points="364.5672,-629.3824 364.5672,-651.3824 462.5672,-651.3824 462.5672,-629.3824 364.5672,-629.3824"/>
<image xlink:href="../../images/primaryKeys.png" width="11px" height="12px" preserveAspectRatio="xMinYMin meet" x="369.567" y="-646.382"/>
<text text-anchor="start" x="384.5672" y="-636.4824" font-family="Helvetica,sans-Serif" font-size="11.00" fill="#000000">id</text>
<polygon fill="#ffffff" stroke="transparent" points="364.5672,-607.3824 364.5672,-629.3824 462.5672,-629.3824 462.5672,-607.3824 364.5672,-607.3824"/>
<polygon fill="none" stroke="#000000" points="364.5672,-607.3824 364.5672,-629.3824 462.5672,-629.3824 462.5672,-607.3824 364.5672,-607.3824"/>
<text text-anchor="start" x="384.5672" y="-614.4824" font-family="Helvetica,sans-Serif" font-size="11.00" fill="#000000">uuid</text>
<polygon fill="#ffffff" stroke="transparent" points="364.5672,-585.3824 364.5672,-607.3824 462.5672,-607.3824 462.5672,-585.3824 364.5672,-585.3824"/>
<polygon fill="none" stroke="#000000" points="364.5672,-585.3824 364.5672,-607.3824 462.5672,-607.3824 462.5672,-585.3824 364.5672,-585.3824"/>
<image xlink:href="../../images/foreignKeys.png" width="11px" height="12px" preserveAspectRatio="xMinYMin meet" x="369.567" y="-602.382"/>
<text text-anchor="start" x="384.5672" y="-592.4824" font-family="Helvetica,sans-Serif" font-size="11.00" fill="#000000">author_id</text>
<polygon fill="none" stroke="#000000" points="364.5672,-563.3824 364.5672,-585.3824 462.5672,-585.3824 462.5672,-563.3824 364.5672,-563.3824"/>
<image xlink:href="../../images/foreignKeys.png" width="11px" height="12px" preserveAspectRatio="xMinYMin meet" x="369.567" y="-580.382"/>
<text text-anchor="start" x="384.5672" y="-570.4824" font-family="Helvetica,sans-Serif" font-size="11.00" fill="#000000">upstream_id</text>
<polygon fill="none" stroke="#000000" points="364.5672,-541.3824 364.5672,-563.3824 462.5672,-563.3824 462.5672,-541.3824 364.5672,-541.3824"/>
<image xlink:href="../../images/foreignKeys.png" width="11px" height="12px" preserveAspectRatio="xMinYMin meet" x="369.567" y="-558.382"/>
<text text-anchor="start" x="384.5672" y="-548.4824" font-family="Helvetica,sans-Serif" font-size="11.00" fill="#000000">cover</text>
<polygon fill="#ffffff" stroke="transparent" points="364.5672,-519.3824 364.5672,-541.3824 462.5672,-541.3824 462.5672,-519.3824 364.5672,-519.3824"/>
<polygon fill="none" stroke="#000000" points="364.5672,-519.3824 364.5672,-541.3824 462.5672,-541.3824 462.5672,-519.3824 364.5672,-519.3824"/>
<text text-anchor="start" x="384.5672" y="-526.4824" font-family="Helvetica,sans-Serif" font-size="11.00" fill="#000000">archived</text>
<polygon fill="#ffffff" stroke="transparent" points="364.5672,-497.3824 364.5672,-519.3824 462.5672,-519.3824 462.5672,-497.3824 364.5672,-497.3824"/>
<polygon fill="none" stroke="#000000" points="364.5672,-497.3824 364.5672,-519.3824 462.5672,-519.3824 462.5672,-497.3824 364.5672,-497.3824"/>
<text text-anchor="start" x="384.5672" y="-504.4824" font-family="Helvetica,sans-Serif" font-size="11.00" fill="#000000">publish_state</text>
<polygon fill="none" stroke="#000000" points="364.5672,-478.3824 364.5672,-497.3824 462.5672,-497.3824 462.5672,-478.3824 364.5672,-478.3824"/>
<text text-anchor="start" x="367.5672" y="-484.4824" font-family="Helvetica,sans-Serif" font-size="11.00" fill="#000000">...</text>
<polygon fill="#ffffff" stroke="transparent" points="364.5672,-459.3824 364.5672,-478.3824 407.5672,-478.3824 407.5672,-459.3824 364.5672,-459.3824"/>
<polygon fill="none" stroke="#000000" points="364.5672,-459.3824 364.5672,-478.3824 407.5672,-478.3824 407.5672,-459.3824 364.5672,-459.3824"/>
<text text-anchor="start" x="367.5672" y="-465.4824" font-family="Helvetica,sans-Serif" font-size="11.00" fill="#000000">&lt; 3</text>
<polygon fill="#ffffff" stroke="transparent" points="407.5672,-459.3824 407.5672,-478.3824 430.5672,-478.3824 430.5672,-459.3824 407.5672,-459.3824"/>
<polygon fill="none" stroke="#000000" points="407.5672,-459.3824 407.5672,-478.3824 430.5672,-478.3824 430.5672,-459.3824 407.5672,-459.3824"/>
<text text-anchor="start" x="421.4534" y="-465.4824" font-family="Helvetica,sans-Serif" font-size="11.00" fill="#000000"> &#160;</text>
<polygon fill="#ffffff" stroke="transparent" points="430.5672,-459.3824 430.5672,-478.3824 462.5672,-478.3824 462.5672,-459.3824 430.5672,-459.3824"/>
<polygon fill="none" stroke="#000000" points="430.5672,-459.3824 430.5672,-478.3824 462.5672,-478.3824 462.5672,-459.3824 430.5672,-459.3824"/>
<text text-anchor="start" x="443.9725" y="-465.4824" font-family="Helvetica,sans-Serif" font-size="11.00" fill="#000000">1 &gt;</text>
</a>
</g>
</g>
<!-- article&#45;&gt;draft -->
<g id="edge5" class="edge">
<title>article:w&#45;&gt;draft:e</title>
<path fill="none" stroke="#000000" d="M499.5672,-534.0423C470.7752,-553.129 510.5611,-640.3824 462.5672,-640.3824"/>
<polygon fill="#000000" stroke="#000000" points="505.8273,-532.4058 514.4777,-533.8653 509.6973,-531.3941 513.5672,-530.3824 513.5672,-530.3824 513.5672,-530.3824 509.6973,-531.3941 512.6567,-526.8994 505.8273,-532.4058 505.8273,-532.4058"/>
<ellipse fill="none" stroke="#000000" cx="502.7313" cy="-533.2152" rx="3.2" ry="3.2"/>
</g>
<!-- user&#45;&gt;asset -->
<g id="edge27" class="edge">
<title>user:w&#45;&gt;asset:e</title>
<path fill="none" stroke="#000000" d="M134.9449,-372.2988C94.2817,-392.876 162.7647,-515.3824 100.0672,-515.3824"/>
<polygon fill="#000000" stroke="#000000" points="141.2325,-371.0004 149.7953,-372.908 145.1499,-370.1914 149.0672,-369.3824 149.0672,-369.3824 149.0672,-369.3824 145.1499,-370.1914 148.3391,-365.8568 141.2325,-371.0004 141.2325,-371.0004"/>
<ellipse fill="none" stroke="#000000" cx="138.0986" cy="-371.6476" rx="3.2" ry="3.2"/>
</g>
<!-- asset&#45;&gt;user -->
<g id="edge14" class="edge">
<title>asset:w&#45;&gt;user:e</title>
<path fill="none" stroke="#000000" d="M2.2741,-464.442C-3.8061,-453.1525 3.0795,-430.8701 15.0672,-418.8824 44.1371,-389.8125 71.7923,-398.627 107.5672,-418.8824 132.3739,-432.9277 115.7605,-459.8371 140.5672,-473.8824 140.5672,-473.8824 316.0672,-435.3824 316.0672,-435.3824"/>
<polygon fill="#000000" stroke="#000000" points="8.0354,-467.5675 13.3505,-474.5467 11.5513,-469.4749 15.0672,-471.3824 15.0672,-471.3824 15.0672,-471.3824 11.5513,-469.4749 16.7839,-468.2181 8.0354,-467.5675 8.0354,-467.5675"/>
<ellipse fill="none" stroke="#000000" cx="5.2226" cy="-466.0415" rx="3.2" ry="3.2"/>
</g>
<!-- draft&#45;&gt;article -->
<g id="edge21" class="edge">
<title>draft:w&#45;&gt;article:e</title>
<path fill="none" stroke="#000000" d="M354.1538,-584.5516C346.57,-607.5455 355.9997,-662.7876 364.5672,-678.8824 364.5672,-678.8824 699.5672,-904.3824 699.5672,-904.3824"/>
<polygon fill="#000000" stroke="#000000" points="358.8436,-579.9718 367.0824,-576.958 361.7054,-577.1771 364.5672,-574.3824 364.5672,-574.3824 364.5672,-574.3824 361.7054,-577.1771 362.052,-571.8068 358.8436,-579.9718 358.8436,-579.9718"/>
<ellipse fill="none" stroke="#000000" cx="356.5542" cy="-582.2075" rx="3.2" ry="3.2"/>
</g>
<!-- draft&#45;&gt;user -->
<g id="edge19" class="edge">
<title>draft:w&#45;&gt;user:e</title>
<path fill="none" stroke="#000000" d="M350.3928,-593.7223C304.1972,-572.7892 385.1065,-435.3824 316.0672,-435.3824"/>
<polygon fill="#000000" stroke="#000000" points="356.7045,-594.9067 363.9032,-599.9206 360.6358,-595.6446 364.5672,-596.3824 364.5672,-596.3824 364.5672,-596.3824 360.6358,-595.6446 365.2312,-592.8442 356.7045,-594.9067 356.7045,-594.9067"/>
<ellipse fill="none" stroke="#000000" cx="353.5594" cy="-594.3165" rx="3.2" ry="3.2"/>
</g>
<!-- draft&#45;&gt;asset -->
<g id="edge20" class="edge">
<title>draft:w&#45;&gt;asset:e</title>
<path fill="none" stroke="#000000" d="M350.0848,-552.1921C243.4296,-549.3402 213.7829,-515.3824 100.0672,-515.3824"/>
<polygon fill="#000000" stroke="#000000" points="356.5679,-552.2773 364.5199,-555.9821 360.5675,-552.3298 364.5672,-552.3824 364.5672,-552.3824 364.5672,-552.3824 360.5675,-552.3298 364.6145,-548.7827 356.5679,-552.2773 356.5679,-552.2773"/>
<ellipse fill="none" stroke="#000000" cx="353.3682" cy="-552.2352" rx="3.2" ry="3.2"/>
</g>
<!-- article_boost -->
<g id="node6" class="node">
<title>article_boost</title>
<g id="a_node6"><a xlink:href="../../tables/article_boost.html" xlink:title="article_boost" target="_top">
<polygon fill="#ffffff" stroke="transparent" points="786.5672,-1352.8824 786.5672,-1457.8824 891.5672,-1457.8824 891.5672,-1352.8824 786.5672,-1352.8824"/>
<polygon fill="#f5f5f5" stroke="transparent" points="787.0672,-1434.3824 787.0672,-1457.3824 892.0672,-1457.3824 892.0672,-1434.3824 787.0672,-1434.3824"/>
<polygon fill="none" stroke="#000000" points="787.0672,-1434.3824 787.0672,-1457.3824 892.0672,-1457.3824 892.0672,-1434.3824 787.0672,-1434.3824"/>
<text text-anchor="start" x="791.8938" y="-1443.4824" font-family="Helvetica,sans-Serif" font-weight="bold" font-size="11.00" fill="#000000">article_boost</text>
<text text-anchor="start" x="857.5891" y="-1442.4824" font-family="Helvetica,sans-Serif" font-size="11.00" fill="#000000">[table]</text>
<polygon fill="none" stroke="#000000" points="787.0672,-1412.3824 787.0672,-1434.3824 892.0672,-1434.3824 892.0672,-1412.3824 787.0672,-1412.3824"/>
<image xlink:href="../../images/primaryKeys.png" width="11px" height="12px" preserveAspectRatio="xMinYMin meet" x="792.067" y="-1429.38"/>
<text text-anchor="start" x="812.0672" y="-1419.4824" font-family="Helvetica,sans-Serif" font-size="11.00" fill="#000000">id</text>
<polygon fill="none" stroke="#000000" points="787.0672,-1390.3824 787.0672,-1412.3824 892.0672,-1412.3824 892.0672,-1390.3824 787.0672,-1390.3824"/>
<image xlink:href="../../images/foreignKeys.png" width="11px" height="12px" preserveAspectRatio="xMinYMin meet" x="792.067" y="-1407.38"/>
<text text-anchor="start" x="812.0672" y="-1397.4824" font-family="Helvetica,sans-Serif" font-size="11.00" fill="#000000">article_id</text>
<polygon fill="none" stroke="#000000" points="787.0672,-1371.3824 787.0672,-1390.3824 892.0672,-1390.3824 892.0672,-1371.3824 787.0672,-1371.3824"/>
<text text-anchor="start" x="790.0672" y="-1377.4824" font-family="Helvetica,sans-Serif" font-size="11.00" fill="#000000">...</text>
<polygon fill="#ffffff" stroke="transparent" points="787.0672,-1352.3824 787.0672,-1371.3824 838.0672,-1371.3824 838.0672,-1352.3824 787.0672,-1352.3824"/>
<polygon fill="none" stroke="#000000" points="787.0672,-1352.3824 787.0672,-1371.3824 838.0672,-1371.3824 838.0672,-1352.3824 787.0672,-1352.3824"/>
<text text-anchor="start" x="790.0672" y="-1358.4824" font-family="Helvetica,sans-Serif" font-size="11.00" fill="#000000">&lt; 1</text>
<polygon fill="#ffffff" stroke="transparent" points="838.0672,-1352.3824 838.0672,-1371.3824 865.0672,-1371.3824 865.0672,-1352.3824 838.0672,-1352.3824"/>
<polygon fill="none" stroke="#000000" points="838.0672,-1352.3824 838.0672,-1371.3824 865.0672,-1371.3824 865.0672,-1352.3824 838.0672,-1352.3824"/>
<text text-anchor="start" x="855.9534" y="-1358.4824" font-family="Helvetica,sans-Serif" font-size="11.00" fill="#000000"> &#160;</text>
<polygon fill="#ffffff" stroke="transparent" points="865.0672,-1352.3824 865.0672,-1371.3824 892.0672,-1371.3824 892.0672,-1352.3824 865.0672,-1352.3824"/>
<polygon fill="none" stroke="#000000" points="865.0672,-1352.3824 865.0672,-1371.3824 892.0672,-1371.3824 892.0672,-1352.3824 865.0672,-1352.3824"/>
<text text-anchor="start" x="882.9534" y="-1358.4824" font-family="Helvetica,sans-Serif" font-size="11.00" fill="#000000"> &#160;</text>
</a>
</g>
</g>
<!-- article_boost&#45;&gt;article -->
<g id="edge7" class="edge">
<title>article_boost:w&#45;&gt;article:e</title>
<path fill="none" stroke="#000000" d="M772.5256,-1401.7896C659.1827,-1408.3022 769.9585,-1484.0577 709.5672,-972.3824 705.9867,-942.0457 730.1145,-904.3824 699.5672,-904.3824"/>
<polygon fill="#000000" stroke="#000000" points="779.0703,-1401.6064 787.168,-1404.981 783.0688,-1401.4944 787.0672,-1401.3824 787.0672,-1401.3824 787.0672,-1401.3824 783.0688,-1401.4944 786.9664,-1397.7838 779.0703,-1401.6064 779.0703,-1401.6064"/>
<ellipse fill="none" stroke="#000000" cx="775.8716" cy="-1401.696" rx="3.2" ry="3.2"/>
</g>
<!-- article_read -->
<g id="node7" class="node">
<title>article_read</title>
<g id="a_node7"><a xlink:href="../../tables/article_read.html" xlink:title="article_read" target="_top">
<polygon fill="#ffffff" stroke="transparent" points="789.0672,-458.8824 789.0672,-607.8824 889.0672,-607.8824 889.0672,-458.8824 789.0672,-458.8824"/>
<polygon fill="#f5f5f5" stroke="transparent" points="789.0672,-584.3824 789.0672,-607.3824 889.0672,-607.3824 889.0672,-584.3824 789.0672,-584.3824"/>
<polygon fill="none" stroke="#000000" points="789.0672,-584.3824 789.0672,-607.3824 889.0672,-607.3824 889.0672,-584.3824 789.0672,-584.3824"/>
<text text-anchor="start" x="793.8413" y="-593.4824" font-family="Helvetica,sans-Serif" font-weight="bold" font-size="11.00" fill="#000000">article_read</text>
<text text-anchor="start" x="854.5891" y="-592.4824" font-family="Helvetica,sans-Serif" font-size="11.00" fill="#000000">[table]</text>
<polygon fill="none" stroke="#000000" points="789.0672,-562.3824 789.0672,-584.3824 889.0672,-584.3824 889.0672,-562.3824 789.0672,-562.3824"/>
<image xlink:href="../../images/primaryKeys.png" width="11px" height="12px" preserveAspectRatio="xMinYMin meet" x="794.067" y="-579.382"/>
<text text-anchor="start" x="815.0672" y="-569.4824" font-family="Helvetica,sans-Serif" font-size="11.00" fill="#000000">id</text>
<polygon fill="#ffffff" stroke="transparent" points="789.0672,-540.3824 789.0672,-562.3824 889.0672,-562.3824 889.0672,-540.3824 789.0672,-540.3824"/>
<polygon fill="none" stroke="#000000" points="789.0672,-540.3824 789.0672,-562.3824 889.0672,-562.3824 889.0672,-540.3824 789.0672,-540.3824"/>
<text text-anchor="start" x="815.0672" y="-547.4824" font-family="Helvetica,sans-Serif" font-size="11.00" fill="#000000">uuid</text>
<polygon fill="none" stroke="#000000" points="789.0672,-518.3824 789.0672,-540.3824 889.0672,-540.3824 889.0672,-518.3824 789.0672,-518.3824"/>
<image xlink:href="../../images/foreignKeys.png" width="11px" height="12px" preserveAspectRatio="xMinYMin meet" x="794.067" y="-535.382"/>
<text text-anchor="start" x="815.0672" y="-525.4824" font-family="Helvetica,sans-Serif" font-size="11.00" fill="#000000">user_id</text>
<polygon fill="none" stroke="#000000" points="789.0672,-496.3824 789.0672,-518.3824 889.0672,-518.3824 889.0672,-496.3824 789.0672,-496.3824"/>
<image xlink:href="../../images/foreignKeys.png" width="11px" height="12px" preserveAspectRatio="xMinYMin meet" x="794.067" y="-513.382"/>
<text text-anchor="start" x="815.0672" y="-503.4824" font-family="Helvetica,sans-Serif" font-size="11.00" fill="#000000">article_id</text>
<polygon fill="none" stroke="#000000" points="789.0672,-477.3824 789.0672,-496.3824 889.0672,-496.3824 889.0672,-477.3824 789.0672,-477.3824"/>
<text text-anchor="start" x="792.0672" y="-483.4824" font-family="Helvetica,sans-Serif" font-size="11.00" fill="#000000">...</text>
<polygon fill="#ffffff" stroke="transparent" points="789.0672,-458.3824 789.0672,-477.3824 837.0672,-477.3824 837.0672,-458.3824 789.0672,-458.3824"/>
<polygon fill="none" stroke="#000000" points="789.0672,-458.3824 789.0672,-477.3824 837.0672,-477.3824 837.0672,-458.3824 789.0672,-458.3824"/>
<text text-anchor="start" x="792.0672" y="-464.4824" font-family="Helvetica,sans-Serif" font-size="11.00" fill="#000000">&lt; 2</text>
<polygon fill="#ffffff" stroke="transparent" points="837.0672,-458.3824 837.0672,-477.3824 863.0672,-477.3824 863.0672,-458.3824 837.0672,-458.3824"/>
<polygon fill="none" stroke="#000000" points="837.0672,-458.3824 837.0672,-477.3824 863.0672,-477.3824 863.0672,-458.3824 837.0672,-458.3824"/>
<text text-anchor="start" x="853.9534" y="-464.4824" font-family="Helvetica,sans-Serif" font-size="11.00" fill="#000000"> &#160;</text>
<polygon fill="#ffffff" stroke="transparent" points="863.0672,-458.3824 863.0672,-477.3824 889.0672,-477.3824 889.0672,-458.3824 863.0672,-458.3824"/>
<polygon fill="none" stroke="#000000" points="863.0672,-458.3824 863.0672,-477.3824 889.0672,-477.3824 889.0672,-458.3824 863.0672,-458.3824"/>
<text text-anchor="start" x="879.9534" y="-464.4824" font-family="Helvetica,sans-Serif" font-size="11.00" fill="#000000"> &#160;</text>
</a>
</g>
</g>
<!-- article_read&#45;&gt;article -->
<g id="edge8" class="edge">
<title>article_read:w&#45;&gt;article:e</title>
<path fill="none" stroke="#000000" d="M774.5722,-509.222C738.2623,-519.8529 755.6731,-574.6157 742.5672,-622.3824 725.7943,-683.5141 762.9582,-904.3824 699.5672,-904.3824"/>
<polygon fill="#000000" stroke="#000000" points="781.1309,-508.3897 789.5205,-510.9538 785.099,-507.886 789.0672,-507.3824 789.0672,-507.3824 789.0672,-507.3824 785.099,-507.886 788.6139,-503.811 781.1309,-508.3897 781.1309,-508.3897"/>
<ellipse fill="none" stroke="#000000" cx="777.9563" cy="-508.7926" rx="3.2" ry="3.2"/>
</g>
<!-- article_read&#45;&gt;user -->
<g id="edge9" class="edge">
<title>article_read:w&#45;&gt;user:e</title>
<path fill="none" stroke="#000000" d="M774.6056,-527.3553C734.9471,-514.6514 757.7708,-445.7544 709.5672,-421.3824 569.5568,-350.5924 511.2888,-395.3948 356.5672,-421.3824 337.7852,-424.5371 335.1123,-435.3824 316.0672,-435.3824"/>
<polygon fill="#000000" stroke="#000000" points="781.1446,-528.2719 788.5675,-532.9475 785.1059,-528.8271 789.0672,-529.3824 789.0672,-529.3824 789.0672,-529.3824 785.1059,-528.8271 789.5669,-525.8172 781.1446,-528.2719 781.1446,-528.2719"/>
<ellipse fill="none" stroke="#000000" cx="777.9756" cy="-527.8276" rx="3.2" ry="3.2"/>
</g>
<!-- article_read_count -->
<g id="node8" class="node">
<title>article_read_count</title>
<g id="a_node8"><a xlink:href="../../tables/article_read_count.html" xlink:title="article_read_count" target="_top">
<polygon fill="#ffffff" stroke="transparent" points="772.5672,-310.8824 772.5672,-437.8824 905.5672,-437.8824 905.5672,-310.8824 772.5672,-310.8824"/>
<polygon fill="#f5f5f5" stroke="transparent" points="773.0672,-414.3824 773.0672,-437.3824 906.0672,-437.3824 906.0672,-414.3824 773.0672,-414.3824"/>
<polygon fill="none" stroke="#000000" points="773.0672,-414.3824 773.0672,-437.3824 906.0672,-437.3824 906.0672,-414.3824 773.0672,-414.3824"/>
<text text-anchor="start" x="777.833" y="-423.4824" font-family="Helvetica,sans-Serif" font-weight="bold" font-size="11.00" fill="#000000">article_read_count</text>
<text text-anchor="start" x="871.5891" y="-422.4824" font-family="Helvetica,sans-Serif" font-size="11.00" fill="#000000">[table]</text>
<polygon fill="none" stroke="#000000" points="773.0672,-392.3824 773.0672,-414.3824 906.0672,-414.3824 906.0672,-392.3824 773.0672,-392.3824"/>
<image xlink:href="../../images/primaryKeys.png" width="11px" height="12px" preserveAspectRatio="xMinYMin meet" x="778.067" y="-409.382"/>
<text text-anchor="start" x="796.0672" y="-399.4824" font-family="Helvetica,sans-Serif" font-size="11.00" fill="#000000">id</text>
<polygon fill="#ffffff" stroke="transparent" points="773.0672,-370.3824 773.0672,-392.3824 906.0672,-392.3824 906.0672,-370.3824 773.0672,-370.3824"/>
<polygon fill="none" stroke="#000000" points="773.0672,-370.3824 773.0672,-392.3824 906.0672,-392.3824 906.0672,-370.3824 773.0672,-370.3824"/>
<image xlink:href="../../images/foreignKeys.png" width="11px" height="12px" preserveAspectRatio="xMinYMin meet" x="778.067" y="-387.382"/>
<text text-anchor="start" x="796.0672" y="-377.4824" font-family="Helvetica,sans-Serif" font-size="11.00" fill="#000000">user_id</text>
<polygon fill="#ffffff" stroke="transparent" points="773.0672,-348.3824 773.0672,-370.3824 906.0672,-370.3824 906.0672,-348.3824 773.0672,-348.3824"/>
<polygon fill="none" stroke="#000000" points="773.0672,-348.3824 773.0672,-370.3824 906.0672,-370.3824 906.0672,-348.3824 773.0672,-348.3824"/>
<image xlink:href="../../images/foreignKeys.png" width="11px" height="12px" preserveAspectRatio="xMinYMin meet" x="778.067" y="-365.382"/>
<text text-anchor="start" x="796.0672" y="-355.4824" font-family="Helvetica,sans-Serif" font-size="11.00" fill="#000000">article_id</text>
<polygon fill="none" stroke="#000000" points="773.0672,-329.3824 773.0672,-348.3824 906.0672,-348.3824 906.0672,-329.3824 773.0672,-329.3824"/>
<text text-anchor="start" x="776.0672" y="-335.4824" font-family="Helvetica,sans-Serif" font-size="11.00" fill="#000000">...</text>
<polygon fill="#ffffff" stroke="transparent" points="773.0672,-310.3824 773.0672,-329.3824 838.0672,-329.3824 838.0672,-310.3824 773.0672,-310.3824"/>
<polygon fill="none" stroke="#000000" points="773.0672,-310.3824 773.0672,-329.3824 838.0672,-329.3824 838.0672,-310.3824 773.0672,-310.3824"/>
<text text-anchor="start" x="776.0672" y="-316.4824" font-family="Helvetica,sans-Serif" font-size="11.00" fill="#000000">&lt; 2</text>
<polygon fill="#ffffff" stroke="transparent" points="838.0672,-310.3824 838.0672,-329.3824 872.0672,-329.3824 872.0672,-310.3824 838.0672,-310.3824"/>
<polygon fill="none" stroke="#000000" points="838.0672,-310.3824 838.0672,-329.3824 872.0672,-329.3824 872.0672,-310.3824 838.0672,-310.3824"/>
<text text-anchor="start" x="862.9534" y="-316.4824" font-family="Helvetica,sans-Serif" font-size="11.00" fill="#000000"> &#160;</text>
<polygon fill="#ffffff" stroke="transparent" points="872.0672,-310.3824 872.0672,-329.3824 906.0672,-329.3824 906.0672,-310.3824 872.0672,-310.3824"/>
<polygon fill="none" stroke="#000000" points="872.0672,-310.3824 872.0672,-329.3824 906.0672,-329.3824 906.0672,-310.3824 872.0672,-310.3824"/>
<text text-anchor="start" x="896.9534" y="-316.4824" font-family="Helvetica,sans-Serif" font-size="11.00" fill="#000000"> &#160;</text>
</a>
</g>
</g>
<!-- article_read_count&#45;&gt;article -->
<g id="edge10" class="edge">
<title>article_read_count:w&#45;&gt;article:e</title>
<path fill="none" stroke="#000000" d="M758.8484,-362.0834C736.3391,-372.7737 750.1313,-413.2538 742.5672,-448.3824 731.8545,-498.1335 750.4586,-904.3824 699.5672,-904.3824"/>
<polygon fill="#000000" stroke="#000000" points="765.2077,-360.8754 773.7391,-362.9192 769.1375,-360.1289 773.0672,-359.3824 773.0672,-359.3824 773.0672,-359.3824 769.1375,-360.1289 772.3953,-355.8456 765.2077,-360.8754 765.2077,-360.8754"/>
<ellipse fill="none" stroke="#000000" cx="762.064" cy="-361.4726" rx="3.2" ry="3.2"/>
</g>
<!-- article_read_count&#45;&gt;user -->
<g id="edge11" class="edge">
<title>article_read_count:w&#45;&gt;user:e</title>
<path fill="none" stroke="#000000" d="M758.4077,-381.27C584.5033,-378.5969 523.2825,-329.7498 356.5672,-398.3824 334.0222,-407.6636 340.4479,-435.3824 316.0672,-435.3824"/>
<polygon fill="#000000" stroke="#000000" points="765.0674,-381.321 773.0396,-384.9823 769.0673,-381.3517 773.0672,-381.3824 773.0672,-381.3824 773.0672,-381.3824 769.0673,-381.3517 773.0948,-377.7825 765.0674,-381.321 765.0674,-381.321"/>
<ellipse fill="none" stroke="#000000" cx="761.8675" cy="-381.2965" rx="3.2" ry="3.2"/>
</g>
<!-- article_recommend_setting -->
<g id="node9" class="node">
<title>article_recommend_setting</title>
<g id="a_node9"><a xlink:href="../../tables/article_recommend_setting.html" xlink:title="article_recommend_setting" target="_top">
<polygon fill="#ffffff" stroke="transparent" points="750.5672,-1226.8824 750.5672,-1331.8824 927.5672,-1331.8824 927.5672,-1226.8824 750.5672,-1226.8824"/>
<polygon fill="#f5f5f5" stroke="transparent" points="751.0672,-1308.3824 751.0672,-1331.3824 928.0672,-1331.3824 928.0672,-1308.3824 751.0672,-1308.3824"/>
<polygon fill="none" stroke="#000000" points="751.0672,-1308.3824 751.0672,-1331.3824 928.0672,-1331.3824 928.0672,-1308.3824 751.0672,-1308.3824"/>
<text text-anchor="start" x="756.0672" y="-1317.4824" font-family="Helvetica,sans-Serif" font-weight="bold" font-size="11.00" fill="#000000">article_recommend_setting</text>
<text text-anchor="start" x="893.1109" y="-1316.4824" font-family="Helvetica,sans-Serif" font-size="11.00" fill="#000000">[table]</text>
<polygon fill="none" stroke="#000000" points="751.0672,-1286.3824 751.0672,-1308.3824 928.0672,-1308.3824 928.0672,-1286.3824 751.0672,-1286.3824"/>
<image xlink:href="../../images/primaryKeys.png" width="11px" height="12px" preserveAspectRatio="xMinYMin meet" x="756.067" y="-1303.38"/>
<text text-anchor="start" x="771.0672" y="-1293.4824" font-family="Helvetica,sans-Serif" font-size="11.00" fill="#000000">id</text>
<polygon fill="#ffffff" stroke="transparent" points="751.0672,-1264.3824 751.0672,-1286.3824 928.0672,-1286.3824 928.0672,-1264.3824 751.0672,-1264.3824"/>
<polygon fill="none" stroke="#000000" points="751.0672,-1264.3824 751.0672,-1286.3824 928.0672,-1286.3824 928.0672,-1264.3824 751.0672,-1264.3824"/>
<image xlink:href="../../images/foreignKeys.png" width="11px" height="12px" preserveAspectRatio="xMinYMin meet" x="756.067" y="-1281.38"/>
<text text-anchor="start" x="771.0672" y="-1271.4824" font-family="Helvetica,sans-Serif" font-size="11.00" fill="#000000">article_id</text>
<polygon fill="none" stroke="#000000" points="751.0672,-1245.3824 751.0672,-1264.3824 928.0672,-1264.3824 928.0672,-1245.3824 751.0672,-1245.3824"/>
<text text-anchor="start" x="754.0672" y="-1251.4824" font-family="Helvetica,sans-Serif" font-size="11.00" fill="#000000">...</text>
<polygon fill="#ffffff" stroke="transparent" points="751.0672,-1226.3824 751.0672,-1245.3824 838.0672,-1245.3824 838.0672,-1226.3824 751.0672,-1226.3824"/>
<polygon fill="none" stroke="#000000" points="751.0672,-1226.3824 751.0672,-1245.3824 838.0672,-1245.3824 838.0672,-1226.3824 751.0672,-1226.3824"/>
<text text-anchor="start" x="754.0672" y="-1232.4824" font-family="Helvetica,sans-Serif" font-size="11.00" fill="#000000">&lt; 1</text>
<polygon fill="#ffffff" stroke="transparent" points="838.0672,-1226.3824 838.0672,-1245.3824 883.0672,-1245.3824 883.0672,-1226.3824 838.0672,-1226.3824"/>
<polygon fill="none" stroke="#000000" points="838.0672,-1226.3824 838.0672,-1245.3824 883.0672,-1245.3824 883.0672,-1226.3824 838.0672,-1226.3824"/>
<text text-anchor="start" x="873.9534" y="-1232.4824" font-family="Helvetica,sans-Serif" font-size="11.00" fill="#000000"> &#160;</text>
<polygon fill="#ffffff" stroke="transparent" points="883.0672,-1226.3824 883.0672,-1245.3824 928.0672,-1245.3824 928.0672,-1226.3824 883.0672,-1226.3824"/>
<polygon fill="none" stroke="#000000" points="883.0672,-1226.3824 883.0672,-1245.3824 928.0672,-1245.3824 928.0672,-1226.3824 883.0672,-1226.3824"/>
<text text-anchor="start" x="918.9534" y="-1232.4824" font-family="Helvetica,sans-Serif" font-size="11.00" fill="#000000"> &#160;</text>
</a>
</g>
</g>
<!-- article_recommend_setting&#45;&gt;article -->
<g id="edge12" class="edge">
<title>article_recommend_setting:w&#45;&gt;article:e</title>
<path fill="none" stroke="#000000" d="M740.628,-1273.0133C678.1751,-1241.4163 778.9005,-904.3824 699.5672,-904.3824"/>
<polygon fill="#000000" stroke="#000000" points="751.1723,-1271.3045 749.4017,-1279.1061 747.8414,-1278.752 749.612,-1270.9504 751.1723,-1271.3045"/>
<polyline fill="none" stroke="#000000" points="751.0672,-1275.3824 747.1664,-1274.4971 "/>
<ellipse fill="none" stroke="#000000" cx="744.0457" cy="-1273.7889" rx="3.2" ry="3.2"/>
</g>
<!-- article_tag -->
<g id="node10" class="node">
<title>article_tag</title>
<g id="a_node10"><a xlink:href="../../tables/article_tag.html" xlink:title="article_tag" target="_top">
<polygon fill="#ffffff" stroke="transparent" points="792.5672,-1078.8824 792.5672,-1205.8824 885.5672,-1205.8824 885.5672,-1078.8824 792.5672,-1078.8824"/>
<polygon fill="#f5f5f5" stroke="transparent" points="793.0672,-1182.3824 793.0672,-1205.3824 886.0672,-1205.3824 886.0672,-1182.3824 793.0672,-1182.3824"/>
<polygon fill="none" stroke="#000000" points="793.0672,-1182.3824 793.0672,-1205.3824 886.0672,-1205.3824 886.0672,-1182.3824 793.0672,-1182.3824"/>
<text text-anchor="start" x="797.7012" y="-1191.4824" font-family="Helvetica,sans-Serif" font-weight="bold" font-size="11.00" fill="#000000">article_tag</text>
<text text-anchor="start" x="851.5891" y="-1190.4824" font-family="Helvetica,sans-Serif" font-size="11.00" fill="#000000">[table]</text>
<polygon fill="none" stroke="#000000" points="793.0672,-1160.3824 793.0672,-1182.3824 886.0672,-1182.3824 886.0672,-1160.3824 793.0672,-1160.3824"/>
<image xlink:href="../../images/primaryKeys.png" width="11px" height="12px" preserveAspectRatio="xMinYMin meet" x="798.067" y="-1177.38"/>
<text text-anchor="start" x="817.0672" y="-1167.4824" font-family="Helvetica,sans-Serif" font-size="11.00" fill="#000000">id</text>
<polygon fill="#ffffff" stroke="transparent" points="793.0672,-1138.3824 793.0672,-1160.3824 886.0672,-1160.3824 886.0672,-1138.3824 793.0672,-1138.3824"/>
<polygon fill="none" stroke="#000000" points="793.0672,-1138.3824 793.0672,-1160.3824 886.0672,-1160.3824 886.0672,-1138.3824 793.0672,-1138.3824"/>
<image xlink:href="../../images/foreignKeys.png" width="11px" height="12px" preserveAspectRatio="xMinYMin meet" x="798.067" y="-1155.38"/>
<text text-anchor="start" x="817.0672" y="-1145.4824" font-family="Helvetica,sans-Serif" font-size="11.00" fill="#000000">article_id</text>
<polygon fill="#ffffff" stroke="transparent" points="793.0672,-1116.3824 793.0672,-1138.3824 886.0672,-1138.3824 886.0672,-1116.3824 793.0672,-1116.3824"/>
<polygon fill="none" stroke="#000000" points="793.0672,-1116.3824 793.0672,-1138.3824 886.0672,-1138.3824 886.0672,-1116.3824 793.0672,-1116.3824"/>
<image xlink:href="../../images/foreignKeys.png" width="11px" height="12px" preserveAspectRatio="xMinYMin meet" x="798.067" y="-1133.38"/>
<text text-anchor="start" x="817.0672" y="-1123.4824" font-family="Helvetica,sans-Serif" font-size="11.00" fill="#000000">tag_id</text>
<polygon fill="none" stroke="#000000" points="793.0672,-1097.3824 793.0672,-1116.3824 886.0672,-1116.3824 886.0672,-1097.3824 793.0672,-1097.3824"/>
<text text-anchor="start" x="796.0672" y="-1103.4824" font-family="Helvetica,sans-Serif" font-size="11.00" fill="#000000">...</text>
<polygon fill="#ffffff" stroke="transparent" points="793.0672,-1078.3824 793.0672,-1097.3824 838.0672,-1097.3824 838.0672,-1078.3824 793.0672,-1078.3824"/>
<polygon fill="none" stroke="#000000" points="793.0672,-1078.3824 793.0672,-1097.3824 838.0672,-1097.3824 838.0672,-1078.3824 793.0672,-1078.3824"/>
<text text-anchor="start" x="796.0672" y="-1084.4824" font-family="Helvetica,sans-Serif" font-size="11.00" fill="#000000">&lt; 2</text>
<polygon fill="#ffffff" stroke="transparent" points="838.0672,-1078.3824 838.0672,-1097.3824 862.0672,-1097.3824 862.0672,-1078.3824 838.0672,-1078.3824"/>
<polygon fill="none" stroke="#000000" points="838.0672,-1078.3824 838.0672,-1097.3824 862.0672,-1097.3824 862.0672,-1078.3824 838.0672,-1078.3824"/>
<text text-anchor="start" x="852.9534" y="-1084.4824" font-family="Helvetica,sans-Serif" font-size="11.00" fill="#000000"> &#160;</text>
<polygon fill="#ffffff" stroke="transparent" points="862.0672,-1078.3824 862.0672,-1097.3824 886.0672,-1097.3824 886.0672,-1078.3824 862.0672,-1078.3824"/>
<polygon fill="none" stroke="#000000" points="862.0672,-1078.3824 862.0672,-1097.3824 886.0672,-1097.3824 886.0672,-1078.3824 862.0672,-1078.3824"/>
<text text-anchor="start" x="876.9534" y="-1084.4824" font-family="Helvetica,sans-Serif" font-size="11.00" fill="#000000"> &#160;</text>
</a>
</g>
</g>
<!-- article_tag&#45;&gt;article -->
<g id="edge13" class="edge">
<title>article_tag:w&#45;&gt;article:e</title>
<path fill="none" stroke="#000000" d="M778.6907,-1147.2634C752.5088,-1138.2696 757.1289,-1102.167 742.5672,-1068.3824 712.7414,-999.1838 774.9199,-904.3824 699.5672,-904.3824"/>
<polygon fill="#000000" stroke="#000000" points="785.1527,-1148.2158 792.5422,-1152.9439 789.11,-1148.7991 793.0672,-1149.3824 793.0672,-1149.3824 793.0672,-1149.3824 789.11,-1148.7991 793.5922,-1145.8209 785.1527,-1148.2158 785.1527,-1148.2158"/>
<ellipse fill="none" stroke="#000000" cx="781.9869" cy="-1147.7492" rx="3.2" ry="3.2"/>
</g>
<!-- collection -->
<g id="node11" class="node">
<title>collection</title>
<g id="a_node11"><a xlink:href="../../tables/collection.html" xlink:title="collection" target="_top">
<polygon fill="#ffffff" stroke="transparent" points="795.0672,-908.8824 795.0672,-1057.8824 883.0672,-1057.8824 883.0672,-908.8824 795.0672,-908.8824"/>
<polygon fill="#f5f5f5" stroke="transparent" points="795.0672,-1034.3824 795.0672,-1057.3824 883.0672,-1057.3824 883.0672,-1034.3824 795.0672,-1034.3824"/>
<polygon fill="none" stroke="#000000" points="795.0672,-1034.3824 795.0672,-1057.3824 883.0672,-1057.3824 883.0672,-1034.3824 795.0672,-1034.3824"/>
<text text-anchor="start" x="799.6476" y="-1043.4824" font-family="Helvetica,sans-Serif" font-weight="bold" font-size="11.00" fill="#000000">collection</text>
<text text-anchor="start" x="848.5891" y="-1042.4824" font-family="Helvetica,sans-Serif" font-size="11.00" fill="#000000">[table]</text>
<polygon fill="none" stroke="#000000" points="795.0672,-1012.3824 795.0672,-1034.3824 883.0672,-1034.3824 883.0672,-1012.3824 795.0672,-1012.3824"/>
<image xlink:href="../../images/primaryKeys.png" width="11px" height="12px" preserveAspectRatio="xMinYMin meet" x="800.067" y="-1029.38"/>
<text text-anchor="start" x="815.0672" y="-1019.4824" font-family="Helvetica,sans-Serif" font-size="11.00" fill="#000000">id</text>
<polygon fill="#ffffff" stroke="transparent" points="795.0672,-990.3824 795.0672,-1012.3824 883.0672,-1012.3824 883.0672,-990.3824 795.0672,-990.3824"/>
<polygon fill="none" stroke="#000000" points="795.0672,-990.3824 795.0672,-1012.3824 883.0672,-1012.3824 883.0672,-990.3824 795.0672,-990.3824"/>
<image xlink:href="../../images/foreignKeys.png" width="11px" height="12px" preserveAspectRatio="xMinYMin meet" x="800.067" y="-1007.38"/>
<text text-anchor="start" x="815.0672" y="-997.4824" font-family="Helvetica,sans-Serif" font-size="11.00" fill="#000000">entrance_id</text>
<polygon fill="#ffffff" stroke="transparent" points="795.0672,-968.3824 795.0672,-990.3824 883.0672,-990.3824 883.0672,-968.3824 795.0672,-968.3824"/>
<polygon fill="none" stroke="#000000" points="795.0672,-968.3824 795.0672,-990.3824 883.0672,-990.3824 883.0672,-968.3824 795.0672,-968.3824"/>
<image xlink:href="../../images/foreignKeys.png" width="11px" height="12px" preserveAspectRatio="xMinYMin meet" x="800.067" y="-985.382"/>
<text text-anchor="start" x="815.0672" y="-975.4824" font-family="Helvetica,sans-Serif" font-size="11.00" fill="#000000">article_id</text>
<polygon fill="#ffffff" stroke="transparent" points="795.0672,-946.3824 795.0672,-968.3824 883.0672,-968.3824 883.0672,-946.3824 795.0672,-946.3824"/>
<polygon fill="none" stroke="#000000" points="795.0672,-946.3824 795.0672,-968.3824 883.0672,-968.3824 883.0672,-946.3824 795.0672,-946.3824"/>
<text text-anchor="start" x="815.0672" y="-953.4824" font-family="Helvetica,sans-Serif" font-size="11.00" fill="#000000">order</text>
<polygon fill="none" stroke="#000000" points="795.0672,-927.3824 795.0672,-946.3824 883.0672,-946.3824 883.0672,-927.3824 795.0672,-927.3824"/>
<text text-anchor="start" x="798.0672" y="-933.4824" font-family="Helvetica,sans-Serif" font-size="11.00" fill="#000000">...</text>
<polygon fill="#ffffff" stroke="transparent" points="795.0672,-908.3824 795.0672,-927.3824 837.0672,-927.3824 837.0672,-908.3824 795.0672,-908.3824"/>
<polygon fill="none" stroke="#000000" points="795.0672,-908.3824 795.0672,-927.3824 837.0672,-927.3824 837.0672,-908.3824 795.0672,-908.3824"/>
<text text-anchor="start" x="798.0672" y="-914.4824" font-family="Helvetica,sans-Serif" font-size="11.00" fill="#000000">&lt; 2</text>
<polygon fill="#ffffff" stroke="transparent" points="837.0672,-908.3824 837.0672,-927.3824 860.0672,-927.3824 860.0672,-908.3824 837.0672,-908.3824"/>
<polygon fill="none" stroke="#000000" points="837.0672,-908.3824 837.0672,-927.3824 860.0672,-927.3824 860.0672,-908.3824 837.0672,-908.3824"/>
<text text-anchor="start" x="850.9534" y="-914.4824" font-family="Helvetica,sans-Serif" font-size="11.00" fill="#000000"> &#160;</text>
<polygon fill="#ffffff" stroke="transparent" points="860.0672,-908.3824 860.0672,-927.3824 883.0672,-927.3824 883.0672,-908.3824 860.0672,-908.3824"/>
<polygon fill="none" stroke="#000000" points="860.0672,-908.3824 860.0672,-927.3824 883.0672,-927.3824 883.0672,-908.3824 860.0672,-908.3824"/>
<text text-anchor="start" x="873.9534" y="-914.4824" font-family="Helvetica,sans-Serif" font-size="11.00" fill="#000000"> &#160;</text>
</a>
</g>
</g>
<!-- collection&#45;&gt;article -->
<g id="edge15" class="edge">
<title>collection:w&#45;&gt;article:e</title>
<path fill="none" stroke="#000000" d="M780.5394,-977.2187C742.9397,-964.9216 748.0549,-904.3824 699.5672,-904.3824"/>
<polygon fill="#000000" stroke="#000000" points="787.1545,-978.2039 794.5369,-982.9431 791.1108,-978.7931 795.0672,-979.3824 795.0672,-979.3824 795.0672,-979.3824 791.1108,-978.7931 795.5975,-975.8217 787.1545,-978.2039 787.1545,-978.2039"/>
<ellipse fill="none" stroke="#000000" cx="783.9894" cy="-977.7324" rx="3.2" ry="3.2"/>
</g>
<!-- collection&#45;&gt;article -->
<g id="edge16" class="edge">
<title>collection:w&#45;&gt;article:e</title>
<path fill="none" stroke="#000000" d="M780.7186,-999.1742C738.4559,-984.7357 754.6305,-904.3824 699.5672,-904.3824"/>
<polygon fill="#000000" stroke="#000000" points="787.1603,-1000.1655 794.5196,-1004.9405 791.1137,-1000.7739 795.0672,-1001.3824 795.0672,-1001.3824 795.0672,-1001.3824 791.1137,-1000.7739 795.6148,-997.8243 787.1603,-1000.1655 787.1603,-1000.1655"/>
<ellipse fill="none" stroke="#000000" cx="783.9975" cy="-999.6787" rx="3.2" ry="3.2"/>
</g>
<!-- comment -->
<g id="node12" class="node">
<title>comment</title>
<g id="a_node12"><a xlink:href="../../tables/comment.html" xlink:title="comment" target="_top">
<polygon fill="#ffffff" stroke="transparent" points="771.5672,-74.8824 771.5672,-289.8824 906.5672,-289.8824 906.5672,-74.8824 771.5672,-74.8824"/>
<polygon fill="#f5f5f5" stroke="transparent" points="772.0672,-266.3824 772.0672,-289.3824 907.0672,-289.3824 907.0672,-266.3824 772.0672,-266.3824"/>
<polygon fill="none" stroke="#000000" points="772.0672,-266.3824 772.0672,-289.3824 907.0672,-289.3824 907.0672,-266.3824 772.0672,-266.3824"/>
<text text-anchor="start" x="777.0672" y="-275.4824" font-family="Helvetica,sans-Serif" font-weight="bold" font-size="11.00" fill="#000000">comment</text>
<text text-anchor="start" x="872.1109" y="-274.4824" font-family="Helvetica,sans-Serif" font-size="11.00" fill="#000000">[table]</text>
<polygon fill="none" stroke="#000000" points="772.0672,-244.3824 772.0672,-266.3824 907.0672,-266.3824 907.0672,-244.3824 772.0672,-244.3824"/>
<image xlink:href="../../images/primaryKeys.png" width="11px" height="12px" preserveAspectRatio="xMinYMin meet" x="777.067" y="-261.382"/>
<text text-anchor="start" x="792.0672" y="-251.4824" font-family="Helvetica,sans-Serif" font-size="11.00" fill="#000000">id</text>
<polygon fill="#ffffff" stroke="transparent" points="772.0672,-222.3824 772.0672,-244.3824 907.0672,-244.3824 907.0672,-222.3824 772.0672,-222.3824"/>
<polygon fill="none" stroke="#000000" points="772.0672,-222.3824 772.0672,-244.3824 907.0672,-244.3824 907.0672,-222.3824 772.0672,-222.3824"/>
<text text-anchor="start" x="792.0672" y="-229.4824" font-family="Helvetica,sans-Serif" font-size="11.00" fill="#000000">uuid</text>
<polygon fill="#ffffff" stroke="transparent" points="772.0672,-200.3824 772.0672,-222.3824 907.0672,-222.3824 907.0672,-200.3824 772.0672,-200.3824"/>
<polygon fill="none" stroke="#000000" points="772.0672,-200.3824 772.0672,-222.3824 907.0672,-222.3824 907.0672,-200.3824 772.0672,-200.3824"/>
<image xlink:href="../../images/foreignKeys.png" width="11px" height="12px" preserveAspectRatio="xMinYMin meet" x="777.067" y="-217.382"/>
<text text-anchor="start" x="792.0672" y="-207.4824" font-family="Helvetica,sans-Serif" font-size="11.00" fill="#000000">author_id</text>
<polygon fill="#ffffff" stroke="transparent" points="772.0672,-178.3824 772.0672,-200.3824 907.0672,-200.3824 907.0672,-178.3824 772.0672,-178.3824"/>
<polygon fill="none" stroke="#000000" points="772.0672,-178.3824 772.0672,-200.3824 907.0672,-200.3824 907.0672,-178.3824 772.0672,-178.3824"/>
<image xlink:href="../../images/foreignKeys.png" width="11px" height="12px" preserveAspectRatio="xMinYMin meet" x="777.067" y="-195.382"/>
<text text-anchor="start" x="792.0672" y="-185.4824" font-family="Helvetica,sans-Serif" font-size="11.00" fill="#000000">article_id</text>
<polygon fill="#ffffff" stroke="transparent" points="772.0672,-156.3824 772.0672,-178.3824 907.0672,-178.3824 907.0672,-156.3824 772.0672,-156.3824"/>
<polygon fill="none" stroke="#000000" points="772.0672,-156.3824 772.0672,-178.3824 907.0672,-178.3824 907.0672,-156.3824 772.0672,-156.3824"/>
<image xlink:href="../../images/foreignKeys.png" width="11px" height="12px" preserveAspectRatio="xMinYMin meet" x="777.067" y="-173.382"/>
<text text-anchor="start" x="792.0672" y="-163.4824" font-family="Helvetica,sans-Serif" font-size="11.00" fill="#000000">parent_comment_id</text>
<polygon fill="#ffffff" stroke="transparent" points="772.0672,-134.3824 772.0672,-156.3824 907.0672,-156.3824 907.0672,-134.3824 772.0672,-134.3824"/>
<polygon fill="none" stroke="#000000" points="772.0672,-134.3824 772.0672,-156.3824 907.0672,-156.3824 907.0672,-134.3824 772.0672,-134.3824"/>
<text text-anchor="start" x="792.0672" y="-141.4824" font-family="Helvetica,sans-Serif" font-size="11.00" fill="#000000">state</text>
<polygon fill="none" stroke="#000000" points="772.0672,-112.3824 772.0672,-134.3824 907.0672,-134.3824 907.0672,-112.3824 772.0672,-112.3824"/>
<image xlink:href="../../images/foreignKeys.png" width="11px" height="12px" preserveAspectRatio="xMinYMin meet" x="777.067" y="-129.382"/>
<text text-anchor="start" x="792.0672" y="-119.4824" font-family="Helvetica,sans-Serif" font-size="11.00" fill="#000000">reply_to</text>
<polygon fill="none" stroke="#000000" points="772.0672,-93.3824 772.0672,-112.3824 907.0672,-112.3824 907.0672,-93.3824 772.0672,-93.3824"/>
<text text-anchor="start" x="775.0672" y="-99.4824" font-family="Helvetica,sans-Serif" font-size="11.00" fill="#000000">...</text>
<polygon fill="#ffffff" stroke="transparent" points="772.0672,-74.3824 772.0672,-93.3824 833.0672,-93.3824 833.0672,-74.3824 772.0672,-74.3824"/>
<polygon fill="none" stroke="#000000" points="772.0672,-74.3824 772.0672,-93.3824 833.0672,-93.3824 833.0672,-74.3824 772.0672,-74.3824"/>
<text text-anchor="start" x="775.0672" y="-80.4824" font-family="Helvetica,sans-Serif" font-size="11.00" fill="#000000">&lt; 4</text>
<polygon fill="#ffffff" stroke="transparent" points="833.0672,-74.3824 833.0672,-93.3824 865.0672,-93.3824 865.0672,-74.3824 833.0672,-74.3824"/>
<polygon fill="none" stroke="#000000" points="833.0672,-74.3824 833.0672,-93.3824 865.0672,-93.3824 865.0672,-74.3824 833.0672,-74.3824"/>
<text text-anchor="start" x="855.9534" y="-80.4824" font-family="Helvetica,sans-Serif" font-size="11.00" fill="#000000"> &#160;</text>
<polygon fill="#ffffff" stroke="transparent" points="865.0672,-74.3824 865.0672,-93.3824 907.0672,-93.3824 907.0672,-74.3824 865.0672,-74.3824"/>
<polygon fill="none" stroke="#000000" points="865.0672,-74.3824 865.0672,-93.3824 907.0672,-93.3824 907.0672,-74.3824 865.0672,-74.3824"/>
<text text-anchor="start" x="888.4725" y="-80.4824" font-family="Helvetica,sans-Serif" font-size="11.00" fill="#000000">5 &gt;</text>
</a>
</g>
</g>
<!-- comment&#45;&gt;article -->
<g id="edge17" class="edge">
<title>comment:w&#45;&gt;article:e</title>
<path fill="none" stroke="#000000" d="M759.3259,-196.9284C702.1628,-273.3433 774.5842,-904.3824 699.5672,-904.3824"/>
<polygon fill="#000000" stroke="#000000" points="765.1838,-193.4591 773.9017,-192.4799 768.6255,-191.4207 772.0672,-189.3824 772.0672,-189.3824 772.0672,-189.3824 768.6255,-191.4207 770.2327,-186.2849 765.1838,-193.4591 765.1838,-193.4591"/>
<ellipse fill="none" stroke="#000000" cx="762.4305" cy="-195.0898" rx="3.2" ry="3.2"/>
</g>
<!-- comment&#45;&gt;user -->
<g id="edge18" class="edge">
<title>comment:w&#45;&gt;user:e</title>
<path fill="none" stroke="#000000" d="M757.6011,-211.4316C571.8147,-212.7318 503.0075,-240.3811 356.5672,-364.3824 328.843,-387.8584 352.3956,-435.3824 316.0672,-435.3824"/>
<polygon fill="#000000" stroke="#000000" points="764.0672,-211.4097 772.0795,-214.9824 768.0672,-211.396 772.0672,-211.3824 772.0672,-211.3824 772.0672,-211.3824 768.0672,-211.396 772.0549,-207.7824 764.0672,-211.4097 764.0672,-211.4097"/>
<ellipse fill="none" stroke="#000000" cx="760.8673" cy="-211.4206" rx="3.2" ry="3.2"/>
</g>
<!-- matters_choice -->
<g id="node13" class="node">
<title>matters_choice</title>
<g id="a_node13"><a xlink:href="../../tables/matters_choice.html" xlink:title="matters_choice" target="_top">
<polygon fill="#ffffff" stroke="transparent" points="780.5672,-782.8824 780.5672,-887.8824 897.5672,-887.8824 897.5672,-782.8824 780.5672,-782.8824"/>
<polygon fill="#f5f5f5" stroke="transparent" points="781.0672,-864.3824 781.0672,-887.3824 898.0672,-887.3824 898.0672,-864.3824 781.0672,-864.3824"/>
<polygon fill="none" stroke="#000000" points="781.0672,-864.3824 781.0672,-887.3824 898.0672,-887.3824 898.0672,-864.3824 781.0672,-864.3824"/>
<text text-anchor="start" x="785.7833" y="-873.4824" font-family="Helvetica,sans-Serif" font-weight="bold" font-size="11.00" fill="#000000">matters_choice</text>
<text text-anchor="start" x="863.5891" y="-872.4824" font-family="Helvetica,sans-Serif" font-size="11.00" fill="#000000">[table]</text>
<polygon fill="none" stroke="#000000" points="781.0672,-842.3824 781.0672,-864.3824 898.0672,-864.3824 898.0672,-842.3824 781.0672,-842.3824"/>
<image xlink:href="../../images/primaryKeys.png" width="11px" height="12px" preserveAspectRatio="xMinYMin meet" x="786.067" y="-859.382"/>
<text text-anchor="start" x="805.0672" y="-849.4824" font-family="Helvetica,sans-Serif" font-size="11.00" fill="#000000">id</text>
<polygon fill="none" stroke="#000000" points="781.0672,-820.3824 781.0672,-842.3824 898.0672,-842.3824 898.0672,-820.3824 781.0672,-820.3824"/>
<image xlink:href="../../images/foreignKeys.png" width="11px" height="12px" preserveAspectRatio="xMinYMin meet" x="786.067" y="-837.382"/>
<text text-anchor="start" x="805.0672" y="-827.4824" font-family="Helvetica,sans-Serif" font-size="11.00" fill="#000000">article_id</text>
<polygon fill="none" stroke="#000000" points="781.0672,-801.3824 781.0672,-820.3824 898.0672,-820.3824 898.0672,-801.3824 781.0672,-801.3824"/>
<text text-anchor="start" x="784.0672" y="-807.4824" font-family="Helvetica,sans-Serif" font-size="11.00" fill="#000000">...</text>
<polygon fill="#ffffff" stroke="transparent" points="781.0672,-782.3824 781.0672,-801.3824 838.0672,-801.3824 838.0672,-782.3824 781.0672,-782.3824"/>
<polygon fill="none" stroke="#000000" points="781.0672,-782.3824 781.0672,-801.3824 838.0672,-801.3824 838.0672,-782.3824 781.0672,-782.3824"/>
<text text-anchor="start" x="784.0672" y="-788.4824" font-family="Helvetica,sans-Serif" font-size="11.00" fill="#000000">&lt; 1</text>
<polygon fill="#ffffff" stroke="transparent" points="838.0672,-782.3824 838.0672,-801.3824 868.0672,-801.3824 868.0672,-782.3824 838.0672,-782.3824"/>
<polygon fill="none" stroke="#000000" points="838.0672,-782.3824 838.0672,-801.3824 868.0672,-801.3824 868.0672,-782.3824 838.0672,-782.3824"/>
<text text-anchor="start" x="858.9534" y="-788.4824" font-family="Helvetica,sans-Serif" font-size="11.00" fill="#000000"> &#160;</text>
<polygon fill="#ffffff" stroke="transparent" points="868.0672,-782.3824 868.0672,-801.3824 898.0672,-801.3824 898.0672,-782.3824 868.0672,-782.3824"/>
<polygon fill="none" stroke="#000000" points="868.0672,-782.3824 868.0672,-801.3824 898.0672,-801.3824 898.0672,-782.3824 868.0672,-782.3824"/>
<text text-anchor="start" x="888.9534" y="-788.4824" font-family="Helvetica,sans-Serif" font-size="11.00" fill="#000000"> &#160;</text>
</a>
</g>
</g>
<!-- matters_choice&#45;&gt;article -->
<g id="edge22" class="edge">
<title>matters_choice:w&#45;&gt;article:e</title>
<path fill="none" stroke="#000000" d="M766.8327,-833.9805C735.1826,-846.9847 742.6866,-904.3824 699.5672,-904.3824"/>
<polygon fill="#000000" stroke="#000000" points="773.1972,-832.8189 781.7136,-834.9239 777.1322,-832.1006 781.0672,-831.3824 781.0672,-831.3824 781.0672,-831.3824 777.1322,-832.1006 780.4208,-827.8409 773.1972,-832.8189 773.1972,-832.8189"/>
<ellipse fill="none" stroke="#000000" cx="770.0492" cy="-833.3935" rx="3.2" ry="3.2"/>
</g>
<!-- matters_today -->
<g id="node14" class="node">
<title>matters_today</title>
<g id="a_node14"><a xlink:href="../../tables/matters_today.html" xlink:title="matters_today" target="_top">
<polygon fill="#ffffff" stroke="transparent" points="783.0672,-656.8824 783.0672,-761.8824 895.0672,-761.8824 895.0672,-656.8824 783.0672,-656.8824"/>
<polygon fill="#f5f5f5" stroke="transparent" points="783.0672,-738.3824 783.0672,-761.3824 895.0672,-761.3824 895.0672,-738.3824 783.0672,-738.3824"/>
<polygon fill="none" stroke="#000000" points="783.0672,-738.3824 783.0672,-761.3824 895.0672,-761.3824 895.0672,-738.3824 783.0672,-738.3824"/>
<text text-anchor="start" x="787.7253" y="-747.4824" font-family="Helvetica,sans-Serif" font-weight="bold" font-size="11.00" fill="#000000">matters_today</text>
<text text-anchor="start" x="860.5891" y="-746.4824" font-family="Helvetica,sans-Serif" font-size="11.00" fill="#000000">[table]</text>
<polygon fill="none" stroke="#000000" points="783.0672,-716.3824 783.0672,-738.3824 895.0672,-738.3824 895.0672,-716.3824 783.0672,-716.3824"/>
<image xlink:href="../../images/primaryKeys.png" width="11px" height="12px" preserveAspectRatio="xMinYMin meet" x="788.067" y="-733.382"/>
<text text-anchor="start" x="808.0672" y="-723.4824" font-family="Helvetica,sans-Serif" font-size="11.00" fill="#000000">id</text>
<polygon fill="none" stroke="#000000" points="783.0672,-694.3824 783.0672,-716.3824 895.0672,-716.3824 895.0672,-694.3824 783.0672,-694.3824"/>
<image xlink:href="../../images/foreignKeys.png" width="11px" height="12px" preserveAspectRatio="xMinYMin meet" x="788.067" y="-711.382"/>
<text text-anchor="start" x="808.0672" y="-701.4824" font-family="Helvetica,sans-Serif" font-size="11.00" fill="#000000">article_id</text>
<polygon fill="none" stroke="#000000" points="783.0672,-675.3824 783.0672,-694.3824 895.0672,-694.3824 895.0672,-675.3824 783.0672,-675.3824"/>
<text text-anchor="start" x="786.0672" y="-681.4824" font-family="Helvetica,sans-Serif" font-size="11.00" fill="#000000">...</text>
<polygon fill="#ffffff" stroke="transparent" points="783.0672,-656.3824 783.0672,-675.3824 837.0672,-675.3824 837.0672,-656.3824 783.0672,-656.3824"/>
<polygon fill="none" stroke="#000000" points="783.0672,-656.3824 783.0672,-675.3824 837.0672,-675.3824 837.0672,-656.3824 783.0672,-656.3824"/>
<text text-anchor="start" x="786.0672" y="-662.4824" font-family="Helvetica,sans-Serif" font-size="11.00" fill="#000000">&lt; 1</text>
<polygon fill="#ffffff" stroke="transparent" points="837.0672,-656.3824 837.0672,-675.3824 866.0672,-675.3824 866.0672,-656.3824 837.0672,-656.3824"/>
<polygon fill="none" stroke="#000000" points="837.0672,-656.3824 837.0672,-675.3824 866.0672,-675.3824 866.0672,-656.3824 837.0672,-656.3824"/>
<text text-anchor="start" x="856.9534" y="-662.4824" font-family="Helvetica,sans-Serif" font-size="11.00" fill="#000000"> &#160;</text>
<polygon fill="#ffffff" stroke="transparent" points="866.0672,-656.3824 866.0672,-675.3824 895.0672,-675.3824 895.0672,-656.3824 866.0672,-656.3824"/>
<polygon fill="none" stroke="#000000" points="866.0672,-656.3824 866.0672,-675.3824 895.0672,-675.3824 895.0672,-656.3824 866.0672,-656.3824"/>
<text text-anchor="start" x="885.9534" y="-662.4824" font-family="Helvetica,sans-Serif" font-size="11.00" fill="#000000"> &#160;</text>
</a>
</g>
</g>
<!-- matters_today&#45;&gt;article -->
<g id="edge23" class="edge">
<title>matters_today:w&#45;&gt;article:e</title>
<path fill="none" stroke="#000000" d="M768.905,-708.1902C750.5647,-717.1568 754.6178,-746.0588 742.5672,-772.3824 716.8845,-828.4842 761.2682,-904.3824 699.5672,-904.3824"/>
<polygon fill="#000000" stroke="#000000" points="775.2199,-706.9383 783.7673,-708.9137 779.1436,-706.1603 783.0672,-705.3824 783.0672,-705.3824 783.0672,-705.3824 779.1436,-706.1603 782.3671,-701.8511 775.2199,-706.9383 775.2199,-706.9383"/>
<ellipse fill="none" stroke="#000000" cx="772.081" cy="-707.5606" rx="3.2" ry="3.2"/>
</g>
<!-- report -->
<g id="node15" class="node">
<title>report</title>
<g id="a_node15"><a xlink:href="../../tables/report.html" xlink:title="report" target="_top">
<polygon fill="#ffffff" stroke="transparent" points="976.5672,-206.8824 976.5672,-355.8824 1067.5672,-355.8824 1067.5672,-206.8824 976.5672,-206.8824"/>
<polygon fill="#f5f5f5" stroke="transparent" points="977.0672,-332.3824 977.0672,-355.3824 1068.0672,-355.3824 1068.0672,-332.3824 977.0672,-332.3824"/>
<polygon fill="none" stroke="#000000" points="977.0672,-332.3824 977.0672,-355.3824 1068.0672,-355.3824 1068.0672,-332.3824 977.0672,-332.3824"/>
<text text-anchor="start" x="982.0672" y="-341.4824" font-family="Helvetica,sans-Serif" font-weight="bold" font-size="11.00" fill="#000000">report</text>
<text text-anchor="start" x="1033.1109" y="-340.4824" font-family="Helvetica,sans-Serif" font-size="11.00" fill="#000000">[table]</text>
<polygon fill="none" stroke="#000000" points="977.0672,-310.3824 977.0672,-332.3824 1068.0672,-332.3824 1068.0672,-310.3824 977.0672,-310.3824"/>
<image xlink:href="../../images/primaryKeys.png" width="11px" height="12px" preserveAspectRatio="xMinYMin meet" x="982.067" y="-327.382"/>
<text text-anchor="start" x="997.0672" y="-317.4824" font-family="Helvetica,sans-Serif" font-size="11.00" fill="#000000">id</text>
<polygon fill="none" stroke="#000000" points="977.0672,-288.3824 977.0672,-310.3824 1068.0672,-310.3824 1068.0672,-288.3824 977.0672,-288.3824"/>
<image xlink:href="../../images/foreignKeys.png" width="11px" height="12px" preserveAspectRatio="xMinYMin meet" x="982.067" y="-305.382"/>
<text text-anchor="start" x="997.0672" y="-295.4824" font-family="Helvetica,sans-Serif" font-size="11.00" fill="#000000">user_id</text>
<polygon fill="none" stroke="#000000" points="977.0672,-266.3824 977.0672,-288.3824 1068.0672,-288.3824 1068.0672,-266.3824 977.0672,-266.3824"/>
<image xlink:href="../../images/foreignKeys.png" width="11px" height="12px" preserveAspectRatio="xMinYMin meet" x="982.067" y="-283.382"/>
<text text-anchor="start" x="997.0672" y="-273.4824" font-family="Helvetica,sans-Serif" font-size="11.00" fill="#000000">article_id</text>
<polygon fill="none" stroke="#000000" points="977.0672,-244.3824 977.0672,-266.3824 1068.0672,-266.3824 1068.0672,-244.3824 977.0672,-244.3824"/>
<image xlink:href="../../images/foreignKeys.png" width="11px" height="12px" preserveAspectRatio="xMinYMin meet" x="982.067" y="-261.382"/>
<text text-anchor="start" x="997.0672" y="-251.4824" font-family="Helvetica,sans-Serif" font-size="11.00" fill="#000000">comment_id</text>
<polygon fill="none" stroke="#000000" points="977.0672,-225.3824 977.0672,-244.3824 1068.0672,-244.3824 1068.0672,-225.3824 977.0672,-225.3824"/>
<text text-anchor="start" x="980.0672" y="-231.4824" font-family="Helvetica,sans-Serif" font-size="11.00" fill="#000000">...</text>
<polygon fill="#ffffff" stroke="transparent" points="977.0672,-206.3824 977.0672,-225.3824 1016.0672,-225.3824 1016.0672,-206.3824 977.0672,-206.3824"/>
<polygon fill="none" stroke="#000000" points="977.0672,-206.3824 977.0672,-225.3824 1016.0672,-225.3824 1016.0672,-206.3824 977.0672,-206.3824"/>
<text text-anchor="start" x="980.0672" y="-212.4824" font-family="Helvetica,sans-Serif" font-size="11.00" fill="#000000">&lt; 3</text>
<polygon fill="#ffffff" stroke="transparent" points="1016.0672,-206.3824 1016.0672,-225.3824 1037.0672,-225.3824 1037.0672,-206.3824 1016.0672,-206.3824"/>
<polygon fill="none" stroke="#000000" points="1016.0672,-206.3824 1016.0672,-225.3824 1037.0672,-225.3824 1037.0672,-206.3824 1016.0672,-206.3824"/>
<text text-anchor="start" x="1027.9534" y="-212.4824" font-family="Helvetica,sans-Serif" font-size="11.00" fill="#000000"> &#160;</text>
<polygon fill="#ffffff" stroke="transparent" points="1037.0672,-206.3824 1037.0672,-225.3824 1068.0672,-225.3824 1068.0672,-206.3824 1037.0672,-206.3824"/>
<polygon fill="none" stroke="#000000" points="1037.0672,-206.3824 1037.0672,-225.3824 1068.0672,-225.3824 1068.0672,-206.3824 1037.0672,-206.3824"/>
<text text-anchor="start" x="1049.4725" y="-212.4824" font-family="Helvetica,sans-Serif" font-size="11.00" fill="#000000">1 &gt;</text>
</a>
</g>
</g>
<!-- report&#45;&gt;article -->
<g id="edge24" class="edge">
<title>report:w&#45;&gt;article:e</title>
<path fill="none" stroke="#000000" d="M962.9798,-281.6739C912.7376,-317.5663 985.0664,-567.7331 935.5672,-618.3824 874.986,-680.3712 804.4987,-585.7426 742.5672,-646.3824 701.0364,-687.047 757.6914,-904.3824 699.5672,-904.3824"/>
<polygon fill="#000000" stroke="#000000" points="969.4144,-279.7137 978.1163,-280.8261 973.2408,-278.5481 977.0672,-277.3824 977.0672,-277.3824 977.0672,-277.3824 973.2408,-278.5481 976.0181,-273.9386 969.4144,-279.7137 969.4144,-279.7137"/>
<ellipse fill="none" stroke="#000000" cx="966.3533" cy="-280.6463" rx="3.2" ry="3.2"/>
</g>
<!-- report&#45;&gt;user -->
<g id="edge26" class="edge">
<title>report:w&#45;&gt;user:e</title>
<path fill="none" stroke="#000000" d="M962.3192,-298.0295C885.7543,-282.0608 1012.5382,-128.9516 935.5672,-64.3824 869.8504,-9.2541 825.6545,-43.0673 742.5672,-64.3824 552.9792,-113.019 476.4133,-121.6373 356.5672,-276.3824 311.9155,-334.0366 388.9903,-435.3824 316.0672,-435.3824"/>
<polygon fill="#000000" stroke="#000000" points="969.1007,-298.6515 976.7383,-302.9673 973.0839,-299.017 977.0672,-299.3824 977.0672,-299.3824 977.0672,-299.3824 973.0839,-299.017 977.3961,-295.7974 969.1007,-298.6515 969.1007,-298.6515"/>
<ellipse fill="none" stroke="#000000" cx="965.914" cy="-298.3592" rx="3.2" ry="3.2"/>
</g>
<!-- report&#45;&gt;comment -->
<g id="edge25" class="edge">
<title>report:w&#45;&gt;comment:e</title>
<path fill="none" stroke="#000000" d="M962.5704,-255.3824C942.5007,-255.3824 932.7096,-255.3824 907.0672,-255.3824"/>
<polygon fill="#000000" stroke="#000000" points="969.0672,-255.3825 977.0672,-258.9824 973.0672,-255.3824 977.0672,-255.3824 977.0672,-255.3824 977.0672,-255.3824 973.0672,-255.3824 977.0672,-251.7824 969.0672,-255.3825 969.0672,-255.3825"/>
<ellipse fill="none" stroke="#000000" cx="965.8672" cy="-255.3825" rx="3.2" ry="3.2"/>
</g>
</g>
</svg>
