<?xml version="1.0" encoding="UTF-8" standalone="no"?>
<!DOCTYPE svg PUBLIC "-//W3C//DTD SVG 1.1//EN"
 "http://www.w3.org/Graphics/SVG/1.1/DTD/svg11.dtd">
<!-- Generated by graphviz version 2.40.1 (20161225.0304)
 -->
<!-- Title: oneDegreeRelationshipsDiagram Pages: 1 -->
<svg width="346pt" height="413pt"
 viewBox="0.00 0.00 346.00 413.20" xmlns="http://www.w3.org/2000/svg" xmlns:xlink="http://www.w3.org/1999/xlink">
<g id="graph0" class="graph" transform="scale(1 1) rotate(0) translate(4 409.2)">
<title>oneDegreeRelationshipsDiagram</title>
<polygon fill="#ffffff" stroke="transparent" points="-4,4 -4,-409.2 342,-409.2 342,4 -4,4"/>
<text text-anchor="middle" x="72.4936" y="-7.3" font-family="Helvetica,sans-Serif" font-size="11.00" fill="#000000">Generated by SchemaSpy</text>
<!-- article_tag -->
<g id="node1" class="node">
<title>article_tag</title>
<g id="a_node1"><a xlink:href="../../tables/article_tag.html" xlink:title="article_tag" target="_top">
<polygon fill="#ffffff" stroke="transparent" points="149,-106.7 149,-306.7 330,-306.7 330,-106.7 149,-106.7"/>
<polygon fill="#f5f5f5" stroke="transparent" points="151.5,-281.7 151.5,-304.7 328.5,-304.7 328.5,-281.7 151.5,-281.7"/>
<polygon fill="none" stroke="#000000" points="151.5,-281.7 151.5,-304.7 328.5,-304.7 328.5,-281.7 151.5,-281.7"/>
<text text-anchor="start" x="156.5" y="-290.8" font-family="Helvetica,sans-Serif" font-weight="bold" font-size="11.00" fill="#000000">article_tag</text>
<text text-anchor="start" x="293.5437" y="-289.8" font-family="Helvetica,sans-Serif" font-size="11.00" fill="#000000">[table]</text>
<polygon fill="none" stroke="#000000" points="151.5,-259.7 151.5,-281.7 236.5,-281.7 236.5,-259.7 151.5,-259.7"/>
<image xlink:href="../../images/primaryKeys.png" width="11px" height="12px" preserveAspectRatio="xMinYMin meet" x="156.5" y="-276.7"/>
<text text-anchor="start" x="171.5" y="-266.8" font-family="Helvetica,sans-Serif" font-size="11.00" fill="#000000">id</text>
<polygon fill="none" stroke="#000000" points="236.5,-259.7 236.5,-281.7 328.5,-281.7 328.5,-259.7 236.5,-259.7"/>
<text text-anchor="start" x="239.5" y="-267.4" font-family="Helvetica,sans-Serif" font-size="11.00" fill="#000000">bigserial[19]</text>
<polygon fill="#ffffff" stroke="transparent" points="151.5,-237.7 151.5,-259.7 236.5,-259.7 236.5,-237.7 151.5,-237.7"/>
<polygon fill="none" stroke="#000000" points="151.5,-237.7 151.5,-259.7 236.5,-259.7 236.5,-237.7 151.5,-237.7"/>
<image xlink:href="../../images/foreignKeys.png" width="11px" height="12px" preserveAspectRatio="xMinYMin meet" x="156.5" y="-254.7"/>
<text text-anchor="start" x="171.5" y="-244.8" font-family="Helvetica,sans-Serif" font-size="11.00" fill="#000000">article_id</text>
<polygon fill="none" stroke="#000000" points="236.5,-237.7 236.5,-259.7 328.5,-259.7 328.5,-237.7 236.5,-237.7"/>
<text text-anchor="start" x="239.5" y="-245.4" font-family="Helvetica,sans-Serif" font-size="11.00" fill="#000000">int8[19]</text>
<polygon fill="#ffffff" stroke="transparent" points="151.5,-215.7 151.5,-237.7 236.5,-237.7 236.5,-215.7 151.5,-215.7"/>
<polygon fill="none" stroke="#000000" points="151.5,-215.7 151.5,-237.7 236.5,-237.7 236.5,-215.7 151.5,-215.7"/>
<image xlink:href="../../images/foreignKeys.png" width="11px" height="12px" preserveAspectRatio="xMinYMin meet" x="156.5" y="-232.7"/>
<text text-anchor="start" x="171.5" y="-222.8" font-family="Helvetica,sans-Serif" font-size="11.00" fill="#000000">tag_id</text>
<polygon fill="none" stroke="#000000" points="236.5,-215.7 236.5,-237.7 328.5,-237.7 328.5,-215.7 236.5,-215.7"/>
<text text-anchor="start" x="239.5" y="-223.4" font-family="Helvetica,sans-Serif" font-size="11.00" fill="#000000">int8[19]</text>
<polygon fill="none" stroke="#000000" points="151.5,-193.7 151.5,-215.7 236.5,-215.7 236.5,-193.7 151.5,-193.7"/>
<text text-anchor="start" x="171.5" y="-200.8" font-family="Helvetica,sans-Serif" font-size="11.00" fill="#000000">created_at</text>
<polygon fill="none" stroke="#000000" points="236.5,-193.7 236.5,-215.7 328.5,-215.7 328.5,-193.7 236.5,-193.7"/>
<text text-anchor="start" x="239.1023" y="-201.4" font-family="Helvetica,sans-Serif" font-size="11.00" fill="#000000">timestamptz[35,6]</text>
<polygon fill="none" stroke="#000000" points="151.5,-171.7 151.5,-193.7 236.5,-193.7 236.5,-171.7 151.5,-171.7"/>
<text text-anchor="start" x="171.5" y="-178.8" font-family="Helvetica,sans-Serif" font-size="11.00" fill="#000000">updated_at</text>
<polygon fill="none" stroke="#000000" points="236.5,-171.7 236.5,-193.7 328.5,-193.7 328.5,-171.7 236.5,-171.7"/>
<text text-anchor="start" x="239.1023" y="-179.4" font-family="Helvetica,sans-Serif" font-size="11.00" fill="#000000">timestamptz[35,6]</text>
<polygon fill="none" stroke="#000000" points="151.5,-149.7 151.5,-171.7 236.5,-171.7 236.5,-149.7 151.5,-149.7"/>
<text text-anchor="start" x="171.5" y="-156.8" font-family="Helvetica,sans-Serif" font-size="11.00" fill="#000000">selected</text>
<polygon fill="none" stroke="#000000" points="236.5,-149.7 236.5,-171.7 328.5,-171.7 328.5,-149.7 236.5,-149.7"/>
<text text-anchor="start" x="239.5" y="-157.4" font-family="Helvetica,sans-Serif" font-size="11.00" fill="#000000">bool[1]</text>
<polygon fill="none" stroke="#000000" points="151.5,-127.7 151.5,-149.7 236.5,-149.7 236.5,-127.7 151.5,-127.7"/>
<text text-anchor="start" x="171.5" y="-134.8" font-family="Helvetica,sans-Serif" font-size="11.00" fill="#000000">creator</text>
<polygon fill="none" stroke="#000000" points="236.5,-127.7 236.5,-149.7 328.5,-149.7 328.5,-127.7 236.5,-127.7"/>
<text text-anchor="start" x="239.5" y="-135.4" font-family="Helvetica,sans-Serif" font-size="11.00" fill="#000000">int8[19]</text>
<polygon fill="#ffffff" stroke="transparent" points="151.5,-108.7 151.5,-127.7 198.5,-127.7 198.5,-108.7 151.5,-108.7"/>
<polygon fill="none" stroke="#000000" points="151.5,-108.7 151.5,-127.7 198.5,-127.7 198.5,-108.7 151.5,-108.7"/>
<text text-anchor="start" x="154.5" y="-114.8" font-family="Helvetica,sans-Serif" font-size="11.00" fill="#000000">&lt; 2</text>
<polygon fill="#ffffff" stroke="transparent" points="198.5,-108.7 198.5,-127.7 236.5,-127.7 236.5,-108.7 198.5,-108.7"/>
<polygon fill="none" stroke="#000000" points="198.5,-108.7 198.5,-127.7 236.5,-127.7 236.5,-108.7 198.5,-108.7"/>
<text text-anchor="start" x="227.3862" y="-114.8" font-family="Helvetica,sans-Serif" font-size="11.00" fill="#000000"> &#160;</text>
<polygon fill="#ffffff" stroke="transparent" points="236.5,-108.7 236.5,-127.7 328.5,-127.7 328.5,-108.7 236.5,-108.7"/>
<polygon fill="none" stroke="#000000" points="236.5,-108.7 236.5,-127.7 328.5,-127.7 328.5,-108.7 236.5,-108.7"/>
<text text-anchor="start" x="309.9053" y="-114.8" font-family="Helvetica,sans-Serif" font-size="11.00" fill="#000000">0 &gt;</text>
<polygon fill="none" stroke="#000000" stroke-width="2" points="150,-107.7 150,-305.7 329,-305.7 329,-107.7 150,-107.7"/>
</a>
</g>
</g>
<!-- article -->
<g id="node2" class="node">
<title>article</title>
<g id="a_node2"><a xlink:href="../../tables/article.html" xlink:title="article" target="_top">
<polygon fill="#ffffff" stroke="transparent" points="8,-164.2 8,-401.2 100,-401.2 100,-164.2 8,-164.2"/>
<polygon fill="#f5f5f5" stroke="transparent" points="8,-377.7 8,-400.7 100,-400.7 100,-377.7 8,-377.7"/>
<polygon fill="none" stroke="#000000" points="8,-377.7 8,-400.7 100,-400.7 100,-377.7 8,-377.7"/>
<text text-anchor="start" x="13" y="-386.8" font-family="Helvetica,sans-Serif" font-weight="bold" font-size="11.00" fill="#000000">article</text>
<text text-anchor="start" x="65.0437" y="-385.8" font-family="Helvetica,sans-Serif" font-size="11.00" fill="#000000">[table]</text>
<polygon fill="none" stroke="#000000" points="8,-355.7 8,-377.7 100,-377.7 100,-355.7 8,-355.7"/>
<image xlink:href="../../images/primaryKeys.png" width="11px" height="12px" preserveAspectRatio="xMinYMin meet" x="13" y="-372.7"/>
<text text-anchor="start" x="28" y="-362.8" font-family="Helvetica,sans-Serif" font-size="11.00" fill="#000000">id</text>
<polygon fill="#ffffff" stroke="transparent" points="8,-333.7 8,-355.7 100,-355.7 100,-333.7 8,-333.7"/>
<polygon fill="none" stroke="#000000" points="8,-333.7 8,-355.7 100,-355.7 100,-333.7 8,-333.7"/>
<image xlink:href="../../images/foreignKeys.png" width="11px" height="12px" preserveAspectRatio="xMinYMin meet" x="13" y="-350.7"/>
<text text-anchor="start" x="28" y="-340.8" font-family="Helvetica,sans-Serif" font-size="11.00" fill="#000000">author_id</text>
<polygon fill="none" stroke="#000000" points="8,-311.7 8,-333.7 100,-333.7 100,-311.7 8,-311.7"/>
<image xlink:href="../../images/foreignKeys.png" width="11px" height="12px" preserveAspectRatio="xMinYMin meet" x="13" y="-328.7"/>
<text text-anchor="start" x="28" y="-318.8" font-family="Helvetica,sans-Serif" font-size="11.00" fill="#000000">upstream_id</text>
<polygon fill="none" stroke="#000000" points="8,-289.7 8,-311.7 100,-311.7 100,-289.7 8,-289.7"/>
<image xlink:href="../../images/foreignKeys.png" width="11px" height="12px" preserveAspectRatio="xMinYMin meet" x="13" y="-306.7"/>
<text text-anchor="start" x="28" y="-296.8" font-family="Helvetica,sans-Serif" font-size="11.00" fill="#000000">cover</text>
<polygon fill="#ffffff" stroke="transparent" points="8,-267.7 8,-289.7 100,-289.7 100,-267.7 8,-267.7"/>
<polygon fill="none" stroke="#000000" points="8,-267.7 8,-289.7 100,-289.7 100,-267.7 8,-267.7"/>
<text text-anchor="start" x="28" y="-274.8" font-family="Helvetica,sans-Serif" font-size="11.00" fill="#000000">media_hash</text>
<polygon fill="#ffffff" stroke="transparent" points="8,-245.7 8,-267.7 100,-267.7 100,-245.7 8,-245.7"/>
<polygon fill="none" stroke="#000000" points="8,-245.7 8,-267.7 100,-267.7 100,-245.7 8,-245.7"/>
<text text-anchor="start" x="28" y="-252.8" font-family="Helvetica,sans-Serif" font-size="11.00" fill="#000000">state</text>
<polygon fill="#ffffff" stroke="transparent" points="8,-223.7 8,-245.7 100,-245.7 100,-223.7 8,-223.7"/>
<polygon fill="none" stroke="#000000" points="8,-223.7 8,-245.7 100,-245.7 100,-223.7 8,-223.7"/>
<text text-anchor="start" x="28" y="-230.8" font-family="Helvetica,sans-Serif" font-size="11.00" fill="#000000">created_at</text>
<polygon fill="none" stroke="#000000" points="8,-201.7 8,-223.7 100,-223.7 100,-201.7 8,-201.7"/>
<image xlink:href="../../images/foreignKeys.png" width="11px" height="12px" preserveAspectRatio="xMinYMin meet" x="13" y="-218.7"/>
<text text-anchor="start" x="28" y="-208.8" font-family="Helvetica,sans-Serif" font-size="11.00" fill="#000000">draft_id</text>
<polygon fill="none" stroke="#000000" points="8,-182.7 8,-201.7 100,-201.7 100,-182.7 8,-182.7"/>
<text text-anchor="start" x="11" y="-188.8" font-family="Helvetica,sans-Serif" font-size="11.00" fill="#000000">...</text>
<polygon fill="#ffffff" stroke="transparent" points="8,-163.7 8,-182.7 45,-182.7 45,-163.7 8,-163.7"/>
<polygon fill="none" stroke="#000000" points="8,-163.7 8,-182.7 45,-182.7 45,-163.7 8,-163.7"/>
<text text-anchor="start" x="11" y="-169.8" font-family="Helvetica,sans-Serif" font-size="11.00" fill="#000000">&lt; 4</text>
<polygon fill="#ffffff" stroke="transparent" points="45,-163.7 45,-182.7 65,-182.7 65,-163.7 45,-163.7"/>
<polygon fill="none" stroke="#000000" points="45,-163.7 45,-182.7 65,-182.7 65,-163.7 45,-163.7"/>
<text text-anchor="start" x="55.8862" y="-169.8" font-family="Helvetica,sans-Serif" font-size="11.00" fill="#000000"> &#160;</text>
<polygon fill="#ffffff" stroke="transparent" points="65,-163.7 65,-182.7 100,-182.7 100,-163.7 65,-163.7"/>
<polygon fill="none" stroke="#000000" points="65,-163.7 65,-182.7 100,-182.7 100,-163.7 65,-163.7"/>
<text text-anchor="start" x="75.2904" y="-169.8" font-family="Helvetica,sans-Serif" font-size="11.00" fill="#000000">14 &gt;</text>
</a>
</g>
</g>
<!-- article_tag&#45;&gt;article -->
<g id="edge1" class="edge">
<title>article_tag:w&#45;&gt;article:e</title>
<path fill="none" stroke="#000000" d="M137.1228,-252.3609C106.2188,-272.278 151.1866,-366.7 100,-366.7"/>
<polygon fill="#000000" stroke="#000000" points="143.7474,-250.6741 152.3883,-252.1887 147.6237,-249.6871 151.5,-248.7 151.5,-248.7 151.5,-248.7 147.6237,-249.6871 150.6117,-245.2113 143.7474,-250.6741 143.7474,-250.6741"/>
<ellipse fill="none" stroke="#000000" cx="140.6463" cy="-251.4637" rx="3.2" ry="3.2"/>
</g>
<!-- tag -->
<g id="node3" class="node">
<title>tag</title>
<g id="a_node3"><a xlink:href="../../tables/tag.html" xlink:title="tag" target="_top">
<polygon fill="#ffffff" stroke="transparent" points="11.5,-38.2 11.5,-143.2 96.5,-143.2 96.5,-38.2 11.5,-38.2"/>
<polygon fill="#f5f5f5" stroke="transparent" points="12,-119.7 12,-142.7 97,-142.7 97,-119.7 12,-119.7"/>
<polygon fill="none" stroke="#000000" points="12,-119.7 12,-142.7 97,-142.7 97,-119.7 12,-119.7"/>
<text text-anchor="start" x="17" y="-128.8" font-family="Helvetica,sans-Serif" font-weight="bold" font-size="11.00" fill="#000000">tag</text>
<text text-anchor="start" x="62.0437" y="-127.8" font-family="Helvetica,sans-Serif" font-size="11.00" fill="#000000">[table]</text>
<polygon fill="none" stroke="#000000" points="12,-97.7 12,-119.7 97,-119.7 97,-97.7 12,-97.7"/>
<image xlink:href="../../images/primaryKeys.png" width="11px" height="12px" preserveAspectRatio="xMinYMin meet" x="17" y="-114.7"/>
<text text-anchor="start" x="32" y="-104.8" font-family="Helvetica,sans-Serif" font-size="11.00" fill="#000000">id</text>
<polygon fill="#ffffff" stroke="transparent" points="12,-75.7 12,-97.7 97,-97.7 97,-75.7 12,-75.7"/>
<polygon fill="none" stroke="#000000" points="12,-75.7 12,-97.7 97,-97.7 97,-75.7 12,-75.7"/>
<text text-anchor="start" x="32" y="-82.8" font-family="Helvetica,sans-Serif" font-size="11.00" fill="#000000">content</text>
<polygon fill="none" stroke="#000000" points="12,-56.7 12,-75.7 97,-75.7 97,-56.7 12,-56.7"/>
<text text-anchor="start" x="15" y="-62.8" font-family="Helvetica,sans-Serif" font-size="11.00" fill="#000000">...</text>
<polygon fill="#ffffff" stroke="transparent" points="12,-37.7 12,-56.7 44,-56.7 44,-37.7 12,-37.7"/>
<polygon fill="none" stroke="#000000" points="12,-37.7 12,-56.7 44,-56.7 44,-37.7 12,-37.7"/>
<text text-anchor="start" x="15" y="-43.8" font-family="Helvetica,sans-Serif" font-size="11.00" fill="#000000"> &#160;</text>
<polygon fill="#ffffff" stroke="transparent" points="44,-37.7 44,-56.7 66,-56.7 66,-37.7 44,-37.7"/>
<polygon fill="none" stroke="#000000" points="44,-37.7 44,-56.7 66,-56.7 66,-37.7 44,-37.7"/>
<text text-anchor="start" x="56.8862" y="-43.8" font-family="Helvetica,sans-Serif" font-size="11.00" fill="#000000"> &#160;</text>
<polygon fill="#ffffff" stroke="transparent" points="66,-37.7 66,-56.7 97,-56.7 97,-37.7 66,-37.7"/>
<polygon fill="none" stroke="#000000" points="66,-37.7 66,-56.7 97,-56.7 97,-37.7 66,-37.7"/>
<text text-anchor="start" x="78.4053" y="-43.8" font-family="Helvetica,sans-Serif" font-size="11.00" fill="#000000">3 &gt;</text>
</a>
</g>
</g>
<!-- article_tag&#45;&gt;tag -->
<g id="edge2" class="edge">
<title>article_tag:w&#45;&gt;tag:e</title>
<path fill="none" stroke="#000000" d="M137.3263,-223.2957C104.9045,-203.9484 148.9009,-108.7 97,-108.7"/>
<polygon fill="#000000" stroke="#000000" points="143.7212,-224.8316 150.6592,-230.2005 147.6106,-225.7658 151.5,-226.7 151.5,-226.7 151.5,-226.7 147.6106,-225.7658 152.3408,-223.1995 143.7212,-224.8316 143.7212,-224.8316"/>
<ellipse fill="none" stroke="#000000" cx="140.6097" cy="-224.0843" rx="3.2" ry="3.2"/>
</g>
</g>
</svg>
