<?xml version="1.0" encoding="UTF-8" standalone="no"?>
<!DOCTYPE svg PUBLIC "-//W3C//DTD SVG 1.1//EN"
 "http://www.w3.org/Graphics/SVG/1.1/DTD/svg11.dtd">
<!-- Generated by graphviz version 2.40.1 (20161225.0304)
 -->
<!-- Title: oneDegreeRelationshipsDiagram Pages: 1 -->
<svg width="604pt" height="351pt"
 viewBox="0.00 0.00 604.00 350.70" xmlns="http://www.w3.org/2000/svg" xmlns:xlink="http://www.w3.org/1999/xlink">
<g id="graph0" class="graph" transform="scale(1 1) rotate(0) translate(4 346.7)">
<title>oneDegreeRelationshipsDiagram</title>
<polygon fill="#ffffff" stroke="transparent" points="-4,4 -4,-346.7 600,-346.7 600,4 -4,4"/>
<text text-anchor="middle" x="72.4936" y="-7.3" font-family="Helvetica,sans-Serif" font-size="11.00" fill="#000000">Generated by SchemaSpy</text>
<!-- article -->
<g id="node1" class="node">
<title>article</title>
<g id="a_node1"><a xlink:href="../../tables/article.html" xlink:title="article" target="_top">
<polygon fill="#ffffff" stroke="transparent" points="224,-38.2 224,-275.2 316,-275.2 316,-38.2 224,-38.2"/>
<polygon fill="#f5f5f5" stroke="transparent" points="224,-251.7 224,-274.7 316,-274.7 316,-251.7 224,-251.7"/>
<polygon fill="none" stroke="#000000" points="224,-251.7 224,-274.7 316,-274.7 316,-251.7 224,-251.7"/>
<text text-anchor="start" x="229" y="-260.8" font-family="Helvetica,sans-Serif" font-weight="bold" font-size="11.00" fill="#000000">article</text>
<text text-anchor="start" x="281.0437" y="-259.8" font-family="Helvetica,sans-Serif" font-size="11.00" fill="#000000">[table]</text>
<polygon fill="none" stroke="#000000" points="224,-229.7 224,-251.7 316,-251.7 316,-229.7 224,-229.7"/>
<image xlink:href="../../images/primaryKeys.png" width="11px" height="12px" preserveAspectRatio="xMinYMin meet" x="229" y="-246.7"/>
<text text-anchor="start" x="244" y="-236.8" font-family="Helvetica,sans-Serif" font-size="11.00" fill="#000000">id</text>
<polygon fill="#ffffff" stroke="transparent" points="224,-207.7 224,-229.7 316,-229.7 316,-207.7 224,-207.7"/>
<polygon fill="none" stroke="#000000" points="224,-207.7 224,-229.7 316,-229.7 316,-207.7 224,-207.7"/>
<image xlink:href="../../images/foreignKeys.png" width="11px" height="12px" preserveAspectRatio="xMinYMin meet" x="229" y="-224.7"/>
<text text-anchor="start" x="244" y="-214.8" font-family="Helvetica,sans-Serif" font-size="11.00" fill="#000000">author_id</text>
<polygon fill="none" stroke="#000000" points="224,-185.7 224,-207.7 316,-207.7 316,-185.7 224,-185.7"/>
<image xlink:href="../../images/foreignKeys.png" width="11px" height="12px" preserveAspectRatio="xMinYMin meet" x="229" y="-202.7"/>
<text text-anchor="start" x="244" y="-192.8" font-family="Helvetica,sans-Serif" font-size="11.00" fill="#000000">upstream_id</text>
<polygon fill="none" stroke="#000000" points="224,-163.7 224,-185.7 316,-185.7 316,-163.7 224,-163.7"/>
<image xlink:href="../../images/foreignKeys.png" width="11px" height="12px" preserveAspectRatio="xMinYMin meet" x="229" y="-180.7"/>
<text text-anchor="start" x="244" y="-170.8" font-family="Helvetica,sans-Serif" font-size="11.00" fill="#000000">cover</text>
<polygon fill="#ffffff" stroke="transparent" points="224,-141.7 224,-163.7 316,-163.7 316,-141.7 224,-141.7"/>
<polygon fill="none" stroke="#000000" points="224,-141.7 224,-163.7 316,-163.7 316,-141.7 224,-141.7"/>
<text text-anchor="start" x="244" y="-148.8" font-family="Helvetica,sans-Serif" font-size="11.00" fill="#000000">media_hash</text>
<polygon fill="#ffffff" stroke="transparent" points="224,-119.7 224,-141.7 316,-141.7 316,-119.7 224,-119.7"/>
<polygon fill="none" stroke="#000000" points="224,-119.7 224,-141.7 316,-141.7 316,-119.7 224,-119.7"/>
<text text-anchor="start" x="244" y="-126.8" font-family="Helvetica,sans-Serif" font-size="11.00" fill="#000000">state</text>
<polygon fill="#ffffff" stroke="transparent" points="224,-97.7 224,-119.7 316,-119.7 316,-97.7 224,-97.7"/>
<polygon fill="none" stroke="#000000" points="224,-97.7 224,-119.7 316,-119.7 316,-97.7 224,-97.7"/>
<text text-anchor="start" x="244" y="-104.8" font-family="Helvetica,sans-Serif" font-size="11.00" fill="#000000">created_at</text>
<polygon fill="none" stroke="#000000" points="224,-75.7 224,-97.7 316,-97.7 316,-75.7 224,-75.7"/>
<image xlink:href="../../images/foreignKeys.png" width="11px" height="12px" preserveAspectRatio="xMinYMin meet" x="229" y="-92.7"/>
<text text-anchor="start" x="244" y="-82.8" font-family="Helvetica,sans-Serif" font-size="11.00" fill="#000000">draft_id</text>
<polygon fill="none" stroke="#000000" points="224,-56.7 224,-75.7 316,-75.7 316,-56.7 224,-56.7"/>
<text text-anchor="start" x="227" y="-62.8" font-family="Helvetica,sans-Serif" font-size="11.00" fill="#000000">...</text>
<polygon fill="#ffffff" stroke="transparent" points="224,-37.7 224,-56.7 261,-56.7 261,-37.7 224,-37.7"/>
<polygon fill="none" stroke="#000000" points="224,-37.7 224,-56.7 261,-56.7 261,-37.7 224,-37.7"/>
<text text-anchor="start" x="227" y="-43.8" font-family="Helvetica,sans-Serif" font-size="11.00" fill="#000000">&lt; 4</text>
<polygon fill="#ffffff" stroke="transparent" points="261,-37.7 261,-56.7 281,-56.7 281,-37.7 261,-37.7"/>
<polygon fill="none" stroke="#000000" points="261,-37.7 261,-56.7 281,-56.7 281,-37.7 261,-37.7"/>
<text text-anchor="start" x="271.8862" y="-43.8" font-family="Helvetica,sans-Serif" font-size="11.00" fill="#000000"> &#160;</text>
<polygon fill="#ffffff" stroke="transparent" points="281,-37.7 281,-56.7 316,-56.7 316,-37.7 281,-37.7"/>
<polygon fill="none" stroke="#000000" points="281,-37.7 281,-56.7 316,-56.7 316,-37.7 281,-37.7"/>
<text text-anchor="start" x="291.2904" y="-43.8" font-family="Helvetica,sans-Serif" font-size="11.00" fill="#000000">14 &gt;</text>
</a>
</g>
</g>
<!-- user -->
<g id="node2" class="node">
<title>user</title>
<g id="a_node2"><a xlink:href="../../tables/user.html" xlink:title="user" target="_top">
<polygon fill="#ffffff" stroke="transparent" points="8,-78.2 8,-293.2 175,-293.2 175,-78.2 8,-78.2"/>
<polygon fill="#f5f5f5" stroke="transparent" points="8.5,-269.7 8.5,-292.7 175.5,-292.7 175.5,-269.7 8.5,-269.7"/>
<polygon fill="none" stroke="#000000" points="8.5,-269.7 8.5,-292.7 175.5,-292.7 175.5,-269.7 8.5,-269.7"/>
<text text-anchor="start" x="13.5" y="-278.8" font-family="Helvetica,sans-Serif" font-weight="bold" font-size="11.00" fill="#000000">user</text>
<text text-anchor="start" x="140.5437" y="-277.8" font-family="Helvetica,sans-Serif" font-size="11.00" fill="#000000">[table]</text>
<polygon fill="none" stroke="#000000" points="8.5,-247.7 8.5,-269.7 175.5,-269.7 175.5,-247.7 8.5,-247.7"/>
<image xlink:href="../../images/primaryKeys.png" width="11px" height="12px" preserveAspectRatio="xMinYMin meet" x="13.5" y="-264.7"/>
<text text-anchor="start" x="28.5" y="-254.8" font-family="Helvetica,sans-Serif" font-size="11.00" fill="#000000">id</text>
<polygon fill="#ffffff" stroke="transparent" points="8.5,-225.7 8.5,-247.7 175.5,-247.7 175.5,-225.7 8.5,-225.7"/>
<polygon fill="none" stroke="#000000" points="8.5,-225.7 8.5,-247.7 175.5,-247.7 175.5,-225.7 8.5,-225.7"/>
<text text-anchor="start" x="28.5" y="-232.8" font-family="Helvetica,sans-Serif" font-size="11.00" fill="#000000">uuid</text>
<polygon fill="#ffffff" stroke="transparent" points="8.5,-203.7 8.5,-225.7 175.5,-225.7 175.5,-203.7 8.5,-203.7"/>
<polygon fill="none" stroke="#000000" points="8.5,-203.7 8.5,-225.7 175.5,-225.7 175.5,-203.7 8.5,-203.7"/>
<text text-anchor="start" x="28.5" y="-210.8" font-family="Helvetica,sans-Serif" font-size="11.00" fill="#000000">user_name</text>
<polygon fill="none" stroke="#000000" points="8.5,-181.7 8.5,-203.7 175.5,-203.7 175.5,-181.7 8.5,-181.7"/>
<image xlink:href="../../images/foreignKeys.png" width="11px" height="12px" preserveAspectRatio="xMinYMin meet" x="13.5" y="-198.7"/>
<text text-anchor="start" x="28.5" y="-188.8" font-family="Helvetica,sans-Serif" font-size="11.00" fill="#000000">avatar</text>
<polygon fill="#ffffff" stroke="transparent" points="8.5,-159.7 8.5,-181.7 175.5,-181.7 175.5,-159.7 8.5,-159.7"/>
<polygon fill="none" stroke="#000000" points="8.5,-159.7 8.5,-181.7 175.5,-181.7 175.5,-159.7 8.5,-159.7"/>
<text text-anchor="start" x="28.5" y="-166.8" font-family="Helvetica,sans-Serif" font-size="11.00" fill="#000000">email</text>
<polygon fill="#ffffff" stroke="transparent" points="8.5,-137.7 8.5,-159.7 175.5,-159.7 175.5,-137.7 8.5,-137.7"/>
<polygon fill="none" stroke="#000000" points="8.5,-137.7 8.5,-159.7 175.5,-159.7 175.5,-137.7 8.5,-137.7"/>
<text text-anchor="start" x="28.5" y="-144.8" font-family="Helvetica,sans-Serif" font-size="11.00" fill="#000000">state</text>
<polygon fill="#ffffff" stroke="transparent" points="8.5,-115.7 8.5,-137.7 175.5,-137.7 175.5,-115.7 8.5,-115.7"/>
<polygon fill="none" stroke="#000000" points="8.5,-115.7 8.5,-137.7 175.5,-137.7 175.5,-115.7 8.5,-115.7"/>
<text text-anchor="start" x="28.5" y="-122.8" font-family="Helvetica,sans-Serif" font-size="11.00" fill="#000000">liker_id</text>
<polygon fill="none" stroke="#000000" points="8.5,-96.7 8.5,-115.7 175.5,-115.7 175.5,-96.7 8.5,-96.7"/>
<text text-anchor="start" x="11.5" y="-102.8" font-family="Helvetica,sans-Serif" font-size="11.00" fill="#000000">...</text>
<polygon fill="#ffffff" stroke="transparent" points="8.5,-77.7 8.5,-96.7 82.5,-96.7 82.5,-77.7 8.5,-77.7"/>
<polygon fill="none" stroke="#000000" points="8.5,-77.7 8.5,-96.7 82.5,-96.7 82.5,-77.7 8.5,-77.7"/>
<text text-anchor="start" x="11.5" y="-83.8" font-family="Helvetica,sans-Serif" font-size="11.00" fill="#000000">&lt; 1</text>
<polygon fill="#ffffff" stroke="transparent" points="82.5,-77.7 82.5,-96.7 121.5,-96.7 121.5,-77.7 82.5,-77.7"/>
<polygon fill="none" stroke="#000000" points="82.5,-77.7 82.5,-96.7 121.5,-96.7 121.5,-77.7 82.5,-77.7"/>
<text text-anchor="start" x="112.3862" y="-83.8" font-family="Helvetica,sans-Serif" font-size="11.00" fill="#000000"> &#160;</text>
<polygon fill="#ffffff" stroke="transparent" points="121.5,-77.7 121.5,-96.7 175.5,-96.7 175.5,-77.7 121.5,-77.7"/>
<polygon fill="none" stroke="#000000" points="121.5,-77.7 121.5,-96.7 175.5,-96.7 175.5,-77.7 121.5,-77.7"/>
<text text-anchor="start" x="150.7904" y="-83.8" font-family="Helvetica,sans-Serif" font-size="11.00" fill="#000000">42 &gt;</text>
</a>
</g>
</g>
<!-- article&#45;&gt;user -->
<g id="edge1" class="edge">
<title>article:w&#45;&gt;user:e</title>
<path fill="none" stroke="#000000" d="M209.9951,-223.6048C197.5984,-234.2859 197.3288,-258.7 175.5,-258.7"/>
<polygon fill="#000000" stroke="#000000" points="216.4496,-221.3443 225.1899,-222.0977 220.2248,-220.0222 224,-218.7 224,-218.7 224,-218.7 220.2248,-220.0222 222.8101,-215.3023 216.4496,-221.3443 216.4496,-221.3443"/>
<ellipse fill="none" stroke="#000000" cx="213.4295" cy="-222.402" rx="3.2" ry="3.2"/>
</g>
<!-- article_read_count -->
<g id="node3" class="node">
<title>article_read_count</title>
<g id="a_node3"><a xlink:href="../../tables/article_read_count.html" xlink:title="article_read_count" target="_top">
<polygon fill="#ffffff" stroke="transparent" points="365,-50.7 365,-338.7 588,-338.7 588,-50.7 365,-50.7"/>
<polygon fill="#f5f5f5" stroke="transparent" points="367.5,-313.7 367.5,-336.7 586.5,-336.7 586.5,-313.7 367.5,-313.7"/>
<polygon fill="none" stroke="#000000" points="367.5,-313.7 367.5,-336.7 586.5,-336.7 586.5,-313.7 367.5,-313.7"/>
<text text-anchor="start" x="372.5" y="-322.8" font-family="Helvetica,sans-Serif" font-weight="bold" font-size="11.00" fill="#000000">article_read_count</text>
<text text-anchor="start" x="551.5437" y="-321.8" font-family="Helvetica,sans-Serif" font-size="11.00" fill="#000000">[table]</text>
<polygon fill="none" stroke="#000000" points="367.5,-291.7 367.5,-313.7 494.5,-313.7 494.5,-291.7 367.5,-291.7"/>
<image xlink:href="../../images/primaryKeys.png" width="11px" height="12px" preserveAspectRatio="xMinYMin meet" x="372.5" y="-308.7"/>
<text text-anchor="start" x="387.5" y="-298.8" font-family="Helvetica,sans-Serif" font-size="11.00" fill="#000000">id</text>
<polygon fill="none" stroke="#000000" points="494.5,-291.7 494.5,-313.7 586.5,-313.7 586.5,-291.7 494.5,-291.7"/>
<text text-anchor="start" x="497.5" y="-299.4" font-family="Helvetica,sans-Serif" font-size="11.00" fill="#000000">bigserial[19]</text>
<polygon fill="#ffffff" stroke="transparent" points="367.5,-269.7 367.5,-291.7 494.5,-291.7 494.5,-269.7 367.5,-269.7"/>
<polygon fill="none" stroke="#000000" points="367.5,-269.7 367.5,-291.7 494.5,-291.7 494.5,-269.7 367.5,-269.7"/>
<image xlink:href="../../images/foreignKeys.png" width="11px" height="12px" preserveAspectRatio="xMinYMin meet" x="372.5" y="-286.7"/>
<text text-anchor="start" x="387.5" y="-276.8" font-family="Helvetica,sans-Serif" font-size="11.00" fill="#000000">user_id</text>
<polygon fill="none" stroke="#000000" points="494.5,-269.7 494.5,-291.7 586.5,-291.7 586.5,-269.7 494.5,-269.7"/>
<text text-anchor="start" x="497.5" y="-277.4" font-family="Helvetica,sans-Serif" font-size="11.00" fill="#000000">int8[19]</text>
<polygon fill="#ffffff" stroke="transparent" points="367.5,-247.7 367.5,-269.7 494.5,-269.7 494.5,-247.7 367.5,-247.7"/>
<polygon fill="none" stroke="#000000" points="367.5,-247.7 367.5,-269.7 494.5,-269.7 494.5,-247.7 367.5,-247.7"/>
<image xlink:href="../../images/foreignKeys.png" width="11px" height="12px" preserveAspectRatio="xMinYMin meet" x="372.5" y="-264.7"/>
<text text-anchor="start" x="387.5" y="-254.8" font-family="Helvetica,sans-Serif" font-size="11.00" fill="#000000">article_id</text>
<polygon fill="none" stroke="#000000" points="494.5,-247.7 494.5,-269.7 586.5,-269.7 586.5,-247.7 494.5,-247.7"/>
<text text-anchor="start" x="497.5" y="-255.4" font-family="Helvetica,sans-Serif" font-size="11.00" fill="#000000">int8[19]</text>
<polygon fill="none" stroke="#000000" points="367.5,-225.7 367.5,-247.7 494.5,-247.7 494.5,-225.7 367.5,-225.7"/>
<text text-anchor="start" x="387.5" y="-232.8" font-family="Helvetica,sans-Serif" font-size="11.00" fill="#000000">count</text>
<polygon fill="none" stroke="#000000" points="494.5,-225.7 494.5,-247.7 586.5,-247.7 586.5,-225.7 494.5,-225.7"/>
<text text-anchor="start" x="497.5" y="-233.4" font-family="Helvetica,sans-Serif" font-size="11.00" fill="#000000">int8[19]</text>
<polygon fill="none" stroke="#000000" points="367.5,-203.7 367.5,-225.7 494.5,-225.7 494.5,-203.7 367.5,-203.7"/>
<text text-anchor="start" x="387.5" y="-210.8" font-family="Helvetica,sans-Serif" font-size="11.00" fill="#000000">archived</text>
<polygon fill="none" stroke="#000000" points="494.5,-203.7 494.5,-225.7 586.5,-225.7 586.5,-203.7 494.5,-203.7"/>
<text text-anchor="start" x="497.5" y="-211.4" font-family="Helvetica,sans-Serif" font-size="11.00" fill="#000000">bool[1]</text>
<polygon fill="none" stroke="#000000" points="367.5,-181.7 367.5,-203.7 494.5,-203.7 494.5,-181.7 367.5,-181.7"/>
<text text-anchor="start" x="387.5" y="-188.8" font-family="Helvetica,sans-Serif" font-size="11.00" fill="#000000">ip</text>
<polygon fill="none" stroke="#000000" points="494.5,-181.7 494.5,-203.7 586.5,-203.7 586.5,-181.7 494.5,-181.7"/>
<text text-anchor="start" x="497.5" y="-189.4" font-family="Helvetica,sans-Serif" font-size="11.00" fill="#000000">varchar[255]</text>
<polygon fill="none" stroke="#000000" points="367.5,-159.7 367.5,-181.7 494.5,-181.7 494.5,-159.7 367.5,-159.7"/>
<text text-anchor="start" x="387.5" y="-166.8" font-family="Helvetica,sans-Serif" font-size="11.00" fill="#000000">created_at</text>
<polygon fill="none" stroke="#000000" points="494.5,-159.7 494.5,-181.7 586.5,-181.7 586.5,-159.7 494.5,-159.7"/>
<text text-anchor="start" x="497.1023" y="-167.4" font-family="Helvetica,sans-Serif" font-size="11.00" fill="#000000">timestamptz[35,6]</text>
<polygon fill="none" stroke="#000000" points="367.5,-137.7 367.5,-159.7 494.5,-159.7 494.5,-137.7 367.5,-137.7"/>
<text text-anchor="start" x="387.5" y="-144.8" font-family="Helvetica,sans-Serif" font-size="11.00" fill="#000000">updated_at</text>
<polygon fill="none" stroke="#000000" points="494.5,-137.7 494.5,-159.7 586.5,-159.7 586.5,-137.7 494.5,-137.7"/>
<text text-anchor="start" x="497.1023" y="-145.4" font-family="Helvetica,sans-Serif" font-size="11.00" fill="#000000">timestamptz[35,6]</text>
<polygon fill="none" stroke="#000000" points="367.5,-115.7 367.5,-137.7 494.5,-137.7 494.5,-115.7 367.5,-115.7"/>
<text text-anchor="start" x="387.5" y="-122.8" font-family="Helvetica,sans-Serif" font-size="11.00" fill="#000000">read_time</text>
<polygon fill="none" stroke="#000000" points="494.5,-115.7 494.5,-137.7 586.5,-137.7 586.5,-115.7 494.5,-115.7"/>
<text text-anchor="start" x="497.5" y="-123.4" font-family="Helvetica,sans-Serif" font-size="11.00" fill="#000000">int8[19]</text>
<polygon fill="none" stroke="#000000" points="367.5,-93.7 367.5,-115.7 494.5,-115.7 494.5,-93.7 367.5,-93.7"/>
<text text-anchor="start" x="387.5" y="-100.8" font-family="Helvetica,sans-Serif" font-size="11.00" fill="#000000">timed_count</text>
<polygon fill="none" stroke="#000000" points="494.5,-93.7 494.5,-115.7 586.5,-115.7 586.5,-93.7 494.5,-93.7"/>
<text text-anchor="start" x="497.5" y="-101.4" font-family="Helvetica,sans-Serif" font-size="11.00" fill="#000000">int8[19]</text>
<polygon fill="none" stroke="#000000" points="367.5,-71.7 367.5,-93.7 494.5,-93.7 494.5,-71.7 367.5,-71.7"/>
<text text-anchor="start" x="387.5" y="-78.8" font-family="Helvetica,sans-Serif" font-size="11.00" fill="#000000">last_read</text>
<polygon fill="none" stroke="#000000" points="494.5,-71.7 494.5,-93.7 586.5,-93.7 586.5,-71.7 494.5,-71.7"/>
<text text-anchor="start" x="497.1023" y="-79.4" font-family="Helvetica,sans-Serif" font-size="11.00" fill="#000000">timestamptz[35,6]</text>
<polygon fill="#ffffff" stroke="transparent" points="367.5,-52.7 367.5,-71.7 435.5,-71.7 435.5,-52.7 367.5,-52.7"/>
<polygon fill="none" stroke="#000000" points="367.5,-52.7 367.5,-71.7 435.5,-71.7 435.5,-52.7 367.5,-52.7"/>
<text text-anchor="start" x="370.5" y="-58.8" font-family="Helvetica,sans-Serif" font-size="11.00" fill="#000000">&lt; 2</text>
<polygon fill="#ffffff" stroke="transparent" points="435.5,-52.7 435.5,-71.7 494.5,-71.7 494.5,-52.7 435.5,-52.7"/>
<polygon fill="none" stroke="#000000" points="435.5,-52.7 435.5,-71.7 494.5,-71.7 494.5,-52.7 435.5,-52.7"/>
<text text-anchor="start" x="485.3862" y="-58.8" font-family="Helvetica,sans-Serif" font-size="11.00" fill="#000000"> &#160;</text>
<polygon fill="#ffffff" stroke="transparent" points="494.5,-52.7 494.5,-71.7 586.5,-71.7 586.5,-52.7 494.5,-52.7"/>
<polygon fill="none" stroke="#000000" points="494.5,-52.7 494.5,-71.7 586.5,-71.7 586.5,-52.7 494.5,-52.7"/>
<text text-anchor="start" x="567.9053" y="-58.8" font-family="Helvetica,sans-Serif" font-size="11.00" fill="#000000">0 &gt;</text>
<polygon fill="none" stroke="#000000" stroke-width="2" points="366,-51.7 366,-337.7 587,-337.7 587,-51.7 366,-51.7"/>
</a>
</g>
</g>
<!-- article_read_count&#45;&gt;article -->
<g id="edge2" class="edge">
<title>article_read_count:w&#45;&gt;article:e</title>
<path fill="none" stroke="#000000" d="M353.0173,-256.044C340.5511,-251.037 334.3744,-240.7 316,-240.7"/>
<polygon fill="#000000" stroke="#000000" points="359.6312,-257.2569 366.8506,-262.2409 363.5656,-257.9785 367.5,-258.7 367.5,-258.7 367.5,-258.7 363.5656,-257.9785 368.1494,-255.1591 359.6312,-257.2569 359.6312,-257.2569"/>
<ellipse fill="none" stroke="#000000" cx="356.4837" cy="-256.6797" rx="3.2" ry="3.2"/>
</g>
<!-- article_read_count&#45;&gt;user -->
<g id="edge3" class="edge">
<title>article_read_count:w&#45;&gt;user:e</title>
<path fill="none" stroke="#000000" d="M353.0084,-281.5941C343.8542,-282.8111 337.5091,-284.9262 324,-285.7 276.0786,-288.4451 261.9404,-299.6096 216,-285.7 195.2949,-279.431 197.1333,-258.7 175.5,-258.7"/>
<polygon fill="#000000" stroke="#000000" points="359.5152,-281.1927 367.7217,-284.2932 363.5076,-280.9464 367.5,-280.7 367.5,-280.7 367.5,-280.7 363.5076,-280.9464 367.2783,-277.1068 359.5152,-281.1927 359.5152,-281.1927"/>
<ellipse fill="none" stroke="#000000" cx="356.3213" cy="-281.3898" rx="3.2" ry="3.2"/>
</g>
</g>
</svg>
