<?xml version="1.0" encoding="UTF-8" standalone="no"?>
<!DOCTYPE svg PUBLIC "-//W3C//DTD SVG 1.1//EN"
 "http://www.w3.org/Graphics/SVG/1.1/DTD/svg11.dtd">
<!-- Generated by graphviz version 2.40.1 (20161225.0304)
 -->
<!-- Title: twoDegreesRelationshipsDiagram Pages: 1 -->
<svg width="625pt" height="732pt"
 viewBox="0.00 0.00 624.58 732.20" xmlns="http://www.w3.org/2000/svg" xmlns:xlink="http://www.w3.org/1999/xlink">
<g id="graph0" class="graph" transform="scale(1 1) rotate(0) translate(4 728.2)">
<title>twoDegreesRelationshipsDiagram</title>
<polygon fill="#ffffff" stroke="transparent" points="-4,4 -4,-728.2 620.5784,-728.2 620.5784,4 -4,4"/>
<text text-anchor="middle" x="72.4936" y="-7.3" font-family="Helvetica,sans-Serif" font-size="11.00" fill="#000000">Generated by SchemaSpy</text>
<!-- article -->
<g id="node1" class="node">
<title>article</title>
<g id="a_node1"><a xlink:href="../../tables/article.html" xlink:title="article" target="_top">
<polygon fill="#ffffff" stroke="transparent" points="535.6394,-149.2 535.6394,-210.2 607.6394,-210.2 607.6394,-149.2 535.6394,-149.2"/>
<polygon fill="#f5f5f5" stroke="transparent" points="535.6394,-186.7 535.6394,-209.7 607.6394,-209.7 607.6394,-186.7 535.6394,-186.7"/>
<polygon fill="none" stroke="#000000" points="535.6394,-186.7 535.6394,-209.7 607.6394,-209.7 607.6394,-186.7 535.6394,-186.7"/>
<text text-anchor="start" x="540.4742" y="-195.8" font-family="Helvetica,sans-Serif" font-weight="bold" font-size="11.00" fill="#000000">article</text>
<text text-anchor="start" x="573.1613" y="-194.8" font-family="Helvetica,sans-Serif" font-size="11.00" fill="#000000">[table]</text>
<polygon fill="none" stroke="#000000" points="535.6394,-167.7 535.6394,-186.7 607.6394,-186.7 607.6394,-167.7 535.6394,-167.7"/>
<text text-anchor="start" x="538.6394" y="-173.8" font-family="Helvetica,sans-Serif" font-size="11.00" fill="#000000">...</text>
<polygon fill="#ffffff" stroke="transparent" points="535.6394,-148.7 535.6394,-167.7 562.6394,-167.7 562.6394,-148.7 535.6394,-148.7"/>
<polygon fill="none" stroke="#000000" points="535.6394,-148.7 535.6394,-167.7 562.6394,-167.7 562.6394,-148.7 535.6394,-148.7"/>
<text text-anchor="start" x="538.6394" y="-154.8" font-family="Helvetica,sans-Serif" font-size="11.00" fill="#000000">&lt; 4</text>
<polygon fill="#ffffff" stroke="transparent" points="562.6394,-148.7 562.6394,-167.7 577.6394,-167.7 577.6394,-148.7 562.6394,-148.7"/>
<polygon fill="none" stroke="#000000" points="562.6394,-148.7 562.6394,-167.7 577.6394,-167.7 577.6394,-148.7 562.6394,-148.7"/>
<text text-anchor="start" x="568.5256" y="-154.8" font-family="Helvetica,sans-Serif" font-size="11.00" fill="#000000"> &#160;</text>
<polygon fill="#ffffff" stroke="transparent" points="577.6394,-148.7 577.6394,-167.7 607.6394,-167.7 607.6394,-148.7 577.6394,-148.7"/>
<polygon fill="none" stroke="#000000" points="577.6394,-148.7 577.6394,-167.7 607.6394,-167.7 607.6394,-148.7 577.6394,-148.7"/>
<text text-anchor="start" x="582.9298" y="-154.8" font-family="Helvetica,sans-Serif" font-size="11.00" fill="#000000">14 &gt;</text>
</a>
</g>
</g>
<!-- user -->
<g id="node2" class="node">
<title>user</title>
<g id="a_node2"><a xlink:href="../../tables/user.html" xlink:title="user" target="_top">
<polygon fill="#ffffff" stroke="transparent" points="175.6394,-172.2 175.6394,-233.2 239.6394,-233.2 239.6394,-172.2 175.6394,-172.2"/>
<polygon fill="#f5f5f5" stroke="transparent" points="175.6394,-209.7 175.6394,-232.7 239.6394,-232.7 239.6394,-209.7 175.6394,-209.7"/>
<polygon fill="none" stroke="#000000" points="175.6394,-209.7 175.6394,-232.7 239.6394,-232.7 239.6394,-209.7 175.6394,-209.7"/>
<text text-anchor="start" x="180.4436" y="-218.8" font-family="Helvetica,sans-Serif" font-weight="bold" font-size="11.00" fill="#000000">user</text>
<text text-anchor="start" x="205.1613" y="-217.8" font-family="Helvetica,sans-Serif" font-size="11.00" fill="#000000">[table]</text>
<polygon fill="none" stroke="#000000" points="175.6394,-190.7 175.6394,-209.7 239.6394,-209.7 239.6394,-190.7 175.6394,-190.7"/>
<text text-anchor="start" x="178.6394" y="-196.8" font-family="Helvetica,sans-Serif" font-size="11.00" fill="#000000">...</text>
<polygon fill="#ffffff" stroke="transparent" points="175.6394,-171.7 175.6394,-190.7 198.6394,-190.7 198.6394,-171.7 175.6394,-171.7"/>
<polygon fill="none" stroke="#000000" points="175.6394,-171.7 175.6394,-190.7 198.6394,-190.7 198.6394,-171.7 175.6394,-171.7"/>
<text text-anchor="start" x="178.6394" y="-177.8" font-family="Helvetica,sans-Serif" font-size="11.00" fill="#000000">&lt; 1</text>
<polygon fill="#ffffff" stroke="transparent" points="198.6394,-171.7 198.6394,-190.7 211.6394,-190.7 211.6394,-171.7 198.6394,-171.7"/>
<polygon fill="none" stroke="#000000" points="198.6394,-171.7 198.6394,-190.7 211.6394,-190.7 211.6394,-171.7 198.6394,-171.7"/>
<text text-anchor="start" x="202.5256" y="-177.8" font-family="Helvetica,sans-Serif" font-size="11.00" fill="#000000"> &#160;</text>
<polygon fill="#ffffff" stroke="transparent" points="211.6394,-171.7 211.6394,-190.7 239.6394,-190.7 239.6394,-171.7 211.6394,-171.7"/>
<polygon fill="none" stroke="#000000" points="211.6394,-171.7 211.6394,-190.7 239.6394,-190.7 239.6394,-171.7 211.6394,-171.7"/>
<text text-anchor="start" x="214.9298" y="-177.8" font-family="Helvetica,sans-Serif" font-size="11.00" fill="#000000">42 &gt;</text>
</a>
</g>
</g>
<!-- article&#45;&gt;user -->
<g id="edge1" class="edge">
<title>article:w&#45;&gt;user:e</title>
<path fill="none" stroke="#000000" d="M521.3692,-179.4369C513.0329,-183.027 507.7366,-189.167 494.6394,-191.7 383.3133,-213.2309 353.0285,-199.7 239.6394,-199.7"/>
<polygon fill="#000000" stroke="#000000" points="527.7826,-178.2069 536.3175,-180.2356 531.711,-177.4535 535.6394,-176.7 535.6394,-176.7 535.6394,-176.7 531.711,-177.4535 534.9613,-173.1644 527.7826,-178.2069 527.7826,-178.2069"/>
<ellipse fill="none" stroke="#000000" cx="524.6399" cy="-178.8097" rx="3.2" ry="3.2"/>
</g>
<!-- asset -->
<g id="node3" class="node">
<title>asset</title>
<g id="a_node3"><a xlink:href="../../tables/asset.html" xlink:title="asset" target="_top">
<polygon fill="#ffffff" stroke="transparent" points="13.6394,-230.2 13.6394,-357.2 98.6394,-357.2 98.6394,-230.2 13.6394,-230.2"/>
<polygon fill="#f5f5f5" stroke="transparent" points="14.1394,-333.7 14.1394,-356.7 99.1394,-356.7 99.1394,-333.7 14.1394,-333.7"/>
<polygon fill="none" stroke="#000000" points="14.1394,-333.7 14.1394,-356.7 99.1394,-356.7 99.1394,-333.7 14.1394,-333.7"/>
<text text-anchor="start" x="19.1394" y="-342.8" font-family="Helvetica,sans-Serif" font-weight="bold" font-size="11.00" fill="#000000">asset</text>
<text text-anchor="start" x="64.1831" y="-341.8" font-family="Helvetica,sans-Serif" font-size="11.00" fill="#000000">[table]</text>
<polygon fill="none" stroke="#000000" points="14.1394,-311.7 14.1394,-333.7 99.1394,-333.7 99.1394,-311.7 14.1394,-311.7"/>
<image xlink:href="../../images/primaryKeys.png" width="11px" height="12px" preserveAspectRatio="xMinYMin meet" x="19.1394" y="-328.7"/>
<text text-anchor="start" x="34.1394" y="-318.8" font-family="Helvetica,sans-Serif" font-size="11.00" fill="#000000">id</text>
<polygon fill="#ffffff" stroke="transparent" points="14.1394,-289.7 14.1394,-311.7 99.1394,-311.7 99.1394,-289.7 14.1394,-289.7"/>
<polygon fill="none" stroke="#000000" points="14.1394,-289.7 14.1394,-311.7 99.1394,-311.7 99.1394,-289.7 14.1394,-289.7"/>
<text text-anchor="start" x="34.1394" y="-296.8" font-family="Helvetica,sans-Serif" font-size="11.00" fill="#000000">uuid</text>
<polygon fill="none" stroke="#000000" points="14.1394,-267.7 14.1394,-289.7 99.1394,-289.7 99.1394,-267.7 14.1394,-267.7"/>
<image xlink:href="../../images/foreignKeys.png" width="11px" height="12px" preserveAspectRatio="xMinYMin meet" x="19.1394" y="-284.7"/>
<text text-anchor="start" x="34.1394" y="-274.8" font-family="Helvetica,sans-Serif" font-size="11.00" fill="#000000">author_id</text>
<polygon fill="none" stroke="#000000" points="14.1394,-248.7 14.1394,-267.7 99.1394,-267.7 99.1394,-248.7 14.1394,-248.7"/>
<text text-anchor="start" x="17.1394" y="-254.8" font-family="Helvetica,sans-Serif" font-size="11.00" fill="#000000">...</text>
<polygon fill="#ffffff" stroke="transparent" points="14.1394,-229.7 14.1394,-248.7 50.1394,-248.7 50.1394,-229.7 14.1394,-229.7"/>
<polygon fill="none" stroke="#000000" points="14.1394,-229.7 14.1394,-248.7 50.1394,-248.7 50.1394,-229.7 14.1394,-229.7"/>
<text text-anchor="start" x="17.1394" y="-235.8" font-family="Helvetica,sans-Serif" font-size="11.00" fill="#000000">&lt; 1</text>
<polygon fill="#ffffff" stroke="transparent" points="50.1394,-229.7 50.1394,-248.7 70.1394,-248.7 70.1394,-229.7 50.1394,-229.7"/>
<polygon fill="none" stroke="#000000" points="50.1394,-229.7 50.1394,-248.7 70.1394,-248.7 70.1394,-229.7 50.1394,-229.7"/>
<text text-anchor="start" x="61.0256" y="-235.8" font-family="Helvetica,sans-Serif" font-size="11.00" fill="#000000"> &#160;</text>
<polygon fill="#ffffff" stroke="transparent" points="70.1394,-229.7 70.1394,-248.7 99.1394,-248.7 99.1394,-229.7 70.1394,-229.7"/>
<polygon fill="none" stroke="#000000" points="70.1394,-229.7 70.1394,-248.7 99.1394,-248.7 99.1394,-229.7 70.1394,-229.7"/>
<text text-anchor="start" x="80.5447" y="-235.8" font-family="Helvetica,sans-Serif" font-size="11.00" fill="#000000">9 &gt;</text>
</a>
</g>
</g>
<!-- article&#45;&gt;asset -->
<g id="edge2" class="edge">
<title>article:w&#45;&gt;asset:e</title>
<path fill="none" stroke="#000000" d="M521.3479,-179.9794C450.1209,-217.1217 563.9987,-558.4374 494.6394,-621.7 435.633,-675.5198 191.5756,-626.3709 139.6394,-565.7 104.0386,-524.1118 153.8843,-322.7 99.1394,-322.7"/>
<polygon fill="#000000" stroke="#000000" points="527.8421,-178.4893 536.4446,-180.2088 531.7408,-177.5946 535.6394,-176.7 535.6394,-176.7 535.6394,-176.7 531.7408,-177.5946 534.8342,-173.1912 527.8421,-178.4893 527.8421,-178.4893"/>
<ellipse fill="none" stroke="#000000" cx="524.7231" cy="-179.205" rx="3.2" ry="3.2"/>
</g>
<!-- draft -->
<g id="node4" class="node">
<title>draft</title>
<g id="a_node4"><a xlink:href="../../tables/draft.html" xlink:title="draft" target="_top">
<polygon fill="#ffffff" stroke="transparent" points="369.1394,-120.2 369.1394,-181.2 434.1394,-181.2 434.1394,-120.2 369.1394,-120.2"/>
<polygon fill="#f5f5f5" stroke="transparent" points="369.6394,-157.7 369.6394,-180.7 434.6394,-180.7 434.6394,-157.7 369.6394,-157.7"/>
<polygon fill="none" stroke="#000000" points="369.6394,-157.7 369.6394,-180.7 434.6394,-180.7 434.6394,-157.7 369.6394,-157.7"/>
<text text-anchor="start" x="374.6367" y="-166.8" font-family="Helvetica,sans-Serif" font-weight="bold" font-size="11.00" fill="#000000">draft</text>
<text text-anchor="start" x="400.1613" y="-165.8" font-family="Helvetica,sans-Serif" font-size="11.00" fill="#000000">[table]</text>
<polygon fill="none" stroke="#000000" points="369.6394,-138.7 369.6394,-157.7 434.6394,-157.7 434.6394,-138.7 369.6394,-138.7"/>
<text text-anchor="start" x="372.6394" y="-144.8" font-family="Helvetica,sans-Serif" font-size="11.00" fill="#000000">...</text>
<polygon fill="#ffffff" stroke="transparent" points="369.6394,-119.7 369.6394,-138.7 395.6394,-138.7 395.6394,-119.7 369.6394,-119.7"/>
<polygon fill="none" stroke="#000000" points="369.6394,-119.7 369.6394,-138.7 395.6394,-138.7 395.6394,-119.7 369.6394,-119.7"/>
<text text-anchor="start" x="372.6394" y="-125.8" font-family="Helvetica,sans-Serif" font-size="11.00" fill="#000000">&lt; 3</text>
<polygon fill="#ffffff" stroke="transparent" points="395.6394,-119.7 395.6394,-138.7 410.6394,-138.7 410.6394,-119.7 395.6394,-119.7"/>
<polygon fill="none" stroke="#000000" points="395.6394,-119.7 395.6394,-138.7 410.6394,-138.7 410.6394,-119.7 395.6394,-119.7"/>
<text text-anchor="start" x="401.5256" y="-125.8" font-family="Helvetica,sans-Serif" font-size="11.00" fill="#000000"> &#160;</text>
<polygon fill="#ffffff" stroke="transparent" points="410.6394,-119.7 410.6394,-138.7 434.6394,-138.7 434.6394,-119.7 410.6394,-119.7"/>
<polygon fill="none" stroke="#000000" points="410.6394,-119.7 410.6394,-138.7 434.6394,-138.7 434.6394,-119.7 410.6394,-119.7"/>
<text text-anchor="start" x="416.0447" y="-125.8" font-family="Helvetica,sans-Serif" font-size="11.00" fill="#000000">1 &gt;</text>
</a>
</g>
</g>
<!-- article&#45;&gt;draft -->
<g id="edge3" class="edge">
<title>article:w&#45;&gt;draft:e</title>
<path fill="none" stroke="#000000" d="M521.1597,-175.6679C486.7143,-170.5018 476.0515,-147.7 434.6394,-147.7"/>
<polygon fill="#000000" stroke="#000000" points="527.6597,-176.1311 535.3834,-180.2909 531.6495,-176.4156 535.6394,-176.7 535.6394,-176.7 535.6394,-176.7 531.6495,-176.4156 535.8954,-173.1091 527.6597,-176.1311 527.6597,-176.1311"/>
<ellipse fill="none" stroke="#000000" cx="524.4678" cy="-175.9036" rx="3.2" ry="3.2"/>
</g>
<!-- user&#45;&gt;asset -->
<g id="edge21" class="edge">
<title>user:w&#45;&gt;asset:e</title>
<path fill="none" stroke="#000000" d="M161.2094,-202.3834C119.5465,-220.3709 157.8586,-322.7 99.1394,-322.7"/>
<polygon fill="#000000" stroke="#000000" points="167.7743,-201.1627 176.2976,-203.2393 171.7068,-200.4313 175.6394,-199.7 175.6394,-199.7 175.6394,-199.7 171.7068,-200.4313 174.9812,-196.1607 167.7743,-201.1627 167.7743,-201.1627"/>
<ellipse fill="none" stroke="#000000" cx="164.6282" cy="-201.7477" rx="3.2" ry="3.2"/>
</g>
<!-- asset&#45;&gt;user -->
<g id="edge4" class="edge">
<title>asset:w&#45;&gt;user:e</title>
<path fill="none" stroke="#000000" d="M1.5481,-271.4966C-3.1067,-260.6245 4.7077,-239.8463 14.1394,-226.2 55.605,-166.2053 95.8961,-181.3021 167.6394,-168.2 167.6394,-168.2 239.6394,-199.7 239.6394,-199.7"/>
<polygon fill="#000000" stroke="#000000" points="7.1955,-274.7274 12.3518,-281.8248 10.6674,-276.7137 14.1394,-278.7 14.1394,-278.7 14.1394,-278.7 10.6674,-276.7137 15.9271,-275.5752 7.1955,-274.7274 7.1955,-274.7274"/>
<ellipse fill="none" stroke="#000000" cx="4.4179" cy="-273.1383" rx="3.2" ry="3.2"/>
</g>
<!-- draft&#45;&gt;article -->
<g id="edge11" class="edge">
<title>draft:w&#45;&gt;article:e</title>
<path fill="none" stroke="#000000" d="M382.937,-141.9224C403.8672,-132.8286 442.1394,-116.2 442.1394,-116.2 516.535,-122.6688 559.6079,-88.0203 607.6394,-145.2 616.6442,-155.9198 621.6394,-176.7 607.6394,-176.7"/>
<polygon fill="#000000" stroke="#000000" points="376.9768,-144.512 368.2048,-144.3982 373.3081,-146.106 369.6394,-147.7 369.6394,-147.7 369.6394,-147.7 373.3081,-146.106 371.074,-151.0018 376.9768,-144.512 376.9768,-144.512"/>
<ellipse fill="none" stroke="#000000" cx="379.9117" cy="-143.2368" rx="3.2" ry="3.2"/>
</g>
<!-- draft&#45;&gt;user -->
<g id="edge9" class="edge">
<title>draft:w&#45;&gt;user:e</title>
<path fill="none" stroke="#000000" d="M355.0931,-148.7387C306.08,-156.0676 296.6418,-199.7 239.6394,-199.7"/>
<polygon fill="#000000" stroke="#000000" points="361.6597,-148.2699 369.8959,-151.2909 365.6496,-147.9849 369.6394,-147.7 369.6394,-147.7 369.6394,-147.7 365.6496,-147.9849 369.383,-144.1091 361.6597,-148.2699 361.6597,-148.2699"/>
<ellipse fill="none" stroke="#000000" cx="358.4679" cy="-148.4978" rx="3.2" ry="3.2"/>
</g>
<!-- draft&#45;&gt;asset -->
<g id="edge10" class="edge">
<title>draft:w&#45;&gt;asset:e</title>
<path fill="none" stroke="#000000" d="M355.0117,-147.352C262.3935,-142.9597 214.6072,-99.5011 139.6394,-161.7 82.8543,-208.8132 172.9242,-322.7 99.1394,-322.7"/>
<polygon fill="#000000" stroke="#000000" points="361.6417,-147.5097 369.5538,-151.299 365.6406,-147.6048 369.6394,-147.7 369.6394,-147.7 369.6394,-147.7 365.6406,-147.6048 369.7251,-144.101 361.6417,-147.5097 361.6417,-147.5097"/>
<ellipse fill="none" stroke="#000000" cx="358.4426" cy="-147.4335" rx="3.2" ry="3.2"/>
</g>
<!-- asset_map -->
<g id="node5" class="node">
<title>asset_map</title>
<g id="a_node5"><a xlink:href="../../tables/asset_map.html" xlink:title="asset_map" target="_top">
<polygon fill="#ffffff" stroke="transparent" points="316.6394,-476.7 316.6394,-610.7 486.6394,-610.7 486.6394,-476.7 316.6394,-476.7"/>
<polygon fill="#f5f5f5" stroke="transparent" points="318.6394,-585.7 318.6394,-608.7 484.6394,-608.7 484.6394,-585.7 318.6394,-585.7"/>
<polygon fill="none" stroke="#000000" points="318.6394,-585.7 318.6394,-608.7 484.6394,-608.7 484.6394,-585.7 318.6394,-585.7"/>
<text text-anchor="start" x="323.6394" y="-594.8" font-family="Helvetica,sans-Serif" font-weight="bold" font-size="11.00" fill="#000000">asset_map</text>
<text text-anchor="start" x="449.6831" y="-593.8" font-family="Helvetica,sans-Serif" font-size="11.00" fill="#000000">[table]</text>
<polygon fill="none" stroke="#000000" points="318.6394,-563.7 318.6394,-585.7 419.6394,-585.7 419.6394,-563.7 318.6394,-563.7"/>
<image xlink:href="../../images/primaryKeys.png" width="11px" height="12px" preserveAspectRatio="xMinYMin meet" x="323.639" y="-580.7"/>
<text text-anchor="start" x="338.6394" y="-570.8" font-family="Helvetica,sans-Serif" font-size="11.00" fill="#000000">id</text>
<polygon fill="none" stroke="#000000" points="419.6394,-563.7 419.6394,-585.7 484.6394,-585.7 484.6394,-563.7 419.6394,-563.7"/>
<text text-anchor="start" x="422.4955" y="-571.4" font-family="Helvetica,sans-Serif" font-size="11.00" fill="#000000">bigserial[19]</text>
<polygon fill="#ffffff" stroke="transparent" points="318.6394,-541.7 318.6394,-563.7 419.6394,-563.7 419.6394,-541.7 318.6394,-541.7"/>
<polygon fill="none" stroke="#000000" points="318.6394,-541.7 318.6394,-563.7 419.6394,-563.7 419.6394,-541.7 318.6394,-541.7"/>
<image xlink:href="../../images/foreignKeys.png" width="11px" height="12px" preserveAspectRatio="xMinYMin meet" x="323.639" y="-558.7"/>
<text text-anchor="start" x="338.6394" y="-548.8" font-family="Helvetica,sans-Serif" font-size="11.00" fill="#000000">asset_id</text>
<polygon fill="none" stroke="#000000" points="419.6394,-541.7 419.6394,-563.7 484.6394,-563.7 484.6394,-541.7 419.6394,-541.7"/>
<text text-anchor="start" x="422.6394" y="-549.4" font-family="Helvetica,sans-Serif" font-size="11.00" fill="#000000">int8[19]</text>
<polygon fill="#ffffff" stroke="transparent" points="318.6394,-519.7 318.6394,-541.7 419.6394,-541.7 419.6394,-519.7 318.6394,-519.7"/>
<polygon fill="none" stroke="#000000" points="318.6394,-519.7 318.6394,-541.7 419.6394,-541.7 419.6394,-519.7 318.6394,-519.7"/>
<image xlink:href="../../images/foreignKeys.png" width="11px" height="12px" preserveAspectRatio="xMinYMin meet" x="323.639" y="-536.7"/>
<text text-anchor="start" x="338.6394" y="-526.8" font-family="Helvetica,sans-Serif" font-size="11.00" fill="#000000">entity_type_id</text>
<polygon fill="none" stroke="#000000" points="419.6394,-519.7 419.6394,-541.7 484.6394,-541.7 484.6394,-519.7 419.6394,-519.7"/>
<text text-anchor="start" x="422.6394" y="-527.4" font-family="Helvetica,sans-Serif" font-size="11.00" fill="#000000">int8[19]</text>
<polygon fill="#ffffff" stroke="transparent" points="318.6394,-497.7 318.6394,-519.7 419.6394,-519.7 419.6394,-497.7 318.6394,-497.7"/>
<polygon fill="none" stroke="#000000" points="318.6394,-497.7 318.6394,-519.7 419.6394,-519.7 419.6394,-497.7 318.6394,-497.7"/>
<text text-anchor="start" x="338.6394" y="-504.8" font-family="Helvetica,sans-Serif" font-size="11.00" fill="#000000">entity_id</text>
<polygon fill="none" stroke="#000000" points="419.6394,-497.7 419.6394,-519.7 484.6394,-519.7 484.6394,-497.7 419.6394,-497.7"/>
<text text-anchor="start" x="422.6394" y="-505.4" font-family="Helvetica,sans-Serif" font-size="11.00" fill="#000000">int8[19]</text>
<polygon fill="#ffffff" stroke="transparent" points="318.6394,-478.7 318.6394,-497.7 373.6394,-497.7 373.6394,-478.7 318.6394,-478.7"/>
<polygon fill="none" stroke="#000000" points="318.6394,-478.7 318.6394,-497.7 373.6394,-497.7 373.6394,-478.7 318.6394,-478.7"/>
<text text-anchor="start" x="321.6394" y="-484.8" font-family="Helvetica,sans-Serif" font-size="11.00" fill="#000000">&lt; 2</text>
<polygon fill="#ffffff" stroke="transparent" points="373.6394,-478.7 373.6394,-497.7 419.6394,-497.7 419.6394,-478.7 373.6394,-478.7"/>
<polygon fill="none" stroke="#000000" points="373.6394,-478.7 373.6394,-497.7 419.6394,-497.7 419.6394,-478.7 373.6394,-478.7"/>
<text text-anchor="start" x="410.5256" y="-484.8" font-family="Helvetica,sans-Serif" font-size="11.00" fill="#000000"> &#160;</text>
<polygon fill="#ffffff" stroke="transparent" points="419.6394,-478.7 419.6394,-497.7 484.6394,-497.7 484.6394,-478.7 419.6394,-478.7"/>
<polygon fill="none" stroke="#000000" points="419.6394,-478.7 419.6394,-497.7 484.6394,-497.7 484.6394,-478.7 419.6394,-478.7"/>
<text text-anchor="start" x="466.0447" y="-484.8" font-family="Helvetica,sans-Serif" font-size="11.00" fill="#000000">0 &gt;</text>
<polygon fill="none" stroke="#000000" stroke-width="2" points="317.6394,-477.7 317.6394,-609.7 485.6394,-609.7 485.6394,-477.7 317.6394,-477.7"/>
</a>
</g>
</g>
<!-- asset_map&#45;&gt;asset -->
<g id="edge5" class="edge">
<title>asset_map:w&#45;&gt;asset:e</title>
<path fill="none" stroke="#000000" d="M304.1552,-553.1664C233.9387,-557.662 195.6868,-592.0835 139.6394,-542.7 65.0437,-476.9735 198.5602,-322.7 99.1394,-322.7"/>
<polygon fill="#000000" stroke="#000000" points="310.6436,-552.9575 318.7553,-556.2981 314.6415,-552.8288 318.6394,-552.7 318.6394,-552.7 318.6394,-552.7 314.6415,-552.8288 318.5235,-549.1019 310.6436,-552.9575 310.6436,-552.9575"/>
<ellipse fill="none" stroke="#000000" cx="307.4452" cy="-553.0605" rx="3.2" ry="3.2"/>
</g>
<!-- entity_type -->
<g id="node6" class="node">
<title>entity_type</title>
<g id="a_node6"><a xlink:href="../../tables/entity_type.html" xlink:title="entity_type" target="_top">
<polygon fill="#ffffff" stroke="transparent" points="159.6394,-445.7 159.6394,-531.7 255.6394,-531.7 255.6394,-445.7 159.6394,-445.7"/>
<polygon fill="#f5f5f5" stroke="transparent" points="159.6394,-508.7 159.6394,-531.7 255.6394,-531.7 255.6394,-508.7 159.6394,-508.7"/>
<polygon fill="none" stroke="#000000" points="159.6394,-508.7 159.6394,-531.7 255.6394,-531.7 255.6394,-508.7 159.6394,-508.7"/>
<text text-anchor="start" x="164.5464" y="-517.8" font-family="Helvetica,sans-Serif" font-weight="bold" font-size="11.00" fill="#000000">entity_type</text>
<text text-anchor="start" x="221.1613" y="-516.8" font-family="Helvetica,sans-Serif" font-size="11.00" fill="#000000">[table]</text>
<polygon fill="none" stroke="#000000" points="159.6394,-486.7 159.6394,-508.7 255.6394,-508.7 255.6394,-486.7 159.6394,-486.7"/>
<image xlink:href="../../images/primaryKeys.png" width="11px" height="12px" preserveAspectRatio="xMinYMin meet" x="164.639" y="-503.7"/>
<text text-anchor="start" x="185.6394" y="-493.8" font-family="Helvetica,sans-Serif" font-size="11.00" fill="#000000">id</text>
<polygon fill="#ffffff" stroke="transparent" points="159.6394,-464.7 159.6394,-486.7 255.6394,-486.7 255.6394,-464.7 159.6394,-464.7"/>
<polygon fill="none" stroke="#000000" points="159.6394,-464.7 159.6394,-486.7 255.6394,-486.7 255.6394,-464.7 159.6394,-464.7"/>
<text text-anchor="start" x="185.6394" y="-471.8" font-family="Helvetica,sans-Serif" font-size="11.00" fill="#000000">table</text>
<polygon fill="#ffffff" stroke="transparent" points="159.6394,-445.7 159.6394,-464.7 196.6394,-464.7 196.6394,-445.7 159.6394,-445.7"/>
<polygon fill="none" stroke="#000000" points="159.6394,-445.7 159.6394,-464.7 196.6394,-464.7 196.6394,-445.7 159.6394,-445.7"/>
<text text-anchor="start" x="162.6394" y="-451.8" font-family="Helvetica,sans-Serif" font-size="11.00" fill="#000000"> &#160;</text>
<polygon fill="#ffffff" stroke="transparent" points="196.6394,-445.7 196.6394,-464.7 221.6394,-464.7 221.6394,-445.7 196.6394,-445.7"/>
<polygon fill="none" stroke="#000000" points="196.6394,-445.7 196.6394,-464.7 221.6394,-464.7 221.6394,-445.7 196.6394,-445.7"/>
<text text-anchor="start" x="212.5256" y="-451.8" font-family="Helvetica,sans-Serif" font-size="11.00" fill="#000000"> &#160;</text>
<polygon fill="#ffffff" stroke="transparent" points="221.6394,-445.7 221.6394,-464.7 255.6394,-464.7 255.6394,-445.7 221.6394,-445.7"/>
<polygon fill="none" stroke="#000000" points="221.6394,-445.7 221.6394,-464.7 255.6394,-464.7 255.6394,-445.7 221.6394,-445.7"/>
<text text-anchor="start" x="237.0447" y="-451.8" font-family="Helvetica,sans-Serif" font-size="11.00" fill="#000000">3 &gt;</text>
</a>
</g>
</g>
<!-- asset_map&#45;&gt;entity_type -->
<g id="edge6" class="edge">
<title>asset_map:w&#45;&gt;entity_type:e</title>
<path fill="none" stroke="#000000" d="M304.3138,-527.8864C286.0813,-519.9061 281.5685,-497.7 255.6394,-497.7"/>
<polygon fill="#000000" stroke="#000000" points="310.7894,-529.1582 317.9456,-534.2325 314.7144,-529.9291 318.6394,-530.7 318.6394,-530.7 318.6394,-530.7 314.7144,-529.9291 319.3332,-527.1675 310.7894,-529.1582 310.7894,-529.1582"/>
<ellipse fill="none" stroke="#000000" cx="307.6494" cy="-528.5415" rx="3.2" ry="3.2"/>
</g>
<!-- audio_draft -->
<g id="node7" class="node">
<title>audio_draft</title>
<g id="a_node7"><a xlink:href="../../tables/audio_draft.html" xlink:title="audio_draft" target="_top">
<polygon fill="#ffffff" stroke="transparent" points="352.6394,-38.2 352.6394,-99.2 450.6394,-99.2 450.6394,-38.2 352.6394,-38.2"/>
<polygon fill="#f5f5f5" stroke="transparent" points="352.6394,-75.7 352.6394,-98.7 450.6394,-98.7 450.6394,-75.7 352.6394,-75.7"/>
<polygon fill="none" stroke="#000000" points="352.6394,-75.7 352.6394,-98.7 450.6394,-98.7 450.6394,-75.7 352.6394,-75.7"/>
<text text-anchor="start" x="357.629" y="-84.8" font-family="Helvetica,sans-Serif" font-weight="bold" font-size="11.00" fill="#000000">audio_draft</text>
<text text-anchor="start" x="416.1613" y="-83.8" font-family="Helvetica,sans-Serif" font-size="11.00" fill="#000000">[table]</text>
<polygon fill="none" stroke="#000000" points="352.6394,-56.7 352.6394,-75.7 450.6394,-75.7 450.6394,-56.7 352.6394,-56.7"/>
<text text-anchor="start" x="355.6394" y="-62.8" font-family="Helvetica,sans-Serif" font-size="11.00" fill="#000000">...</text>
<polygon fill="#ffffff" stroke="transparent" points="352.6394,-37.7 352.6394,-56.7 399.6394,-56.7 399.6394,-37.7 352.6394,-37.7"/>
<polygon fill="none" stroke="#000000" points="352.6394,-37.7 352.6394,-56.7 399.6394,-56.7 399.6394,-37.7 352.6394,-37.7"/>
<text text-anchor="start" x="355.6394" y="-43.8" font-family="Helvetica,sans-Serif" font-size="11.00" fill="#000000">&lt; 2</text>
<polygon fill="#ffffff" stroke="transparent" points="399.6394,-37.7 399.6394,-56.7 424.6394,-56.7 424.6394,-37.7 399.6394,-37.7"/>
<polygon fill="none" stroke="#000000" points="399.6394,-37.7 399.6394,-56.7 424.6394,-56.7 424.6394,-37.7 399.6394,-37.7"/>
<text text-anchor="start" x="415.5256" y="-43.8" font-family="Helvetica,sans-Serif" font-size="11.00" fill="#000000"> &#160;</text>
<polygon fill="#ffffff" stroke="transparent" points="424.6394,-37.7 424.6394,-56.7 450.6394,-56.7 450.6394,-37.7 424.6394,-37.7"/>
<polygon fill="none" stroke="#000000" points="424.6394,-37.7 424.6394,-56.7 450.6394,-56.7 450.6394,-37.7 424.6394,-37.7"/>
<text text-anchor="start" x="441.5256" y="-43.8" font-family="Helvetica,sans-Serif" font-size="11.00" fill="#000000"> &#160;</text>
</a>
</g>
</g>
<!-- audio_draft&#45;&gt;user -->
<g id="edge8" class="edge">
<title>audio_draft:w&#45;&gt;user:e</title>
<path fill="none" stroke="#000000" d="M338.2781,-67.4929C280.0235,-83.3941 312.2186,-199.7 239.6394,-199.7"/>
<polygon fill="#000000" stroke="#000000" points="344.701,-66.6911 353.0854,-69.2723 348.6702,-66.1956 352.6394,-65.7 352.6394,-65.7 352.6394,-65.7 348.6702,-66.1956 352.1934,-62.1277 344.701,-66.6911 344.701,-66.6911"/>
<ellipse fill="none" stroke="#000000" cx="341.5257" cy="-67.0876" rx="3.2" ry="3.2"/>
</g>
<!-- audio_draft&#45;&gt;asset -->
<g id="edge7" class="edge">
<title>audio_draft:w&#45;&gt;asset:e</title>
<path fill="none" stroke="#000000" d="M338.0394,-65.6198C249.3996,-64.6982 203.24,-57.3597 139.6394,-125.7 78.7434,-191.1343 188.5261,-322.7 99.1394,-322.7"/>
<polygon fill="#000000" stroke="#000000" points="344.6395,-65.656 352.6196,-69.2999 348.6395,-65.678 352.6394,-65.7 352.6394,-65.7 352.6394,-65.7 348.6395,-65.678 352.6592,-62.1001 344.6395,-65.656 344.6395,-65.656"/>
<ellipse fill="none" stroke="#000000" cx="341.4396" cy="-65.6384" rx="3.2" ry="3.2"/>
</g>
<!-- feedback_asset -->
<g id="node8" class="node">
<title>feedback_asset</title>
<g id="a_node8"><a xlink:href="../../tables/feedback_asset.html" xlink:title="feedback_asset" target="_top">
<polygon fill="#ffffff" stroke="transparent" points="147.6394,-659.2 147.6394,-720.2 267.6394,-720.2 267.6394,-659.2 147.6394,-659.2"/>
<polygon fill="#f5f5f5" stroke="transparent" points="147.6394,-696.7 147.6394,-719.7 267.6394,-719.7 267.6394,-696.7 147.6394,-696.7"/>
<polygon fill="none" stroke="#000000" points="147.6394,-696.7 147.6394,-719.7 267.6394,-719.7 267.6394,-696.7 147.6394,-696.7"/>
<text text-anchor="start" x="152.6229" y="-705.8" font-family="Helvetica,sans-Serif" font-weight="bold" font-size="11.00" fill="#000000">feedback_asset</text>
<text text-anchor="start" x="233.1613" y="-704.8" font-family="Helvetica,sans-Serif" font-size="11.00" fill="#000000">[table]</text>
<polygon fill="none" stroke="#000000" points="147.6394,-677.7 147.6394,-696.7 267.6394,-696.7 267.6394,-677.7 147.6394,-677.7"/>
<text text-anchor="start" x="150.6394" y="-683.8" font-family="Helvetica,sans-Serif" font-size="11.00" fill="#000000">...</text>
<polygon fill="#ffffff" stroke="transparent" points="147.6394,-658.7 147.6394,-677.7 205.6394,-677.7 205.6394,-658.7 147.6394,-658.7"/>
<polygon fill="none" stroke="#000000" points="147.6394,-658.7 147.6394,-677.7 205.6394,-677.7 205.6394,-658.7 147.6394,-658.7"/>
<text text-anchor="start" x="150.6394" y="-664.8" font-family="Helvetica,sans-Serif" font-size="11.00" fill="#000000">&lt; 2</text>
<polygon fill="#ffffff" stroke="transparent" points="205.6394,-658.7 205.6394,-677.7 236.6394,-677.7 236.6394,-658.7 205.6394,-658.7"/>
<polygon fill="none" stroke="#000000" points="205.6394,-658.7 205.6394,-677.7 236.6394,-677.7 236.6394,-658.7 205.6394,-658.7"/>
<text text-anchor="start" x="227.5256" y="-664.8" font-family="Helvetica,sans-Serif" font-size="11.00" fill="#000000"> &#160;</text>
<polygon fill="#ffffff" stroke="transparent" points="236.6394,-658.7 236.6394,-677.7 267.6394,-677.7 267.6394,-658.7 236.6394,-658.7"/>
<polygon fill="none" stroke="#000000" points="236.6394,-658.7 236.6394,-677.7 267.6394,-677.7 267.6394,-658.7 236.6394,-658.7"/>
<text text-anchor="start" x="258.5256" y="-664.8" font-family="Helvetica,sans-Serif" font-size="11.00" fill="#000000"> &#160;</text>
</a>
</g>
</g>
<!-- feedback_asset&#45;&gt;asset -->
<g id="edge12" class="edge">
<title>feedback_asset:w&#45;&gt;asset:e</title>
<path fill="none" stroke="#000000" d="M133.8645,-682.0977C80.4046,-639.9614 175.3242,-322.7 99.1394,-322.7"/>
<polygon fill="#000000" stroke="#000000" points="140.0517,-684.1649 146.4986,-690.1145 143.8456,-685.4324 147.6394,-686.7 147.6394,-686.7 147.6394,-686.7 143.8456,-685.4324 148.7802,-683.2855 140.0517,-684.1649 140.0517,-684.1649"/>
<ellipse fill="none" stroke="#000000" cx="137.0166" cy="-683.1508" rx="3.2" ry="3.2"/>
</g>
<!-- notice_entity -->
<g id="node9" class="node">
<title>notice_entity</title>
<g id="a_node9"><a xlink:href="../../tables/notice_entity.html" xlink:title="notice_entity" target="_top">
<polygon fill="#ffffff" stroke="transparent" points="349.6394,-394.2 349.6394,-455.2 453.6394,-455.2 453.6394,-394.2 349.6394,-394.2"/>
<polygon fill="#f5f5f5" stroke="transparent" points="349.6394,-431.7 349.6394,-454.7 453.6394,-454.7 453.6394,-431.7 349.6394,-431.7"/>
<polygon fill="none" stroke="#000000" points="349.6394,-431.7 349.6394,-454.7 453.6394,-454.7 453.6394,-431.7 349.6394,-431.7"/>
<text text-anchor="start" x="354.2685" y="-440.8" font-family="Helvetica,sans-Serif" font-weight="bold" font-size="11.00" fill="#000000">notice_entity</text>
<text text-anchor="start" x="419.1613" y="-439.8" font-family="Helvetica,sans-Serif" font-size="11.00" fill="#000000">[table]</text>
<polygon fill="none" stroke="#000000" points="349.6394,-412.7 349.6394,-431.7 453.6394,-431.7 453.6394,-412.7 349.6394,-412.7"/>
<text text-anchor="start" x="352.6394" y="-418.8" font-family="Helvetica,sans-Serif" font-size="11.00" fill="#000000">...</text>
<polygon fill="#ffffff" stroke="transparent" points="349.6394,-393.7 349.6394,-412.7 399.6394,-412.7 399.6394,-393.7 349.6394,-393.7"/>
<polygon fill="none" stroke="#000000" points="349.6394,-393.7 349.6394,-412.7 399.6394,-412.7 399.6394,-393.7 349.6394,-393.7"/>
<text text-anchor="start" x="352.6394" y="-399.8" font-family="Helvetica,sans-Serif" font-size="11.00" fill="#000000">&lt; 2</text>
<polygon fill="#ffffff" stroke="transparent" points="399.6394,-393.7 399.6394,-412.7 426.6394,-412.7 426.6394,-393.7 399.6394,-393.7"/>
<polygon fill="none" stroke="#000000" points="399.6394,-393.7 399.6394,-412.7 426.6394,-412.7 426.6394,-393.7 399.6394,-393.7"/>
<text text-anchor="start" x="417.5256" y="-399.8" font-family="Helvetica,sans-Serif" font-size="11.00" fill="#000000"> &#160;</text>
<polygon fill="#ffffff" stroke="transparent" points="426.6394,-393.7 426.6394,-412.7 453.6394,-412.7 453.6394,-393.7 426.6394,-393.7"/>
<polygon fill="none" stroke="#000000" points="426.6394,-393.7 426.6394,-412.7 453.6394,-412.7 453.6394,-393.7 426.6394,-393.7"/>
<text text-anchor="start" x="444.5256" y="-399.8" font-family="Helvetica,sans-Serif" font-size="11.00" fill="#000000"> &#160;</text>
</a>
</g>
</g>
<!-- notice_entity&#45;&gt;entity_type -->
<g id="edge13" class="edge">
<title>notice_entity:w&#45;&gt;entity_type:e</title>
<path fill="none" stroke="#000000" d="M335.2082,-423.8926C297.9539,-436.3536 303.9075,-497.7 255.6394,-497.7"/>
<polygon fill="#000000" stroke="#000000" points="341.7302,-422.9017 350.1802,-425.2592 345.6848,-422.3009 349.6394,-421.7 349.6394,-421.7 349.6394,-421.7 345.6848,-422.3009 349.0987,-418.1408 341.7302,-422.9017 341.7302,-422.9017"/>
<ellipse fill="none" stroke="#000000" cx="338.5665" cy="-423.3824" rx="3.2" ry="3.2"/>
</g>
<!-- oauth_client -->
<g id="node10" class="node">
<title>oauth_client</title>
<g id="a_node10"><a xlink:href="../../tables/oauth_client.html" xlink:title="oauth_client" target="_top">
<polygon fill="#ffffff" stroke="transparent" points="350.6394,-312.2 350.6394,-373.2 452.6394,-373.2 452.6394,-312.2 350.6394,-312.2"/>
<polygon fill="#f5f5f5" stroke="transparent" points="350.6394,-349.7 350.6394,-372.7 452.6394,-372.7 452.6394,-349.7 350.6394,-349.7"/>
<polygon fill="none" stroke="#000000" points="350.6394,-349.7 350.6394,-372.7 452.6394,-372.7 452.6394,-349.7 350.6394,-349.7"/>
<text text-anchor="start" x="355.4895" y="-358.8" font-family="Helvetica,sans-Serif" font-weight="bold" font-size="11.00" fill="#000000">oauth_client</text>
<text text-anchor="start" x="418.1613" y="-357.8" font-family="Helvetica,sans-Serif" font-size="11.00" fill="#000000">[table]</text>
<polygon fill="none" stroke="#000000" points="350.6394,-330.7 350.6394,-349.7 452.6394,-349.7 452.6394,-330.7 350.6394,-330.7"/>
<text text-anchor="start" x="353.6394" y="-336.8" font-family="Helvetica,sans-Serif" font-size="11.00" fill="#000000">...</text>
<polygon fill="#ffffff" stroke="transparent" points="350.6394,-311.7 350.6394,-330.7 395.6394,-330.7 395.6394,-311.7 350.6394,-311.7"/>
<polygon fill="none" stroke="#000000" points="350.6394,-311.7 350.6394,-330.7 395.6394,-330.7 395.6394,-311.7 350.6394,-311.7"/>
<text text-anchor="start" x="353.6394" y="-317.8" font-family="Helvetica,sans-Serif" font-size="11.00" fill="#000000">&lt; 2</text>
<polygon fill="#ffffff" stroke="transparent" points="395.6394,-311.7 395.6394,-330.7 419.6394,-330.7 419.6394,-311.7 395.6394,-311.7"/>
<polygon fill="none" stroke="#000000" points="395.6394,-311.7 395.6394,-330.7 419.6394,-330.7 419.6394,-311.7 395.6394,-311.7"/>
<text text-anchor="start" x="410.5256" y="-317.8" font-family="Helvetica,sans-Serif" font-size="11.00" fill="#000000"> &#160;</text>
<polygon fill="#ffffff" stroke="transparent" points="419.6394,-311.7 419.6394,-330.7 452.6394,-330.7 452.6394,-311.7 419.6394,-311.7"/>
<polygon fill="none" stroke="#000000" points="419.6394,-311.7 419.6394,-330.7 452.6394,-330.7 452.6394,-311.7 419.6394,-311.7"/>
<text text-anchor="start" x="434.0447" y="-317.8" font-family="Helvetica,sans-Serif" font-size="11.00" fill="#000000">3 &gt;</text>
</a>
</g>
</g>
<!-- oauth_client&#45;&gt;user -->
<g id="edge15" class="edge">
<title>oauth_client:w&#45;&gt;user:e</title>
<path fill="none" stroke="#000000" d="M336.0571,-337.8268C277.1754,-321.2136 313.6177,-199.7 239.6394,-199.7"/>
<polygon fill="#000000" stroke="#000000" points="342.7046,-338.6807 350.1807,-343.2707 346.672,-339.1903 350.6394,-339.7 350.6394,-339.7 350.6394,-339.7 346.672,-339.1903 351.0981,-336.1293 342.7046,-338.6807 342.7046,-338.6807"/>
<ellipse fill="none" stroke="#000000" cx="339.5307" cy="-338.2729" rx="3.2" ry="3.2"/>
</g>
<!-- oauth_client&#45;&gt;asset -->
<g id="edge14" class="edge">
<title>oauth_client:w&#45;&gt;asset:e</title>
<path fill="none" stroke="#000000" d="M336.2202,-341.9575C307.7952,-352.0944 312.3702,-393.5277 275.6394,-407.7 219.2471,-429.4586 190.7523,-439.9645 139.6394,-407.7 104.253,-385.3626 140.9863,-322.7 99.1394,-322.7"/>
<polygon fill="#000000" stroke="#000000" points="342.7357,-340.9375 351.1963,-343.2567 346.6876,-340.3187 350.6394,-339.7 350.6394,-339.7 350.6394,-339.7 346.6876,-340.3187 350.0826,-336.1433 342.7357,-340.9375 342.7357,-340.9375"/>
<ellipse fill="none" stroke="#000000" cx="339.5742" cy="-341.4325" rx="3.2" ry="3.2"/>
</g>
<!-- release -->
<g id="node11" class="node">
<title>release</title>
<g id="a_node11"><a xlink:href="../../tables/release.html" xlink:title="release" target="_top">
<polygon fill="#ffffff" stroke="transparent" points="168.1394,-336.2 168.1394,-397.2 247.1394,-397.2 247.1394,-336.2 168.1394,-336.2"/>
<polygon fill="#f5f5f5" stroke="transparent" points="168.6394,-373.7 168.6394,-396.7 247.6394,-396.7 247.6394,-373.7 168.6394,-373.7"/>
<polygon fill="none" stroke="#000000" points="168.6394,-373.7 168.6394,-396.7 247.6394,-396.7 247.6394,-373.7 168.6394,-373.7"/>
<text text-anchor="start" x="173.6082" y="-382.8" font-family="Helvetica,sans-Serif" font-weight="bold" font-size="11.00" fill="#000000">release</text>
<text text-anchor="start" x="213.1613" y="-381.8" font-family="Helvetica,sans-Serif" font-size="11.00" fill="#000000">[table]</text>
<polygon fill="none" stroke="#000000" points="168.6394,-354.7 168.6394,-373.7 247.6394,-373.7 247.6394,-354.7 168.6394,-354.7"/>
<text text-anchor="start" x="171.6394" y="-360.8" font-family="Helvetica,sans-Serif" font-size="11.00" fill="#000000">...</text>
<polygon fill="#ffffff" stroke="transparent" points="168.6394,-335.7 168.6394,-354.7 206.6394,-354.7 206.6394,-335.7 168.6394,-335.7"/>
<polygon fill="none" stroke="#000000" points="168.6394,-335.7 168.6394,-354.7 206.6394,-354.7 206.6394,-335.7 168.6394,-335.7"/>
<text text-anchor="start" x="171.6394" y="-341.8" font-family="Helvetica,sans-Serif" font-size="11.00" fill="#000000">&lt; 1</text>
<polygon fill="#ffffff" stroke="transparent" points="206.6394,-335.7 206.6394,-354.7 226.6394,-354.7 226.6394,-335.7 206.6394,-335.7"/>
<polygon fill="none" stroke="#000000" points="206.6394,-335.7 206.6394,-354.7 226.6394,-354.7 226.6394,-335.7 206.6394,-335.7"/>
<text text-anchor="start" x="217.5256" y="-341.8" font-family="Helvetica,sans-Serif" font-size="11.00" fill="#000000"> &#160;</text>
<polygon fill="#ffffff" stroke="transparent" points="226.6394,-335.7 226.6394,-354.7 247.6394,-354.7 247.6394,-335.7 226.6394,-335.7"/>
<polygon fill="none" stroke="#000000" points="226.6394,-335.7 226.6394,-354.7 247.6394,-354.7 247.6394,-335.7 226.6394,-335.7"/>
<text text-anchor="start" x="238.5256" y="-341.8" font-family="Helvetica,sans-Serif" font-size="11.00" fill="#000000"> &#160;</text>
</a>
</g>
</g>
<!-- release&#45;&gt;asset -->
<g id="edge16" class="edge">
<title>release:w&#45;&gt;asset:e</title>
<path fill="none" stroke="#000000" d="M154.3277,-361.0099C132.542,-351.8885 129.399,-322.7 99.1394,-322.7"/>
<polygon fill="#000000" stroke="#000000" points="160.7771,-362.2221 167.9744,-367.238 164.7083,-362.9611 168.6394,-363.7 168.6394,-363.7 168.6394,-363.7 164.7083,-362.9611 169.3045,-360.162 160.7771,-362.2221 160.7771,-362.2221"/>
<ellipse fill="none" stroke="#000000" cx="157.6322" cy="-361.6309" rx="3.2" ry="3.2"/>
</g>
<!-- report_asset -->
<g id="node12" class="node">
<title>report_asset</title>
<g id="a_node12"><a xlink:href="../../tables/report_asset.html" xlink:title="report_asset" target="_top">
<polygon fill="#ffffff" stroke="transparent" points="155.6394,-254.2 155.6394,-315.2 259.6394,-315.2 259.6394,-254.2 155.6394,-254.2"/>
<polygon fill="#f5f5f5" stroke="transparent" points="155.6394,-291.7 155.6394,-314.7 259.6394,-314.7 259.6394,-291.7 155.6394,-291.7"/>
<polygon fill="none" stroke="#000000" points="155.6394,-291.7 155.6394,-314.7 259.6394,-314.7 259.6394,-291.7 155.6394,-291.7"/>
<text text-anchor="start" x="160.5759" y="-300.8" font-family="Helvetica,sans-Serif" font-weight="bold" font-size="11.00" fill="#000000">report_asset</text>
<text text-anchor="start" x="225.1613" y="-299.8" font-family="Helvetica,sans-Serif" font-size="11.00" fill="#000000">[table]</text>
<polygon fill="none" stroke="#000000" points="155.6394,-272.7 155.6394,-291.7 259.6394,-291.7 259.6394,-272.7 155.6394,-272.7"/>
<text text-anchor="start" x="158.6394" y="-278.8" font-family="Helvetica,sans-Serif" font-size="11.00" fill="#000000">...</text>
<polygon fill="#ffffff" stroke="transparent" points="155.6394,-253.7 155.6394,-272.7 205.6394,-272.7 205.6394,-253.7 155.6394,-253.7"/>
<polygon fill="none" stroke="#000000" points="155.6394,-253.7 155.6394,-272.7 205.6394,-272.7 205.6394,-253.7 155.6394,-253.7"/>
<text text-anchor="start" x="158.6394" y="-259.8" font-family="Helvetica,sans-Serif" font-size="11.00" fill="#000000">&lt; 2</text>
<polygon fill="#ffffff" stroke="transparent" points="205.6394,-253.7 205.6394,-272.7 232.6394,-272.7 232.6394,-253.7 205.6394,-253.7"/>
<polygon fill="none" stroke="#000000" points="205.6394,-253.7 205.6394,-272.7 232.6394,-272.7 232.6394,-253.7 205.6394,-253.7"/>
<text text-anchor="start" x="223.5256" y="-259.8" font-family="Helvetica,sans-Serif" font-size="11.00" fill="#000000"> &#160;</text>
<polygon fill="#ffffff" stroke="transparent" points="232.6394,-253.7 232.6394,-272.7 259.6394,-272.7 259.6394,-253.7 232.6394,-253.7"/>
<polygon fill="none" stroke="#000000" points="232.6394,-253.7 232.6394,-272.7 259.6394,-272.7 259.6394,-253.7 232.6394,-253.7"/>
<text text-anchor="start" x="250.5256" y="-259.8" font-family="Helvetica,sans-Serif" font-size="11.00" fill="#000000"> &#160;</text>
</a>
</g>
</g>
<!-- report_asset&#45;&gt;asset -->
<g id="edge17" class="edge">
<title>report_asset:w&#45;&gt;asset:e</title>
<path fill="none" stroke="#000000" d="M141.5629,-285.4837C125.4095,-295.6336 124.3481,-322.7 99.1394,-322.7"/>
<polygon fill="#000000" stroke="#000000" points="147.9137,-283.7767 156.5739,-285.1766 151.7765,-282.7383 155.6394,-281.7 155.6394,-281.7 155.6394,-281.7 151.7765,-282.7383 154.7049,-278.2234 147.9137,-283.7767 147.9137,-283.7767"/>
<ellipse fill="none" stroke="#000000" cx="144.8233" cy="-284.6074" rx="3.2" ry="3.2"/>
</g>
<!-- transaction -->
<g id="node13" class="node">
<title>transaction</title>
<g id="a_node13"><a xlink:href="../../tables/transaction.html" xlink:title="transaction" target="_top">
<polygon fill="#ffffff" stroke="transparent" points="353.6394,-230.2 353.6394,-291.2 449.6394,-291.2 449.6394,-230.2 353.6394,-230.2"/>
<polygon fill="#f5f5f5" stroke="transparent" points="353.6394,-267.7 353.6394,-290.7 449.6394,-290.7 449.6394,-267.7 353.6394,-267.7"/>
<polygon fill="none" stroke="#000000" points="353.6394,-267.7 353.6394,-290.7 449.6394,-290.7 449.6394,-267.7 353.6394,-267.7"/>
<text text-anchor="start" x="358.2439" y="-276.8" font-family="Helvetica,sans-Serif" font-weight="bold" font-size="11.00" fill="#000000">transaction</text>
<text text-anchor="start" x="415.1613" y="-275.8" font-family="Helvetica,sans-Serif" font-size="11.00" fill="#000000">[table]</text>
<polygon fill="none" stroke="#000000" points="353.6394,-248.7 353.6394,-267.7 449.6394,-267.7 449.6394,-248.7 353.6394,-248.7"/>
<text text-anchor="start" x="356.6394" y="-254.8" font-family="Helvetica,sans-Serif" font-size="11.00" fill="#000000">...</text>
<polygon fill="#ffffff" stroke="transparent" points="353.6394,-229.7 353.6394,-248.7 399.6394,-248.7 399.6394,-229.7 353.6394,-229.7"/>
<polygon fill="none" stroke="#000000" points="353.6394,-229.7 353.6394,-248.7 399.6394,-248.7 399.6394,-229.7 353.6394,-229.7"/>
<text text-anchor="start" x="356.6394" y="-235.8" font-family="Helvetica,sans-Serif" font-size="11.00" fill="#000000">&lt; 3</text>
<polygon fill="#ffffff" stroke="transparent" points="399.6394,-229.7 399.6394,-248.7 424.6394,-248.7 424.6394,-229.7 399.6394,-229.7"/>
<polygon fill="none" stroke="#000000" points="399.6394,-229.7 399.6394,-248.7 424.6394,-248.7 424.6394,-229.7 399.6394,-229.7"/>
<text text-anchor="start" x="415.5256" y="-235.8" font-family="Helvetica,sans-Serif" font-size="11.00" fill="#000000"> &#160;</text>
<polygon fill="#ffffff" stroke="transparent" points="424.6394,-229.7 424.6394,-248.7 449.6394,-248.7 449.6394,-229.7 424.6394,-229.7"/>
<polygon fill="none" stroke="#000000" points="424.6394,-229.7 424.6394,-248.7 449.6394,-248.7 449.6394,-229.7 424.6394,-229.7"/>
<text text-anchor="start" x="440.5256" y="-235.8" font-family="Helvetica,sans-Serif" font-size="11.00" fill="#000000"> &#160;</text>
</a>
</g>
</g>
<!-- transaction&#45;&gt;user -->
<g id="edge18" class="edge">
<title>transaction:w&#45;&gt;user:e</title>
<path fill="none" stroke="#000000" d="M339.3261,-254.8228C296.2597,-241.5909 291.2682,-194.2508 239.6394,-199.7"/>
<polygon fill="#000000" stroke="#000000" points="345.7963,-256.1234 352.9299,-261.2294 349.7179,-256.9117 353.6394,-257.7 353.6394,-257.7 353.6394,-257.7 349.7179,-256.9117 354.3489,-254.1706 345.7963,-256.1234 345.7963,-256.1234"/>
<ellipse fill="none" stroke="#000000" cx="342.6591" cy="-255.4927" rx="3.2" ry="3.2"/>
</g>
<!-- transaction&#45;&gt;user -->
<g id="edge19" class="edge">
<title>transaction:w&#45;&gt;user:e</title>
<path fill="none" stroke="#000000" d="M339.0488,-258.0505C296.238,-254.2732 291.1572,-206.0438 239.6394,-199.7"/>
<polygon fill="#000000" stroke="#000000" points="345.6417,-257.8922 353.7259,-261.299 349.6406,-257.7961 353.6394,-257.7 353.6394,-257.7 353.6394,-257.7 349.6406,-257.7961 353.553,-254.101 345.6417,-257.8922 345.6417,-257.8922"/>
<ellipse fill="none" stroke="#000000" cx="342.4427" cy="-257.969" rx="3.2" ry="3.2"/>
</g>
<!-- transaction&#45;&gt;entity_type -->
<g id="edge20" class="edge">
<title>transaction:w&#45;&gt;entity_type:e</title>
<path fill="none" stroke="#000000" d="M339.2919,-259.1704C250.0581,-279.2257 365.5678,-497.7 255.6394,-497.7"/>
<polygon fill="#000000" stroke="#000000" points="345.6811,-258.5156 354.0065,-261.2812 349.6603,-258.1078 353.6394,-257.7 353.6394,-257.7 353.6394,-257.7 349.6603,-258.1078 353.2724,-254.1188 345.6811,-258.5156 345.6811,-258.5156"/>
<ellipse fill="none" stroke="#000000" cx="342.4978" cy="-258.8419" rx="3.2" ry="3.2"/>
</g>
</g>
</svg>
