<?xml version="1.0" encoding="UTF-8" standalone="no"?>
<!DOCTYPE svg PUBLIC "-//W3C//DTD SVG 1.1//EN"
 "http://www.w3.org/Graphics/SVG/1.1/DTD/svg11.dtd">
<!-- Generated by graphviz version 2.40.1 (20161225.0304)
 -->
<!-- Title: oneDegreeRelationshipsDiagram Pages: 1 -->
<svg width="339pt" height="285pt"
 viewBox="0.00 0.00 339.00 284.70" xmlns="http://www.w3.org/2000/svg" xmlns:xlink="http://www.w3.org/1999/xlink">
<g id="graph0" class="graph" transform="scale(1 1) rotate(0) translate(4 280.7)">
<title>oneDegreeRelationshipsDiagram</title>
<polygon fill="#ffffff" stroke="transparent" points="-4,4 -4,-280.7 335,-280.7 335,4 -4,4"/>
<text text-anchor="middle" x="72.4936" y="-7.3" font-family="Helvetica,sans-Serif" font-size="11.00" fill="#000000">Generated by SchemaSpy</text>
<!-- asset_map -->
<g id="node1" class="node">
<title>asset_map</title>
<g id="a_node1"><a xlink:href="../../tables/asset_map.html" xlink:title="asset_map" target="_top">
<polygon fill="#ffffff" stroke="transparent" points="153,-99.2 153,-233.2 323,-233.2 323,-99.2 153,-99.2"/>
<polygon fill="#f5f5f5" stroke="transparent" points="155,-208.2 155,-231.2 321,-231.2 321,-208.2 155,-208.2"/>
<polygon fill="none" stroke="#000000" points="155,-208.2 155,-231.2 321,-231.2 321,-208.2 155,-208.2"/>
<text text-anchor="start" x="160" y="-217.3" font-family="Helvetica,sans-Serif" font-weight="bold" font-size="11.00" fill="#000000">asset_map</text>
<text text-anchor="start" x="286.0437" y="-216.3" font-family="Helvetica,sans-Serif" font-size="11.00" fill="#000000">[table]</text>
<polygon fill="none" stroke="#000000" points="155,-186.2 155,-208.2 256,-208.2 256,-186.2 155,-186.2"/>
<image xlink:href="../../images/primaryKeys.png" width="11px" height="12px" preserveAspectRatio="xMinYMin meet" x="160" y="-203.2"/>
<text text-anchor="start" x="175" y="-193.3" font-family="Helvetica,sans-Serif" font-size="11.00" fill="#000000">id</text>
<polygon fill="none" stroke="#000000" points="256,-186.2 256,-208.2 321,-208.2 321,-186.2 256,-186.2"/>
<text text-anchor="start" x="258.8561" y="-193.9" font-family="Helvetica,sans-Serif" font-size="11.00" fill="#000000">bigserial[19]</text>
<polygon fill="#ffffff" stroke="transparent" points="155,-164.2 155,-186.2 256,-186.2 256,-164.2 155,-164.2"/>
<polygon fill="none" stroke="#000000" points="155,-164.2 155,-186.2 256,-186.2 256,-164.2 155,-164.2"/>
<image xlink:href="../../images/foreignKeys.png" width="11px" height="12px" preserveAspectRatio="xMinYMin meet" x="160" y="-181.2"/>
<text text-anchor="start" x="175" y="-171.3" font-family="Helvetica,sans-Serif" font-size="11.00" fill="#000000">asset_id</text>
<polygon fill="none" stroke="#000000" points="256,-164.2 256,-186.2 321,-186.2 321,-164.2 256,-164.2"/>
<text text-anchor="start" x="259" y="-171.9" font-family="Helvetica,sans-Serif" font-size="11.00" fill="#000000">int8[19]</text>
<polygon fill="#ffffff" stroke="transparent" points="155,-142.2 155,-164.2 256,-164.2 256,-142.2 155,-142.2"/>
<polygon fill="none" stroke="#000000" points="155,-142.2 155,-164.2 256,-164.2 256,-142.2 155,-142.2"/>
<image xlink:href="../../images/foreignKeys.png" width="11px" height="12px" preserveAspectRatio="xMinYMin meet" x="160" y="-159.2"/>
<text text-anchor="start" x="175" y="-149.3" font-family="Helvetica,sans-Serif" font-size="11.00" fill="#000000">entity_type_id</text>
<polygon fill="none" stroke="#000000" points="256,-142.2 256,-164.2 321,-164.2 321,-142.2 256,-142.2"/>
<text text-anchor="start" x="259" y="-149.9" font-family="Helvetica,sans-Serif" font-size="11.00" fill="#000000">int8[19]</text>
<polygon fill="#ffffff" stroke="transparent" points="155,-120.2 155,-142.2 256,-142.2 256,-120.2 155,-120.2"/>
<polygon fill="none" stroke="#000000" points="155,-120.2 155,-142.2 256,-142.2 256,-120.2 155,-120.2"/>
<text text-anchor="start" x="175" y="-127.3" font-family="Helvetica,sans-Serif" font-size="11.00" fill="#000000">entity_id</text>
<polygon fill="none" stroke="#000000" points="256,-120.2 256,-142.2 321,-142.2 321,-120.2 256,-120.2"/>
<text text-anchor="start" x="259" y="-127.9" font-family="Helvetica,sans-Serif" font-size="11.00" fill="#000000">int8[19]</text>
<polygon fill="#ffffff" stroke="transparent" points="155,-101.2 155,-120.2 210,-120.2 210,-101.2 155,-101.2"/>
<polygon fill="none" stroke="#000000" points="155,-101.2 155,-120.2 210,-120.2 210,-101.2 155,-101.2"/>
<text text-anchor="start" x="158" y="-107.3" font-family="Helvetica,sans-Serif" font-size="11.00" fill="#000000">&lt; 2</text>
<polygon fill="#ffffff" stroke="transparent" points="210,-101.2 210,-120.2 256,-120.2 256,-101.2 210,-101.2"/>
<polygon fill="none" stroke="#000000" points="210,-101.2 210,-120.2 256,-120.2 256,-101.2 210,-101.2"/>
<text text-anchor="start" x="246.8862" y="-107.3" font-family="Helvetica,sans-Serif" font-size="11.00" fill="#000000"> &#160;</text>
<polygon fill="#ffffff" stroke="transparent" points="256,-101.2 256,-120.2 321,-120.2 321,-101.2 256,-101.2"/>
<polygon fill="none" stroke="#000000" points="256,-101.2 256,-120.2 321,-120.2 321,-101.2 256,-101.2"/>
<text text-anchor="start" x="302.4053" y="-107.3" font-family="Helvetica,sans-Serif" font-size="11.00" fill="#000000">0 &gt;</text>
<polygon fill="none" stroke="#000000" stroke-width="2" points="154,-100.2 154,-232.2 322,-232.2 322,-100.2 154,-100.2"/>
</a>
</g>
</g>
<!-- asset -->
<g id="node2" class="node">
<title>asset</title>
<g id="a_node2"><a xlink:href="../../tables/asset.html" xlink:title="asset" target="_top">
<polygon fill="#ffffff" stroke="transparent" points="13.5,-145.7 13.5,-272.7 98.5,-272.7 98.5,-145.7 13.5,-145.7"/>
<polygon fill="#f5f5f5" stroke="transparent" points="14,-249.2 14,-272.2 99,-272.2 99,-249.2 14,-249.2"/>
<polygon fill="none" stroke="#000000" points="14,-249.2 14,-272.2 99,-272.2 99,-249.2 14,-249.2"/>
<text text-anchor="start" x="19" y="-258.3" font-family="Helvetica,sans-Serif" font-weight="bold" font-size="11.00" fill="#000000">asset</text>
<text text-anchor="start" x="64.0437" y="-257.3" font-family="Helvetica,sans-Serif" font-size="11.00" fill="#000000">[table]</text>
<polygon fill="none" stroke="#000000" points="14,-227.2 14,-249.2 99,-249.2 99,-227.2 14,-227.2"/>
<image xlink:href="../../images/primaryKeys.png" width="11px" height="12px" preserveAspectRatio="xMinYMin meet" x="19" y="-244.2"/>
<text text-anchor="start" x="34" y="-234.3" font-family="Helvetica,sans-Serif" font-size="11.00" fill="#000000">id</text>
<polygon fill="#ffffff" stroke="transparent" points="14,-205.2 14,-227.2 99,-227.2 99,-205.2 14,-205.2"/>
<polygon fill="none" stroke="#000000" points="14,-205.2 14,-227.2 99,-227.2 99,-205.2 14,-205.2"/>
<text text-anchor="start" x="34" y="-212.3" font-family="Helvetica,sans-Serif" font-size="11.00" fill="#000000">uuid</text>
<polygon fill="none" stroke="#000000" points="14,-183.2 14,-205.2 99,-205.2 99,-183.2 14,-183.2"/>
<image xlink:href="../../images/foreignKeys.png" width="11px" height="12px" preserveAspectRatio="xMinYMin meet" x="19" y="-200.2"/>
<text text-anchor="start" x="34" y="-190.3" font-family="Helvetica,sans-Serif" font-size="11.00" fill="#000000">author_id</text>
<polygon fill="none" stroke="#000000" points="14,-164.2 14,-183.2 99,-183.2 99,-164.2 14,-164.2"/>
<text text-anchor="start" x="17" y="-170.3" font-family="Helvetica,sans-Serif" font-size="11.00" fill="#000000">...</text>
<polygon fill="#ffffff" stroke="transparent" points="14,-145.2 14,-164.2 50,-164.2 50,-145.2 14,-145.2"/>
<polygon fill="none" stroke="#000000" points="14,-145.2 14,-164.2 50,-164.2 50,-145.2 14,-145.2"/>
<text text-anchor="start" x="17" y="-151.3" font-family="Helvetica,sans-Serif" font-size="11.00" fill="#000000">&lt; 1</text>
<polygon fill="#ffffff" stroke="transparent" points="50,-145.2 50,-164.2 70,-164.2 70,-145.2 50,-145.2"/>
<polygon fill="none" stroke="#000000" points="50,-145.2 50,-164.2 70,-164.2 70,-145.2 50,-145.2"/>
<text text-anchor="start" x="60.8862" y="-151.3" font-family="Helvetica,sans-Serif" font-size="11.00" fill="#000000"> &#160;</text>
<polygon fill="#ffffff" stroke="transparent" points="70,-145.2 70,-164.2 99,-164.2 99,-145.2 70,-145.2"/>
<polygon fill="none" stroke="#000000" points="70,-145.2 70,-164.2 99,-164.2 99,-145.2 70,-145.2"/>
<text text-anchor="start" x="80.4053" y="-151.3" font-family="Helvetica,sans-Serif" font-size="11.00" fill="#000000">9 &gt;</text>
</a>
</g>
</g>
<!-- asset_map&#45;&gt;asset -->
<g id="edge1" class="edge">
<title>asset_map:w&#45;&gt;asset:e</title>
<path fill="none" stroke="#000000" d="M141.1391,-179.3336C122.0748,-193.3494 130.6092,-238.2 99,-238.2"/>
<polygon fill="#000000" stroke="#000000" points="147.3336,-177.4863 156.0288,-178.6499 151.1668,-176.3432 155,-175.2 155,-175.2 155,-175.2 151.1668,-176.3432 153.9712,-171.7501 147.3336,-177.4863 147.3336,-177.4863"/>
<ellipse fill="none" stroke="#000000" cx="144.2671" cy="-178.4008" rx="3.2" ry="3.2"/>
</g>
<!-- entity_type -->
<g id="node3" class="node">
<title>entity_type</title>
<g id="a_node3"><a xlink:href="../../tables/entity_type.html" xlink:title="entity_type" target="_top">
<polygon fill="#ffffff" stroke="transparent" points="8,-38.2 8,-124.2 104,-124.2 104,-38.2 8,-38.2"/>
<polygon fill="#f5f5f5" stroke="transparent" points="8,-101.2 8,-124.2 104,-124.2 104,-101.2 8,-101.2"/>
<polygon fill="none" stroke="#000000" points="8,-101.2 8,-124.2 104,-124.2 104,-101.2 8,-101.2"/>
<text text-anchor="start" x="12.907" y="-110.3" font-family="Helvetica,sans-Serif" font-weight="bold" font-size="11.00" fill="#000000">entity_type</text>
<text text-anchor="start" x="69.5219" y="-109.3" font-family="Helvetica,sans-Serif" font-size="11.00" fill="#000000">[table]</text>
<polygon fill="none" stroke="#000000" points="8,-79.2 8,-101.2 104,-101.2 104,-79.2 8,-79.2"/>
<image xlink:href="../../images/primaryKeys.png" width="11px" height="12px" preserveAspectRatio="xMinYMin meet" x="13" y="-96.2"/>
<text text-anchor="start" x="34" y="-86.3" font-family="Helvetica,sans-Serif" font-size="11.00" fill="#000000">id</text>
<polygon fill="#ffffff" stroke="transparent" points="8,-57.2 8,-79.2 104,-79.2 104,-57.2 8,-57.2"/>
<polygon fill="none" stroke="#000000" points="8,-57.2 8,-79.2 104,-79.2 104,-57.2 8,-57.2"/>
<text text-anchor="start" x="34" y="-64.3" font-family="Helvetica,sans-Serif" font-size="11.00" fill="#000000">table</text>
<polygon fill="#ffffff" stroke="transparent" points="8,-38.2 8,-57.2 45,-57.2 45,-38.2 8,-38.2"/>
<polygon fill="none" stroke="#000000" points="8,-38.2 8,-57.2 45,-57.2 45,-38.2 8,-38.2"/>
<text text-anchor="start" x="11" y="-44.3" font-family="Helvetica,sans-Serif" font-size="11.00" fill="#000000"> &#160;</text>
<polygon fill="#ffffff" stroke="transparent" points="45,-38.2 45,-57.2 70,-57.2 70,-38.2 45,-38.2"/>
<polygon fill="none" stroke="#000000" points="45,-38.2 45,-57.2 70,-57.2 70,-38.2 45,-38.2"/>
<text text-anchor="start" x="60.8862" y="-44.3" font-family="Helvetica,sans-Serif" font-size="11.00" fill="#000000"> &#160;</text>
<polygon fill="#ffffff" stroke="transparent" points="70,-38.2 70,-57.2 104,-57.2 104,-38.2 70,-38.2"/>
<polygon fill="none" stroke="#000000" points="70,-38.2 70,-57.2 104,-57.2 104,-38.2 70,-38.2"/>
<text text-anchor="start" x="85.4053" y="-44.3" font-family="Helvetica,sans-Serif" font-size="11.00" fill="#000000">3 &gt;</text>
</a>
</g>
</g>
<!-- asset_map&#45;&gt;entity_type -->
<g id="edge2" class="edge">
<title>asset_map:w&#45;&gt;entity_type:e</title>
<path fill="none" stroke="#000000" d="M140.9033,-148.2565C124.525,-133.4048 133.8329,-90.2 104,-90.2"/>
<polygon fill="#000000" stroke="#000000" points="147.4507,-150.5526 153.8087,-156.5972 151.2254,-151.8763 155,-153.2 155,-153.2 155,-153.2 151.2254,-151.8763 156.1913,-149.8028 147.4507,-150.5526 147.4507,-150.5526"/>
<ellipse fill="none" stroke="#000000" cx="144.431" cy="-149.4936" rx="3.2" ry="3.2"/>
</g>
</g>
</svg>
