<?xml version="1.0" encoding="UTF-8" standalone="no"?>
<!DOCTYPE svg PUBLIC "-//W3C//DTD SVG 1.1//EN"
 "http://www.w3.org/Graphics/SVG/1.1/DTD/svg11.dtd">
<!-- Generated by graphviz version 2.40.1 (20161225.0304)
 -->
<!-- Title: oneDegreeRelationshipsDiagram Pages: 1 -->
<svg width="565pt" height="303pt"
 viewBox="0.00 0.00 564.74 302.70" xmlns="http://www.w3.org/2000/svg" xmlns:xlink="http://www.w3.org/1999/xlink">
<g id="graph0" class="graph" transform="scale(1 1) rotate(0) translate(4 298.7)">
<title>oneDegreeRelationshipsDiagram</title>
<polygon fill="#ffffff" stroke="transparent" points="-4,4 -4,-298.7 560.742,-298.7 560.742,4 -4,4"/>
<text text-anchor="middle" x="72.4936" y="-7.3" font-family="Helvetica,sans-Serif" font-size="11.00" fill="#000000">Generated by SchemaSpy</text>
<!-- asset -->
<g id="node1" class="node">
<title>asset</title>
<g id="a_node1"><a xlink:href="../../tables/asset.html" xlink:title="asset" target="_top">
<polygon fill="#ffffff" stroke="transparent" points="230.742,-67.2 230.742,-194.2 315.742,-194.2 315.742,-67.2 230.742,-67.2"/>
<polygon fill="#f5f5f5" stroke="transparent" points="231.242,-170.7 231.242,-193.7 316.242,-193.7 316.242,-170.7 231.242,-170.7"/>
<polygon fill="none" stroke="#000000" points="231.242,-170.7 231.242,-193.7 316.242,-193.7 316.242,-170.7 231.242,-170.7"/>
<text text-anchor="start" x="236.242" y="-179.8" font-family="Helvetica,sans-Serif" font-weight="bold" font-size="11.00" fill="#000000">asset</text>
<text text-anchor="start" x="281.2857" y="-178.8" font-family="Helvetica,sans-Serif" font-size="11.00" fill="#000000">[table]</text>
<polygon fill="none" stroke="#000000" points="231.242,-148.7 231.242,-170.7 316.242,-170.7 316.242,-148.7 231.242,-148.7"/>
<image xlink:href="../../images/primaryKeys.png" width="11px" height="12px" preserveAspectRatio="xMinYMin meet" x="236.242" y="-165.7"/>
<text text-anchor="start" x="251.242" y="-155.8" font-family="Helvetica,sans-Serif" font-size="11.00" fill="#000000">id</text>
<polygon fill="#ffffff" stroke="transparent" points="231.242,-126.7 231.242,-148.7 316.242,-148.7 316.242,-126.7 231.242,-126.7"/>
<polygon fill="none" stroke="#000000" points="231.242,-126.7 231.242,-148.7 316.242,-148.7 316.242,-126.7 231.242,-126.7"/>
<text text-anchor="start" x="251.242" y="-133.8" font-family="Helvetica,sans-Serif" font-size="11.00" fill="#000000">uuid</text>
<polygon fill="none" stroke="#000000" points="231.242,-104.7 231.242,-126.7 316.242,-126.7 316.242,-104.7 231.242,-104.7"/>
<image xlink:href="../../images/foreignKeys.png" width="11px" height="12px" preserveAspectRatio="xMinYMin meet" x="236.242" y="-121.7"/>
<text text-anchor="start" x="251.242" y="-111.8" font-family="Helvetica,sans-Serif" font-size="11.00" fill="#000000">author_id</text>
<polygon fill="none" stroke="#000000" points="231.242,-85.7 231.242,-104.7 316.242,-104.7 316.242,-85.7 231.242,-85.7"/>
<text text-anchor="start" x="234.242" y="-91.8" font-family="Helvetica,sans-Serif" font-size="11.00" fill="#000000">...</text>
<polygon fill="#ffffff" stroke="transparent" points="231.242,-66.7 231.242,-85.7 267.242,-85.7 267.242,-66.7 231.242,-66.7"/>
<polygon fill="none" stroke="#000000" points="231.242,-66.7 231.242,-85.7 267.242,-85.7 267.242,-66.7 231.242,-66.7"/>
<text text-anchor="start" x="234.242" y="-72.8" font-family="Helvetica,sans-Serif" font-size="11.00" fill="#000000">&lt; 1</text>
<polygon fill="#ffffff" stroke="transparent" points="267.242,-66.7 267.242,-85.7 287.242,-85.7 287.242,-66.7 267.242,-66.7"/>
<polygon fill="none" stroke="#000000" points="267.242,-66.7 267.242,-85.7 287.242,-85.7 287.242,-66.7 267.242,-66.7"/>
<text text-anchor="start" x="278.1282" y="-72.8" font-family="Helvetica,sans-Serif" font-size="11.00" fill="#000000"> &#160;</text>
<polygon fill="#ffffff" stroke="transparent" points="287.242,-66.7 287.242,-85.7 316.242,-85.7 316.242,-66.7 287.242,-66.7"/>
<polygon fill="none" stroke="#000000" points="287.242,-66.7 287.242,-85.7 316.242,-85.7 316.242,-66.7 287.242,-66.7"/>
<text text-anchor="start" x="297.6473" y="-72.8" font-family="Helvetica,sans-Serif" font-size="11.00" fill="#000000">9 &gt;</text>
</a>
</g>
</g>
<!-- user -->
<g id="node2" class="node">
<title>user</title>
<g id="a_node2"><a xlink:href="../../tables/user.html" xlink:title="user" target="_top">
<polygon fill="#ffffff" stroke="transparent" points="14.742,-38.2 14.742,-253.2 181.742,-253.2 181.742,-38.2 14.742,-38.2"/>
<polygon fill="#f5f5f5" stroke="transparent" points="15.242,-229.7 15.242,-252.7 182.242,-252.7 182.242,-229.7 15.242,-229.7"/>
<polygon fill="none" stroke="#000000" points="15.242,-229.7 15.242,-252.7 182.242,-252.7 182.242,-229.7 15.242,-229.7"/>
<text text-anchor="start" x="20.242" y="-238.8" font-family="Helvetica,sans-Serif" font-weight="bold" font-size="11.00" fill="#000000">user</text>
<text text-anchor="start" x="147.2857" y="-237.8" font-family="Helvetica,sans-Serif" font-size="11.00" fill="#000000">[table]</text>
<polygon fill="none" stroke="#000000" points="15.242,-207.7 15.242,-229.7 182.242,-229.7 182.242,-207.7 15.242,-207.7"/>
<image xlink:href="../../images/primaryKeys.png" width="11px" height="12px" preserveAspectRatio="xMinYMin meet" x="20.242" y="-224.7"/>
<text text-anchor="start" x="35.242" y="-214.8" font-family="Helvetica,sans-Serif" font-size="11.00" fill="#000000">id</text>
<polygon fill="#ffffff" stroke="transparent" points="15.242,-185.7 15.242,-207.7 182.242,-207.7 182.242,-185.7 15.242,-185.7"/>
<polygon fill="none" stroke="#000000" points="15.242,-185.7 15.242,-207.7 182.242,-207.7 182.242,-185.7 15.242,-185.7"/>
<text text-anchor="start" x="35.242" y="-192.8" font-family="Helvetica,sans-Serif" font-size="11.00" fill="#000000">uuid</text>
<polygon fill="#ffffff" stroke="transparent" points="15.242,-163.7 15.242,-185.7 182.242,-185.7 182.242,-163.7 15.242,-163.7"/>
<polygon fill="none" stroke="#000000" points="15.242,-163.7 15.242,-185.7 182.242,-185.7 182.242,-163.7 15.242,-163.7"/>
<text text-anchor="start" x="35.242" y="-170.8" font-family="Helvetica,sans-Serif" font-size="11.00" fill="#000000">user_name</text>
<polygon fill="none" stroke="#000000" points="15.242,-141.7 15.242,-163.7 182.242,-163.7 182.242,-141.7 15.242,-141.7"/>
<image xlink:href="../../images/foreignKeys.png" width="11px" height="12px" preserveAspectRatio="xMinYMin meet" x="20.242" y="-158.7"/>
<text text-anchor="start" x="35.242" y="-148.8" font-family="Helvetica,sans-Serif" font-size="11.00" fill="#000000">avatar</text>
<polygon fill="#ffffff" stroke="transparent" points="15.242,-119.7 15.242,-141.7 182.242,-141.7 182.242,-119.7 15.242,-119.7"/>
<polygon fill="none" stroke="#000000" points="15.242,-119.7 15.242,-141.7 182.242,-141.7 182.242,-119.7 15.242,-119.7"/>
<text text-anchor="start" x="35.242" y="-126.8" font-family="Helvetica,sans-Serif" font-size="11.00" fill="#000000">email</text>
<polygon fill="#ffffff" stroke="transparent" points="15.242,-97.7 15.242,-119.7 182.242,-119.7 182.242,-97.7 15.242,-97.7"/>
<polygon fill="none" stroke="#000000" points="15.242,-97.7 15.242,-119.7 182.242,-119.7 182.242,-97.7 15.242,-97.7"/>
<text text-anchor="start" x="35.242" y="-104.8" font-family="Helvetica,sans-Serif" font-size="11.00" fill="#000000">state</text>
<polygon fill="#ffffff" stroke="transparent" points="15.242,-75.7 15.242,-97.7 182.242,-97.7 182.242,-75.7 15.242,-75.7"/>
<polygon fill="none" stroke="#000000" points="15.242,-75.7 15.242,-97.7 182.242,-97.7 182.242,-75.7 15.242,-75.7"/>
<text text-anchor="start" x="35.242" y="-82.8" font-family="Helvetica,sans-Serif" font-size="11.00" fill="#000000">liker_id</text>
<polygon fill="none" stroke="#000000" points="15.242,-56.7 15.242,-75.7 182.242,-75.7 182.242,-56.7 15.242,-56.7"/>
<text text-anchor="start" x="18.242" y="-62.8" font-family="Helvetica,sans-Serif" font-size="11.00" fill="#000000">...</text>
<polygon fill="#ffffff" stroke="transparent" points="15.242,-37.7 15.242,-56.7 89.242,-56.7 89.242,-37.7 15.242,-37.7"/>
<polygon fill="none" stroke="#000000" points="15.242,-37.7 15.242,-56.7 89.242,-56.7 89.242,-37.7 15.242,-37.7"/>
<text text-anchor="start" x="18.242" y="-43.8" font-family="Helvetica,sans-Serif" font-size="11.00" fill="#000000">&lt; 1</text>
<polygon fill="#ffffff" stroke="transparent" points="89.242,-37.7 89.242,-56.7 128.242,-56.7 128.242,-37.7 89.242,-37.7"/>
<polygon fill="none" stroke="#000000" points="89.242,-37.7 89.242,-56.7 128.242,-56.7 128.242,-37.7 89.242,-37.7"/>
<text text-anchor="start" x="119.1282" y="-43.8" font-family="Helvetica,sans-Serif" font-size="11.00" fill="#000000"> &#160;</text>
<polygon fill="#ffffff" stroke="transparent" points="128.242,-37.7 128.242,-56.7 182.242,-56.7 182.242,-37.7 128.242,-37.7"/>
<polygon fill="none" stroke="#000000" points="128.242,-37.7 128.242,-56.7 182.242,-56.7 182.242,-37.7 128.242,-37.7"/>
<text text-anchor="start" x="157.5324" y="-43.8" font-family="Helvetica,sans-Serif" font-size="11.00" fill="#000000">42 &gt;</text>
</a>
</g>
</g>
<!-- asset&#45;&gt;user -->
<g id="edge1" class="edge">
<title>asset:w&#45;&gt;user:e</title>
<path fill="none" stroke="#000000" d="M217.335,-119.6119C191.4109,-138.4261 226.9953,-218.7 182.242,-218.7"/>
<polygon fill="#000000" stroke="#000000" points="223.5409,-117.8663 232.2168,-119.1655 227.3914,-116.7832 231.242,-115.7 231.242,-115.7 231.242,-115.7 227.3914,-116.7832 230.2672,-112.2345 223.5409,-117.8663 223.5409,-117.8663"/>
<ellipse fill="none" stroke="#000000" cx="220.4604" cy="-118.7328" rx="3.2" ry="3.2"/>
</g>
<!-- user&#45;&gt;asset -->
<g id="edge4" class="edge">
<title>user:w&#45;&gt;asset:e</title>
<path fill="none" stroke="#000000" d="M4.4984,-162.6083C-4.7516,-186.0989 2.221,-244.179 15.242,-257.2 70.0821,-312.0401 121.0154,-293.1377 189.742,-257.2 212.5215,-245.2884 200.7336,-222.9823 222.742,-209.7 240.6652,-198.8832 302.3721,-213.8803 316.242,-198.2 327.5788,-185.3834 333.3531,-159.7 316.242,-159.7"/>
<polygon fill="#000000" stroke="#000000" points="9.3611,-158.1236 17.6826,-155.3464 12.3016,-155.4118 15.242,-152.7 15.242,-152.7 15.242,-152.7 12.3016,-155.4118 12.8014,-150.0536 9.3611,-158.1236 9.3611,-158.1236"/>
<ellipse fill="none" stroke="#000000" cx="7.0088" cy="-160.2931" rx="3.2" ry="3.2"/>
</g>
<!-- audio_draft -->
<g id="node3" class="node">
<title>audio_draft</title>
<g id="a_node3"><a xlink:href="../../tables/audio_draft.html" xlink:title="audio_draft" target="_top">
<polygon fill="#ffffff" stroke="transparent" points="364.742,-68.7 364.742,-290.7 548.742,-290.7 548.742,-68.7 364.742,-68.7"/>
<polygon fill="#f5f5f5" stroke="transparent" points="366.742,-265.7 366.742,-288.7 546.742,-288.7 546.742,-265.7 366.742,-265.7"/>
<polygon fill="none" stroke="#000000" points="366.742,-265.7 366.742,-288.7 546.742,-288.7 546.742,-265.7 366.742,-265.7"/>
<text text-anchor="start" x="371.742" y="-274.8" font-family="Helvetica,sans-Serif" font-weight="bold" font-size="11.00" fill="#000000">audio_draft</text>
<text text-anchor="start" x="511.7857" y="-273.8" font-family="Helvetica,sans-Serif" font-size="11.00" fill="#000000">[table]</text>
<polygon fill="none" stroke="#000000" points="366.742,-243.7 366.742,-265.7 452.742,-265.7 452.742,-243.7 366.742,-243.7"/>
<image xlink:href="../../images/primaryKeys.png" width="11px" height="12px" preserveAspectRatio="xMinYMin meet" x="371.742" y="-260.7"/>
<text text-anchor="start" x="386.742" y="-250.8" font-family="Helvetica,sans-Serif" font-size="11.00" fill="#000000">id</text>
<polygon fill="none" stroke="#000000" points="452.742,-243.7 452.742,-265.7 546.742,-265.7 546.742,-243.7 452.742,-243.7"/>
<text text-anchor="start" x="455.742" y="-251.4" font-family="Helvetica,sans-Serif" font-size="11.00" fill="#000000">bigserial[19]</text>
<polygon fill="#ffffff" stroke="transparent" points="366.742,-221.7 366.742,-243.7 452.742,-243.7 452.742,-221.7 366.742,-221.7"/>
<polygon fill="none" stroke="#000000" points="366.742,-221.7 366.742,-243.7 452.742,-243.7 452.742,-221.7 366.742,-221.7"/>
<text text-anchor="start" x="386.742" y="-228.8" font-family="Helvetica,sans-Serif" font-size="11.00" fill="#000000">uuid</text>
<polygon fill="none" stroke="#000000" points="452.742,-221.7 452.742,-243.7 546.742,-243.7 546.742,-221.7 452.742,-221.7"/>
<text text-anchor="start" x="455.7178" y="-229.4" font-family="Helvetica,sans-Serif" font-size="11.00" fill="#000000">uuid[2147483647]</text>
<polygon fill="none" stroke="#000000" points="366.742,-199.7 366.742,-221.7 452.742,-221.7 452.742,-199.7 366.742,-199.7"/>
<image xlink:href="../../images/foreignKeys.png" width="11px" height="12px" preserveAspectRatio="xMinYMin meet" x="371.742" y="-216.7"/>
<text text-anchor="start" x="386.742" y="-206.8" font-family="Helvetica,sans-Serif" font-size="11.00" fill="#000000">author_id</text>
<polygon fill="none" stroke="#000000" points="452.742,-199.7 452.742,-221.7 546.742,-221.7 546.742,-199.7 452.742,-199.7"/>
<text text-anchor="start" x="455.742" y="-207.4" font-family="Helvetica,sans-Serif" font-size="11.00" fill="#000000">int8[19]</text>
<polygon fill="none" stroke="#000000" points="366.742,-177.7 366.742,-199.7 452.742,-199.7 452.742,-177.7 366.742,-177.7"/>
<text text-anchor="start" x="386.742" y="-184.8" font-family="Helvetica,sans-Serif" font-size="11.00" fill="#000000">title</text>
<polygon fill="none" stroke="#000000" points="452.742,-177.7 452.742,-199.7 546.742,-199.7 546.742,-177.7 452.742,-177.7"/>
<text text-anchor="start" x="455.742" y="-185.4" font-family="Helvetica,sans-Serif" font-size="11.00" fill="#000000">varchar[255]</text>
<polygon fill="none" stroke="#000000" points="366.742,-155.7 366.742,-177.7 452.742,-177.7 452.742,-155.7 366.742,-155.7"/>
<image xlink:href="../../images/foreignKeys.png" width="11px" height="12px" preserveAspectRatio="xMinYMin meet" x="371.742" y="-172.7"/>
<text text-anchor="start" x="386.742" y="-162.8" font-family="Helvetica,sans-Serif" font-size="11.00" fill="#000000">audio</text>
<polygon fill="none" stroke="#000000" points="452.742,-155.7 452.742,-177.7 546.742,-177.7 546.742,-155.7 452.742,-155.7"/>
<text text-anchor="start" x="455.742" y="-163.4" font-family="Helvetica,sans-Serif" font-size="11.00" fill="#000000">int8[19]</text>
<polygon fill="none" stroke="#000000" points="366.742,-133.7 366.742,-155.7 452.742,-155.7 452.742,-133.7 366.742,-133.7"/>
<text text-anchor="start" x="386.742" y="-140.8" font-family="Helvetica,sans-Serif" font-size="11.00" fill="#000000">length</text>
<polygon fill="none" stroke="#000000" points="452.742,-133.7 452.742,-155.7 546.742,-155.7 546.742,-133.7 452.742,-133.7"/>
<text text-anchor="start" x="455.742" y="-141.4" font-family="Helvetica,sans-Serif" font-size="11.00" fill="#000000">int4[10]</text>
<polygon fill="none" stroke="#000000" points="366.742,-111.7 366.742,-133.7 452.742,-133.7 452.742,-111.7 366.742,-111.7"/>
<text text-anchor="start" x="386.742" y="-118.8" font-family="Helvetica,sans-Serif" font-size="11.00" fill="#000000">created_at</text>
<polygon fill="none" stroke="#000000" points="452.742,-111.7 452.742,-133.7 546.742,-133.7 546.742,-111.7 452.742,-111.7"/>
<text text-anchor="start" x="455.742" y="-119.4" font-family="Helvetica,sans-Serif" font-size="11.00" fill="#000000">timestamptz[35,6]</text>
<polygon fill="none" stroke="#000000" points="366.742,-89.7 366.742,-111.7 452.742,-111.7 452.742,-89.7 366.742,-89.7"/>
<text text-anchor="start" x="386.742" y="-96.8" font-family="Helvetica,sans-Serif" font-size="11.00" fill="#000000">updated_at</text>
<polygon fill="none" stroke="#000000" points="452.742,-89.7 452.742,-111.7 546.742,-111.7 546.742,-89.7 452.742,-89.7"/>
<text text-anchor="start" x="455.742" y="-97.4" font-family="Helvetica,sans-Serif" font-size="11.00" fill="#000000">timestamptz[35,6]</text>
<polygon fill="#ffffff" stroke="transparent" points="366.742,-70.7 366.742,-89.7 413.742,-89.7 413.742,-70.7 366.742,-70.7"/>
<polygon fill="none" stroke="#000000" points="366.742,-70.7 366.742,-89.7 413.742,-89.7 413.742,-70.7 366.742,-70.7"/>
<text text-anchor="start" x="369.742" y="-76.8" font-family="Helvetica,sans-Serif" font-size="11.00" fill="#000000">&lt; 2</text>
<polygon fill="#ffffff" stroke="transparent" points="413.742,-70.7 413.742,-89.7 452.742,-89.7 452.742,-70.7 413.742,-70.7"/>
<polygon fill="none" stroke="#000000" points="413.742,-70.7 413.742,-89.7 452.742,-89.7 452.742,-70.7 413.742,-70.7"/>
<text text-anchor="start" x="443.6282" y="-76.8" font-family="Helvetica,sans-Serif" font-size="11.00" fill="#000000"> &#160;</text>
<polygon fill="#ffffff" stroke="transparent" points="452.742,-70.7 452.742,-89.7 546.742,-89.7 546.742,-70.7 452.742,-70.7"/>
<polygon fill="none" stroke="#000000" points="452.742,-70.7 452.742,-89.7 546.742,-89.7 546.742,-70.7 452.742,-70.7"/>
<text text-anchor="start" x="528.1473" y="-76.8" font-family="Helvetica,sans-Serif" font-size="11.00" fill="#000000">0 &gt;</text>
<polygon fill="none" stroke="#000000" stroke-width="2" points="365.742,-69.7 365.742,-289.7 547.742,-289.7 547.742,-69.7 365.742,-69.7"/>
</a>
</g>
</g>
<!-- audio_draft&#45;&gt;asset -->
<g id="edge2" class="edge">
<title>audio_draft:w&#45;&gt;asset:e</title>
<path fill="none" stroke="#000000" d="M352.1026,-165.5441C340.2494,-163.5559 333.0593,-159.7 316.242,-159.7"/>
<polygon fill="#000000" stroke="#000000" points="358.7668,-166.0702 366.4586,-170.2888 362.7544,-166.3851 366.742,-166.7 366.742,-166.7 366.742,-166.7 362.7544,-166.3851 367.0254,-163.1112 358.7668,-166.0702 358.7668,-166.0702"/>
<ellipse fill="none" stroke="#000000" cx="355.5768" cy="-165.8183" rx="3.2" ry="3.2"/>
</g>
<!-- audio_draft&#45;&gt;user -->
<g id="edge3" class="edge">
<title>audio_draft:w&#45;&gt;user:e</title>
<path fill="none" stroke="#000000" d="M352.0458,-210.7898C281.8806,-211.6688 259.1892,-218.7 182.242,-218.7"/>
<polygon fill="#000000" stroke="#000000" points="358.7422,-210.749 366.764,-214.2999 362.7421,-210.7245 366.742,-210.7 366.742,-210.7 366.742,-210.7 362.7421,-210.7245 366.72,-207.1001 358.7422,-210.749 358.7422,-210.749"/>
<ellipse fill="none" stroke="#000000" cx="355.5422" cy="-210.7685" rx="3.2" ry="3.2"/>
</g>
</g>
</svg>
