<?xml version="1.0" encoding="UTF-8" standalone="no"?>
<!DOCTYPE svg PUBLIC "-//W3C//DTD SVG 1.1//EN"
 "http://www.w3.org/Graphics/SVG/1.1/DTD/svg11.dtd">
<!-- Generated by graphviz version 2.40.1 (20161225.0304)
 -->
<!-- Title: oneDegreeRelationshipsDiagram Pages: 1 -->
<svg width="349pt" height="322pt"
 viewBox="0.00 0.00 349.00 321.70" xmlns="http://www.w3.org/2000/svg" xmlns:xlink="http://www.w3.org/1999/xlink">
<g id="graph0" class="graph" transform="scale(1 1) rotate(0) translate(4 317.7)">
<title>oneDegreeRelationshipsDiagram</title>
<polygon fill="#ffffff" stroke="transparent" points="-4,4 -4,-317.7 345,-317.7 345,4 -4,4"/>
<text text-anchor="middle" x="72.4936" y="-7.3" font-family="Helvetica,sans-Serif" font-size="11.00" fill="#000000">Generated by SchemaSpy</text>
<!-- collection -->
<g id="node1" class="node">
<title>collection</title>
<g id="a_node1"><a xlink:href="../../tables/collection.html" xlink:title="collection" target="_top">
<polygon fill="#ffffff" stroke="transparent" points="149,-131.7 149,-309.7 333,-309.7 333,-131.7 149,-131.7"/>
<polygon fill="#f5f5f5" stroke="transparent" points="151,-284.7 151,-307.7 331,-307.7 331,-284.7 151,-284.7"/>
<polygon fill="none" stroke="#000000" points="151,-284.7 151,-307.7 331,-307.7 331,-284.7 151,-284.7"/>
<text text-anchor="start" x="156" y="-293.8" font-family="Helvetica,sans-Serif" font-weight="bold" font-size="11.00" fill="#000000">collection</text>
<text text-anchor="start" x="296.0437" y="-292.8" font-family="Helvetica,sans-Serif" font-size="11.00" fill="#000000">[table]</text>
<polygon fill="none" stroke="#000000" points="151,-262.7 151,-284.7 239,-284.7 239,-262.7 151,-262.7"/>
<image xlink:href="../../images/primaryKeys.png" width="11px" height="12px" preserveAspectRatio="xMinYMin meet" x="156" y="-279.7"/>
<text text-anchor="start" x="171" y="-269.8" font-family="Helvetica,sans-Serif" font-size="11.00" fill="#000000">id</text>
<polygon fill="none" stroke="#000000" points="239,-262.7 239,-284.7 331,-284.7 331,-262.7 239,-262.7"/>
<text text-anchor="start" x="242" y="-270.4" font-family="Helvetica,sans-Serif" font-size="11.00" fill="#000000">bigserial[19]</text>
<polygon fill="#ffffff" stroke="transparent" points="151,-240.7 151,-262.7 239,-262.7 239,-240.7 151,-240.7"/>
<polygon fill="none" stroke="#000000" points="151,-240.7 151,-262.7 239,-262.7 239,-240.7 151,-240.7"/>
<image xlink:href="../../images/foreignKeys.png" width="11px" height="12px" preserveAspectRatio="xMinYMin meet" x="156" y="-257.7"/>
<text text-anchor="start" x="171" y="-247.8" font-family="Helvetica,sans-Serif" font-size="11.00" fill="#000000">entrance_id</text>
<polygon fill="none" stroke="#000000" points="239,-240.7 239,-262.7 331,-262.7 331,-240.7 239,-240.7"/>
<text text-anchor="start" x="242" y="-248.4" font-family="Helvetica,sans-Serif" font-size="11.00" fill="#000000">int8[19]</text>
<polygon fill="#ffffff" stroke="transparent" points="151,-218.7 151,-240.7 239,-240.7 239,-218.7 151,-218.7"/>
<polygon fill="none" stroke="#000000" points="151,-218.7 151,-240.7 239,-240.7 239,-218.7 151,-218.7"/>
<image xlink:href="../../images/foreignKeys.png" width="11px" height="12px" preserveAspectRatio="xMinYMin meet" x="156" y="-235.7"/>
<text text-anchor="start" x="171" y="-225.8" font-family="Helvetica,sans-Serif" font-size="11.00" fill="#000000">article_id</text>
<polygon fill="none" stroke="#000000" points="239,-218.7 239,-240.7 331,-240.7 331,-218.7 239,-218.7"/>
<text text-anchor="start" x="242" y="-226.4" font-family="Helvetica,sans-Serif" font-size="11.00" fill="#000000">int8[19]</text>
<polygon fill="#ffffff" stroke="transparent" points="151,-196.7 151,-218.7 239,-218.7 239,-196.7 151,-196.7"/>
<polygon fill="none" stroke="#000000" points="151,-196.7 151,-218.7 239,-218.7 239,-196.7 151,-196.7"/>
<text text-anchor="start" x="171" y="-203.8" font-family="Helvetica,sans-Serif" font-size="11.00" fill="#000000">order</text>
<polygon fill="none" stroke="#000000" points="239,-196.7 239,-218.7 331,-218.7 331,-196.7 239,-196.7"/>
<text text-anchor="start" x="242" y="-204.4" font-family="Helvetica,sans-Serif" font-size="11.00" fill="#000000">int4[10]</text>
<polygon fill="none" stroke="#000000" points="151,-174.7 151,-196.7 239,-196.7 239,-174.7 151,-174.7"/>
<text text-anchor="start" x="171" y="-181.8" font-family="Helvetica,sans-Serif" font-size="11.00" fill="#000000">created_at</text>
<polygon fill="none" stroke="#000000" points="239,-174.7 239,-196.7 331,-196.7 331,-174.7 239,-174.7"/>
<text text-anchor="start" x="241.6023" y="-182.4" font-family="Helvetica,sans-Serif" font-size="11.00" fill="#000000">timestamptz[35,6]</text>
<polygon fill="none" stroke="#000000" points="151,-152.7 151,-174.7 239,-174.7 239,-152.7 151,-152.7"/>
<text text-anchor="start" x="171" y="-159.8" font-family="Helvetica,sans-Serif" font-size="11.00" fill="#000000">updated_at</text>
<polygon fill="none" stroke="#000000" points="239,-152.7 239,-174.7 331,-174.7 331,-152.7 239,-152.7"/>
<text text-anchor="start" x="241.6023" y="-160.4" font-family="Helvetica,sans-Serif" font-size="11.00" fill="#000000">timestamptz[35,6]</text>
<polygon fill="#ffffff" stroke="transparent" points="151,-133.7 151,-152.7 199,-152.7 199,-133.7 151,-133.7"/>
<polygon fill="none" stroke="#000000" points="151,-133.7 151,-152.7 199,-152.7 199,-133.7 151,-133.7"/>
<text text-anchor="start" x="154" y="-139.8" font-family="Helvetica,sans-Serif" font-size="11.00" fill="#000000">&lt; 2</text>
<polygon fill="#ffffff" stroke="transparent" points="199,-133.7 199,-152.7 239,-152.7 239,-133.7 199,-133.7"/>
<polygon fill="none" stroke="#000000" points="199,-133.7 199,-152.7 239,-152.7 239,-133.7 199,-133.7"/>
<text text-anchor="start" x="229.8862" y="-139.8" font-family="Helvetica,sans-Serif" font-size="11.00" fill="#000000"> &#160;</text>
<polygon fill="#ffffff" stroke="transparent" points="239,-133.7 239,-152.7 331,-152.7 331,-133.7 239,-133.7"/>
<polygon fill="none" stroke="#000000" points="239,-133.7 239,-152.7 331,-152.7 331,-133.7 239,-133.7"/>
<text text-anchor="start" x="312.4053" y="-139.8" font-family="Helvetica,sans-Serif" font-size="11.00" fill="#000000">0 &gt;</text>
<polygon fill="none" stroke="#000000" stroke-width="2" points="150,-132.7 150,-308.7 332,-308.7 332,-132.7 150,-132.7"/>
</a>
</g>
</g>
<!-- article -->
<g id="node2" class="node">
<title>article</title>
<g id="a_node2"><a xlink:href="../../tables/article.html" xlink:title="article" target="_top">
<polygon fill="#ffffff" stroke="transparent" points="8,-38.2 8,-275.2 100,-275.2 100,-38.2 8,-38.2"/>
<polygon fill="#f5f5f5" stroke="transparent" points="8,-251.7 8,-274.7 100,-274.7 100,-251.7 8,-251.7"/>
<polygon fill="none" stroke="#000000" points="8,-251.7 8,-274.7 100,-274.7 100,-251.7 8,-251.7"/>
<text text-anchor="start" x="13" y="-260.8" font-family="Helvetica,sans-Serif" font-weight="bold" font-size="11.00" fill="#000000">article</text>
<text text-anchor="start" x="65.0437" y="-259.8" font-family="Helvetica,sans-Serif" font-size="11.00" fill="#000000">[table]</text>
<polygon fill="none" stroke="#000000" points="8,-229.7 8,-251.7 100,-251.7 100,-229.7 8,-229.7"/>
<image xlink:href="../../images/primaryKeys.png" width="11px" height="12px" preserveAspectRatio="xMinYMin meet" x="13" y="-246.7"/>
<text text-anchor="start" x="28" y="-236.8" font-family="Helvetica,sans-Serif" font-size="11.00" fill="#000000">id</text>
<polygon fill="#ffffff" stroke="transparent" points="8,-207.7 8,-229.7 100,-229.7 100,-207.7 8,-207.7"/>
<polygon fill="none" stroke="#000000" points="8,-207.7 8,-229.7 100,-229.7 100,-207.7 8,-207.7"/>
<image xlink:href="../../images/foreignKeys.png" width="11px" height="12px" preserveAspectRatio="xMinYMin meet" x="13" y="-224.7"/>
<text text-anchor="start" x="28" y="-214.8" font-family="Helvetica,sans-Serif" font-size="11.00" fill="#000000">author_id</text>
<polygon fill="none" stroke="#000000" points="8,-185.7 8,-207.7 100,-207.7 100,-185.7 8,-185.7"/>
<image xlink:href="../../images/foreignKeys.png" width="11px" height="12px" preserveAspectRatio="xMinYMin meet" x="13" y="-202.7"/>
<text text-anchor="start" x="28" y="-192.8" font-family="Helvetica,sans-Serif" font-size="11.00" fill="#000000">upstream_id</text>
<polygon fill="none" stroke="#000000" points="8,-163.7 8,-185.7 100,-185.7 100,-163.7 8,-163.7"/>
<image xlink:href="../../images/foreignKeys.png" width="11px" height="12px" preserveAspectRatio="xMinYMin meet" x="13" y="-180.7"/>
<text text-anchor="start" x="28" y="-170.8" font-family="Helvetica,sans-Serif" font-size="11.00" fill="#000000">cover</text>
<polygon fill="#ffffff" stroke="transparent" points="8,-141.7 8,-163.7 100,-163.7 100,-141.7 8,-141.7"/>
<polygon fill="none" stroke="#000000" points="8,-141.7 8,-163.7 100,-163.7 100,-141.7 8,-141.7"/>
<text text-anchor="start" x="28" y="-148.8" font-family="Helvetica,sans-Serif" font-size="11.00" fill="#000000">media_hash</text>
<polygon fill="#ffffff" stroke="transparent" points="8,-119.7 8,-141.7 100,-141.7 100,-119.7 8,-119.7"/>
<polygon fill="none" stroke="#000000" points="8,-119.7 8,-141.7 100,-141.7 100,-119.7 8,-119.7"/>
<text text-anchor="start" x="28" y="-126.8" font-family="Helvetica,sans-Serif" font-size="11.00" fill="#000000">state</text>
<polygon fill="#ffffff" stroke="transparent" points="8,-97.7 8,-119.7 100,-119.7 100,-97.7 8,-97.7"/>
<polygon fill="none" stroke="#000000" points="8,-97.7 8,-119.7 100,-119.7 100,-97.7 8,-97.7"/>
<text text-anchor="start" x="28" y="-104.8" font-family="Helvetica,sans-Serif" font-size="11.00" fill="#000000">created_at</text>
<polygon fill="none" stroke="#000000" points="8,-75.7 8,-97.7 100,-97.7 100,-75.7 8,-75.7"/>
<image xlink:href="../../images/foreignKeys.png" width="11px" height="12px" preserveAspectRatio="xMinYMin meet" x="13" y="-92.7"/>
<text text-anchor="start" x="28" y="-82.8" font-family="Helvetica,sans-Serif" font-size="11.00" fill="#000000">draft_id</text>
<polygon fill="none" stroke="#000000" points="8,-56.7 8,-75.7 100,-75.7 100,-56.7 8,-56.7"/>
<text text-anchor="start" x="11" y="-62.8" font-family="Helvetica,sans-Serif" font-size="11.00" fill="#000000">...</text>
<polygon fill="#ffffff" stroke="transparent" points="8,-37.7 8,-56.7 45,-56.7 45,-37.7 8,-37.7"/>
<polygon fill="none" stroke="#000000" points="8,-37.7 8,-56.7 45,-56.7 45,-37.7 8,-37.7"/>
<text text-anchor="start" x="11" y="-43.8" font-family="Helvetica,sans-Serif" font-size="11.00" fill="#000000">&lt; 4</text>
<polygon fill="#ffffff" stroke="transparent" points="45,-37.7 45,-56.7 65,-56.7 65,-37.7 45,-37.7"/>
<polygon fill="none" stroke="#000000" points="45,-37.7 45,-56.7 65,-56.7 65,-37.7 45,-37.7"/>
<text text-anchor="start" x="55.8862" y="-43.8" font-family="Helvetica,sans-Serif" font-size="11.00" fill="#000000"> &#160;</text>
<polygon fill="#ffffff" stroke="transparent" points="65,-37.7 65,-56.7 100,-56.7 100,-37.7 65,-37.7"/>
<polygon fill="none" stroke="#000000" points="65,-37.7 65,-56.7 100,-56.7 100,-37.7 65,-37.7"/>
<text text-anchor="start" x="75.2904" y="-43.8" font-family="Helvetica,sans-Serif" font-size="11.00" fill="#000000">14 &gt;</text>
</a>
</g>
</g>
<!-- collection&#45;&gt;article -->
<g id="edge1" class="edge">
<title>collection:w&#45;&gt;article:e</title>
<path fill="none" stroke="#000000" d="M136.5097,-231.4188C124.3398,-234.5125 117.3909,-240.7 100,-240.7"/>
<polygon fill="#000000" stroke="#000000" points="143.0557,-230.6424 151.4241,-233.2749 147.0278,-230.1712 151,-229.7 151,-229.7 151,-229.7 147.0278,-230.1712 150.5759,-226.1251 143.0557,-230.6424 143.0557,-230.6424"/>
<ellipse fill="none" stroke="#000000" cx="139.878" cy="-231.0193" rx="3.2" ry="3.2"/>
</g>
<!-- collection&#45;&gt;article -->
<g id="edge2" class="edge">
<title>collection:w&#45;&gt;article:e</title>
<path fill="none" stroke="#000000" d="M136.5097,-249.9813C124.3398,-246.8875 117.3909,-240.7 100,-240.7"/>
<polygon fill="#000000" stroke="#000000" points="143.0557,-250.7576 150.5759,-255.2749 147.0278,-251.2288 151,-251.7 151,-251.7 151,-251.7 147.0278,-251.2288 151.4241,-248.1251 143.0557,-250.7576 143.0557,-250.7576"/>
<ellipse fill="none" stroke="#000000" cx="139.878" cy="-250.3807" rx="3.2" ry="3.2"/>
</g>
</g>
</svg>
