<?xml version="1.0" encoding="UTF-8" standalone="no"?>
<!DOCTYPE svg PUBLIC "-//W3C//DTD SVG 1.1//EN"
 "http://www.w3.org/Graphics/SVG/1.1/DTD/svg11.dtd">
<!-- Generated by graphviz version 2.40.1 (20161225.0304)
 -->
<!-- Title: oneDegreeRelationshipsDiagram Pages: 1 -->
<svg width="836pt" height="708pt"
 viewBox="0.00 0.00 836.00 708.47" xmlns="http://www.w3.org/2000/svg" xmlns:xlink="http://www.w3.org/1999/xlink">
<g id="graph0" class="graph" transform="scale(1 1) rotate(0) translate(4 704.4709)">
<title>oneDegreeRelationshipsDiagram</title>
<polygon fill="#ffffff" stroke="transparent" points="-4,4 -4,-704.4709 832,-704.4709 832,4 -4,4"/>
<text text-anchor="middle" x="72.4936" y="-7.3" font-family="Helvetica,sans-Serif" font-size="11.00" fill="#000000">Generated by SchemaSpy</text>
<!-- action_comment -->
<g id="node1" class="node">
<title>action_comment</title>
<g id="a_node1"><a xlink:href="../../tables/action_comment.html" xlink:title="action_comment" target="_top">
<polygon fill="#ffffff" stroke="transparent" points="672,-547.4709 672,-696.4709 795,-696.4709 795,-547.4709 672,-547.4709"/>
<polygon fill="#f5f5f5" stroke="transparent" points="672.5,-672.9709 672.5,-695.9709 795.5,-695.9709 795.5,-672.9709 672.5,-672.9709"/>
<polygon fill="none" stroke="#000000" points="672.5,-672.9709 672.5,-695.9709 795.5,-695.9709 795.5,-672.9709 672.5,-672.9709"/>
<text text-anchor="start" x="677.1586" y="-682.0709" font-family="Helvetica,sans-Serif" font-weight="bold" font-size="11.00" fill="#000000">action_comment</text>
<text text-anchor="start" x="761.0219" y="-681.0709" font-family="Helvetica,sans-Serif" font-size="11.00" fill="#000000">[table]</text>
<polygon fill="none" stroke="#000000" points="672.5,-650.9709 672.5,-672.9709 795.5,-672.9709 795.5,-650.9709 672.5,-650.9709"/>
<image xlink:href="../../images/primaryKeys.png" width="11px" height="12px" preserveAspectRatio="xMinYMin meet" x="677.5" y="-667.971"/>
<text text-anchor="start" x="696.5" y="-658.0709" font-family="Helvetica,sans-Serif" font-size="11.00" fill="#000000">id</text>
<polygon fill="#ffffff" stroke="transparent" points="672.5,-628.9709 672.5,-650.9709 795.5,-650.9709 795.5,-628.9709 672.5,-628.9709"/>
<polygon fill="none" stroke="#000000" points="672.5,-628.9709 672.5,-650.9709 795.5,-650.9709 795.5,-628.9709 672.5,-628.9709"/>
<image xlink:href="../../images/foreignKeys.png" width="11px" height="12px" preserveAspectRatio="xMinYMin meet" x="677.5" y="-645.971"/>
<text text-anchor="start" x="696.5" y="-636.0709" font-family="Helvetica,sans-Serif" font-size="11.00" fill="#000000">user_id</text>
<polygon fill="#ffffff" stroke="transparent" points="672.5,-606.9709 672.5,-628.9709 795.5,-628.9709 795.5,-606.9709 672.5,-606.9709"/>
<polygon fill="none" stroke="#000000" points="672.5,-606.9709 672.5,-628.9709 795.5,-628.9709 795.5,-606.9709 672.5,-606.9709"/>
<text text-anchor="start" x="696.5" y="-614.0709" font-family="Helvetica,sans-Serif" font-size="11.00" fill="#000000">action</text>
<polygon fill="#ffffff" stroke="transparent" points="672.5,-584.9709 672.5,-606.9709 795.5,-606.9709 795.5,-584.9709 672.5,-584.9709"/>
<polygon fill="none" stroke="#000000" points="672.5,-584.9709 672.5,-606.9709 795.5,-606.9709 795.5,-584.9709 672.5,-584.9709"/>
<image xlink:href="../../images/foreignKeys.png" width="11px" height="12px" preserveAspectRatio="xMinYMin meet" x="677.5" y="-601.971"/>
<text text-anchor="start" x="696.5" y="-592.0709" font-family="Helvetica,sans-Serif" font-size="11.00" fill="#000000">target_id</text>
<polygon fill="none" stroke="#000000" points="672.5,-565.9709 672.5,-584.9709 795.5,-584.9709 795.5,-565.9709 672.5,-565.9709"/>
<text text-anchor="start" x="675.5" y="-572.0709" font-family="Helvetica,sans-Serif" font-size="11.00" fill="#000000">...</text>
<polygon fill="#ffffff" stroke="transparent" points="672.5,-546.9709 672.5,-565.9709 732.5,-565.9709 732.5,-546.9709 672.5,-546.9709"/>
<polygon fill="none" stroke="#000000" points="672.5,-546.9709 672.5,-565.9709 732.5,-565.9709 732.5,-546.9709 672.5,-546.9709"/>
<text text-anchor="start" x="675.5" y="-553.0709" font-family="Helvetica,sans-Serif" font-size="11.00" fill="#000000">&lt; 2</text>
<polygon fill="#ffffff" stroke="transparent" points="732.5,-546.9709 732.5,-565.9709 763.5,-565.9709 763.5,-546.9709 732.5,-546.9709"/>
<polygon fill="none" stroke="#000000" points="732.5,-546.9709 732.5,-565.9709 763.5,-565.9709 763.5,-546.9709 732.5,-546.9709"/>
<text text-anchor="start" x="754.3862" y="-553.0709" font-family="Helvetica,sans-Serif" font-size="11.00" fill="#000000"> &#160;</text>
<polygon fill="#ffffff" stroke="transparent" points="763.5,-546.9709 763.5,-565.9709 795.5,-565.9709 795.5,-546.9709 763.5,-546.9709"/>
<polygon fill="none" stroke="#000000" points="763.5,-546.9709 763.5,-565.9709 795.5,-565.9709 795.5,-546.9709 763.5,-546.9709"/>
<text text-anchor="start" x="786.3862" y="-553.0709" font-family="Helvetica,sans-Serif" font-size="11.00" fill="#000000"> &#160;</text>
</a>
</g>
</g>
<!-- comment -->
<g id="node2" class="node">
<title>comment</title>
<g id="a_node2"><a xlink:href="../../tables/comment.html" xlink:title="comment" target="_top">
<polygon fill="#ffffff" stroke="transparent" points="365,-85.9709 365,-461.9709 598,-461.9709 598,-85.9709 365,-85.9709"/>
<polygon fill="#f5f5f5" stroke="transparent" points="367.5,-436.9709 367.5,-459.9709 596.5,-459.9709 596.5,-436.9709 367.5,-436.9709"/>
<polygon fill="none" stroke="#000000" points="367.5,-436.9709 367.5,-459.9709 596.5,-459.9709 596.5,-436.9709 367.5,-436.9709"/>
<text text-anchor="start" x="372.5" y="-446.0709" font-family="Helvetica,sans-Serif" font-weight="bold" font-size="11.00" fill="#000000">comment</text>
<text text-anchor="start" x="561.5437" y="-445.0709" font-family="Helvetica,sans-Serif" font-size="11.00" fill="#000000">[table]</text>
<polygon fill="none" stroke="#000000" points="367.5,-414.9709 367.5,-436.9709 502.5,-436.9709 502.5,-414.9709 367.5,-414.9709"/>
<image xlink:href="../../images/primaryKeys.png" width="11px" height="12px" preserveAspectRatio="xMinYMin meet" x="372.5" y="-431.971"/>
<text text-anchor="start" x="387.5" y="-422.0709" font-family="Helvetica,sans-Serif" font-size="11.00" fill="#000000">id</text>
<polygon fill="none" stroke="#000000" points="502.5,-414.9709 502.5,-436.9709 596.5,-436.9709 596.5,-414.9709 502.5,-414.9709"/>
<text text-anchor="start" x="505.5" y="-422.6709" font-family="Helvetica,sans-Serif" font-size="11.00" fill="#000000">bigserial[19]</text>
<polygon fill="#ffffff" stroke="transparent" points="367.5,-392.9709 367.5,-414.9709 502.5,-414.9709 502.5,-392.9709 367.5,-392.9709"/>
<polygon fill="none" stroke="#000000" points="367.5,-392.9709 367.5,-414.9709 502.5,-414.9709 502.5,-392.9709 367.5,-392.9709"/>
<text text-anchor="start" x="387.5" y="-400.0709" font-family="Helvetica,sans-Serif" font-size="11.00" fill="#000000">uuid</text>
<polygon fill="none" stroke="#000000" points="502.5,-392.9709 502.5,-414.9709 596.5,-414.9709 596.5,-392.9709 502.5,-392.9709"/>
<text text-anchor="start" x="505.4758" y="-400.6709" font-family="Helvetica,sans-Serif" font-size="11.00" fill="#000000">uuid[2147483647]</text>
<polygon fill="#ffffff" stroke="transparent" points="367.5,-370.9709 367.5,-392.9709 502.5,-392.9709 502.5,-370.9709 367.5,-370.9709"/>
<polygon fill="none" stroke="#000000" points="367.5,-370.9709 367.5,-392.9709 502.5,-392.9709 502.5,-370.9709 367.5,-370.9709"/>
<image xlink:href="../../images/foreignKeys.png" width="11px" height="12px" preserveAspectRatio="xMinYMin meet" x="372.5" y="-387.971"/>
<text text-anchor="start" x="387.5" y="-378.0709" font-family="Helvetica,sans-Serif" font-size="11.00" fill="#000000">author_id</text>
<polygon fill="none" stroke="#000000" points="502.5,-370.9709 502.5,-392.9709 596.5,-392.9709 596.5,-370.9709 502.5,-370.9709"/>
<text text-anchor="start" x="505.5" y="-378.6709" font-family="Helvetica,sans-Serif" font-size="11.00" fill="#000000">int8[19]</text>
<polygon fill="#ffffff" stroke="transparent" points="367.5,-348.9709 367.5,-370.9709 502.5,-370.9709 502.5,-348.9709 367.5,-348.9709"/>
<polygon fill="none" stroke="#000000" points="367.5,-348.9709 367.5,-370.9709 502.5,-370.9709 502.5,-348.9709 367.5,-348.9709"/>
<image xlink:href="../../images/foreignKeys.png" width="11px" height="12px" preserveAspectRatio="xMinYMin meet" x="372.5" y="-365.971"/>
<text text-anchor="start" x="387.5" y="-356.0709" font-family="Helvetica,sans-Serif" font-size="11.00" fill="#000000">article_id</text>
<polygon fill="none" stroke="#000000" points="502.5,-348.9709 502.5,-370.9709 596.5,-370.9709 596.5,-348.9709 502.5,-348.9709"/>
<text text-anchor="start" x="505.5" y="-356.6709" font-family="Helvetica,sans-Serif" font-size="11.00" fill="#000000">int8[19]</text>
<polygon fill="#ffffff" stroke="transparent" points="367.5,-326.9709 367.5,-348.9709 502.5,-348.9709 502.5,-326.9709 367.5,-326.9709"/>
<polygon fill="none" stroke="#000000" points="367.5,-326.9709 367.5,-348.9709 502.5,-348.9709 502.5,-326.9709 367.5,-326.9709"/>
<image xlink:href="../../images/foreignKeys.png" width="11px" height="12px" preserveAspectRatio="xMinYMin meet" x="372.5" y="-343.971"/>
<text text-anchor="start" x="387.5" y="-334.0709" font-family="Helvetica,sans-Serif" font-size="11.00" fill="#000000">parent_comment_id</text>
<polygon fill="none" stroke="#000000" points="502.5,-326.9709 502.5,-348.9709 596.5,-348.9709 596.5,-326.9709 502.5,-326.9709"/>
<text text-anchor="start" x="505.5" y="-334.6709" font-family="Helvetica,sans-Serif" font-size="11.00" fill="#000000">int8[19]</text>
<polygon fill="none" stroke="#000000" points="367.5,-304.9709 367.5,-326.9709 502.5,-326.9709 502.5,-304.9709 367.5,-304.9709"/>
<text text-anchor="start" x="387.5" y="-312.0709" font-family="Helvetica,sans-Serif" font-size="11.00" fill="#000000">content</text>
<polygon fill="none" stroke="#000000" points="502.5,-304.9709 502.5,-326.9709 596.5,-326.9709 596.5,-304.9709 502.5,-304.9709"/>
<text text-anchor="start" x="505.5" y="-312.6709" font-family="Helvetica,sans-Serif" font-size="11.00" fill="#000000">text[2147483647]</text>
<polygon fill="#ffffff" stroke="transparent" points="367.5,-282.9709 367.5,-304.9709 502.5,-304.9709 502.5,-282.9709 367.5,-282.9709"/>
<polygon fill="none" stroke="#000000" points="367.5,-282.9709 367.5,-304.9709 502.5,-304.9709 502.5,-282.9709 367.5,-282.9709"/>
<text text-anchor="start" x="387.5" y="-290.0709" font-family="Helvetica,sans-Serif" font-size="11.00" fill="#000000">state</text>
<polygon fill="none" stroke="#000000" points="502.5,-282.9709 502.5,-304.9709 596.5,-304.9709 596.5,-282.9709 502.5,-282.9709"/>
<text text-anchor="start" x="505.5" y="-290.6709" font-family="Helvetica,sans-Serif" font-size="11.00" fill="#000000">text[2147483647]</text>
<polygon fill="none" stroke="#000000" points="367.5,-260.9709 367.5,-282.9709 502.5,-282.9709 502.5,-260.9709 367.5,-260.9709"/>
<text text-anchor="start" x="387.5" y="-268.0709" font-family="Helvetica,sans-Serif" font-size="11.00" fill="#000000">pinned</text>
<polygon fill="none" stroke="#000000" points="502.5,-260.9709 502.5,-282.9709 596.5,-282.9709 596.5,-260.9709 502.5,-260.9709"/>
<text text-anchor="start" x="505.5" y="-268.6709" font-family="Helvetica,sans-Serif" font-size="11.00" fill="#000000">bool[1]</text>
<polygon fill="none" stroke="#000000" points="367.5,-238.9709 367.5,-260.9709 502.5,-260.9709 502.5,-238.9709 367.5,-238.9709"/>
<text text-anchor="start" x="387.5" y="-246.0709" font-family="Helvetica,sans-Serif" font-size="11.00" fill="#000000">created_at</text>
<polygon fill="none" stroke="#000000" points="502.5,-238.9709 502.5,-260.9709 596.5,-260.9709 596.5,-238.9709 502.5,-238.9709"/>
<text text-anchor="start" x="505.5" y="-246.6709" font-family="Helvetica,sans-Serif" font-size="11.00" fill="#000000">timestamptz[35,6]</text>
<polygon fill="none" stroke="#000000" points="367.5,-216.9709 367.5,-238.9709 502.5,-238.9709 502.5,-216.9709 367.5,-216.9709"/>
<text text-anchor="start" x="387.5" y="-224.0709" font-family="Helvetica,sans-Serif" font-size="11.00" fill="#000000">updated_at</text>
<polygon fill="none" stroke="#000000" points="502.5,-216.9709 502.5,-238.9709 596.5,-238.9709 596.5,-216.9709 502.5,-216.9709"/>
<text text-anchor="start" x="505.5" y="-224.6709" font-family="Helvetica,sans-Serif" font-size="11.00" fill="#000000">timestamptz[35,6]</text>
<polygon fill="none" stroke="#000000" points="367.5,-194.9709 367.5,-216.9709 502.5,-216.9709 502.5,-194.9709 367.5,-194.9709"/>
<text text-anchor="start" x="387.5" y="-202.0709" font-family="Helvetica,sans-Serif" font-size="11.00" fill="#000000">quotation_start</text>
<polygon fill="none" stroke="#000000" points="502.5,-194.9709 502.5,-216.9709 596.5,-216.9709 596.5,-194.9709 502.5,-194.9709"/>
<text text-anchor="start" x="505.5" y="-202.6709" font-family="Helvetica,sans-Serif" font-size="11.00" fill="#000000">int4[10]</text>
<polygon fill="none" stroke="#000000" points="367.5,-172.9709 367.5,-194.9709 502.5,-194.9709 502.5,-172.9709 367.5,-172.9709"/>
<text text-anchor="start" x="387.5" y="-180.0709" font-family="Helvetica,sans-Serif" font-size="11.00" fill="#000000">quotation_end</text>
<polygon fill="none" stroke="#000000" points="502.5,-172.9709 502.5,-194.9709 596.5,-194.9709 596.5,-172.9709 502.5,-172.9709"/>
<text text-anchor="start" x="505.5" y="-180.6709" font-family="Helvetica,sans-Serif" font-size="11.00" fill="#000000">int4[10]</text>
<polygon fill="none" stroke="#000000" points="367.5,-150.9709 367.5,-172.9709 502.5,-172.9709 502.5,-150.9709 367.5,-150.9709"/>
<text text-anchor="start" x="387.5" y="-158.0709" font-family="Helvetica,sans-Serif" font-size="11.00" fill="#000000">quotation_content</text>
<polygon fill="none" stroke="#000000" points="502.5,-150.9709 502.5,-172.9709 596.5,-172.9709 596.5,-150.9709 502.5,-150.9709"/>
<text text-anchor="start" x="505.5" y="-158.6709" font-family="Helvetica,sans-Serif" font-size="11.00" fill="#000000">text[2147483647]</text>
<polygon fill="none" stroke="#000000" points="367.5,-128.9709 367.5,-150.9709 502.5,-150.9709 502.5,-128.9709 367.5,-128.9709"/>
<image xlink:href="../../images/foreignKeys.png" width="11px" height="12px" preserveAspectRatio="xMinYMin meet" x="372.5" y="-145.971"/>
<text text-anchor="start" x="387.5" y="-136.0709" font-family="Helvetica,sans-Serif" font-size="11.00" fill="#000000">reply_to</text>
<polygon fill="none" stroke="#000000" points="502.5,-128.9709 502.5,-150.9709 596.5,-150.9709 596.5,-128.9709 502.5,-128.9709"/>
<text text-anchor="start" x="505.5" y="-136.6709" font-family="Helvetica,sans-Serif" font-size="11.00" fill="#000000">int8[19]</text>
<polygon fill="none" stroke="#000000" points="367.5,-106.9709 367.5,-128.9709 502.5,-128.9709 502.5,-106.9709 367.5,-106.9709"/>
<text text-anchor="start" x="387.5" y="-114.0709" font-family="Helvetica,sans-Serif" font-size="11.00" fill="#000000">remark</text>
<polygon fill="none" stroke="#000000" points="502.5,-106.9709 502.5,-128.9709 596.5,-128.9709 596.5,-106.9709 502.5,-106.9709"/>
<text text-anchor="start" x="505.5" y="-114.6709" font-family="Helvetica,sans-Serif" font-size="11.00" fill="#000000">text[2147483647]</text>
<polygon fill="#ffffff" stroke="transparent" points="367.5,-87.9709 367.5,-106.9709 439.5,-106.9709 439.5,-87.9709 367.5,-87.9709"/>
<polygon fill="none" stroke="#000000" points="367.5,-87.9709 367.5,-106.9709 439.5,-106.9709 439.5,-87.9709 367.5,-87.9709"/>
<text text-anchor="start" x="370.5" y="-94.0709" font-family="Helvetica,sans-Serif" font-size="11.00" fill="#000000">&lt; 4</text>
<polygon fill="#ffffff" stroke="transparent" points="439.5,-87.9709 439.5,-106.9709 502.5,-106.9709 502.5,-87.9709 439.5,-87.9709"/>
<polygon fill="none" stroke="#000000" points="439.5,-87.9709 439.5,-106.9709 502.5,-106.9709 502.5,-87.9709 439.5,-87.9709"/>
<text text-anchor="start" x="493.3862" y="-94.0709" font-family="Helvetica,sans-Serif" font-size="11.00" fill="#000000"> &#160;</text>
<polygon fill="#ffffff" stroke="transparent" points="502.5,-87.9709 502.5,-106.9709 596.5,-106.9709 596.5,-87.9709 502.5,-87.9709"/>
<polygon fill="none" stroke="#000000" points="502.5,-87.9709 502.5,-106.9709 596.5,-106.9709 596.5,-87.9709 502.5,-87.9709"/>
<text text-anchor="start" x="577.9053" y="-94.0709" font-family="Helvetica,sans-Serif" font-size="11.00" fill="#000000">5 &gt;</text>
<polygon fill="none" stroke="#000000" stroke-width="2" points="366,-86.9709 366,-460.9709 597,-460.9709 597,-86.9709 366,-86.9709"/>
</a>
</g>
</g>
<!-- action_comment&#45;&gt;comment -->
<g id="edge1" class="edge">
<title>action_comment:w&#45;&gt;comment:e</title>
<path fill="none" stroke="#000000" d="M658.1906,-593.8215C600.868,-574.1424 673.7663,-425.9709 596.5,-425.9709"/>
<polygon fill="#000000" stroke="#000000" points="664.5888,-594.7825 671.9652,-599.531 668.5444,-595.3767 672.5,-595.9709 672.5,-595.9709 672.5,-595.9709 668.5444,-595.3767 673.0348,-592.4108 664.5888,-594.7825 664.5888,-594.7825"/>
<ellipse fill="none" stroke="#000000" cx="661.4243" cy="-594.3071" rx="3.2" ry="3.2"/>
</g>
<!-- user -->
<g id="node3" class="node">
<title>user</title>
<g id="a_node3"><a xlink:href="../../tables/user.html" xlink:title="user" target="_top">
<polygon fill="#ffffff" stroke="transparent" points="8,-303.4709 8,-518.4709 175,-518.4709 175,-303.4709 8,-303.4709"/>
<polygon fill="#f5f5f5" stroke="transparent" points="8.5,-494.9709 8.5,-517.9709 175.5,-517.9709 175.5,-494.9709 8.5,-494.9709"/>
<polygon fill="none" stroke="#000000" points="8.5,-494.9709 8.5,-517.9709 175.5,-517.9709 175.5,-494.9709 8.5,-494.9709"/>
<text text-anchor="start" x="13.5" y="-504.0709" font-family="Helvetica,sans-Serif" font-weight="bold" font-size="11.00" fill="#000000">user</text>
<text text-anchor="start" x="140.5437" y="-503.0709" font-family="Helvetica,sans-Serif" font-size="11.00" fill="#000000">[table]</text>
<polygon fill="none" stroke="#000000" points="8.5,-472.9709 8.5,-494.9709 175.5,-494.9709 175.5,-472.9709 8.5,-472.9709"/>
<image xlink:href="../../images/primaryKeys.png" width="11px" height="12px" preserveAspectRatio="xMinYMin meet" x="13.5" y="-489.971"/>
<text text-anchor="start" x="28.5" y="-480.0709" font-family="Helvetica,sans-Serif" font-size="11.00" fill="#000000">id</text>
<polygon fill="#ffffff" stroke="transparent" points="8.5,-450.9709 8.5,-472.9709 175.5,-472.9709 175.5,-450.9709 8.5,-450.9709"/>
<polygon fill="none" stroke="#000000" points="8.5,-450.9709 8.5,-472.9709 175.5,-472.9709 175.5,-450.9709 8.5,-450.9709"/>
<text text-anchor="start" x="28.5" y="-458.0709" font-family="Helvetica,sans-Serif" font-size="11.00" fill="#000000">uuid</text>
<polygon fill="#ffffff" stroke="transparent" points="8.5,-428.9709 8.5,-450.9709 175.5,-450.9709 175.5,-428.9709 8.5,-428.9709"/>
<polygon fill="none" stroke="#000000" points="8.5,-428.9709 8.5,-450.9709 175.5,-450.9709 175.5,-428.9709 8.5,-428.9709"/>
<text text-anchor="start" x="28.5" y="-436.0709" font-family="Helvetica,sans-Serif" font-size="11.00" fill="#000000">user_name</text>
<polygon fill="none" stroke="#000000" points="8.5,-406.9709 8.5,-428.9709 175.5,-428.9709 175.5,-406.9709 8.5,-406.9709"/>
<image xlink:href="../../images/foreignKeys.png" width="11px" height="12px" preserveAspectRatio="xMinYMin meet" x="13.5" y="-423.971"/>
<text text-anchor="start" x="28.5" y="-414.0709" font-family="Helvetica,sans-Serif" font-size="11.00" fill="#000000">avatar</text>
<polygon fill="#ffffff" stroke="transparent" points="8.5,-384.9709 8.5,-406.9709 175.5,-406.9709 175.5,-384.9709 8.5,-384.9709"/>
<polygon fill="none" stroke="#000000" points="8.5,-384.9709 8.5,-406.9709 175.5,-406.9709 175.5,-384.9709 8.5,-384.9709"/>
<text text-anchor="start" x="28.5" y="-392.0709" font-family="Helvetica,sans-Serif" font-size="11.00" fill="#000000">email</text>
<polygon fill="#ffffff" stroke="transparent" points="8.5,-362.9709 8.5,-384.9709 175.5,-384.9709 175.5,-362.9709 8.5,-362.9709"/>
<polygon fill="none" stroke="#000000" points="8.5,-362.9709 8.5,-384.9709 175.5,-384.9709 175.5,-362.9709 8.5,-362.9709"/>
<text text-anchor="start" x="28.5" y="-370.0709" font-family="Helvetica,sans-Serif" font-size="11.00" fill="#000000">state</text>
<polygon fill="#ffffff" stroke="transparent" points="8.5,-340.9709 8.5,-362.9709 175.5,-362.9709 175.5,-340.9709 8.5,-340.9709"/>
<polygon fill="none" stroke="#000000" points="8.5,-340.9709 8.5,-362.9709 175.5,-362.9709 175.5,-340.9709 8.5,-340.9709"/>
<text text-anchor="start" x="28.5" y="-348.0709" font-family="Helvetica,sans-Serif" font-size="11.00" fill="#000000">liker_id</text>
<polygon fill="none" stroke="#000000" points="8.5,-321.9709 8.5,-340.9709 175.5,-340.9709 175.5,-321.9709 8.5,-321.9709"/>
<text text-anchor="start" x="11.5" y="-328.0709" font-family="Helvetica,sans-Serif" font-size="11.00" fill="#000000">...</text>
<polygon fill="#ffffff" stroke="transparent" points="8.5,-302.9709 8.5,-321.9709 82.5,-321.9709 82.5,-302.9709 8.5,-302.9709"/>
<polygon fill="none" stroke="#000000" points="8.5,-302.9709 8.5,-321.9709 82.5,-321.9709 82.5,-302.9709 8.5,-302.9709"/>
<text text-anchor="start" x="11.5" y="-309.0709" font-family="Helvetica,sans-Serif" font-size="11.00" fill="#000000">&lt; 1</text>
<polygon fill="#ffffff" stroke="transparent" points="82.5,-302.9709 82.5,-321.9709 121.5,-321.9709 121.5,-302.9709 82.5,-302.9709"/>
<polygon fill="none" stroke="#000000" points="82.5,-302.9709 82.5,-321.9709 121.5,-321.9709 121.5,-302.9709 82.5,-302.9709"/>
<text text-anchor="start" x="112.3862" y="-309.0709" font-family="Helvetica,sans-Serif" font-size="11.00" fill="#000000"> &#160;</text>
<polygon fill="#ffffff" stroke="transparent" points="121.5,-302.9709 121.5,-321.9709 175.5,-321.9709 175.5,-302.9709 121.5,-302.9709"/>
<polygon fill="none" stroke="#000000" points="121.5,-302.9709 121.5,-321.9709 175.5,-321.9709 175.5,-302.9709 121.5,-302.9709"/>
<text text-anchor="start" x="150.7904" y="-309.0709" font-family="Helvetica,sans-Serif" font-size="11.00" fill="#000000">42 &gt;</text>
</a>
</g>
</g>
<!-- action_comment&#45;&gt;user -->
<g id="edge2" class="edge">
<title>action_comment:w&#45;&gt;user:e</title>
<path fill="none" stroke="#000000" d="M657.9502,-640.0506C462.8182,-642.1773 377.3498,-685.1954 216,-565.9709 183.3092,-541.815 216.1472,-483.9709 175.5,-483.9709"/>
<polygon fill="#000000" stroke="#000000" points="664.5001,-640.0148 672.5197,-643.5708 668.5001,-639.9928 672.5,-639.9709 672.5,-639.9709 672.5,-639.9709 668.5001,-639.9928 672.4803,-636.371 664.5001,-640.0148 664.5001,-640.0148"/>
<ellipse fill="none" stroke="#000000" cx="661.3002" cy="-640.0323" rx="3.2" ry="3.2"/>
</g>
<!-- comment&#45;&gt;comment -->
<g id="edge6" class="edge">
<title>comment:w&#45;&gt;comment:e</title>
<path fill="none" stroke="#000000" d="M358.8353,-350.0118C315.5733,-414.5704 324.7852,-478.9709 482,-478.9709 649,-478.9709 649,-470.3042 596.5,-425.9709"/>
<polygon fill="#000000" stroke="#000000" points="362.8272,-344.4644 370.4221,-340.0737 365.1636,-341.2176 367.5,-337.9709 367.5,-337.9709 367.5,-337.9709 365.1636,-341.2176 364.5779,-335.8681 362.8272,-344.4644 362.8272,-344.4644"/>
<ellipse fill="none" stroke="#000000" cx="360.9581" cy="-347.0618" rx="3.2" ry="3.2"/>
</g>
<!-- comment&#45;&gt;comment -->
<g id="edge7" class="edge">
<title>comment:w&#45;&gt;comment:e</title>
<path fill="none" stroke="#000000" d="M359.7859,-152.1417C315.4474,-235.5974 323.6436,-478.9709 482,-478.9709 649,-478.9709 649,-470.3042 596.5,-425.9709"/>
<polygon fill="#000000" stroke="#000000" points="363.2172,-146.728 370.5407,-141.8981 365.3586,-143.3494 367.5,-139.9709 367.5,-139.9709 367.5,-139.9709 365.3586,-143.3494 364.4593,-138.0437 363.2172,-146.728 363.2172,-146.728"/>
<ellipse fill="none" stroke="#000000" cx="361.5041" cy="-149.4308" rx="3.2" ry="3.2"/>
</g>
<!-- comment&#45;&gt;user -->
<g id="edge5" class="edge">
<title>comment:w&#45;&gt;user:e</title>
<path fill="none" stroke="#000000" d="M353.3479,-378.3746C332.6372,-364.335 356.0952,-313.0076 324,-292.9709 283.2831,-267.5517 253.2956,-262.7543 216,-292.9709 148.5756,-347.5976 262.2763,-483.9709 175.5,-483.9709"/>
<polygon fill="#000000" stroke="#000000" points="359.7464,-380.0005 366.6133,-385.46 363.6232,-380.9857 367.5,-381.9709 367.5,-381.9709 367.5,-381.9709 363.6232,-380.9857 368.3867,-378.4818 359.7464,-380.0005 359.7464,-380.0005"/>
<ellipse fill="none" stroke="#000000" cx="356.645" cy="-379.2124" rx="3.2" ry="3.2"/>
</g>
<!-- article -->
<g id="node4" class="node">
<title>article</title>
<g id="a_node4"><a xlink:href="../../tables/article.html" xlink:title="article" target="_top">
<polygon fill="#ffffff" stroke="transparent" points="224,-303.4709 224,-540.4709 316,-540.4709 316,-303.4709 224,-303.4709"/>
<polygon fill="#f5f5f5" stroke="transparent" points="224,-516.9709 224,-539.9709 316,-539.9709 316,-516.9709 224,-516.9709"/>
<polygon fill="none" stroke="#000000" points="224,-516.9709 224,-539.9709 316,-539.9709 316,-516.9709 224,-516.9709"/>
<text text-anchor="start" x="229" y="-526.0709" font-family="Helvetica,sans-Serif" font-weight="bold" font-size="11.00" fill="#000000">article</text>
<text text-anchor="start" x="281.0437" y="-525.0709" font-family="Helvetica,sans-Serif" font-size="11.00" fill="#000000">[table]</text>
<polygon fill="none" stroke="#000000" points="224,-494.9709 224,-516.9709 316,-516.9709 316,-494.9709 224,-494.9709"/>
<image xlink:href="../../images/primaryKeys.png" width="11px" height="12px" preserveAspectRatio="xMinYMin meet" x="229" y="-511.971"/>
<text text-anchor="start" x="244" y="-502.0709" font-family="Helvetica,sans-Serif" font-size="11.00" fill="#000000">id</text>
<polygon fill="#ffffff" stroke="transparent" points="224,-472.9709 224,-494.9709 316,-494.9709 316,-472.9709 224,-472.9709"/>
<polygon fill="none" stroke="#000000" points="224,-472.9709 224,-494.9709 316,-494.9709 316,-472.9709 224,-472.9709"/>
<image xlink:href="../../images/foreignKeys.png" width="11px" height="12px" preserveAspectRatio="xMinYMin meet" x="229" y="-489.971"/>
<text text-anchor="start" x="244" y="-480.0709" font-family="Helvetica,sans-Serif" font-size="11.00" fill="#000000">author_id</text>
<polygon fill="none" stroke="#000000" points="224,-450.9709 224,-472.9709 316,-472.9709 316,-450.9709 224,-450.9709"/>
<image xlink:href="../../images/foreignKeys.png" width="11px" height="12px" preserveAspectRatio="xMinYMin meet" x="229" y="-467.971"/>
<text text-anchor="start" x="244" y="-458.0709" font-family="Helvetica,sans-Serif" font-size="11.00" fill="#000000">upstream_id</text>
<polygon fill="none" stroke="#000000" points="224,-428.9709 224,-450.9709 316,-450.9709 316,-428.9709 224,-428.9709"/>
<image xlink:href="../../images/foreignKeys.png" width="11px" height="12px" preserveAspectRatio="xMinYMin meet" x="229" y="-445.971"/>
<text text-anchor="start" x="244" y="-436.0709" font-family="Helvetica,sans-Serif" font-size="11.00" fill="#000000">cover</text>
<polygon fill="#ffffff" stroke="transparent" points="224,-406.9709 224,-428.9709 316,-428.9709 316,-406.9709 224,-406.9709"/>
<polygon fill="none" stroke="#000000" points="224,-406.9709 224,-428.9709 316,-428.9709 316,-406.9709 224,-406.9709"/>
<text text-anchor="start" x="244" y="-414.0709" font-family="Helvetica,sans-Serif" font-size="11.00" fill="#000000">media_hash</text>
<polygon fill="#ffffff" stroke="transparent" points="224,-384.9709 224,-406.9709 316,-406.9709 316,-384.9709 224,-384.9709"/>
<polygon fill="none" stroke="#000000" points="224,-384.9709 224,-406.9709 316,-406.9709 316,-384.9709 224,-384.9709"/>
<text text-anchor="start" x="244" y="-392.0709" font-family="Helvetica,sans-Serif" font-size="11.00" fill="#000000">state</text>
<polygon fill="#ffffff" stroke="transparent" points="224,-362.9709 224,-384.9709 316,-384.9709 316,-362.9709 224,-362.9709"/>
<polygon fill="none" stroke="#000000" points="224,-362.9709 224,-384.9709 316,-384.9709 316,-362.9709 224,-362.9709"/>
<text text-anchor="start" x="244" y="-370.0709" font-family="Helvetica,sans-Serif" font-size="11.00" fill="#000000">created_at</text>
<polygon fill="none" stroke="#000000" points="224,-340.9709 224,-362.9709 316,-362.9709 316,-340.9709 224,-340.9709"/>
<image xlink:href="../../images/foreignKeys.png" width="11px" height="12px" preserveAspectRatio="xMinYMin meet" x="229" y="-357.971"/>
<text text-anchor="start" x="244" y="-348.0709" font-family="Helvetica,sans-Serif" font-size="11.00" fill="#000000">draft_id</text>
<polygon fill="none" stroke="#000000" points="224,-321.9709 224,-340.9709 316,-340.9709 316,-321.9709 224,-321.9709"/>
<text text-anchor="start" x="227" y="-328.0709" font-family="Helvetica,sans-Serif" font-size="11.00" fill="#000000">...</text>
<polygon fill="#ffffff" stroke="transparent" points="224,-302.9709 224,-321.9709 261,-321.9709 261,-302.9709 224,-302.9709"/>
<polygon fill="none" stroke="#000000" points="224,-302.9709 224,-321.9709 261,-321.9709 261,-302.9709 224,-302.9709"/>
<text text-anchor="start" x="227" y="-309.0709" font-family="Helvetica,sans-Serif" font-size="11.00" fill="#000000">&lt; 4</text>
<polygon fill="#ffffff" stroke="transparent" points="261,-302.9709 261,-321.9709 281,-321.9709 281,-302.9709 261,-302.9709"/>
<polygon fill="none" stroke="#000000" points="261,-302.9709 261,-321.9709 281,-321.9709 281,-302.9709 261,-302.9709"/>
<text text-anchor="start" x="271.8862" y="-309.0709" font-family="Helvetica,sans-Serif" font-size="11.00" fill="#000000"> &#160;</text>
<polygon fill="#ffffff" stroke="transparent" points="281,-302.9709 281,-321.9709 316,-321.9709 316,-302.9709 281,-302.9709"/>
<polygon fill="none" stroke="#000000" points="281,-302.9709 281,-321.9709 316,-321.9709 316,-302.9709 281,-302.9709"/>
<text text-anchor="start" x="291.2904" y="-309.0709" font-family="Helvetica,sans-Serif" font-size="11.00" fill="#000000">14 &gt;</text>
</a>
</g>
</g>
<!-- comment&#45;&gt;article -->
<g id="edge4" class="edge">
<title>comment:w&#45;&gt;article:e</title>
<path fill="none" stroke="#000000" d="M353.2584,-362.8873C312.0644,-383.4645 379.0287,-505.9709 316,-505.9709"/>
<polygon fill="#000000" stroke="#000000" points="359.6626,-361.5759 368.2222,-363.4977 363.5813,-360.7734 367.5,-359.9709 367.5,-359.9709 367.5,-359.9709 363.5813,-360.7734 366.7778,-356.4441 359.6626,-361.5759 359.6626,-361.5759"/>
<ellipse fill="none" stroke="#000000" cx="356.5277" cy="-362.2179" rx="3.2" ry="3.2"/>
</g>
<!-- article&#45;&gt;user -->
<g id="edge3" class="edge">
<title>article:w&#45;&gt;user:e</title>
<path fill="none" stroke="#000000" d="M209.2829,-483.9709C198.2886,-483.9709 191.1615,-483.9709 175.5,-483.9709"/>
<polygon fill="#000000" stroke="#000000" points="216,-483.971 224,-487.5709 220,-483.9709 224,-483.9709 224,-483.9709 224,-483.9709 220,-483.9709 224,-480.3709 216,-483.971 216,-483.971"/>
<ellipse fill="none" stroke="#000000" cx="212.8" cy="-483.971" rx="3.2" ry="3.2"/>
</g>
<!-- comment_mentioned_user -->
<g id="node5" class="node">
<title>comment_mentioned_user</title>
<g id="a_node5"><a xlink:href="../../tables/comment_mentioned_user.html" xlink:title="comment_mentioned_user" target="_top">
<polygon fill="#ffffff" stroke="transparent" points="647,-121.4709 647,-248.4709 820,-248.4709 820,-121.4709 647,-121.4709"/>
<polygon fill="#f5f5f5" stroke="transparent" points="647.5,-224.9709 647.5,-247.9709 820.5,-247.9709 820.5,-224.9709 647.5,-224.9709"/>
<polygon fill="none" stroke="#000000" points="647.5,-224.9709 647.5,-247.9709 820.5,-247.9709 820.5,-224.9709 647.5,-224.9709"/>
<text text-anchor="start" x="652.402" y="-234.0709" font-family="Helvetica,sans-Serif" font-weight="bold" font-size="11.00" fill="#000000">comment_mentioned_user</text>
<text text-anchor="start" x="786.0219" y="-233.0709" font-family="Helvetica,sans-Serif" font-size="11.00" fill="#000000">[table]</text>
<polygon fill="none" stroke="#000000" points="647.5,-202.9709 647.5,-224.9709 820.5,-224.9709 820.5,-202.9709 647.5,-202.9709"/>
<image xlink:href="../../images/primaryKeys.png" width="11px" height="12px" preserveAspectRatio="xMinYMin meet" x="652.5" y="-219.971"/>
<text text-anchor="start" x="667.5" y="-210.0709" font-family="Helvetica,sans-Serif" font-size="11.00" fill="#000000">id</text>
<polygon fill="none" stroke="#000000" points="647.5,-180.9709 647.5,-202.9709 820.5,-202.9709 820.5,-180.9709 647.5,-180.9709"/>
<image xlink:href="../../images/foreignKeys.png" width="11px" height="12px" preserveAspectRatio="xMinYMin meet" x="652.5" y="-197.971"/>
<text text-anchor="start" x="667.5" y="-188.0709" font-family="Helvetica,sans-Serif" font-size="11.00" fill="#000000">comment_id</text>
<polygon fill="none" stroke="#000000" points="647.5,-158.9709 647.5,-180.9709 820.5,-180.9709 820.5,-158.9709 647.5,-158.9709"/>
<image xlink:href="../../images/foreignKeys.png" width="11px" height="12px" preserveAspectRatio="xMinYMin meet" x="652.5" y="-175.971"/>
<text text-anchor="start" x="667.5" y="-166.0709" font-family="Helvetica,sans-Serif" font-size="11.00" fill="#000000">user_id</text>
<polygon fill="none" stroke="#000000" points="647.5,-139.9709 647.5,-158.9709 820.5,-158.9709 820.5,-139.9709 647.5,-139.9709"/>
<text text-anchor="start" x="650.5" y="-146.0709" font-family="Helvetica,sans-Serif" font-size="11.00" fill="#000000">...</text>
<polygon fill="#ffffff" stroke="transparent" points="647.5,-120.9709 647.5,-139.9709 732.5,-139.9709 732.5,-120.9709 647.5,-120.9709"/>
<polygon fill="none" stroke="#000000" points="647.5,-120.9709 647.5,-139.9709 732.5,-139.9709 732.5,-120.9709 647.5,-120.9709"/>
<text text-anchor="start" x="650.5" y="-127.0709" font-family="Helvetica,sans-Serif" font-size="11.00" fill="#000000">&lt; 2</text>
<polygon fill="#ffffff" stroke="transparent" points="732.5,-120.9709 732.5,-139.9709 776.5,-139.9709 776.5,-120.9709 732.5,-120.9709"/>
<polygon fill="none" stroke="#000000" points="732.5,-120.9709 732.5,-139.9709 776.5,-139.9709 776.5,-120.9709 732.5,-120.9709"/>
<text text-anchor="start" x="767.3862" y="-127.0709" font-family="Helvetica,sans-Serif" font-size="11.00" fill="#000000"> &#160;</text>
<polygon fill="#ffffff" stroke="transparent" points="776.5,-120.9709 776.5,-139.9709 820.5,-139.9709 820.5,-120.9709 776.5,-120.9709"/>
<polygon fill="none" stroke="#000000" points="776.5,-120.9709 776.5,-139.9709 820.5,-139.9709 820.5,-120.9709 776.5,-120.9709"/>
<text text-anchor="start" x="811.3862" y="-127.0709" font-family="Helvetica,sans-Serif" font-size="11.00" fill="#000000"> &#160;</text>
</a>
</g>
</g>
<!-- comment_mentioned_user&#45;&gt;comment -->
<g id="edge8" class="edge">
<title>comment_mentioned_user:w&#45;&gt;comment:e</title>
<path fill="none" stroke="#000000" d="M632.8205,-193.8545C557.386,-215.9999 697.3283,-425.9709 596.5,-425.9709"/>
<polygon fill="#000000" stroke="#000000" points="639.5651,-192.9891 647.9582,-195.5416 643.5325,-192.48 647.5,-191.9709 647.5,-191.9709 647.5,-191.9709 643.5325,-192.48 647.0418,-188.4002 639.5651,-192.9891 639.5651,-192.9891"/>
<ellipse fill="none" stroke="#000000" cx="636.3911" cy="-193.3964" rx="3.2" ry="3.2"/>
</g>
<!-- comment_mentioned_user&#45;&gt;user -->
<g id="edge9" class="edge">
<title>comment_mentioned_user:w&#45;&gt;user:e</title>
<path fill="none" stroke="#000000" d="M633.2778,-166.3872C611.9255,-151.9102 639.0305,-97.4946 606,-75.9709 513.2814,-15.5526 455.6707,-25.859 357,-75.9709 262.2845,-124.074 258.2051,-171.4842 216,-268.9709 196.6842,-313.5872 224.1181,-483.9709 175.5,-483.9709"/>
<polygon fill="#000000" stroke="#000000" points="639.7425,-168.0161 646.6203,-173.4618 643.6212,-168.9935 647.5,-169.9709 647.5,-169.9709 647.5,-169.9709 643.6212,-168.9935 648.3797,-166.48 639.7425,-168.0161 639.7425,-168.0161"/>
<ellipse fill="none" stroke="#000000" cx="636.6395" cy="-167.2342" rx="3.2" ry="3.2"/>
</g>
<!-- report -->
<g id="node6" class="node">
<title>report</title>
<g id="a_node6"><a xlink:href="../../tables/report.html" xlink:title="report" target="_top">
<polygon fill="#ffffff" stroke="transparent" points="688,-377.4709 688,-526.4709 779,-526.4709 779,-377.4709 688,-377.4709"/>
<polygon fill="#f5f5f5" stroke="transparent" points="688.5,-502.9709 688.5,-525.9709 779.5,-525.9709 779.5,-502.9709 688.5,-502.9709"/>
<polygon fill="none" stroke="#000000" points="688.5,-502.9709 688.5,-525.9709 779.5,-525.9709 779.5,-502.9709 688.5,-502.9709"/>
<text text-anchor="start" x="693.5" y="-512.0709" font-family="Helvetica,sans-Serif" font-weight="bold" font-size="11.00" fill="#000000">report</text>
<text text-anchor="start" x="744.5437" y="-511.0709" font-family="Helvetica,sans-Serif" font-size="11.00" fill="#000000">[table]</text>
<polygon fill="none" stroke="#000000" points="688.5,-480.9709 688.5,-502.9709 779.5,-502.9709 779.5,-480.9709 688.5,-480.9709"/>
<image xlink:href="../../images/primaryKeys.png" width="11px" height="12px" preserveAspectRatio="xMinYMin meet" x="693.5" y="-497.971"/>
<text text-anchor="start" x="708.5" y="-488.0709" font-family="Helvetica,sans-Serif" font-size="11.00" fill="#000000">id</text>
<polygon fill="none" stroke="#000000" points="688.5,-458.9709 688.5,-480.9709 779.5,-480.9709 779.5,-458.9709 688.5,-458.9709"/>
<image xlink:href="../../images/foreignKeys.png" width="11px" height="12px" preserveAspectRatio="xMinYMin meet" x="693.5" y="-475.971"/>
<text text-anchor="start" x="708.5" y="-466.0709" font-family="Helvetica,sans-Serif" font-size="11.00" fill="#000000">user_id</text>
<polygon fill="none" stroke="#000000" points="688.5,-436.9709 688.5,-458.9709 779.5,-458.9709 779.5,-436.9709 688.5,-436.9709"/>
<image xlink:href="../../images/foreignKeys.png" width="11px" height="12px" preserveAspectRatio="xMinYMin meet" x="693.5" y="-453.971"/>
<text text-anchor="start" x="708.5" y="-444.0709" font-family="Helvetica,sans-Serif" font-size="11.00" fill="#000000">article_id</text>
<polygon fill="none" stroke="#000000" points="688.5,-414.9709 688.5,-436.9709 779.5,-436.9709 779.5,-414.9709 688.5,-414.9709"/>
<image xlink:href="../../images/foreignKeys.png" width="11px" height="12px" preserveAspectRatio="xMinYMin meet" x="693.5" y="-431.971"/>
<text text-anchor="start" x="708.5" y="-422.0709" font-family="Helvetica,sans-Serif" font-size="11.00" fill="#000000">comment_id</text>
<polygon fill="none" stroke="#000000" points="688.5,-395.9709 688.5,-414.9709 779.5,-414.9709 779.5,-395.9709 688.5,-395.9709"/>
<text text-anchor="start" x="691.5" y="-402.0709" font-family="Helvetica,sans-Serif" font-size="11.00" fill="#000000">...</text>
<polygon fill="#ffffff" stroke="transparent" points="688.5,-376.9709 688.5,-395.9709 727.5,-395.9709 727.5,-376.9709 688.5,-376.9709"/>
<polygon fill="none" stroke="#000000" points="688.5,-376.9709 688.5,-395.9709 727.5,-395.9709 727.5,-376.9709 688.5,-376.9709"/>
<text text-anchor="start" x="691.5" y="-383.0709" font-family="Helvetica,sans-Serif" font-size="11.00" fill="#000000">&lt; 3</text>
<polygon fill="#ffffff" stroke="transparent" points="727.5,-376.9709 727.5,-395.9709 748.5,-395.9709 748.5,-376.9709 727.5,-376.9709"/>
<polygon fill="none" stroke="#000000" points="727.5,-376.9709 727.5,-395.9709 748.5,-395.9709 748.5,-376.9709 727.5,-376.9709"/>
<text text-anchor="start" x="739.3862" y="-383.0709" font-family="Helvetica,sans-Serif" font-size="11.00" fill="#000000"> &#160;</text>
<polygon fill="#ffffff" stroke="transparent" points="748.5,-376.9709 748.5,-395.9709 779.5,-395.9709 779.5,-376.9709 748.5,-376.9709"/>
<polygon fill="none" stroke="#000000" points="748.5,-376.9709 748.5,-395.9709 779.5,-395.9709 779.5,-376.9709 748.5,-376.9709"/>
<text text-anchor="start" x="760.9053" y="-383.0709" font-family="Helvetica,sans-Serif" font-size="11.00" fill="#000000">1 &gt;</text>
</a>
</g>
</g>
<!-- report&#45;&gt;comment -->
<g id="edge11" class="edge">
<title>report:w&#45;&gt;comment:e</title>
<path fill="none" stroke="#000000" d="M674.0849,-425.9709C644.4661,-425.9709 632.1181,-425.9709 596.5,-425.9709"/>
<polygon fill="#000000" stroke="#000000" points="680.5,-425.971 688.5,-429.5709 684.5,-425.9709 688.5,-425.9709 688.5,-425.9709 688.5,-425.9709 684.5,-425.9709 688.5,-422.3709 680.5,-425.971 680.5,-425.971"/>
<ellipse fill="none" stroke="#000000" cx="677.3" cy="-425.971" rx="3.2" ry="3.2"/>
</g>
<!-- report&#45;&gt;user -->
<g id="edge12" class="edge">
<title>report:w&#45;&gt;user:e</title>
<path fill="none" stroke="#000000" d="M673.8798,-471.8023C644.2178,-480.0355 642.7016,-513.7917 606,-526.9709 487.6149,-569.4819 449.6731,-545.6328 324,-550.9709 276.0432,-553.0079 257.8084,-574.5518 216,-550.9709 185.693,-533.877 210.2953,-483.9709 175.5,-483.9709"/>
<polygon fill="#000000" stroke="#000000" points="680.562,-470.9653 688.9475,-473.543 684.531,-470.4681 688.5,-469.9709 688.5,-469.9709 688.5,-469.9709 684.531,-470.4681 688.0525,-466.3988 680.562,-470.9653 680.562,-470.9653"/>
<ellipse fill="none" stroke="#000000" cx="677.3869" cy="-471.3631" rx="3.2" ry="3.2"/>
</g>
<!-- report&#45;&gt;article -->
<g id="edge10" class="edge">
<title>report:w&#45;&gt;article:e</title>
<path fill="none" stroke="#000000" d="M674.0414,-449.8859C643.7225,-458.8118 644.0653,-496.4266 606,-508.9709 500.8936,-543.6084 467.5929,-513.0116 357,-508.9709 338.7412,-508.3038 334.2709,-505.9709 316,-505.9709"/>
<polygon fill="#000000" stroke="#000000" points="680.5693,-449.0213 688.9727,-451.5397 684.5346,-448.4961 688.5,-447.9709 688.5,-447.9709 688.5,-447.9709 684.5346,-448.4961 688.0273,-444.4021 680.5693,-449.0213 680.5693,-449.0213"/>
<ellipse fill="none" stroke="#000000" cx="677.397" cy="-449.4415" rx="3.2" ry="3.2"/>
</g>
</g>
</svg>
