<?xml version="1.0" encoding="UTF-8" standalone="no"?>
<!DOCTYPE svg PUBLIC "-//W3C//DTD SVG 1.1//EN"
 "http://www.w3.org/Graphics/SVG/1.1/DTD/svg11.dtd">
<!-- Generated by graphviz version 2.40.1 (20161225.0304)
 -->
<!-- Title: oneDegreeRelationshipsDiagram Pages: 1 -->
<svg width="693pt" height="390pt"
 viewBox="0.00 0.00 693.00 390.20" xmlns="http://www.w3.org/2000/svg" xmlns:xlink="http://www.w3.org/1999/xlink">
<g id="graph0" class="graph" transform="scale(1 1) rotate(0) translate(4 386.2)">
<title>oneDegreeRelationshipsDiagram</title>
<polygon fill="#ffffff" stroke="transparent" points="-4,4 -4,-386.2 689,-386.2 689,4 -4,4"/>
<text text-anchor="middle" x="72.4936" y="-7.3" font-family="Helvetica,sans-Serif" font-size="11.00" fill="#000000">Generated by SchemaSpy</text>
<!-- comment -->
<g id="node1" class="node">
<title>comment</title>
<g id="a_node1"><a xlink:href="../../tables/comment.html" xlink:title="comment" target="_top">
<polygon fill="#ffffff" stroke="transparent" points="224,-163.2 224,-378.2 359,-378.2 359,-163.2 224,-163.2"/>
<polygon fill="#f5f5f5" stroke="transparent" points="224.5,-354.7 224.5,-377.7 359.5,-377.7 359.5,-354.7 224.5,-354.7"/>
<polygon fill="none" stroke="#000000" points="224.5,-354.7 224.5,-377.7 359.5,-377.7 359.5,-354.7 224.5,-354.7"/>
<text text-anchor="start" x="229.5" y="-363.8" font-family="Helvetica,sans-Serif" font-weight="bold" font-size="11.00" fill="#000000">comment</text>
<text text-anchor="start" x="324.5437" y="-362.8" font-family="Helvetica,sans-Serif" font-size="11.00" fill="#000000">[table]</text>
<polygon fill="none" stroke="#000000" points="224.5,-332.7 224.5,-354.7 359.5,-354.7 359.5,-332.7 224.5,-332.7"/>
<image xlink:href="../../images/primaryKeys.png" width="11px" height="12px" preserveAspectRatio="xMinYMin meet" x="229.5" y="-349.7"/>
<text text-anchor="start" x="244.5" y="-339.8" font-family="Helvetica,sans-Serif" font-size="11.00" fill="#000000">id</text>
<polygon fill="#ffffff" stroke="transparent" points="224.5,-310.7 224.5,-332.7 359.5,-332.7 359.5,-310.7 224.5,-310.7"/>
<polygon fill="none" stroke="#000000" points="224.5,-310.7 224.5,-332.7 359.5,-332.7 359.5,-310.7 224.5,-310.7"/>
<text text-anchor="start" x="244.5" y="-317.8" font-family="Helvetica,sans-Serif" font-size="11.00" fill="#000000">uuid</text>
<polygon fill="#ffffff" stroke="transparent" points="224.5,-288.7 224.5,-310.7 359.5,-310.7 359.5,-288.7 224.5,-288.7"/>
<polygon fill="none" stroke="#000000" points="224.5,-288.7 224.5,-310.7 359.5,-310.7 359.5,-288.7 224.5,-288.7"/>
<image xlink:href="../../images/foreignKeys.png" width="11px" height="12px" preserveAspectRatio="xMinYMin meet" x="229.5" y="-305.7"/>
<text text-anchor="start" x="244.5" y="-295.8" font-family="Helvetica,sans-Serif" font-size="11.00" fill="#000000">author_id</text>
<polygon fill="#ffffff" stroke="transparent" points="224.5,-266.7 224.5,-288.7 359.5,-288.7 359.5,-266.7 224.5,-266.7"/>
<polygon fill="none" stroke="#000000" points="224.5,-266.7 224.5,-288.7 359.5,-288.7 359.5,-266.7 224.5,-266.7"/>
<image xlink:href="../../images/foreignKeys.png" width="11px" height="12px" preserveAspectRatio="xMinYMin meet" x="229.5" y="-283.7"/>
<text text-anchor="start" x="244.5" y="-273.8" font-family="Helvetica,sans-Serif" font-size="11.00" fill="#000000">article_id</text>
<polygon fill="#ffffff" stroke="transparent" points="224.5,-244.7 224.5,-266.7 359.5,-266.7 359.5,-244.7 224.5,-244.7"/>
<polygon fill="none" stroke="#000000" points="224.5,-244.7 224.5,-266.7 359.5,-266.7 359.5,-244.7 224.5,-244.7"/>
<image xlink:href="../../images/foreignKeys.png" width="11px" height="12px" preserveAspectRatio="xMinYMin meet" x="229.5" y="-261.7"/>
<text text-anchor="start" x="244.5" y="-251.8" font-family="Helvetica,sans-Serif" font-size="11.00" fill="#000000">parent_comment_id</text>
<polygon fill="#ffffff" stroke="transparent" points="224.5,-222.7 224.5,-244.7 359.5,-244.7 359.5,-222.7 224.5,-222.7"/>
<polygon fill="none" stroke="#000000" points="224.5,-222.7 224.5,-244.7 359.5,-244.7 359.5,-222.7 224.5,-222.7"/>
<text text-anchor="start" x="244.5" y="-229.8" font-family="Helvetica,sans-Serif" font-size="11.00" fill="#000000">state</text>
<polygon fill="none" stroke="#000000" points="224.5,-200.7 224.5,-222.7 359.5,-222.7 359.5,-200.7 224.5,-200.7"/>
<image xlink:href="../../images/foreignKeys.png" width="11px" height="12px" preserveAspectRatio="xMinYMin meet" x="229.5" y="-217.7"/>
<text text-anchor="start" x="244.5" y="-207.8" font-family="Helvetica,sans-Serif" font-size="11.00" fill="#000000">reply_to</text>
<polygon fill="none" stroke="#000000" points="224.5,-181.7 224.5,-200.7 359.5,-200.7 359.5,-181.7 224.5,-181.7"/>
<text text-anchor="start" x="227.5" y="-187.8" font-family="Helvetica,sans-Serif" font-size="11.00" fill="#000000">...</text>
<polygon fill="#ffffff" stroke="transparent" points="224.5,-162.7 224.5,-181.7 285.5,-181.7 285.5,-162.7 224.5,-162.7"/>
<polygon fill="none" stroke="#000000" points="224.5,-162.7 224.5,-181.7 285.5,-181.7 285.5,-162.7 224.5,-162.7"/>
<text text-anchor="start" x="227.5" y="-168.8" font-family="Helvetica,sans-Serif" font-size="11.00" fill="#000000">&lt; 4</text>
<polygon fill="#ffffff" stroke="transparent" points="285.5,-162.7 285.5,-181.7 317.5,-181.7 317.5,-162.7 285.5,-162.7"/>
<polygon fill="none" stroke="#000000" points="285.5,-162.7 285.5,-181.7 317.5,-181.7 317.5,-162.7 285.5,-162.7"/>
<text text-anchor="start" x="308.3862" y="-168.8" font-family="Helvetica,sans-Serif" font-size="11.00" fill="#000000"> &#160;</text>
<polygon fill="#ffffff" stroke="transparent" points="317.5,-162.7 317.5,-181.7 359.5,-181.7 359.5,-162.7 317.5,-162.7"/>
<polygon fill="none" stroke="#000000" points="317.5,-162.7 317.5,-181.7 359.5,-181.7 359.5,-162.7 317.5,-162.7"/>
<text text-anchor="start" x="340.9053" y="-168.8" font-family="Helvetica,sans-Serif" font-size="11.00" fill="#000000">5 &gt;</text>
</a>
</g>
</g>
<!-- user -->
<g id="node2" class="node">
<title>user</title>
<g id="a_node2"><a xlink:href="../../tables/user.html" xlink:title="user" target="_top">
<polygon fill="#ffffff" stroke="transparent" points="8,-38.2 8,-253.2 175,-253.2 175,-38.2 8,-38.2"/>
<polygon fill="#f5f5f5" stroke="transparent" points="8.5,-229.7 8.5,-252.7 175.5,-252.7 175.5,-229.7 8.5,-229.7"/>
<polygon fill="none" stroke="#000000" points="8.5,-229.7 8.5,-252.7 175.5,-252.7 175.5,-229.7 8.5,-229.7"/>
<text text-anchor="start" x="13.5" y="-238.8" font-family="Helvetica,sans-Serif" font-weight="bold" font-size="11.00" fill="#000000">user</text>
<text text-anchor="start" x="140.5437" y="-237.8" font-family="Helvetica,sans-Serif" font-size="11.00" fill="#000000">[table]</text>
<polygon fill="none" stroke="#000000" points="8.5,-207.7 8.5,-229.7 175.5,-229.7 175.5,-207.7 8.5,-207.7"/>
<image xlink:href="../../images/primaryKeys.png" width="11px" height="12px" preserveAspectRatio="xMinYMin meet" x="13.5" y="-224.7"/>
<text text-anchor="start" x="28.5" y="-214.8" font-family="Helvetica,sans-Serif" font-size="11.00" fill="#000000">id</text>
<polygon fill="#ffffff" stroke="transparent" points="8.5,-185.7 8.5,-207.7 175.5,-207.7 175.5,-185.7 8.5,-185.7"/>
<polygon fill="none" stroke="#000000" points="8.5,-185.7 8.5,-207.7 175.5,-207.7 175.5,-185.7 8.5,-185.7"/>
<text text-anchor="start" x="28.5" y="-192.8" font-family="Helvetica,sans-Serif" font-size="11.00" fill="#000000">uuid</text>
<polygon fill="#ffffff" stroke="transparent" points="8.5,-163.7 8.5,-185.7 175.5,-185.7 175.5,-163.7 8.5,-163.7"/>
<polygon fill="none" stroke="#000000" points="8.5,-163.7 8.5,-185.7 175.5,-185.7 175.5,-163.7 8.5,-163.7"/>
<text text-anchor="start" x="28.5" y="-170.8" font-family="Helvetica,sans-Serif" font-size="11.00" fill="#000000">user_name</text>
<polygon fill="none" stroke="#000000" points="8.5,-141.7 8.5,-163.7 175.5,-163.7 175.5,-141.7 8.5,-141.7"/>
<image xlink:href="../../images/foreignKeys.png" width="11px" height="12px" preserveAspectRatio="xMinYMin meet" x="13.5" y="-158.7"/>
<text text-anchor="start" x="28.5" y="-148.8" font-family="Helvetica,sans-Serif" font-size="11.00" fill="#000000">avatar</text>
<polygon fill="#ffffff" stroke="transparent" points="8.5,-119.7 8.5,-141.7 175.5,-141.7 175.5,-119.7 8.5,-119.7"/>
<polygon fill="none" stroke="#000000" points="8.5,-119.7 8.5,-141.7 175.5,-141.7 175.5,-119.7 8.5,-119.7"/>
<text text-anchor="start" x="28.5" y="-126.8" font-family="Helvetica,sans-Serif" font-size="11.00" fill="#000000">email</text>
<polygon fill="#ffffff" stroke="transparent" points="8.5,-97.7 8.5,-119.7 175.5,-119.7 175.5,-97.7 8.5,-97.7"/>
<polygon fill="none" stroke="#000000" points="8.5,-97.7 8.5,-119.7 175.5,-119.7 175.5,-97.7 8.5,-97.7"/>
<text text-anchor="start" x="28.5" y="-104.8" font-family="Helvetica,sans-Serif" font-size="11.00" fill="#000000">state</text>
<polygon fill="#ffffff" stroke="transparent" points="8.5,-75.7 8.5,-97.7 175.5,-97.7 175.5,-75.7 8.5,-75.7"/>
<polygon fill="none" stroke="#000000" points="8.5,-75.7 8.5,-97.7 175.5,-97.7 175.5,-75.7 8.5,-75.7"/>
<text text-anchor="start" x="28.5" y="-82.8" font-family="Helvetica,sans-Serif" font-size="11.00" fill="#000000">liker_id</text>
<polygon fill="none" stroke="#000000" points="8.5,-56.7 8.5,-75.7 175.5,-75.7 175.5,-56.7 8.5,-56.7"/>
<text text-anchor="start" x="11.5" y="-62.8" font-family="Helvetica,sans-Serif" font-size="11.00" fill="#000000">...</text>
<polygon fill="#ffffff" stroke="transparent" points="8.5,-37.7 8.5,-56.7 82.5,-56.7 82.5,-37.7 8.5,-37.7"/>
<polygon fill="none" stroke="#000000" points="8.5,-37.7 8.5,-56.7 82.5,-56.7 82.5,-37.7 8.5,-37.7"/>
<text text-anchor="start" x="11.5" y="-43.8" font-family="Helvetica,sans-Serif" font-size="11.00" fill="#000000">&lt; 1</text>
<polygon fill="#ffffff" stroke="transparent" points="82.5,-37.7 82.5,-56.7 121.5,-56.7 121.5,-37.7 82.5,-37.7"/>
<polygon fill="none" stroke="#000000" points="82.5,-37.7 82.5,-56.7 121.5,-56.7 121.5,-37.7 82.5,-37.7"/>
<text text-anchor="start" x="112.3862" y="-43.8" font-family="Helvetica,sans-Serif" font-size="11.00" fill="#000000"> &#160;</text>
<polygon fill="#ffffff" stroke="transparent" points="121.5,-37.7 121.5,-56.7 175.5,-56.7 175.5,-37.7 121.5,-37.7"/>
<polygon fill="none" stroke="#000000" points="121.5,-37.7 121.5,-56.7 175.5,-56.7 175.5,-37.7 121.5,-37.7"/>
<text text-anchor="start" x="150.7904" y="-43.8" font-family="Helvetica,sans-Serif" font-size="11.00" fill="#000000">42 &gt;</text>
</a>
</g>
</g>
<!-- comment&#45;&gt;user -->
<g id="edge1" class="edge">
<title>comment:w&#45;&gt;user:e</title>
<path fill="none" stroke="#000000" d="M210.6299,-295.113C190.9726,-277.978 211.4935,-218.7 175.5,-218.7"/>
<polygon fill="#000000" stroke="#000000" points="216.9046,-297.1881 223.3696,-303.1179 220.7023,-298.444 224.5,-299.7 224.5,-299.7 224.5,-299.7 220.7023,-298.444 225.6304,-296.2821 216.9046,-297.1881 216.9046,-297.1881"/>
<ellipse fill="none" stroke="#000000" cx="213.8664" cy="-296.1833" rx="3.2" ry="3.2"/>
</g>
<!-- comment_mentioned_user -->
<g id="node3" class="node">
<title>comment_mentioned_user</title>
<g id="a_node3"><a xlink:href="../../tables/comment_mentioned_user.html" xlink:title="comment_mentioned_user" target="_top">
<polygon fill="#ffffff" stroke="transparent" points="408,-175.7 408,-309.7 677,-309.7 677,-175.7 408,-175.7"/>
<polygon fill="#f5f5f5" stroke="transparent" points="410.5,-284.7 410.5,-307.7 675.5,-307.7 675.5,-284.7 410.5,-284.7"/>
<polygon fill="none" stroke="#000000" points="410.5,-284.7 410.5,-307.7 675.5,-307.7 675.5,-284.7 410.5,-284.7"/>
<text text-anchor="start" x="415.5" y="-293.8" font-family="Helvetica,sans-Serif" font-weight="bold" font-size="11.00" fill="#000000">comment_mentioned_user</text>
<text text-anchor="start" x="640.5437" y="-292.8" font-family="Helvetica,sans-Serif" font-size="11.00" fill="#000000">[table]</text>
<polygon fill="none" stroke="#000000" points="410.5,-262.7 410.5,-284.7 583.5,-284.7 583.5,-262.7 410.5,-262.7"/>
<image xlink:href="../../images/primaryKeys.png" width="11px" height="12px" preserveAspectRatio="xMinYMin meet" x="415.5" y="-279.7"/>
<text text-anchor="start" x="430.5" y="-269.8" font-family="Helvetica,sans-Serif" font-size="11.00" fill="#000000">id</text>
<polygon fill="none" stroke="#000000" points="583.5,-262.7 583.5,-284.7 675.5,-284.7 675.5,-262.7 583.5,-262.7"/>
<text text-anchor="start" x="586.5" y="-270.4" font-family="Helvetica,sans-Serif" font-size="11.00" fill="#000000">bigserial[19]</text>
<polygon fill="none" stroke="#000000" points="410.5,-240.7 410.5,-262.7 583.5,-262.7 583.5,-240.7 410.5,-240.7"/>
<image xlink:href="../../images/foreignKeys.png" width="11px" height="12px" preserveAspectRatio="xMinYMin meet" x="415.5" y="-257.7"/>
<text text-anchor="start" x="430.5" y="-247.8" font-family="Helvetica,sans-Serif" font-size="11.00" fill="#000000">comment_id</text>
<polygon fill="none" stroke="#000000" points="583.5,-240.7 583.5,-262.7 675.5,-262.7 675.5,-240.7 583.5,-240.7"/>
<text text-anchor="start" x="586.5" y="-248.4" font-family="Helvetica,sans-Serif" font-size="11.00" fill="#000000">int8[19]</text>
<polygon fill="none" stroke="#000000" points="410.5,-218.7 410.5,-240.7 583.5,-240.7 583.5,-218.7 410.5,-218.7"/>
<image xlink:href="../../images/foreignKeys.png" width="11px" height="12px" preserveAspectRatio="xMinYMin meet" x="415.5" y="-235.7"/>
<text text-anchor="start" x="430.5" y="-225.8" font-family="Helvetica,sans-Serif" font-size="11.00" fill="#000000">user_id</text>
<polygon fill="none" stroke="#000000" points="583.5,-218.7 583.5,-240.7 675.5,-240.7 675.5,-218.7 583.5,-218.7"/>
<text text-anchor="start" x="586.5" y="-226.4" font-family="Helvetica,sans-Serif" font-size="11.00" fill="#000000">int8[19]</text>
<polygon fill="none" stroke="#000000" points="410.5,-196.7 410.5,-218.7 583.5,-218.7 583.5,-196.7 410.5,-196.7"/>
<text text-anchor="start" x="430.5" y="-203.8" font-family="Helvetica,sans-Serif" font-size="11.00" fill="#000000">created_at</text>
<polygon fill="none" stroke="#000000" points="583.5,-196.7 583.5,-218.7 675.5,-218.7 675.5,-196.7 583.5,-196.7"/>
<text text-anchor="start" x="586.1023" y="-204.4" font-family="Helvetica,sans-Serif" font-size="11.00" fill="#000000">timestamptz[35,6]</text>
<polygon fill="#ffffff" stroke="transparent" points="410.5,-177.7 410.5,-196.7 501.5,-196.7 501.5,-177.7 410.5,-177.7"/>
<polygon fill="none" stroke="#000000" points="410.5,-177.7 410.5,-196.7 501.5,-196.7 501.5,-177.7 410.5,-177.7"/>
<text text-anchor="start" x="413.5" y="-183.8" font-family="Helvetica,sans-Serif" font-size="11.00" fill="#000000">&lt; 2</text>
<polygon fill="#ffffff" stroke="transparent" points="501.5,-177.7 501.5,-196.7 583.5,-196.7 583.5,-177.7 501.5,-177.7"/>
<polygon fill="none" stroke="#000000" points="501.5,-177.7 501.5,-196.7 583.5,-196.7 583.5,-177.7 501.5,-177.7"/>
<text text-anchor="start" x="574.3862" y="-183.8" font-family="Helvetica,sans-Serif" font-size="11.00" fill="#000000"> &#160;</text>
<polygon fill="#ffffff" stroke="transparent" points="583.5,-177.7 583.5,-196.7 675.5,-196.7 675.5,-177.7 583.5,-177.7"/>
<polygon fill="none" stroke="#000000" points="583.5,-177.7 583.5,-196.7 675.5,-196.7 675.5,-177.7 583.5,-177.7"/>
<text text-anchor="start" x="656.9053" y="-183.8" font-family="Helvetica,sans-Serif" font-size="11.00" fill="#000000">0 &gt;</text>
<polygon fill="none" stroke="#000000" stroke-width="2" points="409,-176.7 409,-308.7 676,-308.7 676,-176.7 409,-176.7"/>
</a>
</g>
</g>
<!-- comment_mentioned_user&#45;&gt;comment -->
<g id="edge2" class="edge">
<title>comment_mentioned_user:w&#45;&gt;comment:e</title>
<path fill="none" stroke="#000000" d="M396.4874,-255.8921C373.2233,-273.89 400.2247,-343.7 359.5,-343.7"/>
<polygon fill="#000000" stroke="#000000" points="402.8356,-253.993 411.5318,-255.149 406.6678,-252.8465 410.5,-251.7 410.5,-251.7 410.5,-251.7 406.6678,-252.8465 409.4682,-248.251 402.8356,-253.993 402.8356,-253.993"/>
<ellipse fill="none" stroke="#000000" cx="399.7699" cy="-254.9102" rx="3.2" ry="3.2"/>
</g>
<!-- comment_mentioned_user&#45;&gt;user -->
<g id="edge3" class="edge">
<title>comment_mentioned_user:w&#45;&gt;user:e</title>
<path fill="none" stroke="#000000" d="M396.1444,-225.4997C379.2424,-211.9412 395.3779,-169.2616 367,-152.7 309.0378,-118.8728 274.5641,-119.9259 216,-152.7 185.9673,-169.5072 209.9158,-218.7 175.5,-218.7"/>
<polygon fill="#000000" stroke="#000000" points="402.8219,-227.4534 409.489,-233.1551 406.661,-228.5767 410.5,-229.7 410.5,-229.7 410.5,-229.7 406.661,-228.5767 411.511,-226.2449 402.8219,-227.4534 402.8219,-227.4534"/>
<ellipse fill="none" stroke="#000000" cx="399.7507" cy="-226.5548" rx="3.2" ry="3.2"/>
</g>
</g>
</svg>
