<?xml version="1.0" encoding="UTF-8" standalone="no"?>
<!DOCTYPE svg PUBLIC "-//W3C//DTD SVG 1.1//EN"
 "http://www.w3.org/Graphics/SVG/1.1/DTD/svg11.dtd">
<!-- Generated by graphviz version 2.40.1 (20161225.0304)
 -->
<!-- Title: oneDegreeRelationshipsDiagram Pages: 1 -->
<svg width="729pt" height="541pt"
 viewBox="0.00 0.00 729.07 541.10" xmlns="http://www.w3.org/2000/svg" xmlns:xlink="http://www.w3.org/1999/xlink">
<g id="graph0" class="graph" transform="scale(1 1) rotate(0) translate(4 537.0952)">
<title>oneDegreeRelationshipsDiagram</title>
<polygon fill="#ffffff" stroke="transparent" points="-4,4 -4,-537.0952 725.0746,-537.0952 725.0746,4 -4,4"/>
<text text-anchor="middle" x="72.4936" y="-7.3" font-family="Helvetica,sans-Serif" font-size="11.00" fill="#000000">Generated by SchemaSpy</text>
<!-- article -->
<g id="node1" class="node">
<title>article</title>
<g id="a_node1"><a xlink:href="../../tables/article.html" xlink:title="article" target="_top">
<polygon fill="#ffffff" stroke="transparent" points="613.3551,-94.5952 613.3551,-331.5952 705.3551,-331.5952 705.3551,-94.5952 613.3551,-94.5952"/>
<polygon fill="#f5f5f5" stroke="transparent" points="613.3551,-308.0952 613.3551,-331.0952 705.3551,-331.0952 705.3551,-308.0952 613.3551,-308.0952"/>
<polygon fill="none" stroke="#000000" points="613.3551,-308.0952 613.3551,-331.0952 705.3551,-331.0952 705.3551,-308.0952 613.3551,-308.0952"/>
<text text-anchor="start" x="618.3551" y="-317.1952" font-family="Helvetica,sans-Serif" font-weight="bold" font-size="11.00" fill="#000000">article</text>
<text text-anchor="start" x="670.3988" y="-316.1952" font-family="Helvetica,sans-Serif" font-size="11.00" fill="#000000">[table]</text>
<polygon fill="none" stroke="#000000" points="613.3551,-286.0952 613.3551,-308.0952 705.3551,-308.0952 705.3551,-286.0952 613.3551,-286.0952"/>
<image xlink:href="../../images/primaryKeys.png" width="11px" height="12px" preserveAspectRatio="xMinYMin meet" x="618.355" y="-303.095"/>
<text text-anchor="start" x="633.3551" y="-293.1952" font-family="Helvetica,sans-Serif" font-size="11.00" fill="#000000">id</text>
<polygon fill="#ffffff" stroke="transparent" points="613.3551,-264.0952 613.3551,-286.0952 705.3551,-286.0952 705.3551,-264.0952 613.3551,-264.0952"/>
<polygon fill="none" stroke="#000000" points="613.3551,-264.0952 613.3551,-286.0952 705.3551,-286.0952 705.3551,-264.0952 613.3551,-264.0952"/>
<image xlink:href="../../images/foreignKeys.png" width="11px" height="12px" preserveAspectRatio="xMinYMin meet" x="618.355" y="-281.095"/>
<text text-anchor="start" x="633.3551" y="-271.1952" font-family="Helvetica,sans-Serif" font-size="11.00" fill="#000000">author_id</text>
<polygon fill="none" stroke="#000000" points="613.3551,-242.0952 613.3551,-264.0952 705.3551,-264.0952 705.3551,-242.0952 613.3551,-242.0952"/>
<image xlink:href="../../images/foreignKeys.png" width="11px" height="12px" preserveAspectRatio="xMinYMin meet" x="618.355" y="-259.095"/>
<text text-anchor="start" x="633.3551" y="-249.1952" font-family="Helvetica,sans-Serif" font-size="11.00" fill="#000000">upstream_id</text>
<polygon fill="none" stroke="#000000" points="613.3551,-220.0952 613.3551,-242.0952 705.3551,-242.0952 705.3551,-220.0952 613.3551,-220.0952"/>
<image xlink:href="../../images/foreignKeys.png" width="11px" height="12px" preserveAspectRatio="xMinYMin meet" x="618.355" y="-237.095"/>
<text text-anchor="start" x="633.3551" y="-227.1952" font-family="Helvetica,sans-Serif" font-size="11.00" fill="#000000">cover</text>
<polygon fill="#ffffff" stroke="transparent" points="613.3551,-198.0952 613.3551,-220.0952 705.3551,-220.0952 705.3551,-198.0952 613.3551,-198.0952"/>
<polygon fill="none" stroke="#000000" points="613.3551,-198.0952 613.3551,-220.0952 705.3551,-220.0952 705.3551,-198.0952 613.3551,-198.0952"/>
<text text-anchor="start" x="633.3551" y="-205.1952" font-family="Helvetica,sans-Serif" font-size="11.00" fill="#000000">media_hash</text>
<polygon fill="#ffffff" stroke="transparent" points="613.3551,-176.0952 613.3551,-198.0952 705.3551,-198.0952 705.3551,-176.0952 613.3551,-176.0952"/>
<polygon fill="none" stroke="#000000" points="613.3551,-176.0952 613.3551,-198.0952 705.3551,-198.0952 705.3551,-176.0952 613.3551,-176.0952"/>
<text text-anchor="start" x="633.3551" y="-183.1952" font-family="Helvetica,sans-Serif" font-size="11.00" fill="#000000">state</text>
<polygon fill="#ffffff" stroke="transparent" points="613.3551,-154.0952 613.3551,-176.0952 705.3551,-176.0952 705.3551,-154.0952 613.3551,-154.0952"/>
<polygon fill="none" stroke="#000000" points="613.3551,-154.0952 613.3551,-176.0952 705.3551,-176.0952 705.3551,-154.0952 613.3551,-154.0952"/>
<text text-anchor="start" x="633.3551" y="-161.1952" font-family="Helvetica,sans-Serif" font-size="11.00" fill="#000000">created_at</text>
<polygon fill="none" stroke="#000000" points="613.3551,-132.0952 613.3551,-154.0952 705.3551,-154.0952 705.3551,-132.0952 613.3551,-132.0952"/>
<image xlink:href="../../images/foreignKeys.png" width="11px" height="12px" preserveAspectRatio="xMinYMin meet" x="618.355" y="-149.095"/>
<text text-anchor="start" x="633.3551" y="-139.1952" font-family="Helvetica,sans-Serif" font-size="11.00" fill="#000000">draft_id</text>
<polygon fill="none" stroke="#000000" points="613.3551,-113.0952 613.3551,-132.0952 705.3551,-132.0952 705.3551,-113.0952 613.3551,-113.0952"/>
<text text-anchor="start" x="616.3551" y="-119.1952" font-family="Helvetica,sans-Serif" font-size="11.00" fill="#000000">...</text>
<polygon fill="#ffffff" stroke="transparent" points="613.3551,-94.0952 613.3551,-113.0952 650.3551,-113.0952 650.3551,-94.0952 613.3551,-94.0952"/>
<polygon fill="none" stroke="#000000" points="613.3551,-94.0952 613.3551,-113.0952 650.3551,-113.0952 650.3551,-94.0952 613.3551,-94.0952"/>
<text text-anchor="start" x="616.3551" y="-100.1952" font-family="Helvetica,sans-Serif" font-size="11.00" fill="#000000">&lt; 4</text>
<polygon fill="#ffffff" stroke="transparent" points="650.3551,-94.0952 650.3551,-113.0952 670.3551,-113.0952 670.3551,-94.0952 650.3551,-94.0952"/>
<polygon fill="none" stroke="#000000" points="650.3551,-94.0952 650.3551,-113.0952 670.3551,-113.0952 670.3551,-94.0952 650.3551,-94.0952"/>
<text text-anchor="start" x="661.2413" y="-100.1952" font-family="Helvetica,sans-Serif" font-size="11.00" fill="#000000"> &#160;</text>
<polygon fill="#ffffff" stroke="transparent" points="670.3551,-94.0952 670.3551,-113.0952 705.3551,-113.0952 705.3551,-94.0952 670.3551,-94.0952"/>
<polygon fill="none" stroke="#000000" points="670.3551,-94.0952 670.3551,-113.0952 705.3551,-113.0952 705.3551,-94.0952 670.3551,-94.0952"/>
<text text-anchor="start" x="680.6455" y="-100.1952" font-family="Helvetica,sans-Serif" font-size="11.00" fill="#000000">14 &gt;</text>
</a>
</g>
</g>
<!-- user -->
<g id="node2" class="node">
<title>user</title>
<g id="a_node2"><a xlink:href="../../tables/user.html" xlink:title="user" target="_top">
<polygon fill="#ffffff" stroke="transparent" points="149.3551,-134.5952 149.3551,-349.5952 316.3551,-349.5952 316.3551,-134.5952 149.3551,-134.5952"/>
<polygon fill="#f5f5f5" stroke="transparent" points="149.8551,-326.0952 149.8551,-349.0952 316.8551,-349.0952 316.8551,-326.0952 149.8551,-326.0952"/>
<polygon fill="none" stroke="#000000" points="149.8551,-326.0952 149.8551,-349.0952 316.8551,-349.0952 316.8551,-326.0952 149.8551,-326.0952"/>
<text text-anchor="start" x="154.8551" y="-335.1952" font-family="Helvetica,sans-Serif" font-weight="bold" font-size="11.00" fill="#000000">user</text>
<text text-anchor="start" x="281.8988" y="-334.1952" font-family="Helvetica,sans-Serif" font-size="11.00" fill="#000000">[table]</text>
<polygon fill="none" stroke="#000000" points="149.8551,-304.0952 149.8551,-326.0952 316.8551,-326.0952 316.8551,-304.0952 149.8551,-304.0952"/>
<image xlink:href="../../images/primaryKeys.png" width="11px" height="12px" preserveAspectRatio="xMinYMin meet" x="154.855" y="-321.095"/>
<text text-anchor="start" x="169.8551" y="-311.1952" font-family="Helvetica,sans-Serif" font-size="11.00" fill="#000000">id</text>
<polygon fill="#ffffff" stroke="transparent" points="149.8551,-282.0952 149.8551,-304.0952 316.8551,-304.0952 316.8551,-282.0952 149.8551,-282.0952"/>
<polygon fill="none" stroke="#000000" points="149.8551,-282.0952 149.8551,-304.0952 316.8551,-304.0952 316.8551,-282.0952 149.8551,-282.0952"/>
<text text-anchor="start" x="169.8551" y="-289.1952" font-family="Helvetica,sans-Serif" font-size="11.00" fill="#000000">uuid</text>
<polygon fill="#ffffff" stroke="transparent" points="149.8551,-260.0952 149.8551,-282.0952 316.8551,-282.0952 316.8551,-260.0952 149.8551,-260.0952"/>
<polygon fill="none" stroke="#000000" points="149.8551,-260.0952 149.8551,-282.0952 316.8551,-282.0952 316.8551,-260.0952 149.8551,-260.0952"/>
<text text-anchor="start" x="169.8551" y="-267.1952" font-family="Helvetica,sans-Serif" font-size="11.00" fill="#000000">user_name</text>
<polygon fill="none" stroke="#000000" points="149.8551,-238.0952 149.8551,-260.0952 316.8551,-260.0952 316.8551,-238.0952 149.8551,-238.0952"/>
<image xlink:href="../../images/foreignKeys.png" width="11px" height="12px" preserveAspectRatio="xMinYMin meet" x="154.855" y="-255.095"/>
<text text-anchor="start" x="169.8551" y="-245.1952" font-family="Helvetica,sans-Serif" font-size="11.00" fill="#000000">avatar</text>
<polygon fill="#ffffff" stroke="transparent" points="149.8551,-216.0952 149.8551,-238.0952 316.8551,-238.0952 316.8551,-216.0952 149.8551,-216.0952"/>
<polygon fill="none" stroke="#000000" points="149.8551,-216.0952 149.8551,-238.0952 316.8551,-238.0952 316.8551,-216.0952 149.8551,-216.0952"/>
<text text-anchor="start" x="169.8551" y="-223.1952" font-family="Helvetica,sans-Serif" font-size="11.00" fill="#000000">email</text>
<polygon fill="#ffffff" stroke="transparent" points="149.8551,-194.0952 149.8551,-216.0952 316.8551,-216.0952 316.8551,-194.0952 149.8551,-194.0952"/>
<polygon fill="none" stroke="#000000" points="149.8551,-194.0952 149.8551,-216.0952 316.8551,-216.0952 316.8551,-194.0952 149.8551,-194.0952"/>
<text text-anchor="start" x="169.8551" y="-201.1952" font-family="Helvetica,sans-Serif" font-size="11.00" fill="#000000">state</text>
<polygon fill="#ffffff" stroke="transparent" points="149.8551,-172.0952 149.8551,-194.0952 316.8551,-194.0952 316.8551,-172.0952 149.8551,-172.0952"/>
<polygon fill="none" stroke="#000000" points="149.8551,-172.0952 149.8551,-194.0952 316.8551,-194.0952 316.8551,-172.0952 149.8551,-172.0952"/>
<text text-anchor="start" x="169.8551" y="-179.1952" font-family="Helvetica,sans-Serif" font-size="11.00" fill="#000000">liker_id</text>
<polygon fill="none" stroke="#000000" points="149.8551,-153.0952 149.8551,-172.0952 316.8551,-172.0952 316.8551,-153.0952 149.8551,-153.0952"/>
<text text-anchor="start" x="152.8551" y="-159.1952" font-family="Helvetica,sans-Serif" font-size="11.00" fill="#000000">...</text>
<polygon fill="#ffffff" stroke="transparent" points="149.8551,-134.0952 149.8551,-153.0952 223.8551,-153.0952 223.8551,-134.0952 149.8551,-134.0952"/>
<polygon fill="none" stroke="#000000" points="149.8551,-134.0952 149.8551,-153.0952 223.8551,-153.0952 223.8551,-134.0952 149.8551,-134.0952"/>
<text text-anchor="start" x="152.8551" y="-140.1952" font-family="Helvetica,sans-Serif" font-size="11.00" fill="#000000">&lt; 1</text>
<polygon fill="#ffffff" stroke="transparent" points="223.8551,-134.0952 223.8551,-153.0952 262.8551,-153.0952 262.8551,-134.0952 223.8551,-134.0952"/>
<polygon fill="none" stroke="#000000" points="223.8551,-134.0952 223.8551,-153.0952 262.8551,-153.0952 262.8551,-134.0952 223.8551,-134.0952"/>
<text text-anchor="start" x="253.7413" y="-140.1952" font-family="Helvetica,sans-Serif" font-size="11.00" fill="#000000"> &#160;</text>
<polygon fill="#ffffff" stroke="transparent" points="262.8551,-134.0952 262.8551,-153.0952 316.8551,-153.0952 316.8551,-134.0952 262.8551,-134.0952"/>
<polygon fill="none" stroke="#000000" points="262.8551,-134.0952 262.8551,-153.0952 316.8551,-153.0952 316.8551,-134.0952 262.8551,-134.0952"/>
<text text-anchor="start" x="292.1455" y="-140.1952" font-family="Helvetica,sans-Serif" font-size="11.00" fill="#000000">42 &gt;</text>
</a>
</g>
</g>
<!-- article&#45;&gt;user -->
<g id="edge1" class="edge">
<title>article:w&#45;&gt;user:e</title>
<path fill="none" stroke="#000000" d="M598.7879,-272.4862C564.1443,-256.8613 617.2612,-175.2434 572.3551,-142.0952 533.9156,-113.7205 394.792,-112.4103 357.3551,-142.0952 295.4789,-191.1589 395.8228,-315.0952 316.8551,-315.0952"/>
<polygon fill="#000000" stroke="#000000" points="605.4804,-273.6848 612.7204,-278.6388 609.4177,-274.39 613.3551,-275.0952 613.3551,-275.0952 613.3551,-275.0952 609.4177,-274.39 613.9898,-271.5516 605.4804,-273.6848 605.4804,-273.6848"/>
<ellipse fill="none" stroke="#000000" cx="602.3305" cy="-273.1206" rx="3.2" ry="3.2"/>
</g>
<!-- asset -->
<g id="node3" class="node">
<title>asset</title>
<g id="a_node3"><a xlink:href="../../tables/asset.html" xlink:title="asset" target="_top">
<polygon fill="#ffffff" stroke="transparent" points="15.3551,-211.5952 15.3551,-338.5952 100.3551,-338.5952 100.3551,-211.5952 15.3551,-211.5952"/>
<polygon fill="#f5f5f5" stroke="transparent" points="15.8551,-315.0952 15.8551,-338.0952 100.8551,-338.0952 100.8551,-315.0952 15.8551,-315.0952"/>
<polygon fill="none" stroke="#000000" points="15.8551,-315.0952 15.8551,-338.0952 100.8551,-338.0952 100.8551,-315.0952 15.8551,-315.0952"/>
<text text-anchor="start" x="20.8551" y="-324.1952" font-family="Helvetica,sans-Serif" font-weight="bold" font-size="11.00" fill="#000000">asset</text>
<text text-anchor="start" x="65.8988" y="-323.1952" font-family="Helvetica,sans-Serif" font-size="11.00" fill="#000000">[table]</text>
<polygon fill="none" stroke="#000000" points="15.8551,-293.0952 15.8551,-315.0952 100.8551,-315.0952 100.8551,-293.0952 15.8551,-293.0952"/>
<image xlink:href="../../images/primaryKeys.png" width="11px" height="12px" preserveAspectRatio="xMinYMin meet" x="20.8551" y="-310.095"/>
<text text-anchor="start" x="35.8551" y="-300.1952" font-family="Helvetica,sans-Serif" font-size="11.00" fill="#000000">id</text>
<polygon fill="#ffffff" stroke="transparent" points="15.8551,-271.0952 15.8551,-293.0952 100.8551,-293.0952 100.8551,-271.0952 15.8551,-271.0952"/>
<polygon fill="none" stroke="#000000" points="15.8551,-271.0952 15.8551,-293.0952 100.8551,-293.0952 100.8551,-271.0952 15.8551,-271.0952"/>
<text text-anchor="start" x="35.8551" y="-278.1952" font-family="Helvetica,sans-Serif" font-size="11.00" fill="#000000">uuid</text>
<polygon fill="none" stroke="#000000" points="15.8551,-249.0952 15.8551,-271.0952 100.8551,-271.0952 100.8551,-249.0952 15.8551,-249.0952"/>
<image xlink:href="../../images/foreignKeys.png" width="11px" height="12px" preserveAspectRatio="xMinYMin meet" x="20.8551" y="-266.095"/>
<text text-anchor="start" x="35.8551" y="-256.1952" font-family="Helvetica,sans-Serif" font-size="11.00" fill="#000000">author_id</text>
<polygon fill="none" stroke="#000000" points="15.8551,-230.0952 15.8551,-249.0952 100.8551,-249.0952 100.8551,-230.0952 15.8551,-230.0952"/>
<text text-anchor="start" x="18.8551" y="-236.1952" font-family="Helvetica,sans-Serif" font-size="11.00" fill="#000000">...</text>
<polygon fill="#ffffff" stroke="transparent" points="15.8551,-211.0952 15.8551,-230.0952 51.8551,-230.0952 51.8551,-211.0952 15.8551,-211.0952"/>
<polygon fill="none" stroke="#000000" points="15.8551,-211.0952 15.8551,-230.0952 51.8551,-230.0952 51.8551,-211.0952 15.8551,-211.0952"/>
<text text-anchor="start" x="18.8551" y="-217.1952" font-family="Helvetica,sans-Serif" font-size="11.00" fill="#000000">&lt; 1</text>
<polygon fill="#ffffff" stroke="transparent" points="51.8551,-211.0952 51.8551,-230.0952 71.8551,-230.0952 71.8551,-211.0952 51.8551,-211.0952"/>
<polygon fill="none" stroke="#000000" points="51.8551,-211.0952 51.8551,-230.0952 71.8551,-230.0952 71.8551,-211.0952 51.8551,-211.0952"/>
<text text-anchor="start" x="62.7413" y="-217.1952" font-family="Helvetica,sans-Serif" font-size="11.00" fill="#000000"> &#160;</text>
<polygon fill="#ffffff" stroke="transparent" points="71.8551,-211.0952 71.8551,-230.0952 100.8551,-230.0952 100.8551,-211.0952 71.8551,-211.0952"/>
<polygon fill="none" stroke="#000000" points="71.8551,-211.0952 71.8551,-230.0952 100.8551,-230.0952 100.8551,-211.0952 71.8551,-211.0952"/>
<text text-anchor="start" x="82.2604" y="-217.1952" font-family="Helvetica,sans-Serif" font-size="11.00" fill="#000000">9 &gt;</text>
</a>
</g>
</g>
<!-- article&#45;&gt;asset -->
<g id="edge2" class="edge">
<title>article:w&#45;&gt;asset:e</title>
<path fill="none" stroke="#000000" d="M599.1134,-228.1203C571.3739,-213.1044 611.1477,-145.2872 572.3551,-118.0952 415.482,-8.1339 289.2732,-2.3543 141.3551,-124.0952 78.0413,-176.2043 182.8551,-304.0952 100.8551,-304.0952"/>
<polygon fill="#000000" stroke="#000000" points="605.5241,-229.4594 612.6189,-234.6192 609.4396,-230.2773 613.3551,-231.0952 613.3551,-231.0952 613.3551,-231.0952 609.4396,-230.2773 614.0912,-227.5713 605.5241,-229.4594 605.5241,-229.4594"/>
<ellipse fill="none" stroke="#000000" cx="602.3917" cy="-228.8051" rx="3.2" ry="3.2"/>
</g>
<!-- draft -->
<g id="node4" class="node">
<title>draft</title>
<g id="a_node4"><a xlink:href="../../tables/draft.html" xlink:title="draft" target="_top">
<polygon fill="#ffffff" stroke="transparent" points="365.3551,-153.0952 365.3551,-529.0952 564.3551,-529.0952 564.3551,-153.0952 365.3551,-153.0952"/>
<polygon fill="#f5f5f5" stroke="transparent" points="367.8551,-504.0952 367.8551,-527.0952 562.8551,-527.0952 562.8551,-504.0952 367.8551,-504.0952"/>
<polygon fill="none" stroke="#000000" points="367.8551,-504.0952 367.8551,-527.0952 562.8551,-527.0952 562.8551,-504.0952 367.8551,-504.0952"/>
<text text-anchor="start" x="372.8551" y="-513.1952" font-family="Helvetica,sans-Serif" font-weight="bold" font-size="11.00" fill="#000000">draft</text>
<text text-anchor="start" x="527.8988" y="-512.1952" font-family="Helvetica,sans-Serif" font-size="11.00" fill="#000000">[table]</text>
<polygon fill="none" stroke="#000000" points="367.8551,-482.0952 367.8551,-504.0952 465.8551,-504.0952 465.8551,-482.0952 367.8551,-482.0952"/>
<image xlink:href="../../images/primaryKeys.png" width="11px" height="12px" preserveAspectRatio="xMinYMin meet" x="372.855" y="-499.095"/>
<text text-anchor="start" x="387.8551" y="-489.1952" font-family="Helvetica,sans-Serif" font-size="11.00" fill="#000000">id</text>
<polygon fill="none" stroke="#000000" points="465.8551,-482.0952 465.8551,-504.0952 562.8551,-504.0952 562.8551,-482.0952 465.8551,-482.0952"/>
<text text-anchor="start" x="468.8551" y="-489.7952" font-family="Helvetica,sans-Serif" font-size="11.00" fill="#000000">bigserial[19]</text>
<polygon fill="#ffffff" stroke="transparent" points="367.8551,-460.0952 367.8551,-482.0952 465.8551,-482.0952 465.8551,-460.0952 367.8551,-460.0952"/>
<polygon fill="none" stroke="#000000" points="367.8551,-460.0952 367.8551,-482.0952 465.8551,-482.0952 465.8551,-460.0952 367.8551,-460.0952"/>
<text text-anchor="start" x="387.8551" y="-467.1952" font-family="Helvetica,sans-Serif" font-size="11.00" fill="#000000">uuid</text>
<polygon fill="none" stroke="#000000" points="465.8551,-460.0952 465.8551,-482.0952 562.8551,-482.0952 562.8551,-460.0952 465.8551,-460.0952"/>
<text text-anchor="start" x="468.8551" y="-467.7952" font-family="Helvetica,sans-Serif" font-size="11.00" fill="#000000">uuid[2147483647]</text>
<polygon fill="#ffffff" stroke="transparent" points="367.8551,-438.0952 367.8551,-460.0952 465.8551,-460.0952 465.8551,-438.0952 367.8551,-438.0952"/>
<polygon fill="none" stroke="#000000" points="367.8551,-438.0952 367.8551,-460.0952 465.8551,-460.0952 465.8551,-438.0952 367.8551,-438.0952"/>
<image xlink:href="../../images/foreignKeys.png" width="11px" height="12px" preserveAspectRatio="xMinYMin meet" x="372.855" y="-455.095"/>
<text text-anchor="start" x="387.8551" y="-445.1952" font-family="Helvetica,sans-Serif" font-size="11.00" fill="#000000">author_id</text>
<polygon fill="none" stroke="#000000" points="465.8551,-438.0952 465.8551,-460.0952 562.8551,-460.0952 562.8551,-438.0952 465.8551,-438.0952"/>
<text text-anchor="start" x="468.8551" y="-445.7952" font-family="Helvetica,sans-Serif" font-size="11.00" fill="#000000">int8[19]</text>
<polygon fill="none" stroke="#000000" points="367.8551,-416.0952 367.8551,-438.0952 465.8551,-438.0952 465.8551,-416.0952 367.8551,-416.0952"/>
<image xlink:href="../../images/foreignKeys.png" width="11px" height="12px" preserveAspectRatio="xMinYMin meet" x="372.855" y="-433.095"/>
<text text-anchor="start" x="387.8551" y="-423.1952" font-family="Helvetica,sans-Serif" font-size="11.00" fill="#000000">upstream_id</text>
<polygon fill="none" stroke="#000000" points="465.8551,-416.0952 465.8551,-438.0952 562.8551,-438.0952 562.8551,-416.0952 465.8551,-416.0952"/>
<text text-anchor="start" x="468.8551" y="-423.7952" font-family="Helvetica,sans-Serif" font-size="11.00" fill="#000000">int8[19]</text>
<polygon fill="none" stroke="#000000" points="367.8551,-394.0952 367.8551,-416.0952 465.8551,-416.0952 465.8551,-394.0952 367.8551,-394.0952"/>
<text text-anchor="start" x="387.8551" y="-401.1952" font-family="Helvetica,sans-Serif" font-size="11.00" fill="#000000">title</text>
<polygon fill="none" stroke="#000000" points="465.8551,-394.0952 465.8551,-416.0952 562.8551,-416.0952 562.8551,-394.0952 465.8551,-394.0952"/>
<text text-anchor="start" x="468.8551" y="-401.7952" font-family="Helvetica,sans-Serif" font-size="11.00" fill="#000000">varchar[255]</text>
<polygon fill="none" stroke="#000000" points="367.8551,-372.0952 367.8551,-394.0952 465.8551,-394.0952 465.8551,-372.0952 367.8551,-372.0952"/>
<image xlink:href="../../images/foreignKeys.png" width="11px" height="12px" preserveAspectRatio="xMinYMin meet" x="372.855" y="-389.095"/>
<text text-anchor="start" x="387.8551" y="-379.1952" font-family="Helvetica,sans-Serif" font-size="11.00" fill="#000000">cover</text>
<polygon fill="none" stroke="#000000" points="465.8551,-372.0952 465.8551,-394.0952 562.8551,-394.0952 562.8551,-372.0952 465.8551,-372.0952"/>
<text text-anchor="start" x="468.8551" y="-379.7952" font-family="Helvetica,sans-Serif" font-size="11.00" fill="#000000">int8[19]</text>
<polygon fill="none" stroke="#000000" points="367.8551,-350.0952 367.8551,-372.0952 465.8551,-372.0952 465.8551,-350.0952 367.8551,-350.0952"/>
<text text-anchor="start" x="387.8551" y="-357.1952" font-family="Helvetica,sans-Serif" font-size="11.00" fill="#000000">summary</text>
<polygon fill="none" stroke="#000000" points="465.8551,-350.0952 465.8551,-372.0952 562.8551,-372.0952 562.8551,-350.0952 465.8551,-350.0952"/>
<text text-anchor="start" x="468.8551" y="-357.7952" font-family="Helvetica,sans-Serif" font-size="11.00" fill="#000000">text[2147483647]</text>
<polygon fill="none" stroke="#000000" points="367.8551,-328.0952 367.8551,-350.0952 465.8551,-350.0952 465.8551,-328.0952 367.8551,-328.0952"/>
<text text-anchor="start" x="387.8551" y="-335.1952" font-family="Helvetica,sans-Serif" font-size="11.00" fill="#000000">content</text>
<polygon fill="none" stroke="#000000" points="465.8551,-328.0952 465.8551,-350.0952 562.8551,-350.0952 562.8551,-328.0952 465.8551,-328.0952"/>
<text text-anchor="start" x="468.8551" y="-335.7952" font-family="Helvetica,sans-Serif" font-size="11.00" fill="#000000">text[2147483647]</text>
<polygon fill="#ffffff" stroke="transparent" points="367.8551,-306.0952 367.8551,-328.0952 465.8551,-328.0952 465.8551,-306.0952 367.8551,-306.0952"/>
<polygon fill="none" stroke="#000000" points="367.8551,-306.0952 367.8551,-328.0952 465.8551,-328.0952 465.8551,-306.0952 367.8551,-306.0952"/>
<text text-anchor="start" x="387.8551" y="-313.1952" font-family="Helvetica,sans-Serif" font-size="11.00" fill="#000000">archived</text>
<polygon fill="none" stroke="#000000" points="465.8551,-306.0952 465.8551,-328.0952 562.8551,-328.0952 562.8551,-306.0952 465.8551,-306.0952"/>
<text text-anchor="start" x="468.8551" y="-313.7952" font-family="Helvetica,sans-Serif" font-size="11.00" fill="#000000">bool[1]</text>
<polygon fill="#ffffff" stroke="transparent" points="367.8551,-284.0952 367.8551,-306.0952 465.8551,-306.0952 465.8551,-284.0952 367.8551,-284.0952"/>
<polygon fill="none" stroke="#000000" points="367.8551,-284.0952 367.8551,-306.0952 465.8551,-306.0952 465.8551,-284.0952 367.8551,-284.0952"/>
<text text-anchor="start" x="387.8551" y="-291.1952" font-family="Helvetica,sans-Serif" font-size="11.00" fill="#000000">publish_state</text>
<polygon fill="none" stroke="#000000" points="465.8551,-284.0952 465.8551,-306.0952 562.8551,-306.0952 562.8551,-284.0952 465.8551,-284.0952"/>
<text text-anchor="start" x="468.8551" y="-291.7952" font-family="Helvetica,sans-Serif" font-size="11.00" fill="#000000">text[2147483647]</text>
<polygon fill="none" stroke="#000000" points="367.8551,-262.0952 367.8551,-284.0952 465.8551,-284.0952 465.8551,-262.0952 367.8551,-262.0952"/>
<text text-anchor="start" x="387.8551" y="-269.1952" font-family="Helvetica,sans-Serif" font-size="11.00" fill="#000000">tags</text>
<polygon fill="none" stroke="#000000" points="465.8551,-262.0952 465.8551,-284.0952 562.8551,-284.0952 562.8551,-262.0952 465.8551,-262.0952"/>
<text text-anchor="start" x="468.8019" y="-269.7952" font-family="Helvetica,sans-Serif" font-size="11.00" fill="#000000">_text[2147483647]</text>
<polygon fill="none" stroke="#000000" points="367.8551,-240.0952 367.8551,-262.0952 465.8551,-262.0952 465.8551,-240.0952 367.8551,-240.0952"/>
<text text-anchor="start" x="387.8551" y="-247.1952" font-family="Helvetica,sans-Serif" font-size="11.00" fill="#000000">scheduled_at</text>
<polygon fill="none" stroke="#000000" points="465.8551,-240.0952 465.8551,-262.0952 562.8551,-262.0952 562.8551,-240.0952 465.8551,-240.0952"/>
<text text-anchor="start" x="468.8551" y="-247.7952" font-family="Helvetica,sans-Serif" font-size="11.00" fill="#000000">timestamptz[35,6]</text>
<polygon fill="none" stroke="#000000" points="367.8551,-218.0952 367.8551,-240.0952 465.8551,-240.0952 465.8551,-218.0952 367.8551,-218.0952"/>
<text text-anchor="start" x="387.8551" y="-225.1952" font-family="Helvetica,sans-Serif" font-size="11.00" fill="#000000">created_at</text>
<polygon fill="none" stroke="#000000" points="465.8551,-218.0952 465.8551,-240.0952 562.8551,-240.0952 562.8551,-218.0952 465.8551,-218.0952"/>
<text text-anchor="start" x="468.8551" y="-225.7952" font-family="Helvetica,sans-Serif" font-size="11.00" fill="#000000">timestamptz[35,6]</text>
<polygon fill="none" stroke="#000000" points="367.8551,-196.0952 367.8551,-218.0952 465.8551,-218.0952 465.8551,-196.0952 367.8551,-196.0952"/>
<text text-anchor="start" x="387.8551" y="-203.1952" font-family="Helvetica,sans-Serif" font-size="11.00" fill="#000000">updated_at</text>
<polygon fill="none" stroke="#000000" points="465.8551,-196.0952 465.8551,-218.0952 562.8551,-218.0952 562.8551,-196.0952 465.8551,-196.0952"/>
<text text-anchor="start" x="468.8551" y="-203.7952" font-family="Helvetica,sans-Serif" font-size="11.00" fill="#000000">timestamptz[35,6]</text>
<polygon fill="none" stroke="#000000" points="367.8551,-174.0952 367.8551,-196.0952 465.8551,-196.0952 465.8551,-174.0952 367.8551,-174.0952"/>
<text text-anchor="start" x="387.8551" y="-181.1952" font-family="Helvetica,sans-Serif" font-size="11.00" fill="#000000">collection</text>
<polygon fill="none" stroke="#000000" points="465.8551,-174.0952 465.8551,-196.0952 562.8551,-196.0952 562.8551,-174.0952 465.8551,-174.0952"/>
<text text-anchor="start" x="468.8019" y="-181.7952" font-family="Helvetica,sans-Serif" font-size="11.00" fill="#000000">_text[2147483647]</text>
<polygon fill="#ffffff" stroke="transparent" points="367.8551,-155.0952 367.8551,-174.0952 420.8551,-174.0952 420.8551,-155.0952 367.8551,-155.0952"/>
<polygon fill="none" stroke="#000000" points="367.8551,-155.0952 367.8551,-174.0952 420.8551,-174.0952 420.8551,-155.0952 367.8551,-155.0952"/>
<text text-anchor="start" x="370.8551" y="-161.1952" font-family="Helvetica,sans-Serif" font-size="11.00" fill="#000000">&lt; 3</text>
<polygon fill="#ffffff" stroke="transparent" points="420.8551,-155.0952 420.8551,-174.0952 465.8551,-174.0952 465.8551,-155.0952 420.8551,-155.0952"/>
<polygon fill="none" stroke="#000000" points="420.8551,-155.0952 420.8551,-174.0952 465.8551,-174.0952 465.8551,-155.0952 420.8551,-155.0952"/>
<text text-anchor="start" x="456.7413" y="-161.1952" font-family="Helvetica,sans-Serif" font-size="11.00" fill="#000000"> &#160;</text>
<polygon fill="#ffffff" stroke="transparent" points="465.8551,-155.0952 465.8551,-174.0952 562.8551,-174.0952 562.8551,-155.0952 465.8551,-155.0952"/>
<polygon fill="none" stroke="#000000" points="465.8551,-155.0952 465.8551,-174.0952 562.8551,-174.0952 562.8551,-155.0952 465.8551,-155.0952"/>
<text text-anchor="start" x="544.2604" y="-161.1952" font-family="Helvetica,sans-Serif" font-size="11.00" fill="#000000">1 &gt;</text>
<polygon fill="none" stroke="#000000" stroke-width="2" points="366.3551,-154.0952 366.3551,-528.0952 563.3551,-528.0952 563.3551,-154.0952 366.3551,-154.0952"/>
</a>
</g>
</g>
<!-- article&#45;&gt;draft -->
<g id="edge3" class="edge">
<title>article:w&#45;&gt;draft:e</title>
<path fill="none" stroke="#000000" d="M599.718,-147.7783C548.4895,-189.3112 636.0664,-493.0952 562.8551,-493.0952"/>
<polygon fill="#000000" stroke="#000000" points="605.7888,-145.6936 614.5243,-146.5001 609.5719,-144.3944 613.3551,-143.0952 613.3551,-143.0952 613.3551,-143.0952 609.5719,-144.3944 612.1858,-139.6904 605.7888,-145.6936 605.7888,-145.6936"/>
<ellipse fill="none" stroke="#000000" cx="602.7623" cy="-146.7329" rx="3.2" ry="3.2"/>
</g>
<!-- user&#45;&gt;asset -->
<g id="edge8" class="edge">
<title>user:w&#45;&gt;asset:e</title>
<path fill="none" stroke="#000000" d="M135.9816,-254.1709C121.5653,-267.7866 127.455,-304.0952 100.8551,-304.0952"/>
<polygon fill="#000000" stroke="#000000" points="142.3421,-251.8439 151.092,-252.4761 146.0986,-250.4696 149.8551,-249.0952 149.8551,-249.0952 149.8551,-249.0952 146.0986,-250.4696 148.6182,-245.7144 142.3421,-251.8439 142.3421,-251.8439"/>
<ellipse fill="none" stroke="#000000" cx="139.3369" cy="-252.9434" rx="3.2" ry="3.2"/>
</g>
<!-- asset&#45;&gt;user -->
<g id="edge4" class="edge">
<title>asset:w&#45;&gt;user:e</title>
<path fill="none" stroke="#000000" d="M4.8452,-250.1609C-9.5101,-218.2935 5.4934,-125.3883 108.3551,-207.5952 160.3233,-249.1282 89.3869,-312.0623 141.3551,-353.5952 141.3551,-353.5952 316.8551,-315.0952 316.8551,-315.0952"/>
<polygon fill="#000000" stroke="#000000" points="9.9155,-254.7359 13.4434,-262.768 12.8853,-257.4156 15.8551,-260.0952 15.8551,-260.0952 15.8551,-260.0952 12.8853,-257.4156 18.2668,-257.4224 9.9155,-254.7359 9.9155,-254.7359"/>
<ellipse fill="none" stroke="#000000" cx="7.5397" cy="-252.5922" rx="3.2" ry="3.2"/>
</g>
<!-- draft&#45;&gt;article -->
<g id="edge7" class="edge">
<title>draft:w&#45;&gt;article:e</title>
<path fill="none" stroke="#000000" d="M380.6475,-433.726C425.4175,-456.932 572.3551,-533.0952 572.3551,-533.0952 735.4642,-446.2901 735.5058,-297.0952 705.3551,-297.0952"/>
<polygon fill="#000000" stroke="#000000" points="374.9576,-430.7768 369.5118,-423.8991 371.4064,-428.936 367.8551,-427.0952 367.8551,-427.0952 367.8551,-427.0952 371.4064,-428.936 366.1984,-430.2914 374.9576,-430.7768 374.9576,-430.7768"/>
<ellipse fill="none" stroke="#000000" cx="377.7987" cy="-432.2494" rx="3.2" ry="3.2"/>
</g>
<!-- draft&#45;&gt;user -->
<g id="edge5" class="edge">
<title>draft:w&#45;&gt;user:e</title>
<path fill="none" stroke="#000000" d="M353.3978,-445.7829C317.2336,-425.148 374.6042,-315.0952 316.8551,-315.0952"/>
<polygon fill="#000000" stroke="#000000" points="360.0571,-447.3086 367.0511,-452.6043 363.9561,-448.2019 367.8551,-449.0952 367.8551,-449.0952 367.8551,-449.0952 363.9561,-448.2019 368.6591,-445.5862 360.0571,-447.3086 360.0571,-447.3086"/>
<ellipse fill="none" stroke="#000000" cx="356.9379" cy="-446.5939" rx="3.2" ry="3.2"/>
</g>
<!-- draft&#45;&gt;asset -->
<g id="edge6" class="edge">
<title>draft:w&#45;&gt;asset:e</title>
<path fill="none" stroke="#000000" d="M353.1954,-383.2871C262.796,-385.6442 224.6512,-408.1119 141.3551,-360.0952 114.7442,-344.7552 131.5708,-304.0952 100.8551,-304.0952"/>
<polygon fill="#000000" stroke="#000000" points="359.8558,-383.2 367.9022,-386.6949 363.8554,-383.1476 367.8551,-383.0952 367.8551,-383.0952 367.8551,-383.0952 363.8554,-383.1476 367.8079,-379.4955 359.8558,-383.2 359.8558,-383.2"/>
<ellipse fill="none" stroke="#000000" cx="356.656" cy="-383.2419" rx="3.2" ry="3.2"/>
</g>
</g>
</svg>
