<?xml version="1.0" encoding="UTF-8" standalone="no"?>
<!DOCTYPE svg PUBLIC "-//W3C//DTD SVG 1.1//EN"
 "http://www.w3.org/Graphics/SVG/1.1/DTD/svg11.dtd">
<!-- Generated by graphviz version 2.40.1 (20161225.0304)
 -->
<!-- Title: oneDegreeRelationshipsDiagram Pages: 1 -->
<svg width="332pt" height="634pt"
 viewBox="0.00 0.00 332.00 633.70" xmlns="http://www.w3.org/2000/svg" xmlns:xlink="http://www.w3.org/1999/xlink">
<g id="graph0" class="graph" transform="scale(1 1) rotate(0) translate(4 629.7)">
<title>oneDegreeRelationshipsDiagram</title>
<polygon fill="#ffffff" stroke="transparent" points="-4,4 -4,-629.7 328,-629.7 328,4 -4,4"/>
<text text-anchor="middle" x="72.4936" y="-7.3" font-family="Helvetica,sans-Serif" font-size="11.00" fill="#000000">Generated by SchemaSpy</text>
<!-- asset_map -->
<g id="node1" class="node">
<title>asset_map</title>
<g id="a_node1"><a xlink:href="../../tables/asset_map.html" xlink:title="asset_map" target="_top">
<polygon fill="#ffffff" stroke="transparent" points="213.5,-491.7 213.5,-621.7 314.5,-621.7 314.5,-491.7 213.5,-491.7"/>
<polygon fill="#f5f5f5" stroke="transparent" points="214,-598.7 214,-621.7 315,-621.7 315,-598.7 214,-598.7"/>
<polygon fill="none" stroke="#000000" points="214,-598.7 214,-621.7 315,-621.7 315,-598.7 214,-598.7"/>
<text text-anchor="start" x="219" y="-607.8" font-family="Helvetica,sans-Serif" font-weight="bold" font-size="11.00" fill="#000000">asset_map</text>
<text text-anchor="start" x="280.0437" y="-606.8" font-family="Helvetica,sans-Serif" font-size="11.00" fill="#000000">[table]</text>
<polygon fill="none" stroke="#000000" points="214,-576.7 214,-598.7 315,-598.7 315,-576.7 214,-576.7"/>
<image xlink:href="../../images/primaryKeys.png" width="11px" height="12px" preserveAspectRatio="xMinYMin meet" x="219" y="-593.7"/>
<text text-anchor="start" x="234" y="-583.8" font-family="Helvetica,sans-Serif" font-size="11.00" fill="#000000">id</text>
<polygon fill="#ffffff" stroke="transparent" points="214,-554.7 214,-576.7 315,-576.7 315,-554.7 214,-554.7"/>
<polygon fill="none" stroke="#000000" points="214,-554.7 214,-576.7 315,-576.7 315,-554.7 214,-554.7"/>
<image xlink:href="../../images/foreignKeys.png" width="11px" height="12px" preserveAspectRatio="xMinYMin meet" x="219" y="-571.7"/>
<text text-anchor="start" x="234" y="-561.8" font-family="Helvetica,sans-Serif" font-size="11.00" fill="#000000">asset_id</text>
<polygon fill="#ffffff" stroke="transparent" points="214,-532.7 214,-554.7 315,-554.7 315,-532.7 214,-532.7"/>
<polygon fill="none" stroke="#000000" points="214,-532.7 214,-554.7 315,-554.7 315,-532.7 214,-532.7"/>
<image xlink:href="../../images/foreignKeys.png" width="11px" height="12px" preserveAspectRatio="xMinYMin meet" x="219" y="-549.7"/>
<text text-anchor="start" x="234" y="-539.8" font-family="Helvetica,sans-Serif" font-size="11.00" fill="#000000">entity_type_id</text>
<polygon fill="#ffffff" stroke="transparent" points="214,-510.7 214,-532.7 315,-532.7 315,-510.7 214,-510.7"/>
<polygon fill="none" stroke="#000000" points="214,-510.7 214,-532.7 315,-532.7 315,-510.7 214,-510.7"/>
<text text-anchor="start" x="234" y="-517.8" font-family="Helvetica,sans-Serif" font-size="11.00" fill="#000000">entity_id</text>
<polygon fill="#ffffff" stroke="transparent" points="214,-491.7 214,-510.7 263,-510.7 263,-491.7 214,-491.7"/>
<polygon fill="none" stroke="#000000" points="214,-491.7 214,-510.7 263,-510.7 263,-491.7 214,-491.7"/>
<text text-anchor="start" x="217" y="-497.8" font-family="Helvetica,sans-Serif" font-size="11.00" fill="#000000">&lt; 2</text>
<polygon fill="#ffffff" stroke="transparent" points="263,-491.7 263,-510.7 289,-510.7 289,-491.7 263,-491.7"/>
<polygon fill="none" stroke="#000000" points="263,-491.7 263,-510.7 289,-510.7 289,-491.7 263,-491.7"/>
<text text-anchor="start" x="279.8862" y="-497.8" font-family="Helvetica,sans-Serif" font-size="11.00" fill="#000000"> &#160;</text>
<polygon fill="#ffffff" stroke="transparent" points="289,-491.7 289,-510.7 315,-510.7 315,-491.7 289,-491.7"/>
<polygon fill="none" stroke="#000000" points="289,-491.7 289,-510.7 315,-510.7 315,-491.7 289,-491.7"/>
<text text-anchor="start" x="305.8862" y="-497.8" font-family="Helvetica,sans-Serif" font-size="11.00" fill="#000000"> &#160;</text>
</a>
</g>
</g>
<!-- entity_type -->
<g id="node2" class="node">
<title>entity_type</title>
<g id="a_node2"><a xlink:href="../../tables/entity_type.html" xlink:title="entity_type" target="_top">
<polygon fill="#ffffff" stroke="transparent" points="8,-338.7 8,-428.7 163,-428.7 163,-338.7 8,-338.7"/>
<polygon fill="#f5f5f5" stroke="transparent" points="10.5,-403.7 10.5,-426.7 161.5,-426.7 161.5,-403.7 10.5,-403.7"/>
<polygon fill="none" stroke="#000000" points="10.5,-403.7 10.5,-426.7 161.5,-426.7 161.5,-403.7 10.5,-403.7"/>
<text text-anchor="start" x="15.5" y="-412.8" font-family="Helvetica,sans-Serif" font-weight="bold" font-size="11.00" fill="#000000">entity_type</text>
<text text-anchor="start" x="126.5437" y="-411.8" font-family="Helvetica,sans-Serif" font-size="11.00" fill="#000000">[table]</text>
<polygon fill="none" stroke="#000000" points="10.5,-381.7 10.5,-403.7 94.5,-403.7 94.5,-381.7 10.5,-381.7"/>
<image xlink:href="../../images/primaryKeys.png" width="11px" height="12px" preserveAspectRatio="xMinYMin meet" x="15.5" y="-398.7"/>
<text text-anchor="start" x="30.5" y="-388.8" font-family="Helvetica,sans-Serif" font-size="11.00" fill="#000000">id</text>
<polygon fill="none" stroke="#000000" points="94.5,-381.7 94.5,-403.7 161.5,-403.7 161.5,-381.7 94.5,-381.7"/>
<text text-anchor="start" x="97.5" y="-389.4" font-family="Helvetica,sans-Serif" font-size="11.00" fill="#000000">bigserial[19]</text>
<polygon fill="#ffffff" stroke="transparent" points="10.5,-359.7 10.5,-381.7 94.5,-381.7 94.5,-359.7 10.5,-359.7"/>
<polygon fill="none" stroke="#000000" points="10.5,-359.7 10.5,-381.7 94.5,-381.7 94.5,-359.7 10.5,-359.7"/>
<text text-anchor="start" x="30.5" y="-366.8" font-family="Helvetica,sans-Serif" font-size="11.00" fill="#000000">table</text>
<polygon fill="none" stroke="#000000" points="94.5,-359.7 94.5,-381.7 161.5,-381.7 161.5,-359.7 94.5,-359.7"/>
<text text-anchor="start" x="97.4365" y="-367.4" font-family="Helvetica,sans-Serif" font-size="11.00" fill="#000000">varchar[255]</text>
<polygon fill="#ffffff" stroke="transparent" points="10.5,-340.7 10.5,-359.7 56.5,-359.7 56.5,-340.7 10.5,-340.7"/>
<polygon fill="none" stroke="#000000" points="10.5,-340.7 10.5,-359.7 56.5,-359.7 56.5,-340.7 10.5,-340.7"/>
<text text-anchor="start" x="13.5" y="-346.8" font-family="Helvetica,sans-Serif" font-size="11.00" fill="#000000">&lt; 0</text>
<polygon fill="#ffffff" stroke="transparent" points="56.5,-340.7 56.5,-359.7 94.5,-359.7 94.5,-340.7 56.5,-340.7"/>
<polygon fill="none" stroke="#000000" points="56.5,-340.7 56.5,-359.7 94.5,-359.7 94.5,-340.7 56.5,-340.7"/>
<text text-anchor="start" x="85.3862" y="-346.8" font-family="Helvetica,sans-Serif" font-size="11.00" fill="#000000"> &#160;</text>
<polygon fill="#ffffff" stroke="transparent" points="94.5,-340.7 94.5,-359.7 161.5,-359.7 161.5,-340.7 94.5,-340.7"/>
<polygon fill="none" stroke="#000000" points="94.5,-340.7 94.5,-359.7 161.5,-359.7 161.5,-340.7 94.5,-340.7"/>
<text text-anchor="start" x="142.9053" y="-346.8" font-family="Helvetica,sans-Serif" font-size="11.00" fill="#000000">3 &gt;</text>
<polygon fill="none" stroke="#000000" stroke-width="2" points="9,-339.7 9,-427.7 162,-427.7 162,-339.7 9,-339.7"/>
</a>
</g>
</g>
<!-- asset_map&#45;&gt;entity_type -->
<g id="edge1" class="edge">
<title>asset_map:w&#45;&gt;entity_type:e</title>
<path fill="none" stroke="#000000" d="M199.8565,-540.9502C156.2686,-520.4847 226.862,-392.7 161.5,-392.7"/>
<polygon fill="#000000" stroke="#000000" points="206.147,-542.1732 213.3129,-547.2338 210.0735,-542.9366 214,-543.7 214,-543.7 214,-543.7 210.0735,-542.9366 214.6871,-540.1662 206.147,-542.1732 206.147,-542.1732"/>
<ellipse fill="none" stroke="#000000" cx="203.0059" cy="-541.5624" rx="3.2" ry="3.2"/>
</g>
<!-- notice_entity -->
<g id="node3" class="node">
<title>notice_entity</title>
<g id="a_node3"><a xlink:href="../../tables/notice_entity.html" xlink:title="notice_entity" target="_top">
<polygon fill="#ffffff" stroke="transparent" points="212,-318.7 212,-470.7 316,-470.7 316,-318.7 212,-318.7"/>
<polygon fill="#f5f5f5" stroke="transparent" points="212,-447.7 212,-470.7 316,-470.7 316,-447.7 212,-447.7"/>
<polygon fill="none" stroke="#000000" points="212,-447.7 212,-470.7 316,-470.7 316,-447.7 212,-447.7"/>
<text text-anchor="start" x="216.6291" y="-456.8" font-family="Helvetica,sans-Serif" font-weight="bold" font-size="11.00" fill="#000000">notice_entity</text>
<text text-anchor="start" x="281.5219" y="-455.8" font-family="Helvetica,sans-Serif" font-size="11.00" fill="#000000">[table]</text>
<polygon fill="none" stroke="#000000" points="212,-425.7 212,-447.7 316,-447.7 316,-425.7 212,-425.7"/>
<image xlink:href="../../images/primaryKeys.png" width="11px" height="12px" preserveAspectRatio="xMinYMin meet" x="217" y="-442.7"/>
<text text-anchor="start" x="234" y="-432.8" font-family="Helvetica,sans-Serif" font-size="11.00" fill="#000000">id</text>
<polygon fill="#ffffff" stroke="transparent" points="212,-403.7 212,-425.7 316,-425.7 316,-403.7 212,-403.7"/>
<polygon fill="none" stroke="#000000" points="212,-403.7 212,-425.7 316,-425.7 316,-403.7 212,-403.7"/>
<text text-anchor="start" x="234" y="-410.8" font-family="Helvetica,sans-Serif" font-size="11.00" fill="#000000">type</text>
<polygon fill="#ffffff" stroke="transparent" points="212,-381.7 212,-403.7 316,-403.7 316,-381.7 212,-381.7"/>
<polygon fill="none" stroke="#000000" points="212,-381.7 212,-403.7 316,-403.7 316,-381.7 212,-381.7"/>
<image xlink:href="../../images/foreignKeys.png" width="11px" height="12px" preserveAspectRatio="xMinYMin meet" x="217" y="-398.7"/>
<text text-anchor="start" x="234" y="-388.8" font-family="Helvetica,sans-Serif" font-size="11.00" fill="#000000">entity_type_id</text>
<polygon fill="#ffffff" stroke="transparent" points="212,-359.7 212,-381.7 316,-381.7 316,-359.7 212,-359.7"/>
<polygon fill="none" stroke="#000000" points="212,-359.7 212,-381.7 316,-381.7 316,-359.7 212,-359.7"/>
<text text-anchor="start" x="234" y="-366.8" font-family="Helvetica,sans-Serif" font-size="11.00" fill="#000000">entity_id</text>
<polygon fill="#ffffff" stroke="transparent" points="212,-337.7 212,-359.7 316,-359.7 316,-337.7 212,-337.7"/>
<polygon fill="none" stroke="#000000" points="212,-337.7 212,-359.7 316,-359.7 316,-337.7 212,-337.7"/>
<image xlink:href="../../images/foreignKeys.png" width="11px" height="12px" preserveAspectRatio="xMinYMin meet" x="217" y="-354.7"/>
<text text-anchor="start" x="234" y="-344.8" font-family="Helvetica,sans-Serif" font-size="11.00" fill="#000000">notice_id</text>
<polygon fill="#ffffff" stroke="transparent" points="212,-318.7 212,-337.7 262,-337.7 262,-318.7 212,-318.7"/>
<polygon fill="none" stroke="#000000" points="212,-318.7 212,-337.7 262,-337.7 262,-318.7 212,-318.7"/>
<text text-anchor="start" x="215" y="-324.8" font-family="Helvetica,sans-Serif" font-size="11.00" fill="#000000">&lt; 2</text>
<polygon fill="#ffffff" stroke="transparent" points="262,-318.7 262,-337.7 289,-337.7 289,-318.7 262,-318.7"/>
<polygon fill="none" stroke="#000000" points="262,-318.7 262,-337.7 289,-337.7 289,-318.7 262,-318.7"/>
<text text-anchor="start" x="279.8862" y="-324.8" font-family="Helvetica,sans-Serif" font-size="11.00" fill="#000000"> &#160;</text>
<polygon fill="#ffffff" stroke="transparent" points="289,-318.7 289,-337.7 316,-337.7 316,-318.7 289,-318.7"/>
<polygon fill="none" stroke="#000000" points="289,-318.7 289,-337.7 316,-337.7 316,-318.7 289,-318.7"/>
<text text-anchor="start" x="306.8862" y="-324.8" font-family="Helvetica,sans-Serif" font-size="11.00" fill="#000000"> &#160;</text>
</a>
</g>
</g>
<!-- notice_entity&#45;&gt;entity_type -->
<g id="edge2" class="edge">
<title>notice_entity:w&#45;&gt;entity_type:e</title>
<path fill="none" stroke="#000000" d="M197.4203,-392.7C185.5435,-392.7 178.158,-392.7 161.5,-392.7"/>
<polygon fill="#000000" stroke="#000000" points="204,-392.7001 212,-396.3 208,-392.7 212,-392.7 212,-392.7 212,-392.7 208,-392.7 212,-389.1 204,-392.7001 204,-392.7001"/>
<ellipse fill="none" stroke="#000000" cx="200.8" cy="-392.7001" rx="3.2" ry="3.2"/>
</g>
<!-- transaction -->
<g id="node4" class="node">
<title>transaction</title>
<g id="a_node4"><a xlink:href="../../tables/transaction.html" xlink:title="transaction" target="_top">
<polygon fill="#ffffff" stroke="transparent" points="212.5,-38.2 212.5,-297.2 315.5,-297.2 315.5,-38.2 212.5,-38.2"/>
<polygon fill="#f5f5f5" stroke="transparent" points="213,-273.7 213,-296.7 316,-296.7 316,-273.7 213,-273.7"/>
<polygon fill="none" stroke="#000000" points="213,-273.7 213,-296.7 316,-296.7 316,-273.7 213,-273.7"/>
<text text-anchor="start" x="218" y="-282.8" font-family="Helvetica,sans-Serif" font-weight="bold" font-size="11.00" fill="#000000">transaction</text>
<text text-anchor="start" x="281.0437" y="-281.8" font-family="Helvetica,sans-Serif" font-size="11.00" fill="#000000">[table]</text>
<polygon fill="none" stroke="#000000" points="213,-251.7 213,-273.7 316,-273.7 316,-251.7 213,-251.7"/>
<image xlink:href="../../images/primaryKeys.png" width="11px" height="12px" preserveAspectRatio="xMinYMin meet" x="218" y="-268.7"/>
<text text-anchor="start" x="233" y="-258.8" font-family="Helvetica,sans-Serif" font-size="11.00" fill="#000000">id</text>
<polygon fill="#ffffff" stroke="transparent" points="213,-229.7 213,-251.7 316,-251.7 316,-229.7 213,-229.7"/>
<polygon fill="none" stroke="#000000" points="213,-229.7 213,-251.7 316,-251.7 316,-229.7 213,-229.7"/>
<text text-anchor="start" x="233" y="-236.8" font-family="Helvetica,sans-Serif" font-size="11.00" fill="#000000">currency</text>
<polygon fill="#ffffff" stroke="transparent" points="213,-207.7 213,-229.7 316,-229.7 316,-207.7 213,-207.7"/>
<polygon fill="none" stroke="#000000" points="213,-207.7 213,-229.7 316,-229.7 316,-207.7 213,-207.7"/>
<text text-anchor="start" x="233" y="-214.8" font-family="Helvetica,sans-Serif" font-size="11.00" fill="#000000">state</text>
<polygon fill="#ffffff" stroke="transparent" points="213,-185.7 213,-207.7 316,-207.7 316,-185.7 213,-185.7"/>
<polygon fill="none" stroke="#000000" points="213,-185.7 213,-207.7 316,-207.7 316,-185.7 213,-185.7"/>
<text text-anchor="start" x="233" y="-192.8" font-family="Helvetica,sans-Serif" font-size="11.00" fill="#000000">purpose</text>
<polygon fill="#ffffff" stroke="transparent" points="213,-163.7 213,-185.7 316,-185.7 316,-163.7 213,-163.7"/>
<polygon fill="none" stroke="#000000" points="213,-163.7 213,-185.7 316,-185.7 316,-163.7 213,-163.7"/>
<text text-anchor="start" x="233" y="-170.8" font-family="Helvetica,sans-Serif" font-size="11.00" fill="#000000">provider_tx_id</text>
<polygon fill="#ffffff" stroke="transparent" points="213,-141.7 213,-163.7 316,-163.7 316,-141.7 213,-141.7"/>
<polygon fill="none" stroke="#000000" points="213,-141.7 213,-163.7 316,-163.7 316,-141.7 213,-141.7"/>
<image xlink:href="../../images/foreignKeys.png" width="11px" height="12px" preserveAspectRatio="xMinYMin meet" x="218" y="-158.7"/>
<text text-anchor="start" x="233" y="-148.8" font-family="Helvetica,sans-Serif" font-size="11.00" fill="#000000">sender_id</text>
<polygon fill="#ffffff" stroke="transparent" points="213,-119.7 213,-141.7 316,-141.7 316,-119.7 213,-119.7"/>
<polygon fill="none" stroke="#000000" points="213,-119.7 213,-141.7 316,-141.7 316,-119.7 213,-119.7"/>
<image xlink:href="../../images/foreignKeys.png" width="11px" height="12px" preserveAspectRatio="xMinYMin meet" x="218" y="-136.7"/>
<text text-anchor="start" x="233" y="-126.8" font-family="Helvetica,sans-Serif" font-size="11.00" fill="#000000">recipient_id</text>
<polygon fill="none" stroke="#000000" points="213,-97.7 213,-119.7 316,-119.7 316,-97.7 213,-97.7"/>
<image xlink:href="../../images/foreignKeys.png" width="11px" height="12px" preserveAspectRatio="xMinYMin meet" x="218" y="-114.7"/>
<text text-anchor="start" x="233" y="-104.8" font-family="Helvetica,sans-Serif" font-size="11.00" fill="#000000">target_type</text>
<polygon fill="#ffffff" stroke="transparent" points="213,-75.7 213,-97.7 316,-97.7 316,-75.7 213,-75.7"/>
<polygon fill="none" stroke="#000000" points="213,-75.7 213,-97.7 316,-97.7 316,-75.7 213,-75.7"/>
<text text-anchor="start" x="233" y="-82.8" font-family="Helvetica,sans-Serif" font-size="11.00" fill="#000000">created_at</text>
<polygon fill="none" stroke="#000000" points="213,-56.7 213,-75.7 316,-75.7 316,-56.7 213,-56.7"/>
<text text-anchor="start" x="216" y="-62.8" font-family="Helvetica,sans-Serif" font-size="11.00" fill="#000000">...</text>
<polygon fill="#ffffff" stroke="transparent" points="213,-37.7 213,-56.7 263,-56.7 263,-37.7 213,-37.7"/>
<polygon fill="none" stroke="#000000" points="213,-37.7 213,-56.7 263,-56.7 263,-37.7 213,-37.7"/>
<text text-anchor="start" x="216" y="-43.8" font-family="Helvetica,sans-Serif" font-size="11.00" fill="#000000">&lt; 3</text>
<polygon fill="#ffffff" stroke="transparent" points="263,-37.7 263,-56.7 289,-56.7 289,-37.7 263,-37.7"/>
<polygon fill="none" stroke="#000000" points="263,-37.7 263,-56.7 289,-56.7 289,-37.7 263,-37.7"/>
<text text-anchor="start" x="279.8862" y="-43.8" font-family="Helvetica,sans-Serif" font-size="11.00" fill="#000000"> &#160;</text>
<polygon fill="#ffffff" stroke="transparent" points="289,-37.7 289,-56.7 316,-56.7 316,-37.7 289,-37.7"/>
<polygon fill="none" stroke="#000000" points="289,-37.7 289,-56.7 316,-56.7 316,-37.7 289,-37.7"/>
<text text-anchor="start" x="306.8862" y="-43.8" font-family="Helvetica,sans-Serif" font-size="11.00" fill="#000000"> &#160;</text>
</a>
</g>
</g>
<!-- transaction&#45;&gt;entity_type -->
<g id="edge3" class="edge">
<title>transaction:w&#45;&gt;entity_type:e</title>
<path fill="none" stroke="#000000" d="M199.6546,-114.373C160.7624,-154.4 220.2536,-392.7 161.5,-392.7"/>
<polygon fill="#000000" stroke="#000000" points="205.6376,-111.8297 214.4084,-112.0131 209.3188,-110.2649 213,-108.7 213,-108.7 213,-108.7 209.3188,-110.2649 211.5916,-105.3869 205.6376,-111.8297 205.6376,-111.8297"/>
<ellipse fill="none" stroke="#000000" cx="202.6926" cy="-113.0816" rx="3.2" ry="3.2"/>
</g>
</g>
</svg>
