<?xml version="1.0" encoding="UTF-8" standalone="no"?>
<!DOCTYPE svg PUBLIC "-//W3C//DTD SVG 1.1//EN"
 "http://www.w3.org/Graphics/SVG/1.1/DTD/svg11.dtd">
<!-- Generated by graphviz version 2.40.1 (20161225.0304)
 -->
<!-- Title: twoDegreesRelationshipsDiagram Pages: 1 -->
<svg width="450pt" height="634pt"
 viewBox="0.00 0.00 450.16 634.20" xmlns="http://www.w3.org/2000/svg" xmlns:xlink="http://www.w3.org/1999/xlink">
<g id="graph0" class="graph" transform="scale(1 1) rotate(0) translate(4 630.2)">
<title>twoDegreesRelationshipsDiagram</title>
<polygon fill="#ffffff" stroke="transparent" points="-4,4 -4,-630.2 446.1646,-630.2 446.1646,4 -4,4"/>
<text text-anchor="middle" x="72.4936" y="-7.3" font-family="Helvetica,sans-Serif" font-size="11.00" fill="#000000">Generated by SchemaSpy</text>
<!-- asset -->
<g id="node1" class="node">
<title>asset</title>
<g id="a_node1"><a xlink:href="../../tables/asset.html" xlink:title="asset" target="_top">
<polygon fill="#ffffff" stroke="transparent" points="169.1646,-355.7 169.1646,-416.7 238.1646,-416.7 238.1646,-355.7 169.1646,-355.7"/>
<polygon fill="#f5f5f5" stroke="transparent" points="169.6646,-393.2 169.6646,-416.2 238.6646,-416.2 238.6646,-393.2 169.6646,-393.2"/>
<polygon fill="none" stroke="#000000" points="169.6646,-393.2 169.6646,-416.2 238.6646,-416.2 238.6646,-393.2 169.6646,-393.2"/>
<text text-anchor="start" x="174.5212" y="-402.3" font-family="Helvetica,sans-Serif" font-weight="bold" font-size="11.00" fill="#000000">asset</text>
<text text-anchor="start" x="204.1864" y="-401.3" font-family="Helvetica,sans-Serif" font-size="11.00" fill="#000000">[table]</text>
<polygon fill="none" stroke="#000000" points="169.6646,-374.2 169.6646,-393.2 238.6646,-393.2 238.6646,-374.2 169.6646,-374.2"/>
<text text-anchor="start" x="172.6646" y="-380.3" font-family="Helvetica,sans-Serif" font-size="11.00" fill="#000000">...</text>
<polygon fill="#ffffff" stroke="transparent" points="169.6646,-355.2 169.6646,-374.2 197.6646,-374.2 197.6646,-355.2 169.6646,-355.2"/>
<polygon fill="none" stroke="#000000" points="169.6646,-355.2 169.6646,-374.2 197.6646,-374.2 197.6646,-355.2 169.6646,-355.2"/>
<text text-anchor="start" x="172.6646" y="-361.3" font-family="Helvetica,sans-Serif" font-size="11.00" fill="#000000">&lt; 1</text>
<polygon fill="#ffffff" stroke="transparent" points="197.6646,-355.2 197.6646,-374.2 213.6646,-374.2 213.6646,-355.2 197.6646,-355.2"/>
<polygon fill="none" stroke="#000000" points="197.6646,-355.2 197.6646,-374.2 213.6646,-374.2 213.6646,-355.2 197.6646,-355.2"/>
<text text-anchor="start" x="204.5508" y="-361.3" font-family="Helvetica,sans-Serif" font-size="11.00" fill="#000000"> &#160;</text>
<polygon fill="#ffffff" stroke="transparent" points="213.6646,-355.2 213.6646,-374.2 238.6646,-374.2 238.6646,-355.2 213.6646,-355.2"/>
<polygon fill="none" stroke="#000000" points="213.6646,-355.2 213.6646,-374.2 238.6646,-374.2 238.6646,-355.2 213.6646,-355.2"/>
<text text-anchor="start" x="220.0699" y="-361.3" font-family="Helvetica,sans-Serif" font-size="11.00" fill="#000000">9 &gt;</text>
</a>
</g>
</g>
<!-- user -->
<g id="node2" class="node">
<title>user</title>
<g id="a_node2"><a xlink:href="../../tables/user.html" xlink:title="user" target="_top">
<polygon fill="#ffffff" stroke="transparent" points="13.1646,-303.7 13.1646,-364.7 77.1646,-364.7 77.1646,-303.7 13.1646,-303.7"/>
<polygon fill="#f5f5f5" stroke="transparent" points="13.1646,-341.2 13.1646,-364.2 77.1646,-364.2 77.1646,-341.2 13.1646,-341.2"/>
<polygon fill="none" stroke="#000000" points="13.1646,-341.2 13.1646,-364.2 77.1646,-364.2 77.1646,-341.2 13.1646,-341.2"/>
<text text-anchor="start" x="17.9687" y="-350.3" font-family="Helvetica,sans-Serif" font-weight="bold" font-size="11.00" fill="#000000">user</text>
<text text-anchor="start" x="42.6864" y="-349.3" font-family="Helvetica,sans-Serif" font-size="11.00" fill="#000000">[table]</text>
<polygon fill="none" stroke="#000000" points="13.1646,-322.2 13.1646,-341.2 77.1646,-341.2 77.1646,-322.2 13.1646,-322.2"/>
<text text-anchor="start" x="16.1646" y="-328.3" font-family="Helvetica,sans-Serif" font-size="11.00" fill="#000000">...</text>
<polygon fill="#ffffff" stroke="transparent" points="13.1646,-303.2 13.1646,-322.2 36.1646,-322.2 36.1646,-303.2 13.1646,-303.2"/>
<polygon fill="none" stroke="#000000" points="13.1646,-303.2 13.1646,-322.2 36.1646,-322.2 36.1646,-303.2 13.1646,-303.2"/>
<text text-anchor="start" x="16.1646" y="-309.3" font-family="Helvetica,sans-Serif" font-size="11.00" fill="#000000">&lt; 1</text>
<polygon fill="#ffffff" stroke="transparent" points="36.1646,-303.2 36.1646,-322.2 49.1646,-322.2 49.1646,-303.2 36.1646,-303.2"/>
<polygon fill="none" stroke="#000000" points="36.1646,-303.2 36.1646,-322.2 49.1646,-322.2 49.1646,-303.2 36.1646,-303.2"/>
<text text-anchor="start" x="40.0508" y="-309.3" font-family="Helvetica,sans-Serif" font-size="11.00" fill="#000000"> &#160;</text>
<polygon fill="#ffffff" stroke="transparent" points="49.1646,-303.2 49.1646,-322.2 77.1646,-322.2 77.1646,-303.2 49.1646,-303.2"/>
<polygon fill="none" stroke="#000000" points="49.1646,-303.2 49.1646,-322.2 77.1646,-322.2 77.1646,-303.2 49.1646,-303.2"/>
<text text-anchor="start" x="52.455" y="-309.3" font-family="Helvetica,sans-Serif" font-size="11.00" fill="#000000">42 &gt;</text>
</a>
</g>
</g>
<!-- asset&#45;&gt;user -->
<g id="edge1" class="edge">
<title>asset:w&#45;&gt;user:e</title>
<path fill="none" stroke="#000000" d="M155.3803,-381.3493C122.2872,-372.086 118.9839,-331.2 77.1646,-331.2"/>
<polygon fill="#000000" stroke="#000000" points="161.7309,-382.172 169.202,-386.7702 165.6977,-382.686 169.6646,-383.2 169.6646,-383.2 169.6646,-383.2 165.6977,-382.686 170.1271,-379.6298 161.7309,-382.172 161.7309,-382.172"/>
<ellipse fill="none" stroke="#000000" cx="158.5574" cy="-381.7609" rx="3.2" ry="3.2"/>
</g>
<!-- user&#45;&gt;asset -->
<g id="edge10" class="edge">
<title>user:w&#45;&gt;asset:e</title>
<path fill="none" stroke="#000000" d="M1.5283,-322.3218C-4.5849,-304.0966 17.0305,-266.8295 85.1646,-299.7 106.3887,-309.9394 97.4053,-330.0482 118.1646,-341.2 141.8435,-353.9202 220.5018,-331.8857 238.6646,-351.7 248.1246,-362.0202 252.6646,-383.2 238.6646,-383.2"/>
<polygon fill="#000000" stroke="#000000" points="6.8044,-326.3473 10.9809,-334.0621 9.9845,-328.7737 13.1646,-331.2 13.1646,-331.2 13.1646,-331.2 9.9845,-328.7737 15.3483,-328.3379 6.8044,-326.3473 6.8044,-326.3473"/>
<ellipse fill="none" stroke="#000000" cx="4.2603" cy="-324.4062" rx="3.2" ry="3.2"/>
</g>
<!-- asset_map -->
<g id="node3" class="node">
<title>asset_map</title>
<g id="a_node3"><a xlink:href="../../tables/asset_map.html" xlink:title="asset_map" target="_top">
<polygon fill="#ffffff" stroke="transparent" points="331.6646,-492.2 331.6646,-622.2 432.6646,-622.2 432.6646,-492.2 331.6646,-492.2"/>
<polygon fill="#f5f5f5" stroke="transparent" points="332.1646,-599.2 332.1646,-622.2 433.1646,-622.2 433.1646,-599.2 332.1646,-599.2"/>
<polygon fill="none" stroke="#000000" points="332.1646,-599.2 332.1646,-622.2 433.1646,-622.2 433.1646,-599.2 332.1646,-599.2"/>
<text text-anchor="start" x="337.1646" y="-608.3" font-family="Helvetica,sans-Serif" font-weight="bold" font-size="11.00" fill="#000000">asset_map</text>
<text text-anchor="start" x="398.2083" y="-607.3" font-family="Helvetica,sans-Serif" font-size="11.00" fill="#000000">[table]</text>
<polygon fill="none" stroke="#000000" points="332.1646,-577.2 332.1646,-599.2 433.1646,-599.2 433.1646,-577.2 332.1646,-577.2"/>
<image xlink:href="../../images/primaryKeys.png" width="11px" height="12px" preserveAspectRatio="xMinYMin meet" x="337.165" y="-594.2"/>
<text text-anchor="start" x="352.1646" y="-584.3" font-family="Helvetica,sans-Serif" font-size="11.00" fill="#000000">id</text>
<polygon fill="#ffffff" stroke="transparent" points="332.1646,-555.2 332.1646,-577.2 433.1646,-577.2 433.1646,-555.2 332.1646,-555.2"/>
<polygon fill="none" stroke="#000000" points="332.1646,-555.2 332.1646,-577.2 433.1646,-577.2 433.1646,-555.2 332.1646,-555.2"/>
<image xlink:href="../../images/foreignKeys.png" width="11px" height="12px" preserveAspectRatio="xMinYMin meet" x="337.165" y="-572.2"/>
<text text-anchor="start" x="352.1646" y="-562.3" font-family="Helvetica,sans-Serif" font-size="11.00" fill="#000000">asset_id</text>
<polygon fill="#ffffff" stroke="transparent" points="332.1646,-533.2 332.1646,-555.2 433.1646,-555.2 433.1646,-533.2 332.1646,-533.2"/>
<polygon fill="none" stroke="#000000" points="332.1646,-533.2 332.1646,-555.2 433.1646,-555.2 433.1646,-533.2 332.1646,-533.2"/>
<image xlink:href="../../images/foreignKeys.png" width="11px" height="12px" preserveAspectRatio="xMinYMin meet" x="337.165" y="-550.2"/>
<text text-anchor="start" x="352.1646" y="-540.3" font-family="Helvetica,sans-Serif" font-size="11.00" fill="#000000">entity_type_id</text>
<polygon fill="#ffffff" stroke="transparent" points="332.1646,-511.2 332.1646,-533.2 433.1646,-533.2 433.1646,-511.2 332.1646,-511.2"/>
<polygon fill="none" stroke="#000000" points="332.1646,-511.2 332.1646,-533.2 433.1646,-533.2 433.1646,-511.2 332.1646,-511.2"/>
<text text-anchor="start" x="352.1646" y="-518.3" font-family="Helvetica,sans-Serif" font-size="11.00" fill="#000000">entity_id</text>
<polygon fill="#ffffff" stroke="transparent" points="332.1646,-492.2 332.1646,-511.2 381.1646,-511.2 381.1646,-492.2 332.1646,-492.2"/>
<polygon fill="none" stroke="#000000" points="332.1646,-492.2 332.1646,-511.2 381.1646,-511.2 381.1646,-492.2 332.1646,-492.2"/>
<text text-anchor="start" x="335.1646" y="-498.3" font-family="Helvetica,sans-Serif" font-size="11.00" fill="#000000">&lt; 2</text>
<polygon fill="#ffffff" stroke="transparent" points="381.1646,-492.2 381.1646,-511.2 407.1646,-511.2 407.1646,-492.2 381.1646,-492.2"/>
<polygon fill="none" stroke="#000000" points="381.1646,-492.2 381.1646,-511.2 407.1646,-511.2 407.1646,-492.2 381.1646,-492.2"/>
<text text-anchor="start" x="398.0508" y="-498.3" font-family="Helvetica,sans-Serif" font-size="11.00" fill="#000000"> &#160;</text>
<polygon fill="#ffffff" stroke="transparent" points="407.1646,-492.2 407.1646,-511.2 433.1646,-511.2 433.1646,-492.2 407.1646,-492.2"/>
<polygon fill="none" stroke="#000000" points="407.1646,-492.2 407.1646,-511.2 433.1646,-511.2 433.1646,-492.2 407.1646,-492.2"/>
<text text-anchor="start" x="424.0508" y="-498.3" font-family="Helvetica,sans-Serif" font-size="11.00" fill="#000000"> &#160;</text>
</a>
</g>
</g>
<!-- asset_map&#45;&gt;asset -->
<g id="edge2" class="edge">
<title>asset_map:w&#45;&gt;asset:e</title>
<path fill="none" stroke="#000000" d="M317.4795,-564.2686C250.9662,-544.7107 324.469,-383.2 238.6646,-383.2"/>
<polygon fill="#000000" stroke="#000000" points="324.2329,-565.1568 331.6951,-569.7693 328.1987,-565.6784 332.1646,-566.2 332.1646,-566.2 332.1646,-566.2 328.1987,-565.6784 332.634,-562.6307 324.2329,-565.1568 324.2329,-565.1568"/>
<ellipse fill="none" stroke="#000000" cx="321.0602" cy="-564.7395" rx="3.2" ry="3.2"/>
</g>
<!-- entity_type -->
<g id="node4" class="node">
<title>entity_type</title>
<g id="a_node4"><a xlink:href="../../tables/entity_type.html" xlink:title="entity_type" target="_top">
<polygon fill="#ffffff" stroke="transparent" points="126.1646,-190.2 126.1646,-280.2 281.1646,-280.2 281.1646,-190.2 126.1646,-190.2"/>
<polygon fill="#f5f5f5" stroke="transparent" points="128.6646,-255.2 128.6646,-278.2 279.6646,-278.2 279.6646,-255.2 128.6646,-255.2"/>
<polygon fill="none" stroke="#000000" points="128.6646,-255.2 128.6646,-278.2 279.6646,-278.2 279.6646,-255.2 128.6646,-255.2"/>
<text text-anchor="start" x="133.6646" y="-264.3" font-family="Helvetica,sans-Serif" font-weight="bold" font-size="11.00" fill="#000000">entity_type</text>
<text text-anchor="start" x="244.7083" y="-263.3" font-family="Helvetica,sans-Serif" font-size="11.00" fill="#000000">[table]</text>
<polygon fill="none" stroke="#000000" points="128.6646,-233.2 128.6646,-255.2 212.6646,-255.2 212.6646,-233.2 128.6646,-233.2"/>
<image xlink:href="../../images/primaryKeys.png" width="11px" height="12px" preserveAspectRatio="xMinYMin meet" x="133.665" y="-250.2"/>
<text text-anchor="start" x="148.6646" y="-240.3" font-family="Helvetica,sans-Serif" font-size="11.00" fill="#000000">id</text>
<polygon fill="none" stroke="#000000" points="212.6646,-233.2 212.6646,-255.2 279.6646,-255.2 279.6646,-233.2 212.6646,-233.2"/>
<text text-anchor="start" x="215.6646" y="-240.9" font-family="Helvetica,sans-Serif" font-size="11.00" fill="#000000">bigserial[19]</text>
<polygon fill="#ffffff" stroke="transparent" points="128.6646,-211.2 128.6646,-233.2 212.6646,-233.2 212.6646,-211.2 128.6646,-211.2"/>
<polygon fill="none" stroke="#000000" points="128.6646,-211.2 128.6646,-233.2 212.6646,-233.2 212.6646,-211.2 128.6646,-211.2"/>
<text text-anchor="start" x="148.6646" y="-218.3" font-family="Helvetica,sans-Serif" font-size="11.00" fill="#000000">table</text>
<polygon fill="none" stroke="#000000" points="212.6646,-211.2 212.6646,-233.2 279.6646,-233.2 279.6646,-211.2 212.6646,-211.2"/>
<text text-anchor="start" x="215.6011" y="-218.9" font-family="Helvetica,sans-Serif" font-size="11.00" fill="#000000">varchar[255]</text>
<polygon fill="#ffffff" stroke="transparent" points="128.6646,-192.2 128.6646,-211.2 174.6646,-211.2 174.6646,-192.2 128.6646,-192.2"/>
<polygon fill="none" stroke="#000000" points="128.6646,-192.2 128.6646,-211.2 174.6646,-211.2 174.6646,-192.2 128.6646,-192.2"/>
<text text-anchor="start" x="131.6646" y="-198.3" font-family="Helvetica,sans-Serif" font-size="11.00" fill="#000000">&lt; 0</text>
<polygon fill="#ffffff" stroke="transparent" points="174.6646,-192.2 174.6646,-211.2 212.6646,-211.2 212.6646,-192.2 174.6646,-192.2"/>
<polygon fill="none" stroke="#000000" points="174.6646,-192.2 174.6646,-211.2 212.6646,-211.2 212.6646,-192.2 174.6646,-192.2"/>
<text text-anchor="start" x="203.5508" y="-198.3" font-family="Helvetica,sans-Serif" font-size="11.00" fill="#000000"> &#160;</text>
<polygon fill="#ffffff" stroke="transparent" points="212.6646,-192.2 212.6646,-211.2 279.6646,-211.2 279.6646,-192.2 212.6646,-192.2"/>
<polygon fill="none" stroke="#000000" points="212.6646,-192.2 212.6646,-211.2 279.6646,-211.2 279.6646,-192.2 212.6646,-192.2"/>
<text text-anchor="start" x="261.0699" y="-198.3" font-family="Helvetica,sans-Serif" font-size="11.00" fill="#000000">3 &gt;</text>
<polygon fill="none" stroke="#000000" stroke-width="2" points="127.1646,-191.2 127.1646,-279.2 280.1646,-279.2 280.1646,-191.2 127.1646,-191.2"/>
</a>
</g>
</g>
<!-- asset_map&#45;&gt;entity_type -->
<g id="edge3" class="edge">
<title>asset_map:w&#45;&gt;entity_type:e</title>
<path fill="none" stroke="#000000" d="M318.647,-538.7368C276.7899,-498.0769 341.9247,-244.2 279.6646,-244.2"/>
<polygon fill="#000000" stroke="#000000" points="324.7474,-541.2023 330.8156,-547.5377 328.456,-542.7012 332.1646,-544.2 332.1646,-544.2 332.1646,-544.2 328.456,-542.7012 333.5135,-540.8623 324.7474,-541.2023 324.7474,-541.2023"/>
<ellipse fill="none" stroke="#000000" cx="321.7806" cy="-540.0032" rx="3.2" ry="3.2"/>
</g>
<!-- notice -->
<g id="node5" class="node">
<title>notice</title>
<g id="a_node5"><a xlink:href="../../tables/notice.html" xlink:title="notice" target="_top">
<polygon fill="#ffffff" stroke="transparent" points="167.6646,-74.7 167.6646,-135.7 239.6646,-135.7 239.6646,-74.7 167.6646,-74.7"/>
<polygon fill="#f5f5f5" stroke="transparent" points="167.6646,-112.2 167.6646,-135.2 239.6646,-135.2 239.6646,-112.2 167.6646,-112.2"/>
<polygon fill="none" stroke="#000000" points="167.6646,-112.2 167.6646,-135.2 239.6646,-135.2 239.6646,-112.2 167.6646,-112.2"/>
<text text-anchor="start" x="172.4933" y="-121.3" font-family="Helvetica,sans-Serif" font-weight="bold" font-size="11.00" fill="#000000">notice</text>
<text text-anchor="start" x="205.1864" y="-120.3" font-family="Helvetica,sans-Serif" font-size="11.00" fill="#000000">[table]</text>
<polygon fill="none" stroke="#000000" points="167.6646,-93.2 167.6646,-112.2 239.6646,-112.2 239.6646,-93.2 167.6646,-93.2"/>
<text text-anchor="start" x="170.6646" y="-99.3" font-family="Helvetica,sans-Serif" font-size="11.00" fill="#000000">...</text>
<polygon fill="#ffffff" stroke="transparent" points="167.6646,-74.2 167.6646,-93.2 197.6646,-93.2 197.6646,-74.2 167.6646,-74.2"/>
<polygon fill="none" stroke="#000000" points="167.6646,-74.2 167.6646,-93.2 197.6646,-93.2 197.6646,-74.2 167.6646,-74.2"/>
<text text-anchor="start" x="170.6646" y="-80.3" font-family="Helvetica,sans-Serif" font-size="11.00" fill="#000000">&lt; 2</text>
<polygon fill="#ffffff" stroke="transparent" points="197.6646,-74.2 197.6646,-93.2 213.6646,-93.2 213.6646,-74.2 197.6646,-74.2"/>
<polygon fill="none" stroke="#000000" points="197.6646,-74.2 197.6646,-93.2 213.6646,-93.2 213.6646,-74.2 197.6646,-74.2"/>
<text text-anchor="start" x="204.5508" y="-80.3" font-family="Helvetica,sans-Serif" font-size="11.00" fill="#000000"> &#160;</text>
<polygon fill="#ffffff" stroke="transparent" points="213.6646,-74.2 213.6646,-93.2 239.6646,-93.2 239.6646,-74.2 213.6646,-74.2"/>
<polygon fill="none" stroke="#000000" points="213.6646,-74.2 213.6646,-93.2 239.6646,-93.2 239.6646,-74.2 213.6646,-74.2"/>
<text text-anchor="start" x="221.0699" y="-80.3" font-family="Helvetica,sans-Serif" font-size="11.00" fill="#000000">2 &gt;</text>
</a>
</g>
</g>
<!-- notice&#45;&gt;user -->
<g id="edge4" class="edge">
<title>notice:w&#45;&gt;user:e</title>
<path fill="none" stroke="#000000" d="M153.1685,-104.4437C128.6619,-113.3446 132.3379,-147.2392 118.1646,-179.2 89.7996,-243.1628 147.1346,-331.2 77.1646,-331.2"/>
<polygon fill="#000000" stroke="#000000" points="159.7587,-103.4237 168.2152,-105.7576 163.7116,-102.8119 167.6646,-102.2 167.6646,-102.2 167.6646,-102.2 163.7116,-102.8119 167.1139,-98.6424 159.7587,-103.4237 159.7587,-103.4237"/>
<ellipse fill="none" stroke="#000000" cx="156.5964" cy="-103.9132" rx="3.2" ry="3.2"/>
</g>
<!-- notice_entity -->
<g id="node6" class="node">
<title>notice_entity</title>
<g id="a_node6"><a xlink:href="../../tables/notice_entity.html" xlink:title="notice_entity" target="_top">
<polygon fill="#ffffff" stroke="transparent" points="330.1646,-38.2 330.1646,-190.2 434.1646,-190.2 434.1646,-38.2 330.1646,-38.2"/>
<polygon fill="#f5f5f5" stroke="transparent" points="330.1646,-167.2 330.1646,-190.2 434.1646,-190.2 434.1646,-167.2 330.1646,-167.2"/>
<polygon fill="none" stroke="#000000" points="330.1646,-167.2 330.1646,-190.2 434.1646,-190.2 434.1646,-167.2 330.1646,-167.2"/>
<text text-anchor="start" x="334.7936" y="-176.3" font-family="Helvetica,sans-Serif" font-weight="bold" font-size="11.00" fill="#000000">notice_entity</text>
<text text-anchor="start" x="399.6864" y="-175.3" font-family="Helvetica,sans-Serif" font-size="11.00" fill="#000000">[table]</text>
<polygon fill="none" stroke="#000000" points="330.1646,-145.2 330.1646,-167.2 434.1646,-167.2 434.1646,-145.2 330.1646,-145.2"/>
<image xlink:href="../../images/primaryKeys.png" width="11px" height="12px" preserveAspectRatio="xMinYMin meet" x="335.165" y="-162.2"/>
<text text-anchor="start" x="352.1646" y="-152.3" font-family="Helvetica,sans-Serif" font-size="11.00" fill="#000000">id</text>
<polygon fill="#ffffff" stroke="transparent" points="330.1646,-123.2 330.1646,-145.2 434.1646,-145.2 434.1646,-123.2 330.1646,-123.2"/>
<polygon fill="none" stroke="#000000" points="330.1646,-123.2 330.1646,-145.2 434.1646,-145.2 434.1646,-123.2 330.1646,-123.2"/>
<text text-anchor="start" x="352.1646" y="-130.3" font-family="Helvetica,sans-Serif" font-size="11.00" fill="#000000">type</text>
<polygon fill="#ffffff" stroke="transparent" points="330.1646,-101.2 330.1646,-123.2 434.1646,-123.2 434.1646,-101.2 330.1646,-101.2"/>
<polygon fill="none" stroke="#000000" points="330.1646,-101.2 330.1646,-123.2 434.1646,-123.2 434.1646,-101.2 330.1646,-101.2"/>
<image xlink:href="../../images/foreignKeys.png" width="11px" height="12px" preserveAspectRatio="xMinYMin meet" x="335.165" y="-118.2"/>
<text text-anchor="start" x="352.1646" y="-108.3" font-family="Helvetica,sans-Serif" font-size="11.00" fill="#000000">entity_type_id</text>
<polygon fill="#ffffff" stroke="transparent" points="330.1646,-79.2 330.1646,-101.2 434.1646,-101.2 434.1646,-79.2 330.1646,-79.2"/>
<polygon fill="none" stroke="#000000" points="330.1646,-79.2 330.1646,-101.2 434.1646,-101.2 434.1646,-79.2 330.1646,-79.2"/>
<text text-anchor="start" x="352.1646" y="-86.3" font-family="Helvetica,sans-Serif" font-size="11.00" fill="#000000">entity_id</text>
<polygon fill="#ffffff" stroke="transparent" points="330.1646,-57.2 330.1646,-79.2 434.1646,-79.2 434.1646,-57.2 330.1646,-57.2"/>
<polygon fill="none" stroke="#000000" points="330.1646,-57.2 330.1646,-79.2 434.1646,-79.2 434.1646,-57.2 330.1646,-57.2"/>
<image xlink:href="../../images/foreignKeys.png" width="11px" height="12px" preserveAspectRatio="xMinYMin meet" x="335.165" y="-74.2"/>
<text text-anchor="start" x="352.1646" y="-64.3" font-family="Helvetica,sans-Serif" font-size="11.00" fill="#000000">notice_id</text>
<polygon fill="#ffffff" stroke="transparent" points="330.1646,-38.2 330.1646,-57.2 380.1646,-57.2 380.1646,-38.2 330.1646,-38.2"/>
<polygon fill="none" stroke="#000000" points="330.1646,-38.2 330.1646,-57.2 380.1646,-57.2 380.1646,-38.2 330.1646,-38.2"/>
<text text-anchor="start" x="333.1646" y="-44.3" font-family="Helvetica,sans-Serif" font-size="11.00" fill="#000000">&lt; 2</text>
<polygon fill="#ffffff" stroke="transparent" points="380.1646,-38.2 380.1646,-57.2 407.1646,-57.2 407.1646,-38.2 380.1646,-38.2"/>
<polygon fill="none" stroke="#000000" points="380.1646,-38.2 380.1646,-57.2 407.1646,-57.2 407.1646,-38.2 380.1646,-38.2"/>
<text text-anchor="start" x="398.0508" y="-44.3" font-family="Helvetica,sans-Serif" font-size="11.00" fill="#000000"> &#160;</text>
<polygon fill="#ffffff" stroke="transparent" points="407.1646,-38.2 407.1646,-57.2 434.1646,-57.2 434.1646,-38.2 407.1646,-38.2"/>
<polygon fill="none" stroke="#000000" points="407.1646,-38.2 407.1646,-57.2 434.1646,-57.2 434.1646,-38.2 407.1646,-38.2"/>
<text text-anchor="start" x="425.0508" y="-44.3" font-family="Helvetica,sans-Serif" font-size="11.00" fill="#000000"> &#160;</text>
</a>
</g>
</g>
<!-- notice_entity&#45;&gt;entity_type -->
<g id="edge5" class="edge">
<title>notice_entity:w&#45;&gt;entity_type:e</title>
<path fill="none" stroke="#000000" d="M315.9081,-115.4629C280.225,-135.7898 336.5893,-244.2 279.6646,-244.2"/>
<polygon fill="#000000" stroke="#000000" points="322.3662,-113.9849 330.9678,-115.7093 326.2654,-113.0924 330.1646,-112.2 330.1646,-112.2 330.1646,-112.2 326.2654,-113.0924 329.3614,-108.6907 322.3662,-113.9849 322.3662,-113.9849"/>
<ellipse fill="none" stroke="#000000" cx="319.2469" cy="-114.6988" rx="3.2" ry="3.2"/>
</g>
<!-- notice_entity&#45;&gt;notice -->
<g id="edge6" class="edge">
<title>notice_entity:w&#45;&gt;notice:e</title>
<path fill="none" stroke="#000000" d="M315.702,-69.6609C285.456,-76.1687 277.2608,-102.2 239.6646,-102.2"/>
<polygon fill="#000000" stroke="#000000" points="322.2051,-69.0041 330.5264,-71.7818 326.1848,-68.602 330.1646,-68.2 330.1646,-68.2 330.1646,-68.2 326.1848,-68.602 329.8027,-64.6182 322.2051,-69.0041 322.2051,-69.0041"/>
<ellipse fill="none" stroke="#000000" cx="319.0213" cy="-69.3257" rx="3.2" ry="3.2"/>
</g>
<!-- transaction -->
<g id="node7" class="node">
<title>transaction</title>
<g id="a_node7"><a xlink:href="../../tables/transaction.html" xlink:title="transaction" target="_top">
<polygon fill="#ffffff" stroke="transparent" points="330.6646,-211.7 330.6646,-470.7 433.6646,-470.7 433.6646,-211.7 330.6646,-211.7"/>
<polygon fill="#f5f5f5" stroke="transparent" points="331.1646,-447.2 331.1646,-470.2 434.1646,-470.2 434.1646,-447.2 331.1646,-447.2"/>
<polygon fill="none" stroke="#000000" points="331.1646,-447.2 331.1646,-470.2 434.1646,-470.2 434.1646,-447.2 331.1646,-447.2"/>
<text text-anchor="start" x="336.1646" y="-456.3" font-family="Helvetica,sans-Serif" font-weight="bold" font-size="11.00" fill="#000000">transaction</text>
<text text-anchor="start" x="399.2083" y="-455.3" font-family="Helvetica,sans-Serif" font-size="11.00" fill="#000000">[table]</text>
<polygon fill="none" stroke="#000000" points="331.1646,-425.2 331.1646,-447.2 434.1646,-447.2 434.1646,-425.2 331.1646,-425.2"/>
<image xlink:href="../../images/primaryKeys.png" width="11px" height="12px" preserveAspectRatio="xMinYMin meet" x="336.165" y="-442.2"/>
<text text-anchor="start" x="351.1646" y="-432.3" font-family="Helvetica,sans-Serif" font-size="11.00" fill="#000000">id</text>
<polygon fill="#ffffff" stroke="transparent" points="331.1646,-403.2 331.1646,-425.2 434.1646,-425.2 434.1646,-403.2 331.1646,-403.2"/>
<polygon fill="none" stroke="#000000" points="331.1646,-403.2 331.1646,-425.2 434.1646,-425.2 434.1646,-403.2 331.1646,-403.2"/>
<text text-anchor="start" x="351.1646" y="-410.3" font-family="Helvetica,sans-Serif" font-size="11.00" fill="#000000">currency</text>
<polygon fill="#ffffff" stroke="transparent" points="331.1646,-381.2 331.1646,-403.2 434.1646,-403.2 434.1646,-381.2 331.1646,-381.2"/>
<polygon fill="none" stroke="#000000" points="331.1646,-381.2 331.1646,-403.2 434.1646,-403.2 434.1646,-381.2 331.1646,-381.2"/>
<text text-anchor="start" x="351.1646" y="-388.3" font-family="Helvetica,sans-Serif" font-size="11.00" fill="#000000">state</text>
<polygon fill="#ffffff" stroke="transparent" points="331.1646,-359.2 331.1646,-381.2 434.1646,-381.2 434.1646,-359.2 331.1646,-359.2"/>
<polygon fill="none" stroke="#000000" points="331.1646,-359.2 331.1646,-381.2 434.1646,-381.2 434.1646,-359.2 331.1646,-359.2"/>
<text text-anchor="start" x="351.1646" y="-366.3" font-family="Helvetica,sans-Serif" font-size="11.00" fill="#000000">purpose</text>
<polygon fill="#ffffff" stroke="transparent" points="331.1646,-337.2 331.1646,-359.2 434.1646,-359.2 434.1646,-337.2 331.1646,-337.2"/>
<polygon fill="none" stroke="#000000" points="331.1646,-337.2 331.1646,-359.2 434.1646,-359.2 434.1646,-337.2 331.1646,-337.2"/>
<text text-anchor="start" x="351.1646" y="-344.3" font-family="Helvetica,sans-Serif" font-size="11.00" fill="#000000">provider_tx_id</text>
<polygon fill="#ffffff" stroke="transparent" points="331.1646,-315.2 331.1646,-337.2 434.1646,-337.2 434.1646,-315.2 331.1646,-315.2"/>
<polygon fill="none" stroke="#000000" points="331.1646,-315.2 331.1646,-337.2 434.1646,-337.2 434.1646,-315.2 331.1646,-315.2"/>
<image xlink:href="../../images/foreignKeys.png" width="11px" height="12px" preserveAspectRatio="xMinYMin meet" x="336.165" y="-332.2"/>
<text text-anchor="start" x="351.1646" y="-322.3" font-family="Helvetica,sans-Serif" font-size="11.00" fill="#000000">sender_id</text>
<polygon fill="#ffffff" stroke="transparent" points="331.1646,-293.2 331.1646,-315.2 434.1646,-315.2 434.1646,-293.2 331.1646,-293.2"/>
<polygon fill="none" stroke="#000000" points="331.1646,-293.2 331.1646,-315.2 434.1646,-315.2 434.1646,-293.2 331.1646,-293.2"/>
<image xlink:href="../../images/foreignKeys.png" width="11px" height="12px" preserveAspectRatio="xMinYMin meet" x="336.165" y="-310.2"/>
<text text-anchor="start" x="351.1646" y="-300.3" font-family="Helvetica,sans-Serif" font-size="11.00" fill="#000000">recipient_id</text>
<polygon fill="none" stroke="#000000" points="331.1646,-271.2 331.1646,-293.2 434.1646,-293.2 434.1646,-271.2 331.1646,-271.2"/>
<image xlink:href="../../images/foreignKeys.png" width="11px" height="12px" preserveAspectRatio="xMinYMin meet" x="336.165" y="-288.2"/>
<text text-anchor="start" x="351.1646" y="-278.3" font-family="Helvetica,sans-Serif" font-size="11.00" fill="#000000">target_type</text>
<polygon fill="#ffffff" stroke="transparent" points="331.1646,-249.2 331.1646,-271.2 434.1646,-271.2 434.1646,-249.2 331.1646,-249.2"/>
<polygon fill="none" stroke="#000000" points="331.1646,-249.2 331.1646,-271.2 434.1646,-271.2 434.1646,-249.2 331.1646,-249.2"/>
<text text-anchor="start" x="351.1646" y="-256.3" font-family="Helvetica,sans-Serif" font-size="11.00" fill="#000000">created_at</text>
<polygon fill="none" stroke="#000000" points="331.1646,-230.2 331.1646,-249.2 434.1646,-249.2 434.1646,-230.2 331.1646,-230.2"/>
<text text-anchor="start" x="334.1646" y="-236.3" font-family="Helvetica,sans-Serif" font-size="11.00" fill="#000000">...</text>
<polygon fill="#ffffff" stroke="transparent" points="331.1646,-211.2 331.1646,-230.2 381.1646,-230.2 381.1646,-211.2 331.1646,-211.2"/>
<polygon fill="none" stroke="#000000" points="331.1646,-211.2 331.1646,-230.2 381.1646,-230.2 381.1646,-211.2 331.1646,-211.2"/>
<text text-anchor="start" x="334.1646" y="-217.3" font-family="Helvetica,sans-Serif" font-size="11.00" fill="#000000">&lt; 3</text>
<polygon fill="#ffffff" stroke="transparent" points="381.1646,-211.2 381.1646,-230.2 407.1646,-230.2 407.1646,-211.2 381.1646,-211.2"/>
<polygon fill="none" stroke="#000000" points="381.1646,-211.2 381.1646,-230.2 407.1646,-230.2 407.1646,-211.2 381.1646,-211.2"/>
<text text-anchor="start" x="398.0508" y="-217.3" font-family="Helvetica,sans-Serif" font-size="11.00" fill="#000000"> &#160;</text>
<polygon fill="#ffffff" stroke="transparent" points="407.1646,-211.2 407.1646,-230.2 434.1646,-230.2 434.1646,-211.2 407.1646,-211.2"/>
<polygon fill="none" stroke="#000000" points="407.1646,-211.2 407.1646,-230.2 434.1646,-230.2 434.1646,-211.2 407.1646,-211.2"/>
<text text-anchor="start" x="425.0508" y="-217.3" font-family="Helvetica,sans-Serif" font-size="11.00" fill="#000000"> &#160;</text>
</a>
</g>
</g>
<!-- transaction&#45;&gt;user -->
<g id="edge7" class="edge">
<title>transaction:w&#45;&gt;user:e</title>
<path fill="none" stroke="#000000" d="M316.7096,-304.2177C233.444,-304.4394 206.9832,-306.9178 118.1646,-321.2 99.6461,-324.1778 95.921,-331.2 77.1646,-331.2"/>
<polygon fill="#000000" stroke="#000000" points="323.1646,-304.2098 331.169,-307.8 327.1646,-304.2049 331.1646,-304.2 331.1646,-304.2 331.1646,-304.2 327.1646,-304.2049 331.1601,-300.6 323.1646,-304.2098 323.1646,-304.2098"/>
<ellipse fill="none" stroke="#000000" cx="319.9646" cy="-304.2138" rx="3.2" ry="3.2"/>
</g>
<!-- transaction&#45;&gt;user -->
<g id="edge8" class="edge">
<title>transaction:w&#45;&gt;user:e</title>
<path fill="none" stroke="#000000" d="M316.7554,-326.2281C215.6135,-326.6298 185.1134,-331.2 77.1646,-331.2"/>
<polygon fill="#000000" stroke="#000000" points="323.1646,-326.2157 331.1716,-329.8 327.1646,-326.2078 331.1646,-326.2 331.1646,-326.2 331.1646,-326.2 327.1646,-326.2078 331.1575,-322.6 323.1646,-326.2157 323.1646,-326.2157"/>
<ellipse fill="none" stroke="#000000" cx="319.9646" cy="-326.2219" rx="3.2" ry="3.2"/>
</g>
<!-- transaction&#45;&gt;entity_type -->
<g id="edge9" class="edge">
<title>transaction:w&#45;&gt;entity_type:e</title>
<path fill="none" stroke="#000000" d="M317.0454,-277.8409C303.4879,-267.8595 302.1097,-244.2 279.6646,-244.2"/>
<polygon fill="#000000" stroke="#000000" points="323.5206,-279.84 330.1026,-285.6398 327.3426,-281.02 331.1646,-282.2 331.1646,-282.2 331.1646,-282.2 327.3426,-281.02 332.2266,-278.7602 323.5206,-279.84 323.5206,-279.84"/>
<ellipse fill="none" stroke="#000000" cx="320.463" cy="-278.896" rx="3.2" ry="3.2"/>
</g>
</g>
</svg>
