<?xml version="1.0" encoding="UTF-8" standalone="no"?>
<!DOCTYPE svg PUBLIC "-//W3C//DTD SVG 1.1//EN"
 "http://www.w3.org/Graphics/SVG/1.1/DTD/svg11.dtd">
<!-- Generated by graphviz version 2.40.1 (20161225.0304)
 -->
<!-- Title: oneDegreeRelationshipsDiagram Pages: 1 -->
<svg width="590pt" height="309pt"
 viewBox="0.00 0.00 590.00 308.70" xmlns="http://www.w3.org/2000/svg" xmlns:xlink="http://www.w3.org/1999/xlink">
<g id="graph0" class="graph" transform="scale(1 1) rotate(0) translate(4 304.7)">
<title>oneDegreeRelationshipsDiagram</title>
<polygon fill="#ffffff" stroke="transparent" points="-4,4 -4,-304.7 586,-304.7 586,4 -4,4"/>
<text text-anchor="middle" x="72.4936" y="-7.3" font-family="Helvetica,sans-Serif" font-size="11.00" fill="#000000">Generated by SchemaSpy</text>
<!-- feedback -->
<g id="node1" class="node">
<title>feedback</title>
<g id="a_node1"><a xlink:href="../../tables/feedback.html" xlink:title="feedback" target="_top">
<polygon fill="#ffffff" stroke="transparent" points="224,-76.7 224,-276.7 405,-276.7 405,-76.7 224,-76.7"/>
<polygon fill="#f5f5f5" stroke="transparent" points="226.5,-251.7 226.5,-274.7 403.5,-274.7 403.5,-251.7 226.5,-251.7"/>
<polygon fill="none" stroke="#000000" points="226.5,-251.7 226.5,-274.7 403.5,-274.7 403.5,-251.7 226.5,-251.7"/>
<text text-anchor="start" x="231.5" y="-260.8" font-family="Helvetica,sans-Serif" font-weight="bold" font-size="11.00" fill="#000000">feedback</text>
<text text-anchor="start" x="368.5437" y="-259.8" font-family="Helvetica,sans-Serif" font-size="11.00" fill="#000000">[table]</text>
<polygon fill="none" stroke="#000000" points="226.5,-229.7 226.5,-251.7 311.5,-251.7 311.5,-229.7 226.5,-229.7"/>
<image xlink:href="../../images/primaryKeys.png" width="11px" height="12px" preserveAspectRatio="xMinYMin meet" x="231.5" y="-246.7"/>
<text text-anchor="start" x="246.5" y="-236.8" font-family="Helvetica,sans-Serif" font-size="11.00" fill="#000000">id</text>
<polygon fill="none" stroke="#000000" points="311.5,-229.7 311.5,-251.7 403.5,-251.7 403.5,-229.7 311.5,-229.7"/>
<text text-anchor="start" x="314.5" y="-237.4" font-family="Helvetica,sans-Serif" font-size="11.00" fill="#000000">bigserial[19]</text>
<polygon fill="none" stroke="#000000" points="226.5,-207.7 226.5,-229.7 311.5,-229.7 311.5,-207.7 226.5,-207.7"/>
<image xlink:href="../../images/foreignKeys.png" width="11px" height="12px" preserveAspectRatio="xMinYMin meet" x="231.5" y="-224.7"/>
<text text-anchor="start" x="246.5" y="-214.8" font-family="Helvetica,sans-Serif" font-size="11.00" fill="#000000">user_id</text>
<polygon fill="none" stroke="#000000" points="311.5,-207.7 311.5,-229.7 403.5,-229.7 403.5,-207.7 311.5,-207.7"/>
<text text-anchor="start" x="314.5" y="-215.4" font-family="Helvetica,sans-Serif" font-size="11.00" fill="#000000">int8[19]</text>
<polygon fill="none" stroke="#000000" points="226.5,-185.7 226.5,-207.7 311.5,-207.7 311.5,-185.7 226.5,-185.7"/>
<text text-anchor="start" x="246.5" y="-192.8" font-family="Helvetica,sans-Serif" font-size="11.00" fill="#000000">category</text>
<polygon fill="none" stroke="#000000" points="311.5,-185.7 311.5,-207.7 403.5,-207.7 403.5,-185.7 311.5,-185.7"/>
<text text-anchor="start" x="314.5" y="-193.4" font-family="Helvetica,sans-Serif" font-size="11.00" fill="#000000">varchar[255]</text>
<polygon fill="none" stroke="#000000" points="226.5,-163.7 226.5,-185.7 311.5,-185.7 311.5,-163.7 226.5,-163.7"/>
<text text-anchor="start" x="246.5" y="-170.8" font-family="Helvetica,sans-Serif" font-size="11.00" fill="#000000">description</text>
<polygon fill="none" stroke="#000000" points="311.5,-163.7 311.5,-185.7 403.5,-185.7 403.5,-163.7 311.5,-163.7"/>
<text text-anchor="start" x="314.5" y="-171.4" font-family="Helvetica,sans-Serif" font-size="11.00" fill="#000000">text[2147483647]</text>
<polygon fill="none" stroke="#000000" points="226.5,-141.7 226.5,-163.7 311.5,-163.7 311.5,-141.7 226.5,-141.7"/>
<text text-anchor="start" x="246.5" y="-148.8" font-family="Helvetica,sans-Serif" font-size="11.00" fill="#000000">contact</text>
<polygon fill="none" stroke="#000000" points="311.5,-141.7 311.5,-163.7 403.5,-163.7 403.5,-141.7 311.5,-141.7"/>
<text text-anchor="start" x="314.5" y="-149.4" font-family="Helvetica,sans-Serif" font-size="11.00" fill="#000000">varchar[255]</text>
<polygon fill="none" stroke="#000000" points="226.5,-119.7 226.5,-141.7 311.5,-141.7 311.5,-119.7 226.5,-119.7"/>
<text text-anchor="start" x="246.5" y="-126.8" font-family="Helvetica,sans-Serif" font-size="11.00" fill="#000000">created_at</text>
<polygon fill="none" stroke="#000000" points="311.5,-119.7 311.5,-141.7 403.5,-141.7 403.5,-119.7 311.5,-119.7"/>
<text text-anchor="start" x="314.1023" y="-127.4" font-family="Helvetica,sans-Serif" font-size="11.00" fill="#000000">timestamptz[35,6]</text>
<polygon fill="none" stroke="#000000" points="226.5,-97.7 226.5,-119.7 311.5,-119.7 311.5,-97.7 226.5,-97.7"/>
<text text-anchor="start" x="246.5" y="-104.8" font-family="Helvetica,sans-Serif" font-size="11.00" fill="#000000">remark</text>
<polygon fill="none" stroke="#000000" points="311.5,-97.7 311.5,-119.7 403.5,-119.7 403.5,-97.7 311.5,-97.7"/>
<text text-anchor="start" x="314.5" y="-105.4" font-family="Helvetica,sans-Serif" font-size="11.00" fill="#000000">text[2147483647]</text>
<polygon fill="#ffffff" stroke="transparent" points="226.5,-78.7 226.5,-97.7 273.5,-97.7 273.5,-78.7 226.5,-78.7"/>
<polygon fill="none" stroke="#000000" points="226.5,-78.7 226.5,-97.7 273.5,-97.7 273.5,-78.7 226.5,-78.7"/>
<text text-anchor="start" x="229.5" y="-84.8" font-family="Helvetica,sans-Serif" font-size="11.00" fill="#000000">&lt; 1</text>
<polygon fill="#ffffff" stroke="transparent" points="273.5,-78.7 273.5,-97.7 311.5,-97.7 311.5,-78.7 273.5,-78.7"/>
<polygon fill="none" stroke="#000000" points="273.5,-78.7 273.5,-97.7 311.5,-97.7 311.5,-78.7 273.5,-78.7"/>
<text text-anchor="start" x="302.3862" y="-84.8" font-family="Helvetica,sans-Serif" font-size="11.00" fill="#000000"> &#160;</text>
<polygon fill="#ffffff" stroke="transparent" points="311.5,-78.7 311.5,-97.7 403.5,-97.7 403.5,-78.7 311.5,-78.7"/>
<polygon fill="none" stroke="#000000" points="311.5,-78.7 311.5,-97.7 403.5,-97.7 403.5,-78.7 311.5,-78.7"/>
<text text-anchor="start" x="384.9053" y="-84.8" font-family="Helvetica,sans-Serif" font-size="11.00" fill="#000000">1 &gt;</text>
<polygon fill="none" stroke="#000000" stroke-width="2" points="225,-77.7 225,-275.7 404,-275.7 404,-77.7 225,-77.7"/>
</a>
</g>
</g>
<!-- user -->
<g id="node2" class="node">
<title>user</title>
<g id="a_node2"><a xlink:href="../../tables/user.html" xlink:title="user" target="_top">
<polygon fill="#ffffff" stroke="transparent" points="8,-38.2 8,-253.2 175,-253.2 175,-38.2 8,-38.2"/>
<polygon fill="#f5f5f5" stroke="transparent" points="8.5,-229.7 8.5,-252.7 175.5,-252.7 175.5,-229.7 8.5,-229.7"/>
<polygon fill="none" stroke="#000000" points="8.5,-229.7 8.5,-252.7 175.5,-252.7 175.5,-229.7 8.5,-229.7"/>
<text text-anchor="start" x="13.5" y="-238.8" font-family="Helvetica,sans-Serif" font-weight="bold" font-size="11.00" fill="#000000">user</text>
<text text-anchor="start" x="140.5437" y="-237.8" font-family="Helvetica,sans-Serif" font-size="11.00" fill="#000000">[table]</text>
<polygon fill="none" stroke="#000000" points="8.5,-207.7 8.5,-229.7 175.5,-229.7 175.5,-207.7 8.5,-207.7"/>
<image xlink:href="../../images/primaryKeys.png" width="11px" height="12px" preserveAspectRatio="xMinYMin meet" x="13.5" y="-224.7"/>
<text text-anchor="start" x="28.5" y="-214.8" font-family="Helvetica,sans-Serif" font-size="11.00" fill="#000000">id</text>
<polygon fill="#ffffff" stroke="transparent" points="8.5,-185.7 8.5,-207.7 175.5,-207.7 175.5,-185.7 8.5,-185.7"/>
<polygon fill="none" stroke="#000000" points="8.5,-185.7 8.5,-207.7 175.5,-207.7 175.5,-185.7 8.5,-185.7"/>
<text text-anchor="start" x="28.5" y="-192.8" font-family="Helvetica,sans-Serif" font-size="11.00" fill="#000000">uuid</text>
<polygon fill="#ffffff" stroke="transparent" points="8.5,-163.7 8.5,-185.7 175.5,-185.7 175.5,-163.7 8.5,-163.7"/>
<polygon fill="none" stroke="#000000" points="8.5,-163.7 8.5,-185.7 175.5,-185.7 175.5,-163.7 8.5,-163.7"/>
<text text-anchor="start" x="28.5" y="-170.8" font-family="Helvetica,sans-Serif" font-size="11.00" fill="#000000">user_name</text>
<polygon fill="none" stroke="#000000" points="8.5,-141.7 8.5,-163.7 175.5,-163.7 175.5,-141.7 8.5,-141.7"/>
<image xlink:href="../../images/foreignKeys.png" width="11px" height="12px" preserveAspectRatio="xMinYMin meet" x="13.5" y="-158.7"/>
<text text-anchor="start" x="28.5" y="-148.8" font-family="Helvetica,sans-Serif" font-size="11.00" fill="#000000">avatar</text>
<polygon fill="#ffffff" stroke="transparent" points="8.5,-119.7 8.5,-141.7 175.5,-141.7 175.5,-119.7 8.5,-119.7"/>
<polygon fill="none" stroke="#000000" points="8.5,-119.7 8.5,-141.7 175.5,-141.7 175.5,-119.7 8.5,-119.7"/>
<text text-anchor="start" x="28.5" y="-126.8" font-family="Helvetica,sans-Serif" font-size="11.00" fill="#000000">email</text>
<polygon fill="#ffffff" stroke="transparent" points="8.5,-97.7 8.5,-119.7 175.5,-119.7 175.5,-97.7 8.5,-97.7"/>
<polygon fill="none" stroke="#000000" points="8.5,-97.7 8.5,-119.7 175.5,-119.7 175.5,-97.7 8.5,-97.7"/>
<text text-anchor="start" x="28.5" y="-104.8" font-family="Helvetica,sans-Serif" font-size="11.00" fill="#000000">state</text>
<polygon fill="#ffffff" stroke="transparent" points="8.5,-75.7 8.5,-97.7 175.5,-97.7 175.5,-75.7 8.5,-75.7"/>
<polygon fill="none" stroke="#000000" points="8.5,-75.7 8.5,-97.7 175.5,-97.7 175.5,-75.7 8.5,-75.7"/>
<text text-anchor="start" x="28.5" y="-82.8" font-family="Helvetica,sans-Serif" font-size="11.00" fill="#000000">liker_id</text>
<polygon fill="none" stroke="#000000" points="8.5,-56.7 8.5,-75.7 175.5,-75.7 175.5,-56.7 8.5,-56.7"/>
<text text-anchor="start" x="11.5" y="-62.8" font-family="Helvetica,sans-Serif" font-size="11.00" fill="#000000">...</text>
<polygon fill="#ffffff" stroke="transparent" points="8.5,-37.7 8.5,-56.7 82.5,-56.7 82.5,-37.7 8.5,-37.7"/>
<polygon fill="none" stroke="#000000" points="8.5,-37.7 8.5,-56.7 82.5,-56.7 82.5,-37.7 8.5,-37.7"/>
<text text-anchor="start" x="11.5" y="-43.8" font-family="Helvetica,sans-Serif" font-size="11.00" fill="#000000">&lt; 1</text>
<polygon fill="#ffffff" stroke="transparent" points="82.5,-37.7 82.5,-56.7 121.5,-56.7 121.5,-37.7 82.5,-37.7"/>
<polygon fill="none" stroke="#000000" points="82.5,-37.7 82.5,-56.7 121.5,-56.7 121.5,-37.7 82.5,-37.7"/>
<text text-anchor="start" x="112.3862" y="-43.8" font-family="Helvetica,sans-Serif" font-size="11.00" fill="#000000"> &#160;</text>
<polygon fill="#ffffff" stroke="transparent" points="121.5,-37.7 121.5,-56.7 175.5,-56.7 175.5,-37.7 121.5,-37.7"/>
<polygon fill="none" stroke="#000000" points="121.5,-37.7 121.5,-56.7 175.5,-56.7 175.5,-37.7 121.5,-37.7"/>
<text text-anchor="start" x="150.7904" y="-43.8" font-family="Helvetica,sans-Serif" font-size="11.00" fill="#000000">42 &gt;</text>
</a>
</g>
</g>
<!-- feedback&#45;&gt;user -->
<g id="edge1" class="edge">
<title>feedback:w&#45;&gt;user:e</title>
<path fill="none" stroke="#000000" d="M211.776,-218.7C199.7815,-218.7 192.3229,-218.7 175.5,-218.7"/>
<polygon fill="#000000" stroke="#000000" points="218.5,-218.7001 226.5,-222.3 222.5,-218.7 226.5,-218.7 226.5,-218.7 226.5,-218.7 222.5,-218.7 226.5,-215.1 218.5,-218.7001 218.5,-218.7001"/>
<ellipse fill="none" stroke="#000000" cx="215.3" cy="-218.7001" rx="3.2" ry="3.2"/>
</g>
<!-- feedback_asset -->
<g id="node3" class="node">
<title>feedback_asset</title>
<g id="a_node3"><a xlink:href="../../tables/feedback_asset.html" xlink:title="feedback_asset" target="_top">
<polygon fill="#ffffff" stroke="transparent" points="454,-188.7 454,-296.7 574,-296.7 574,-188.7 454,-188.7"/>
<polygon fill="#f5f5f5" stroke="transparent" points="454,-273.7 454,-296.7 574,-296.7 574,-273.7 454,-273.7"/>
<polygon fill="none" stroke="#000000" points="454,-273.7 454,-296.7 574,-296.7 574,-273.7 454,-273.7"/>
<text text-anchor="start" x="458.9835" y="-282.8" font-family="Helvetica,sans-Serif" font-weight="bold" font-size="11.00" fill="#000000">feedback_asset</text>
<text text-anchor="start" x="539.5219" y="-281.8" font-family="Helvetica,sans-Serif" font-size="11.00" fill="#000000">[table]</text>
<polygon fill="none" stroke="#000000" points="454,-251.7 454,-273.7 574,-273.7 574,-251.7 454,-251.7"/>
<image xlink:href="../../images/primaryKeys.png" width="11px" height="12px" preserveAspectRatio="xMinYMin meet" x="459" y="-268.7"/>
<text text-anchor="start" x="479" y="-258.8" font-family="Helvetica,sans-Serif" font-size="11.00" fill="#000000">id</text>
<polygon fill="#ffffff" stroke="transparent" points="454,-229.7 454,-251.7 574,-251.7 574,-229.7 454,-229.7"/>
<polygon fill="none" stroke="#000000" points="454,-229.7 454,-251.7 574,-251.7 574,-229.7 454,-229.7"/>
<image xlink:href="../../images/foreignKeys.png" width="11px" height="12px" preserveAspectRatio="xMinYMin meet" x="459" y="-246.7"/>
<text text-anchor="start" x="479" y="-236.8" font-family="Helvetica,sans-Serif" font-size="11.00" fill="#000000">feedback_id</text>
<polygon fill="#ffffff" stroke="transparent" points="454,-207.7 454,-229.7 574,-229.7 574,-207.7 454,-207.7"/>
<polygon fill="none" stroke="#000000" points="454,-207.7 454,-229.7 574,-229.7 574,-207.7 454,-207.7"/>
<image xlink:href="../../images/foreignKeys.png" width="11px" height="12px" preserveAspectRatio="xMinYMin meet" x="459" y="-224.7"/>
<text text-anchor="start" x="479" y="-214.8" font-family="Helvetica,sans-Serif" font-size="11.00" fill="#000000">asset_id</text>
<polygon fill="#ffffff" stroke="transparent" points="454,-188.7 454,-207.7 512,-207.7 512,-188.7 454,-188.7"/>
<polygon fill="none" stroke="#000000" points="454,-188.7 454,-207.7 512,-207.7 512,-188.7 454,-188.7"/>
<text text-anchor="start" x="457" y="-194.8" font-family="Helvetica,sans-Serif" font-size="11.00" fill="#000000">&lt; 2</text>
<polygon fill="#ffffff" stroke="transparent" points="512,-188.7 512,-207.7 543,-207.7 543,-188.7 512,-188.7"/>
<polygon fill="none" stroke="#000000" points="512,-188.7 512,-207.7 543,-207.7 543,-188.7 512,-188.7"/>
<text text-anchor="start" x="533.8862" y="-194.8" font-family="Helvetica,sans-Serif" font-size="11.00" fill="#000000"> &#160;</text>
<polygon fill="#ffffff" stroke="transparent" points="543,-188.7 543,-207.7 574,-207.7 574,-188.7 543,-188.7"/>
<polygon fill="none" stroke="#000000" points="543,-188.7 543,-207.7 574,-207.7 574,-188.7 543,-188.7"/>
<text text-anchor="start" x="564.8862" y="-194.8" font-family="Helvetica,sans-Serif" font-size="11.00" fill="#000000"> &#160;</text>
</a>
</g>
</g>
<!-- feedback_asset&#45;&gt;feedback -->
<g id="edge2" class="edge">
<title>feedback_asset:w&#45;&gt;feedback:e</title>
<path fill="none" stroke="#000000" d="M439.4203,-240.7C427.5435,-240.7 420.158,-240.7 403.5,-240.7"/>
<polygon fill="#000000" stroke="#000000" points="446,-240.7001 454,-244.3 450,-240.7 454,-240.7 454,-240.7 454,-240.7 450,-240.7 454,-237.1 446,-240.7001 446,-240.7001"/>
<ellipse fill="none" stroke="#000000" cx="442.8" cy="-240.7001" rx="3.2" ry="3.2"/>
</g>
</g>
</svg>
