<?xml version="1.0" encoding="UTF-8" standalone="no"?>
<!DOCTYPE svg PUBLIC "-//W3C//DTD SVG 1.1//EN"
 "http://www.w3.org/Graphics/SVG/1.1/DTD/svg11.dtd">
<!-- Generated by graphviz version 2.40.1 (20161225.0304)
 -->
<!-- Title: twoDegreesRelationshipsDiagram Pages: 1 -->
<svg width="646pt" height="571pt"
 viewBox="0.00 0.00 646.13 571.35" xmlns="http://www.w3.org/2000/svg" xmlns:xlink="http://www.w3.org/1999/xlink">
<g id="graph0" class="graph" transform="scale(1 1) rotate(0) translate(4 567.3547)">
<title>twoDegreesRelationshipsDiagram</title>
<polygon fill="#ffffff" stroke="transparent" points="-4,4 -4,-567.3547 642.1326,-567.3547 642.1326,4 -4,4"/>
<text text-anchor="middle" x="72.4936" y="-7.3" font-family="Helvetica,sans-Serif" font-size="11.00" fill="#000000">Generated by SchemaSpy</text>
<!-- article -->
<g id="node1" class="node">
<title>article</title>
<g id="a_node1"><a xlink:href="../../tables/article.html" xlink:title="article" target="_top">
<polygon fill="#ffffff" stroke="transparent" points="504.6326,-211.7 504.6326,-272.7 576.6326,-272.7 576.6326,-211.7 504.6326,-211.7"/>
<polygon fill="#f5f5f5" stroke="transparent" points="504.6326,-249.2 504.6326,-272.2 576.6326,-272.2 576.6326,-249.2 504.6326,-249.2"/>
<polygon fill="none" stroke="#000000" points="504.6326,-249.2 504.6326,-272.2 576.6326,-272.2 576.6326,-249.2 504.6326,-249.2"/>
<text text-anchor="start" x="509.4674" y="-258.3" font-family="Helvetica,sans-Serif" font-weight="bold" font-size="11.00" fill="#000000">article</text>
<text text-anchor="start" x="542.1544" y="-257.3" font-family="Helvetica,sans-Serif" font-size="11.00" fill="#000000">[table]</text>
<polygon fill="none" stroke="#000000" points="504.6326,-230.2 504.6326,-249.2 576.6326,-249.2 576.6326,-230.2 504.6326,-230.2"/>
<text text-anchor="start" x="507.6326" y="-236.3" font-family="Helvetica,sans-Serif" font-size="11.00" fill="#000000">...</text>
<polygon fill="#ffffff" stroke="transparent" points="504.6326,-211.2 504.6326,-230.2 531.6326,-230.2 531.6326,-211.2 504.6326,-211.2"/>
<polygon fill="none" stroke="#000000" points="504.6326,-211.2 504.6326,-230.2 531.6326,-230.2 531.6326,-211.2 504.6326,-211.2"/>
<text text-anchor="start" x="507.6326" y="-217.3" font-family="Helvetica,sans-Serif" font-size="11.00" fill="#000000">&lt; 4</text>
<polygon fill="#ffffff" stroke="transparent" points="531.6326,-211.2 531.6326,-230.2 546.6326,-230.2 546.6326,-211.2 531.6326,-211.2"/>
<polygon fill="none" stroke="#000000" points="531.6326,-211.2 531.6326,-230.2 546.6326,-230.2 546.6326,-211.2 531.6326,-211.2"/>
<text text-anchor="start" x="537.5188" y="-217.3" font-family="Helvetica,sans-Serif" font-size="11.00" fill="#000000"> &#160;</text>
<polygon fill="#ffffff" stroke="transparent" points="546.6326,-211.2 546.6326,-230.2 576.6326,-230.2 576.6326,-211.2 546.6326,-211.2"/>
<polygon fill="none" stroke="#000000" points="546.6326,-211.2 546.6326,-230.2 576.6326,-230.2 576.6326,-211.2 546.6326,-211.2"/>
<text text-anchor="start" x="551.923" y="-217.3" font-family="Helvetica,sans-Serif" font-size="11.00" fill="#000000">14 &gt;</text>
</a>
</g>
</g>
<!-- user -->
<g id="node2" class="node">
<title>user</title>
<g id="a_node2"><a xlink:href="../../tables/user.html" xlink:title="user" target="_top">
<polygon fill="#ffffff" stroke="transparent" points="167.1326,-115.7 167.1326,-176.7 231.1326,-176.7 231.1326,-115.7 167.1326,-115.7"/>
<polygon fill="#f5f5f5" stroke="transparent" points="167.1326,-153.2 167.1326,-176.2 231.1326,-176.2 231.1326,-153.2 167.1326,-153.2"/>
<polygon fill="none" stroke="#000000" points="167.1326,-153.2 167.1326,-176.2 231.1326,-176.2 231.1326,-153.2 167.1326,-153.2"/>
<text text-anchor="start" x="171.9367" y="-162.3" font-family="Helvetica,sans-Serif" font-weight="bold" font-size="11.00" fill="#000000">user</text>
<text text-anchor="start" x="196.6544" y="-161.3" font-family="Helvetica,sans-Serif" font-size="11.00" fill="#000000">[table]</text>
<polygon fill="none" stroke="#000000" points="167.1326,-134.2 167.1326,-153.2 231.1326,-153.2 231.1326,-134.2 167.1326,-134.2"/>
<text text-anchor="start" x="170.1326" y="-140.3" font-family="Helvetica,sans-Serif" font-size="11.00" fill="#000000">...</text>
<polygon fill="#ffffff" stroke="transparent" points="167.1326,-115.2 167.1326,-134.2 190.1326,-134.2 190.1326,-115.2 167.1326,-115.2"/>
<polygon fill="none" stroke="#000000" points="167.1326,-115.2 167.1326,-134.2 190.1326,-134.2 190.1326,-115.2 167.1326,-115.2"/>
<text text-anchor="start" x="170.1326" y="-121.3" font-family="Helvetica,sans-Serif" font-size="11.00" fill="#000000">&lt; 1</text>
<polygon fill="#ffffff" stroke="transparent" points="190.1326,-115.2 190.1326,-134.2 203.1326,-134.2 203.1326,-115.2 190.1326,-115.2"/>
<polygon fill="none" stroke="#000000" points="190.1326,-115.2 190.1326,-134.2 203.1326,-134.2 203.1326,-115.2 190.1326,-115.2"/>
<text text-anchor="start" x="194.0188" y="-121.3" font-family="Helvetica,sans-Serif" font-size="11.00" fill="#000000"> &#160;</text>
<polygon fill="#ffffff" stroke="transparent" points="203.1326,-115.2 203.1326,-134.2 231.1326,-134.2 231.1326,-115.2 203.1326,-115.2"/>
<polygon fill="none" stroke="#000000" points="203.1326,-115.2 203.1326,-134.2 231.1326,-134.2 231.1326,-115.2 203.1326,-115.2"/>
<text text-anchor="start" x="206.423" y="-121.3" font-family="Helvetica,sans-Serif" font-size="11.00" fill="#000000">42 &gt;</text>
</a>
</g>
</g>
<!-- article&#45;&gt;user -->
<g id="edge1" class="edge">
<title>article:w&#45;&gt;user:e</title>
<path fill="none" stroke="#000000" d="M490.2094,-238.2553C457.4282,-233.652 448.2197,-213.3019 410.1326,-201.2 358.7627,-184.8776 342.8568,-191.4303 292.1326,-173.2 263.7007,-162.9816 261.345,-143.2 231.1326,-143.2"/>
<polygon fill="#000000" stroke="#000000" points="496.6497,-238.6771 504.3973,-242.7923 500.6411,-238.9386 504.6326,-239.2 504.6326,-239.2 504.6326,-239.2 500.6411,-238.9386 504.8679,-235.6077 496.6497,-238.6771 496.6497,-238.6771"/>
<ellipse fill="none" stroke="#000000" cx="493.4565" cy="-238.4679" rx="3.2" ry="3.2"/>
</g>
<!-- asset -->
<g id="node3" class="node">
<title>asset</title>
<g id="a_node3"><a xlink:href="../../tables/asset.html" xlink:title="asset" target="_top">
<polygon fill="#ffffff" stroke="transparent" points="13.1326,-201.7 13.1326,-328.7 98.1326,-328.7 98.1326,-201.7 13.1326,-201.7"/>
<polygon fill="#f5f5f5" stroke="transparent" points="13.6326,-305.2 13.6326,-328.2 98.6326,-328.2 98.6326,-305.2 13.6326,-305.2"/>
<polygon fill="none" stroke="#000000" points="13.6326,-305.2 13.6326,-328.2 98.6326,-328.2 98.6326,-305.2 13.6326,-305.2"/>
<text text-anchor="start" x="18.6326" y="-314.3" font-family="Helvetica,sans-Serif" font-weight="bold" font-size="11.00" fill="#000000">asset</text>
<text text-anchor="start" x="63.6763" y="-313.3" font-family="Helvetica,sans-Serif" font-size="11.00" fill="#000000">[table]</text>
<polygon fill="none" stroke="#000000" points="13.6326,-283.2 13.6326,-305.2 98.6326,-305.2 98.6326,-283.2 13.6326,-283.2"/>
<image xlink:href="../../images/primaryKeys.png" width="11px" height="12px" preserveAspectRatio="xMinYMin meet" x="18.6326" y="-300.2"/>
<text text-anchor="start" x="33.6326" y="-290.3" font-family="Helvetica,sans-Serif" font-size="11.00" fill="#000000">id</text>
<polygon fill="#ffffff" stroke="transparent" points="13.6326,-261.2 13.6326,-283.2 98.6326,-283.2 98.6326,-261.2 13.6326,-261.2"/>
<polygon fill="none" stroke="#000000" points="13.6326,-261.2 13.6326,-283.2 98.6326,-283.2 98.6326,-261.2 13.6326,-261.2"/>
<text text-anchor="start" x="33.6326" y="-268.3" font-family="Helvetica,sans-Serif" font-size="11.00" fill="#000000">uuid</text>
<polygon fill="none" stroke="#000000" points="13.6326,-239.2 13.6326,-261.2 98.6326,-261.2 98.6326,-239.2 13.6326,-239.2"/>
<image xlink:href="../../images/foreignKeys.png" width="11px" height="12px" preserveAspectRatio="xMinYMin meet" x="18.6326" y="-256.2"/>
<text text-anchor="start" x="33.6326" y="-246.3" font-family="Helvetica,sans-Serif" font-size="11.00" fill="#000000">author_id</text>
<polygon fill="none" stroke="#000000" points="13.6326,-220.2 13.6326,-239.2 98.6326,-239.2 98.6326,-220.2 13.6326,-220.2"/>
<text text-anchor="start" x="16.6326" y="-226.3" font-family="Helvetica,sans-Serif" font-size="11.00" fill="#000000">...</text>
<polygon fill="#ffffff" stroke="transparent" points="13.6326,-201.2 13.6326,-220.2 49.6326,-220.2 49.6326,-201.2 13.6326,-201.2"/>
<polygon fill="none" stroke="#000000" points="13.6326,-201.2 13.6326,-220.2 49.6326,-220.2 49.6326,-201.2 13.6326,-201.2"/>
<text text-anchor="start" x="16.6326" y="-207.3" font-family="Helvetica,sans-Serif" font-size="11.00" fill="#000000">&lt; 1</text>
<polygon fill="#ffffff" stroke="transparent" points="49.6326,-201.2 49.6326,-220.2 69.6326,-220.2 69.6326,-201.2 49.6326,-201.2"/>
<polygon fill="none" stroke="#000000" points="49.6326,-201.2 49.6326,-220.2 69.6326,-220.2 69.6326,-201.2 49.6326,-201.2"/>
<text text-anchor="start" x="60.5188" y="-207.3" font-family="Helvetica,sans-Serif" font-size="11.00" fill="#000000"> &#160;</text>
<polygon fill="#ffffff" stroke="transparent" points="69.6326,-201.2 69.6326,-220.2 98.6326,-220.2 98.6326,-201.2 69.6326,-201.2"/>
<polygon fill="none" stroke="#000000" points="69.6326,-201.2 69.6326,-220.2 98.6326,-220.2 98.6326,-201.2 69.6326,-201.2"/>
<text text-anchor="start" x="80.0379" y="-207.3" font-family="Helvetica,sans-Serif" font-size="11.00" fill="#000000">9 &gt;</text>
</a>
</g>
</g>
<!-- article&#45;&gt;asset -->
<g id="edge2" class="edge">
<title>article:w&#45;&gt;asset:e</title>
<path fill="none" stroke="#000000" d="M490.0197,-240.2119C388.882,-255.4228 509.1827,-438.0121 410.1326,-508.2 311.8598,-577.8371 231.8807,-585.0417 139.1326,-508.2 64.5923,-446.4435 195.432,-294.2 98.6326,-294.2"/>
<polygon fill="#000000" stroke="#000000" points="496.6517,-239.7527 504.8813,-242.7914 500.6421,-239.4763 504.6326,-239.2 504.6326,-239.2 504.6326,-239.2 500.6421,-239.4763 504.3839,-235.6086 496.6517,-239.7527 496.6517,-239.7527"/>
<ellipse fill="none" stroke="#000000" cx="493.4593" cy="-239.9738" rx="3.2" ry="3.2"/>
</g>
<!-- draft -->
<g id="node4" class="node">
<title>draft</title>
<g id="a_node4"><a xlink:href="../../tables/draft.html" xlink:title="draft" target="_top">
<polygon fill="#ffffff" stroke="transparent" points="318.6326,-211.7 318.6326,-272.7 383.6326,-272.7 383.6326,-211.7 318.6326,-211.7"/>
<polygon fill="#f5f5f5" stroke="transparent" points="319.1326,-249.2 319.1326,-272.2 384.1326,-272.2 384.1326,-249.2 319.1326,-249.2"/>
<polygon fill="none" stroke="#000000" points="319.1326,-249.2 319.1326,-272.2 384.1326,-272.2 384.1326,-249.2 319.1326,-249.2"/>
<text text-anchor="start" x="324.1298" y="-258.3" font-family="Helvetica,sans-Serif" font-weight="bold" font-size="11.00" fill="#000000">draft</text>
<text text-anchor="start" x="349.6544" y="-257.3" font-family="Helvetica,sans-Serif" font-size="11.00" fill="#000000">[table]</text>
<polygon fill="none" stroke="#000000" points="319.1326,-230.2 319.1326,-249.2 384.1326,-249.2 384.1326,-230.2 319.1326,-230.2"/>
<text text-anchor="start" x="322.1326" y="-236.3" font-family="Helvetica,sans-Serif" font-size="11.00" fill="#000000">...</text>
<polygon fill="#ffffff" stroke="transparent" points="319.1326,-211.2 319.1326,-230.2 345.1326,-230.2 345.1326,-211.2 319.1326,-211.2"/>
<polygon fill="none" stroke="#000000" points="319.1326,-211.2 319.1326,-230.2 345.1326,-230.2 345.1326,-211.2 319.1326,-211.2"/>
<text text-anchor="start" x="322.1326" y="-217.3" font-family="Helvetica,sans-Serif" font-size="11.00" fill="#000000">&lt; 3</text>
<polygon fill="#ffffff" stroke="transparent" points="345.1326,-211.2 345.1326,-230.2 360.1326,-230.2 360.1326,-211.2 345.1326,-211.2"/>
<polygon fill="none" stroke="#000000" points="345.1326,-211.2 345.1326,-230.2 360.1326,-230.2 360.1326,-211.2 345.1326,-211.2"/>
<text text-anchor="start" x="351.0188" y="-217.3" font-family="Helvetica,sans-Serif" font-size="11.00" fill="#000000"> &#160;</text>
<polygon fill="#ffffff" stroke="transparent" points="360.1326,-211.2 360.1326,-230.2 384.1326,-230.2 384.1326,-211.2 360.1326,-211.2"/>
<polygon fill="none" stroke="#000000" points="360.1326,-211.2 360.1326,-230.2 384.1326,-230.2 384.1326,-211.2 360.1326,-211.2"/>
<text text-anchor="start" x="365.5379" y="-217.3" font-family="Helvetica,sans-Serif" font-size="11.00" fill="#000000">1 &gt;</text>
</a>
</g>
</g>
<!-- article&#45;&gt;draft -->
<g id="edge3" class="edge">
<title>article:w&#45;&gt;draft:e</title>
<path fill="none" stroke="#000000" d="M490.0168,-239.2C448.079,-239.2 432.4581,-239.2 384.1326,-239.2"/>
<polygon fill="#000000" stroke="#000000" points="496.6326,-239.2001 504.6326,-242.8 500.6326,-239.2 504.6326,-239.2 504.6326,-239.2 504.6326,-239.2 500.6326,-239.2 504.6326,-235.6 496.6326,-239.2001 496.6326,-239.2001"/>
<ellipse fill="none" stroke="#000000" cx="493.4326" cy="-239.2001" rx="3.2" ry="3.2"/>
</g>
<!-- user&#45;&gt;asset -->
<g id="edge18" class="edge">
<title>user:w&#45;&gt;asset:e</title>
<path fill="none" stroke="#000000" d="M152.8135,-145.6949C104.5716,-165.3278 166.7129,-294.2 98.6326,-294.2"/>
<polygon fill="#000000" stroke="#000000" points="159.2513,-144.5732 167.7506,-146.7466 163.192,-143.8866 167.1326,-143.2 167.1326,-143.2 167.1326,-143.2 163.192,-143.8866 166.5146,-139.6534 159.2513,-144.5732 159.2513,-144.5732"/>
<ellipse fill="none" stroke="#000000" cx="156.0988" cy="-145.1225" rx="3.2" ry="3.2"/>
</g>
<!-- asset&#45;&gt;user -->
<g id="edge4" class="edge">
<title>asset:w&#45;&gt;user:e</title>
<path fill="none" stroke="#000000" d="M1.209,-242.8339C-2.7305,-232.1161 5.5022,-211.95 13.6326,-197.7 50.8585,-132.4547 86.6745,-131.5127 159.1326,-111.7 159.1326,-111.7 231.1326,-143.2 231.1326,-143.2"/>
<polygon fill="#000000" stroke="#000000" points="6.7512,-246.1199 11.7966,-253.2966 10.1919,-248.16 13.6326,-250.2 13.6326,-250.2 13.6326,-250.2 10.1919,-248.16 15.4686,-247.1034 6.7512,-246.1199 6.7512,-246.1199"/>
<ellipse fill="none" stroke="#000000" cx="3.9987" cy="-244.4879" rx="3.2" ry="3.2"/>
</g>
<!-- draft&#45;&gt;article -->
<g id="edge10" class="edge">
<title>draft:w&#45;&gt;article:e</title>
<path fill="none" stroke="#000000" d="M310.131,-227.7808C310.4655,-221.0198 314.0282,-212.8044 319.1326,-207.7 329.2481,-197.5844 566.517,-197.5844 576.6326,-207.7 586.5321,-217.5995 590.6326,-239.2 576.6326,-239.2"/>
<polygon fill="#000000" stroke="#000000" points="314.18,-232.9173 316.3054,-241.4287 316.6563,-236.0586 319.1326,-239.2 319.1326,-239.2 319.1326,-239.2 316.6563,-236.0586 321.9598,-236.9713 314.18,-232.9173 314.18,-232.9173"/>
<ellipse fill="none" stroke="#000000" cx="312.199" cy="-230.4042" rx="3.2" ry="3.2"/>
</g>
<!-- draft&#45;&gt;user -->
<g id="edge8" class="edge">
<title>draft:w&#45;&gt;user:e</title>
<path fill="none" stroke="#000000" d="M304.4662,-236.6322C265.8576,-221.3655 283.3605,-143.2 231.1326,-143.2"/>
<polygon fill="#000000" stroke="#000000" points="311.2525,-237.8203 318.5117,-242.7461 315.1925,-238.5102 319.1326,-239.2 319.1326,-239.2 319.1326,-239.2 315.1925,-238.5102 319.7534,-235.6539 311.2525,-237.8203 311.2525,-237.8203"/>
<ellipse fill="none" stroke="#000000" cx="308.1004" cy="-237.2684" rx="3.2" ry="3.2"/>
</g>
<!-- draft&#45;&gt;asset -->
<g id="edge9" class="edge">
<title>draft:w&#45;&gt;asset:e</title>
<path fill="none" stroke="#000000" d="M304.3796,-237.1673C288.1252,-232.1985 281.6066,-219.5281 259.1326,-215.2 206.7616,-205.1143 184.6413,-187.3899 139.1326,-215.2 105.4651,-235.774 138.0888,-294.2 98.6326,-294.2"/>
<polygon fill="#000000" stroke="#000000" points="311.2075,-238.108 318.6412,-242.7663 315.17,-238.654 319.1326,-239.2 319.1326,-239.2 319.1326,-239.2 315.17,-238.654 319.624,-235.6337 311.2075,-238.108 311.2075,-238.108"/>
<ellipse fill="none" stroke="#000000" cx="308.0374" cy="-237.6712" rx="3.2" ry="3.2"/>
</g>
<!-- asset_map -->
<g id="node5" class="node">
<title>asset_map</title>
<g id="a_node5"><a xlink:href="../../tables/asset_map.html" xlink:title="asset_map" target="_top">
<polygon fill="#ffffff" stroke="transparent" points="151.1326,-307.7 151.1326,-368.7 247.1326,-368.7 247.1326,-307.7 151.1326,-307.7"/>
<polygon fill="#f5f5f5" stroke="transparent" points="151.1326,-345.2 151.1326,-368.2 247.1326,-368.2 247.1326,-345.2 151.1326,-345.2"/>
<polygon fill="none" stroke="#000000" points="151.1326,-345.2 151.1326,-368.2 247.1326,-368.2 247.1326,-345.2 151.1326,-345.2"/>
<text text-anchor="start" x="155.7359" y="-354.3" font-family="Helvetica,sans-Serif" font-weight="bold" font-size="11.00" fill="#000000">asset_map</text>
<text text-anchor="start" x="212.6544" y="-353.3" font-family="Helvetica,sans-Serif" font-size="11.00" fill="#000000">[table]</text>
<polygon fill="none" stroke="#000000" points="151.1326,-326.2 151.1326,-345.2 247.1326,-345.2 247.1326,-326.2 151.1326,-326.2"/>
<text text-anchor="start" x="154.1326" y="-332.3" font-family="Helvetica,sans-Serif" font-size="11.00" fill="#000000">...</text>
<polygon fill="#ffffff" stroke="transparent" points="151.1326,-307.2 151.1326,-326.2 197.1326,-326.2 197.1326,-307.2 151.1326,-307.2"/>
<polygon fill="none" stroke="#000000" points="151.1326,-307.2 151.1326,-326.2 197.1326,-326.2 197.1326,-307.2 151.1326,-307.2"/>
<text text-anchor="start" x="154.1326" y="-313.3" font-family="Helvetica,sans-Serif" font-size="11.00" fill="#000000">&lt; 2</text>
<polygon fill="#ffffff" stroke="transparent" points="197.1326,-307.2 197.1326,-326.2 222.1326,-326.2 222.1326,-307.2 197.1326,-307.2"/>
<polygon fill="none" stroke="#000000" points="197.1326,-307.2 197.1326,-326.2 222.1326,-326.2 222.1326,-307.2 197.1326,-307.2"/>
<text text-anchor="start" x="213.0188" y="-313.3" font-family="Helvetica,sans-Serif" font-size="11.00" fill="#000000"> &#160;</text>
<polygon fill="#ffffff" stroke="transparent" points="222.1326,-307.2 222.1326,-326.2 247.1326,-326.2 247.1326,-307.2 222.1326,-307.2"/>
<polygon fill="none" stroke="#000000" points="222.1326,-307.2 222.1326,-326.2 247.1326,-326.2 247.1326,-307.2 222.1326,-307.2"/>
<text text-anchor="start" x="238.0188" y="-313.3" font-family="Helvetica,sans-Serif" font-size="11.00" fill="#000000"> &#160;</text>
</a>
</g>
</g>
<!-- asset_map&#45;&gt;asset -->
<g id="edge5" class="edge">
<title>asset_map:w&#45;&gt;asset:e</title>
<path fill="none" stroke="#000000" d="M136.9782,-330.8123C122.755,-320.2354 122.2246,-294.2 98.6326,-294.2"/>
<polygon fill="#000000" stroke="#000000" points="143.4913,-332.8312 150.0667,-338.6386 147.312,-334.0156 151.1326,-335.2 151.1326,-335.2 151.1326,-335.2 147.312,-334.0156 152.1985,-331.7614 143.4913,-332.8312 143.4913,-332.8312"/>
<ellipse fill="none" stroke="#000000" cx="140.4348" cy="-331.8837" rx="3.2" ry="3.2"/>
</g>
<!-- audio_draft -->
<g id="node6" class="node">
<title>audio_draft</title>
<g id="a_node6"><a xlink:href="../../tables/audio_draft.html" xlink:title="audio_draft" target="_top">
<polygon fill="#ffffff" stroke="transparent" points="302.1326,-436.7 302.1326,-497.7 400.1326,-497.7 400.1326,-436.7 302.1326,-436.7"/>
<polygon fill="#f5f5f5" stroke="transparent" points="302.1326,-474.2 302.1326,-497.2 400.1326,-497.2 400.1326,-474.2 302.1326,-474.2"/>
<polygon fill="none" stroke="#000000" points="302.1326,-474.2 302.1326,-497.2 400.1326,-497.2 400.1326,-474.2 302.1326,-474.2"/>
<text text-anchor="start" x="307.1221" y="-483.3" font-family="Helvetica,sans-Serif" font-weight="bold" font-size="11.00" fill="#000000">audio_draft</text>
<text text-anchor="start" x="365.6544" y="-482.3" font-family="Helvetica,sans-Serif" font-size="11.00" fill="#000000">[table]</text>
<polygon fill="none" stroke="#000000" points="302.1326,-455.2 302.1326,-474.2 400.1326,-474.2 400.1326,-455.2 302.1326,-455.2"/>
<text text-anchor="start" x="305.1326" y="-461.3" font-family="Helvetica,sans-Serif" font-size="11.00" fill="#000000">...</text>
<polygon fill="#ffffff" stroke="transparent" points="302.1326,-436.2 302.1326,-455.2 349.1326,-455.2 349.1326,-436.2 302.1326,-436.2"/>
<polygon fill="none" stroke="#000000" points="302.1326,-436.2 302.1326,-455.2 349.1326,-455.2 349.1326,-436.2 302.1326,-436.2"/>
<text text-anchor="start" x="305.1326" y="-442.3" font-family="Helvetica,sans-Serif" font-size="11.00" fill="#000000">&lt; 2</text>
<polygon fill="#ffffff" stroke="transparent" points="349.1326,-436.2 349.1326,-455.2 374.1326,-455.2 374.1326,-436.2 349.1326,-436.2"/>
<polygon fill="none" stroke="#000000" points="349.1326,-436.2 349.1326,-455.2 374.1326,-455.2 374.1326,-436.2 349.1326,-436.2"/>
<text text-anchor="start" x="365.0188" y="-442.3" font-family="Helvetica,sans-Serif" font-size="11.00" fill="#000000"> &#160;</text>
<polygon fill="#ffffff" stroke="transparent" points="374.1326,-436.2 374.1326,-455.2 400.1326,-455.2 400.1326,-436.2 374.1326,-436.2"/>
<polygon fill="none" stroke="#000000" points="374.1326,-436.2 374.1326,-455.2 400.1326,-455.2 400.1326,-436.2 374.1326,-436.2"/>
<text text-anchor="start" x="391.0188" y="-442.3" font-family="Helvetica,sans-Serif" font-size="11.00" fill="#000000"> &#160;</text>
</a>
</g>
</g>
<!-- audio_draft&#45;&gt;user -->
<g id="edge7" class="edge">
<title>audio_draft:w&#45;&gt;user:e</title>
<path fill="none" stroke="#000000" d="M288.5035,-459.4132C239.1578,-419.4818 298.9104,-143.2 231.1326,-143.2"/>
<polygon fill="#000000" stroke="#000000" points="294.5846,-461.549 300.9396,-467.5966 298.3586,-462.8745 302.1326,-464.2 302.1326,-464.2 302.1326,-464.2 298.3586,-462.8745 303.3256,-460.8034 294.5846,-461.549 294.5846,-461.549"/>
<ellipse fill="none" stroke="#000000" cx="291.5654" cy="-460.4885" rx="3.2" ry="3.2"/>
</g>
<!-- audio_draft&#45;&gt;asset -->
<g id="edge6" class="edge">
<title>audio_draft:w&#45;&gt;asset:e</title>
<path fill="none" stroke="#000000" d="M288.1514,-467.8477C278.6432,-473.7164 274.6406,-485.0194 259.1326,-489.2 207.6375,-503.0817 180.5021,-522.8602 139.1326,-489.2 70.4726,-433.3349 187.1488,-294.2 98.6326,-294.2"/>
<polygon fill="#000000" stroke="#000000" points="294.3917,-466.2196 303.0414,-467.6834 298.2621,-465.2098 302.1326,-464.2 302.1326,-464.2 302.1326,-464.2 298.2621,-465.2098 301.2238,-460.7166 294.3917,-466.2196 294.3917,-466.2196"/>
<ellipse fill="none" stroke="#000000" cx="291.2954" cy="-467.0275" rx="3.2" ry="3.2"/>
</g>
<!-- feedback -->
<g id="node7" class="node">
<title>feedback</title>
<g id="a_node7"><a xlink:href="../../tables/feedback.html" xlink:title="feedback" target="_top">
<polygon fill="#ffffff" stroke="transparent" points="307.6326,-57.7 307.6326,-162.7 394.6326,-162.7 394.6326,-57.7 307.6326,-57.7"/>
<polygon fill="#f5f5f5" stroke="transparent" points="308.1326,-139.2 308.1326,-162.2 395.1326,-162.2 395.1326,-139.2 308.1326,-139.2"/>
<polygon fill="none" stroke="#000000" points="308.1326,-139.2 308.1326,-162.2 395.1326,-162.2 395.1326,-139.2 308.1326,-139.2"/>
<text text-anchor="start" x="312.8169" y="-148.3" font-family="Helvetica,sans-Serif" font-weight="bold" font-size="11.00" fill="#000000">feedback</text>
<text text-anchor="start" x="360.6544" y="-147.3" font-family="Helvetica,sans-Serif" font-size="11.00" fill="#000000">[table]</text>
<polygon fill="none" stroke="#000000" points="308.1326,-117.2 308.1326,-139.2 395.1326,-139.2 395.1326,-117.2 308.1326,-117.2"/>
<image xlink:href="../../images/primaryKeys.png" width="11px" height="12px" preserveAspectRatio="xMinYMin meet" x="313.133" y="-134.2"/>
<text text-anchor="start" x="329.1326" y="-124.3" font-family="Helvetica,sans-Serif" font-size="11.00" fill="#000000">id</text>
<polygon fill="none" stroke="#000000" points="308.1326,-95.2 308.1326,-117.2 395.1326,-117.2 395.1326,-95.2 308.1326,-95.2"/>
<image xlink:href="../../images/foreignKeys.png" width="11px" height="12px" preserveAspectRatio="xMinYMin meet" x="313.133" y="-112.2"/>
<text text-anchor="start" x="329.1326" y="-102.3" font-family="Helvetica,sans-Serif" font-size="11.00" fill="#000000">user_id</text>
<polygon fill="none" stroke="#000000" points="308.1326,-76.2 308.1326,-95.2 395.1326,-95.2 395.1326,-76.2 308.1326,-76.2"/>
<text text-anchor="start" x="311.1326" y="-82.3" font-family="Helvetica,sans-Serif" font-size="11.00" fill="#000000">...</text>
<polygon fill="#ffffff" stroke="transparent" points="308.1326,-57.2 308.1326,-76.2 345.1326,-76.2 345.1326,-57.2 308.1326,-57.2"/>
<polygon fill="none" stroke="#000000" points="308.1326,-57.2 308.1326,-76.2 345.1326,-76.2 345.1326,-57.2 308.1326,-57.2"/>
<text text-anchor="start" x="311.1326" y="-63.3" font-family="Helvetica,sans-Serif" font-size="11.00" fill="#000000">&lt; 1</text>
<polygon fill="#ffffff" stroke="transparent" points="345.1326,-57.2 345.1326,-76.2 365.1326,-76.2 365.1326,-57.2 345.1326,-57.2"/>
<polygon fill="none" stroke="#000000" points="345.1326,-57.2 345.1326,-76.2 365.1326,-76.2 365.1326,-57.2 345.1326,-57.2"/>
<text text-anchor="start" x="356.0188" y="-63.3" font-family="Helvetica,sans-Serif" font-size="11.00" fill="#000000"> &#160;</text>
<polygon fill="#ffffff" stroke="transparent" points="365.1326,-57.2 365.1326,-76.2 395.1326,-76.2 395.1326,-57.2 365.1326,-57.2"/>
<polygon fill="none" stroke="#000000" points="365.1326,-57.2 365.1326,-76.2 395.1326,-76.2 395.1326,-57.2 365.1326,-57.2"/>
<text text-anchor="start" x="376.5379" y="-63.3" font-family="Helvetica,sans-Serif" font-size="11.00" fill="#000000">1 &gt;</text>
</a>
</g>
</g>
<!-- feedback&#45;&gt;user -->
<g id="edge11" class="edge">
<title>feedback:w&#45;&gt;user:e</title>
<path fill="none" stroke="#000000" d="M293.7597,-108.2953C269.0861,-116.1224 263.6132,-143.2 231.1326,-143.2"/>
<polygon fill="#000000" stroke="#000000" points="300.2163,-107.3541 308.6519,-109.7623 304.1744,-106.777 308.1326,-106.2 308.1326,-106.2 308.1326,-106.2 304.1744,-106.777 307.6132,-102.6377 300.2163,-107.3541 300.2163,-107.3541"/>
<ellipse fill="none" stroke="#000000" cx="297.0497" cy="-107.8157" rx="3.2" ry="3.2"/>
</g>
<!-- feedback_asset -->
<g id="node8" class="node">
<title>feedback_asset</title>
<g id="a_node8"><a xlink:href="../../tables/feedback_asset.html" xlink:title="feedback_asset" target="_top">
<polygon fill="#ffffff" stroke="transparent" points="451.1326,-38.2 451.1326,-150.2 630.1326,-150.2 630.1326,-38.2 451.1326,-38.2"/>
<polygon fill="#f5f5f5" stroke="transparent" points="453.6326,-125.2 453.6326,-148.2 628.6326,-148.2 628.6326,-125.2 453.6326,-125.2"/>
<polygon fill="none" stroke="#000000" points="453.6326,-125.2 453.6326,-148.2 628.6326,-148.2 628.6326,-125.2 453.6326,-125.2"/>
<text text-anchor="start" x="458.6326" y="-134.3" font-family="Helvetica,sans-Serif" font-weight="bold" font-size="11.00" fill="#000000">feedback_asset</text>
<text text-anchor="start" x="593.6763" y="-133.3" font-family="Helvetica,sans-Serif" font-size="11.00" fill="#000000">[table]</text>
<polygon fill="none" stroke="#000000" points="453.6326,-103.2 453.6326,-125.2 563.6326,-125.2 563.6326,-103.2 453.6326,-103.2"/>
<image xlink:href="../../images/primaryKeys.png" width="11px" height="12px" preserveAspectRatio="xMinYMin meet" x="458.633" y="-120.2"/>
<text text-anchor="start" x="473.6326" y="-110.3" font-family="Helvetica,sans-Serif" font-size="11.00" fill="#000000">id</text>
<polygon fill="none" stroke="#000000" points="563.6326,-103.2 563.6326,-125.2 628.6326,-125.2 628.6326,-103.2 563.6326,-103.2"/>
<text text-anchor="start" x="566.4887" y="-110.9" font-family="Helvetica,sans-Serif" font-size="11.00" fill="#000000">bigserial[19]</text>
<polygon fill="#ffffff" stroke="transparent" points="453.6326,-81.2 453.6326,-103.2 563.6326,-103.2 563.6326,-81.2 453.6326,-81.2"/>
<polygon fill="none" stroke="#000000" points="453.6326,-81.2 453.6326,-103.2 563.6326,-103.2 563.6326,-81.2 453.6326,-81.2"/>
<image xlink:href="../../images/foreignKeys.png" width="11px" height="12px" preserveAspectRatio="xMinYMin meet" x="458.633" y="-98.2"/>
<text text-anchor="start" x="473.6326" y="-88.3" font-family="Helvetica,sans-Serif" font-size="11.00" fill="#000000">feedback_id</text>
<polygon fill="none" stroke="#000000" points="563.6326,-81.2 563.6326,-103.2 628.6326,-103.2 628.6326,-81.2 563.6326,-81.2"/>
<text text-anchor="start" x="566.6326" y="-88.9" font-family="Helvetica,sans-Serif" font-size="11.00" fill="#000000">int8[19]</text>
<polygon fill="#ffffff" stroke="transparent" points="453.6326,-59.2 453.6326,-81.2 563.6326,-81.2 563.6326,-59.2 453.6326,-59.2"/>
<polygon fill="none" stroke="#000000" points="453.6326,-59.2 453.6326,-81.2 563.6326,-81.2 563.6326,-59.2 453.6326,-59.2"/>
<image xlink:href="../../images/foreignKeys.png" width="11px" height="12px" preserveAspectRatio="xMinYMin meet" x="458.633" y="-76.2"/>
<text text-anchor="start" x="473.6326" y="-66.3" font-family="Helvetica,sans-Serif" font-size="11.00" fill="#000000">asset_id</text>
<polygon fill="none" stroke="#000000" points="563.6326,-59.2 563.6326,-81.2 628.6326,-81.2 628.6326,-59.2 563.6326,-59.2"/>
<text text-anchor="start" x="566.6326" y="-66.9" font-family="Helvetica,sans-Serif" font-size="11.00" fill="#000000">int8[19]</text>
<polygon fill="#ffffff" stroke="transparent" points="453.6326,-40.2 453.6326,-59.2 512.6326,-59.2 512.6326,-40.2 453.6326,-40.2"/>
<polygon fill="none" stroke="#000000" points="453.6326,-40.2 453.6326,-59.2 512.6326,-59.2 512.6326,-40.2 453.6326,-40.2"/>
<text text-anchor="start" x="456.6326" y="-46.3" font-family="Helvetica,sans-Serif" font-size="11.00" fill="#000000">&lt; 2</text>
<polygon fill="#ffffff" stroke="transparent" points="512.6326,-40.2 512.6326,-59.2 563.6326,-59.2 563.6326,-40.2 512.6326,-40.2"/>
<polygon fill="none" stroke="#000000" points="512.6326,-40.2 512.6326,-59.2 563.6326,-59.2 563.6326,-40.2 512.6326,-40.2"/>
<text text-anchor="start" x="554.5188" y="-46.3" font-family="Helvetica,sans-Serif" font-size="11.00" fill="#000000"> &#160;</text>
<polygon fill="#ffffff" stroke="transparent" points="563.6326,-40.2 563.6326,-59.2 628.6326,-59.2 628.6326,-40.2 563.6326,-40.2"/>
<polygon fill="none" stroke="#000000" points="563.6326,-40.2 563.6326,-59.2 628.6326,-59.2 628.6326,-40.2 563.6326,-40.2"/>
<text text-anchor="start" x="610.0379" y="-46.3" font-family="Helvetica,sans-Serif" font-size="11.00" fill="#000000">0 &gt;</text>
<polygon fill="none" stroke="#000000" stroke-width="2" points="452.1326,-39.2 452.1326,-149.2 629.1326,-149.2 629.1326,-39.2 452.1326,-39.2"/>
</a>
</g>
</g>
<!-- feedback_asset&#45;&gt;asset -->
<g id="edge12" class="edge">
<title>feedback_asset:w&#45;&gt;asset:e</title>
<path fill="none" stroke="#000000" d="M439.3332,-66.6636C429.8886,-61.2109 425.3887,-50.985 410.1326,-47.2 359.2313,-34.5716 343.7187,-37.7503 292.1326,-47.2 220.6008,-60.3034 186.5227,-50.0395 139.1326,-105.2 83.1505,-170.3613 184.5395,-294.2 98.6326,-294.2"/>
<polygon fill="#000000" stroke="#000000" points="445.8666,-68.2793 452.7683,-73.6947 449.7496,-69.2397 453.6326,-70.2 453.6326,-70.2 453.6326,-70.2 449.7496,-69.2397 454.4969,-66.7053 445.8666,-68.2793 445.8666,-68.2793"/>
<ellipse fill="none" stroke="#000000" cx="442.7602" cy="-67.511" rx="3.2" ry="3.2"/>
</g>
<!-- feedback_asset&#45;&gt;feedback -->
<g id="edge13" class="edge">
<title>feedback_asset:w&#45;&gt;feedback:e</title>
<path fill="none" stroke="#000000" d="M439.5136,-95.5223C422.8997,-104.4344 419.9371,-128.2 395.1326,-128.2"/>
<polygon fill="#000000" stroke="#000000" points="445.8453,-94.0324 454.4572,-95.7043 449.7389,-93.1162 453.6326,-92.2 453.6326,-92.2 453.6326,-92.2 449.7389,-93.1162 452.808,-88.6957 445.8453,-94.0324 445.8453,-94.0324"/>
<ellipse fill="none" stroke="#000000" cx="442.7303" cy="-94.7654" rx="3.2" ry="3.2"/>
</g>
<!-- oauth_client -->
<g id="node9" class="node">
<title>oauth_client</title>
<g id="a_node9"><a xlink:href="../../tables/oauth_client.html" xlink:title="oauth_client" target="_top">
<polygon fill="#ffffff" stroke="transparent" points="300.1326,-338.7 300.1326,-399.7 402.1326,-399.7 402.1326,-338.7 300.1326,-338.7"/>
<polygon fill="#f5f5f5" stroke="transparent" points="300.1326,-376.2 300.1326,-399.2 402.1326,-399.2 402.1326,-376.2 300.1326,-376.2"/>
<polygon fill="none" stroke="#000000" points="300.1326,-376.2 300.1326,-399.2 402.1326,-399.2 402.1326,-376.2 300.1326,-376.2"/>
<text text-anchor="start" x="304.9826" y="-385.3" font-family="Helvetica,sans-Serif" font-weight="bold" font-size="11.00" fill="#000000">oauth_client</text>
<text text-anchor="start" x="367.6544" y="-384.3" font-family="Helvetica,sans-Serif" font-size="11.00" fill="#000000">[table]</text>
<polygon fill="none" stroke="#000000" points="300.1326,-357.2 300.1326,-376.2 402.1326,-376.2 402.1326,-357.2 300.1326,-357.2"/>
<text text-anchor="start" x="303.1326" y="-363.3" font-family="Helvetica,sans-Serif" font-size="11.00" fill="#000000">...</text>
<polygon fill="#ffffff" stroke="transparent" points="300.1326,-338.2 300.1326,-357.2 345.1326,-357.2 345.1326,-338.2 300.1326,-338.2"/>
<polygon fill="none" stroke="#000000" points="300.1326,-338.2 300.1326,-357.2 345.1326,-357.2 345.1326,-338.2 300.1326,-338.2"/>
<text text-anchor="start" x="303.1326" y="-344.3" font-family="Helvetica,sans-Serif" font-size="11.00" fill="#000000">&lt; 2</text>
<polygon fill="#ffffff" stroke="transparent" points="345.1326,-338.2 345.1326,-357.2 369.1326,-357.2 369.1326,-338.2 345.1326,-338.2"/>
<polygon fill="none" stroke="#000000" points="345.1326,-338.2 345.1326,-357.2 369.1326,-357.2 369.1326,-338.2 345.1326,-338.2"/>
<text text-anchor="start" x="360.0188" y="-344.3" font-family="Helvetica,sans-Serif" font-size="11.00" fill="#000000"> &#160;</text>
<polygon fill="#ffffff" stroke="transparent" points="369.1326,-338.2 369.1326,-357.2 402.1326,-357.2 402.1326,-338.2 369.1326,-338.2"/>
<polygon fill="none" stroke="#000000" points="369.1326,-338.2 369.1326,-357.2 402.1326,-357.2 402.1326,-338.2 369.1326,-338.2"/>
<text text-anchor="start" x="383.5379" y="-344.3" font-family="Helvetica,sans-Serif" font-size="11.00" fill="#000000">3 &gt;</text>
</a>
</g>
</g>
<!-- oauth_client&#45;&gt;user -->
<g id="edge15" class="edge">
<title>oauth_client:w&#45;&gt;user:e</title>
<path fill="none" stroke="#000000" d="M286.8263,-359.7665C254.4236,-323.2034 277.7377,-143.2 231.1326,-143.2"/>
<polygon fill="#000000" stroke="#000000" points="292.9302,-362.7177 298.5656,-369.4411 296.5314,-364.4588 300.1326,-366.2 300.1326,-366.2 300.1326,-366.2 296.5314,-364.4588 301.6996,-362.9589 292.9302,-362.7177 292.9302,-362.7177"/>
<ellipse fill="none" stroke="#000000" cx="290.0493" cy="-361.3248" rx="3.2" ry="3.2"/>
</g>
<!-- oauth_client&#45;&gt;asset -->
<g id="edge14" class="edge">
<title>oauth_client:w&#45;&gt;asset:e</title>
<path fill="none" stroke="#000000" d="M285.6736,-368.7354C277.4681,-371.9215 271.9729,-377.2131 259.1326,-379.2 206.4265,-387.3558 184.2322,-407.6687 139.1326,-379.2 103.7461,-356.8626 140.4795,-294.2 98.6326,-294.2"/>
<polygon fill="#000000" stroke="#000000" points="292.2528,-367.5818 300.7544,-369.7459 296.1927,-366.8909 300.1326,-366.2 300.1326,-366.2 300.1326,-366.2 296.1927,-366.8909 299.5108,-362.6541 292.2528,-367.5818 292.2528,-367.5818"/>
<ellipse fill="none" stroke="#000000" cx="289.1009" cy="-368.1345" rx="3.2" ry="3.2"/>
</g>
<!-- release -->
<g id="node10" class="node">
<title>release</title>
<g id="a_node10"><a xlink:href="../../tables/release.html" xlink:title="release" target="_top">
<polygon fill="#ffffff" stroke="transparent" points="159.6326,-225.7 159.6326,-286.7 238.6326,-286.7 238.6326,-225.7 159.6326,-225.7"/>
<polygon fill="#f5f5f5" stroke="transparent" points="160.1326,-263.2 160.1326,-286.2 239.1326,-286.2 239.1326,-263.2 160.1326,-263.2"/>
<polygon fill="none" stroke="#000000" points="160.1326,-263.2 160.1326,-286.2 239.1326,-286.2 239.1326,-263.2 160.1326,-263.2"/>
<text text-anchor="start" x="165.1014" y="-272.3" font-family="Helvetica,sans-Serif" font-weight="bold" font-size="11.00" fill="#000000">release</text>
<text text-anchor="start" x="204.6544" y="-271.3" font-family="Helvetica,sans-Serif" font-size="11.00" fill="#000000">[table]</text>
<polygon fill="none" stroke="#000000" points="160.1326,-244.2 160.1326,-263.2 239.1326,-263.2 239.1326,-244.2 160.1326,-244.2"/>
<text text-anchor="start" x="163.1326" y="-250.3" font-family="Helvetica,sans-Serif" font-size="11.00" fill="#000000">...</text>
<polygon fill="#ffffff" stroke="transparent" points="160.1326,-225.2 160.1326,-244.2 198.1326,-244.2 198.1326,-225.2 160.1326,-225.2"/>
<polygon fill="none" stroke="#000000" points="160.1326,-225.2 160.1326,-244.2 198.1326,-244.2 198.1326,-225.2 160.1326,-225.2"/>
<text text-anchor="start" x="163.1326" y="-231.3" font-family="Helvetica,sans-Serif" font-size="11.00" fill="#000000">&lt; 1</text>
<polygon fill="#ffffff" stroke="transparent" points="198.1326,-225.2 198.1326,-244.2 218.1326,-244.2 218.1326,-225.2 198.1326,-225.2"/>
<polygon fill="none" stroke="#000000" points="198.1326,-225.2 198.1326,-244.2 218.1326,-244.2 218.1326,-225.2 198.1326,-225.2"/>
<text text-anchor="start" x="209.0188" y="-231.3" font-family="Helvetica,sans-Serif" font-size="11.00" fill="#000000"> &#160;</text>
<polygon fill="#ffffff" stroke="transparent" points="218.1326,-225.2 218.1326,-244.2 239.1326,-244.2 239.1326,-225.2 218.1326,-225.2"/>
<polygon fill="none" stroke="#000000" points="218.1326,-225.2 218.1326,-244.2 239.1326,-244.2 239.1326,-225.2 218.1326,-225.2"/>
<text text-anchor="start" x="230.0188" y="-231.3" font-family="Helvetica,sans-Serif" font-size="11.00" fill="#000000"> &#160;</text>
</a>
</g>
</g>
<!-- release&#45;&gt;asset -->
<g id="edge16" class="edge">
<title>release:w&#45;&gt;asset:e</title>
<path fill="none" stroke="#000000" d="M145.8411,-256.5552C127.6141,-266.3472 125.7087,-294.2 98.6326,-294.2"/>
<polygon fill="#000000" stroke="#000000" points="152.3443,-255.0285 160.9554,-256.7047 156.2385,-254.1142 160.1326,-253.2 160.1326,-253.2 160.1326,-253.2 156.2385,-254.1142 159.3098,-249.6953 152.3443,-255.0285 152.3443,-255.0285"/>
<ellipse fill="none" stroke="#000000" cx="149.229" cy="-255.7599" rx="3.2" ry="3.2"/>
</g>
<!-- report_asset -->
<g id="node11" class="node">
<title>report_asset</title>
<g id="a_node11"><a xlink:href="../../tables/report_asset.html" xlink:title="report_asset" target="_top">
<polygon fill="#ffffff" stroke="transparent" points="147.1326,-417.7 147.1326,-478.7 251.1326,-478.7 251.1326,-417.7 147.1326,-417.7"/>
<polygon fill="#f5f5f5" stroke="transparent" points="147.1326,-455.2 147.1326,-478.2 251.1326,-478.2 251.1326,-455.2 147.1326,-455.2"/>
<polygon fill="none" stroke="#000000" points="147.1326,-455.2 147.1326,-478.2 251.1326,-478.2 251.1326,-455.2 147.1326,-455.2"/>
<text text-anchor="start" x="152.0691" y="-464.3" font-family="Helvetica,sans-Serif" font-weight="bold" font-size="11.00" fill="#000000">report_asset</text>
<text text-anchor="start" x="216.6544" y="-463.3" font-family="Helvetica,sans-Serif" font-size="11.00" fill="#000000">[table]</text>
<polygon fill="none" stroke="#000000" points="147.1326,-436.2 147.1326,-455.2 251.1326,-455.2 251.1326,-436.2 147.1326,-436.2"/>
<text text-anchor="start" x="150.1326" y="-442.3" font-family="Helvetica,sans-Serif" font-size="11.00" fill="#000000">...</text>
<polygon fill="#ffffff" stroke="transparent" points="147.1326,-417.2 147.1326,-436.2 197.1326,-436.2 197.1326,-417.2 147.1326,-417.2"/>
<polygon fill="none" stroke="#000000" points="147.1326,-417.2 147.1326,-436.2 197.1326,-436.2 197.1326,-417.2 147.1326,-417.2"/>
<text text-anchor="start" x="150.1326" y="-423.3" font-family="Helvetica,sans-Serif" font-size="11.00" fill="#000000">&lt; 2</text>
<polygon fill="#ffffff" stroke="transparent" points="197.1326,-417.2 197.1326,-436.2 224.1326,-436.2 224.1326,-417.2 197.1326,-417.2"/>
<polygon fill="none" stroke="#000000" points="197.1326,-417.2 197.1326,-436.2 224.1326,-436.2 224.1326,-417.2 197.1326,-417.2"/>
<text text-anchor="start" x="215.0188" y="-423.3" font-family="Helvetica,sans-Serif" font-size="11.00" fill="#000000"> &#160;</text>
<polygon fill="#ffffff" stroke="transparent" points="224.1326,-417.2 224.1326,-436.2 251.1326,-436.2 251.1326,-417.2 224.1326,-417.2"/>
<polygon fill="none" stroke="#000000" points="224.1326,-417.2 224.1326,-436.2 251.1326,-436.2 251.1326,-417.2 224.1326,-417.2"/>
<text text-anchor="start" x="242.0188" y="-423.3" font-family="Helvetica,sans-Serif" font-size="11.00" fill="#000000"> &#160;</text>
</a>
</g>
</g>
<!-- report_asset&#45;&gt;asset -->
<g id="edge17" class="edge">
<title>report_asset:w&#45;&gt;asset:e</title>
<path fill="none" stroke="#000000" d="M132.8959,-442.3184C90.7199,-421.4427 163.3383,-294.2 98.6326,-294.2"/>
<polygon fill="#000000" stroke="#000000" points="139.2916,-443.6129 146.4184,-448.7284 143.2121,-444.4064 147.1326,-445.2 147.1326,-445.2 147.1326,-445.2 143.2121,-444.4064 147.8468,-441.6716 139.2916,-443.6129 139.2916,-443.6129"/>
<ellipse fill="none" stroke="#000000" cx="136.1552" cy="-442.9781" rx="3.2" ry="3.2"/>
</g>
</g>
</svg>
