<?xml version="1.0" encoding="UTF-8" standalone="no"?>
<!DOCTYPE svg PUBLIC "-//W3C//DTD SVG 1.1//EN"
 "http://www.w3.org/Graphics/SVG/1.1/DTD/svg11.dtd">
<!-- Generated by graphviz version 2.40.1 (20161225.0304)
 -->
<!-- Title: oneDegreeRelationshipsDiagram Pages: 1 -->
<svg width="339pt" height="303pt"
 viewBox="0.00 0.00 339.00 303.20" xmlns="http://www.w3.org/2000/svg" xmlns:xlink="http://www.w3.org/1999/xlink">
<g id="graph0" class="graph" transform="scale(1 1) rotate(0) translate(4 299.2)">
<title>oneDegreeRelationshipsDiagram</title>
<polygon fill="#ffffff" stroke="transparent" points="-4,4 -4,-299.2 335,-299.2 335,4 -4,4"/>
<text text-anchor="middle" x="72.4936" y="-7.3" font-family="Helvetica,sans-Serif" font-size="11.00" fill="#000000">Generated by SchemaSpy</text>
<!-- feedback_asset -->
<g id="node1" class="node">
<title>feedback_asset</title>
<g id="a_node1"><a xlink:href="../../tables/feedback_asset.html" xlink:title="feedback_asset" target="_top">
<polygon fill="#ffffff" stroke="transparent" points="144,-150.7 144,-262.7 323,-262.7 323,-150.7 144,-150.7"/>
<polygon fill="#f5f5f5" stroke="transparent" points="146.5,-237.7 146.5,-260.7 321.5,-260.7 321.5,-237.7 146.5,-237.7"/>
<polygon fill="none" stroke="#000000" points="146.5,-237.7 146.5,-260.7 321.5,-260.7 321.5,-237.7 146.5,-237.7"/>
<text text-anchor="start" x="151.5" y="-246.8" font-family="Helvetica,sans-Serif" font-weight="bold" font-size="11.00" fill="#000000">feedback_asset</text>
<text text-anchor="start" x="286.5437" y="-245.8" font-family="Helvetica,sans-Serif" font-size="11.00" fill="#000000">[table]</text>
<polygon fill="none" stroke="#000000" points="146.5,-215.7 146.5,-237.7 256.5,-237.7 256.5,-215.7 146.5,-215.7"/>
<image xlink:href="../../images/primaryKeys.png" width="11px" height="12px" preserveAspectRatio="xMinYMin meet" x="151.5" y="-232.7"/>
<text text-anchor="start" x="166.5" y="-222.8" font-family="Helvetica,sans-Serif" font-size="11.00" fill="#000000">id</text>
<polygon fill="none" stroke="#000000" points="256.5,-215.7 256.5,-237.7 321.5,-237.7 321.5,-215.7 256.5,-215.7"/>
<text text-anchor="start" x="259.3561" y="-223.4" font-family="Helvetica,sans-Serif" font-size="11.00" fill="#000000">bigserial[19]</text>
<polygon fill="#ffffff" stroke="transparent" points="146.5,-193.7 146.5,-215.7 256.5,-215.7 256.5,-193.7 146.5,-193.7"/>
<polygon fill="none" stroke="#000000" points="146.5,-193.7 146.5,-215.7 256.5,-215.7 256.5,-193.7 146.5,-193.7"/>
<image xlink:href="../../images/foreignKeys.png" width="11px" height="12px" preserveAspectRatio="xMinYMin meet" x="151.5" y="-210.7"/>
<text text-anchor="start" x="166.5" y="-200.8" font-family="Helvetica,sans-Serif" font-size="11.00" fill="#000000">feedback_id</text>
<polygon fill="none" stroke="#000000" points="256.5,-193.7 256.5,-215.7 321.5,-215.7 321.5,-193.7 256.5,-193.7"/>
<text text-anchor="start" x="259.5" y="-201.4" font-family="Helvetica,sans-Serif" font-size="11.00" fill="#000000">int8[19]</text>
<polygon fill="#ffffff" stroke="transparent" points="146.5,-171.7 146.5,-193.7 256.5,-193.7 256.5,-171.7 146.5,-171.7"/>
<polygon fill="none" stroke="#000000" points="146.5,-171.7 146.5,-193.7 256.5,-193.7 256.5,-171.7 146.5,-171.7"/>
<image xlink:href="../../images/foreignKeys.png" width="11px" height="12px" preserveAspectRatio="xMinYMin meet" x="151.5" y="-188.7"/>
<text text-anchor="start" x="166.5" y="-178.8" font-family="Helvetica,sans-Serif" font-size="11.00" fill="#000000">asset_id</text>
<polygon fill="none" stroke="#000000" points="256.5,-171.7 256.5,-193.7 321.5,-193.7 321.5,-171.7 256.5,-171.7"/>
<text text-anchor="start" x="259.5" y="-179.4" font-family="Helvetica,sans-Serif" font-size="11.00" fill="#000000">int8[19]</text>
<polygon fill="#ffffff" stroke="transparent" points="146.5,-152.7 146.5,-171.7 205.5,-171.7 205.5,-152.7 146.5,-152.7"/>
<polygon fill="none" stroke="#000000" points="146.5,-152.7 146.5,-171.7 205.5,-171.7 205.5,-152.7 146.5,-152.7"/>
<text text-anchor="start" x="149.5" y="-158.8" font-family="Helvetica,sans-Serif" font-size="11.00" fill="#000000">&lt; 2</text>
<polygon fill="#ffffff" stroke="transparent" points="205.5,-152.7 205.5,-171.7 256.5,-171.7 256.5,-152.7 205.5,-152.7"/>
<polygon fill="none" stroke="#000000" points="205.5,-152.7 205.5,-171.7 256.5,-171.7 256.5,-152.7 205.5,-152.7"/>
<text text-anchor="start" x="247.3862" y="-158.8" font-family="Helvetica,sans-Serif" font-size="11.00" fill="#000000"> &#160;</text>
<polygon fill="#ffffff" stroke="transparent" points="256.5,-152.7 256.5,-171.7 321.5,-171.7 321.5,-152.7 256.5,-152.7"/>
<polygon fill="none" stroke="#000000" points="256.5,-152.7 256.5,-171.7 321.5,-171.7 321.5,-152.7 256.5,-152.7"/>
<text text-anchor="start" x="302.9053" y="-158.8" font-family="Helvetica,sans-Serif" font-size="11.00" fill="#000000">0 &gt;</text>
<polygon fill="none" stroke="#000000" stroke-width="2" points="145,-151.7 145,-261.7 322,-261.7 322,-151.7 145,-151.7"/>
</a>
</g>
</g>
<!-- asset -->
<g id="node2" class="node">
<title>asset</title>
<g id="a_node2"><a xlink:href="../../tables/asset.html" xlink:title="asset" target="_top">
<polygon fill="#ffffff" stroke="transparent" points="9,-38.2 9,-165.2 94,-165.2 94,-38.2 9,-38.2"/>
<polygon fill="#f5f5f5" stroke="transparent" points="9.5,-141.7 9.5,-164.7 94.5,-164.7 94.5,-141.7 9.5,-141.7"/>
<polygon fill="none" stroke="#000000" points="9.5,-141.7 9.5,-164.7 94.5,-164.7 94.5,-141.7 9.5,-141.7"/>
<text text-anchor="start" x="14.5" y="-150.8" font-family="Helvetica,sans-Serif" font-weight="bold" font-size="11.00" fill="#000000">asset</text>
<text text-anchor="start" x="59.5437" y="-149.8" font-family="Helvetica,sans-Serif" font-size="11.00" fill="#000000">[table]</text>
<polygon fill="none" stroke="#000000" points="9.5,-119.7 9.5,-141.7 94.5,-141.7 94.5,-119.7 9.5,-119.7"/>
<image xlink:href="../../images/primaryKeys.png" width="11px" height="12px" preserveAspectRatio="xMinYMin meet" x="14.5" y="-136.7"/>
<text text-anchor="start" x="29.5" y="-126.8" font-family="Helvetica,sans-Serif" font-size="11.00" fill="#000000">id</text>
<polygon fill="#ffffff" stroke="transparent" points="9.5,-97.7 9.5,-119.7 94.5,-119.7 94.5,-97.7 9.5,-97.7"/>
<polygon fill="none" stroke="#000000" points="9.5,-97.7 9.5,-119.7 94.5,-119.7 94.5,-97.7 9.5,-97.7"/>
<text text-anchor="start" x="29.5" y="-104.8" font-family="Helvetica,sans-Serif" font-size="11.00" fill="#000000">uuid</text>
<polygon fill="none" stroke="#000000" points="9.5,-75.7 9.5,-97.7 94.5,-97.7 94.5,-75.7 9.5,-75.7"/>
<image xlink:href="../../images/foreignKeys.png" width="11px" height="12px" preserveAspectRatio="xMinYMin meet" x="14.5" y="-92.7"/>
<text text-anchor="start" x="29.5" y="-82.8" font-family="Helvetica,sans-Serif" font-size="11.00" fill="#000000">author_id</text>
<polygon fill="none" stroke="#000000" points="9.5,-56.7 9.5,-75.7 94.5,-75.7 94.5,-56.7 9.5,-56.7"/>
<text text-anchor="start" x="12.5" y="-62.8" font-family="Helvetica,sans-Serif" font-size="11.00" fill="#000000">...</text>
<polygon fill="#ffffff" stroke="transparent" points="9.5,-37.7 9.5,-56.7 45.5,-56.7 45.5,-37.7 9.5,-37.7"/>
<polygon fill="none" stroke="#000000" points="9.5,-37.7 9.5,-56.7 45.5,-56.7 45.5,-37.7 9.5,-37.7"/>
<text text-anchor="start" x="12.5" y="-43.8" font-family="Helvetica,sans-Serif" font-size="11.00" fill="#000000">&lt; 1</text>
<polygon fill="#ffffff" stroke="transparent" points="45.5,-37.7 45.5,-56.7 65.5,-56.7 65.5,-37.7 45.5,-37.7"/>
<polygon fill="none" stroke="#000000" points="45.5,-37.7 45.5,-56.7 65.5,-56.7 65.5,-37.7 45.5,-37.7"/>
<text text-anchor="start" x="56.3862" y="-43.8" font-family="Helvetica,sans-Serif" font-size="11.00" fill="#000000"> &#160;</text>
<polygon fill="#ffffff" stroke="transparent" points="65.5,-37.7 65.5,-56.7 94.5,-56.7 94.5,-37.7 65.5,-37.7"/>
<polygon fill="none" stroke="#000000" points="65.5,-37.7 65.5,-56.7 94.5,-56.7 94.5,-37.7 65.5,-37.7"/>
<text text-anchor="start" x="75.9053" y="-43.8" font-family="Helvetica,sans-Serif" font-size="11.00" fill="#000000">9 &gt;</text>
</a>
</g>
</g>
<!-- feedback_asset&#45;&gt;asset -->
<g id="edge1" class="edge">
<title>feedback_asset:w&#45;&gt;asset:e</title>
<path fill="none" stroke="#000000" d="M132.3652,-177.9012C117.21,-165.0281 121.0558,-130.7 94.5,-130.7"/>
<polygon fill="#000000" stroke="#000000" points="138.9247,-180.1281 145.3427,-186.1089 142.7123,-181.4141 146.5,-182.7 146.5,-182.7 146.5,-182.7 142.7123,-181.4141 147.6573,-179.2911 138.9247,-180.1281 138.9247,-180.1281"/>
<ellipse fill="none" stroke="#000000" cx="135.8945" cy="-179.0994" rx="3.2" ry="3.2"/>
</g>
<!-- feedback -->
<g id="node3" class="node">
<title>feedback</title>
<g id="a_node3"><a xlink:href="../../tables/feedback.html" xlink:title="feedback" target="_top">
<polygon fill="#ffffff" stroke="transparent" points="8,-186.2 8,-291.2 95,-291.2 95,-186.2 8,-186.2"/>
<polygon fill="#f5f5f5" stroke="transparent" points="8.5,-267.7 8.5,-290.7 95.5,-290.7 95.5,-267.7 8.5,-267.7"/>
<polygon fill="none" stroke="#000000" points="8.5,-267.7 8.5,-290.7 95.5,-290.7 95.5,-267.7 8.5,-267.7"/>
<text text-anchor="start" x="13.1843" y="-276.8" font-family="Helvetica,sans-Serif" font-weight="bold" font-size="11.00" fill="#000000">feedback</text>
<text text-anchor="start" x="61.0219" y="-275.8" font-family="Helvetica,sans-Serif" font-size="11.00" fill="#000000">[table]</text>
<polygon fill="none" stroke="#000000" points="8.5,-245.7 8.5,-267.7 95.5,-267.7 95.5,-245.7 8.5,-245.7"/>
<image xlink:href="../../images/primaryKeys.png" width="11px" height="12px" preserveAspectRatio="xMinYMin meet" x="13.5" y="-262.7"/>
<text text-anchor="start" x="29.5" y="-252.8" font-family="Helvetica,sans-Serif" font-size="11.00" fill="#000000">id</text>
<polygon fill="none" stroke="#000000" points="8.5,-223.7 8.5,-245.7 95.5,-245.7 95.5,-223.7 8.5,-223.7"/>
<image xlink:href="../../images/foreignKeys.png" width="11px" height="12px" preserveAspectRatio="xMinYMin meet" x="13.5" y="-240.7"/>
<text text-anchor="start" x="29.5" y="-230.8" font-family="Helvetica,sans-Serif" font-size="11.00" fill="#000000">user_id</text>
<polygon fill="none" stroke="#000000" points="8.5,-204.7 8.5,-223.7 95.5,-223.7 95.5,-204.7 8.5,-204.7"/>
<text text-anchor="start" x="11.5" y="-210.8" font-family="Helvetica,sans-Serif" font-size="11.00" fill="#000000">...</text>
<polygon fill="#ffffff" stroke="transparent" points="8.5,-185.7 8.5,-204.7 45.5,-204.7 45.5,-185.7 8.5,-185.7"/>
<polygon fill="none" stroke="#000000" points="8.5,-185.7 8.5,-204.7 45.5,-204.7 45.5,-185.7 8.5,-185.7"/>
<text text-anchor="start" x="11.5" y="-191.8" font-family="Helvetica,sans-Serif" font-size="11.00" fill="#000000">&lt; 1</text>
<polygon fill="#ffffff" stroke="transparent" points="45.5,-185.7 45.5,-204.7 65.5,-204.7 65.5,-185.7 45.5,-185.7"/>
<polygon fill="none" stroke="#000000" points="45.5,-185.7 45.5,-204.7 65.5,-204.7 65.5,-185.7 45.5,-185.7"/>
<text text-anchor="start" x="56.3862" y="-191.8" font-family="Helvetica,sans-Serif" font-size="11.00" fill="#000000"> &#160;</text>
<polygon fill="#ffffff" stroke="transparent" points="65.5,-185.7 65.5,-204.7 95.5,-204.7 95.5,-185.7 65.5,-185.7"/>
<polygon fill="none" stroke="#000000" points="65.5,-185.7 65.5,-204.7 95.5,-204.7 95.5,-185.7 65.5,-185.7"/>
<text text-anchor="start" x="76.9053" y="-191.8" font-family="Helvetica,sans-Serif" font-size="11.00" fill="#000000">1 &gt;</text>
</a>
</g>
</g>
<!-- feedback_asset&#45;&gt;feedback -->
<g id="edge2" class="edge">
<title>feedback_asset:w&#45;&gt;feedback:e</title>
<path fill="none" stroke="#000000" d="M132.5468,-209.4988C117.661,-222.3719 121.8017,-256.7 95.5,-256.7"/>
<polygon fill="#000000" stroke="#000000" points="138.9349,-207.3018 147.6708,-208.1043 142.7175,-206.0009 146.5,-204.7 146.5,-204.7 146.5,-204.7 142.7175,-206.0009 145.3292,-201.2957 138.9349,-207.3018 138.9349,-207.3018"/>
<ellipse fill="none" stroke="#000000" cx="135.9089" cy="-208.3426" rx="3.2" ry="3.2"/>
</g>
</g>
</svg>
