<?xml version="1.0" encoding="UTF-8" standalone="no"?>
<!DOCTYPE svg PUBLIC "-//W3C//DTD SVG 1.1//EN"
 "http://www.w3.org/Graphics/SVG/1.1/DTD/svg11.dtd">
<!-- Generated by graphviz version 2.40.1 (20161225.0304)
 -->
<!-- Title: oneDegreeRelationshipsDiagram Pages: 1 -->
<svg width="419pt" height="311pt"
 viewBox="0.00 0.00 419.00 310.70" xmlns="http://www.w3.org/2000/svg" xmlns:xlink="http://www.w3.org/1999/xlink">
<g id="graph0" class="graph" transform="scale(1 1) rotate(0) translate(4 306.7)">
<title>oneDegreeRelationshipsDiagram</title>
<polygon fill="#ffffff" stroke="transparent" points="-4,4 -4,-306.7 415,-306.7 415,4 -4,4"/>
<text text-anchor="middle" x="72.4936" y="-7.3" font-family="Helvetica,sans-Serif" font-size="11.00" fill="#000000">Generated by SchemaSpy</text>
<!-- log_record -->
<g id="node1" class="node">
<title>log_record</title>
<g id="a_node1"><a xlink:href="../../tables/log_record.html" xlink:title="log_record" target="_top">
<polygon fill="#ffffff" stroke="transparent" points="224,-164.7 224,-298.7 403,-298.7 403,-164.7 224,-164.7"/>
<polygon fill="#f5f5f5" stroke="transparent" points="226.5,-273.7 226.5,-296.7 401.5,-296.7 401.5,-273.7 226.5,-273.7"/>
<polygon fill="none" stroke="#000000" points="226.5,-273.7 226.5,-296.7 401.5,-296.7 401.5,-273.7 226.5,-273.7"/>
<text text-anchor="start" x="231.5" y="-282.8" font-family="Helvetica,sans-Serif" font-weight="bold" font-size="11.00" fill="#000000">log_record</text>
<text text-anchor="start" x="366.5437" y="-281.8" font-family="Helvetica,sans-Serif" font-size="11.00" fill="#000000">[table]</text>
<polygon fill="none" stroke="#000000" points="226.5,-251.7 226.5,-273.7 309.5,-273.7 309.5,-251.7 226.5,-251.7"/>
<image xlink:href="../../images/primaryKeys.png" width="11px" height="12px" preserveAspectRatio="xMinYMin meet" x="231.5" y="-268.7"/>
<text text-anchor="start" x="246.5" y="-258.8" font-family="Helvetica,sans-Serif" font-size="11.00" fill="#000000">id</text>
<polygon fill="none" stroke="#000000" points="309.5,-251.7 309.5,-273.7 401.5,-273.7 401.5,-251.7 309.5,-251.7"/>
<text text-anchor="start" x="312.5" y="-259.4" font-family="Helvetica,sans-Serif" font-size="11.00" fill="#000000">bigserial[19]</text>
<polygon fill="#ffffff" stroke="transparent" points="226.5,-229.7 226.5,-251.7 309.5,-251.7 309.5,-229.7 226.5,-229.7"/>
<polygon fill="none" stroke="#000000" points="226.5,-229.7 226.5,-251.7 309.5,-251.7 309.5,-229.7 226.5,-229.7"/>
<text text-anchor="start" x="246.5" y="-236.8" font-family="Helvetica,sans-Serif" font-size="11.00" fill="#000000">type</text>
<polygon fill="none" stroke="#000000" points="309.5,-229.7 309.5,-251.7 401.5,-251.7 401.5,-229.7 309.5,-229.7"/>
<text text-anchor="start" x="312.5" y="-237.4" font-family="Helvetica,sans-Serif" font-size="11.00" fill="#000000">varchar[255]</text>
<polygon fill="#ffffff" stroke="transparent" points="226.5,-207.7 226.5,-229.7 309.5,-229.7 309.5,-207.7 226.5,-207.7"/>
<polygon fill="none" stroke="#000000" points="226.5,-207.7 226.5,-229.7 309.5,-229.7 309.5,-207.7 226.5,-207.7"/>
<image xlink:href="../../images/foreignKeys.png" width="11px" height="12px" preserveAspectRatio="xMinYMin meet" x="231.5" y="-224.7"/>
<text text-anchor="start" x="246.5" y="-214.8" font-family="Helvetica,sans-Serif" font-size="11.00" fill="#000000">user_id</text>
<polygon fill="none" stroke="#000000" points="309.5,-207.7 309.5,-229.7 401.5,-229.7 401.5,-207.7 309.5,-207.7"/>
<text text-anchor="start" x="312.5" y="-215.4" font-family="Helvetica,sans-Serif" font-size="11.00" fill="#000000">int8[19]</text>
<polygon fill="none" stroke="#000000" points="226.5,-185.7 226.5,-207.7 309.5,-207.7 309.5,-185.7 226.5,-185.7"/>
<text text-anchor="start" x="246.5" y="-192.8" font-family="Helvetica,sans-Serif" font-size="11.00" fill="#000000">read_at</text>
<polygon fill="none" stroke="#000000" points="309.5,-185.7 309.5,-207.7 401.5,-207.7 401.5,-185.7 309.5,-185.7"/>
<text text-anchor="start" x="312.1023" y="-193.4" font-family="Helvetica,sans-Serif" font-size="11.00" fill="#000000">timestamptz[35,6]</text>
<polygon fill="#ffffff" stroke="transparent" points="226.5,-166.7 226.5,-185.7 272.5,-185.7 272.5,-166.7 226.5,-166.7"/>
<polygon fill="none" stroke="#000000" points="226.5,-166.7 226.5,-185.7 272.5,-185.7 272.5,-166.7 226.5,-166.7"/>
<text text-anchor="start" x="229.5" y="-172.8" font-family="Helvetica,sans-Serif" font-size="11.00" fill="#000000">&lt; 1</text>
<polygon fill="#ffffff" stroke="transparent" points="272.5,-166.7 272.5,-185.7 309.5,-185.7 309.5,-166.7 272.5,-166.7"/>
<polygon fill="none" stroke="#000000" points="272.5,-166.7 272.5,-185.7 309.5,-185.7 309.5,-166.7 272.5,-166.7"/>
<text text-anchor="start" x="300.3862" y="-172.8" font-family="Helvetica,sans-Serif" font-size="11.00" fill="#000000"> &#160;</text>
<polygon fill="#ffffff" stroke="transparent" points="309.5,-166.7 309.5,-185.7 401.5,-185.7 401.5,-166.7 309.5,-166.7"/>
<polygon fill="none" stroke="#000000" points="309.5,-166.7 309.5,-185.7 401.5,-185.7 401.5,-166.7 309.5,-166.7"/>
<text text-anchor="start" x="382.9053" y="-172.8" font-family="Helvetica,sans-Serif" font-size="11.00" fill="#000000">0 &gt;</text>
<polygon fill="none" stroke="#000000" stroke-width="2" points="225,-165.7 225,-297.7 402,-297.7 402,-165.7 225,-165.7"/>
</a>
</g>
</g>
<!-- user -->
<g id="node2" class="node">
<title>user</title>
<g id="a_node2"><a xlink:href="../../tables/user.html" xlink:title="user" target="_top">
<polygon fill="#ffffff" stroke="transparent" points="8,-38.2 8,-253.2 175,-253.2 175,-38.2 8,-38.2"/>
<polygon fill="#f5f5f5" stroke="transparent" points="8.5,-229.7 8.5,-252.7 175.5,-252.7 175.5,-229.7 8.5,-229.7"/>
<polygon fill="none" stroke="#000000" points="8.5,-229.7 8.5,-252.7 175.5,-252.7 175.5,-229.7 8.5,-229.7"/>
<text text-anchor="start" x="13.5" y="-238.8" font-family="Helvetica,sans-Serif" font-weight="bold" font-size="11.00" fill="#000000">user</text>
<text text-anchor="start" x="140.5437" y="-237.8" font-family="Helvetica,sans-Serif" font-size="11.00" fill="#000000">[table]</text>
<polygon fill="none" stroke="#000000" points="8.5,-207.7 8.5,-229.7 175.5,-229.7 175.5,-207.7 8.5,-207.7"/>
<image xlink:href="../../images/primaryKeys.png" width="11px" height="12px" preserveAspectRatio="xMinYMin meet" x="13.5" y="-224.7"/>
<text text-anchor="start" x="28.5" y="-214.8" font-family="Helvetica,sans-Serif" font-size="11.00" fill="#000000">id</text>
<polygon fill="#ffffff" stroke="transparent" points="8.5,-185.7 8.5,-207.7 175.5,-207.7 175.5,-185.7 8.5,-185.7"/>
<polygon fill="none" stroke="#000000" points="8.5,-185.7 8.5,-207.7 175.5,-207.7 175.5,-185.7 8.5,-185.7"/>
<text text-anchor="start" x="28.5" y="-192.8" font-family="Helvetica,sans-Serif" font-size="11.00" fill="#000000">uuid</text>
<polygon fill="#ffffff" stroke="transparent" points="8.5,-163.7 8.5,-185.7 175.5,-185.7 175.5,-163.7 8.5,-163.7"/>
<polygon fill="none" stroke="#000000" points="8.5,-163.7 8.5,-185.7 175.5,-185.7 175.5,-163.7 8.5,-163.7"/>
<text text-anchor="start" x="28.5" y="-170.8" font-family="Helvetica,sans-Serif" font-size="11.00" fill="#000000">user_name</text>
<polygon fill="none" stroke="#000000" points="8.5,-141.7 8.5,-163.7 175.5,-163.7 175.5,-141.7 8.5,-141.7"/>
<image xlink:href="../../images/foreignKeys.png" width="11px" height="12px" preserveAspectRatio="xMinYMin meet" x="13.5" y="-158.7"/>
<text text-anchor="start" x="28.5" y="-148.8" font-family="Helvetica,sans-Serif" font-size="11.00" fill="#000000">avatar</text>
<polygon fill="#ffffff" stroke="transparent" points="8.5,-119.7 8.5,-141.7 175.5,-141.7 175.5,-119.7 8.5,-119.7"/>
<polygon fill="none" stroke="#000000" points="8.5,-119.7 8.5,-141.7 175.5,-141.7 175.5,-119.7 8.5,-119.7"/>
<text text-anchor="start" x="28.5" y="-126.8" font-family="Helvetica,sans-Serif" font-size="11.00" fill="#000000">email</text>
<polygon fill="#ffffff" stroke="transparent" points="8.5,-97.7 8.5,-119.7 175.5,-119.7 175.5,-97.7 8.5,-97.7"/>
<polygon fill="none" stroke="#000000" points="8.5,-97.7 8.5,-119.7 175.5,-119.7 175.5,-97.7 8.5,-97.7"/>
<text text-anchor="start" x="28.5" y="-104.8" font-family="Helvetica,sans-Serif" font-size="11.00" fill="#000000">state</text>
<polygon fill="#ffffff" stroke="transparent" points="8.5,-75.7 8.5,-97.7 175.5,-97.7 175.5,-75.7 8.5,-75.7"/>
<polygon fill="none" stroke="#000000" points="8.5,-75.7 8.5,-97.7 175.5,-97.7 175.5,-75.7 8.5,-75.7"/>
<text text-anchor="start" x="28.5" y="-82.8" font-family="Helvetica,sans-Serif" font-size="11.00" fill="#000000">liker_id</text>
<polygon fill="none" stroke="#000000" points="8.5,-56.7 8.5,-75.7 175.5,-75.7 175.5,-56.7 8.5,-56.7"/>
<text text-anchor="start" x="11.5" y="-62.8" font-family="Helvetica,sans-Serif" font-size="11.00" fill="#000000">...</text>
<polygon fill="#ffffff" stroke="transparent" points="8.5,-37.7 8.5,-56.7 82.5,-56.7 82.5,-37.7 8.5,-37.7"/>
<polygon fill="none" stroke="#000000" points="8.5,-37.7 8.5,-56.7 82.5,-56.7 82.5,-37.7 8.5,-37.7"/>
<text text-anchor="start" x="11.5" y="-43.8" font-family="Helvetica,sans-Serif" font-size="11.00" fill="#000000">&lt; 1</text>
<polygon fill="#ffffff" stroke="transparent" points="82.5,-37.7 82.5,-56.7 121.5,-56.7 121.5,-37.7 82.5,-37.7"/>
<polygon fill="none" stroke="#000000" points="82.5,-37.7 82.5,-56.7 121.5,-56.7 121.5,-37.7 82.5,-37.7"/>
<text text-anchor="start" x="112.3862" y="-43.8" font-family="Helvetica,sans-Serif" font-size="11.00" fill="#000000"> &#160;</text>
<polygon fill="#ffffff" stroke="transparent" points="121.5,-37.7 121.5,-56.7 175.5,-56.7 175.5,-37.7 121.5,-37.7"/>
<polygon fill="none" stroke="#000000" points="121.5,-37.7 121.5,-56.7 175.5,-56.7 175.5,-37.7 121.5,-37.7"/>
<text text-anchor="start" x="150.7904" y="-43.8" font-family="Helvetica,sans-Serif" font-size="11.00" fill="#000000">42 &gt;</text>
</a>
</g>
</g>
<!-- log_record&#45;&gt;user -->
<g id="edge1" class="edge">
<title>log_record:w&#45;&gt;user:e</title>
<path fill="none" stroke="#000000" d="M211.776,-218.7C199.7815,-218.7 192.3229,-218.7 175.5,-218.7"/>
<polygon fill="#000000" stroke="#000000" points="218.5,-218.7001 226.5,-222.3 222.5,-218.7 226.5,-218.7 226.5,-218.7 226.5,-218.7 222.5,-218.7 226.5,-215.1 218.5,-218.7001 218.5,-218.7001"/>
<ellipse fill="none" stroke="#000000" cx="215.3" cy="-218.7001" rx="3.2" ry="3.2"/>
</g>
</g>
</svg>
