<?xml version="1.0" encoding="UTF-8" standalone="no"?>
<!DOCTYPE svg PUBLIC "-//W3C//DTD SVG 1.1//EN"
 "http://www.w3.org/Graphics/SVG/1.1/DTD/svg11.dtd">
<!-- Generated by graphviz version 2.40.1 (20161225.0304)
 -->
<!-- Title: twoDegreesRelationshipsDiagram Pages: 1 -->
<svg width="534pt" height="317pt"
 viewBox="0.00 0.00 534.00 317.20" xmlns="http://www.w3.org/2000/svg" xmlns:xlink="http://www.w3.org/1999/xlink">
<g id="graph0" class="graph" transform="scale(1 1) rotate(0) translate(4 313.2)">
<title>twoDegreesRelationshipsDiagram</title>
<polygon fill="#ffffff" stroke="transparent" points="-4,4 -4,-313.2 530,-313.2 530,4 -4,4"/>
<text text-anchor="middle" x="72.4936" y="-7.3" font-family="Helvetica,sans-Serif" font-size="11.00" fill="#000000">Generated by SchemaSpy</text>
<!-- notice -->
<g id="node1" class="node">
<title>notice</title>
<g id="a_node1"><a xlink:href="../../tables/notice.html" xlink:title="notice" target="_top">
<polygon fill="#ffffff" stroke="transparent" points="254,-90.2 254,-305.2 365,-305.2 365,-90.2 254,-90.2"/>
<polygon fill="#f5f5f5" stroke="transparent" points="254.5,-281.7 254.5,-304.7 365.5,-304.7 365.5,-281.7 254.5,-281.7"/>
<polygon fill="none" stroke="#000000" points="254.5,-281.7 254.5,-304.7 365.5,-304.7 365.5,-281.7 254.5,-281.7"/>
<text text-anchor="start" x="259.5" y="-290.8" font-family="Helvetica,sans-Serif" font-weight="bold" font-size="11.00" fill="#000000">notice</text>
<text text-anchor="start" x="330.5437" y="-289.8" font-family="Helvetica,sans-Serif" font-size="11.00" fill="#000000">[table]</text>
<polygon fill="none" stroke="#000000" points="254.5,-259.7 254.5,-281.7 365.5,-281.7 365.5,-259.7 254.5,-259.7"/>
<image xlink:href="../../images/primaryKeys.png" width="11px" height="12px" preserveAspectRatio="xMinYMin meet" x="259.5" y="-276.7"/>
<text text-anchor="start" x="274.5" y="-266.8" font-family="Helvetica,sans-Serif" font-size="11.00" fill="#000000">id</text>
<polygon fill="#ffffff" stroke="transparent" points="254.5,-237.7 254.5,-259.7 365.5,-259.7 365.5,-237.7 254.5,-237.7"/>
<polygon fill="none" stroke="#000000" points="254.5,-237.7 254.5,-259.7 365.5,-259.7 365.5,-237.7 254.5,-237.7"/>
<text text-anchor="start" x="274.5" y="-244.8" font-family="Helvetica,sans-Serif" font-size="11.00" fill="#000000">uuid</text>
<polygon fill="#ffffff" stroke="transparent" points="254.5,-215.7 254.5,-237.7 365.5,-237.7 365.5,-215.7 254.5,-215.7"/>
<polygon fill="none" stroke="#000000" points="254.5,-215.7 254.5,-237.7 365.5,-237.7 365.5,-215.7 254.5,-215.7"/>
<text text-anchor="start" x="274.5" y="-222.8" font-family="Helvetica,sans-Serif" font-size="11.00" fill="#000000">updated_at</text>
<polygon fill="#ffffff" stroke="transparent" points="254.5,-193.7 254.5,-215.7 365.5,-215.7 365.5,-193.7 254.5,-193.7"/>
<polygon fill="none" stroke="#000000" points="254.5,-193.7 254.5,-215.7 365.5,-215.7 365.5,-193.7 254.5,-193.7"/>
<text text-anchor="start" x="274.5" y="-200.8" font-family="Helvetica,sans-Serif" font-size="11.00" fill="#000000">unread</text>
<polygon fill="#ffffff" stroke="transparent" points="254.5,-171.7 254.5,-193.7 365.5,-193.7 365.5,-171.7 254.5,-171.7"/>
<polygon fill="none" stroke="#000000" points="254.5,-171.7 254.5,-193.7 365.5,-193.7 365.5,-171.7 254.5,-171.7"/>
<text text-anchor="start" x="274.5" y="-178.8" font-family="Helvetica,sans-Serif" font-size="11.00" fill="#000000">deleted</text>
<polygon fill="#ffffff" stroke="transparent" points="254.5,-149.7 254.5,-171.7 365.5,-171.7 365.5,-149.7 254.5,-149.7"/>
<polygon fill="none" stroke="#000000" points="254.5,-149.7 254.5,-171.7 365.5,-171.7 365.5,-149.7 254.5,-149.7"/>
<image xlink:href="../../images/foreignKeys.png" width="11px" height="12px" preserveAspectRatio="xMinYMin meet" x="259.5" y="-166.7"/>
<text text-anchor="start" x="274.5" y="-156.8" font-family="Helvetica,sans-Serif" font-size="11.00" fill="#000000">notice_detail_id</text>
<polygon fill="#ffffff" stroke="transparent" points="254.5,-127.7 254.5,-149.7 365.5,-149.7 365.5,-127.7 254.5,-127.7"/>
<polygon fill="none" stroke="#000000" points="254.5,-127.7 254.5,-149.7 365.5,-149.7 365.5,-127.7 254.5,-127.7"/>
<image xlink:href="../../images/foreignKeys.png" width="11px" height="12px" preserveAspectRatio="xMinYMin meet" x="259.5" y="-144.7"/>
<text text-anchor="start" x="274.5" y="-134.8" font-family="Helvetica,sans-Serif" font-size="11.00" fill="#000000">recipient_id</text>
<polygon fill="none" stroke="#000000" points="254.5,-108.7 254.5,-127.7 365.5,-127.7 365.5,-108.7 254.5,-108.7"/>
<text text-anchor="start" x="257.5" y="-114.8" font-family="Helvetica,sans-Serif" font-size="11.00" fill="#000000">...</text>
<polygon fill="#ffffff" stroke="transparent" points="254.5,-89.7 254.5,-108.7 303.5,-108.7 303.5,-89.7 254.5,-89.7"/>
<polygon fill="none" stroke="#000000" points="254.5,-89.7 254.5,-108.7 303.5,-108.7 303.5,-89.7 254.5,-89.7"/>
<text text-anchor="start" x="257.5" y="-95.8" font-family="Helvetica,sans-Serif" font-size="11.00" fill="#000000">&lt; 2</text>
<polygon fill="#ffffff" stroke="transparent" points="303.5,-89.7 303.5,-108.7 329.5,-108.7 329.5,-89.7 303.5,-89.7"/>
<polygon fill="none" stroke="#000000" points="303.5,-89.7 303.5,-108.7 329.5,-108.7 329.5,-89.7 303.5,-89.7"/>
<text text-anchor="start" x="320.3862" y="-95.8" font-family="Helvetica,sans-Serif" font-size="11.00" fill="#000000"> &#160;</text>
<polygon fill="#ffffff" stroke="transparent" points="329.5,-89.7 329.5,-108.7 365.5,-108.7 365.5,-89.7 329.5,-89.7"/>
<polygon fill="none" stroke="#000000" points="329.5,-89.7 329.5,-108.7 365.5,-108.7 365.5,-89.7 329.5,-89.7"/>
<text text-anchor="start" x="346.9053" y="-95.8" font-family="Helvetica,sans-Serif" font-size="11.00" fill="#000000">2 &gt;</text>
</a>
</g>
</g>
<!-- notice_detail -->
<g id="node2" class="node">
<title>notice_detail</title>
<g id="a_node2"><a xlink:href="../../tables/notice_detail.html" xlink:title="notice_detail" target="_top">
<polygon fill="#ffffff" stroke="transparent" points="8,-120.7 8,-276.7 205,-276.7 205,-120.7 8,-120.7"/>
<polygon fill="#f5f5f5" stroke="transparent" points="10.5,-251.7 10.5,-274.7 203.5,-274.7 203.5,-251.7 10.5,-251.7"/>
<polygon fill="none" stroke="#000000" points="10.5,-251.7 10.5,-274.7 203.5,-274.7 203.5,-251.7 10.5,-251.7"/>
<text text-anchor="start" x="15.5" y="-260.8" font-family="Helvetica,sans-Serif" font-weight="bold" font-size="11.00" fill="#000000">notice_detail</text>
<text text-anchor="start" x="168.5437" y="-259.8" font-family="Helvetica,sans-Serif" font-size="11.00" fill="#000000">[table]</text>
<polygon fill="none" stroke="#000000" points="10.5,-229.7 10.5,-251.7 104.5,-251.7 104.5,-229.7 10.5,-229.7"/>
<image xlink:href="../../images/primaryKeys.png" width="11px" height="12px" preserveAspectRatio="xMinYMin meet" x="15.5" y="-246.7"/>
<text text-anchor="start" x="30.5" y="-236.8" font-family="Helvetica,sans-Serif" font-size="11.00" fill="#000000">id</text>
<polygon fill="none" stroke="#000000" points="104.5,-229.7 104.5,-251.7 203.5,-251.7 203.5,-229.7 104.5,-229.7"/>
<text text-anchor="start" x="107.5" y="-237.4" font-family="Helvetica,sans-Serif" font-size="11.00" fill="#000000">bigserial[19]</text>
<polygon fill="none" stroke="#000000" points="10.5,-207.7 10.5,-229.7 104.5,-229.7 104.5,-207.7 10.5,-207.7"/>
<text text-anchor="start" x="30.5" y="-214.8" font-family="Helvetica,sans-Serif" font-size="11.00" fill="#000000">created_at</text>
<polygon fill="none" stroke="#000000" points="104.5,-207.7 104.5,-229.7 203.5,-229.7 203.5,-207.7 104.5,-207.7"/>
<text text-anchor="start" x="107.5" y="-215.4" font-family="Helvetica,sans-Serif" font-size="11.00" fill="#000000">timestamptz[35,6]</text>
<polygon fill="#ffffff" stroke="transparent" points="10.5,-185.7 10.5,-207.7 104.5,-207.7 104.5,-185.7 10.5,-185.7"/>
<polygon fill="none" stroke="#000000" points="10.5,-185.7 10.5,-207.7 104.5,-207.7 104.5,-185.7 10.5,-185.7"/>
<text text-anchor="start" x="30.5" y="-192.8" font-family="Helvetica,sans-Serif" font-size="11.00" fill="#000000">notice_type</text>
<polygon fill="none" stroke="#000000" points="104.5,-185.7 104.5,-207.7 203.5,-207.7 203.5,-185.7 104.5,-185.7"/>
<text text-anchor="start" x="107.5" y="-193.4" font-family="Helvetica,sans-Serif" font-size="11.00" fill="#000000">varchar[255]</text>
<polygon fill="none" stroke="#000000" points="10.5,-163.7 10.5,-185.7 104.5,-185.7 104.5,-163.7 10.5,-163.7"/>
<text text-anchor="start" x="30.5" y="-170.8" font-family="Helvetica,sans-Serif" font-size="11.00" fill="#000000">message</text>
<polygon fill="none" stroke="#000000" points="104.5,-163.7 104.5,-185.7 203.5,-185.7 203.5,-163.7 104.5,-163.7"/>
<text text-anchor="start" x="107.5" y="-171.4" font-family="Helvetica,sans-Serif" font-size="11.00" fill="#000000">text[2147483647]</text>
<polygon fill="none" stroke="#000000" points="10.5,-141.7 10.5,-163.7 104.5,-163.7 104.5,-141.7 10.5,-141.7"/>
<text text-anchor="start" x="30.5" y="-148.8" font-family="Helvetica,sans-Serif" font-size="11.00" fill="#000000">data</text>
<polygon fill="none" stroke="#000000" points="104.5,-141.7 104.5,-163.7 203.5,-163.7 203.5,-141.7 104.5,-141.7"/>
<text text-anchor="start" x="107.2258" y="-149.4" font-family="Helvetica,sans-Serif" font-size="11.00" fill="#000000">jsonb[2147483647]</text>
<polygon fill="#ffffff" stroke="transparent" points="10.5,-122.7 10.5,-141.7 61.5,-141.7 61.5,-122.7 10.5,-122.7"/>
<polygon fill="none" stroke="#000000" points="10.5,-122.7 10.5,-141.7 61.5,-141.7 61.5,-122.7 10.5,-122.7"/>
<text text-anchor="start" x="13.5" y="-128.8" font-family="Helvetica,sans-Serif" font-size="11.00" fill="#000000">&lt; 0</text>
<polygon fill="#ffffff" stroke="transparent" points="61.5,-122.7 61.5,-141.7 104.5,-141.7 104.5,-122.7 61.5,-122.7"/>
<polygon fill="none" stroke="#000000" points="61.5,-122.7 61.5,-141.7 104.5,-141.7 104.5,-122.7 61.5,-122.7"/>
<text text-anchor="start" x="95.3862" y="-128.8" font-family="Helvetica,sans-Serif" font-size="11.00" fill="#000000"> &#160;</text>
<polygon fill="#ffffff" stroke="transparent" points="104.5,-122.7 104.5,-141.7 203.5,-141.7 203.5,-122.7 104.5,-122.7"/>
<polygon fill="none" stroke="#000000" points="104.5,-122.7 104.5,-141.7 203.5,-141.7 203.5,-122.7 104.5,-122.7"/>
<text text-anchor="start" x="184.9053" y="-128.8" font-family="Helvetica,sans-Serif" font-size="11.00" fill="#000000">1 &gt;</text>
<polygon fill="none" stroke="#000000" stroke-width="2" points="9,-121.7 9,-275.7 204,-275.7 204,-121.7 9,-121.7"/>
</a>
</g>
</g>
<!-- notice&#45;&gt;notice_detail -->
<g id="edge1" class="edge">
<title>notice:w&#45;&gt;notice_detail:e</title>
<path fill="none" stroke="#000000" d="M240.4925,-165.2304C220.3919,-182.1539 239.5717,-240.7 203.5,-240.7"/>
<polygon fill="#000000" stroke="#000000" points="246.8882,-163.1619 255.6078,-164.1253 250.6941,-161.9309 254.5,-160.7 254.5,-160.7 254.5,-160.7 250.6941,-161.9309 253.3922,-157.2747 246.8882,-163.1619 246.8882,-163.1619"/>
<ellipse fill="none" stroke="#000000" cx="243.8435" cy="-164.1466" rx="3.2" ry="3.2"/>
</g>
<!-- user -->
<g id="node3" class="node">
<title>user</title>
<g id="a_node3"><a xlink:href="../../tables/user.html" xlink:title="user" target="_top">
<polygon fill="#ffffff" stroke="transparent" points="74.5,-38.2 74.5,-99.2 138.5,-99.2 138.5,-38.2 74.5,-38.2"/>
<polygon fill="#f5f5f5" stroke="transparent" points="74.5,-75.7 74.5,-98.7 138.5,-98.7 138.5,-75.7 74.5,-75.7"/>
<polygon fill="none" stroke="#000000" points="74.5,-75.7 74.5,-98.7 138.5,-98.7 138.5,-75.7 74.5,-75.7"/>
<text text-anchor="start" x="79.3042" y="-84.8" font-family="Helvetica,sans-Serif" font-weight="bold" font-size="11.00" fill="#000000">user</text>
<text text-anchor="start" x="104.0219" y="-83.8" font-family="Helvetica,sans-Serif" font-size="11.00" fill="#000000">[table]</text>
<polygon fill="none" stroke="#000000" points="74.5,-56.7 74.5,-75.7 138.5,-75.7 138.5,-56.7 74.5,-56.7"/>
<text text-anchor="start" x="77.5" y="-62.8" font-family="Helvetica,sans-Serif" font-size="11.00" fill="#000000">...</text>
<polygon fill="#ffffff" stroke="transparent" points="74.5,-37.7 74.5,-56.7 97.5,-56.7 97.5,-37.7 74.5,-37.7"/>
<polygon fill="none" stroke="#000000" points="74.5,-37.7 74.5,-56.7 97.5,-56.7 97.5,-37.7 74.5,-37.7"/>
<text text-anchor="start" x="77.5" y="-43.8" font-family="Helvetica,sans-Serif" font-size="11.00" fill="#000000">&lt; 1</text>
<polygon fill="#ffffff" stroke="transparent" points="97.5,-37.7 97.5,-56.7 110.5,-56.7 110.5,-37.7 97.5,-37.7"/>
<polygon fill="none" stroke="#000000" points="97.5,-37.7 97.5,-56.7 110.5,-56.7 110.5,-37.7 97.5,-37.7"/>
<text text-anchor="start" x="101.3862" y="-43.8" font-family="Helvetica,sans-Serif" font-size="11.00" fill="#000000"> &#160;</text>
<polygon fill="#ffffff" stroke="transparent" points="110.5,-37.7 110.5,-56.7 138.5,-56.7 138.5,-37.7 110.5,-37.7"/>
<polygon fill="none" stroke="#000000" points="110.5,-37.7 110.5,-56.7 138.5,-56.7 138.5,-37.7 110.5,-37.7"/>
<text text-anchor="start" x="113.7904" y="-43.8" font-family="Helvetica,sans-Serif" font-size="11.00" fill="#000000">42 &gt;</text>
</a>
</g>
</g>
<!-- notice&#45;&gt;user -->
<g id="edge2" class="edge">
<title>notice:w&#45;&gt;user:e</title>
<path fill="none" stroke="#000000" d="M240.309,-135.5164C230.6124,-130.2403 226.6236,-119.4027 213,-110.7 180.4009,-89.8758 177.1826,-65.7 138.5,-65.7"/>
<polygon fill="#000000" stroke="#000000" points="246.694,-136.9488 253.7119,-142.2127 250.597,-137.8244 254.5,-138.7 254.5,-138.7 254.5,-138.7 250.597,-137.8244 255.2881,-135.1873 246.694,-136.9488 246.694,-136.9488"/>
<ellipse fill="none" stroke="#000000" cx="243.5716" cy="-136.2483" rx="3.2" ry="3.2"/>
</g>
<!-- notice_actor -->
<g id="node4" class="node">
<title>notice_actor</title>
<g id="a_node4"><a xlink:href="../../tables/notice_actor.html" xlink:title="notice_actor" target="_top">
<polygon fill="#ffffff" stroke="transparent" points="415,-100.2 415,-161.2 517,-161.2 517,-100.2 415,-100.2"/>
<polygon fill="#f5f5f5" stroke="transparent" points="415,-137.7 415,-160.7 517,-160.7 517,-137.7 415,-137.7"/>
<polygon fill="none" stroke="#000000" points="415,-137.7 415,-160.7 517,-160.7 517,-137.7 415,-137.7"/>
<text text-anchor="start" x="419.547" y="-146.8" font-family="Helvetica,sans-Serif" font-weight="bold" font-size="11.00" fill="#000000">notice_actor</text>
<text text-anchor="start" x="482.5219" y="-145.8" font-family="Helvetica,sans-Serif" font-size="11.00" fill="#000000">[table]</text>
<polygon fill="none" stroke="#000000" points="415,-118.7 415,-137.7 517,-137.7 517,-118.7 415,-118.7"/>
<text text-anchor="start" x="418" y="-124.8" font-family="Helvetica,sans-Serif" font-size="11.00" fill="#000000">...</text>
<polygon fill="#ffffff" stroke="transparent" points="415,-99.7 415,-118.7 464,-118.7 464,-99.7 415,-99.7"/>
<polygon fill="none" stroke="#000000" points="415,-99.7 415,-118.7 464,-118.7 464,-99.7 415,-99.7"/>
<text text-anchor="start" x="418" y="-105.8" font-family="Helvetica,sans-Serif" font-size="11.00" fill="#000000">&lt; 2</text>
<polygon fill="#ffffff" stroke="transparent" points="464,-99.7 464,-118.7 490,-118.7 490,-99.7 464,-99.7"/>
<polygon fill="none" stroke="#000000" points="464,-99.7 464,-118.7 490,-118.7 490,-99.7 464,-99.7"/>
<text text-anchor="start" x="480.8862" y="-105.8" font-family="Helvetica,sans-Serif" font-size="11.00" fill="#000000"> &#160;</text>
<polygon fill="#ffffff" stroke="transparent" points="490,-99.7 490,-118.7 517,-118.7 517,-99.7 490,-99.7"/>
<polygon fill="none" stroke="#000000" points="490,-99.7 490,-118.7 517,-118.7 517,-99.7 490,-99.7"/>
<text text-anchor="start" x="507.8862" y="-105.8" font-family="Helvetica,sans-Serif" font-size="11.00" fill="#000000"> &#160;</text>
</a>
</g>
</g>
<!-- notice_actor&#45;&gt;notice -->
<g id="edge4" class="edge">
<title>notice_actor:w&#45;&gt;notice:e</title>
<path fill="none" stroke="#000000" d="M400.841,-130.6868C361.2312,-151.222 426.9758,-270.7 365.5,-270.7"/>
<polygon fill="#000000" stroke="#000000" points="407.1723,-129.3513 415.7431,-131.2225 411.0861,-128.5256 415,-127.7 415,-127.7 415,-127.7 411.0861,-128.5256 414.2569,-124.1775 407.1723,-129.3513 407.1723,-129.3513"/>
<ellipse fill="none" stroke="#000000" cx="404.0412" cy="-130.0118" rx="3.2" ry="3.2"/>
</g>
<!-- notice_actor&#45;&gt;user -->
<g id="edge3" class="edge">
<title>notice_actor:w&#45;&gt;user:e</title>
<path fill="none" stroke="#000000" d="M401.0151,-122.911C390.0877,-112.7869 392.6864,-89.3508 373,-79.7 279.2512,-33.7418 242.9078,-65.7 138.5,-65.7"/>
<polygon fill="#000000" stroke="#000000" points="407.4315,-125.1082 413.8337,-131.1058 411.2157,-126.4041 415,-127.7 415,-127.7 415,-127.7 411.2157,-126.4041 416.1663,-124.2942 407.4315,-125.1082 407.4315,-125.1082"/>
<ellipse fill="none" stroke="#000000" cx="404.4041" cy="-124.0715" rx="3.2" ry="3.2"/>
</g>
<!-- notice_entity -->
<g id="node5" class="node">
<title>notice_entity</title>
<g id="a_node5"><a xlink:href="../../tables/notice_entity.html" xlink:title="notice_entity" target="_top">
<polygon fill="#ffffff" stroke="transparent" points="414,-243.2 414,-304.2 518,-304.2 518,-243.2 414,-243.2"/>
<polygon fill="#f5f5f5" stroke="transparent" points="414,-280.7 414,-303.7 518,-303.7 518,-280.7 414,-280.7"/>
<polygon fill="none" stroke="#000000" points="414,-280.7 414,-303.7 518,-303.7 518,-280.7 414,-280.7"/>
<text text-anchor="start" x="418.6291" y="-289.8" font-family="Helvetica,sans-Serif" font-weight="bold" font-size="11.00" fill="#000000">notice_entity</text>
<text text-anchor="start" x="483.5219" y="-288.8" font-family="Helvetica,sans-Serif" font-size="11.00" fill="#000000">[table]</text>
<polygon fill="none" stroke="#000000" points="414,-261.7 414,-280.7 518,-280.7 518,-261.7 414,-261.7"/>
<text text-anchor="start" x="417" y="-267.8" font-family="Helvetica,sans-Serif" font-size="11.00" fill="#000000">...</text>
<polygon fill="#ffffff" stroke="transparent" points="414,-242.7 414,-261.7 464,-261.7 464,-242.7 414,-242.7"/>
<polygon fill="none" stroke="#000000" points="414,-242.7 414,-261.7 464,-261.7 464,-242.7 414,-242.7"/>
<text text-anchor="start" x="417" y="-248.8" font-family="Helvetica,sans-Serif" font-size="11.00" fill="#000000">&lt; 2</text>
<polygon fill="#ffffff" stroke="transparent" points="464,-242.7 464,-261.7 491,-261.7 491,-242.7 464,-242.7"/>
<polygon fill="none" stroke="#000000" points="464,-242.7 464,-261.7 491,-261.7 491,-242.7 464,-242.7"/>
<text text-anchor="start" x="481.8862" y="-248.8" font-family="Helvetica,sans-Serif" font-size="11.00" fill="#000000"> &#160;</text>
<polygon fill="#ffffff" stroke="transparent" points="491,-242.7 491,-261.7 518,-261.7 518,-242.7 491,-242.7"/>
<polygon fill="none" stroke="#000000" points="491,-242.7 491,-261.7 518,-261.7 518,-242.7 491,-242.7"/>
<text text-anchor="start" x="508.8862" y="-248.8" font-family="Helvetica,sans-Serif" font-size="11.00" fill="#000000"> &#160;</text>
</a>
</g>
</g>
<!-- notice_entity&#45;&gt;notice -->
<g id="edge5" class="edge">
<title>notice_entity:w&#45;&gt;notice:e</title>
<path fill="none" stroke="#000000" d="M399.2829,-270.7C388.2886,-270.7 381.1615,-270.7 365.5,-270.7"/>
<polygon fill="#000000" stroke="#000000" points="406,-270.7001 414,-274.3 410,-270.7 414,-270.7 414,-270.7 414,-270.7 410,-270.7 414,-267.1 406,-270.7001 406,-270.7001"/>
<ellipse fill="none" stroke="#000000" cx="402.8" cy="-270.7001" rx="3.2" ry="3.2"/>
</g>
</g>
</svg>
