<?xml version="1.0" encoding="UTF-8" standalone="no"?>
<!DOCTYPE svg PUBLIC "-//W3C//DTD SVG 1.1//EN"
 "http://www.w3.org/Graphics/SVG/1.1/DTD/svg11.dtd">
<!-- Generated by graphviz version 2.40.1 (20161225.0304)
 -->
<!-- Title: oneDegreeRelationshipsDiagram Pages: 1 -->
<svg width="588pt" height="388pt"
 viewBox="0.00 0.00 588.00 387.70" xmlns="http://www.w3.org/2000/svg" xmlns:xlink="http://www.w3.org/1999/xlink">
<g id="graph0" class="graph" transform="scale(1 1) rotate(0) translate(4 383.7)">
<title>oneDegreeRelationshipsDiagram</title>
<polygon fill="#ffffff" stroke="transparent" points="-4,4 -4,-383.7 584,-383.7 584,4 -4,4"/>
<text text-anchor="middle" x="72.4936" y="-7.3" font-family="Helvetica,sans-Serif" font-size="11.00" fill="#000000">Generated by SchemaSpy</text>
<!-- notice -->
<g id="node1" class="node">
<title>notice</title>
<g id="a_node1"><a xlink:href="../../tables/notice.html" xlink:title="notice" target="_top">
<polygon fill="#ffffff" stroke="transparent" points="224,-75.2 224,-290.2 335,-290.2 335,-75.2 224,-75.2"/>
<polygon fill="#f5f5f5" stroke="transparent" points="224.5,-266.7 224.5,-289.7 335.5,-289.7 335.5,-266.7 224.5,-266.7"/>
<polygon fill="none" stroke="#000000" points="224.5,-266.7 224.5,-289.7 335.5,-289.7 335.5,-266.7 224.5,-266.7"/>
<text text-anchor="start" x="229.5" y="-275.8" font-family="Helvetica,sans-Serif" font-weight="bold" font-size="11.00" fill="#000000">notice</text>
<text text-anchor="start" x="300.5437" y="-274.8" font-family="Helvetica,sans-Serif" font-size="11.00" fill="#000000">[table]</text>
<polygon fill="none" stroke="#000000" points="224.5,-244.7 224.5,-266.7 335.5,-266.7 335.5,-244.7 224.5,-244.7"/>
<image xlink:href="../../images/primaryKeys.png" width="11px" height="12px" preserveAspectRatio="xMinYMin meet" x="229.5" y="-261.7"/>
<text text-anchor="start" x="244.5" y="-251.8" font-family="Helvetica,sans-Serif" font-size="11.00" fill="#000000">id</text>
<polygon fill="#ffffff" stroke="transparent" points="224.5,-222.7 224.5,-244.7 335.5,-244.7 335.5,-222.7 224.5,-222.7"/>
<polygon fill="none" stroke="#000000" points="224.5,-222.7 224.5,-244.7 335.5,-244.7 335.5,-222.7 224.5,-222.7"/>
<text text-anchor="start" x="244.5" y="-229.8" font-family="Helvetica,sans-Serif" font-size="11.00" fill="#000000">uuid</text>
<polygon fill="#ffffff" stroke="transparent" points="224.5,-200.7 224.5,-222.7 335.5,-222.7 335.5,-200.7 224.5,-200.7"/>
<polygon fill="none" stroke="#000000" points="224.5,-200.7 224.5,-222.7 335.5,-222.7 335.5,-200.7 224.5,-200.7"/>
<text text-anchor="start" x="244.5" y="-207.8" font-family="Helvetica,sans-Serif" font-size="11.00" fill="#000000">updated_at</text>
<polygon fill="#ffffff" stroke="transparent" points="224.5,-178.7 224.5,-200.7 335.5,-200.7 335.5,-178.7 224.5,-178.7"/>
<polygon fill="none" stroke="#000000" points="224.5,-178.7 224.5,-200.7 335.5,-200.7 335.5,-178.7 224.5,-178.7"/>
<text text-anchor="start" x="244.5" y="-185.8" font-family="Helvetica,sans-Serif" font-size="11.00" fill="#000000">unread</text>
<polygon fill="#ffffff" stroke="transparent" points="224.5,-156.7 224.5,-178.7 335.5,-178.7 335.5,-156.7 224.5,-156.7"/>
<polygon fill="none" stroke="#000000" points="224.5,-156.7 224.5,-178.7 335.5,-178.7 335.5,-156.7 224.5,-156.7"/>
<text text-anchor="start" x="244.5" y="-163.8" font-family="Helvetica,sans-Serif" font-size="11.00" fill="#000000">deleted</text>
<polygon fill="#ffffff" stroke="transparent" points="224.5,-134.7 224.5,-156.7 335.5,-156.7 335.5,-134.7 224.5,-134.7"/>
<polygon fill="none" stroke="#000000" points="224.5,-134.7 224.5,-156.7 335.5,-156.7 335.5,-134.7 224.5,-134.7"/>
<image xlink:href="../../images/foreignKeys.png" width="11px" height="12px" preserveAspectRatio="xMinYMin meet" x="229.5" y="-151.7"/>
<text text-anchor="start" x="244.5" y="-141.8" font-family="Helvetica,sans-Serif" font-size="11.00" fill="#000000">notice_detail_id</text>
<polygon fill="#ffffff" stroke="transparent" points="224.5,-112.7 224.5,-134.7 335.5,-134.7 335.5,-112.7 224.5,-112.7"/>
<polygon fill="none" stroke="#000000" points="224.5,-112.7 224.5,-134.7 335.5,-134.7 335.5,-112.7 224.5,-112.7"/>
<image xlink:href="../../images/foreignKeys.png" width="11px" height="12px" preserveAspectRatio="xMinYMin meet" x="229.5" y="-129.7"/>
<text text-anchor="start" x="244.5" y="-119.8" font-family="Helvetica,sans-Serif" font-size="11.00" fill="#000000">recipient_id</text>
<polygon fill="none" stroke="#000000" points="224.5,-93.7 224.5,-112.7 335.5,-112.7 335.5,-93.7 224.5,-93.7"/>
<text text-anchor="start" x="227.5" y="-99.8" font-family="Helvetica,sans-Serif" font-size="11.00" fill="#000000">...</text>
<polygon fill="#ffffff" stroke="transparent" points="224.5,-74.7 224.5,-93.7 273.5,-93.7 273.5,-74.7 224.5,-74.7"/>
<polygon fill="none" stroke="#000000" points="224.5,-74.7 224.5,-93.7 273.5,-93.7 273.5,-74.7 224.5,-74.7"/>
<text text-anchor="start" x="227.5" y="-80.8" font-family="Helvetica,sans-Serif" font-size="11.00" fill="#000000">&lt; 2</text>
<polygon fill="#ffffff" stroke="transparent" points="273.5,-74.7 273.5,-93.7 299.5,-93.7 299.5,-74.7 273.5,-74.7"/>
<polygon fill="none" stroke="#000000" points="273.5,-74.7 273.5,-93.7 299.5,-93.7 299.5,-74.7 273.5,-74.7"/>
<text text-anchor="start" x="290.3862" y="-80.8" font-family="Helvetica,sans-Serif" font-size="11.00" fill="#000000"> &#160;</text>
<polygon fill="#ffffff" stroke="transparent" points="299.5,-74.7 299.5,-93.7 335.5,-93.7 335.5,-74.7 299.5,-74.7"/>
<polygon fill="none" stroke="#000000" points="299.5,-74.7 299.5,-93.7 335.5,-93.7 335.5,-74.7 299.5,-74.7"/>
<text text-anchor="start" x="316.9053" y="-80.8" font-family="Helvetica,sans-Serif" font-size="11.00" fill="#000000">2 &gt;</text>
</a>
</g>
</g>
<!-- user -->
<g id="node2" class="node">
<title>user</title>
<g id="a_node2"><a xlink:href="../../tables/user.html" xlink:title="user" target="_top">
<polygon fill="#ffffff" stroke="transparent" points="8,-38.2 8,-253.2 175,-253.2 175,-38.2 8,-38.2"/>
<polygon fill="#f5f5f5" stroke="transparent" points="8.5,-229.7 8.5,-252.7 175.5,-252.7 175.5,-229.7 8.5,-229.7"/>
<polygon fill="none" stroke="#000000" points="8.5,-229.7 8.5,-252.7 175.5,-252.7 175.5,-229.7 8.5,-229.7"/>
<text text-anchor="start" x="13.5" y="-238.8" font-family="Helvetica,sans-Serif" font-weight="bold" font-size="11.00" fill="#000000">user</text>
<text text-anchor="start" x="140.5437" y="-237.8" font-family="Helvetica,sans-Serif" font-size="11.00" fill="#000000">[table]</text>
<polygon fill="none" stroke="#000000" points="8.5,-207.7 8.5,-229.7 175.5,-229.7 175.5,-207.7 8.5,-207.7"/>
<image xlink:href="../../images/primaryKeys.png" width="11px" height="12px" preserveAspectRatio="xMinYMin meet" x="13.5" y="-224.7"/>
<text text-anchor="start" x="28.5" y="-214.8" font-family="Helvetica,sans-Serif" font-size="11.00" fill="#000000">id</text>
<polygon fill="#ffffff" stroke="transparent" points="8.5,-185.7 8.5,-207.7 175.5,-207.7 175.5,-185.7 8.5,-185.7"/>
<polygon fill="none" stroke="#000000" points="8.5,-185.7 8.5,-207.7 175.5,-207.7 175.5,-185.7 8.5,-185.7"/>
<text text-anchor="start" x="28.5" y="-192.8" font-family="Helvetica,sans-Serif" font-size="11.00" fill="#000000">uuid</text>
<polygon fill="#ffffff" stroke="transparent" points="8.5,-163.7 8.5,-185.7 175.5,-185.7 175.5,-163.7 8.5,-163.7"/>
<polygon fill="none" stroke="#000000" points="8.5,-163.7 8.5,-185.7 175.5,-185.7 175.5,-163.7 8.5,-163.7"/>
<text text-anchor="start" x="28.5" y="-170.8" font-family="Helvetica,sans-Serif" font-size="11.00" fill="#000000">user_name</text>
<polygon fill="none" stroke="#000000" points="8.5,-141.7 8.5,-163.7 175.5,-163.7 175.5,-141.7 8.5,-141.7"/>
<image xlink:href="../../images/foreignKeys.png" width="11px" height="12px" preserveAspectRatio="xMinYMin meet" x="13.5" y="-158.7"/>
<text text-anchor="start" x="28.5" y="-148.8" font-family="Helvetica,sans-Serif" font-size="11.00" fill="#000000">avatar</text>
<polygon fill="#ffffff" stroke="transparent" points="8.5,-119.7 8.5,-141.7 175.5,-141.7 175.5,-119.7 8.5,-119.7"/>
<polygon fill="none" stroke="#000000" points="8.5,-119.7 8.5,-141.7 175.5,-141.7 175.5,-119.7 8.5,-119.7"/>
<text text-anchor="start" x="28.5" y="-126.8" font-family="Helvetica,sans-Serif" font-size="11.00" fill="#000000">email</text>
<polygon fill="#ffffff" stroke="transparent" points="8.5,-97.7 8.5,-119.7 175.5,-119.7 175.5,-97.7 8.5,-97.7"/>
<polygon fill="none" stroke="#000000" points="8.5,-97.7 8.5,-119.7 175.5,-119.7 175.5,-97.7 8.5,-97.7"/>
<text text-anchor="start" x="28.5" y="-104.8" font-family="Helvetica,sans-Serif" font-size="11.00" fill="#000000">state</text>
<polygon fill="#ffffff" stroke="transparent" points="8.5,-75.7 8.5,-97.7 175.5,-97.7 175.5,-75.7 8.5,-75.7"/>
<polygon fill="none" stroke="#000000" points="8.5,-75.7 8.5,-97.7 175.5,-97.7 175.5,-75.7 8.5,-75.7"/>
<text text-anchor="start" x="28.5" y="-82.8" font-family="Helvetica,sans-Serif" font-size="11.00" fill="#000000">liker_id</text>
<polygon fill="none" stroke="#000000" points="8.5,-56.7 8.5,-75.7 175.5,-75.7 175.5,-56.7 8.5,-56.7"/>
<text text-anchor="start" x="11.5" y="-62.8" font-family="Helvetica,sans-Serif" font-size="11.00" fill="#000000">...</text>
<polygon fill="#ffffff" stroke="transparent" points="8.5,-37.7 8.5,-56.7 82.5,-56.7 82.5,-37.7 8.5,-37.7"/>
<polygon fill="none" stroke="#000000" points="8.5,-37.7 8.5,-56.7 82.5,-56.7 82.5,-37.7 8.5,-37.7"/>
<text text-anchor="start" x="11.5" y="-43.8" font-family="Helvetica,sans-Serif" font-size="11.00" fill="#000000">&lt; 1</text>
<polygon fill="#ffffff" stroke="transparent" points="82.5,-37.7 82.5,-56.7 121.5,-56.7 121.5,-37.7 82.5,-37.7"/>
<polygon fill="none" stroke="#000000" points="82.5,-37.7 82.5,-56.7 121.5,-56.7 121.5,-37.7 82.5,-37.7"/>
<text text-anchor="start" x="112.3862" y="-43.8" font-family="Helvetica,sans-Serif" font-size="11.00" fill="#000000"> &#160;</text>
<polygon fill="#ffffff" stroke="transparent" points="121.5,-37.7 121.5,-56.7 175.5,-56.7 175.5,-37.7 121.5,-37.7"/>
<polygon fill="none" stroke="#000000" points="121.5,-37.7 121.5,-56.7 175.5,-56.7 175.5,-37.7 121.5,-37.7"/>
<text text-anchor="start" x="150.7904" y="-43.8" font-family="Helvetica,sans-Serif" font-size="11.00" fill="#000000">42 &gt;</text>
</a>
</g>
</g>
<!-- notice&#45;&gt;user -->
<g id="edge1" class="edge">
<title>notice:w&#45;&gt;user:e</title>
<path fill="none" stroke="#000000" d="M210.3894,-128.0288C187.3016,-146.6136 216.8837,-218.7 175.5,-218.7"/>
<polygon fill="#000000" stroke="#000000" points="216.8518,-126.0463 225.5558,-127.1417 220.6759,-124.8732 224.5,-123.7 224.5,-123.7 224.5,-123.7 220.6759,-124.8732 223.4442,-120.2583 216.8518,-126.0463 216.8518,-126.0463"/>
<ellipse fill="none" stroke="#000000" cx="213.7925" cy="-126.9849" rx="3.2" ry="3.2"/>
</g>
<!-- notice_actor -->
<g id="node3" class="node">
<title>notice_actor</title>
<g id="a_node3"><a xlink:href="../../tables/notice_actor.html" xlink:title="notice_actor" target="_top">
<polygon fill="#ffffff" stroke="transparent" points="384,-241.7 384,-375.7 572,-375.7 572,-241.7 384,-241.7"/>
<polygon fill="#f5f5f5" stroke="transparent" points="386,-350.7 386,-373.7 570,-373.7 570,-350.7 386,-350.7"/>
<polygon fill="none" stroke="#000000" points="386,-350.7 386,-373.7 570,-373.7 570,-350.7 386,-350.7"/>
<text text-anchor="start" x="391" y="-359.8" font-family="Helvetica,sans-Serif" font-weight="bold" font-size="11.00" fill="#000000">notice_actor</text>
<text text-anchor="start" x="535.0437" y="-358.8" font-family="Helvetica,sans-Serif" font-size="11.00" fill="#000000">[table]</text>
<polygon fill="none" stroke="#000000" points="386,-328.7 386,-350.7 478,-350.7 478,-328.7 386,-328.7"/>
<image xlink:href="../../images/primaryKeys.png" width="11px" height="12px" preserveAspectRatio="xMinYMin meet" x="391" y="-345.7"/>
<text text-anchor="start" x="406" y="-335.8" font-family="Helvetica,sans-Serif" font-size="11.00" fill="#000000">id</text>
<polygon fill="none" stroke="#000000" points="478,-328.7 478,-350.7 570,-350.7 570,-328.7 478,-328.7"/>
<text text-anchor="start" x="481" y="-336.4" font-family="Helvetica,sans-Serif" font-size="11.00" fill="#000000">bigserial[19]</text>
<polygon fill="none" stroke="#000000" points="386,-306.7 386,-328.7 478,-328.7 478,-306.7 386,-306.7"/>
<text text-anchor="start" x="406" y="-313.8" font-family="Helvetica,sans-Serif" font-size="11.00" fill="#000000">created_at</text>
<polygon fill="none" stroke="#000000" points="478,-306.7 478,-328.7 570,-328.7 570,-306.7 478,-306.7"/>
<text text-anchor="start" x="480.6023" y="-314.4" font-family="Helvetica,sans-Serif" font-size="11.00" fill="#000000">timestamptz[35,6]</text>
<polygon fill="#ffffff" stroke="transparent" points="386,-284.7 386,-306.7 478,-306.7 478,-284.7 386,-284.7"/>
<polygon fill="none" stroke="#000000" points="386,-284.7 386,-306.7 478,-306.7 478,-284.7 386,-284.7"/>
<image xlink:href="../../images/foreignKeys.png" width="11px" height="12px" preserveAspectRatio="xMinYMin meet" x="391" y="-301.7"/>
<text text-anchor="start" x="406" y="-291.8" font-family="Helvetica,sans-Serif" font-size="11.00" fill="#000000">actor_id</text>
<polygon fill="none" stroke="#000000" points="478,-284.7 478,-306.7 570,-306.7 570,-284.7 478,-284.7"/>
<text text-anchor="start" x="481" y="-292.4" font-family="Helvetica,sans-Serif" font-size="11.00" fill="#000000">int8[19]</text>
<polygon fill="#ffffff" stroke="transparent" points="386,-262.7 386,-284.7 478,-284.7 478,-262.7 386,-262.7"/>
<polygon fill="none" stroke="#000000" points="386,-262.7 386,-284.7 478,-284.7 478,-262.7 386,-262.7"/>
<image xlink:href="../../images/foreignKeys.png" width="11px" height="12px" preserveAspectRatio="xMinYMin meet" x="391" y="-279.7"/>
<text text-anchor="start" x="406" y="-269.8" font-family="Helvetica,sans-Serif" font-size="11.00" fill="#000000">notice_id</text>
<polygon fill="none" stroke="#000000" points="478,-262.7 478,-284.7 570,-284.7 570,-262.7 478,-262.7"/>
<text text-anchor="start" x="481" y="-270.4" font-family="Helvetica,sans-Serif" font-size="11.00" fill="#000000">int8[19]</text>
<polygon fill="#ffffff" stroke="transparent" points="386,-243.7 386,-262.7 436,-262.7 436,-243.7 386,-243.7"/>
<polygon fill="none" stroke="#000000" points="386,-243.7 386,-262.7 436,-262.7 436,-243.7 386,-243.7"/>
<text text-anchor="start" x="389" y="-249.8" font-family="Helvetica,sans-Serif" font-size="11.00" fill="#000000">&lt; 2</text>
<polygon fill="#ffffff" stroke="transparent" points="436,-243.7 436,-262.7 478,-262.7 478,-243.7 436,-243.7"/>
<polygon fill="none" stroke="#000000" points="436,-243.7 436,-262.7 478,-262.7 478,-243.7 436,-243.7"/>
<text text-anchor="start" x="468.8862" y="-249.8" font-family="Helvetica,sans-Serif" font-size="11.00" fill="#000000"> &#160;</text>
<polygon fill="#ffffff" stroke="transparent" points="478,-243.7 478,-262.7 570,-262.7 570,-243.7 478,-243.7"/>
<polygon fill="none" stroke="#000000" points="478,-243.7 478,-262.7 570,-262.7 570,-243.7 478,-243.7"/>
<text text-anchor="start" x="551.4053" y="-249.8" font-family="Helvetica,sans-Serif" font-size="11.00" fill="#000000">0 &gt;</text>
<polygon fill="none" stroke="#000000" stroke-width="2" points="385,-242.7 385,-374.7 571,-374.7 571,-242.7 385,-242.7"/>
</a>
</g>
</g>
<!-- notice_actor&#45;&gt;notice -->
<g id="edge3" class="edge">
<title>notice_actor:w&#45;&gt;notice:e</title>
<path fill="none" stroke="#000000" d="M371.7839,-271.044C359.5637,-266.037 353.5568,-255.7 335.5,-255.7"/>
<polygon fill="#000000" stroke="#000000" points="378.1361,-272.2308 385.3388,-277.2388 382.068,-272.9654 386,-273.7 386,-273.7 386,-273.7 382.068,-272.9654 386.6612,-270.1612 378.1361,-272.2308 378.1361,-272.2308"/>
<ellipse fill="none" stroke="#000000" cx="374.9905" cy="-271.6431" rx="3.2" ry="3.2"/>
</g>
<!-- notice_actor&#45;&gt;user -->
<g id="edge2" class="edge">
<title>notice_actor:w&#45;&gt;user:e</title>
<path fill="none" stroke="#000000" d="M371.3701,-296.6355C362.4837,-297.8585 356.2053,-299.9348 343,-300.7 286.6501,-303.9652 263.9418,-330.4919 216,-300.7 181.4757,-279.246 216.1472,-218.7 175.5,-218.7"/>
<polygon fill="#000000" stroke="#000000" points="378.0163,-296.2106 386.2298,-299.2927 382.0082,-295.9553 386,-295.7 386,-295.7 386,-295.7 382.0082,-295.9553 385.7702,-292.1073 378.0163,-296.2106 378.0163,-296.2106"/>
<ellipse fill="none" stroke="#000000" cx="374.8228" cy="-296.4148" rx="3.2" ry="3.2"/>
</g>
</g>
</svg>
