<?xml version="1.0" encoding="UTF-8" standalone="no"?>
<!DOCTYPE svg PUBLIC "-//W3C//DTD SVG 1.1//EN"
 "http://www.w3.org/Graphics/SVG/1.1/DTD/svg11.dtd">
<!-- Generated by graphviz version 2.40.1 (20161225.0304)
 -->
<!-- Title: oneDegreeRelationshipsDiagram Pages: 1 -->
<svg width="356pt" height="387pt"
 viewBox="0.00 0.00 356.00 386.70" xmlns="http://www.w3.org/2000/svg" xmlns:xlink="http://www.w3.org/1999/xlink">
<g id="graph0" class="graph" transform="scale(1 1) rotate(0) translate(4 382.7)">
<title>oneDegreeRelationshipsDiagram</title>
<polygon fill="#ffffff" stroke="transparent" points="-4,4 -4,-382.7 352,-382.7 352,4 -4,4"/>
<text text-anchor="middle" x="72.4936" y="-7.3" font-family="Helvetica,sans-Serif" font-size="11.00" fill="#000000">Generated by SchemaSpy</text>
<!-- notice_entity -->
<g id="node1" class="node">
<title>notice_entity</title>
<g id="a_node1"><a xlink:href="../../tables/notice_entity.html" xlink:title="notice_entity" target="_top">
<polygon fill="#ffffff" stroke="transparent" points="168,-218.7 168,-374.7 340,-374.7 340,-218.7 168,-218.7"/>
<polygon fill="#f5f5f5" stroke="transparent" points="170,-349.7 170,-372.7 338,-372.7 338,-349.7 170,-349.7"/>
<polygon fill="none" stroke="#000000" points="170,-349.7 170,-372.7 338,-372.7 338,-349.7 170,-349.7"/>
<text text-anchor="start" x="175" y="-358.8" font-family="Helvetica,sans-Serif" font-weight="bold" font-size="11.00" fill="#000000">notice_entity</text>
<text text-anchor="start" x="303.0437" y="-357.8" font-family="Helvetica,sans-Serif" font-size="11.00" fill="#000000">[table]</text>
<polygon fill="none" stroke="#000000" points="170,-327.7 170,-349.7 271,-349.7 271,-327.7 170,-327.7"/>
<image xlink:href="../../images/primaryKeys.png" width="11px" height="12px" preserveAspectRatio="xMinYMin meet" x="175" y="-344.7"/>
<text text-anchor="start" x="190" y="-334.8" font-family="Helvetica,sans-Serif" font-size="11.00" fill="#000000">id</text>
<polygon fill="none" stroke="#000000" points="271,-327.7 271,-349.7 338,-349.7 338,-327.7 271,-327.7"/>
<text text-anchor="start" x="274" y="-335.4" font-family="Helvetica,sans-Serif" font-size="11.00" fill="#000000">bigserial[19]</text>
<polygon fill="#ffffff" stroke="transparent" points="170,-305.7 170,-327.7 271,-327.7 271,-305.7 170,-305.7"/>
<polygon fill="none" stroke="#000000" points="170,-305.7 170,-327.7 271,-327.7 271,-305.7 170,-305.7"/>
<text text-anchor="start" x="190" y="-312.8" font-family="Helvetica,sans-Serif" font-size="11.00" fill="#000000">type</text>
<polygon fill="none" stroke="#000000" points="271,-305.7 271,-327.7 338,-327.7 338,-305.7 271,-305.7"/>
<text text-anchor="start" x="273.9365" y="-313.4" font-family="Helvetica,sans-Serif" font-size="11.00" fill="#000000">varchar[255]</text>
<polygon fill="#ffffff" stroke="transparent" points="170,-283.7 170,-305.7 271,-305.7 271,-283.7 170,-283.7"/>
<polygon fill="none" stroke="#000000" points="170,-283.7 170,-305.7 271,-305.7 271,-283.7 170,-283.7"/>
<image xlink:href="../../images/foreignKeys.png" width="11px" height="12px" preserveAspectRatio="xMinYMin meet" x="175" y="-300.7"/>
<text text-anchor="start" x="190" y="-290.8" font-family="Helvetica,sans-Serif" font-size="11.00" fill="#000000">entity_type_id</text>
<polygon fill="none" stroke="#000000" points="271,-283.7 271,-305.7 338,-305.7 338,-283.7 271,-283.7"/>
<text text-anchor="start" x="274" y="-291.4" font-family="Helvetica,sans-Serif" font-size="11.00" fill="#000000">int8[19]</text>
<polygon fill="#ffffff" stroke="transparent" points="170,-261.7 170,-283.7 271,-283.7 271,-261.7 170,-261.7"/>
<polygon fill="none" stroke="#000000" points="170,-261.7 170,-283.7 271,-283.7 271,-261.7 170,-261.7"/>
<text text-anchor="start" x="190" y="-268.8" font-family="Helvetica,sans-Serif" font-size="11.00" fill="#000000">entity_id</text>
<polygon fill="none" stroke="#000000" points="271,-261.7 271,-283.7 338,-283.7 338,-261.7 271,-261.7"/>
<text text-anchor="start" x="274" y="-269.4" font-family="Helvetica,sans-Serif" font-size="11.00" fill="#000000">int8[19]</text>
<polygon fill="#ffffff" stroke="transparent" points="170,-239.7 170,-261.7 271,-261.7 271,-239.7 170,-239.7"/>
<polygon fill="none" stroke="#000000" points="170,-239.7 170,-261.7 271,-261.7 271,-239.7 170,-239.7"/>
<image xlink:href="../../images/foreignKeys.png" width="11px" height="12px" preserveAspectRatio="xMinYMin meet" x="175" y="-256.7"/>
<text text-anchor="start" x="190" y="-246.8" font-family="Helvetica,sans-Serif" font-size="11.00" fill="#000000">notice_id</text>
<polygon fill="none" stroke="#000000" points="271,-239.7 271,-261.7 338,-261.7 338,-239.7 271,-239.7"/>
<text text-anchor="start" x="274" y="-247.4" font-family="Helvetica,sans-Serif" font-size="11.00" fill="#000000">int8[19]</text>
<polygon fill="#ffffff" stroke="transparent" points="170,-220.7 170,-239.7 225,-239.7 225,-220.7 170,-220.7"/>
<polygon fill="none" stroke="#000000" points="170,-220.7 170,-239.7 225,-239.7 225,-220.7 170,-220.7"/>
<text text-anchor="start" x="173" y="-226.8" font-family="Helvetica,sans-Serif" font-size="11.00" fill="#000000">&lt; 2</text>
<polygon fill="#ffffff" stroke="transparent" points="225,-220.7 225,-239.7 271,-239.7 271,-220.7 225,-220.7"/>
<polygon fill="none" stroke="#000000" points="225,-220.7 225,-239.7 271,-239.7 271,-220.7 225,-220.7"/>
<text text-anchor="start" x="261.8862" y="-226.8" font-family="Helvetica,sans-Serif" font-size="11.00" fill="#000000"> &#160;</text>
<polygon fill="#ffffff" stroke="transparent" points="271,-220.7 271,-239.7 338,-239.7 338,-220.7 271,-220.7"/>
<polygon fill="none" stroke="#000000" points="271,-220.7 271,-239.7 338,-239.7 338,-220.7 271,-220.7"/>
<text text-anchor="start" x="319.4053" y="-226.8" font-family="Helvetica,sans-Serif" font-size="11.00" fill="#000000">0 &gt;</text>
<polygon fill="none" stroke="#000000" stroke-width="2" points="169,-219.7 169,-373.7 339,-373.7 339,-219.7 169,-219.7"/>
</a>
</g>
</g>
<!-- entity_type -->
<g id="node2" class="node">
<title>entity_type</title>
<g id="a_node2"><a xlink:href="../../tables/entity_type.html" xlink:title="entity_type" target="_top">
<polygon fill="#ffffff" stroke="transparent" points="15.5,-274.7 15.5,-360.7 111.5,-360.7 111.5,-274.7 15.5,-274.7"/>
<polygon fill="#f5f5f5" stroke="transparent" points="15.5,-337.7 15.5,-360.7 111.5,-360.7 111.5,-337.7 15.5,-337.7"/>
<polygon fill="none" stroke="#000000" points="15.5,-337.7 15.5,-360.7 111.5,-360.7 111.5,-337.7 15.5,-337.7"/>
<text text-anchor="start" x="20.407" y="-346.8" font-family="Helvetica,sans-Serif" font-weight="bold" font-size="11.00" fill="#000000">entity_type</text>
<text text-anchor="start" x="77.0219" y="-345.8" font-family="Helvetica,sans-Serif" font-size="11.00" fill="#000000">[table]</text>
<polygon fill="none" stroke="#000000" points="15.5,-315.7 15.5,-337.7 111.5,-337.7 111.5,-315.7 15.5,-315.7"/>
<image xlink:href="../../images/primaryKeys.png" width="11px" height="12px" preserveAspectRatio="xMinYMin meet" x="20.5" y="-332.7"/>
<text text-anchor="start" x="41.5" y="-322.8" font-family="Helvetica,sans-Serif" font-size="11.00" fill="#000000">id</text>
<polygon fill="#ffffff" stroke="transparent" points="15.5,-293.7 15.5,-315.7 111.5,-315.7 111.5,-293.7 15.5,-293.7"/>
<polygon fill="none" stroke="#000000" points="15.5,-293.7 15.5,-315.7 111.5,-315.7 111.5,-293.7 15.5,-293.7"/>
<text text-anchor="start" x="41.5" y="-300.8" font-family="Helvetica,sans-Serif" font-size="11.00" fill="#000000">table</text>
<polygon fill="#ffffff" stroke="transparent" points="15.5,-274.7 15.5,-293.7 52.5,-293.7 52.5,-274.7 15.5,-274.7"/>
<polygon fill="none" stroke="#000000" points="15.5,-274.7 15.5,-293.7 52.5,-293.7 52.5,-274.7 15.5,-274.7"/>
<text text-anchor="start" x="18.5" y="-280.8" font-family="Helvetica,sans-Serif" font-size="11.00" fill="#000000"> &#160;</text>
<polygon fill="#ffffff" stroke="transparent" points="52.5,-274.7 52.5,-293.7 77.5,-293.7 77.5,-274.7 52.5,-274.7"/>
<polygon fill="none" stroke="#000000" points="52.5,-274.7 52.5,-293.7 77.5,-293.7 77.5,-274.7 52.5,-274.7"/>
<text text-anchor="start" x="68.3862" y="-280.8" font-family="Helvetica,sans-Serif" font-size="11.00" fill="#000000"> &#160;</text>
<polygon fill="#ffffff" stroke="transparent" points="77.5,-274.7 77.5,-293.7 111.5,-293.7 111.5,-274.7 77.5,-274.7"/>
<polygon fill="none" stroke="#000000" points="77.5,-274.7 77.5,-293.7 111.5,-293.7 111.5,-274.7 77.5,-274.7"/>
<text text-anchor="start" x="92.9053" y="-280.8" font-family="Helvetica,sans-Serif" font-size="11.00" fill="#000000">3 &gt;</text>
</a>
</g>
</g>
<!-- notice_entity&#45;&gt;entity_type -->
<g id="edge1" class="edge">
<title>notice_entity:w&#45;&gt;entity_type:e</title>
<path fill="none" stroke="#000000" d="M155.6621,-297.8853C139.5057,-305.9793 135.3474,-326.7 111.5,-326.7"/>
<polygon fill="#000000" stroke="#000000" points="162.1904,-296.435 170.7808,-298.2143 166.0952,-295.5675 170,-294.7 170,-294.7 170,-294.7 166.0952,-295.5675 169.2192,-291.1857 162.1904,-296.435 162.1904,-296.435"/>
<ellipse fill="none" stroke="#000000" cx="159.0666" cy="-297.129" rx="3.2" ry="3.2"/>
</g>
<!-- notice -->
<g id="node3" class="node">
<title>notice</title>
<g id="a_node3"><a xlink:href="../../tables/notice.html" xlink:title="notice" target="_top">
<polygon fill="#ffffff" stroke="transparent" points="8,-38.2 8,-253.2 119,-253.2 119,-38.2 8,-38.2"/>
<polygon fill="#f5f5f5" stroke="transparent" points="8.5,-229.7 8.5,-252.7 119.5,-252.7 119.5,-229.7 8.5,-229.7"/>
<polygon fill="none" stroke="#000000" points="8.5,-229.7 8.5,-252.7 119.5,-252.7 119.5,-229.7 8.5,-229.7"/>
<text text-anchor="start" x="13.5" y="-238.8" font-family="Helvetica,sans-Serif" font-weight="bold" font-size="11.00" fill="#000000">notice</text>
<text text-anchor="start" x="84.5437" y="-237.8" font-family="Helvetica,sans-Serif" font-size="11.00" fill="#000000">[table]</text>
<polygon fill="none" stroke="#000000" points="8.5,-207.7 8.5,-229.7 119.5,-229.7 119.5,-207.7 8.5,-207.7"/>
<image xlink:href="../../images/primaryKeys.png" width="11px" height="12px" preserveAspectRatio="xMinYMin meet" x="13.5" y="-224.7"/>
<text text-anchor="start" x="28.5" y="-214.8" font-family="Helvetica,sans-Serif" font-size="11.00" fill="#000000">id</text>
<polygon fill="#ffffff" stroke="transparent" points="8.5,-185.7 8.5,-207.7 119.5,-207.7 119.5,-185.7 8.5,-185.7"/>
<polygon fill="none" stroke="#000000" points="8.5,-185.7 8.5,-207.7 119.5,-207.7 119.5,-185.7 8.5,-185.7"/>
<text text-anchor="start" x="28.5" y="-192.8" font-family="Helvetica,sans-Serif" font-size="11.00" fill="#000000">uuid</text>
<polygon fill="#ffffff" stroke="transparent" points="8.5,-163.7 8.5,-185.7 119.5,-185.7 119.5,-163.7 8.5,-163.7"/>
<polygon fill="none" stroke="#000000" points="8.5,-163.7 8.5,-185.7 119.5,-185.7 119.5,-163.7 8.5,-163.7"/>
<text text-anchor="start" x="28.5" y="-170.8" font-family="Helvetica,sans-Serif" font-size="11.00" fill="#000000">updated_at</text>
<polygon fill="#ffffff" stroke="transparent" points="8.5,-141.7 8.5,-163.7 119.5,-163.7 119.5,-141.7 8.5,-141.7"/>
<polygon fill="none" stroke="#000000" points="8.5,-141.7 8.5,-163.7 119.5,-163.7 119.5,-141.7 8.5,-141.7"/>
<text text-anchor="start" x="28.5" y="-148.8" font-family="Helvetica,sans-Serif" font-size="11.00" fill="#000000">unread</text>
<polygon fill="#ffffff" stroke="transparent" points="8.5,-119.7 8.5,-141.7 119.5,-141.7 119.5,-119.7 8.5,-119.7"/>
<polygon fill="none" stroke="#000000" points="8.5,-119.7 8.5,-141.7 119.5,-141.7 119.5,-119.7 8.5,-119.7"/>
<text text-anchor="start" x="28.5" y="-126.8" font-family="Helvetica,sans-Serif" font-size="11.00" fill="#000000">deleted</text>
<polygon fill="#ffffff" stroke="transparent" points="8.5,-97.7 8.5,-119.7 119.5,-119.7 119.5,-97.7 8.5,-97.7"/>
<polygon fill="none" stroke="#000000" points="8.5,-97.7 8.5,-119.7 119.5,-119.7 119.5,-97.7 8.5,-97.7"/>
<image xlink:href="../../images/foreignKeys.png" width="11px" height="12px" preserveAspectRatio="xMinYMin meet" x="13.5" y="-114.7"/>
<text text-anchor="start" x="28.5" y="-104.8" font-family="Helvetica,sans-Serif" font-size="11.00" fill="#000000">notice_detail_id</text>
<polygon fill="#ffffff" stroke="transparent" points="8.5,-75.7 8.5,-97.7 119.5,-97.7 119.5,-75.7 8.5,-75.7"/>
<polygon fill="none" stroke="#000000" points="8.5,-75.7 8.5,-97.7 119.5,-97.7 119.5,-75.7 8.5,-75.7"/>
<image xlink:href="../../images/foreignKeys.png" width="11px" height="12px" preserveAspectRatio="xMinYMin meet" x="13.5" y="-92.7"/>
<text text-anchor="start" x="28.5" y="-82.8" font-family="Helvetica,sans-Serif" font-size="11.00" fill="#000000">recipient_id</text>
<polygon fill="none" stroke="#000000" points="8.5,-56.7 8.5,-75.7 119.5,-75.7 119.5,-56.7 8.5,-56.7"/>
<text text-anchor="start" x="11.5" y="-62.8" font-family="Helvetica,sans-Serif" font-size="11.00" fill="#000000">...</text>
<polygon fill="#ffffff" stroke="transparent" points="8.5,-37.7 8.5,-56.7 57.5,-56.7 57.5,-37.7 8.5,-37.7"/>
<polygon fill="none" stroke="#000000" points="8.5,-37.7 8.5,-56.7 57.5,-56.7 57.5,-37.7 8.5,-37.7"/>
<text text-anchor="start" x="11.5" y="-43.8" font-family="Helvetica,sans-Serif" font-size="11.00" fill="#000000">&lt; 2</text>
<polygon fill="#ffffff" stroke="transparent" points="57.5,-37.7 57.5,-56.7 83.5,-56.7 83.5,-37.7 57.5,-37.7"/>
<polygon fill="none" stroke="#000000" points="57.5,-37.7 57.5,-56.7 83.5,-56.7 83.5,-37.7 57.5,-37.7"/>
<text text-anchor="start" x="74.3862" y="-43.8" font-family="Helvetica,sans-Serif" font-size="11.00" fill="#000000"> &#160;</text>
<polygon fill="#ffffff" stroke="transparent" points="83.5,-37.7 83.5,-56.7 119.5,-56.7 119.5,-37.7 83.5,-37.7"/>
<polygon fill="none" stroke="#000000" points="83.5,-37.7 83.5,-56.7 119.5,-56.7 119.5,-37.7 83.5,-37.7"/>
<text text-anchor="start" x="100.9053" y="-43.8" font-family="Helvetica,sans-Serif" font-size="11.00" fill="#000000">2 &gt;</text>
</a>
</g>
</g>
<!-- notice_entity&#45;&gt;notice -->
<g id="edge2" class="edge">
<title>notice_entity:w&#45;&gt;notice:e</title>
<path fill="none" stroke="#000000" d="M156.1448,-246.7762C143.187,-238.2313 140.2587,-218.7 119.5,-218.7"/>
<polygon fill="#000000" stroke="#000000" points="162.3027,-248.5201 169.019,-254.1638 166.1514,-249.61 170,-250.7 170,-250.7 170,-250.7 166.1514,-249.61 170.981,-247.2362 162.3027,-248.5201 162.3027,-248.5201"/>
<ellipse fill="none" stroke="#000000" cx="159.2238" cy="-247.6481" rx="3.2" ry="3.2"/>
</g>
</g>
</svg>
