<?xml version="1.0" encoding="UTF-8" standalone="no"?>
<!DOCTYPE svg PUBLIC "-//W3C//DTD SVG 1.1//EN"
 "http://www.w3.org/Graphics/SVG/1.1/DTD/svg11.dtd">
<!-- Generated by graphviz version 2.40.1 (20161225.0304)
 -->
<!-- Title: twoDegreesRelationshipsDiagram Pages: 1 -->
<svg width="509pt" height="508pt"
 viewBox="0.00 0.00 509.00 507.52" xmlns="http://www.w3.org/2000/svg" xmlns:xlink="http://www.w3.org/1999/xlink">
<g id="graph0" class="graph" transform="scale(1 1) rotate(0) translate(4 503.5214)">
<title>twoDegreesRelationshipsDiagram</title>
<polygon fill="#ffffff" stroke="transparent" points="-4,4 -4,-503.5214 505,-503.5214 505,4 -4,4"/>
<text text-anchor="middle" x="72.4936" y="-7.3" font-family="Helvetica,sans-Serif" font-size="11.00" fill="#000000">Generated by SchemaSpy</text>
<!-- asset_map -->
<g id="node1" class="node">
<title>asset_map</title>
<g id="a_node1"><a xlink:href="../../tables/asset_map.html" xlink:title="asset_map" target="_top">
<polygon fill="#ffffff" stroke="transparent" points="168.5,-379.0214 168.5,-440.0214 264.5,-440.0214 264.5,-379.0214 168.5,-379.0214"/>
<polygon fill="#f5f5f5" stroke="transparent" points="168.5,-416.5214 168.5,-439.5214 264.5,-439.5214 264.5,-416.5214 168.5,-416.5214"/>
<polygon fill="none" stroke="#000000" points="168.5,-416.5214 168.5,-439.5214 264.5,-439.5214 264.5,-416.5214 168.5,-416.5214"/>
<text text-anchor="start" x="173.1034" y="-425.6214" font-family="Helvetica,sans-Serif" font-weight="bold" font-size="11.00" fill="#000000">asset_map</text>
<text text-anchor="start" x="230.0219" y="-424.6214" font-family="Helvetica,sans-Serif" font-size="11.00" fill="#000000">[table]</text>
<polygon fill="none" stroke="#000000" points="168.5,-397.5214 168.5,-416.5214 264.5,-416.5214 264.5,-397.5214 168.5,-397.5214"/>
<text text-anchor="start" x="171.5" y="-403.6214" font-family="Helvetica,sans-Serif" font-size="11.00" fill="#000000">...</text>
<polygon fill="#ffffff" stroke="transparent" points="168.5,-378.5214 168.5,-397.5214 214.5,-397.5214 214.5,-378.5214 168.5,-378.5214"/>
<polygon fill="none" stroke="#000000" points="168.5,-378.5214 168.5,-397.5214 214.5,-397.5214 214.5,-378.5214 168.5,-378.5214"/>
<text text-anchor="start" x="171.5" y="-384.6214" font-family="Helvetica,sans-Serif" font-size="11.00" fill="#000000">&lt; 2</text>
<polygon fill="#ffffff" stroke="transparent" points="214.5,-378.5214 214.5,-397.5214 239.5,-397.5214 239.5,-378.5214 214.5,-378.5214"/>
<polygon fill="none" stroke="#000000" points="214.5,-378.5214 214.5,-397.5214 239.5,-397.5214 239.5,-378.5214 214.5,-378.5214"/>
<text text-anchor="start" x="230.3862" y="-384.6214" font-family="Helvetica,sans-Serif" font-size="11.00" fill="#000000"> &#160;</text>
<polygon fill="#ffffff" stroke="transparent" points="239.5,-378.5214 239.5,-397.5214 264.5,-397.5214 264.5,-378.5214 239.5,-378.5214"/>
<polygon fill="none" stroke="#000000" points="239.5,-378.5214 239.5,-397.5214 264.5,-397.5214 264.5,-378.5214 239.5,-378.5214"/>
<text text-anchor="start" x="255.3862" y="-384.6214" font-family="Helvetica,sans-Serif" font-size="11.00" fill="#000000"> &#160;</text>
</a>
</g>
</g>
<!-- entity_type -->
<g id="node2" class="node">
<title>entity_type</title>
<g id="a_node2"><a xlink:href="../../tables/entity_type.html" xlink:title="entity_type" target="_top">
<polygon fill="#ffffff" stroke="transparent" points="12,-354.5214 12,-440.5214 108,-440.5214 108,-354.5214 12,-354.5214"/>
<polygon fill="#f5f5f5" stroke="transparent" points="12,-417.5214 12,-440.5214 108,-440.5214 108,-417.5214 12,-417.5214"/>
<polygon fill="none" stroke="#000000" points="12,-417.5214 12,-440.5214 108,-440.5214 108,-417.5214 12,-417.5214"/>
<text text-anchor="start" x="16.907" y="-426.6214" font-family="Helvetica,sans-Serif" font-weight="bold" font-size="11.00" fill="#000000">entity_type</text>
<text text-anchor="start" x="73.5219" y="-425.6214" font-family="Helvetica,sans-Serif" font-size="11.00" fill="#000000">[table]</text>
<polygon fill="none" stroke="#000000" points="12,-395.5214 12,-417.5214 108,-417.5214 108,-395.5214 12,-395.5214"/>
<image xlink:href="../../images/primaryKeys.png" width="11px" height="12px" preserveAspectRatio="xMinYMin meet" x="17" y="-412.521"/>
<text text-anchor="start" x="38" y="-402.6214" font-family="Helvetica,sans-Serif" font-size="11.00" fill="#000000">id</text>
<polygon fill="#ffffff" stroke="transparent" points="12,-373.5214 12,-395.5214 108,-395.5214 108,-373.5214 12,-373.5214"/>
<polygon fill="none" stroke="#000000" points="12,-373.5214 12,-395.5214 108,-395.5214 108,-373.5214 12,-373.5214"/>
<text text-anchor="start" x="38" y="-380.6214" font-family="Helvetica,sans-Serif" font-size="11.00" fill="#000000">table</text>
<polygon fill="#ffffff" stroke="transparent" points="12,-354.5214 12,-373.5214 49,-373.5214 49,-354.5214 12,-354.5214"/>
<polygon fill="none" stroke="#000000" points="12,-354.5214 12,-373.5214 49,-373.5214 49,-354.5214 12,-354.5214"/>
<text text-anchor="start" x="15" y="-360.6214" font-family="Helvetica,sans-Serif" font-size="11.00" fill="#000000"> &#160;</text>
<polygon fill="#ffffff" stroke="transparent" points="49,-354.5214 49,-373.5214 74,-373.5214 74,-354.5214 49,-354.5214"/>
<polygon fill="none" stroke="#000000" points="49,-354.5214 49,-373.5214 74,-373.5214 74,-354.5214 49,-354.5214"/>
<text text-anchor="start" x="64.8862" y="-360.6214" font-family="Helvetica,sans-Serif" font-size="11.00" fill="#000000"> &#160;</text>
<polygon fill="#ffffff" stroke="transparent" points="74,-354.5214 74,-373.5214 108,-373.5214 108,-354.5214 74,-354.5214"/>
<polygon fill="none" stroke="#000000" points="74,-354.5214 74,-373.5214 108,-373.5214 108,-354.5214 74,-354.5214"/>
<text text-anchor="start" x="89.4053" y="-360.6214" font-family="Helvetica,sans-Serif" font-size="11.00" fill="#000000">3 &gt;</text>
</a>
</g>
</g>
<!-- asset_map&#45;&gt;entity_type -->
<g id="edge1" class="edge">
<title>asset_map:w&#45;&gt;entity_type:e</title>
<path fill="none" stroke="#000000" d="M153.7977,-406.5214C137.8779,-406.5214 129.217,-406.5214 108,-406.5214"/>
<polygon fill="#000000" stroke="#000000" points="160.5,-406.5215 168.5,-410.1214 164.5,-406.5215 168.5,-406.5214 168.5,-406.5214 168.5,-406.5214 164.5,-406.5215 168.5,-402.9214 160.5,-406.5215 160.5,-406.5215"/>
<ellipse fill="none" stroke="#000000" cx="157.3" cy="-406.5215" rx="3.2" ry="3.2"/>
</g>
<!-- notice -->
<g id="node3" class="node">
<title>notice</title>
<g id="a_node3"><a xlink:href="../../tables/notice.html" xlink:title="notice" target="_top">
<polygon fill="#ffffff" stroke="transparent" points="161,-143.0214 161,-358.0214 272,-358.0214 272,-143.0214 161,-143.0214"/>
<polygon fill="#f5f5f5" stroke="transparent" points="161.5,-334.5214 161.5,-357.5214 272.5,-357.5214 272.5,-334.5214 161.5,-334.5214"/>
<polygon fill="none" stroke="#000000" points="161.5,-334.5214 161.5,-357.5214 272.5,-357.5214 272.5,-334.5214 161.5,-334.5214"/>
<text text-anchor="start" x="166.5" y="-343.6214" font-family="Helvetica,sans-Serif" font-weight="bold" font-size="11.00" fill="#000000">notice</text>
<text text-anchor="start" x="237.5437" y="-342.6214" font-family="Helvetica,sans-Serif" font-size="11.00" fill="#000000">[table]</text>
<polygon fill="none" stroke="#000000" points="161.5,-312.5214 161.5,-334.5214 272.5,-334.5214 272.5,-312.5214 161.5,-312.5214"/>
<image xlink:href="../../images/primaryKeys.png" width="11px" height="12px" preserveAspectRatio="xMinYMin meet" x="166.5" y="-329.521"/>
<text text-anchor="start" x="181.5" y="-319.6214" font-family="Helvetica,sans-Serif" font-size="11.00" fill="#000000">id</text>
<polygon fill="#ffffff" stroke="transparent" points="161.5,-290.5214 161.5,-312.5214 272.5,-312.5214 272.5,-290.5214 161.5,-290.5214"/>
<polygon fill="none" stroke="#000000" points="161.5,-290.5214 161.5,-312.5214 272.5,-312.5214 272.5,-290.5214 161.5,-290.5214"/>
<text text-anchor="start" x="181.5" y="-297.6214" font-family="Helvetica,sans-Serif" font-size="11.00" fill="#000000">uuid</text>
<polygon fill="#ffffff" stroke="transparent" points="161.5,-268.5214 161.5,-290.5214 272.5,-290.5214 272.5,-268.5214 161.5,-268.5214"/>
<polygon fill="none" stroke="#000000" points="161.5,-268.5214 161.5,-290.5214 272.5,-290.5214 272.5,-268.5214 161.5,-268.5214"/>
<text text-anchor="start" x="181.5" y="-275.6214" font-family="Helvetica,sans-Serif" font-size="11.00" fill="#000000">updated_at</text>
<polygon fill="#ffffff" stroke="transparent" points="161.5,-246.5214 161.5,-268.5214 272.5,-268.5214 272.5,-246.5214 161.5,-246.5214"/>
<polygon fill="none" stroke="#000000" points="161.5,-246.5214 161.5,-268.5214 272.5,-268.5214 272.5,-246.5214 161.5,-246.5214"/>
<text text-anchor="start" x="181.5" y="-253.6214" font-family="Helvetica,sans-Serif" font-size="11.00" fill="#000000">unread</text>
<polygon fill="#ffffff" stroke="transparent" points="161.5,-224.5214 161.5,-246.5214 272.5,-246.5214 272.5,-224.5214 161.5,-224.5214"/>
<polygon fill="none" stroke="#000000" points="161.5,-224.5214 161.5,-246.5214 272.5,-246.5214 272.5,-224.5214 161.5,-224.5214"/>
<text text-anchor="start" x="181.5" y="-231.6214" font-family="Helvetica,sans-Serif" font-size="11.00" fill="#000000">deleted</text>
<polygon fill="#ffffff" stroke="transparent" points="161.5,-202.5214 161.5,-224.5214 272.5,-224.5214 272.5,-202.5214 161.5,-202.5214"/>
<polygon fill="none" stroke="#000000" points="161.5,-202.5214 161.5,-224.5214 272.5,-224.5214 272.5,-202.5214 161.5,-202.5214"/>
<image xlink:href="../../images/foreignKeys.png" width="11px" height="12px" preserveAspectRatio="xMinYMin meet" x="166.5" y="-219.521"/>
<text text-anchor="start" x="181.5" y="-209.6214" font-family="Helvetica,sans-Serif" font-size="11.00" fill="#000000">notice_detail_id</text>
<polygon fill="#ffffff" stroke="transparent" points="161.5,-180.5214 161.5,-202.5214 272.5,-202.5214 272.5,-180.5214 161.5,-180.5214"/>
<polygon fill="none" stroke="#000000" points="161.5,-180.5214 161.5,-202.5214 272.5,-202.5214 272.5,-180.5214 161.5,-180.5214"/>
<image xlink:href="../../images/foreignKeys.png" width="11px" height="12px" preserveAspectRatio="xMinYMin meet" x="166.5" y="-197.521"/>
<text text-anchor="start" x="181.5" y="-187.6214" font-family="Helvetica,sans-Serif" font-size="11.00" fill="#000000">recipient_id</text>
<polygon fill="none" stroke="#000000" points="161.5,-161.5214 161.5,-180.5214 272.5,-180.5214 272.5,-161.5214 161.5,-161.5214"/>
<text text-anchor="start" x="164.5" y="-167.6214" font-family="Helvetica,sans-Serif" font-size="11.00" fill="#000000">...</text>
<polygon fill="#ffffff" stroke="transparent" points="161.5,-142.5214 161.5,-161.5214 210.5,-161.5214 210.5,-142.5214 161.5,-142.5214"/>
<polygon fill="none" stroke="#000000" points="161.5,-142.5214 161.5,-161.5214 210.5,-161.5214 210.5,-142.5214 161.5,-142.5214"/>
<text text-anchor="start" x="164.5" y="-148.6214" font-family="Helvetica,sans-Serif" font-size="11.00" fill="#000000">&lt; 2</text>
<polygon fill="#ffffff" stroke="transparent" points="210.5,-142.5214 210.5,-161.5214 236.5,-161.5214 236.5,-142.5214 210.5,-142.5214"/>
<polygon fill="none" stroke="#000000" points="210.5,-142.5214 210.5,-161.5214 236.5,-161.5214 236.5,-142.5214 210.5,-142.5214"/>
<text text-anchor="start" x="227.3862" y="-148.6214" font-family="Helvetica,sans-Serif" font-size="11.00" fill="#000000"> &#160;</text>
<polygon fill="#ffffff" stroke="transparent" points="236.5,-142.5214 236.5,-161.5214 272.5,-161.5214 272.5,-142.5214 236.5,-142.5214"/>
<polygon fill="none" stroke="#000000" points="236.5,-142.5214 236.5,-161.5214 272.5,-161.5214 272.5,-142.5214 236.5,-142.5214"/>
<text text-anchor="start" x="253.9053" y="-148.6214" font-family="Helvetica,sans-Serif" font-size="11.00" fill="#000000">2 &gt;</text>
</a>
</g>
</g>
<!-- notice_detail -->
<g id="node4" class="node">
<title>notice_detail</title>
<g id="a_node4"><a xlink:href="../../tables/notice_detail.html" xlink:title="notice_detail" target="_top">
<polygon fill="#ffffff" stroke="transparent" points="8,-186.0214 8,-247.0214 112,-247.0214 112,-186.0214 8,-186.0214"/>
<polygon fill="#f5f5f5" stroke="transparent" points="8,-223.5214 8,-246.5214 112,-246.5214 112,-223.5214 8,-223.5214"/>
<polygon fill="none" stroke="#000000" points="8,-223.5214 8,-246.5214 112,-246.5214 112,-223.5214 8,-223.5214"/>
<text text-anchor="start" x="12.6296" y="-232.6214" font-family="Helvetica,sans-Serif" font-weight="bold" font-size="11.00" fill="#000000">notice_detail</text>
<text text-anchor="start" x="77.5219" y="-231.6214" font-family="Helvetica,sans-Serif" font-size="11.00" fill="#000000">[table]</text>
<polygon fill="none" stroke="#000000" points="8,-204.5214 8,-223.5214 112,-223.5214 112,-204.5214 8,-204.5214"/>
<text text-anchor="start" x="11" y="-210.6214" font-family="Helvetica,sans-Serif" font-size="11.00" fill="#000000">...</text>
<polygon fill="#ffffff" stroke="transparent" points="8,-185.5214 8,-204.5214 49,-204.5214 49,-185.5214 8,-185.5214"/>
<polygon fill="none" stroke="#000000" points="8,-185.5214 8,-204.5214 49,-204.5214 49,-185.5214 8,-185.5214"/>
<text text-anchor="start" x="11" y="-191.6214" font-family="Helvetica,sans-Serif" font-size="11.00" fill="#000000"> &#160;</text>
<polygon fill="#ffffff" stroke="transparent" points="49,-185.5214 49,-204.5214 76,-204.5214 76,-185.5214 49,-185.5214"/>
<polygon fill="none" stroke="#000000" points="49,-185.5214 49,-204.5214 76,-204.5214 76,-185.5214 49,-185.5214"/>
<text text-anchor="start" x="66.8862" y="-191.6214" font-family="Helvetica,sans-Serif" font-size="11.00" fill="#000000"> &#160;</text>
<polygon fill="#ffffff" stroke="transparent" points="76,-185.5214 76,-204.5214 112,-204.5214 112,-185.5214 76,-185.5214"/>
<polygon fill="none" stroke="#000000" points="76,-185.5214 76,-204.5214 112,-204.5214 112,-185.5214 76,-185.5214"/>
<text text-anchor="start" x="93.4053" y="-191.6214" font-family="Helvetica,sans-Serif" font-size="11.00" fill="#000000">1 &gt;</text>
</a>
</g>
</g>
<!-- notice&#45;&gt;notice_detail -->
<g id="edge2" class="edge">
<title>notice:w&#45;&gt;notice_detail:e</title>
<path fill="none" stroke="#000000" d="M146.8428,-213.5214C135.4139,-213.5214 128.1563,-213.5214 112,-213.5214"/>
<polygon fill="#000000" stroke="#000000" points="153.5,-213.5215 161.5,-217.1214 157.5,-213.5215 161.5,-213.5214 161.5,-213.5214 161.5,-213.5214 157.5,-213.5215 161.5,-209.9214 153.5,-213.5215 153.5,-213.5215"/>
<ellipse fill="none" stroke="#000000" cx="150.3" cy="-213.5215" rx="3.2" ry="3.2"/>
</g>
<!-- user -->
<g id="node5" class="node">
<title>user</title>
<g id="a_node5"><a xlink:href="../../tables/user.html" xlink:title="user" target="_top">
<polygon fill="#ffffff" stroke="transparent" points="28,-61.0214 28,-122.0214 92,-122.0214 92,-61.0214 28,-61.0214"/>
<polygon fill="#f5f5f5" stroke="transparent" points="28,-98.5214 28,-121.5214 92,-121.5214 92,-98.5214 28,-98.5214"/>
<polygon fill="none" stroke="#000000" points="28,-98.5214 28,-121.5214 92,-121.5214 92,-98.5214 28,-98.5214"/>
<text text-anchor="start" x="32.8042" y="-107.6214" font-family="Helvetica,sans-Serif" font-weight="bold" font-size="11.00" fill="#000000">user</text>
<text text-anchor="start" x="57.5219" y="-106.6214" font-family="Helvetica,sans-Serif" font-size="11.00" fill="#000000">[table]</text>
<polygon fill="none" stroke="#000000" points="28,-79.5214 28,-98.5214 92,-98.5214 92,-79.5214 28,-79.5214"/>
<text text-anchor="start" x="31" y="-85.6214" font-family="Helvetica,sans-Serif" font-size="11.00" fill="#000000">...</text>
<polygon fill="#ffffff" stroke="transparent" points="28,-60.5214 28,-79.5214 51,-79.5214 51,-60.5214 28,-60.5214"/>
<polygon fill="none" stroke="#000000" points="28,-60.5214 28,-79.5214 51,-79.5214 51,-60.5214 28,-60.5214"/>
<text text-anchor="start" x="31" y="-66.6214" font-family="Helvetica,sans-Serif" font-size="11.00" fill="#000000">&lt; 1</text>
<polygon fill="#ffffff" stroke="transparent" points="51,-60.5214 51,-79.5214 64,-79.5214 64,-60.5214 51,-60.5214"/>
<polygon fill="none" stroke="#000000" points="51,-60.5214 51,-79.5214 64,-79.5214 64,-60.5214 51,-60.5214"/>
<text text-anchor="start" x="54.8862" y="-66.6214" font-family="Helvetica,sans-Serif" font-size="11.00" fill="#000000"> &#160;</text>
<polygon fill="#ffffff" stroke="transparent" points="64,-60.5214 64,-79.5214 92,-79.5214 92,-60.5214 64,-60.5214"/>
<polygon fill="none" stroke="#000000" points="64,-60.5214 64,-79.5214 92,-79.5214 92,-60.5214 64,-60.5214"/>
<text text-anchor="start" x="67.2904" y="-66.6214" font-family="Helvetica,sans-Serif" font-size="11.00" fill="#000000">42 &gt;</text>
</a>
</g>
</g>
<!-- notice&#45;&gt;user -->
<g id="edge3" class="edge">
<title>notice:w&#45;&gt;user:e</title>
<path fill="none" stroke="#000000" d="M147.0104,-188.3259C113.8435,-170.9406 141.3999,-88.5214 92,-88.5214"/>
<polygon fill="#000000" stroke="#000000" points="153.6877,-189.7985 160.7247,-195.037 157.5939,-190.66 161.5,-191.5214 161.5,-191.5214 161.5,-191.5214 157.5939,-190.66 162.2753,-188.0059 153.6877,-189.7985 153.6877,-189.7985"/>
<ellipse fill="none" stroke="#000000" cx="150.5628" cy="-189.1093" rx="3.2" ry="3.2"/>
</g>
<!-- notice_actor -->
<g id="node6" class="node">
<title>notice_actor</title>
<g id="a_node6"><a xlink:href="../../tables/notice_actor.html" xlink:title="notice_actor" target="_top">
<polygon fill="#ffffff" stroke="transparent" points="356,-133.0214 356,-194.0214 458,-194.0214 458,-133.0214 356,-133.0214"/>
<polygon fill="#f5f5f5" stroke="transparent" points="356,-170.5214 356,-193.5214 458,-193.5214 458,-170.5214 356,-170.5214"/>
<polygon fill="none" stroke="#000000" points="356,-170.5214 356,-193.5214 458,-193.5214 458,-170.5214 356,-170.5214"/>
<text text-anchor="start" x="360.547" y="-179.6214" font-family="Helvetica,sans-Serif" font-weight="bold" font-size="11.00" fill="#000000">notice_actor</text>
<text text-anchor="start" x="423.5219" y="-178.6214" font-family="Helvetica,sans-Serif" font-size="11.00" fill="#000000">[table]</text>
<polygon fill="none" stroke="#000000" points="356,-151.5214 356,-170.5214 458,-170.5214 458,-151.5214 356,-151.5214"/>
<text text-anchor="start" x="359" y="-157.6214" font-family="Helvetica,sans-Serif" font-size="11.00" fill="#000000">...</text>
<polygon fill="#ffffff" stroke="transparent" points="356,-132.5214 356,-151.5214 405,-151.5214 405,-132.5214 356,-132.5214"/>
<polygon fill="none" stroke="#000000" points="356,-132.5214 356,-151.5214 405,-151.5214 405,-132.5214 356,-132.5214"/>
<text text-anchor="start" x="359" y="-138.6214" font-family="Helvetica,sans-Serif" font-size="11.00" fill="#000000">&lt; 2</text>
<polygon fill="#ffffff" stroke="transparent" points="405,-132.5214 405,-151.5214 431,-151.5214 431,-132.5214 405,-132.5214"/>
<polygon fill="none" stroke="#000000" points="405,-132.5214 405,-151.5214 431,-151.5214 431,-132.5214 405,-132.5214"/>
<text text-anchor="start" x="421.8862" y="-138.6214" font-family="Helvetica,sans-Serif" font-size="11.00" fill="#000000"> &#160;</text>
<polygon fill="#ffffff" stroke="transparent" points="431,-132.5214 431,-151.5214 458,-151.5214 458,-132.5214 431,-132.5214"/>
<polygon fill="none" stroke="#000000" points="431,-132.5214 431,-151.5214 458,-151.5214 458,-132.5214 431,-132.5214"/>
<text text-anchor="start" x="448.8862" y="-138.6214" font-family="Helvetica,sans-Serif" font-size="11.00" fill="#000000"> &#160;</text>
</a>
</g>
</g>
<!-- notice_actor&#45;&gt;notice -->
<g id="edge5" class="edge">
<title>notice_actor:w&#45;&gt;notice:e</title>
<path fill="none" stroke="#000000" d="M341.4574,-162.7024C284.6932,-182.0449 348.3325,-323.5214 272.5,-323.5214"/>
<polygon fill="#000000" stroke="#000000" points="348.0885,-161.708 356.5339,-164.0816 352.0442,-161.1147 356,-160.5214 356,-160.5214 356,-160.5214 352.0442,-161.1147 355.4661,-156.9612 348.0885,-161.708 348.0885,-161.708"/>
<ellipse fill="none" stroke="#000000" cx="344.9239" cy="-162.1826" rx="3.2" ry="3.2"/>
</g>
<!-- notice_actor&#45;&gt;user -->
<g id="edge4" class="edge">
<title>notice_actor:w&#45;&gt;user:e</title>
<path fill="none" stroke="#000000" d="M341.6529,-158.4619C302.5564,-145.5536 327.689,-75.537 280,-50.5214 230.0151,-24.3015 207.2686,-35.0007 153,-50.5214 122.29,-59.3044 123.9413,-88.5214 92,-88.5214"/>
<polygon fill="#000000" stroke="#000000" points="348.0812,-159.3846 355.4884,-164.0849 352.0406,-159.953 356,-160.5214 356,-160.5214 356,-160.5214 352.0406,-159.953 356.5116,-156.958 348.0812,-159.3846 348.0812,-159.3846"/>
<ellipse fill="none" stroke="#000000" cx="344.9136" cy="-158.9299" rx="3.2" ry="3.2"/>
</g>
<!-- notice_entity -->
<g id="node7" class="node">
<title>notice_entity</title>
<g id="a_node7"><a xlink:href="../../tables/notice_entity.html" xlink:title="notice_entity" target="_top">
<polygon fill="#ffffff" stroke="transparent" points="321,-339.5214 321,-495.5214 493,-495.5214 493,-339.5214 321,-339.5214"/>
<polygon fill="#f5f5f5" stroke="transparent" points="323,-470.5214 323,-493.5214 491,-493.5214 491,-470.5214 323,-470.5214"/>
<polygon fill="none" stroke="#000000" points="323,-470.5214 323,-493.5214 491,-493.5214 491,-470.5214 323,-470.5214"/>
<text text-anchor="start" x="328" y="-479.6214" font-family="Helvetica,sans-Serif" font-weight="bold" font-size="11.00" fill="#000000">notice_entity</text>
<text text-anchor="start" x="456.0437" y="-478.6214" font-family="Helvetica,sans-Serif" font-size="11.00" fill="#000000">[table]</text>
<polygon fill="none" stroke="#000000" points="323,-448.5214 323,-470.5214 424,-470.5214 424,-448.5214 323,-448.5214"/>
<image xlink:href="../../images/primaryKeys.png" width="11px" height="12px" preserveAspectRatio="xMinYMin meet" x="328" y="-465.521"/>
<text text-anchor="start" x="343" y="-455.6214" font-family="Helvetica,sans-Serif" font-size="11.00" fill="#000000">id</text>
<polygon fill="none" stroke="#000000" points="424,-448.5214 424,-470.5214 491,-470.5214 491,-448.5214 424,-448.5214"/>
<text text-anchor="start" x="427" y="-456.2214" font-family="Helvetica,sans-Serif" font-size="11.00" fill="#000000">bigserial[19]</text>
<polygon fill="#ffffff" stroke="transparent" points="323,-426.5214 323,-448.5214 424,-448.5214 424,-426.5214 323,-426.5214"/>
<polygon fill="none" stroke="#000000" points="323,-426.5214 323,-448.5214 424,-448.5214 424,-426.5214 323,-426.5214"/>
<text text-anchor="start" x="343" y="-433.6214" font-family="Helvetica,sans-Serif" font-size="11.00" fill="#000000">type</text>
<polygon fill="none" stroke="#000000" points="424,-426.5214 424,-448.5214 491,-448.5214 491,-426.5214 424,-426.5214"/>
<text text-anchor="start" x="426.9365" y="-434.2214" font-family="Helvetica,sans-Serif" font-size="11.00" fill="#000000">varchar[255]</text>
<polygon fill="#ffffff" stroke="transparent" points="323,-404.5214 323,-426.5214 424,-426.5214 424,-404.5214 323,-404.5214"/>
<polygon fill="none" stroke="#000000" points="323,-404.5214 323,-426.5214 424,-426.5214 424,-404.5214 323,-404.5214"/>
<image xlink:href="../../images/foreignKeys.png" width="11px" height="12px" preserveAspectRatio="xMinYMin meet" x="328" y="-421.521"/>
<text text-anchor="start" x="343" y="-411.6214" font-family="Helvetica,sans-Serif" font-size="11.00" fill="#000000">entity_type_id</text>
<polygon fill="none" stroke="#000000" points="424,-404.5214 424,-426.5214 491,-426.5214 491,-404.5214 424,-404.5214"/>
<text text-anchor="start" x="427" y="-412.2214" font-family="Helvetica,sans-Serif" font-size="11.00" fill="#000000">int8[19]</text>
<polygon fill="#ffffff" stroke="transparent" points="323,-382.5214 323,-404.5214 424,-404.5214 424,-382.5214 323,-382.5214"/>
<polygon fill="none" stroke="#000000" points="323,-382.5214 323,-404.5214 424,-404.5214 424,-382.5214 323,-382.5214"/>
<text text-anchor="start" x="343" y="-389.6214" font-family="Helvetica,sans-Serif" font-size="11.00" fill="#000000">entity_id</text>
<polygon fill="none" stroke="#000000" points="424,-382.5214 424,-404.5214 491,-404.5214 491,-382.5214 424,-382.5214"/>
<text text-anchor="start" x="427" y="-390.2214" font-family="Helvetica,sans-Serif" font-size="11.00" fill="#000000">int8[19]</text>
<polygon fill="#ffffff" stroke="transparent" points="323,-360.5214 323,-382.5214 424,-382.5214 424,-360.5214 323,-360.5214"/>
<polygon fill="none" stroke="#000000" points="323,-360.5214 323,-382.5214 424,-382.5214 424,-360.5214 323,-360.5214"/>
<image xlink:href="../../images/foreignKeys.png" width="11px" height="12px" preserveAspectRatio="xMinYMin meet" x="328" y="-377.521"/>
<text text-anchor="start" x="343" y="-367.6214" font-family="Helvetica,sans-Serif" font-size="11.00" fill="#000000">notice_id</text>
<polygon fill="none" stroke="#000000" points="424,-360.5214 424,-382.5214 491,-382.5214 491,-360.5214 424,-360.5214"/>
<text text-anchor="start" x="427" y="-368.2214" font-family="Helvetica,sans-Serif" font-size="11.00" fill="#000000">int8[19]</text>
<polygon fill="#ffffff" stroke="transparent" points="323,-341.5214 323,-360.5214 378,-360.5214 378,-341.5214 323,-341.5214"/>
<polygon fill="none" stroke="#000000" points="323,-341.5214 323,-360.5214 378,-360.5214 378,-341.5214 323,-341.5214"/>
<text text-anchor="start" x="326" y="-347.6214" font-family="Helvetica,sans-Serif" font-size="11.00" fill="#000000">&lt; 2</text>
<polygon fill="#ffffff" stroke="transparent" points="378,-341.5214 378,-360.5214 424,-360.5214 424,-341.5214 378,-341.5214"/>
<polygon fill="none" stroke="#000000" points="378,-341.5214 378,-360.5214 424,-360.5214 424,-341.5214 378,-341.5214"/>
<text text-anchor="start" x="414.8862" y="-347.6214" font-family="Helvetica,sans-Serif" font-size="11.00" fill="#000000"> &#160;</text>
<polygon fill="#ffffff" stroke="transparent" points="424,-341.5214 424,-360.5214 491,-360.5214 491,-341.5214 424,-341.5214"/>
<polygon fill="none" stroke="#000000" points="424,-341.5214 424,-360.5214 491,-360.5214 491,-341.5214 424,-341.5214"/>
<text text-anchor="start" x="472.4053" y="-347.6214" font-family="Helvetica,sans-Serif" font-size="11.00" fill="#000000">0 &gt;</text>
<polygon fill="none" stroke="#000000" stroke-width="2" points="322,-340.5214 322,-494.5214 492,-494.5214 492,-340.5214 322,-340.5214"/>
</a>
</g>
</g>
<!-- notice_entity&#45;&gt;entity_type -->
<g id="edge6" class="edge">
<title>notice_entity:w&#45;&gt;entity_type:e</title>
<path fill="none" stroke="#000000" d="M309.1506,-419.8294C299.0333,-427.7384 297.4134,-444.3304 280,-450.5214 226.8168,-469.4298 205.2684,-471.8285 153,-450.5214 127.0977,-439.9624 135.9718,-406.5214 108,-406.5214"/>
<polygon fill="#000000" stroke="#000000" points="315.361,-417.8976 324.0693,-418.959 319.1805,-416.7095 323,-415.5214 323,-415.5214 323,-415.5214 319.1805,-416.7095 321.9307,-412.0839 315.361,-417.8976 315.361,-417.8976"/>
<ellipse fill="none" stroke="#000000" cx="312.3054" cy="-418.8481" rx="3.2" ry="3.2"/>
</g>
<!-- notice_entity&#45;&gt;notice -->
<g id="edge7" class="edge">
<title>notice_entity:w&#45;&gt;notice:e</title>
<path fill="none" stroke="#000000" d="M309.0763,-366.7435C294.8824,-354.6025 297.4176,-323.5214 272.5,-323.5214"/>
<polygon fill="#000000" stroke="#000000" points="315.4331,-368.9248 321.8315,-374.9265 319.2166,-370.2231 323,-371.5214 323,-371.5214 323,-371.5214 319.2166,-370.2231 324.1685,-368.1163 315.4331,-368.9248 315.4331,-368.9248"/>
<ellipse fill="none" stroke="#000000" cx="312.4063" cy="-367.8862" rx="3.2" ry="3.2"/>
</g>
<!-- transaction -->
<g id="node8" class="node">
<title>transaction</title>
<g id="a_node8"><a xlink:href="../../tables/transaction.html" xlink:title="transaction" target="_top">
<polygon fill="#ffffff" stroke="transparent" points="168.5,-61.0214 168.5,-122.0214 264.5,-122.0214 264.5,-61.0214 168.5,-61.0214"/>
<polygon fill="#f5f5f5" stroke="transparent" points="168.5,-98.5214 168.5,-121.5214 264.5,-121.5214 264.5,-98.5214 168.5,-98.5214"/>
<polygon fill="none" stroke="#000000" points="168.5,-98.5214 168.5,-121.5214 264.5,-121.5214 264.5,-98.5214 168.5,-98.5214"/>
<text text-anchor="start" x="173.1044" y="-107.6214" font-family="Helvetica,sans-Serif" font-weight="bold" font-size="11.00" fill="#000000">transaction</text>
<text text-anchor="start" x="230.0219" y="-106.6214" font-family="Helvetica,sans-Serif" font-size="11.00" fill="#000000">[table]</text>
<polygon fill="none" stroke="#000000" points="168.5,-79.5214 168.5,-98.5214 264.5,-98.5214 264.5,-79.5214 168.5,-79.5214"/>
<text text-anchor="start" x="171.5" y="-85.6214" font-family="Helvetica,sans-Serif" font-size="11.00" fill="#000000">...</text>
<polygon fill="#ffffff" stroke="transparent" points="168.5,-60.5214 168.5,-79.5214 214.5,-79.5214 214.5,-60.5214 168.5,-60.5214"/>
<polygon fill="none" stroke="#000000" points="168.5,-60.5214 168.5,-79.5214 214.5,-79.5214 214.5,-60.5214 168.5,-60.5214"/>
<text text-anchor="start" x="171.5" y="-66.6214" font-family="Helvetica,sans-Serif" font-size="11.00" fill="#000000">&lt; 3</text>
<polygon fill="#ffffff" stroke="transparent" points="214.5,-60.5214 214.5,-79.5214 239.5,-79.5214 239.5,-60.5214 214.5,-60.5214"/>
<polygon fill="none" stroke="#000000" points="214.5,-60.5214 214.5,-79.5214 239.5,-79.5214 239.5,-60.5214 214.5,-60.5214"/>
<text text-anchor="start" x="230.3862" y="-66.6214" font-family="Helvetica,sans-Serif" font-size="11.00" fill="#000000"> &#160;</text>
<polygon fill="#ffffff" stroke="transparent" points="239.5,-60.5214 239.5,-79.5214 264.5,-79.5214 264.5,-60.5214 239.5,-60.5214"/>
<polygon fill="none" stroke="#000000" points="239.5,-60.5214 239.5,-79.5214 264.5,-79.5214 264.5,-60.5214 239.5,-60.5214"/>
<text text-anchor="start" x="255.3862" y="-66.6214" font-family="Helvetica,sans-Serif" font-size="11.00" fill="#000000"> &#160;</text>
</a>
</g>
</g>
<!-- transaction&#45;&gt;entity_type -->
<g id="edge10" class="edge">
<title>transaction:w&#45;&gt;entity_type:e</title>
<path fill="none" stroke="#000000" d="M154.9228,-93.5165C108.0853,-133.9729 174.5953,-406.5214 108,-406.5214"/>
<polygon fill="#000000" stroke="#000000" points="160.992,-91.2837 169.743,-91.9 164.746,-89.9025 168.5,-88.5214 168.5,-88.5214 168.5,-88.5214 164.746,-89.9025 167.257,-85.1428 160.992,-91.2837 160.992,-91.2837"/>
<ellipse fill="none" stroke="#000000" cx="157.9888" cy="-92.3885" rx="3.2" ry="3.2"/>
</g>
<!-- transaction&#45;&gt;user -->
<g id="edge8" class="edge">
<title>transaction:w&#45;&gt;user:e</title>
<path fill="none" stroke="#000000" d="M154.2356,-86.1484C131.2212,-82.6679 120.6875,-83.4589 92,-88.5214"/>
<polygon fill="#000000" stroke="#000000" points="160.6085,-87.2085 167.9092,-92.0726 164.5542,-87.865 168.5,-88.5214 168.5,-88.5214 168.5,-88.5214 164.5542,-87.865 169.0908,-84.9702 160.6085,-87.2085 160.6085,-87.2085"/>
<ellipse fill="none" stroke="#000000" cx="157.4518" cy="-86.6834" rx="3.2" ry="3.2"/>
</g>
<!-- transaction&#45;&gt;user -->
<g id="edge9" class="edge">
<title>transaction:w&#45;&gt;user:e</title>
<path fill="none" stroke="#000000" d="M154.2356,-91.29C131.2212,-95.3505 120.6875,-94.4277 92,-88.5214"/>
<polygon fill="#000000" stroke="#000000" points="160.6466,-90.0457 169.1859,-92.0555 164.5733,-89.2836 168.5,-88.5214 168.5,-88.5214 168.5,-88.5214 164.5733,-89.2836 167.8141,-84.9874 160.6466,-90.0457 160.6466,-90.0457"/>
<ellipse fill="none" stroke="#000000" cx="157.5052" cy="-90.6555" rx="3.2" ry="3.2"/>
</g>
</g>
</svg>
