<?xml version="1.0" encoding="UTF-8" standalone="no"?>
<!DOCTYPE svg PUBLIC "-//W3C//DTD SVG 1.1//EN"
 "http://www.w3.org/Graphics/SVG/1.1/DTD/svg11.dtd">
<!-- Generated by graphviz version 2.40.1 (20161225.0304)
 -->
<!-- Title: oneDegreeRelationshipsDiagram Pages: 1 -->
<svg width="602pt" height="563pt"
 viewBox="0.00 0.00 602.00 562.70" xmlns="http://www.w3.org/2000/svg" xmlns:xlink="http://www.w3.org/1999/xlink">
<g id="graph0" class="graph" transform="scale(1 1) rotate(0) translate(4 558.7)">
<title>oneDegreeRelationshipsDiagram</title>
<polygon fill="#ffffff" stroke="transparent" points="-4,4 -4,-558.7 598,-558.7 598,4 -4,4"/>
<text text-anchor="middle" x="72.4936" y="-7.3" font-family="Helvetica,sans-Serif" font-size="11.00" fill="#000000">Generated by SchemaSpy</text>
<!-- notice -->
<g id="node1" class="node">
<title>notice</title>
<g id="a_node1"><a xlink:href="../../tables/notice.html" xlink:title="notice" target="_top">
<polygon fill="#ffffff" stroke="transparent" points="224,-242.7 224,-464.7 433,-464.7 433,-242.7 224,-242.7"/>
<polygon fill="#f5f5f5" stroke="transparent" points="226.5,-439.7 226.5,-462.7 431.5,-462.7 431.5,-439.7 226.5,-439.7"/>
<polygon fill="none" stroke="#000000" points="226.5,-439.7 226.5,-462.7 431.5,-462.7 431.5,-439.7 226.5,-439.7"/>
<text text-anchor="start" x="231.5" y="-448.8" font-family="Helvetica,sans-Serif" font-weight="bold" font-size="11.00" fill="#000000">notice</text>
<text text-anchor="start" x="396.5437" y="-447.8" font-family="Helvetica,sans-Serif" font-size="11.00" fill="#000000">[table]</text>
<polygon fill="none" stroke="#000000" points="226.5,-417.7 226.5,-439.7 337.5,-439.7 337.5,-417.7 226.5,-417.7"/>
<image xlink:href="../../images/primaryKeys.png" width="11px" height="12px" preserveAspectRatio="xMinYMin meet" x="231.5" y="-434.7"/>
<text text-anchor="start" x="246.5" y="-424.8" font-family="Helvetica,sans-Serif" font-size="11.00" fill="#000000">id</text>
<polygon fill="none" stroke="#000000" points="337.5,-417.7 337.5,-439.7 431.5,-439.7 431.5,-417.7 337.5,-417.7"/>
<text text-anchor="start" x="340.5" y="-425.4" font-family="Helvetica,sans-Serif" font-size="11.00" fill="#000000">bigserial[19]</text>
<polygon fill="#ffffff" stroke="transparent" points="226.5,-395.7 226.5,-417.7 337.5,-417.7 337.5,-395.7 226.5,-395.7"/>
<polygon fill="none" stroke="#000000" points="226.5,-395.7 226.5,-417.7 337.5,-417.7 337.5,-395.7 226.5,-395.7"/>
<text text-anchor="start" x="246.5" y="-402.8" font-family="Helvetica,sans-Serif" font-size="11.00" fill="#000000">uuid</text>
<polygon fill="none" stroke="#000000" points="337.5,-395.7 337.5,-417.7 431.5,-417.7 431.5,-395.7 337.5,-395.7"/>
<text text-anchor="start" x="340.4758" y="-403.4" font-family="Helvetica,sans-Serif" font-size="11.00" fill="#000000">uuid[2147483647]</text>
<polygon fill="none" stroke="#000000" points="226.5,-373.7 226.5,-395.7 337.5,-395.7 337.5,-373.7 226.5,-373.7"/>
<text text-anchor="start" x="246.5" y="-380.8" font-family="Helvetica,sans-Serif" font-size="11.00" fill="#000000">created_at</text>
<polygon fill="none" stroke="#000000" points="337.5,-373.7 337.5,-395.7 431.5,-395.7 431.5,-373.7 337.5,-373.7"/>
<text text-anchor="start" x="340.5" y="-381.4" font-family="Helvetica,sans-Serif" font-size="11.00" fill="#000000">timestamptz[35,6]</text>
<polygon fill="#ffffff" stroke="transparent" points="226.5,-351.7 226.5,-373.7 337.5,-373.7 337.5,-351.7 226.5,-351.7"/>
<polygon fill="none" stroke="#000000" points="226.5,-351.7 226.5,-373.7 337.5,-373.7 337.5,-351.7 226.5,-351.7"/>
<text text-anchor="start" x="246.5" y="-358.8" font-family="Helvetica,sans-Serif" font-size="11.00" fill="#000000">updated_at</text>
<polygon fill="none" stroke="#000000" points="337.5,-351.7 337.5,-373.7 431.5,-373.7 431.5,-351.7 337.5,-351.7"/>
<text text-anchor="start" x="340.5" y="-359.4" font-family="Helvetica,sans-Serif" font-size="11.00" fill="#000000">timestamptz[35,6]</text>
<polygon fill="#ffffff" stroke="transparent" points="226.5,-329.7 226.5,-351.7 337.5,-351.7 337.5,-329.7 226.5,-329.7"/>
<polygon fill="none" stroke="#000000" points="226.5,-329.7 226.5,-351.7 337.5,-351.7 337.5,-329.7 226.5,-329.7"/>
<text text-anchor="start" x="246.5" y="-336.8" font-family="Helvetica,sans-Serif" font-size="11.00" fill="#000000">unread</text>
<polygon fill="none" stroke="#000000" points="337.5,-329.7 337.5,-351.7 431.5,-351.7 431.5,-329.7 337.5,-329.7"/>
<text text-anchor="start" x="340.5" y="-337.4" font-family="Helvetica,sans-Serif" font-size="11.00" fill="#000000">bool[1]</text>
<polygon fill="#ffffff" stroke="transparent" points="226.5,-307.7 226.5,-329.7 337.5,-329.7 337.5,-307.7 226.5,-307.7"/>
<polygon fill="none" stroke="#000000" points="226.5,-307.7 226.5,-329.7 337.5,-329.7 337.5,-307.7 226.5,-307.7"/>
<text text-anchor="start" x="246.5" y="-314.8" font-family="Helvetica,sans-Serif" font-size="11.00" fill="#000000">deleted</text>
<polygon fill="none" stroke="#000000" points="337.5,-307.7 337.5,-329.7 431.5,-329.7 431.5,-307.7 337.5,-307.7"/>
<text text-anchor="start" x="340.5" y="-315.4" font-family="Helvetica,sans-Serif" font-size="11.00" fill="#000000">bool[1]</text>
<polygon fill="#ffffff" stroke="transparent" points="226.5,-285.7 226.5,-307.7 337.5,-307.7 337.5,-285.7 226.5,-285.7"/>
<polygon fill="none" stroke="#000000" points="226.5,-285.7 226.5,-307.7 337.5,-307.7 337.5,-285.7 226.5,-285.7"/>
<image xlink:href="../../images/foreignKeys.png" width="11px" height="12px" preserveAspectRatio="xMinYMin meet" x="231.5" y="-302.7"/>
<text text-anchor="start" x="246.5" y="-292.8" font-family="Helvetica,sans-Serif" font-size="11.00" fill="#000000">notice_detail_id</text>
<polygon fill="none" stroke="#000000" points="337.5,-285.7 337.5,-307.7 431.5,-307.7 431.5,-285.7 337.5,-285.7"/>
<text text-anchor="start" x="340.5" y="-293.4" font-family="Helvetica,sans-Serif" font-size="11.00" fill="#000000">int8[19]</text>
<polygon fill="#ffffff" stroke="transparent" points="226.5,-263.7 226.5,-285.7 337.5,-285.7 337.5,-263.7 226.5,-263.7"/>
<polygon fill="none" stroke="#000000" points="226.5,-263.7 226.5,-285.7 337.5,-285.7 337.5,-263.7 226.5,-263.7"/>
<image xlink:href="../../images/foreignKeys.png" width="11px" height="12px" preserveAspectRatio="xMinYMin meet" x="231.5" y="-280.7"/>
<text text-anchor="start" x="246.5" y="-270.8" font-family="Helvetica,sans-Serif" font-size="11.00" fill="#000000">recipient_id</text>
<polygon fill="none" stroke="#000000" points="337.5,-263.7 337.5,-285.7 431.5,-285.7 431.5,-263.7 337.5,-263.7"/>
<text text-anchor="start" x="340.5" y="-271.4" font-family="Helvetica,sans-Serif" font-size="11.00" fill="#000000">int8[19]</text>
<polygon fill="#ffffff" stroke="transparent" points="226.5,-244.7 226.5,-263.7 286.5,-263.7 286.5,-244.7 226.5,-244.7"/>
<polygon fill="none" stroke="#000000" points="226.5,-244.7 226.5,-263.7 286.5,-263.7 286.5,-244.7 226.5,-244.7"/>
<text text-anchor="start" x="229.5" y="-250.8" font-family="Helvetica,sans-Serif" font-size="11.00" fill="#000000">&lt; 2</text>
<polygon fill="#ffffff" stroke="transparent" points="286.5,-244.7 286.5,-263.7 337.5,-263.7 337.5,-244.7 286.5,-244.7"/>
<polygon fill="none" stroke="#000000" points="286.5,-244.7 286.5,-263.7 337.5,-263.7 337.5,-244.7 286.5,-244.7"/>
<text text-anchor="start" x="328.3862" y="-250.8" font-family="Helvetica,sans-Serif" font-size="11.00" fill="#000000"> &#160;</text>
<polygon fill="#ffffff" stroke="transparent" points="337.5,-244.7 337.5,-263.7 431.5,-263.7 431.5,-244.7 337.5,-244.7"/>
<polygon fill="none" stroke="#000000" points="337.5,-244.7 337.5,-263.7 431.5,-263.7 431.5,-244.7 337.5,-244.7"/>
<text text-anchor="start" x="412.9053" y="-250.8" font-family="Helvetica,sans-Serif" font-size="11.00" fill="#000000">2 &gt;</text>
<polygon fill="none" stroke="#000000" stroke-width="2" points="225,-243.7 225,-463.7 432,-463.7 432,-243.7 225,-243.7"/>
</a>
</g>
</g>
<!-- notice_detail -->
<g id="node2" class="node">
<title>notice_detail</title>
<g id="a_node2"><a xlink:href="../../tables/notice_detail.html" xlink:title="notice_detail" target="_top">
<polygon fill="#ffffff" stroke="transparent" points="39.5,-274.2 39.5,-379.2 143.5,-379.2 143.5,-274.2 39.5,-274.2"/>
<polygon fill="#f5f5f5" stroke="transparent" points="39.5,-355.7 39.5,-378.7 143.5,-378.7 143.5,-355.7 39.5,-355.7"/>
<polygon fill="none" stroke="#000000" points="39.5,-355.7 39.5,-378.7 143.5,-378.7 143.5,-355.7 39.5,-355.7"/>
<text text-anchor="start" x="44.1296" y="-364.8" font-family="Helvetica,sans-Serif" font-weight="bold" font-size="11.00" fill="#000000">notice_detail</text>
<text text-anchor="start" x="109.0219" y="-363.8" font-family="Helvetica,sans-Serif" font-size="11.00" fill="#000000">[table]</text>
<polygon fill="none" stroke="#000000" points="39.5,-333.7 39.5,-355.7 143.5,-355.7 143.5,-333.7 39.5,-333.7"/>
<image xlink:href="../../images/primaryKeys.png" width="11px" height="12px" preserveAspectRatio="xMinYMin meet" x="44.5" y="-350.7"/>
<text text-anchor="start" x="64.5" y="-340.8" font-family="Helvetica,sans-Serif" font-size="11.00" fill="#000000">id</text>
<polygon fill="#ffffff" stroke="transparent" points="39.5,-311.7 39.5,-333.7 143.5,-333.7 143.5,-311.7 39.5,-311.7"/>
<polygon fill="none" stroke="#000000" points="39.5,-311.7 39.5,-333.7 143.5,-333.7 143.5,-311.7 39.5,-311.7"/>
<text text-anchor="start" x="64.5" y="-318.8" font-family="Helvetica,sans-Serif" font-size="11.00" fill="#000000">notice_type</text>
<polygon fill="none" stroke="#000000" points="39.5,-292.7 39.5,-311.7 143.5,-311.7 143.5,-292.7 39.5,-292.7"/>
<text text-anchor="start" x="42.5" y="-298.8" font-family="Helvetica,sans-Serif" font-size="11.00" fill="#000000">...</text>
<polygon fill="#ffffff" stroke="transparent" points="39.5,-273.7 39.5,-292.7 80.5,-292.7 80.5,-273.7 39.5,-273.7"/>
<polygon fill="none" stroke="#000000" points="39.5,-273.7 39.5,-292.7 80.5,-292.7 80.5,-273.7 39.5,-273.7"/>
<text text-anchor="start" x="42.5" y="-279.8" font-family="Helvetica,sans-Serif" font-size="11.00" fill="#000000"> &#160;</text>
<polygon fill="#ffffff" stroke="transparent" points="80.5,-273.7 80.5,-292.7 107.5,-292.7 107.5,-273.7 80.5,-273.7"/>
<polygon fill="none" stroke="#000000" points="80.5,-273.7 80.5,-292.7 107.5,-292.7 107.5,-273.7 80.5,-273.7"/>
<text text-anchor="start" x="98.3862" y="-279.8" font-family="Helvetica,sans-Serif" font-size="11.00" fill="#000000"> &#160;</text>
<polygon fill="#ffffff" stroke="transparent" points="107.5,-273.7 107.5,-292.7 143.5,-292.7 143.5,-273.7 107.5,-273.7"/>
<polygon fill="none" stroke="#000000" points="107.5,-273.7 107.5,-292.7 143.5,-292.7 143.5,-273.7 107.5,-273.7"/>
<text text-anchor="start" x="124.9053" y="-279.8" font-family="Helvetica,sans-Serif" font-size="11.00" fill="#000000">1 &gt;</text>
</a>
</g>
</g>
<!-- notice&#45;&gt;notice_detail -->
<g id="edge1" class="edge">
<title>notice:w&#45;&gt;notice_detail:e</title>
<path fill="none" stroke="#000000" d="M212.0638,-298.8872C183.7156,-308.2774 180.6203,-344.7 143.5,-344.7"/>
<polygon fill="#000000" stroke="#000000" points="218.5903,-297.8984 227.0393,-300.2594 222.5451,-297.2992 226.5,-296.7 226.5,-296.7 226.5,-296.7 222.5451,-297.2992 225.9607,-293.1406 218.5903,-297.8984 218.5903,-297.8984"/>
<ellipse fill="none" stroke="#000000" cx="215.4264" cy="-298.3778" rx="3.2" ry="3.2"/>
</g>
<!-- user -->
<g id="node3" class="node">
<title>user</title>
<g id="a_node3"><a xlink:href="../../tables/user.html" xlink:title="user" target="_top">
<polygon fill="#ffffff" stroke="transparent" points="8,-38.2 8,-253.2 175,-253.2 175,-38.2 8,-38.2"/>
<polygon fill="#f5f5f5" stroke="transparent" points="8.5,-229.7 8.5,-252.7 175.5,-252.7 175.5,-229.7 8.5,-229.7"/>
<polygon fill="none" stroke="#000000" points="8.5,-229.7 8.5,-252.7 175.5,-252.7 175.5,-229.7 8.5,-229.7"/>
<text text-anchor="start" x="13.5" y="-238.8" font-family="Helvetica,sans-Serif" font-weight="bold" font-size="11.00" fill="#000000">user</text>
<text text-anchor="start" x="140.5437" y="-237.8" font-family="Helvetica,sans-Serif" font-size="11.00" fill="#000000">[table]</text>
<polygon fill="none" stroke="#000000" points="8.5,-207.7 8.5,-229.7 175.5,-229.7 175.5,-207.7 8.5,-207.7"/>
<image xlink:href="../../images/primaryKeys.png" width="11px" height="12px" preserveAspectRatio="xMinYMin meet" x="13.5" y="-224.7"/>
<text text-anchor="start" x="28.5" y="-214.8" font-family="Helvetica,sans-Serif" font-size="11.00" fill="#000000">id</text>
<polygon fill="#ffffff" stroke="transparent" points="8.5,-185.7 8.5,-207.7 175.5,-207.7 175.5,-185.7 8.5,-185.7"/>
<polygon fill="none" stroke="#000000" points="8.5,-185.7 8.5,-207.7 175.5,-207.7 175.5,-185.7 8.5,-185.7"/>
<text text-anchor="start" x="28.5" y="-192.8" font-family="Helvetica,sans-Serif" font-size="11.00" fill="#000000">uuid</text>
<polygon fill="#ffffff" stroke="transparent" points="8.5,-163.7 8.5,-185.7 175.5,-185.7 175.5,-163.7 8.5,-163.7"/>
<polygon fill="none" stroke="#000000" points="8.5,-163.7 8.5,-185.7 175.5,-185.7 175.5,-163.7 8.5,-163.7"/>
<text text-anchor="start" x="28.5" y="-170.8" font-family="Helvetica,sans-Serif" font-size="11.00" fill="#000000">user_name</text>
<polygon fill="none" stroke="#000000" points="8.5,-141.7 8.5,-163.7 175.5,-163.7 175.5,-141.7 8.5,-141.7"/>
<image xlink:href="../../images/foreignKeys.png" width="11px" height="12px" preserveAspectRatio="xMinYMin meet" x="13.5" y="-158.7"/>
<text text-anchor="start" x="28.5" y="-148.8" font-family="Helvetica,sans-Serif" font-size="11.00" fill="#000000">avatar</text>
<polygon fill="#ffffff" stroke="transparent" points="8.5,-119.7 8.5,-141.7 175.5,-141.7 175.5,-119.7 8.5,-119.7"/>
<polygon fill="none" stroke="#000000" points="8.5,-119.7 8.5,-141.7 175.5,-141.7 175.5,-119.7 8.5,-119.7"/>
<text text-anchor="start" x="28.5" y="-126.8" font-family="Helvetica,sans-Serif" font-size="11.00" fill="#000000">email</text>
<polygon fill="#ffffff" stroke="transparent" points="8.5,-97.7 8.5,-119.7 175.5,-119.7 175.5,-97.7 8.5,-97.7"/>
<polygon fill="none" stroke="#000000" points="8.5,-97.7 8.5,-119.7 175.5,-119.7 175.5,-97.7 8.5,-97.7"/>
<text text-anchor="start" x="28.5" y="-104.8" font-family="Helvetica,sans-Serif" font-size="11.00" fill="#000000">state</text>
<polygon fill="#ffffff" stroke="transparent" points="8.5,-75.7 8.5,-97.7 175.5,-97.7 175.5,-75.7 8.5,-75.7"/>
<polygon fill="none" stroke="#000000" points="8.5,-75.7 8.5,-97.7 175.5,-97.7 175.5,-75.7 8.5,-75.7"/>
<text text-anchor="start" x="28.5" y="-82.8" font-family="Helvetica,sans-Serif" font-size="11.00" fill="#000000">liker_id</text>
<polygon fill="none" stroke="#000000" points="8.5,-56.7 8.5,-75.7 175.5,-75.7 175.5,-56.7 8.5,-56.7"/>
<text text-anchor="start" x="11.5" y="-62.8" font-family="Helvetica,sans-Serif" font-size="11.00" fill="#000000">...</text>
<polygon fill="#ffffff" stroke="transparent" points="8.5,-37.7 8.5,-56.7 82.5,-56.7 82.5,-37.7 8.5,-37.7"/>
<polygon fill="none" stroke="#000000" points="8.5,-37.7 8.5,-56.7 82.5,-56.7 82.5,-37.7 8.5,-37.7"/>
<text text-anchor="start" x="11.5" y="-43.8" font-family="Helvetica,sans-Serif" font-size="11.00" fill="#000000">&lt; 1</text>
<polygon fill="#ffffff" stroke="transparent" points="82.5,-37.7 82.5,-56.7 121.5,-56.7 121.5,-37.7 82.5,-37.7"/>
<polygon fill="none" stroke="#000000" points="82.5,-37.7 82.5,-56.7 121.5,-56.7 121.5,-37.7 82.5,-37.7"/>
<text text-anchor="start" x="112.3862" y="-43.8" font-family="Helvetica,sans-Serif" font-size="11.00" fill="#000000"> &#160;</text>
<polygon fill="#ffffff" stroke="transparent" points="121.5,-37.7 121.5,-56.7 175.5,-56.7 175.5,-37.7 121.5,-37.7"/>
<polygon fill="none" stroke="#000000" points="121.5,-37.7 121.5,-56.7 175.5,-56.7 175.5,-37.7 121.5,-37.7"/>
<text text-anchor="start" x="150.7904" y="-43.8" font-family="Helvetica,sans-Serif" font-size="11.00" fill="#000000">42 &gt;</text>
</a>
</g>
</g>
<!-- notice&#45;&gt;user -->
<g id="edge2" class="edge">
<title>notice:w&#45;&gt;user:e</title>
<path fill="none" stroke="#000000" d="M212.6154,-269.9255C197.0899,-256.3831 203.1146,-218.7 175.5,-218.7"/>
<polygon fill="#000000" stroke="#000000" points="218.9348,-272.0985 225.3293,-278.1043 222.7174,-273.3992 226.5,-274.7 226.5,-274.7 226.5,-274.7 222.7174,-273.3992 227.6707,-271.2957 218.9348,-272.0985 218.9348,-272.0985"/>
<ellipse fill="none" stroke="#000000" cx="215.9087" cy="-271.0579" rx="3.2" ry="3.2"/>
</g>
<!-- notice_actor -->
<g id="node4" class="node">
<title>notice_actor</title>
<g id="a_node4"><a xlink:href="../../tables/notice_actor.html" xlink:title="notice_actor" target="_top">
<polygon fill="#ffffff" stroke="transparent" points="483,-199.2 483,-326.2 585,-326.2 585,-199.2 483,-199.2"/>
<polygon fill="#f5f5f5" stroke="transparent" points="483,-302.7 483,-325.7 585,-325.7 585,-302.7 483,-302.7"/>
<polygon fill="none" stroke="#000000" points="483,-302.7 483,-325.7 585,-325.7 585,-302.7 483,-302.7"/>
<text text-anchor="start" x="487.547" y="-311.8" font-family="Helvetica,sans-Serif" font-weight="bold" font-size="11.00" fill="#000000">notice_actor</text>
<text text-anchor="start" x="550.5219" y="-310.8" font-family="Helvetica,sans-Serif" font-size="11.00" fill="#000000">[table]</text>
<polygon fill="none" stroke="#000000" points="483,-280.7 483,-302.7 585,-302.7 585,-280.7 483,-280.7"/>
<image xlink:href="../../images/primaryKeys.png" width="11px" height="12px" preserveAspectRatio="xMinYMin meet" x="488" y="-297.7"/>
<text text-anchor="start" x="508" y="-287.8" font-family="Helvetica,sans-Serif" font-size="11.00" fill="#000000">id</text>
<polygon fill="#ffffff" stroke="transparent" points="483,-258.7 483,-280.7 585,-280.7 585,-258.7 483,-258.7"/>
<polygon fill="none" stroke="#000000" points="483,-258.7 483,-280.7 585,-280.7 585,-258.7 483,-258.7"/>
<image xlink:href="../../images/foreignKeys.png" width="11px" height="12px" preserveAspectRatio="xMinYMin meet" x="488" y="-275.7"/>
<text text-anchor="start" x="508" y="-265.8" font-family="Helvetica,sans-Serif" font-size="11.00" fill="#000000">actor_id</text>
<polygon fill="#ffffff" stroke="transparent" points="483,-236.7 483,-258.7 585,-258.7 585,-236.7 483,-236.7"/>
<polygon fill="none" stroke="#000000" points="483,-236.7 483,-258.7 585,-258.7 585,-236.7 483,-236.7"/>
<image xlink:href="../../images/foreignKeys.png" width="11px" height="12px" preserveAspectRatio="xMinYMin meet" x="488" y="-253.7"/>
<text text-anchor="start" x="508" y="-243.8" font-family="Helvetica,sans-Serif" font-size="11.00" fill="#000000">notice_id</text>
<polygon fill="none" stroke="#000000" points="483,-217.7 483,-236.7 585,-236.7 585,-217.7 483,-217.7"/>
<text text-anchor="start" x="486" y="-223.8" font-family="Helvetica,sans-Serif" font-size="11.00" fill="#000000">...</text>
<polygon fill="#ffffff" stroke="transparent" points="483,-198.7 483,-217.7 532,-217.7 532,-198.7 483,-198.7"/>
<polygon fill="none" stroke="#000000" points="483,-198.7 483,-217.7 532,-217.7 532,-198.7 483,-198.7"/>
<text text-anchor="start" x="486" y="-204.8" font-family="Helvetica,sans-Serif" font-size="11.00" fill="#000000">&lt; 2</text>
<polygon fill="#ffffff" stroke="transparent" points="532,-198.7 532,-217.7 558,-217.7 558,-198.7 532,-198.7"/>
<polygon fill="none" stroke="#000000" points="532,-198.7 532,-217.7 558,-217.7 558,-198.7 532,-198.7"/>
<text text-anchor="start" x="548.8862" y="-204.8" font-family="Helvetica,sans-Serif" font-size="11.00" fill="#000000"> &#160;</text>
<polygon fill="#ffffff" stroke="transparent" points="558,-198.7 558,-217.7 585,-217.7 585,-198.7 558,-198.7"/>
<polygon fill="none" stroke="#000000" points="558,-198.7 558,-217.7 585,-217.7 585,-198.7 558,-198.7"/>
<text text-anchor="start" x="575.8862" y="-204.8" font-family="Helvetica,sans-Serif" font-size="11.00" fill="#000000"> &#160;</text>
</a>
</g>
</g>
<!-- notice_actor&#45;&gt;notice -->
<g id="edge4" class="edge">
<title>notice_actor:w&#45;&gt;notice:e</title>
<path fill="none" stroke="#000000" d="M468.516,-250.1218C414.2594,-271.6003 509.42,-428.7 431.5,-428.7"/>
<polygon fill="#000000" stroke="#000000" points="475.1095,-249.0194 483.5937,-251.2507 479.0548,-248.3597 483,-247.7 483,-247.7 483,-247.7 479.0548,-248.3597 482.4063,-244.1493 475.1095,-249.0194 475.1095,-249.0194"/>
<ellipse fill="none" stroke="#000000" cx="471.9534" cy="-249.5471" rx="3.2" ry="3.2"/>
</g>
<!-- notice_actor&#45;&gt;user -->
<g id="edge3" class="edge">
<title>notice_actor:w&#45;&gt;user:e</title>
<path fill="none" stroke="#000000" d="M469.1816,-265.2405C459.2691,-257.0371 458.2748,-239.7492 441,-232.7 331.5943,-188.0557 293.6639,-218.7 175.5,-218.7"/>
<polygon fill="#000000" stroke="#000000" points="475.3866,-267.243 481.8943,-273.126 479.1933,-268.4715 483,-269.7 483,-269.7 483,-269.7 479.1933,-268.4715 484.1057,-266.274 475.3866,-267.243 475.3866,-267.243"/>
<ellipse fill="none" stroke="#000000" cx="472.3413" cy="-266.2601" rx="3.2" ry="3.2"/>
</g>
<!-- notice_entity -->
<g id="node5" class="node">
<title>notice_entity</title>
<g id="a_node5"><a xlink:href="../../tables/notice_entity.html" xlink:title="notice_entity" target="_top">
<polygon fill="#ffffff" stroke="transparent" points="482,-398.7 482,-550.7 586,-550.7 586,-398.7 482,-398.7"/>
<polygon fill="#f5f5f5" stroke="transparent" points="482,-527.7 482,-550.7 586,-550.7 586,-527.7 482,-527.7"/>
<polygon fill="none" stroke="#000000" points="482,-527.7 482,-550.7 586,-550.7 586,-527.7 482,-527.7"/>
<text text-anchor="start" x="486.6291" y="-536.8" font-family="Helvetica,sans-Serif" font-weight="bold" font-size="11.00" fill="#000000">notice_entity</text>
<text text-anchor="start" x="551.5219" y="-535.8" font-family="Helvetica,sans-Serif" font-size="11.00" fill="#000000">[table]</text>
<polygon fill="none" stroke="#000000" points="482,-505.7 482,-527.7 586,-527.7 586,-505.7 482,-505.7"/>
<image xlink:href="../../images/primaryKeys.png" width="11px" height="12px" preserveAspectRatio="xMinYMin meet" x="487" y="-522.7"/>
<text text-anchor="start" x="504" y="-512.8" font-family="Helvetica,sans-Serif" font-size="11.00" fill="#000000">id</text>
<polygon fill="#ffffff" stroke="transparent" points="482,-483.7 482,-505.7 586,-505.7 586,-483.7 482,-483.7"/>
<polygon fill="none" stroke="#000000" points="482,-483.7 482,-505.7 586,-505.7 586,-483.7 482,-483.7"/>
<text text-anchor="start" x="504" y="-490.8" font-family="Helvetica,sans-Serif" font-size="11.00" fill="#000000">type</text>
<polygon fill="#ffffff" stroke="transparent" points="482,-461.7 482,-483.7 586,-483.7 586,-461.7 482,-461.7"/>
<polygon fill="none" stroke="#000000" points="482,-461.7 482,-483.7 586,-483.7 586,-461.7 482,-461.7"/>
<image xlink:href="../../images/foreignKeys.png" width="11px" height="12px" preserveAspectRatio="xMinYMin meet" x="487" y="-478.7"/>
<text text-anchor="start" x="504" y="-468.8" font-family="Helvetica,sans-Serif" font-size="11.00" fill="#000000">entity_type_id</text>
<polygon fill="#ffffff" stroke="transparent" points="482,-439.7 482,-461.7 586,-461.7 586,-439.7 482,-439.7"/>
<polygon fill="none" stroke="#000000" points="482,-439.7 482,-461.7 586,-461.7 586,-439.7 482,-439.7"/>
<text text-anchor="start" x="504" y="-446.8" font-family="Helvetica,sans-Serif" font-size="11.00" fill="#000000">entity_id</text>
<polygon fill="#ffffff" stroke="transparent" points="482,-417.7 482,-439.7 586,-439.7 586,-417.7 482,-417.7"/>
<polygon fill="none" stroke="#000000" points="482,-417.7 482,-439.7 586,-439.7 586,-417.7 482,-417.7"/>
<image xlink:href="../../images/foreignKeys.png" width="11px" height="12px" preserveAspectRatio="xMinYMin meet" x="487" y="-434.7"/>
<text text-anchor="start" x="504" y="-424.8" font-family="Helvetica,sans-Serif" font-size="11.00" fill="#000000">notice_id</text>
<polygon fill="#ffffff" stroke="transparent" points="482,-398.7 482,-417.7 532,-417.7 532,-398.7 482,-398.7"/>
<polygon fill="none" stroke="#000000" points="482,-398.7 482,-417.7 532,-417.7 532,-398.7 482,-398.7"/>
<text text-anchor="start" x="485" y="-404.8" font-family="Helvetica,sans-Serif" font-size="11.00" fill="#000000">&lt; 2</text>
<polygon fill="#ffffff" stroke="transparent" points="532,-398.7 532,-417.7 559,-417.7 559,-398.7 532,-398.7"/>
<polygon fill="none" stroke="#000000" points="532,-398.7 532,-417.7 559,-417.7 559,-398.7 532,-398.7"/>
<text text-anchor="start" x="549.8862" y="-404.8" font-family="Helvetica,sans-Serif" font-size="11.00" fill="#000000"> &#160;</text>
<polygon fill="#ffffff" stroke="transparent" points="559,-398.7 559,-417.7 586,-417.7 586,-398.7 559,-398.7"/>
<polygon fill="none" stroke="#000000" points="559,-398.7 559,-417.7 586,-417.7 586,-398.7 559,-398.7"/>
<text text-anchor="start" x="576.8862" y="-404.8" font-family="Helvetica,sans-Serif" font-size="11.00" fill="#000000"> &#160;</text>
</a>
</g>
</g>
<!-- notice_entity&#45;&gt;notice -->
<g id="edge5" class="edge">
<title>notice_entity:w&#45;&gt;notice:e</title>
<path fill="none" stroke="#000000" d="M467.4203,-428.7C455.5435,-428.7 448.158,-428.7 431.5,-428.7"/>
<polygon fill="#000000" stroke="#000000" points="474,-428.7001 482,-432.3 478,-428.7 482,-428.7 482,-428.7 482,-428.7 478,-428.7 482,-425.1 474,-428.7001 474,-428.7001"/>
<ellipse fill="none" stroke="#000000" cx="470.8" cy="-428.7001" rx="3.2" ry="3.2"/>
</g>
</g>
</svg>
