<?xml version="1.0" encoding="UTF-8" standalone="no"?>
<!DOCTYPE svg PUBLIC "-//W3C//DTD SVG 1.1//EN"
 "http://www.w3.org/Graphics/SVG/1.1/DTD/svg11.dtd">
<!-- Generated by graphviz version 2.40.1 (20161225.0304)
 -->
<!-- Title: oneDegreeRelationshipsDiagram Pages: 1 -->
<svg width="381pt" height="315pt"
 viewBox="0.00 0.00 381.00 314.70" xmlns="http://www.w3.org/2000/svg" xmlns:xlink="http://www.w3.org/1999/xlink">
<g id="graph0" class="graph" transform="scale(1 1) rotate(0) translate(4 310.7)">
<title>oneDegreeRelationshipsDiagram</title>
<polygon fill="#ffffff" stroke="transparent" points="-4,4 -4,-310.7 377,-310.7 377,4 -4,4"/>
<text text-anchor="middle" x="72.4936" y="-7.3" font-family="Helvetica,sans-Serif" font-size="11.00" fill="#000000">Generated by SchemaSpy</text>
<!-- notice -->
<g id="node1" class="node">
<title>notice</title>
<g id="a_node1"><a xlink:href="../../tables/notice.html" xlink:title="notice" target="_top">
<polygon fill="#ffffff" stroke="transparent" points="254,-87.7 254,-302.7 365,-302.7 365,-87.7 254,-87.7"/>
<polygon fill="#f5f5f5" stroke="transparent" points="254.5,-279.2 254.5,-302.2 365.5,-302.2 365.5,-279.2 254.5,-279.2"/>
<polygon fill="none" stroke="#000000" points="254.5,-279.2 254.5,-302.2 365.5,-302.2 365.5,-279.2 254.5,-279.2"/>
<text text-anchor="start" x="259.5" y="-288.3" font-family="Helvetica,sans-Serif" font-weight="bold" font-size="11.00" fill="#000000">notice</text>
<text text-anchor="start" x="330.5437" y="-287.3" font-family="Helvetica,sans-Serif" font-size="11.00" fill="#000000">[table]</text>
<polygon fill="none" stroke="#000000" points="254.5,-257.2 254.5,-279.2 365.5,-279.2 365.5,-257.2 254.5,-257.2"/>
<image xlink:href="../../images/primaryKeys.png" width="11px" height="12px" preserveAspectRatio="xMinYMin meet" x="259.5" y="-274.2"/>
<text text-anchor="start" x="274.5" y="-264.3" font-family="Helvetica,sans-Serif" font-size="11.00" fill="#000000">id</text>
<polygon fill="#ffffff" stroke="transparent" points="254.5,-235.2 254.5,-257.2 365.5,-257.2 365.5,-235.2 254.5,-235.2"/>
<polygon fill="none" stroke="#000000" points="254.5,-235.2 254.5,-257.2 365.5,-257.2 365.5,-235.2 254.5,-235.2"/>
<text text-anchor="start" x="274.5" y="-242.3" font-family="Helvetica,sans-Serif" font-size="11.00" fill="#000000">uuid</text>
<polygon fill="#ffffff" stroke="transparent" points="254.5,-213.2 254.5,-235.2 365.5,-235.2 365.5,-213.2 254.5,-213.2"/>
<polygon fill="none" stroke="#000000" points="254.5,-213.2 254.5,-235.2 365.5,-235.2 365.5,-213.2 254.5,-213.2"/>
<text text-anchor="start" x="274.5" y="-220.3" font-family="Helvetica,sans-Serif" font-size="11.00" fill="#000000">updated_at</text>
<polygon fill="#ffffff" stroke="transparent" points="254.5,-191.2 254.5,-213.2 365.5,-213.2 365.5,-191.2 254.5,-191.2"/>
<polygon fill="none" stroke="#000000" points="254.5,-191.2 254.5,-213.2 365.5,-213.2 365.5,-191.2 254.5,-191.2"/>
<text text-anchor="start" x="274.5" y="-198.3" font-family="Helvetica,sans-Serif" font-size="11.00" fill="#000000">unread</text>
<polygon fill="#ffffff" stroke="transparent" points="254.5,-169.2 254.5,-191.2 365.5,-191.2 365.5,-169.2 254.5,-169.2"/>
<polygon fill="none" stroke="#000000" points="254.5,-169.2 254.5,-191.2 365.5,-191.2 365.5,-169.2 254.5,-169.2"/>
<text text-anchor="start" x="274.5" y="-176.3" font-family="Helvetica,sans-Serif" font-size="11.00" fill="#000000">deleted</text>
<polygon fill="#ffffff" stroke="transparent" points="254.5,-147.2 254.5,-169.2 365.5,-169.2 365.5,-147.2 254.5,-147.2"/>
<polygon fill="none" stroke="#000000" points="254.5,-147.2 254.5,-169.2 365.5,-169.2 365.5,-147.2 254.5,-147.2"/>
<image xlink:href="../../images/foreignKeys.png" width="11px" height="12px" preserveAspectRatio="xMinYMin meet" x="259.5" y="-164.2"/>
<text text-anchor="start" x="274.5" y="-154.3" font-family="Helvetica,sans-Serif" font-size="11.00" fill="#000000">notice_detail_id</text>
<polygon fill="#ffffff" stroke="transparent" points="254.5,-125.2 254.5,-147.2 365.5,-147.2 365.5,-125.2 254.5,-125.2"/>
<polygon fill="none" stroke="#000000" points="254.5,-125.2 254.5,-147.2 365.5,-147.2 365.5,-125.2 254.5,-125.2"/>
<image xlink:href="../../images/foreignKeys.png" width="11px" height="12px" preserveAspectRatio="xMinYMin meet" x="259.5" y="-142.2"/>
<text text-anchor="start" x="274.5" y="-132.3" font-family="Helvetica,sans-Serif" font-size="11.00" fill="#000000">recipient_id</text>
<polygon fill="none" stroke="#000000" points="254.5,-106.2 254.5,-125.2 365.5,-125.2 365.5,-106.2 254.5,-106.2"/>
<text text-anchor="start" x="257.5" y="-112.3" font-family="Helvetica,sans-Serif" font-size="11.00" fill="#000000">...</text>
<polygon fill="#ffffff" stroke="transparent" points="254.5,-87.2 254.5,-106.2 303.5,-106.2 303.5,-87.2 254.5,-87.2"/>
<polygon fill="none" stroke="#000000" points="254.5,-87.2 254.5,-106.2 303.5,-106.2 303.5,-87.2 254.5,-87.2"/>
<text text-anchor="start" x="257.5" y="-93.3" font-family="Helvetica,sans-Serif" font-size="11.00" fill="#000000">&lt; 2</text>
<polygon fill="#ffffff" stroke="transparent" points="303.5,-87.2 303.5,-106.2 329.5,-106.2 329.5,-87.2 303.5,-87.2"/>
<polygon fill="none" stroke="#000000" points="303.5,-87.2 303.5,-106.2 329.5,-106.2 329.5,-87.2 303.5,-87.2"/>
<text text-anchor="start" x="320.3862" y="-93.3" font-family="Helvetica,sans-Serif" font-size="11.00" fill="#000000"> &#160;</text>
<polygon fill="#ffffff" stroke="transparent" points="329.5,-87.2 329.5,-106.2 365.5,-106.2 365.5,-87.2 329.5,-87.2"/>
<polygon fill="none" stroke="#000000" points="329.5,-87.2 329.5,-106.2 365.5,-106.2 365.5,-87.2 329.5,-87.2"/>
<text text-anchor="start" x="346.9053" y="-93.3" font-family="Helvetica,sans-Serif" font-size="11.00" fill="#000000">2 &gt;</text>
</a>
</g>
</g>
<!-- notice_detail -->
<g id="node2" class="node">
<title>notice_detail</title>
<g id="a_node2"><a xlink:href="../../tables/notice_detail.html" xlink:title="notice_detail" target="_top">
<polygon fill="#ffffff" stroke="transparent" points="8,-38.2 8,-194.2 205,-194.2 205,-38.2 8,-38.2"/>
<polygon fill="#f5f5f5" stroke="transparent" points="10.5,-169.2 10.5,-192.2 203.5,-192.2 203.5,-169.2 10.5,-169.2"/>
<polygon fill="none" stroke="#000000" points="10.5,-169.2 10.5,-192.2 203.5,-192.2 203.5,-169.2 10.5,-169.2"/>
<text text-anchor="start" x="15.5" y="-178.3" font-family="Helvetica,sans-Serif" font-weight="bold" font-size="11.00" fill="#000000">notice_detail</text>
<text text-anchor="start" x="168.5437" y="-177.3" font-family="Helvetica,sans-Serif" font-size="11.00" fill="#000000">[table]</text>
<polygon fill="none" stroke="#000000" points="10.5,-147.2 10.5,-169.2 104.5,-169.2 104.5,-147.2 10.5,-147.2"/>
<image xlink:href="../../images/primaryKeys.png" width="11px" height="12px" preserveAspectRatio="xMinYMin meet" x="15.5" y="-164.2"/>
<text text-anchor="start" x="30.5" y="-154.3" font-family="Helvetica,sans-Serif" font-size="11.00" fill="#000000">id</text>
<polygon fill="none" stroke="#000000" points="104.5,-147.2 104.5,-169.2 203.5,-169.2 203.5,-147.2 104.5,-147.2"/>
<text text-anchor="start" x="107.5" y="-154.9" font-family="Helvetica,sans-Serif" font-size="11.00" fill="#000000">bigserial[19]</text>
<polygon fill="none" stroke="#000000" points="10.5,-125.2 10.5,-147.2 104.5,-147.2 104.5,-125.2 10.5,-125.2"/>
<text text-anchor="start" x="30.5" y="-132.3" font-family="Helvetica,sans-Serif" font-size="11.00" fill="#000000">created_at</text>
<polygon fill="none" stroke="#000000" points="104.5,-125.2 104.5,-147.2 203.5,-147.2 203.5,-125.2 104.5,-125.2"/>
<text text-anchor="start" x="107.5" y="-132.9" font-family="Helvetica,sans-Serif" font-size="11.00" fill="#000000">timestamptz[35,6]</text>
<polygon fill="#ffffff" stroke="transparent" points="10.5,-103.2 10.5,-125.2 104.5,-125.2 104.5,-103.2 10.5,-103.2"/>
<polygon fill="none" stroke="#000000" points="10.5,-103.2 10.5,-125.2 104.5,-125.2 104.5,-103.2 10.5,-103.2"/>
<text text-anchor="start" x="30.5" y="-110.3" font-family="Helvetica,sans-Serif" font-size="11.00" fill="#000000">notice_type</text>
<polygon fill="none" stroke="#000000" points="104.5,-103.2 104.5,-125.2 203.5,-125.2 203.5,-103.2 104.5,-103.2"/>
<text text-anchor="start" x="107.5" y="-110.9" font-family="Helvetica,sans-Serif" font-size="11.00" fill="#000000">varchar[255]</text>
<polygon fill="none" stroke="#000000" points="10.5,-81.2 10.5,-103.2 104.5,-103.2 104.5,-81.2 10.5,-81.2"/>
<text text-anchor="start" x="30.5" y="-88.3" font-family="Helvetica,sans-Serif" font-size="11.00" fill="#000000">message</text>
<polygon fill="none" stroke="#000000" points="104.5,-81.2 104.5,-103.2 203.5,-103.2 203.5,-81.2 104.5,-81.2"/>
<text text-anchor="start" x="107.5" y="-88.9" font-family="Helvetica,sans-Serif" font-size="11.00" fill="#000000">text[2147483647]</text>
<polygon fill="none" stroke="#000000" points="10.5,-59.2 10.5,-81.2 104.5,-81.2 104.5,-59.2 10.5,-59.2"/>
<text text-anchor="start" x="30.5" y="-66.3" font-family="Helvetica,sans-Serif" font-size="11.00" fill="#000000">data</text>
<polygon fill="none" stroke="#000000" points="104.5,-59.2 104.5,-81.2 203.5,-81.2 203.5,-59.2 104.5,-59.2"/>
<text text-anchor="start" x="107.2258" y="-66.9" font-family="Helvetica,sans-Serif" font-size="11.00" fill="#000000">jsonb[2147483647]</text>
<polygon fill="#ffffff" stroke="transparent" points="10.5,-40.2 10.5,-59.2 61.5,-59.2 61.5,-40.2 10.5,-40.2"/>
<polygon fill="none" stroke="#000000" points="10.5,-40.2 10.5,-59.2 61.5,-59.2 61.5,-40.2 10.5,-40.2"/>
<text text-anchor="start" x="13.5" y="-46.3" font-family="Helvetica,sans-Serif" font-size="11.00" fill="#000000">&lt; 0</text>
<polygon fill="#ffffff" stroke="transparent" points="61.5,-40.2 61.5,-59.2 104.5,-59.2 104.5,-40.2 61.5,-40.2"/>
<polygon fill="none" stroke="#000000" points="61.5,-40.2 61.5,-59.2 104.5,-59.2 104.5,-40.2 61.5,-40.2"/>
<text text-anchor="start" x="95.3862" y="-46.3" font-family="Helvetica,sans-Serif" font-size="11.00" fill="#000000"> &#160;</text>
<polygon fill="#ffffff" stroke="transparent" points="104.5,-40.2 104.5,-59.2 203.5,-59.2 203.5,-40.2 104.5,-40.2"/>
<polygon fill="none" stroke="#000000" points="104.5,-40.2 104.5,-59.2 203.5,-59.2 203.5,-40.2 104.5,-40.2"/>
<text text-anchor="start" x="184.9053" y="-46.3" font-family="Helvetica,sans-Serif" font-size="11.00" fill="#000000">1 &gt;</text>
<polygon fill="none" stroke="#000000" stroke-width="2" points="9,-39.2 9,-193.2 204,-193.2 204,-39.2 9,-39.2"/>
</a>
</g>
</g>
<!-- notice&#45;&gt;notice_detail -->
<g id="edge1" class="edge">
<title>notice:w&#45;&gt;notice_detail:e</title>
<path fill="none" stroke="#000000" d="M239.776,-158.2C227.7815,-158.2 220.3229,-158.2 203.5,-158.2"/>
<polygon fill="#000000" stroke="#000000" points="246.5,-158.2001 254.5,-161.8 250.5,-158.2 254.5,-158.2 254.5,-158.2 254.5,-158.2 250.5,-158.2 254.5,-154.6 246.5,-158.2001 246.5,-158.2001"/>
<ellipse fill="none" stroke="#000000" cx="243.3" cy="-158.2001" rx="3.2" ry="3.2"/>
</g>
</g>
</svg>
