<?xml version="1.0" encoding="UTF-8" standalone="no"?>
<!DOCTYPE svg PUBLIC "-//W3C//DTD SVG 1.1//EN"
 "http://www.w3.org/Graphics/SVG/1.1/DTD/svg11.dtd">
<!-- Generated by graphviz version 2.40.1 (20161225.0304)
 -->
<!-- Title: oneDegreeRelationshipsDiagram Pages: 1 -->
<svg width="795pt" height="641pt"
 viewBox="0.00 0.00 794.74 641.20" xmlns="http://www.w3.org/2000/svg" xmlns:xlink="http://www.w3.org/1999/xlink">
<g id="graph0" class="graph" transform="scale(1 1) rotate(0) translate(4 637.2)">
<title>oneDegreeRelationshipsDiagram</title>
<polygon fill="#ffffff" stroke="transparent" points="-4,4 -4,-637.2 790.742,-637.2 790.742,4 -4,4"/>
<text text-anchor="middle" x="72.4936" y="-7.3" font-family="Helvetica,sans-Serif" font-size="11.00" fill="#000000">Generated by SchemaSpy</text>
<!-- asset -->
<g id="node1" class="node">
<title>asset</title>
<g id="a_node1"><a xlink:href="../../tables/asset.html" xlink:title="asset" target="_top">
<polygon fill="#ffffff" stroke="transparent" points="230.742,-96.2 230.742,-223.2 315.742,-223.2 315.742,-96.2 230.742,-96.2"/>
<polygon fill="#f5f5f5" stroke="transparent" points="231.242,-199.7 231.242,-222.7 316.242,-222.7 316.242,-199.7 231.242,-199.7"/>
<polygon fill="none" stroke="#000000" points="231.242,-199.7 231.242,-222.7 316.242,-222.7 316.242,-199.7 231.242,-199.7"/>
<text text-anchor="start" x="236.242" y="-208.8" font-family="Helvetica,sans-Serif" font-weight="bold" font-size="11.00" fill="#000000">asset</text>
<text text-anchor="start" x="281.2857" y="-207.8" font-family="Helvetica,sans-Serif" font-size="11.00" fill="#000000">[table]</text>
<polygon fill="none" stroke="#000000" points="231.242,-177.7 231.242,-199.7 316.242,-199.7 316.242,-177.7 231.242,-177.7"/>
<image xlink:href="../../images/primaryKeys.png" width="11px" height="12px" preserveAspectRatio="xMinYMin meet" x="236.242" y="-194.7"/>
<text text-anchor="start" x="251.242" y="-184.8" font-family="Helvetica,sans-Serif" font-size="11.00" fill="#000000">id</text>
<polygon fill="#ffffff" stroke="transparent" points="231.242,-155.7 231.242,-177.7 316.242,-177.7 316.242,-155.7 231.242,-155.7"/>
<polygon fill="none" stroke="#000000" points="231.242,-155.7 231.242,-177.7 316.242,-177.7 316.242,-155.7 231.242,-155.7"/>
<text text-anchor="start" x="251.242" y="-162.8" font-family="Helvetica,sans-Serif" font-size="11.00" fill="#000000">uuid</text>
<polygon fill="none" stroke="#000000" points="231.242,-133.7 231.242,-155.7 316.242,-155.7 316.242,-133.7 231.242,-133.7"/>
<image xlink:href="../../images/foreignKeys.png" width="11px" height="12px" preserveAspectRatio="xMinYMin meet" x="236.242" y="-150.7"/>
<text text-anchor="start" x="251.242" y="-140.8" font-family="Helvetica,sans-Serif" font-size="11.00" fill="#000000">author_id</text>
<polygon fill="none" stroke="#000000" points="231.242,-114.7 231.242,-133.7 316.242,-133.7 316.242,-114.7 231.242,-114.7"/>
<text text-anchor="start" x="234.242" y="-120.8" font-family="Helvetica,sans-Serif" font-size="11.00" fill="#000000">...</text>
<polygon fill="#ffffff" stroke="transparent" points="231.242,-95.7 231.242,-114.7 267.242,-114.7 267.242,-95.7 231.242,-95.7"/>
<polygon fill="none" stroke="#000000" points="231.242,-95.7 231.242,-114.7 267.242,-114.7 267.242,-95.7 231.242,-95.7"/>
<text text-anchor="start" x="234.242" y="-101.8" font-family="Helvetica,sans-Serif" font-size="11.00" fill="#000000">&lt; 1</text>
<polygon fill="#ffffff" stroke="transparent" points="267.242,-95.7 267.242,-114.7 287.242,-114.7 287.242,-95.7 267.242,-95.7"/>
<polygon fill="none" stroke="#000000" points="267.242,-95.7 267.242,-114.7 287.242,-114.7 287.242,-95.7 267.242,-95.7"/>
<text text-anchor="start" x="278.1282" y="-101.8" font-family="Helvetica,sans-Serif" font-size="11.00" fill="#000000"> &#160;</text>
<polygon fill="#ffffff" stroke="transparent" points="287.242,-95.7 287.242,-114.7 316.242,-114.7 316.242,-95.7 287.242,-95.7"/>
<polygon fill="none" stroke="#000000" points="287.242,-95.7 287.242,-114.7 316.242,-114.7 316.242,-95.7 287.242,-95.7"/>
<text text-anchor="start" x="297.6473" y="-101.8" font-family="Helvetica,sans-Serif" font-size="11.00" fill="#000000">9 &gt;</text>
</a>
</g>
</g>
<!-- user -->
<g id="node2" class="node">
<title>user</title>
<g id="a_node2"><a xlink:href="../../tables/user.html" xlink:title="user" target="_top">
<polygon fill="#ffffff" stroke="transparent" points="14.742,-70.2 14.742,-285.2 181.742,-285.2 181.742,-70.2 14.742,-70.2"/>
<polygon fill="#f5f5f5" stroke="transparent" points="15.242,-261.7 15.242,-284.7 182.242,-284.7 182.242,-261.7 15.242,-261.7"/>
<polygon fill="none" stroke="#000000" points="15.242,-261.7 15.242,-284.7 182.242,-284.7 182.242,-261.7 15.242,-261.7"/>
<text text-anchor="start" x="20.242" y="-270.8" font-family="Helvetica,sans-Serif" font-weight="bold" font-size="11.00" fill="#000000">user</text>
<text text-anchor="start" x="147.2857" y="-269.8" font-family="Helvetica,sans-Serif" font-size="11.00" fill="#000000">[table]</text>
<polygon fill="none" stroke="#000000" points="15.242,-239.7 15.242,-261.7 182.242,-261.7 182.242,-239.7 15.242,-239.7"/>
<image xlink:href="../../images/primaryKeys.png" width="11px" height="12px" preserveAspectRatio="xMinYMin meet" x="20.242" y="-256.7"/>
<text text-anchor="start" x="35.242" y="-246.8" font-family="Helvetica,sans-Serif" font-size="11.00" fill="#000000">id</text>
<polygon fill="#ffffff" stroke="transparent" points="15.242,-217.7 15.242,-239.7 182.242,-239.7 182.242,-217.7 15.242,-217.7"/>
<polygon fill="none" stroke="#000000" points="15.242,-217.7 15.242,-239.7 182.242,-239.7 182.242,-217.7 15.242,-217.7"/>
<text text-anchor="start" x="35.242" y="-224.8" font-family="Helvetica,sans-Serif" font-size="11.00" fill="#000000">uuid</text>
<polygon fill="#ffffff" stroke="transparent" points="15.242,-195.7 15.242,-217.7 182.242,-217.7 182.242,-195.7 15.242,-195.7"/>
<polygon fill="none" stroke="#000000" points="15.242,-195.7 15.242,-217.7 182.242,-217.7 182.242,-195.7 15.242,-195.7"/>
<text text-anchor="start" x="35.242" y="-202.8" font-family="Helvetica,sans-Serif" font-size="11.00" fill="#000000">user_name</text>
<polygon fill="none" stroke="#000000" points="15.242,-173.7 15.242,-195.7 182.242,-195.7 182.242,-173.7 15.242,-173.7"/>
<image xlink:href="../../images/foreignKeys.png" width="11px" height="12px" preserveAspectRatio="xMinYMin meet" x="20.242" y="-190.7"/>
<text text-anchor="start" x="35.242" y="-180.8" font-family="Helvetica,sans-Serif" font-size="11.00" fill="#000000">avatar</text>
<polygon fill="#ffffff" stroke="transparent" points="15.242,-151.7 15.242,-173.7 182.242,-173.7 182.242,-151.7 15.242,-151.7"/>
<polygon fill="none" stroke="#000000" points="15.242,-151.7 15.242,-173.7 182.242,-173.7 182.242,-151.7 15.242,-151.7"/>
<text text-anchor="start" x="35.242" y="-158.8" font-family="Helvetica,sans-Serif" font-size="11.00" fill="#000000">email</text>
<polygon fill="#ffffff" stroke="transparent" points="15.242,-129.7 15.242,-151.7 182.242,-151.7 182.242,-129.7 15.242,-129.7"/>
<polygon fill="none" stroke="#000000" points="15.242,-129.7 15.242,-151.7 182.242,-151.7 182.242,-129.7 15.242,-129.7"/>
<text text-anchor="start" x="35.242" y="-136.8" font-family="Helvetica,sans-Serif" font-size="11.00" fill="#000000">state</text>
<polygon fill="#ffffff" stroke="transparent" points="15.242,-107.7 15.242,-129.7 182.242,-129.7 182.242,-107.7 15.242,-107.7"/>
<polygon fill="none" stroke="#000000" points="15.242,-107.7 15.242,-129.7 182.242,-129.7 182.242,-107.7 15.242,-107.7"/>
<text text-anchor="start" x="35.242" y="-114.8" font-family="Helvetica,sans-Serif" font-size="11.00" fill="#000000">liker_id</text>
<polygon fill="none" stroke="#000000" points="15.242,-88.7 15.242,-107.7 182.242,-107.7 182.242,-88.7 15.242,-88.7"/>
<text text-anchor="start" x="18.242" y="-94.8" font-family="Helvetica,sans-Serif" font-size="11.00" fill="#000000">...</text>
<polygon fill="#ffffff" stroke="transparent" points="15.242,-69.7 15.242,-88.7 89.242,-88.7 89.242,-69.7 15.242,-69.7"/>
<polygon fill="none" stroke="#000000" points="15.242,-69.7 15.242,-88.7 89.242,-88.7 89.242,-69.7 15.242,-69.7"/>
<text text-anchor="start" x="18.242" y="-75.8" font-family="Helvetica,sans-Serif" font-size="11.00" fill="#000000">&lt; 1</text>
<polygon fill="#ffffff" stroke="transparent" points="89.242,-69.7 89.242,-88.7 128.242,-88.7 128.242,-69.7 89.242,-69.7"/>
<polygon fill="none" stroke="#000000" points="89.242,-69.7 89.242,-88.7 128.242,-88.7 128.242,-69.7 89.242,-69.7"/>
<text text-anchor="start" x="119.1282" y="-75.8" font-family="Helvetica,sans-Serif" font-size="11.00" fill="#000000"> &#160;</text>
<polygon fill="#ffffff" stroke="transparent" points="128.242,-69.7 128.242,-88.7 182.242,-88.7 182.242,-69.7 128.242,-69.7"/>
<polygon fill="none" stroke="#000000" points="128.242,-69.7 128.242,-88.7 182.242,-88.7 182.242,-69.7 128.242,-69.7"/>
<text text-anchor="start" x="157.5324" y="-75.8" font-family="Helvetica,sans-Serif" font-size="11.00" fill="#000000">42 &gt;</text>
</a>
</g>
</g>
<!-- asset&#45;&gt;user -->
<g id="edge1" class="edge">
<title>asset:w&#45;&gt;user:e</title>
<path fill="none" stroke="#000000" d="M217.0481,-148.7259C190.7198,-168.0881 228.061,-250.7 182.242,-250.7"/>
<polygon fill="#000000" stroke="#000000" points="223.5456,-146.883 232.2244,-148.1634 227.3938,-145.7915 231.242,-144.7 231.242,-144.7 231.242,-144.7 227.3938,-145.7915 230.2596,-141.2366 223.5456,-146.883 223.5456,-146.883"/>
<ellipse fill="none" stroke="#000000" cx="220.467" cy="-147.7562" rx="3.2" ry="3.2"/>
</g>
<!-- user&#45;&gt;asset -->
<g id="edge10" class="edge">
<title>user:w&#45;&gt;asset:e</title>
<path fill="none" stroke="#000000" d="M4.4984,-194.6083C-4.7516,-218.0989 2.221,-276.179 15.242,-289.2 70.0821,-344.0401 121.5322,-326.1092 189.742,-289.2 213.3227,-276.4402 199.9857,-252.878 222.742,-238.7 240.51,-227.6299 302.3721,-242.8803 316.242,-227.2 327.5788,-214.3834 333.3531,-188.7 316.242,-188.7"/>
<polygon fill="#000000" stroke="#000000" points="9.3611,-190.1236 17.6826,-187.3464 12.3016,-187.4118 15.242,-184.7 15.242,-184.7 15.242,-184.7 12.3016,-187.4118 12.8014,-182.0536 9.3611,-190.1236 9.3611,-190.1236"/>
<ellipse fill="none" stroke="#000000" cx="7.0088" cy="-192.2931" rx="3.2" ry="3.2"/>
</g>
<!-- oauth_access_token -->
<g id="node3" class="node">
<title>oauth_access_token</title>
<g id="a_node3"><a xlink:href="../../tables/oauth_access_token.html" xlink:title="oauth_access_token" target="_top">
<polygon fill="#ffffff" stroke="transparent" points="622.242,-480.2 622.242,-629.2 765.242,-629.2 765.242,-480.2 622.242,-480.2"/>
<polygon fill="#f5f5f5" stroke="transparent" points="622.742,-605.7 622.742,-628.7 765.742,-628.7 765.742,-605.7 622.742,-605.7"/>
<polygon fill="none" stroke="#000000" points="622.742,-605.7 622.742,-628.7 765.742,-628.7 765.742,-605.7 622.742,-605.7"/>
<text text-anchor="start" x="627.3032" y="-614.8" font-family="Helvetica,sans-Serif" font-weight="bold" font-size="11.00" fill="#000000">oauth_access_token</text>
<text text-anchor="start" x="731.2639" y="-613.8" font-family="Helvetica,sans-Serif" font-size="11.00" fill="#000000">[table]</text>
<polygon fill="none" stroke="#000000" points="622.742,-583.7 622.742,-605.7 765.742,-605.7 765.742,-583.7 622.742,-583.7"/>
<image xlink:href="../../images/primaryKeys.png" width="11px" height="12px" preserveAspectRatio="xMinYMin meet" x="627.742" y="-600.7"/>
<text text-anchor="start" x="644.742" y="-590.8" font-family="Helvetica,sans-Serif" font-size="11.00" fill="#000000">id</text>
<polygon fill="#ffffff" stroke="transparent" points="622.742,-561.7 622.742,-583.7 765.742,-583.7 765.742,-561.7 622.742,-561.7"/>
<polygon fill="none" stroke="#000000" points="622.742,-561.7 622.742,-583.7 765.742,-583.7 765.742,-561.7 622.742,-561.7"/>
<text text-anchor="start" x="644.742" y="-568.8" font-family="Helvetica,sans-Serif" font-size="11.00" fill="#000000">token</text>
<polygon fill="none" stroke="#000000" points="622.742,-539.7 622.742,-561.7 765.742,-561.7 765.742,-539.7 622.742,-539.7"/>
<image xlink:href="../../images/foreignKeys.png" width="11px" height="12px" preserveAspectRatio="xMinYMin meet" x="627.742" y="-556.7"/>
<text text-anchor="start" x="644.742" y="-546.8" font-family="Helvetica,sans-Serif" font-size="11.00" fill="#000000">client_id</text>
<polygon fill="none" stroke="#000000" points="622.742,-517.7 622.742,-539.7 765.742,-539.7 765.742,-517.7 622.742,-517.7"/>
<image xlink:href="../../images/foreignKeys.png" width="11px" height="12px" preserveAspectRatio="xMinYMin meet" x="627.742" y="-534.7"/>
<text text-anchor="start" x="644.742" y="-524.8" font-family="Helvetica,sans-Serif" font-size="11.00" fill="#000000">user_id</text>
<polygon fill="none" stroke="#000000" points="622.742,-498.7 622.742,-517.7 765.742,-517.7 765.742,-498.7 622.742,-498.7"/>
<text text-anchor="start" x="625.742" y="-504.8" font-family="Helvetica,sans-Serif" font-size="11.00" fill="#000000">...</text>
<polygon fill="#ffffff" stroke="transparent" points="622.742,-479.7 622.742,-498.7 692.742,-498.7 692.742,-479.7 622.742,-479.7"/>
<polygon fill="none" stroke="#000000" points="622.742,-479.7 622.742,-498.7 692.742,-498.7 692.742,-479.7 622.742,-479.7"/>
<text text-anchor="start" x="625.742" y="-485.8" font-family="Helvetica,sans-Serif" font-size="11.00" fill="#000000">&lt; 2</text>
<polygon fill="#ffffff" stroke="transparent" points="692.742,-479.7 692.742,-498.7 728.742,-498.7 728.742,-479.7 692.742,-479.7"/>
<polygon fill="none" stroke="#000000" points="692.742,-479.7 692.742,-498.7 728.742,-498.7 728.742,-479.7 692.742,-479.7"/>
<text text-anchor="start" x="719.6282" y="-485.8" font-family="Helvetica,sans-Serif" font-size="11.00" fill="#000000"> &#160;</text>
<polygon fill="#ffffff" stroke="transparent" points="728.742,-479.7 728.742,-498.7 765.742,-498.7 765.742,-479.7 728.742,-479.7"/>
<polygon fill="none" stroke="#000000" points="728.742,-479.7 728.742,-498.7 765.742,-498.7 765.742,-479.7 728.742,-479.7"/>
<text text-anchor="start" x="756.6282" y="-485.8" font-family="Helvetica,sans-Serif" font-size="11.00" fill="#000000"> &#160;</text>
</a>
</g>
</g>
<!-- oauth_access_token&#45;&gt;user -->
<g id="edge3" class="edge">
<title>oauth_access_token:w&#45;&gt;user:e</title>
<path fill="none" stroke="#000000" d="M608.4348,-531.238C593.7868,-537.1366 588.7887,-551.651 567.742,-556.7 476.5515,-578.5763 437.8306,-603.8053 356.742,-556.7 339.8201,-546.8699 201.8119,-250.7 182.242,-250.7"/>
<polygon fill="#000000" stroke="#000000" points="614.865,-530.0974 623.3708,-532.2447 618.8035,-529.3987 622.742,-528.7 622.742,-528.7 622.742,-528.7 618.8035,-529.3987 622.1132,-525.1553 614.865,-530.0974 614.865,-530.0974"/>
<ellipse fill="none" stroke="#000000" cx="611.7142" cy="-530.6563" rx="3.2" ry="3.2"/>
</g>
<!-- oauth_client -->
<g id="node4" class="node">
<title>oauth_client</title>
<g id="a_node4"><a xlink:href="../../tables/oauth_client.html" xlink:title="oauth_client" target="_top">
<polygon fill="#ffffff" stroke="transparent" points="364.742,-213.7 364.742,-545.7 559.742,-545.7 559.742,-213.7 364.742,-213.7"/>
<polygon fill="#f5f5f5" stroke="transparent" points="367.242,-520.7 367.242,-543.7 558.242,-543.7 558.242,-520.7 367.242,-520.7"/>
<polygon fill="none" stroke="#000000" points="367.242,-520.7 367.242,-543.7 558.242,-543.7 558.242,-520.7 367.242,-520.7"/>
<text text-anchor="start" x="372.242" y="-529.8" font-family="Helvetica,sans-Serif" font-weight="bold" font-size="11.00" fill="#000000">oauth_client</text>
<text text-anchor="start" x="523.2857" y="-528.8" font-family="Helvetica,sans-Serif" font-size="11.00" fill="#000000">[table]</text>
<polygon fill="none" stroke="#000000" points="367.242,-498.7 367.242,-520.7 461.242,-520.7 461.242,-498.7 367.242,-498.7"/>
<image xlink:href="../../images/primaryKeys.png" width="11px" height="12px" preserveAspectRatio="xMinYMin meet" x="372.242" y="-515.7"/>
<text text-anchor="start" x="387.242" y="-505.8" font-family="Helvetica,sans-Serif" font-size="11.00" fill="#000000">id</text>
<polygon fill="none" stroke="#000000" points="461.242,-498.7 461.242,-520.7 558.242,-520.7 558.242,-498.7 461.242,-498.7"/>
<text text-anchor="start" x="464.242" y="-506.4" font-family="Helvetica,sans-Serif" font-size="11.00" fill="#000000">bigserial[19]</text>
<polygon fill="none" stroke="#000000" points="367.242,-476.7 367.242,-498.7 461.242,-498.7 461.242,-476.7 367.242,-476.7"/>
<text text-anchor="start" x="387.242" y="-483.8" font-family="Helvetica,sans-Serif" font-size="11.00" fill="#000000">created_at</text>
<polygon fill="none" stroke="#000000" points="461.242,-476.7 461.242,-498.7 558.242,-498.7 558.242,-476.7 461.242,-476.7"/>
<text text-anchor="start" x="464.242" y="-484.4" font-family="Helvetica,sans-Serif" font-size="11.00" fill="#000000">timestamptz[35,6]</text>
<polygon fill="none" stroke="#000000" points="367.242,-454.7 367.242,-476.7 461.242,-476.7 461.242,-454.7 367.242,-454.7"/>
<text text-anchor="start" x="387.242" y="-461.8" font-family="Helvetica,sans-Serif" font-size="11.00" fill="#000000">updated_at</text>
<polygon fill="none" stroke="#000000" points="461.242,-454.7 461.242,-476.7 558.242,-476.7 558.242,-454.7 461.242,-454.7"/>
<text text-anchor="start" x="464.242" y="-462.4" font-family="Helvetica,sans-Serif" font-size="11.00" fill="#000000">timestamptz[35,6]</text>
<polygon fill="#ffffff" stroke="transparent" points="367.242,-432.7 367.242,-454.7 461.242,-454.7 461.242,-432.7 367.242,-432.7"/>
<polygon fill="none" stroke="#000000" points="367.242,-432.7 367.242,-454.7 461.242,-454.7 461.242,-432.7 367.242,-432.7"/>
<text text-anchor="start" x="387.242" y="-439.8" font-family="Helvetica,sans-Serif" font-size="11.00" fill="#000000">client_id</text>
<polygon fill="none" stroke="#000000" points="461.242,-432.7 461.242,-454.7 558.242,-454.7 558.242,-432.7 461.242,-432.7"/>
<text text-anchor="start" x="464.242" y="-440.4" font-family="Helvetica,sans-Serif" font-size="11.00" fill="#000000">varchar[255]</text>
<polygon fill="none" stroke="#000000" points="367.242,-410.7 367.242,-432.7 461.242,-432.7 461.242,-410.7 367.242,-410.7"/>
<text text-anchor="start" x="387.242" y="-417.8" font-family="Helvetica,sans-Serif" font-size="11.00" fill="#000000">client_secret</text>
<polygon fill="none" stroke="#000000" points="461.242,-410.7 461.242,-432.7 558.242,-432.7 558.242,-410.7 461.242,-410.7"/>
<text text-anchor="start" x="464.242" y="-418.4" font-family="Helvetica,sans-Serif" font-size="11.00" fill="#000000">varchar[255]</text>
<polygon fill="none" stroke="#000000" points="367.242,-388.7 367.242,-410.7 461.242,-410.7 461.242,-388.7 367.242,-388.7"/>
<text text-anchor="start" x="387.242" y="-395.8" font-family="Helvetica,sans-Serif" font-size="11.00" fill="#000000">redirect_uri</text>
<polygon fill="none" stroke="#000000" points="461.242,-388.7 461.242,-410.7 558.242,-410.7 558.242,-388.7 461.242,-388.7"/>
<text text-anchor="start" x="464.1888" y="-396.4" font-family="Helvetica,sans-Serif" font-size="11.00" fill="#000000">_text[2147483647]</text>
<polygon fill="none" stroke="#000000" points="367.242,-366.7 367.242,-388.7 461.242,-388.7 461.242,-366.7 367.242,-366.7"/>
<text text-anchor="start" x="387.242" y="-373.8" font-family="Helvetica,sans-Serif" font-size="11.00" fill="#000000">grant_types</text>
<polygon fill="none" stroke="#000000" points="461.242,-366.7 461.242,-388.7 558.242,-388.7 558.242,-366.7 461.242,-366.7"/>
<text text-anchor="start" x="464.1888" y="-374.4" font-family="Helvetica,sans-Serif" font-size="11.00" fill="#000000">_text[2147483647]</text>
<polygon fill="none" stroke="#000000" points="367.242,-344.7 367.242,-366.7 461.242,-366.7 461.242,-344.7 367.242,-344.7"/>
<text text-anchor="start" x="387.242" y="-351.8" font-family="Helvetica,sans-Serif" font-size="11.00" fill="#000000">scope</text>
<polygon fill="none" stroke="#000000" points="461.242,-344.7 461.242,-366.7 558.242,-366.7 558.242,-344.7 461.242,-344.7"/>
<text text-anchor="start" x="464.1888" y="-352.4" font-family="Helvetica,sans-Serif" font-size="11.00" fill="#000000">_text[2147483647]</text>
<polygon fill="none" stroke="#000000" points="367.242,-322.7 367.242,-344.7 461.242,-344.7 461.242,-322.7 367.242,-322.7"/>
<image xlink:href="../../images/foreignKeys.png" width="11px" height="12px" preserveAspectRatio="xMinYMin meet" x="372.242" y="-339.7"/>
<text text-anchor="start" x="387.242" y="-329.8" font-family="Helvetica,sans-Serif" font-size="11.00" fill="#000000">user_id</text>
<polygon fill="none" stroke="#000000" points="461.242,-322.7 461.242,-344.7 558.242,-344.7 558.242,-322.7 461.242,-322.7"/>
<text text-anchor="start" x="464.242" y="-330.4" font-family="Helvetica,sans-Serif" font-size="11.00" fill="#000000">int8[19]</text>
<polygon fill="#ffffff" stroke="transparent" points="367.242,-300.7 367.242,-322.7 461.242,-322.7 461.242,-300.7 367.242,-300.7"/>
<polygon fill="none" stroke="#000000" points="367.242,-300.7 367.242,-322.7 461.242,-322.7 461.242,-300.7 367.242,-300.7"/>
<text text-anchor="start" x="387.242" y="-307.8" font-family="Helvetica,sans-Serif" font-size="11.00" fill="#000000">name</text>
<polygon fill="none" stroke="#000000" points="461.242,-300.7 461.242,-322.7 558.242,-322.7 558.242,-300.7 461.242,-300.7"/>
<text text-anchor="start" x="464.242" y="-308.4" font-family="Helvetica,sans-Serif" font-size="11.00" fill="#000000">varchar[255]</text>
<polygon fill="none" stroke="#000000" points="367.242,-278.7 367.242,-300.7 461.242,-300.7 461.242,-278.7 367.242,-278.7"/>
<text text-anchor="start" x="387.242" y="-285.8" font-family="Helvetica,sans-Serif" font-size="11.00" fill="#000000">description</text>
<polygon fill="none" stroke="#000000" points="461.242,-278.7 461.242,-300.7 558.242,-300.7 558.242,-278.7 461.242,-278.7"/>
<text text-anchor="start" x="464.242" y="-286.4" font-family="Helvetica,sans-Serif" font-size="11.00" fill="#000000">text[2147483647]</text>
<polygon fill="none" stroke="#000000" points="367.242,-256.7 367.242,-278.7 461.242,-278.7 461.242,-256.7 367.242,-256.7"/>
<text text-anchor="start" x="387.242" y="-263.8" font-family="Helvetica,sans-Serif" font-size="11.00" fill="#000000">website_url</text>
<polygon fill="none" stroke="#000000" points="461.242,-256.7 461.242,-278.7 558.242,-278.7 558.242,-256.7 461.242,-256.7"/>
<text text-anchor="start" x="464.242" y="-264.4" font-family="Helvetica,sans-Serif" font-size="11.00" fill="#000000">text[2147483647]</text>
<polygon fill="none" stroke="#000000" points="367.242,-234.7 367.242,-256.7 461.242,-256.7 461.242,-234.7 367.242,-234.7"/>
<image xlink:href="../../images/foreignKeys.png" width="11px" height="12px" preserveAspectRatio="xMinYMin meet" x="372.242" y="-251.7"/>
<text text-anchor="start" x="387.242" y="-241.8" font-family="Helvetica,sans-Serif" font-size="11.00" fill="#000000">avatar</text>
<polygon fill="none" stroke="#000000" points="461.242,-234.7 461.242,-256.7 558.242,-256.7 558.242,-234.7 461.242,-234.7"/>
<text text-anchor="start" x="464.242" y="-242.4" font-family="Helvetica,sans-Serif" font-size="11.00" fill="#000000">int8[19]</text>
<polygon fill="#ffffff" stroke="transparent" points="367.242,-215.7 367.242,-234.7 418.242,-234.7 418.242,-215.7 367.242,-215.7"/>
<polygon fill="none" stroke="#000000" points="367.242,-215.7 367.242,-234.7 418.242,-234.7 418.242,-215.7 367.242,-215.7"/>
<text text-anchor="start" x="370.242" y="-221.8" font-family="Helvetica,sans-Serif" font-size="11.00" fill="#000000">&lt; 2</text>
<polygon fill="#ffffff" stroke="transparent" points="418.242,-215.7 418.242,-234.7 461.242,-234.7 461.242,-215.7 418.242,-215.7"/>
<polygon fill="none" stroke="#000000" points="418.242,-215.7 418.242,-234.7 461.242,-234.7 461.242,-215.7 418.242,-215.7"/>
<text text-anchor="start" x="452.1282" y="-221.8" font-family="Helvetica,sans-Serif" font-size="11.00" fill="#000000"> &#160;</text>
<polygon fill="#ffffff" stroke="transparent" points="461.242,-215.7 461.242,-234.7 558.242,-234.7 558.242,-215.7 461.242,-215.7"/>
<polygon fill="none" stroke="#000000" points="461.242,-215.7 461.242,-234.7 558.242,-234.7 558.242,-215.7 461.242,-215.7"/>
<text text-anchor="start" x="539.6473" y="-221.8" font-family="Helvetica,sans-Serif" font-size="11.00" fill="#000000">3 &gt;</text>
<polygon fill="none" stroke="#000000" stroke-width="2" points="365.742,-214.7 365.742,-544.7 558.742,-544.7 558.742,-214.7 365.742,-214.7"/>
</a>
</g>
</g>
<!-- oauth_access_token&#45;&gt;oauth_client -->
<g id="edge2" class="edge">
<title>oauth_access_token:w&#45;&gt;oauth_client:e</title>
<path fill="none" stroke="#000000" d="M608.4367,-547.6183C588.873,-538.0833 586.5045,-509.7 558.242,-509.7"/>
<polygon fill="#000000" stroke="#000000" points="614.9214,-549.0152 621.9839,-554.2193 618.8317,-549.8576 622.742,-550.7 622.742,-550.7 622.742,-550.7 618.8317,-549.8576 623.5001,-547.1807 614.9214,-549.0152 614.9214,-549.0152"/>
<ellipse fill="none" stroke="#000000" cx="611.7932" cy="-548.3413" rx="3.2" ry="3.2"/>
</g>
<!-- oauth_client&#45;&gt;asset -->
<g id="edge6" class="edge">
<title>oauth_client:w&#45;&gt;asset:e</title>
<path fill="none" stroke="#000000" d="M353.264,-240.8402C337.7072,-227.056 344.1273,-188.7 316.242,-188.7"/>
<polygon fill="#000000" stroke="#000000" points="359.6857,-243.0728 366.0598,-249.1004 363.4638,-244.3864 367.242,-245.7 367.242,-245.7 367.242,-245.7 363.4638,-244.3864 368.4242,-242.2996 359.6857,-243.0728 359.6857,-243.0728"/>
<ellipse fill="none" stroke="#000000" cx="356.6631" cy="-242.022" rx="3.2" ry="3.2"/>
</g>
<!-- oauth_client&#45;&gt;user -->
<g id="edge7" class="edge">
<title>oauth_client:w&#45;&gt;user:e</title>
<path fill="none" stroke="#000000" d="M352.7085,-331.48C304.1265,-318.2806 222.9008,-250.7 182.242,-250.7"/>
<polygon fill="#000000" stroke="#000000" points="359.3337,-332.4919 366.6984,-337.2587 363.2879,-333.096 367.242,-333.7 367.242,-333.7 367.242,-333.7 363.2879,-333.096 367.7856,-330.1413 359.3337,-332.4919 359.3337,-332.4919"/>
<ellipse fill="none" stroke="#000000" cx="356.1704" cy="-332.0087" rx="3.2" ry="3.2"/>
</g>
<!-- oauth_authorization_code -->
<g id="node5" class="node">
<title>oauth_authorization_code</title>
<g id="a_node5"><a xlink:href="../../tables/oauth_authorization_code.html" xlink:title="oauth_authorization_code" target="_top">
<polygon fill="#ffffff" stroke="transparent" points="608.742,-280.2 608.742,-429.2 778.742,-429.2 778.742,-280.2 608.742,-280.2"/>
<polygon fill="#f5f5f5" stroke="transparent" points="608.742,-405.7 608.742,-428.7 778.742,-428.7 778.742,-405.7 608.742,-405.7"/>
<polygon fill="none" stroke="#000000" points="608.742,-405.7 608.742,-428.7 778.742,-428.7 778.742,-405.7 608.742,-405.7"/>
<text text-anchor="start" x="613.742" y="-414.8" font-family="Helvetica,sans-Serif" font-weight="bold" font-size="11.00" fill="#000000">oauth_authorization_code</text>
<text text-anchor="start" x="744.2639" y="-413.8" font-family="Helvetica,sans-Serif" font-size="11.00" fill="#000000">[table]</text>
<polygon fill="none" stroke="#000000" points="608.742,-383.7 608.742,-405.7 778.742,-405.7 778.742,-383.7 608.742,-383.7"/>
<image xlink:href="../../images/primaryKeys.png" width="11px" height="12px" preserveAspectRatio="xMinYMin meet" x="613.742" y="-400.7"/>
<text text-anchor="start" x="628.742" y="-390.8" font-family="Helvetica,sans-Serif" font-size="11.00" fill="#000000">id</text>
<polygon fill="#ffffff" stroke="transparent" points="608.742,-361.7 608.742,-383.7 778.742,-383.7 778.742,-361.7 608.742,-361.7"/>
<polygon fill="none" stroke="#000000" points="608.742,-361.7 608.742,-383.7 778.742,-383.7 778.742,-361.7 608.742,-361.7"/>
<text text-anchor="start" x="628.742" y="-368.8" font-family="Helvetica,sans-Serif" font-size="11.00" fill="#000000">code</text>
<polygon fill="none" stroke="#000000" points="608.742,-339.7 608.742,-361.7 778.742,-361.7 778.742,-339.7 608.742,-339.7"/>
<image xlink:href="../../images/foreignKeys.png" width="11px" height="12px" preserveAspectRatio="xMinYMin meet" x="613.742" y="-356.7"/>
<text text-anchor="start" x="628.742" y="-346.8" font-family="Helvetica,sans-Serif" font-size="11.00" fill="#000000">client_id</text>
<polygon fill="none" stroke="#000000" points="608.742,-317.7 608.742,-339.7 778.742,-339.7 778.742,-317.7 608.742,-317.7"/>
<image xlink:href="../../images/foreignKeys.png" width="11px" height="12px" preserveAspectRatio="xMinYMin meet" x="613.742" y="-334.7"/>
<text text-anchor="start" x="628.742" y="-324.8" font-family="Helvetica,sans-Serif" font-size="11.00" fill="#000000">user_id</text>
<polygon fill="none" stroke="#000000" points="608.742,-298.7 608.742,-317.7 778.742,-317.7 778.742,-298.7 608.742,-298.7"/>
<text text-anchor="start" x="611.742" y="-304.8" font-family="Helvetica,sans-Serif" font-size="11.00" fill="#000000">...</text>
<polygon fill="#ffffff" stroke="transparent" points="608.742,-279.7 608.742,-298.7 691.742,-298.7 691.742,-279.7 608.742,-279.7"/>
<polygon fill="none" stroke="#000000" points="608.742,-279.7 608.742,-298.7 691.742,-298.7 691.742,-279.7 608.742,-279.7"/>
<text text-anchor="start" x="611.742" y="-285.8" font-family="Helvetica,sans-Serif" font-size="11.00" fill="#000000">&lt; 2</text>
<polygon fill="#ffffff" stroke="transparent" points="691.742,-279.7 691.742,-298.7 734.742,-298.7 734.742,-279.7 691.742,-279.7"/>
<polygon fill="none" stroke="#000000" points="691.742,-279.7 691.742,-298.7 734.742,-298.7 734.742,-279.7 691.742,-279.7"/>
<text text-anchor="start" x="725.6282" y="-285.8" font-family="Helvetica,sans-Serif" font-size="11.00" fill="#000000"> &#160;</text>
<polygon fill="#ffffff" stroke="transparent" points="734.742,-279.7 734.742,-298.7 778.742,-298.7 778.742,-279.7 734.742,-279.7"/>
<polygon fill="none" stroke="#000000" points="734.742,-279.7 734.742,-298.7 778.742,-298.7 778.742,-279.7 734.742,-279.7"/>
<text text-anchor="start" x="769.6282" y="-285.8" font-family="Helvetica,sans-Serif" font-size="11.00" fill="#000000"> &#160;</text>
</a>
</g>
</g>
<!-- oauth_authorization_code&#45;&gt;user -->
<g id="edge5" class="edge">
<title>oauth_authorization_code:w&#45;&gt;user:e</title>
<path fill="none" stroke="#000000" d="M594.496,-326.0474C562.2833,-310.8584 610.2822,-234.5169 567.742,-203.7 491.7975,-148.6845 444.2106,-169.884 356.742,-203.7 338.2541,-210.8475 341.7698,-225.4606 323.742,-233.7 266.1326,-260.0297 245.5831,-250.7 182.242,-250.7"/>
<polygon fill="#000000" stroke="#000000" points="600.8772,-327.2355 608.083,-332.2392 604.8096,-327.9678 608.742,-328.7 608.742,-328.7 608.742,-328.7 604.8096,-327.9678 609.401,-325.1608 600.8772,-327.2355 600.8772,-327.2355"/>
<ellipse fill="none" stroke="#000000" cx="597.7312" cy="-326.6498" rx="3.2" ry="3.2"/>
</g>
<!-- oauth_authorization_code&#45;&gt;oauth_client -->
<g id="edge4" class="edge">
<title>oauth_authorization_code:w&#45;&gt;oauth_client:e</title>
<path fill="none" stroke="#000000" d="M594.3485,-353.4597C548.827,-374.5733 626.5947,-509.7 558.242,-509.7"/>
<polygon fill="#000000" stroke="#000000" points="600.8851,-352.2065 609.4199,-354.2356 604.8136,-351.4532 608.742,-350.7 608.742,-350.7 608.742,-350.7 604.8136,-351.4532 608.0641,-347.1644 600.8851,-352.2065 600.8851,-352.2065"/>
<ellipse fill="none" stroke="#000000" cx="597.7424" cy="-352.8091" rx="3.2" ry="3.2"/>
</g>
<!-- oauth_refresh_token -->
<g id="node6" class="node">
<title>oauth_refresh_token</title>
<g id="a_node6"><a xlink:href="../../tables/oauth_refresh_token.html" xlink:title="oauth_refresh_token" target="_top">
<polygon fill="#ffffff" stroke="transparent" points="622.242,-38.2 622.242,-187.2 765.242,-187.2 765.242,-38.2 622.242,-38.2"/>
<polygon fill="#f5f5f5" stroke="transparent" points="622.742,-163.7 622.742,-186.7 765.742,-186.7 765.742,-163.7 622.742,-163.7"/>
<polygon fill="none" stroke="#000000" points="622.742,-163.7 622.742,-186.7 765.742,-186.7 765.742,-163.7 622.742,-163.7"/>
<text text-anchor="start" x="627.3054" y="-172.8" font-family="Helvetica,sans-Serif" font-weight="bold" font-size="11.00" fill="#000000">oauth_refresh_token</text>
<text text-anchor="start" x="731.2639" y="-171.8" font-family="Helvetica,sans-Serif" font-size="11.00" fill="#000000">[table]</text>
<polygon fill="none" stroke="#000000" points="622.742,-141.7 622.742,-163.7 765.742,-163.7 765.742,-141.7 622.742,-141.7"/>
<image xlink:href="../../images/primaryKeys.png" width="11px" height="12px" preserveAspectRatio="xMinYMin meet" x="627.742" y="-158.7"/>
<text text-anchor="start" x="644.742" y="-148.8" font-family="Helvetica,sans-Serif" font-size="11.00" fill="#000000">id</text>
<polygon fill="#ffffff" stroke="transparent" points="622.742,-119.7 622.742,-141.7 765.742,-141.7 765.742,-119.7 622.742,-119.7"/>
<polygon fill="none" stroke="#000000" points="622.742,-119.7 622.742,-141.7 765.742,-141.7 765.742,-119.7 622.742,-119.7"/>
<text text-anchor="start" x="644.742" y="-126.8" font-family="Helvetica,sans-Serif" font-size="11.00" fill="#000000">token</text>
<polygon fill="none" stroke="#000000" points="622.742,-97.7 622.742,-119.7 765.742,-119.7 765.742,-97.7 622.742,-97.7"/>
<image xlink:href="../../images/foreignKeys.png" width="11px" height="12px" preserveAspectRatio="xMinYMin meet" x="627.742" y="-114.7"/>
<text text-anchor="start" x="644.742" y="-104.8" font-family="Helvetica,sans-Serif" font-size="11.00" fill="#000000">client_id</text>
<polygon fill="none" stroke="#000000" points="622.742,-75.7 622.742,-97.7 765.742,-97.7 765.742,-75.7 622.742,-75.7"/>
<image xlink:href="../../images/foreignKeys.png" width="11px" height="12px" preserveAspectRatio="xMinYMin meet" x="627.742" y="-92.7"/>
<text text-anchor="start" x="644.742" y="-82.8" font-family="Helvetica,sans-Serif" font-size="11.00" fill="#000000">user_id</text>
<polygon fill="none" stroke="#000000" points="622.742,-56.7 622.742,-75.7 765.742,-75.7 765.742,-56.7 622.742,-56.7"/>
<text text-anchor="start" x="625.742" y="-62.8" font-family="Helvetica,sans-Serif" font-size="11.00" fill="#000000">...</text>
<polygon fill="#ffffff" stroke="transparent" points="622.742,-37.7 622.742,-56.7 692.742,-56.7 692.742,-37.7 622.742,-37.7"/>
<polygon fill="none" stroke="#000000" points="622.742,-37.7 622.742,-56.7 692.742,-56.7 692.742,-37.7 622.742,-37.7"/>
<text text-anchor="start" x="625.742" y="-43.8" font-family="Helvetica,sans-Serif" font-size="11.00" fill="#000000">&lt; 2</text>
<polygon fill="#ffffff" stroke="transparent" points="692.742,-37.7 692.742,-56.7 728.742,-56.7 728.742,-37.7 692.742,-37.7"/>
<polygon fill="none" stroke="#000000" points="692.742,-37.7 692.742,-56.7 728.742,-56.7 728.742,-37.7 692.742,-37.7"/>
<text text-anchor="start" x="719.6282" y="-43.8" font-family="Helvetica,sans-Serif" font-size="11.00" fill="#000000"> &#160;</text>
<polygon fill="#ffffff" stroke="transparent" points="728.742,-37.7 728.742,-56.7 765.742,-56.7 765.742,-37.7 728.742,-37.7"/>
<polygon fill="none" stroke="#000000" points="728.742,-37.7 728.742,-56.7 765.742,-56.7 765.742,-37.7 728.742,-37.7"/>
<text text-anchor="start" x="756.6282" y="-43.8" font-family="Helvetica,sans-Serif" font-size="11.00" fill="#000000"> &#160;</text>
</a>
</g>
</g>
<!-- oauth_refresh_token&#45;&gt;user -->
<g id="edge9" class="edge">
<title>oauth_refresh_token:w&#45;&gt;user:e</title>
<path fill="none" stroke="#000000" d="M608.1167,-86.4499C440.3362,-80.7083 358.7398,20.9534 222.742,-85.7 163.3242,-132.2972 257.7521,-250.7 182.242,-250.7"/>
<polygon fill="#000000" stroke="#000000" points="614.7432,-86.5631 622.6804,-90.2995 618.7426,-86.6316 622.742,-86.7 622.742,-86.7 622.742,-86.7 618.7426,-86.6316 622.8036,-83.1005 614.7432,-86.5631 614.7432,-86.5631"/>
<ellipse fill="none" stroke="#000000" cx="611.5436" cy="-86.5084" rx="3.2" ry="3.2"/>
</g>
<!-- oauth_refresh_token&#45;&gt;oauth_client -->
<g id="edge8" class="edge">
<title>oauth_refresh_token:w&#45;&gt;oauth_client:e</title>
<path fill="none" stroke="#000000" d="M608.5247,-112.9321C545.7778,-155.7886 643.0337,-509.7 558.242,-509.7"/>
<polygon fill="#000000" stroke="#000000" points="615.0745,-110.9824 623.7691,-112.1504 618.9082,-109.8412 622.742,-108.7 622.742,-108.7 622.742,-108.7 618.9082,-109.8412 621.7149,-105.2496 615.0745,-110.9824 615.0745,-110.9824"/>
<ellipse fill="none" stroke="#000000" cx="612.0075" cy="-111.8954" rx="3.2" ry="3.2"/>
</g>
</g>
</svg>
