<?xml version="1.0" encoding="UTF-8" standalone="no"?>
<!DOCTYPE svg PUBLIC "-//W3C//DTD SVG 1.1//EN"
 "http://www.w3.org/Graphics/SVG/1.1/DTD/svg11.dtd">
<!-- Generated by graphviz version 2.40.1 (20161225.0304)
 -->
<!-- Title: oneDegreeRelationshipsDiagram Pages: 1 -->
<svg width="631pt" height="388pt"
 viewBox="0.00 0.00 631.00 387.70" xmlns="http://www.w3.org/2000/svg" xmlns:xlink="http://www.w3.org/1999/xlink">
<g id="graph0" class="graph" transform="scale(1 1) rotate(0) translate(4 383.7)">
<title>oneDegreeRelationshipsDiagram</title>
<polygon fill="#ffffff" stroke="transparent" points="-4,4 -4,-383.7 627,-383.7 627,4 -4,4"/>
<text text-anchor="middle" x="72.4936" y="-7.3" font-family="Helvetica,sans-Serif" font-size="11.00" fill="#000000">Generated by SchemaSpy</text>
<!-- oauth_access_token -->
<g id="node1" class="node">
<title>oauth_access_token</title>
<g id="a_node1"><a xlink:href="../../tables/oauth_access_token.html" xlink:title="oauth_access_token" target="_top">
<polygon fill="#ffffff" stroke="transparent" points="375,-153.7 375,-375.7 615,-375.7 615,-153.7 375,-153.7"/>
<polygon fill="#f5f5f5" stroke="transparent" points="377,-350.7 377,-373.7 613,-373.7 613,-350.7 377,-350.7"/>
<polygon fill="none" stroke="#000000" points="377,-350.7 377,-373.7 613,-373.7 613,-350.7 377,-350.7"/>
<text text-anchor="start" x="382" y="-359.8" font-family="Helvetica,sans-Serif" font-weight="bold" font-size="11.00" fill="#000000">oauth_access_token</text>
<text text-anchor="start" x="578.0437" y="-358.8" font-family="Helvetica,sans-Serif" font-size="11.00" fill="#000000">[table]</text>
<polygon fill="none" stroke="#000000" points="377,-328.7 377,-350.7 516,-350.7 516,-328.7 377,-328.7"/>
<image xlink:href="../../images/primaryKeys.png" width="11px" height="12px" preserveAspectRatio="xMinYMin meet" x="382" y="-345.7"/>
<text text-anchor="start" x="397" y="-335.8" font-family="Helvetica,sans-Serif" font-size="11.00" fill="#000000">id</text>
<polygon fill="none" stroke="#000000" points="516,-328.7 516,-350.7 613,-350.7 613,-328.7 516,-328.7"/>
<text text-anchor="start" x="519" y="-336.4" font-family="Helvetica,sans-Serif" font-size="11.00" fill="#000000">bigserial[19]</text>
<polygon fill="none" stroke="#000000" points="377,-306.7 377,-328.7 516,-328.7 516,-306.7 377,-306.7"/>
<text text-anchor="start" x="397" y="-313.8" font-family="Helvetica,sans-Serif" font-size="11.00" fill="#000000">created_at</text>
<polygon fill="none" stroke="#000000" points="516,-306.7 516,-328.7 613,-328.7 613,-306.7 516,-306.7"/>
<text text-anchor="start" x="519" y="-314.4" font-family="Helvetica,sans-Serif" font-size="11.00" fill="#000000">timestamptz[35,6]</text>
<polygon fill="none" stroke="#000000" points="377,-284.7 377,-306.7 516,-306.7 516,-284.7 377,-284.7"/>
<text text-anchor="start" x="397" y="-291.8" font-family="Helvetica,sans-Serif" font-size="11.00" fill="#000000">updated_at</text>
<polygon fill="none" stroke="#000000" points="516,-284.7 516,-306.7 613,-306.7 613,-284.7 516,-284.7"/>
<text text-anchor="start" x="519" y="-292.4" font-family="Helvetica,sans-Serif" font-size="11.00" fill="#000000">timestamptz[35,6]</text>
<polygon fill="#ffffff" stroke="transparent" points="377,-262.7 377,-284.7 516,-284.7 516,-262.7 377,-262.7"/>
<polygon fill="none" stroke="#000000" points="377,-262.7 377,-284.7 516,-284.7 516,-262.7 377,-262.7"/>
<text text-anchor="start" x="397" y="-269.8" font-family="Helvetica,sans-Serif" font-size="11.00" fill="#000000">token</text>
<polygon fill="none" stroke="#000000" points="516,-262.7 516,-284.7 613,-284.7 613,-262.7 516,-262.7"/>
<text text-anchor="start" x="519" y="-270.4" font-family="Helvetica,sans-Serif" font-size="11.00" fill="#000000">varchar[255]</text>
<polygon fill="none" stroke="#000000" points="377,-240.7 377,-262.7 516,-262.7 516,-240.7 377,-240.7"/>
<image xlink:href="../../images/foreignKeys.png" width="11px" height="12px" preserveAspectRatio="xMinYMin meet" x="382" y="-257.7"/>
<text text-anchor="start" x="397" y="-247.8" font-family="Helvetica,sans-Serif" font-size="11.00" fill="#000000">client_id</text>
<polygon fill="none" stroke="#000000" points="516,-240.7 516,-262.7 613,-262.7 613,-240.7 516,-240.7"/>
<text text-anchor="start" x="519" y="-248.4" font-family="Helvetica,sans-Serif" font-size="11.00" fill="#000000">int8[19]</text>
<polygon fill="none" stroke="#000000" points="377,-218.7 377,-240.7 516,-240.7 516,-218.7 377,-218.7"/>
<image xlink:href="../../images/foreignKeys.png" width="11px" height="12px" preserveAspectRatio="xMinYMin meet" x="382" y="-235.7"/>
<text text-anchor="start" x="397" y="-225.8" font-family="Helvetica,sans-Serif" font-size="11.00" fill="#000000">user_id</text>
<polygon fill="none" stroke="#000000" points="516,-218.7 516,-240.7 613,-240.7 613,-218.7 516,-218.7"/>
<text text-anchor="start" x="519" y="-226.4" font-family="Helvetica,sans-Serif" font-size="11.00" fill="#000000">int8[19]</text>
<polygon fill="none" stroke="#000000" points="377,-196.7 377,-218.7 516,-218.7 516,-196.7 377,-196.7"/>
<text text-anchor="start" x="397" y="-203.8" font-family="Helvetica,sans-Serif" font-size="11.00" fill="#000000">expires</text>
<polygon fill="none" stroke="#000000" points="516,-196.7 516,-218.7 613,-218.7 613,-196.7 516,-196.7"/>
<text text-anchor="start" x="519" y="-204.4" font-family="Helvetica,sans-Serif" font-size="11.00" fill="#000000">timestamptz[35,6]</text>
<polygon fill="none" stroke="#000000" points="377,-174.7 377,-196.7 516,-196.7 516,-174.7 377,-174.7"/>
<text text-anchor="start" x="397" y="-181.8" font-family="Helvetica,sans-Serif" font-size="11.00" fill="#000000">scope</text>
<polygon fill="none" stroke="#000000" points="516,-174.7 516,-196.7 613,-196.7 613,-174.7 516,-174.7"/>
<text text-anchor="start" x="518.9468" y="-182.4" font-family="Helvetica,sans-Serif" font-size="11.00" fill="#000000">_text[2147483647]</text>
<polygon fill="#ffffff" stroke="transparent" points="377,-155.7 377,-174.7 451,-174.7 451,-155.7 377,-155.7"/>
<polygon fill="none" stroke="#000000" points="377,-155.7 377,-174.7 451,-174.7 451,-155.7 377,-155.7"/>
<text text-anchor="start" x="380" y="-161.8" font-family="Helvetica,sans-Serif" font-size="11.00" fill="#000000">&lt; 2</text>
<polygon fill="#ffffff" stroke="transparent" points="451,-155.7 451,-174.7 516,-174.7 516,-155.7 451,-155.7"/>
<polygon fill="none" stroke="#000000" points="451,-155.7 451,-174.7 516,-174.7 516,-155.7 451,-155.7"/>
<text text-anchor="start" x="506.8862" y="-161.8" font-family="Helvetica,sans-Serif" font-size="11.00" fill="#000000"> &#160;</text>
<polygon fill="#ffffff" stroke="transparent" points="516,-155.7 516,-174.7 613,-174.7 613,-155.7 516,-155.7"/>
<polygon fill="none" stroke="#000000" points="516,-155.7 516,-174.7 613,-174.7 613,-155.7 516,-155.7"/>
<text text-anchor="start" x="594.4053" y="-161.8" font-family="Helvetica,sans-Serif" font-size="11.00" fill="#000000">0 &gt;</text>
<polygon fill="none" stroke="#000000" stroke-width="2" points="376,-154.7 376,-374.7 614,-374.7 614,-154.7 376,-154.7"/>
</a>
</g>
</g>
<!-- oauth_client -->
<g id="node2" class="node">
<title>oauth_client</title>
<g id="a_node2"><a xlink:href="../../tables/oauth_client.html" xlink:title="oauth_client" target="_top">
<polygon fill="#ffffff" stroke="transparent" points="224,-185.2 224,-356.2 326,-356.2 326,-185.2 224,-185.2"/>
<polygon fill="#f5f5f5" stroke="transparent" points="224,-332.7 224,-355.7 326,-355.7 326,-332.7 224,-332.7"/>
<polygon fill="none" stroke="#000000" points="224,-332.7 224,-355.7 326,-355.7 326,-332.7 224,-332.7"/>
<text text-anchor="start" x="228.8501" y="-341.8" font-family="Helvetica,sans-Serif" font-weight="bold" font-size="11.00" fill="#000000">oauth_client</text>
<text text-anchor="start" x="291.5219" y="-340.8" font-family="Helvetica,sans-Serif" font-size="11.00" fill="#000000">[table]</text>
<polygon fill="none" stroke="#000000" points="224,-310.7 224,-332.7 326,-332.7 326,-310.7 224,-310.7"/>
<image xlink:href="../../images/primaryKeys.png" width="11px" height="12px" preserveAspectRatio="xMinYMin meet" x="229" y="-327.7"/>
<text text-anchor="start" x="248" y="-317.8" font-family="Helvetica,sans-Serif" font-size="11.00" fill="#000000">id</text>
<polygon fill="#ffffff" stroke="transparent" points="224,-288.7 224,-310.7 326,-310.7 326,-288.7 224,-288.7"/>
<polygon fill="none" stroke="#000000" points="224,-288.7 224,-310.7 326,-310.7 326,-288.7 224,-288.7"/>
<text text-anchor="start" x="248" y="-295.8" font-family="Helvetica,sans-Serif" font-size="11.00" fill="#000000">client_id</text>
<polygon fill="none" stroke="#000000" points="224,-266.7 224,-288.7 326,-288.7 326,-266.7 224,-266.7"/>
<image xlink:href="../../images/foreignKeys.png" width="11px" height="12px" preserveAspectRatio="xMinYMin meet" x="229" y="-283.7"/>
<text text-anchor="start" x="248" y="-273.8" font-family="Helvetica,sans-Serif" font-size="11.00" fill="#000000">user_id</text>
<polygon fill="#ffffff" stroke="transparent" points="224,-244.7 224,-266.7 326,-266.7 326,-244.7 224,-244.7"/>
<polygon fill="none" stroke="#000000" points="224,-244.7 224,-266.7 326,-266.7 326,-244.7 224,-244.7"/>
<text text-anchor="start" x="248" y="-251.8" font-family="Helvetica,sans-Serif" font-size="11.00" fill="#000000">name</text>
<polygon fill="none" stroke="#000000" points="224,-222.7 224,-244.7 326,-244.7 326,-222.7 224,-222.7"/>
<image xlink:href="../../images/foreignKeys.png" width="11px" height="12px" preserveAspectRatio="xMinYMin meet" x="229" y="-239.7"/>
<text text-anchor="start" x="248" y="-229.8" font-family="Helvetica,sans-Serif" font-size="11.00" fill="#000000">avatar</text>
<polygon fill="none" stroke="#000000" points="224,-203.7 224,-222.7 326,-222.7 326,-203.7 224,-203.7"/>
<text text-anchor="start" x="227" y="-209.8" font-family="Helvetica,sans-Serif" font-size="11.00" fill="#000000">...</text>
<polygon fill="#ffffff" stroke="transparent" points="224,-184.7 224,-203.7 269,-203.7 269,-184.7 224,-184.7"/>
<polygon fill="none" stroke="#000000" points="224,-184.7 224,-203.7 269,-203.7 269,-184.7 224,-184.7"/>
<text text-anchor="start" x="227" y="-190.8" font-family="Helvetica,sans-Serif" font-size="11.00" fill="#000000">&lt; 2</text>
<polygon fill="#ffffff" stroke="transparent" points="269,-184.7 269,-203.7 293,-203.7 293,-184.7 269,-184.7"/>
<polygon fill="none" stroke="#000000" points="269,-184.7 269,-203.7 293,-203.7 293,-184.7 269,-184.7"/>
<text text-anchor="start" x="283.8862" y="-190.8" font-family="Helvetica,sans-Serif" font-size="11.00" fill="#000000"> &#160;</text>
<polygon fill="#ffffff" stroke="transparent" points="293,-184.7 293,-203.7 326,-203.7 326,-184.7 293,-184.7"/>
<polygon fill="none" stroke="#000000" points="293,-184.7 293,-203.7 326,-203.7 326,-184.7 293,-184.7"/>
<text text-anchor="start" x="307.4053" y="-190.8" font-family="Helvetica,sans-Serif" font-size="11.00" fill="#000000">3 &gt;</text>
</a>
</g>
</g>
<!-- oauth_access_token&#45;&gt;oauth_client -->
<g id="edge1" class="edge">
<title>oauth_access_token:w&#45;&gt;oauth_client:e</title>
<path fill="none" stroke="#000000" d="M363.1872,-256.2929C345.0536,-271.866 358.4781,-321.7 326,-321.7"/>
<polygon fill="#000000" stroke="#000000" points="369.4087,-254.2242 378.1359,-255.1161 373.2043,-252.9621 377,-251.7 377,-251.7 377,-251.7 373.2043,-252.9621 375.8641,-248.2839 369.4087,-254.2242 369.4087,-254.2242"/>
<ellipse fill="none" stroke="#000000" cx="366.3721" cy="-255.2339" rx="3.2" ry="3.2"/>
</g>
<!-- user -->
<g id="node3" class="node">
<title>user</title>
<g id="a_node3"><a xlink:href="../../tables/user.html" xlink:title="user" target="_top">
<polygon fill="#ffffff" stroke="transparent" points="8,-38.2 8,-253.2 175,-253.2 175,-38.2 8,-38.2"/>
<polygon fill="#f5f5f5" stroke="transparent" points="8.5,-229.7 8.5,-252.7 175.5,-252.7 175.5,-229.7 8.5,-229.7"/>
<polygon fill="none" stroke="#000000" points="8.5,-229.7 8.5,-252.7 175.5,-252.7 175.5,-229.7 8.5,-229.7"/>
<text text-anchor="start" x="13.5" y="-238.8" font-family="Helvetica,sans-Serif" font-weight="bold" font-size="11.00" fill="#000000">user</text>
<text text-anchor="start" x="140.5437" y="-237.8" font-family="Helvetica,sans-Serif" font-size="11.00" fill="#000000">[table]</text>
<polygon fill="none" stroke="#000000" points="8.5,-207.7 8.5,-229.7 175.5,-229.7 175.5,-207.7 8.5,-207.7"/>
<image xlink:href="../../images/primaryKeys.png" width="11px" height="12px" preserveAspectRatio="xMinYMin meet" x="13.5" y="-224.7"/>
<text text-anchor="start" x="28.5" y="-214.8" font-family="Helvetica,sans-Serif" font-size="11.00" fill="#000000">id</text>
<polygon fill="#ffffff" stroke="transparent" points="8.5,-185.7 8.5,-207.7 175.5,-207.7 175.5,-185.7 8.5,-185.7"/>
<polygon fill="none" stroke="#000000" points="8.5,-185.7 8.5,-207.7 175.5,-207.7 175.5,-185.7 8.5,-185.7"/>
<text text-anchor="start" x="28.5" y="-192.8" font-family="Helvetica,sans-Serif" font-size="11.00" fill="#000000">uuid</text>
<polygon fill="#ffffff" stroke="transparent" points="8.5,-163.7 8.5,-185.7 175.5,-185.7 175.5,-163.7 8.5,-163.7"/>
<polygon fill="none" stroke="#000000" points="8.5,-163.7 8.5,-185.7 175.5,-185.7 175.5,-163.7 8.5,-163.7"/>
<text text-anchor="start" x="28.5" y="-170.8" font-family="Helvetica,sans-Serif" font-size="11.00" fill="#000000">user_name</text>
<polygon fill="none" stroke="#000000" points="8.5,-141.7 8.5,-163.7 175.5,-163.7 175.5,-141.7 8.5,-141.7"/>
<image xlink:href="../../images/foreignKeys.png" width="11px" height="12px" preserveAspectRatio="xMinYMin meet" x="13.5" y="-158.7"/>
<text text-anchor="start" x="28.5" y="-148.8" font-family="Helvetica,sans-Serif" font-size="11.00" fill="#000000">avatar</text>
<polygon fill="#ffffff" stroke="transparent" points="8.5,-119.7 8.5,-141.7 175.5,-141.7 175.5,-119.7 8.5,-119.7"/>
<polygon fill="none" stroke="#000000" points="8.5,-119.7 8.5,-141.7 175.5,-141.7 175.5,-119.7 8.5,-119.7"/>
<text text-anchor="start" x="28.5" y="-126.8" font-family="Helvetica,sans-Serif" font-size="11.00" fill="#000000">email</text>
<polygon fill="#ffffff" stroke="transparent" points="8.5,-97.7 8.5,-119.7 175.5,-119.7 175.5,-97.7 8.5,-97.7"/>
<polygon fill="none" stroke="#000000" points="8.5,-97.7 8.5,-119.7 175.5,-119.7 175.5,-97.7 8.5,-97.7"/>
<text text-anchor="start" x="28.5" y="-104.8" font-family="Helvetica,sans-Serif" font-size="11.00" fill="#000000">state</text>
<polygon fill="#ffffff" stroke="transparent" points="8.5,-75.7 8.5,-97.7 175.5,-97.7 175.5,-75.7 8.5,-75.7"/>
<polygon fill="none" stroke="#000000" points="8.5,-75.7 8.5,-97.7 175.5,-97.7 175.5,-75.7 8.5,-75.7"/>
<text text-anchor="start" x="28.5" y="-82.8" font-family="Helvetica,sans-Serif" font-size="11.00" fill="#000000">liker_id</text>
<polygon fill="none" stroke="#000000" points="8.5,-56.7 8.5,-75.7 175.5,-75.7 175.5,-56.7 8.5,-56.7"/>
<text text-anchor="start" x="11.5" y="-62.8" font-family="Helvetica,sans-Serif" font-size="11.00" fill="#000000">...</text>
<polygon fill="#ffffff" stroke="transparent" points="8.5,-37.7 8.5,-56.7 82.5,-56.7 82.5,-37.7 8.5,-37.7"/>
<polygon fill="none" stroke="#000000" points="8.5,-37.7 8.5,-56.7 82.5,-56.7 82.5,-37.7 8.5,-37.7"/>
<text text-anchor="start" x="11.5" y="-43.8" font-family="Helvetica,sans-Serif" font-size="11.00" fill="#000000">&lt; 1</text>
<polygon fill="#ffffff" stroke="transparent" points="82.5,-37.7 82.5,-56.7 121.5,-56.7 121.5,-37.7 82.5,-37.7"/>
<polygon fill="none" stroke="#000000" points="82.5,-37.7 82.5,-56.7 121.5,-56.7 121.5,-37.7 82.5,-37.7"/>
<text text-anchor="start" x="112.3862" y="-43.8" font-family="Helvetica,sans-Serif" font-size="11.00" fill="#000000"> &#160;</text>
<polygon fill="#ffffff" stroke="transparent" points="121.5,-37.7 121.5,-56.7 175.5,-56.7 175.5,-37.7 121.5,-37.7"/>
<polygon fill="none" stroke="#000000" points="121.5,-37.7 121.5,-56.7 175.5,-56.7 175.5,-37.7 121.5,-37.7"/>
<text text-anchor="start" x="150.7904" y="-43.8" font-family="Helvetica,sans-Serif" font-size="11.00" fill="#000000">42 &gt;</text>
</a>
</g>
</g>
<!-- oauth_access_token&#45;&gt;user -->
<g id="edge2" class="edge">
<title>oauth_access_token:w&#45;&gt;user:e</title>
<path fill="none" stroke="#000000" d="M363.1425,-225.1552C350.631,-214.0274 356.2252,-185.5354 334,-174.7 286.8594,-151.7177 264.0266,-153.6319 216,-174.7 191.6604,-185.3772 202.0786,-218.7 175.5,-218.7"/>
<polygon fill="#000000" stroke="#000000" points="369.3984,-227.2069 375.8781,-233.1207 373.1992,-228.4534 377,-229.7 377,-229.7 377,-229.7 373.1992,-228.4534 378.1219,-226.2793 369.3984,-227.2069 369.3984,-227.2069"/>
<ellipse fill="none" stroke="#000000" cx="366.3577" cy="-226.2097" rx="3.2" ry="3.2"/>
</g>
<!-- oauth_client&#45;&gt;user -->
<g id="edge3" class="edge">
<title>oauth_client:w&#45;&gt;user:e</title>
<path fill="none" stroke="#000000" d="M210.2489,-272.6697C195.3013,-258.4018 203.3453,-218.7 175.5,-218.7"/>
<polygon fill="#000000" stroke="#000000" points="216.4869,-274.9516 222.7632,-281.0809 220.2435,-276.3258 224,-277.7 224,-277.7 224,-277.7 220.2435,-276.3258 225.2368,-274.3191 216.4869,-274.9516 216.4869,-274.9516"/>
<ellipse fill="none" stroke="#000000" cx="213.4817" cy="-273.8522" rx="3.2" ry="3.2"/>
</g>
</g>
</svg>
