<?xml version="1.0" encoding="UTF-8" standalone="no"?>
<!DOCTYPE svg PUBLIC "-//W3C//DTD SVG 1.1//EN"
 "http://www.w3.org/Graphics/SVG/1.1/DTD/svg11.dtd">
<!-- Generated by graphviz version 2.40.1 (20161225.0304)
 -->
<!-- Title: oneDegreeRelationshipsDiagram Pages: 1 -->
<svg width="440pt" height="289pt"
 viewBox="0.00 0.00 440.00 288.70" xmlns="http://www.w3.org/2000/svg" xmlns:xlink="http://www.w3.org/1999/xlink">
<g id="graph0" class="graph" transform="scale(1 1) rotate(0) translate(4 284.7)">
<title>oneDegreeRelationshipsDiagram</title>
<polygon fill="#ffffff" stroke="transparent" points="-4,4 -4,-284.7 436,-284.7 436,4 -4,4"/>
<text text-anchor="middle" x="72.4936" y="-7.3" font-family="Helvetica,sans-Serif" font-size="11.00" fill="#000000">Generated by SchemaSpy</text>
<!-- punish_record -->
<g id="node1" class="node">
<title>punish_record</title>
<g id="a_node1"><a xlink:href="../../tables/punish_record.html" xlink:title="punish_record" target="_top">
<polygon fill="#ffffff" stroke="transparent" points="224,-76.7 224,-276.7 424,-276.7 424,-76.7 224,-76.7"/>
<polygon fill="#f5f5f5" stroke="transparent" points="226,-251.7 226,-274.7 422,-274.7 422,-251.7 226,-251.7"/>
<polygon fill="none" stroke="#000000" points="226,-251.7 226,-274.7 422,-274.7 422,-251.7 226,-251.7"/>
<text text-anchor="start" x="231" y="-260.8" font-family="Helvetica,sans-Serif" font-weight="bold" font-size="11.00" fill="#000000">punish_record</text>
<text text-anchor="start" x="387.0437" y="-259.8" font-family="Helvetica,sans-Serif" font-size="11.00" fill="#000000">[table]</text>
<polygon fill="none" stroke="#000000" points="226,-229.7 226,-251.7 330,-251.7 330,-229.7 226,-229.7"/>
<image xlink:href="../../images/primaryKeys.png" width="11px" height="12px" preserveAspectRatio="xMinYMin meet" x="231" y="-246.7"/>
<text text-anchor="start" x="246" y="-236.8" font-family="Helvetica,sans-Serif" font-size="11.00" fill="#000000">id</text>
<polygon fill="none" stroke="#000000" points="330,-229.7 330,-251.7 422,-251.7 422,-229.7 330,-229.7"/>
<text text-anchor="start" x="333" y="-237.4" font-family="Helvetica,sans-Serif" font-size="11.00" fill="#000000">bigserial[19]</text>
<polygon fill="#ffffff" stroke="transparent" points="226,-207.7 226,-229.7 330,-229.7 330,-207.7 226,-207.7"/>
<polygon fill="none" stroke="#000000" points="226,-207.7 226,-229.7 330,-229.7 330,-207.7 226,-207.7"/>
<image xlink:href="../../images/foreignKeys.png" width="11px" height="12px" preserveAspectRatio="xMinYMin meet" x="231" y="-224.7"/>
<text text-anchor="start" x="246" y="-214.8" font-family="Helvetica,sans-Serif" font-size="11.00" fill="#000000">user_id</text>
<polygon fill="none" stroke="#000000" points="330,-207.7 330,-229.7 422,-229.7 422,-207.7 330,-207.7"/>
<text text-anchor="start" x="333" y="-215.4" font-family="Helvetica,sans-Serif" font-size="11.00" fill="#000000">int8[19]</text>
<polygon fill="#ffffff" stroke="transparent" points="226,-185.7 226,-207.7 330,-207.7 330,-185.7 226,-185.7"/>
<polygon fill="none" stroke="#000000" points="226,-185.7 226,-207.7 330,-207.7 330,-185.7 226,-185.7"/>
<text text-anchor="start" x="246" y="-192.8" font-family="Helvetica,sans-Serif" font-size="11.00" fill="#000000">state</text>
<polygon fill="none" stroke="#000000" points="330,-185.7 330,-207.7 422,-207.7 422,-185.7 330,-185.7"/>
<text text-anchor="start" x="333" y="-193.4" font-family="Helvetica,sans-Serif" font-size="11.00" fill="#000000">text[2147483647]</text>
<polygon fill="#ffffff" stroke="transparent" points="226,-163.7 226,-185.7 330,-185.7 330,-163.7 226,-163.7"/>
<polygon fill="none" stroke="#000000" points="226,-163.7 226,-185.7 330,-185.7 330,-163.7 226,-163.7"/>
<text text-anchor="start" x="246" y="-170.8" font-family="Helvetica,sans-Serif" font-size="11.00" fill="#000000">archived</text>
<polygon fill="none" stroke="#000000" points="330,-163.7 330,-185.7 422,-185.7 422,-163.7 330,-163.7"/>
<text text-anchor="start" x="333" y="-171.4" font-family="Helvetica,sans-Serif" font-size="11.00" fill="#000000">bool[1]</text>
<polygon fill="none" stroke="#000000" points="226,-141.7 226,-163.7 330,-163.7 330,-141.7 226,-141.7"/>
<text text-anchor="start" x="246" y="-148.8" font-family="Helvetica,sans-Serif" font-size="11.00" fill="#000000">expired_at</text>
<polygon fill="none" stroke="#000000" points="330,-141.7 330,-163.7 422,-163.7 422,-141.7 330,-141.7"/>
<text text-anchor="start" x="332.6023" y="-149.4" font-family="Helvetica,sans-Serif" font-size="11.00" fill="#000000">timestamptz[35,6]</text>
<polygon fill="none" stroke="#000000" points="226,-119.7 226,-141.7 330,-141.7 330,-119.7 226,-119.7"/>
<text text-anchor="start" x="246" y="-126.8" font-family="Helvetica,sans-Serif" font-size="11.00" fill="#000000">created_at</text>
<polygon fill="none" stroke="#000000" points="330,-119.7 330,-141.7 422,-141.7 422,-119.7 330,-119.7"/>
<text text-anchor="start" x="332.6023" y="-127.4" font-family="Helvetica,sans-Serif" font-size="11.00" fill="#000000">timestamptz[35,6]</text>
<polygon fill="none" stroke="#000000" points="226,-97.7 226,-119.7 330,-119.7 330,-97.7 226,-97.7"/>
<text text-anchor="start" x="246" y="-104.8" font-family="Helvetica,sans-Serif" font-size="11.00" fill="#000000">updated_at</text>
<polygon fill="none" stroke="#000000" points="330,-97.7 330,-119.7 422,-119.7 422,-97.7 330,-97.7"/>
<text text-anchor="start" x="332.6023" y="-105.4" font-family="Helvetica,sans-Serif" font-size="11.00" fill="#000000">timestamptz[35,6]</text>
<polygon fill="#ffffff" stroke="transparent" points="226,-78.7 226,-97.7 282,-97.7 282,-78.7 226,-78.7"/>
<polygon fill="none" stroke="#000000" points="226,-78.7 226,-97.7 282,-97.7 282,-78.7 226,-78.7"/>
<text text-anchor="start" x="229" y="-84.8" font-family="Helvetica,sans-Serif" font-size="11.00" fill="#000000">&lt; 1</text>
<polygon fill="#ffffff" stroke="transparent" points="282,-78.7 282,-97.7 330,-97.7 330,-78.7 282,-78.7"/>
<polygon fill="none" stroke="#000000" points="282,-78.7 282,-97.7 330,-97.7 330,-78.7 282,-78.7"/>
<text text-anchor="start" x="320.8862" y="-84.8" font-family="Helvetica,sans-Serif" font-size="11.00" fill="#000000"> &#160;</text>
<polygon fill="#ffffff" stroke="transparent" points="330,-78.7 330,-97.7 422,-97.7 422,-78.7 330,-78.7"/>
<polygon fill="none" stroke="#000000" points="330,-78.7 330,-97.7 422,-97.7 422,-78.7 330,-78.7"/>
<text text-anchor="start" x="403.4053" y="-84.8" font-family="Helvetica,sans-Serif" font-size="11.00" fill="#000000">0 &gt;</text>
<polygon fill="none" stroke="#000000" stroke-width="2" points="225,-77.7 225,-275.7 423,-275.7 423,-77.7 225,-77.7"/>
</a>
</g>
</g>
<!-- user -->
<g id="node2" class="node">
<title>user</title>
<g id="a_node2"><a xlink:href="../../tables/user.html" xlink:title="user" target="_top">
<polygon fill="#ffffff" stroke="transparent" points="8,-38.2 8,-253.2 175,-253.2 175,-38.2 8,-38.2"/>
<polygon fill="#f5f5f5" stroke="transparent" points="8.5,-229.7 8.5,-252.7 175.5,-252.7 175.5,-229.7 8.5,-229.7"/>
<polygon fill="none" stroke="#000000" points="8.5,-229.7 8.5,-252.7 175.5,-252.7 175.5,-229.7 8.5,-229.7"/>
<text text-anchor="start" x="13.5" y="-238.8" font-family="Helvetica,sans-Serif" font-weight="bold" font-size="11.00" fill="#000000">user</text>
<text text-anchor="start" x="140.5437" y="-237.8" font-family="Helvetica,sans-Serif" font-size="11.00" fill="#000000">[table]</text>
<polygon fill="none" stroke="#000000" points="8.5,-207.7 8.5,-229.7 175.5,-229.7 175.5,-207.7 8.5,-207.7"/>
<image xlink:href="../../images/primaryKeys.png" width="11px" height="12px" preserveAspectRatio="xMinYMin meet" x="13.5" y="-224.7"/>
<text text-anchor="start" x="28.5" y="-214.8" font-family="Helvetica,sans-Serif" font-size="11.00" fill="#000000">id</text>
<polygon fill="#ffffff" stroke="transparent" points="8.5,-185.7 8.5,-207.7 175.5,-207.7 175.5,-185.7 8.5,-185.7"/>
<polygon fill="none" stroke="#000000" points="8.5,-185.7 8.5,-207.7 175.5,-207.7 175.5,-185.7 8.5,-185.7"/>
<text text-anchor="start" x="28.5" y="-192.8" font-family="Helvetica,sans-Serif" font-size="11.00" fill="#000000">uuid</text>
<polygon fill="#ffffff" stroke="transparent" points="8.5,-163.7 8.5,-185.7 175.5,-185.7 175.5,-163.7 8.5,-163.7"/>
<polygon fill="none" stroke="#000000" points="8.5,-163.7 8.5,-185.7 175.5,-185.7 175.5,-163.7 8.5,-163.7"/>
<text text-anchor="start" x="28.5" y="-170.8" font-family="Helvetica,sans-Serif" font-size="11.00" fill="#000000">user_name</text>
<polygon fill="none" stroke="#000000" points="8.5,-141.7 8.5,-163.7 175.5,-163.7 175.5,-141.7 8.5,-141.7"/>
<image xlink:href="../../images/foreignKeys.png" width="11px" height="12px" preserveAspectRatio="xMinYMin meet" x="13.5" y="-158.7"/>
<text text-anchor="start" x="28.5" y="-148.8" font-family="Helvetica,sans-Serif" font-size="11.00" fill="#000000">avatar</text>
<polygon fill="#ffffff" stroke="transparent" points="8.5,-119.7 8.5,-141.7 175.5,-141.7 175.5,-119.7 8.5,-119.7"/>
<polygon fill="none" stroke="#000000" points="8.5,-119.7 8.5,-141.7 175.5,-141.7 175.5,-119.7 8.5,-119.7"/>
<text text-anchor="start" x="28.5" y="-126.8" font-family="Helvetica,sans-Serif" font-size="11.00" fill="#000000">email</text>
<polygon fill="#ffffff" stroke="transparent" points="8.5,-97.7 8.5,-119.7 175.5,-119.7 175.5,-97.7 8.5,-97.7"/>
<polygon fill="none" stroke="#000000" points="8.5,-97.7 8.5,-119.7 175.5,-119.7 175.5,-97.7 8.5,-97.7"/>
<text text-anchor="start" x="28.5" y="-104.8" font-family="Helvetica,sans-Serif" font-size="11.00" fill="#000000">state</text>
<polygon fill="#ffffff" stroke="transparent" points="8.5,-75.7 8.5,-97.7 175.5,-97.7 175.5,-75.7 8.5,-75.7"/>
<polygon fill="none" stroke="#000000" points="8.5,-75.7 8.5,-97.7 175.5,-97.7 175.5,-75.7 8.5,-75.7"/>
<text text-anchor="start" x="28.5" y="-82.8" font-family="Helvetica,sans-Serif" font-size="11.00" fill="#000000">liker_id</text>
<polygon fill="none" stroke="#000000" points="8.5,-56.7 8.5,-75.7 175.5,-75.7 175.5,-56.7 8.5,-56.7"/>
<text text-anchor="start" x="11.5" y="-62.8" font-family="Helvetica,sans-Serif" font-size="11.00" fill="#000000">...</text>
<polygon fill="#ffffff" stroke="transparent" points="8.5,-37.7 8.5,-56.7 82.5,-56.7 82.5,-37.7 8.5,-37.7"/>
<polygon fill="none" stroke="#000000" points="8.5,-37.7 8.5,-56.7 82.5,-56.7 82.5,-37.7 8.5,-37.7"/>
<text text-anchor="start" x="11.5" y="-43.8" font-family="Helvetica,sans-Serif" font-size="11.00" fill="#000000">&lt; 1</text>
<polygon fill="#ffffff" stroke="transparent" points="82.5,-37.7 82.5,-56.7 121.5,-56.7 121.5,-37.7 82.5,-37.7"/>
<polygon fill="none" stroke="#000000" points="82.5,-37.7 82.5,-56.7 121.5,-56.7 121.5,-37.7 82.5,-37.7"/>
<text text-anchor="start" x="112.3862" y="-43.8" font-family="Helvetica,sans-Serif" font-size="11.00" fill="#000000"> &#160;</text>
<polygon fill="#ffffff" stroke="transparent" points="121.5,-37.7 121.5,-56.7 175.5,-56.7 175.5,-37.7 121.5,-37.7"/>
<polygon fill="none" stroke="#000000" points="121.5,-37.7 121.5,-56.7 175.5,-56.7 175.5,-37.7 121.5,-37.7"/>
<text text-anchor="start" x="150.7904" y="-43.8" font-family="Helvetica,sans-Serif" font-size="11.00" fill="#000000">42 &gt;</text>
</a>
</g>
</g>
<!-- punish_record&#45;&gt;user -->
<g id="edge1" class="edge">
<title>punish_record:w&#45;&gt;user:e</title>
<path fill="none" stroke="#000000" d="M211.4203,-218.7C199.5435,-218.7 192.158,-218.7 175.5,-218.7"/>
<polygon fill="#000000" stroke="#000000" points="218,-218.7001 226,-222.3 222,-218.7 226,-218.7 226,-218.7 226,-218.7 222,-218.7 226,-215.1 218,-218.7001 218,-218.7001"/>
<ellipse fill="none" stroke="#000000" cx="214.8" cy="-218.7001" rx="3.2" ry="3.2"/>
</g>
</g>
</svg>
