<?xml version="1.0" encoding="UTF-8" standalone="no"?>
<!DOCTYPE svg PUBLIC "-//W3C//DTD SVG 1.1//EN"
 "http://www.w3.org/Graphics/SVG/1.1/DTD/svg11.dtd">
<!-- Generated by graphviz version 2.40.1 (20161225.0304)
 -->
<!-- Title: oneDegreeRelationshipsDiagram Pages: 1 -->
<svg width="350pt" height="338pt"
 viewBox="0.00 0.00 350.00 338.20" xmlns="http://www.w3.org/2000/svg" xmlns:xlink="http://www.w3.org/1999/xlink">
<g id="graph0" class="graph" transform="scale(1 1) rotate(0) translate(4 334.2)">
<title>oneDegreeRelationshipsDiagram</title>
<polygon fill="#ffffff" stroke="transparent" points="-4,4 -4,-334.2 346,-334.2 346,4 -4,4"/>
<text text-anchor="middle" x="72.4936" y="-7.3" font-family="Helvetica,sans-Serif" font-size="11.00" fill="#000000">Generated by SchemaSpy</text>
<!-- release -->
<g id="node1" class="node">
<title>release</title>
<g id="a_node1"><a xlink:href="../../tables/release.html" xlink:title="release" target="_top">
<polygon fill="#ffffff" stroke="transparent" points="142,-38.2 142,-326.2 334,-326.2 334,-38.2 142,-38.2"/>
<polygon fill="#f5f5f5" stroke="transparent" points="144,-301.2 144,-324.2 332,-324.2 332,-301.2 144,-301.2"/>
<polygon fill="none" stroke="#000000" points="144,-301.2 144,-324.2 332,-324.2 332,-301.2 144,-301.2"/>
<text text-anchor="start" x="149" y="-310.3" font-family="Helvetica,sans-Serif" font-weight="bold" font-size="11.00" fill="#000000">release</text>
<text text-anchor="start" x="297.0437" y="-309.3" font-family="Helvetica,sans-Serif" font-size="11.00" fill="#000000">[table]</text>
<polygon fill="none" stroke="#000000" points="144,-279.2 144,-301.2 240,-301.2 240,-279.2 144,-279.2"/>
<image xlink:href="../../images/primaryKeys.png" width="11px" height="12px" preserveAspectRatio="xMinYMin meet" x="149" y="-296.2"/>
<text text-anchor="start" x="164" y="-286.3" font-family="Helvetica,sans-Serif" font-size="11.00" fill="#000000">id</text>
<polygon fill="none" stroke="#000000" points="240,-279.2 240,-301.2 332,-301.2 332,-279.2 240,-279.2"/>
<text text-anchor="start" x="243" y="-286.9" font-family="Helvetica,sans-Serif" font-size="11.00" fill="#000000">bigserial[19]</text>
<polygon fill="none" stroke="#000000" points="144,-257.2 144,-279.2 240,-279.2 240,-257.2 144,-257.2"/>
<text text-anchor="start" x="164" y="-264.3" font-family="Helvetica,sans-Serif" font-size="11.00" fill="#000000">title</text>
<polygon fill="none" stroke="#000000" points="240,-257.2 240,-279.2 332,-279.2 332,-257.2 240,-257.2"/>
<text text-anchor="start" x="243" y="-264.9" font-family="Helvetica,sans-Serif" font-size="11.00" fill="#000000">varchar[255]</text>
<polygon fill="none" stroke="#000000" points="144,-235.2 144,-257.2 240,-257.2 240,-235.2 144,-235.2"/>
<text text-anchor="start" x="164" y="-242.3" font-family="Helvetica,sans-Serif" font-size="11.00" fill="#000000">description</text>
<polygon fill="none" stroke="#000000" points="240,-235.2 240,-257.2 332,-257.2 332,-235.2 240,-235.2"/>
<text text-anchor="start" x="243" y="-242.9" font-family="Helvetica,sans-Serif" font-size="11.00" fill="#000000">text[2147483647]</text>
<polygon fill="none" stroke="#000000" points="144,-213.2 144,-235.2 240,-235.2 240,-213.2 144,-213.2"/>
<image xlink:href="../../images/foreignKeys.png" width="11px" height="12px" preserveAspectRatio="xMinYMin meet" x="149" y="-230.2"/>
<text text-anchor="start" x="164" y="-220.3" font-family="Helvetica,sans-Serif" font-size="11.00" fill="#000000">cover</text>
<polygon fill="none" stroke="#000000" points="240,-213.2 240,-235.2 332,-235.2 332,-213.2 240,-213.2"/>
<text text-anchor="start" x="243" y="-220.9" font-family="Helvetica,sans-Serif" font-size="11.00" fill="#000000">int8[19]</text>
<polygon fill="none" stroke="#000000" points="144,-191.2 144,-213.2 240,-213.2 240,-191.2 144,-191.2"/>
<text text-anchor="start" x="164" y="-198.3" font-family="Helvetica,sans-Serif" font-size="11.00" fill="#000000">link</text>
<polygon fill="none" stroke="#000000" points="240,-191.2 240,-213.2 332,-213.2 332,-191.2 240,-191.2"/>
<text text-anchor="start" x="243" y="-198.9" font-family="Helvetica,sans-Serif" font-size="11.00" fill="#000000">varchar[255]</text>
<polygon fill="#ffffff" stroke="transparent" points="144,-169.2 144,-191.2 240,-191.2 240,-169.2 144,-169.2"/>
<polygon fill="none" stroke="#000000" points="144,-169.2 144,-191.2 240,-191.2 240,-169.2 144,-169.2"/>
<text text-anchor="start" x="164" y="-176.3" font-family="Helvetica,sans-Serif" font-size="11.00" fill="#000000">platform</text>
<polygon fill="none" stroke="#000000" points="240,-169.2 240,-191.2 332,-191.2 332,-169.2 240,-169.2"/>
<text text-anchor="start" x="243" y="-176.9" font-family="Helvetica,sans-Serif" font-size="11.00" fill="#000000">text[2147483647]</text>
<polygon fill="#ffffff" stroke="transparent" points="144,-147.2 144,-169.2 240,-169.2 240,-147.2 144,-147.2"/>
<polygon fill="none" stroke="#000000" points="144,-147.2 144,-169.2 240,-169.2 240,-147.2 144,-147.2"/>
<text text-anchor="start" x="164" y="-154.3" font-family="Helvetica,sans-Serif" font-size="11.00" fill="#000000">channel</text>
<polygon fill="none" stroke="#000000" points="240,-147.2 240,-169.2 332,-169.2 332,-147.2 240,-147.2"/>
<text text-anchor="start" x="243" y="-154.9" font-family="Helvetica,sans-Serif" font-size="11.00" fill="#000000">text[2147483647]</text>
<polygon fill="#ffffff" stroke="transparent" points="144,-125.2 144,-147.2 240,-147.2 240,-125.2 144,-125.2"/>
<polygon fill="none" stroke="#000000" points="144,-125.2 144,-147.2 240,-147.2 240,-125.2 144,-125.2"/>
<text text-anchor="start" x="164" y="-132.3" font-family="Helvetica,sans-Serif" font-size="11.00" fill="#000000">version</text>
<polygon fill="none" stroke="#000000" points="240,-125.2 240,-147.2 332,-147.2 332,-125.2 240,-125.2"/>
<text text-anchor="start" x="243" y="-132.9" font-family="Helvetica,sans-Serif" font-size="11.00" fill="#000000">varchar[255]</text>
<polygon fill="none" stroke="#000000" points="144,-103.2 144,-125.2 240,-125.2 240,-103.2 144,-103.2"/>
<text text-anchor="start" x="164" y="-110.3" font-family="Helvetica,sans-Serif" font-size="11.00" fill="#000000">latest</text>
<polygon fill="none" stroke="#000000" points="240,-103.2 240,-125.2 332,-125.2 332,-103.2 240,-103.2"/>
<text text-anchor="start" x="243" y="-110.9" font-family="Helvetica,sans-Serif" font-size="11.00" fill="#000000">bool[1]</text>
<polygon fill="none" stroke="#000000" points="144,-81.2 144,-103.2 240,-103.2 240,-81.2 144,-81.2"/>
<text text-anchor="start" x="164" y="-88.3" font-family="Helvetica,sans-Serif" font-size="11.00" fill="#000000">force_update</text>
<polygon fill="none" stroke="#000000" points="240,-81.2 240,-103.2 332,-103.2 332,-81.2 240,-81.2"/>
<text text-anchor="start" x="243" y="-88.9" font-family="Helvetica,sans-Serif" font-size="11.00" fill="#000000">bool[1]</text>
<polygon fill="none" stroke="#000000" points="144,-59.2 144,-81.2 240,-81.2 240,-59.2 144,-59.2"/>
<text text-anchor="start" x="164" y="-66.3" font-family="Helvetica,sans-Serif" font-size="11.00" fill="#000000">created_at</text>
<polygon fill="none" stroke="#000000" points="240,-59.2 240,-81.2 332,-81.2 332,-59.2 240,-59.2"/>
<text text-anchor="start" x="242.6023" y="-66.9" font-family="Helvetica,sans-Serif" font-size="11.00" fill="#000000">timestamptz[35,6]</text>
<polygon fill="#ffffff" stroke="transparent" points="144,-40.2 144,-59.2 196,-59.2 196,-40.2 144,-40.2"/>
<polygon fill="none" stroke="#000000" points="144,-40.2 144,-59.2 196,-59.2 196,-40.2 144,-40.2"/>
<text text-anchor="start" x="147" y="-46.3" font-family="Helvetica,sans-Serif" font-size="11.00" fill="#000000">&lt; 1</text>
<polygon fill="#ffffff" stroke="transparent" points="196,-40.2 196,-59.2 240,-59.2 240,-40.2 196,-40.2"/>
<polygon fill="none" stroke="#000000" points="196,-40.2 196,-59.2 240,-59.2 240,-40.2 196,-40.2"/>
<text text-anchor="start" x="230.8862" y="-46.3" font-family="Helvetica,sans-Serif" font-size="11.00" fill="#000000"> &#160;</text>
<polygon fill="#ffffff" stroke="transparent" points="240,-40.2 240,-59.2 332,-59.2 332,-40.2 240,-40.2"/>
<polygon fill="none" stroke="#000000" points="240,-40.2 240,-59.2 332,-59.2 332,-40.2 240,-40.2"/>
<text text-anchor="start" x="313.4053" y="-46.3" font-family="Helvetica,sans-Serif" font-size="11.00" fill="#000000">0 &gt;</text>
<polygon fill="none" stroke="#000000" stroke-width="2" points="143,-39.2 143,-325.2 333,-325.2 333,-39.2 143,-39.2"/>
</a>
</g>
</g>
<!-- asset -->
<g id="node2" class="node">
<title>asset</title>
<g id="a_node2"><a xlink:href="../../tables/asset.html" xlink:title="asset" target="_top">
<polygon fill="#ffffff" stroke="transparent" points="8,-131.7 8,-258.7 93,-258.7 93,-131.7 8,-131.7"/>
<polygon fill="#f5f5f5" stroke="transparent" points="8.5,-235.2 8.5,-258.2 93.5,-258.2 93.5,-235.2 8.5,-235.2"/>
<polygon fill="none" stroke="#000000" points="8.5,-235.2 8.5,-258.2 93.5,-258.2 93.5,-235.2 8.5,-235.2"/>
<text text-anchor="start" x="13.5" y="-244.3" font-family="Helvetica,sans-Serif" font-weight="bold" font-size="11.00" fill="#000000">asset</text>
<text text-anchor="start" x="58.5437" y="-243.3" font-family="Helvetica,sans-Serif" font-size="11.00" fill="#000000">[table]</text>
<polygon fill="none" stroke="#000000" points="8.5,-213.2 8.5,-235.2 93.5,-235.2 93.5,-213.2 8.5,-213.2"/>
<image xlink:href="../../images/primaryKeys.png" width="11px" height="12px" preserveAspectRatio="xMinYMin meet" x="13.5" y="-230.2"/>
<text text-anchor="start" x="28.5" y="-220.3" font-family="Helvetica,sans-Serif" font-size="11.00" fill="#000000">id</text>
<polygon fill="#ffffff" stroke="transparent" points="8.5,-191.2 8.5,-213.2 93.5,-213.2 93.5,-191.2 8.5,-191.2"/>
<polygon fill="none" stroke="#000000" points="8.5,-191.2 8.5,-213.2 93.5,-213.2 93.5,-191.2 8.5,-191.2"/>
<text text-anchor="start" x="28.5" y="-198.3" font-family="Helvetica,sans-Serif" font-size="11.00" fill="#000000">uuid</text>
<polygon fill="none" stroke="#000000" points="8.5,-169.2 8.5,-191.2 93.5,-191.2 93.5,-169.2 8.5,-169.2"/>
<image xlink:href="../../images/foreignKeys.png" width="11px" height="12px" preserveAspectRatio="xMinYMin meet" x="13.5" y="-186.2"/>
<text text-anchor="start" x="28.5" y="-176.3" font-family="Helvetica,sans-Serif" font-size="11.00" fill="#000000">author_id</text>
<polygon fill="none" stroke="#000000" points="8.5,-150.2 8.5,-169.2 93.5,-169.2 93.5,-150.2 8.5,-150.2"/>
<text text-anchor="start" x="11.5" y="-156.3" font-family="Helvetica,sans-Serif" font-size="11.00" fill="#000000">...</text>
<polygon fill="#ffffff" stroke="transparent" points="8.5,-131.2 8.5,-150.2 44.5,-150.2 44.5,-131.2 8.5,-131.2"/>
<polygon fill="none" stroke="#000000" points="8.5,-131.2 8.5,-150.2 44.5,-150.2 44.5,-131.2 8.5,-131.2"/>
<text text-anchor="start" x="11.5" y="-137.3" font-family="Helvetica,sans-Serif" font-size="11.00" fill="#000000">&lt; 1</text>
<polygon fill="#ffffff" stroke="transparent" points="44.5,-131.2 44.5,-150.2 64.5,-150.2 64.5,-131.2 44.5,-131.2"/>
<polygon fill="none" stroke="#000000" points="44.5,-131.2 44.5,-150.2 64.5,-150.2 64.5,-131.2 44.5,-131.2"/>
<text text-anchor="start" x="55.3862" y="-137.3" font-family="Helvetica,sans-Serif" font-size="11.00" fill="#000000"> &#160;</text>
<polygon fill="#ffffff" stroke="transparent" points="64.5,-131.2 64.5,-150.2 93.5,-150.2 93.5,-131.2 64.5,-131.2"/>
<polygon fill="none" stroke="#000000" points="64.5,-131.2 64.5,-150.2 93.5,-150.2 93.5,-131.2 64.5,-131.2"/>
<text text-anchor="start" x="74.9053" y="-137.3" font-family="Helvetica,sans-Serif" font-size="11.00" fill="#000000">9 &gt;</text>
</a>
</g>
</g>
<!-- release&#45;&gt;asset -->
<g id="edge1" class="edge">
<title>release:w&#45;&gt;asset:e</title>
<path fill="none" stroke="#000000" d="M129.4203,-224.2C117.5435,-224.2 110.158,-224.2 93.5,-224.2"/>
<polygon fill="#000000" stroke="#000000" points="136,-224.2001 144,-227.8 140,-224.2 144,-224.2 144,-224.2 144,-224.2 140,-224.2 144,-220.6 136,-224.2001 136,-224.2001"/>
<ellipse fill="none" stroke="#000000" cx="132.8" cy="-224.2001" rx="3.2" ry="3.2"/>
</g>
</g>
</svg>
