<?xml version="1.0" encoding="UTF-8" standalone="no"?>
<!DOCTYPE svg PUBLIC "-//W3C//DTD SVG 1.1//EN"
 "http://www.w3.org/Graphics/SVG/1.1/DTD/svg11.dtd">
<!-- Generated by graphviz version 2.40.1 (20161225.0304)
 -->
<!-- Title: twoDegreesRelationshipsDiagram Pages: 1 -->
<svg width="634pt" height="786pt"
 viewBox="0.00 0.00 633.64 785.69" xmlns="http://www.w3.org/2000/svg" xmlns:xlink="http://www.w3.org/1999/xlink">
<g id="graph0" class="graph" transform="scale(1 1) rotate(0) translate(4 781.6855)">
<title>twoDegreesRelationshipsDiagram</title>
<polygon fill="#ffffff" stroke="transparent" points="-4,4 -4,-781.6855 629.6362,-781.6855 629.6362,4 -4,4"/>
<text text-anchor="middle" x="72.4936" y="-7.3" font-family="Helvetica,sans-Serif" font-size="11.00" fill="#000000">Generated by SchemaSpy</text>
<!-- article -->
<g id="node1" class="node">
<title>article</title>
<g id="a_node1"><a xlink:href="../../tables/article.html" xlink:title="article" target="_top">
<polygon fill="#ffffff" stroke="transparent" points="544.7709,-77.6855 544.7709,-138.6855 616.7709,-138.6855 616.7709,-77.6855 544.7709,-77.6855"/>
<polygon fill="#f5f5f5" stroke="transparent" points="544.7709,-115.1855 544.7709,-138.1855 616.7709,-138.1855 616.7709,-115.1855 544.7709,-115.1855"/>
<polygon fill="none" stroke="#000000" points="544.7709,-115.1855 544.7709,-138.1855 616.7709,-138.1855 616.7709,-115.1855 544.7709,-115.1855"/>
<text text-anchor="start" x="549.6057" y="-124.2855" font-family="Helvetica,sans-Serif" font-weight="bold" font-size="11.00" fill="#000000">article</text>
<text text-anchor="start" x="582.2928" y="-123.2855" font-family="Helvetica,sans-Serif" font-size="11.00" fill="#000000">[table]</text>
<polygon fill="none" stroke="#000000" points="544.7709,-96.1855 544.7709,-115.1855 616.7709,-115.1855 616.7709,-96.1855 544.7709,-96.1855"/>
<text text-anchor="start" x="547.7709" y="-102.2855" font-family="Helvetica,sans-Serif" font-size="11.00" fill="#000000">...</text>
<polygon fill="#ffffff" stroke="transparent" points="544.7709,-77.1855 544.7709,-96.1855 571.7709,-96.1855 571.7709,-77.1855 544.7709,-77.1855"/>
<polygon fill="none" stroke="#000000" points="544.7709,-77.1855 544.7709,-96.1855 571.7709,-96.1855 571.7709,-77.1855 544.7709,-77.1855"/>
<text text-anchor="start" x="547.7709" y="-83.2855" font-family="Helvetica,sans-Serif" font-size="11.00" fill="#000000">&lt; 4</text>
<polygon fill="#ffffff" stroke="transparent" points="571.7709,-77.1855 571.7709,-96.1855 586.7709,-96.1855 586.7709,-77.1855 571.7709,-77.1855"/>
<polygon fill="none" stroke="#000000" points="571.7709,-77.1855 571.7709,-96.1855 586.7709,-96.1855 586.7709,-77.1855 571.7709,-77.1855"/>
<text text-anchor="start" x="577.6571" y="-83.2855" font-family="Helvetica,sans-Serif" font-size="11.00" fill="#000000"> &#160;</text>
<polygon fill="#ffffff" stroke="transparent" points="586.7709,-77.1855 586.7709,-96.1855 616.7709,-96.1855 616.7709,-77.1855 586.7709,-77.1855"/>
<polygon fill="none" stroke="#000000" points="586.7709,-77.1855 586.7709,-96.1855 616.7709,-96.1855 616.7709,-77.1855 586.7709,-77.1855"/>
<text text-anchor="start" x="592.0613" y="-83.2855" font-family="Helvetica,sans-Serif" font-size="11.00" fill="#000000">14 &gt;</text>
</a>
</g>
</g>
<!-- user -->
<g id="node2" class="node">
<title>user</title>
<g id="a_node2"><a xlink:href="../../tables/user.html" xlink:title="user" target="_top">
<polygon fill="#ffffff" stroke="transparent" points="216.7709,-74.6855 216.7709,-135.6855 280.7709,-135.6855 280.7709,-74.6855 216.7709,-74.6855"/>
<polygon fill="#f5f5f5" stroke="transparent" points="216.7709,-112.1855 216.7709,-135.1855 280.7709,-135.1855 280.7709,-112.1855 216.7709,-112.1855"/>
<polygon fill="none" stroke="#000000" points="216.7709,-112.1855 216.7709,-135.1855 280.7709,-135.1855 280.7709,-112.1855 216.7709,-112.1855"/>
<text text-anchor="start" x="221.5751" y="-121.2855" font-family="Helvetica,sans-Serif" font-weight="bold" font-size="11.00" fill="#000000">user</text>
<text text-anchor="start" x="246.2928" y="-120.2855" font-family="Helvetica,sans-Serif" font-size="11.00" fill="#000000">[table]</text>
<polygon fill="none" stroke="#000000" points="216.7709,-93.1855 216.7709,-112.1855 280.7709,-112.1855 280.7709,-93.1855 216.7709,-93.1855"/>
<text text-anchor="start" x="219.7709" y="-99.2855" font-family="Helvetica,sans-Serif" font-size="11.00" fill="#000000">...</text>
<polygon fill="#ffffff" stroke="transparent" points="216.7709,-74.1855 216.7709,-93.1855 239.7709,-93.1855 239.7709,-74.1855 216.7709,-74.1855"/>
<polygon fill="none" stroke="#000000" points="216.7709,-74.1855 216.7709,-93.1855 239.7709,-93.1855 239.7709,-74.1855 216.7709,-74.1855"/>
<text text-anchor="start" x="219.7709" y="-80.2855" font-family="Helvetica,sans-Serif" font-size="11.00" fill="#000000">&lt; 1</text>
<polygon fill="#ffffff" stroke="transparent" points="239.7709,-74.1855 239.7709,-93.1855 252.7709,-93.1855 252.7709,-74.1855 239.7709,-74.1855"/>
<polygon fill="none" stroke="#000000" points="239.7709,-74.1855 239.7709,-93.1855 252.7709,-93.1855 252.7709,-74.1855 239.7709,-74.1855"/>
<text text-anchor="start" x="243.6571" y="-80.2855" font-family="Helvetica,sans-Serif" font-size="11.00" fill="#000000"> &#160;</text>
<polygon fill="#ffffff" stroke="transparent" points="252.7709,-74.1855 252.7709,-93.1855 280.7709,-93.1855 280.7709,-74.1855 252.7709,-74.1855"/>
<polygon fill="none" stroke="#000000" points="252.7709,-74.1855 252.7709,-93.1855 280.7709,-93.1855 280.7709,-74.1855 252.7709,-74.1855"/>
<text text-anchor="start" x="256.0613" y="-80.2855" font-family="Helvetica,sans-Serif" font-size="11.00" fill="#000000">42 &gt;</text>
</a>
</g>
</g>
<!-- article&#45;&gt;user -->
<g id="edge1" class="edge">
<title>article:w&#45;&gt;user:e</title>
<path fill="none" stroke="#000000" d="M530.5119,-107.9826C522.1882,-111.641 516.9062,-117.8581 503.7709,-120.1855 452.1308,-129.3353 438.0265,-124.6321 385.7709,-120.1855 338.594,-116.171 328.1183,-102.1855 280.7709,-102.1855"/>
<polygon fill="#000000" stroke="#000000" points="536.9206,-106.7255 545.4639,-108.7181 540.8457,-105.9555 544.7709,-105.1855 544.7709,-105.1855 544.7709,-105.1855 540.8457,-105.9555 544.0779,-101.6528 536.9206,-106.7255 536.9206,-106.7255"/>
<ellipse fill="none" stroke="#000000" cx="533.7804" cy="-107.3415" rx="3.2" ry="3.2"/>
</g>
<!-- asset -->
<g id="node3" class="node">
<title>asset</title>
<g id="a_node3"><a xlink:href="../../tables/asset.html" xlink:title="asset" target="_top">
<polygon fill="#ffffff" stroke="transparent" points="18.7709,-402.6855 18.7709,-529.6855 103.7709,-529.6855 103.7709,-402.6855 18.7709,-402.6855"/>
<polygon fill="#f5f5f5" stroke="transparent" points="19.2709,-506.1855 19.2709,-529.1855 104.2709,-529.1855 104.2709,-506.1855 19.2709,-506.1855"/>
<polygon fill="none" stroke="#000000" points="19.2709,-506.1855 19.2709,-529.1855 104.2709,-529.1855 104.2709,-506.1855 19.2709,-506.1855"/>
<text text-anchor="start" x="24.2709" y="-515.2855" font-family="Helvetica,sans-Serif" font-weight="bold" font-size="11.00" fill="#000000">asset</text>
<text text-anchor="start" x="69.3146" y="-514.2855" font-family="Helvetica,sans-Serif" font-size="11.00" fill="#000000">[table]</text>
<polygon fill="none" stroke="#000000" points="19.2709,-484.1855 19.2709,-506.1855 104.2709,-506.1855 104.2709,-484.1855 19.2709,-484.1855"/>
<image xlink:href="../../images/primaryKeys.png" width="11px" height="12px" preserveAspectRatio="xMinYMin meet" x="24.2709" y="-501.185"/>
<text text-anchor="start" x="39.2709" y="-491.2855" font-family="Helvetica,sans-Serif" font-size="11.00" fill="#000000">id</text>
<polygon fill="#ffffff" stroke="transparent" points="19.2709,-462.1855 19.2709,-484.1855 104.2709,-484.1855 104.2709,-462.1855 19.2709,-462.1855"/>
<polygon fill="none" stroke="#000000" points="19.2709,-462.1855 19.2709,-484.1855 104.2709,-484.1855 104.2709,-462.1855 19.2709,-462.1855"/>
<text text-anchor="start" x="39.2709" y="-469.2855" font-family="Helvetica,sans-Serif" font-size="11.00" fill="#000000">uuid</text>
<polygon fill="none" stroke="#000000" points="19.2709,-440.1855 19.2709,-462.1855 104.2709,-462.1855 104.2709,-440.1855 19.2709,-440.1855"/>
<image xlink:href="../../images/foreignKeys.png" width="11px" height="12px" preserveAspectRatio="xMinYMin meet" x="24.2709" y="-457.185"/>
<text text-anchor="start" x="39.2709" y="-447.2855" font-family="Helvetica,sans-Serif" font-size="11.00" fill="#000000">author_id</text>
<polygon fill="none" stroke="#000000" points="19.2709,-421.1855 19.2709,-440.1855 104.2709,-440.1855 104.2709,-421.1855 19.2709,-421.1855"/>
<text text-anchor="start" x="22.2709" y="-427.2855" font-family="Helvetica,sans-Serif" font-size="11.00" fill="#000000">...</text>
<polygon fill="#ffffff" stroke="transparent" points="19.2709,-402.1855 19.2709,-421.1855 55.2709,-421.1855 55.2709,-402.1855 19.2709,-402.1855"/>
<polygon fill="none" stroke="#000000" points="19.2709,-402.1855 19.2709,-421.1855 55.2709,-421.1855 55.2709,-402.1855 19.2709,-402.1855"/>
<text text-anchor="start" x="22.2709" y="-408.2855" font-family="Helvetica,sans-Serif" font-size="11.00" fill="#000000">&lt; 1</text>
<polygon fill="#ffffff" stroke="transparent" points="55.2709,-402.1855 55.2709,-421.1855 75.2709,-421.1855 75.2709,-402.1855 55.2709,-402.1855"/>
<polygon fill="none" stroke="#000000" points="55.2709,-402.1855 55.2709,-421.1855 75.2709,-421.1855 75.2709,-402.1855 55.2709,-402.1855"/>
<text text-anchor="start" x="66.1571" y="-408.2855" font-family="Helvetica,sans-Serif" font-size="11.00" fill="#000000"> &#160;</text>
<polygon fill="#ffffff" stroke="transparent" points="75.2709,-402.1855 75.2709,-421.1855 104.2709,-421.1855 104.2709,-402.1855 75.2709,-402.1855"/>
<polygon fill="none" stroke="#000000" points="75.2709,-402.1855 75.2709,-421.1855 104.2709,-421.1855 104.2709,-402.1855 75.2709,-402.1855"/>
<text text-anchor="start" x="85.6762" y="-408.2855" font-family="Helvetica,sans-Serif" font-size="11.00" fill="#000000">9 &gt;</text>
</a>
</g>
</g>
<!-- article&#45;&gt;asset -->
<g id="edge2" class="edge">
<title>article:w&#45;&gt;asset:e</title>
<path fill="none" stroke="#000000" d="M533.1923,-114.2657C499.4372,-175.2428 527.4061,-523.9049 503.7709,-564.1855 462.6586,-634.2517 430.3964,-643.2316 352.7709,-667.1855 264.4366,-694.4439 217.244,-724.5756 144.7709,-667.1855 83.2023,-618.4304 182.806,-495.1855 104.2709,-495.1855"/>
<polygon fill="#000000" stroke="#000000" points="538.4758,-110.1223 546.9925,-108.0183 541.6234,-107.6539 544.7709,-105.1855 544.7709,-105.1855 544.7709,-105.1855 541.6234,-107.6539 542.5494,-102.3527 538.4758,-110.1223 538.4758,-110.1223"/>
<ellipse fill="none" stroke="#000000" cx="535.9578" cy="-112.097" rx="3.2" ry="3.2"/>
</g>
<!-- draft -->
<g id="node4" class="node">
<title>draft</title>
<g id="a_node4"><a xlink:href="../../tables/draft.html" xlink:title="draft" target="_top">
<polygon fill="#ffffff" stroke="transparent" points="412.2709,-48.6855 412.2709,-109.6855 477.2709,-109.6855 477.2709,-48.6855 412.2709,-48.6855"/>
<polygon fill="#f5f5f5" stroke="transparent" points="412.7709,-86.1855 412.7709,-109.1855 477.7709,-109.1855 477.7709,-86.1855 412.7709,-86.1855"/>
<polygon fill="none" stroke="#000000" points="412.7709,-86.1855 412.7709,-109.1855 477.7709,-109.1855 477.7709,-86.1855 412.7709,-86.1855"/>
<text text-anchor="start" x="417.7682" y="-95.2855" font-family="Helvetica,sans-Serif" font-weight="bold" font-size="11.00" fill="#000000">draft</text>
<text text-anchor="start" x="443.2928" y="-94.2855" font-family="Helvetica,sans-Serif" font-size="11.00" fill="#000000">[table]</text>
<polygon fill="none" stroke="#000000" points="412.7709,-67.1855 412.7709,-86.1855 477.7709,-86.1855 477.7709,-67.1855 412.7709,-67.1855"/>
<text text-anchor="start" x="415.7709" y="-73.2855" font-family="Helvetica,sans-Serif" font-size="11.00" fill="#000000">...</text>
<polygon fill="#ffffff" stroke="transparent" points="412.7709,-48.1855 412.7709,-67.1855 438.7709,-67.1855 438.7709,-48.1855 412.7709,-48.1855"/>
<polygon fill="none" stroke="#000000" points="412.7709,-48.1855 412.7709,-67.1855 438.7709,-67.1855 438.7709,-48.1855 412.7709,-48.1855"/>
<text text-anchor="start" x="415.7709" y="-54.2855" font-family="Helvetica,sans-Serif" font-size="11.00" fill="#000000">&lt; 3</text>
<polygon fill="#ffffff" stroke="transparent" points="438.7709,-48.1855 438.7709,-67.1855 453.7709,-67.1855 453.7709,-48.1855 438.7709,-48.1855"/>
<polygon fill="none" stroke="#000000" points="438.7709,-48.1855 438.7709,-67.1855 453.7709,-67.1855 453.7709,-48.1855 438.7709,-48.1855"/>
<text text-anchor="start" x="444.6571" y="-54.2855" font-family="Helvetica,sans-Serif" font-size="11.00" fill="#000000"> &#160;</text>
<polygon fill="#ffffff" stroke="transparent" points="453.7709,-48.1855 453.7709,-67.1855 477.7709,-67.1855 477.7709,-48.1855 453.7709,-48.1855"/>
<polygon fill="none" stroke="#000000" points="453.7709,-48.1855 453.7709,-67.1855 477.7709,-67.1855 477.7709,-48.1855 453.7709,-48.1855"/>
<text text-anchor="start" x="459.1762" y="-54.2855" font-family="Helvetica,sans-Serif" font-size="11.00" fill="#000000">1 &gt;</text>
</a>
</g>
</g>
<!-- article&#45;&gt;draft -->
<g id="edge3" class="edge">
<title>article:w&#45;&gt;draft:e</title>
<path fill="none" stroke="#000000" d="M530.4211,-102.9099C510.7035,-96.0734 504.6415,-76.1855 477.7709,-76.1855"/>
<polygon fill="#000000" stroke="#000000" points="536.8697,-103.9325 544.2071,-108.741 540.8203,-104.559 544.7709,-105.1855 544.7709,-105.1855 544.7709,-105.1855 540.8203,-104.559 545.3348,-101.6299 536.8697,-103.9325 536.8697,-103.9325"/>
<ellipse fill="none" stroke="#000000" cx="533.7092" cy="-103.4312" rx="3.2" ry="3.2"/>
</g>
<!-- user&#45;&gt;asset -->
<g id="edge16" class="edge">
<title>user:w&#45;&gt;asset:e</title>
<path fill="none" stroke="#000000" d="M202.2455,-102.9403C175.1313,-106.0537 162.1323,-119.0329 144.7709,-146.1855 102.7117,-211.9646 182.3469,-495.1855 104.2709,-495.1855"/>
<polygon fill="#000000" stroke="#000000" points="208.7817,-102.6007 216.9578,-105.7806 212.7763,-102.3931 216.7709,-102.1855 216.7709,-102.1855 216.7709,-102.1855 212.7763,-102.3931 216.5841,-98.5903 208.7817,-102.6007 208.7817,-102.6007"/>
<ellipse fill="none" stroke="#000000" cx="205.586" cy="-102.7667" rx="3.2" ry="3.2"/>
</g>
<!-- asset&#45;&gt;user -->
<g id="edge4" class="edge">
<title>asset:w&#45;&gt;user:e</title>
<path fill="none" stroke="#000000" d="M5.2887,-446.0549C-27.6527,-410.6335 107.9336,-202.1413 144.7709,-146.1855 168.9593,-109.4433 168.8566,-89.1761 208.7709,-70.6855 208.7709,-70.6855 280.7709,-102.1855 280.7709,-102.1855"/>
<polygon fill="#000000" stroke="#000000" points="11.7606,-448.4296 18.0308,-454.5651 15.5158,-449.8075 19.2709,-451.1855 19.2709,-451.1855 19.2709,-451.1855 15.5158,-449.8075 20.5111,-447.8058 11.7606,-448.4296 11.7606,-448.4296"/>
<ellipse fill="none" stroke="#000000" cx="8.7564" cy="-447.3273" rx="3.2" ry="3.2"/>
</g>
<!-- draft&#45;&gt;article -->
<g id="edge10" class="edge">
<title>draft:w&#45;&gt;article:e</title>
<path fill="none" stroke="#000000" d="M426.0685,-70.4079C446.9987,-61.3141 485.2709,-44.6855 485.2709,-44.6855 544.7676,-51.1681 579.2843,-27.0311 616.7709,-73.6855 625.5399,-84.599 630.7709,-105.1855 616.7709,-105.1855"/>
<polygon fill="#000000" stroke="#000000" points="420.1083,-72.9975 411.3363,-72.8837 416.4396,-74.5915 412.7709,-76.1855 412.7709,-76.1855 412.7709,-76.1855 416.4396,-74.5915 414.2055,-79.4873 420.1083,-72.9975 420.1083,-72.9975"/>
<ellipse fill="none" stroke="#000000" cx="423.0432" cy="-71.7223" rx="3.2" ry="3.2"/>
</g>
<!-- draft&#45;&gt;user -->
<g id="edge8" class="edge">
<title>draft:w&#45;&gt;user:e</title>
<path fill="none" stroke="#000000" d="M398.345,-76.7285C350.4938,-80.4622 335.4263,-102.1855 280.7709,-102.1855"/>
<polygon fill="#000000" stroke="#000000" points="404.7766,-76.4865 412.9064,-79.7829 408.7738,-76.336 412.7709,-76.1855 412.7709,-76.1855 412.7709,-76.1855 408.7738,-76.336 412.6355,-72.588 404.7766,-76.4865 404.7766,-76.4865"/>
<ellipse fill="none" stroke="#000000" cx="401.5789" cy="-76.6069" rx="3.2" ry="3.2"/>
</g>
<!-- draft&#45;&gt;asset -->
<g id="edge9" class="edge">
<title>draft:w&#45;&gt;asset:e</title>
<path fill="none" stroke="#000000" d="M398.0238,-75.0912C382.2048,-72.5489 374.1249,-66.2999 352.7709,-64.1855 260.7764,-55.0762 213.1284,-1.9502 144.7709,-64.1855 73.6366,-128.9488 200.4706,-495.1855 104.2709,-495.1855"/>
<polygon fill="#000000" stroke="#000000" points="404.7929,-75.5934 412.5045,-79.7756 408.7819,-75.8894 412.7709,-76.1855 412.7709,-76.1855 412.7709,-76.1855 408.7819,-75.8894 413.0374,-72.5953 404.7929,-75.5934 404.7929,-75.5934"/>
<ellipse fill="none" stroke="#000000" cx="401.6016" cy="-75.3566" rx="3.2" ry="3.2"/>
</g>
<!-- asset_map -->
<g id="node5" class="node">
<title>asset_map</title>
<g id="a_node5"><a xlink:href="../../tables/asset_map.html" xlink:title="asset_map" target="_top">
<polygon fill="#ffffff" stroke="transparent" points="200.7709,-575.6855 200.7709,-636.6855 296.7709,-636.6855 296.7709,-575.6855 200.7709,-575.6855"/>
<polygon fill="#f5f5f5" stroke="transparent" points="200.7709,-613.1855 200.7709,-636.1855 296.7709,-636.1855 296.7709,-613.1855 200.7709,-613.1855"/>
<polygon fill="none" stroke="#000000" points="200.7709,-613.1855 200.7709,-636.1855 296.7709,-636.1855 296.7709,-613.1855 200.7709,-613.1855"/>
<text text-anchor="start" x="205.3743" y="-622.2855" font-family="Helvetica,sans-Serif" font-weight="bold" font-size="11.00" fill="#000000">asset_map</text>
<text text-anchor="start" x="262.2928" y="-621.2855" font-family="Helvetica,sans-Serif" font-size="11.00" fill="#000000">[table]</text>
<polygon fill="none" stroke="#000000" points="200.7709,-594.1855 200.7709,-613.1855 296.7709,-613.1855 296.7709,-594.1855 200.7709,-594.1855"/>
<text text-anchor="start" x="203.7709" y="-600.2855" font-family="Helvetica,sans-Serif" font-size="11.00" fill="#000000">...</text>
<polygon fill="#ffffff" stroke="transparent" points="200.7709,-575.1855 200.7709,-594.1855 246.7709,-594.1855 246.7709,-575.1855 200.7709,-575.1855"/>
<polygon fill="none" stroke="#000000" points="200.7709,-575.1855 200.7709,-594.1855 246.7709,-594.1855 246.7709,-575.1855 200.7709,-575.1855"/>
<text text-anchor="start" x="203.7709" y="-581.2855" font-family="Helvetica,sans-Serif" font-size="11.00" fill="#000000">&lt; 2</text>
<polygon fill="#ffffff" stroke="transparent" points="246.7709,-575.1855 246.7709,-594.1855 271.7709,-594.1855 271.7709,-575.1855 246.7709,-575.1855"/>
<polygon fill="none" stroke="#000000" points="246.7709,-575.1855 246.7709,-594.1855 271.7709,-594.1855 271.7709,-575.1855 246.7709,-575.1855"/>
<text text-anchor="start" x="262.6571" y="-581.2855" font-family="Helvetica,sans-Serif" font-size="11.00" fill="#000000"> &#160;</text>
<polygon fill="#ffffff" stroke="transparent" points="271.7709,-575.1855 271.7709,-594.1855 296.7709,-594.1855 296.7709,-575.1855 271.7709,-575.1855"/>
<polygon fill="none" stroke="#000000" points="271.7709,-575.1855 271.7709,-594.1855 296.7709,-594.1855 296.7709,-575.1855 271.7709,-575.1855"/>
<text text-anchor="start" x="287.6571" y="-581.2855" font-family="Helvetica,sans-Serif" font-size="11.00" fill="#000000"> &#160;</text>
</a>
</g>
</g>
<!-- asset_map&#45;&gt;asset -->
<g id="edge5" class="edge">
<title>asset_map:w&#45;&gt;asset:e</title>
<path fill="none" stroke="#000000" d="M186.4512,-601.6308C168.1915,-597.1133 161.5012,-583.1602 144.7709,-565.1855 120.2825,-538.8755 140.214,-495.1855 104.2709,-495.1855"/>
<polygon fill="#000000" stroke="#000000" points="192.8177,-602.322 200.3824,-606.7644 196.7943,-602.7537 200.7709,-603.1855 200.7709,-603.1855 200.7709,-603.1855 196.7943,-602.7537 201.1595,-599.6065 192.8177,-602.322 192.8177,-602.322"/>
<ellipse fill="none" stroke="#000000" cx="189.6364" cy="-601.9766" rx="3.2" ry="3.2"/>
</g>
<!-- audio_draft -->
<g id="node6" class="node">
<title>audio_draft</title>
<g id="a_node6"><a xlink:href="../../tables/audio_draft.html" xlink:title="audio_draft" target="_top">
<polygon fill="#ffffff" stroke="transparent" points="395.7709,-492.6855 395.7709,-553.6855 493.7709,-553.6855 493.7709,-492.6855 395.7709,-492.6855"/>
<polygon fill="#f5f5f5" stroke="transparent" points="395.7709,-530.1855 395.7709,-553.1855 493.7709,-553.1855 493.7709,-530.1855 395.7709,-530.1855"/>
<polygon fill="none" stroke="#000000" points="395.7709,-530.1855 395.7709,-553.1855 493.7709,-553.1855 493.7709,-530.1855 395.7709,-530.1855"/>
<text text-anchor="start" x="400.7605" y="-539.2855" font-family="Helvetica,sans-Serif" font-weight="bold" font-size="11.00" fill="#000000">audio_draft</text>
<text text-anchor="start" x="459.2928" y="-538.2855" font-family="Helvetica,sans-Serif" font-size="11.00" fill="#000000">[table]</text>
<polygon fill="none" stroke="#000000" points="395.7709,-511.1855 395.7709,-530.1855 493.7709,-530.1855 493.7709,-511.1855 395.7709,-511.1855"/>
<text text-anchor="start" x="398.7709" y="-517.2855" font-family="Helvetica,sans-Serif" font-size="11.00" fill="#000000">...</text>
<polygon fill="#ffffff" stroke="transparent" points="395.7709,-492.1855 395.7709,-511.1855 442.7709,-511.1855 442.7709,-492.1855 395.7709,-492.1855"/>
<polygon fill="none" stroke="#000000" points="395.7709,-492.1855 395.7709,-511.1855 442.7709,-511.1855 442.7709,-492.1855 395.7709,-492.1855"/>
<text text-anchor="start" x="398.7709" y="-498.2855" font-family="Helvetica,sans-Serif" font-size="11.00" fill="#000000">&lt; 2</text>
<polygon fill="#ffffff" stroke="transparent" points="442.7709,-492.1855 442.7709,-511.1855 467.7709,-511.1855 467.7709,-492.1855 442.7709,-492.1855"/>
<polygon fill="none" stroke="#000000" points="442.7709,-492.1855 442.7709,-511.1855 467.7709,-511.1855 467.7709,-492.1855 442.7709,-492.1855"/>
<text text-anchor="start" x="458.6571" y="-498.2855" font-family="Helvetica,sans-Serif" font-size="11.00" fill="#000000"> &#160;</text>
<polygon fill="#ffffff" stroke="transparent" points="467.7709,-492.1855 467.7709,-511.1855 493.7709,-511.1855 493.7709,-492.1855 467.7709,-492.1855"/>
<polygon fill="none" stroke="#000000" points="467.7709,-492.1855 467.7709,-511.1855 493.7709,-511.1855 493.7709,-492.1855 467.7709,-492.1855"/>
<text text-anchor="start" x="484.6571" y="-498.2855" font-family="Helvetica,sans-Serif" font-size="11.00" fill="#000000"> &#160;</text>
</a>
</g>
</g>
<!-- audio_draft&#45;&gt;user -->
<g id="edge7" class="edge">
<title>audio_draft:w&#45;&gt;user:e</title>
<path fill="none" stroke="#000000" d="M381.6249,-516.5468C322.615,-482.0311 394.8979,-212.1474 352.7709,-146.1855 332.5854,-114.5791 318.2732,-102.1855 280.7709,-102.1855"/>
<polygon fill="#000000" stroke="#000000" points="388.0231,-518.1925 394.8741,-523.672 391.897,-519.189 395.7709,-520.1855 395.7709,-520.1855 395.7709,-520.1855 391.897,-519.189 396.6678,-516.699 388.0231,-518.1925 388.0231,-518.1925"/>
<ellipse fill="none" stroke="#000000" cx="384.924" cy="-517.3953" rx="3.2" ry="3.2"/>
</g>
<!-- audio_draft&#45;&gt;asset -->
<g id="edge6" class="edge">
<title>audio_draft:w&#45;&gt;asset:e</title>
<path fill="none" stroke="#000000" d="M381.2206,-522.8838C348.2154,-538.3343 396.2783,-615.9828 352.7709,-647.1855 315.2099,-674.1236 181.4218,-675.3495 144.7709,-647.1855 89.3355,-604.5866 174.1834,-495.1855 104.2709,-495.1855"/>
<polygon fill="#000000" stroke="#000000" points="387.905,-521.6442 396.4274,-523.7251 391.838,-520.9149 395.7709,-520.1855 395.7709,-520.1855 395.7709,-520.1855 391.838,-520.9149 395.1145,-516.6458 387.905,-521.6442 387.905,-521.6442"/>
<ellipse fill="none" stroke="#000000" cx="384.7587" cy="-522.2277" rx="3.2" ry="3.2"/>
</g>
<!-- feedback_asset -->
<g id="node7" class="node">
<title>feedback_asset</title>
<g id="a_node7"><a xlink:href="../../tables/feedback_asset.html" xlink:title="feedback_asset" target="_top">
<polygon fill="#ffffff" stroke="transparent" points="188.7709,-493.6855 188.7709,-554.6855 308.7709,-554.6855 308.7709,-493.6855 188.7709,-493.6855"/>
<polygon fill="#f5f5f5" stroke="transparent" points="188.7709,-531.1855 188.7709,-554.1855 308.7709,-554.1855 308.7709,-531.1855 188.7709,-531.1855"/>
<polygon fill="none" stroke="#000000" points="188.7709,-531.1855 188.7709,-554.1855 308.7709,-554.1855 308.7709,-531.1855 188.7709,-531.1855"/>
<text text-anchor="start" x="193.7544" y="-540.2855" font-family="Helvetica,sans-Serif" font-weight="bold" font-size="11.00" fill="#000000">feedback_asset</text>
<text text-anchor="start" x="274.2928" y="-539.2855" font-family="Helvetica,sans-Serif" font-size="11.00" fill="#000000">[table]</text>
<polygon fill="none" stroke="#000000" points="188.7709,-512.1855 188.7709,-531.1855 308.7709,-531.1855 308.7709,-512.1855 188.7709,-512.1855"/>
<text text-anchor="start" x="191.7709" y="-518.2855" font-family="Helvetica,sans-Serif" font-size="11.00" fill="#000000">...</text>
<polygon fill="#ffffff" stroke="transparent" points="188.7709,-493.1855 188.7709,-512.1855 246.7709,-512.1855 246.7709,-493.1855 188.7709,-493.1855"/>
<polygon fill="none" stroke="#000000" points="188.7709,-493.1855 188.7709,-512.1855 246.7709,-512.1855 246.7709,-493.1855 188.7709,-493.1855"/>
<text text-anchor="start" x="191.7709" y="-499.2855" font-family="Helvetica,sans-Serif" font-size="11.00" fill="#000000">&lt; 2</text>
<polygon fill="#ffffff" stroke="transparent" points="246.7709,-493.1855 246.7709,-512.1855 277.7709,-512.1855 277.7709,-493.1855 246.7709,-493.1855"/>
<polygon fill="none" stroke="#000000" points="246.7709,-493.1855 246.7709,-512.1855 277.7709,-512.1855 277.7709,-493.1855 246.7709,-493.1855"/>
<text text-anchor="start" x="268.6571" y="-499.2855" font-family="Helvetica,sans-Serif" font-size="11.00" fill="#000000"> &#160;</text>
<polygon fill="#ffffff" stroke="transparent" points="277.7709,-493.1855 277.7709,-512.1855 308.7709,-512.1855 308.7709,-493.1855 277.7709,-493.1855"/>
<polygon fill="none" stroke="#000000" points="277.7709,-493.1855 277.7709,-512.1855 308.7709,-512.1855 308.7709,-493.1855 277.7709,-493.1855"/>
<text text-anchor="start" x="299.6571" y="-499.2855" font-family="Helvetica,sans-Serif" font-size="11.00" fill="#000000"> &#160;</text>
</a>
</g>
</g>
<!-- feedback_asset&#45;&gt;asset -->
<g id="edge11" class="edge">
<title>feedback_asset:w&#45;&gt;asset:e</title>
<path fill="none" stroke="#000000" d="M174.3558,-519.8604C147.2368,-514.5621 138.192,-495.1855 104.2709,-495.1855"/>
<polygon fill="#000000" stroke="#000000" points="180.8045,-520.4531 188.4414,-524.7704 184.7877,-520.8193 188.7709,-521.1855 188.7709,-521.1855 188.7709,-521.1855 184.7877,-520.8193 189.1005,-517.6006 180.8045,-520.4531 180.8045,-520.4531"/>
<ellipse fill="none" stroke="#000000" cx="177.618" cy="-520.1602" rx="3.2" ry="3.2"/>
</g>
<!-- oauth_client -->
<g id="node8" class="node">
<title>oauth_client</title>
<g id="a_node8"><a xlink:href="../../tables/oauth_client.html" xlink:title="oauth_client" target="_top">
<polygon fill="#ffffff" stroke="transparent" points="393.7709,-300.6855 393.7709,-361.6855 495.7709,-361.6855 495.7709,-300.6855 393.7709,-300.6855"/>
<polygon fill="#f5f5f5" stroke="transparent" points="393.7709,-338.1855 393.7709,-361.1855 495.7709,-361.1855 495.7709,-338.1855 393.7709,-338.1855"/>
<polygon fill="none" stroke="#000000" points="393.7709,-338.1855 393.7709,-361.1855 495.7709,-361.1855 495.7709,-338.1855 393.7709,-338.1855"/>
<text text-anchor="start" x="398.621" y="-347.2855" font-family="Helvetica,sans-Serif" font-weight="bold" font-size="11.00" fill="#000000">oauth_client</text>
<text text-anchor="start" x="461.2928" y="-346.2855" font-family="Helvetica,sans-Serif" font-size="11.00" fill="#000000">[table]</text>
<polygon fill="none" stroke="#000000" points="393.7709,-319.1855 393.7709,-338.1855 495.7709,-338.1855 495.7709,-319.1855 393.7709,-319.1855"/>
<text text-anchor="start" x="396.7709" y="-325.2855" font-family="Helvetica,sans-Serif" font-size="11.00" fill="#000000">...</text>
<polygon fill="#ffffff" stroke="transparent" points="393.7709,-300.1855 393.7709,-319.1855 438.7709,-319.1855 438.7709,-300.1855 393.7709,-300.1855"/>
<polygon fill="none" stroke="#000000" points="393.7709,-300.1855 393.7709,-319.1855 438.7709,-319.1855 438.7709,-300.1855 393.7709,-300.1855"/>
<text text-anchor="start" x="396.7709" y="-306.2855" font-family="Helvetica,sans-Serif" font-size="11.00" fill="#000000">&lt; 2</text>
<polygon fill="#ffffff" stroke="transparent" points="438.7709,-300.1855 438.7709,-319.1855 462.7709,-319.1855 462.7709,-300.1855 438.7709,-300.1855"/>
<polygon fill="none" stroke="#000000" points="438.7709,-300.1855 438.7709,-319.1855 462.7709,-319.1855 462.7709,-300.1855 438.7709,-300.1855"/>
<text text-anchor="start" x="453.6571" y="-306.2855" font-family="Helvetica,sans-Serif" font-size="11.00" fill="#000000"> &#160;</text>
<polygon fill="#ffffff" stroke="transparent" points="462.7709,-300.1855 462.7709,-319.1855 495.7709,-319.1855 495.7709,-300.1855 462.7709,-300.1855"/>
<polygon fill="none" stroke="#000000" points="462.7709,-300.1855 462.7709,-319.1855 495.7709,-319.1855 495.7709,-300.1855 462.7709,-300.1855"/>
<text text-anchor="start" x="477.1762" y="-306.2855" font-family="Helvetica,sans-Serif" font-size="11.00" fill="#000000">3 &gt;</text>
</a>
</g>
</g>
<!-- oauth_client&#45;&gt;user -->
<g id="edge13" class="edge">
<title>oauth_client:w&#45;&gt;user:e</title>
<path fill="none" stroke="#000000" d="M379.0943,-326.6305C322.5426,-312.737 397.7748,-208.97 352.7709,-146.1855 330.9225,-115.7049 318.2732,-102.1855 280.7709,-102.1855"/>
<polygon fill="#000000" stroke="#000000" points="385.8155,-327.3425 393.3916,-331.7654 389.7932,-327.764 393.7709,-328.1855 393.7709,-328.1855 393.7709,-328.1855 389.7932,-327.764 394.1503,-324.6055 385.8155,-327.3425 385.8155,-327.3425"/>
<ellipse fill="none" stroke="#000000" cx="382.6333" cy="-327.0054" rx="3.2" ry="3.2"/>
</g>
<!-- oauth_client&#45;&gt;asset -->
<g id="edge12" class="edge">
<title>oauth_client:w&#45;&gt;asset:e</title>
<path fill="none" stroke="#000000" d="M379.1722,-330.8148C346.0207,-345.8844 393.9935,-421.8187 352.7709,-456.1855 316.9704,-486.032 190.3708,-473.5343 144.7709,-483.1855 126.4043,-487.0727 123.0444,-495.1855 104.2709,-495.1855"/>
<polygon fill="#000000" stroke="#000000" points="385.8976,-329.6035 394.4091,-331.7285 389.8343,-328.8945 393.7709,-328.1855 393.7709,-328.1855 393.7709,-328.1855 389.8343,-328.8945 393.1328,-324.6425 385.8976,-329.6035 385.8976,-329.6035"/>
<ellipse fill="none" stroke="#000000" cx="382.7483" cy="-330.1708" rx="3.2" ry="3.2"/>
</g>
<!-- release -->
<g id="node9" class="node">
<title>release</title>
<g id="a_node9"><a xlink:href="../../tables/release.html" xlink:title="release" target="_top">
<polygon fill="#ffffff" stroke="transparent" points="152.7709,-157.1855 152.7709,-445.1855 344.7709,-445.1855 344.7709,-157.1855 152.7709,-157.1855"/>
<polygon fill="#f5f5f5" stroke="transparent" points="154.7709,-420.1855 154.7709,-443.1855 342.7709,-443.1855 342.7709,-420.1855 154.7709,-420.1855"/>
<polygon fill="none" stroke="#000000" points="154.7709,-420.1855 154.7709,-443.1855 342.7709,-443.1855 342.7709,-420.1855 154.7709,-420.1855"/>
<text text-anchor="start" x="159.7709" y="-429.2855" font-family="Helvetica,sans-Serif" font-weight="bold" font-size="11.00" fill="#000000">release</text>
<text text-anchor="start" x="307.8146" y="-428.2855" font-family="Helvetica,sans-Serif" font-size="11.00" fill="#000000">[table]</text>
<polygon fill="none" stroke="#000000" points="154.7709,-398.1855 154.7709,-420.1855 250.7709,-420.1855 250.7709,-398.1855 154.7709,-398.1855"/>
<image xlink:href="../../images/primaryKeys.png" width="11px" height="12px" preserveAspectRatio="xMinYMin meet" x="159.771" y="-415.185"/>
<text text-anchor="start" x="174.7709" y="-405.2855" font-family="Helvetica,sans-Serif" font-size="11.00" fill="#000000">id</text>
<polygon fill="none" stroke="#000000" points="250.7709,-398.1855 250.7709,-420.1855 342.7709,-420.1855 342.7709,-398.1855 250.7709,-398.1855"/>
<text text-anchor="start" x="253.7709" y="-405.8855" font-family="Helvetica,sans-Serif" font-size="11.00" fill="#000000">bigserial[19]</text>
<polygon fill="none" stroke="#000000" points="154.7709,-376.1855 154.7709,-398.1855 250.7709,-398.1855 250.7709,-376.1855 154.7709,-376.1855"/>
<text text-anchor="start" x="174.7709" y="-383.2855" font-family="Helvetica,sans-Serif" font-size="11.00" fill="#000000">title</text>
<polygon fill="none" stroke="#000000" points="250.7709,-376.1855 250.7709,-398.1855 342.7709,-398.1855 342.7709,-376.1855 250.7709,-376.1855"/>
<text text-anchor="start" x="253.7709" y="-383.8855" font-family="Helvetica,sans-Serif" font-size="11.00" fill="#000000">varchar[255]</text>
<polygon fill="none" stroke="#000000" points="154.7709,-354.1855 154.7709,-376.1855 250.7709,-376.1855 250.7709,-354.1855 154.7709,-354.1855"/>
<text text-anchor="start" x="174.7709" y="-361.2855" font-family="Helvetica,sans-Serif" font-size="11.00" fill="#000000">description</text>
<polygon fill="none" stroke="#000000" points="250.7709,-354.1855 250.7709,-376.1855 342.7709,-376.1855 342.7709,-354.1855 250.7709,-354.1855"/>
<text text-anchor="start" x="253.7709" y="-361.8855" font-family="Helvetica,sans-Serif" font-size="11.00" fill="#000000">text[2147483647]</text>
<polygon fill="none" stroke="#000000" points="154.7709,-332.1855 154.7709,-354.1855 250.7709,-354.1855 250.7709,-332.1855 154.7709,-332.1855"/>
<image xlink:href="../../images/foreignKeys.png" width="11px" height="12px" preserveAspectRatio="xMinYMin meet" x="159.771" y="-349.185"/>
<text text-anchor="start" x="174.7709" y="-339.2855" font-family="Helvetica,sans-Serif" font-size="11.00" fill="#000000">cover</text>
<polygon fill="none" stroke="#000000" points="250.7709,-332.1855 250.7709,-354.1855 342.7709,-354.1855 342.7709,-332.1855 250.7709,-332.1855"/>
<text text-anchor="start" x="253.7709" y="-339.8855" font-family="Helvetica,sans-Serif" font-size="11.00" fill="#000000">int8[19]</text>
<polygon fill="none" stroke="#000000" points="154.7709,-310.1855 154.7709,-332.1855 250.7709,-332.1855 250.7709,-310.1855 154.7709,-310.1855"/>
<text text-anchor="start" x="174.7709" y="-317.2855" font-family="Helvetica,sans-Serif" font-size="11.00" fill="#000000">link</text>
<polygon fill="none" stroke="#000000" points="250.7709,-310.1855 250.7709,-332.1855 342.7709,-332.1855 342.7709,-310.1855 250.7709,-310.1855"/>
<text text-anchor="start" x="253.7709" y="-317.8855" font-family="Helvetica,sans-Serif" font-size="11.00" fill="#000000">varchar[255]</text>
<polygon fill="#ffffff" stroke="transparent" points="154.7709,-288.1855 154.7709,-310.1855 250.7709,-310.1855 250.7709,-288.1855 154.7709,-288.1855"/>
<polygon fill="none" stroke="#000000" points="154.7709,-288.1855 154.7709,-310.1855 250.7709,-310.1855 250.7709,-288.1855 154.7709,-288.1855"/>
<text text-anchor="start" x="174.7709" y="-295.2855" font-family="Helvetica,sans-Serif" font-size="11.00" fill="#000000">platform</text>
<polygon fill="none" stroke="#000000" points="250.7709,-288.1855 250.7709,-310.1855 342.7709,-310.1855 342.7709,-288.1855 250.7709,-288.1855"/>
<text text-anchor="start" x="253.7709" y="-295.8855" font-family="Helvetica,sans-Serif" font-size="11.00" fill="#000000">text[2147483647]</text>
<polygon fill="#ffffff" stroke="transparent" points="154.7709,-266.1855 154.7709,-288.1855 250.7709,-288.1855 250.7709,-266.1855 154.7709,-266.1855"/>
<polygon fill="none" stroke="#000000" points="154.7709,-266.1855 154.7709,-288.1855 250.7709,-288.1855 250.7709,-266.1855 154.7709,-266.1855"/>
<text text-anchor="start" x="174.7709" y="-273.2855" font-family="Helvetica,sans-Serif" font-size="11.00" fill="#000000">channel</text>
<polygon fill="none" stroke="#000000" points="250.7709,-266.1855 250.7709,-288.1855 342.7709,-288.1855 342.7709,-266.1855 250.7709,-266.1855"/>
<text text-anchor="start" x="253.7709" y="-273.8855" font-family="Helvetica,sans-Serif" font-size="11.00" fill="#000000">text[2147483647]</text>
<polygon fill="#ffffff" stroke="transparent" points="154.7709,-244.1855 154.7709,-266.1855 250.7709,-266.1855 250.7709,-244.1855 154.7709,-244.1855"/>
<polygon fill="none" stroke="#000000" points="154.7709,-244.1855 154.7709,-266.1855 250.7709,-266.1855 250.7709,-244.1855 154.7709,-244.1855"/>
<text text-anchor="start" x="174.7709" y="-251.2855" font-family="Helvetica,sans-Serif" font-size="11.00" fill="#000000">version</text>
<polygon fill="none" stroke="#000000" points="250.7709,-244.1855 250.7709,-266.1855 342.7709,-266.1855 342.7709,-244.1855 250.7709,-244.1855"/>
<text text-anchor="start" x="253.7709" y="-251.8855" font-family="Helvetica,sans-Serif" font-size="11.00" fill="#000000">varchar[255]</text>
<polygon fill="none" stroke="#000000" points="154.7709,-222.1855 154.7709,-244.1855 250.7709,-244.1855 250.7709,-222.1855 154.7709,-222.1855"/>
<text text-anchor="start" x="174.7709" y="-229.2855" font-family="Helvetica,sans-Serif" font-size="11.00" fill="#000000">latest</text>
<polygon fill="none" stroke="#000000" points="250.7709,-222.1855 250.7709,-244.1855 342.7709,-244.1855 342.7709,-222.1855 250.7709,-222.1855"/>
<text text-anchor="start" x="253.7709" y="-229.8855" font-family="Helvetica,sans-Serif" font-size="11.00" fill="#000000">bool[1]</text>
<polygon fill="none" stroke="#000000" points="154.7709,-200.1855 154.7709,-222.1855 250.7709,-222.1855 250.7709,-200.1855 154.7709,-200.1855"/>
<text text-anchor="start" x="174.7709" y="-207.2855" font-family="Helvetica,sans-Serif" font-size="11.00" fill="#000000">force_update</text>
<polygon fill="none" stroke="#000000" points="250.7709,-200.1855 250.7709,-222.1855 342.7709,-222.1855 342.7709,-200.1855 250.7709,-200.1855"/>
<text text-anchor="start" x="253.7709" y="-207.8855" font-family="Helvetica,sans-Serif" font-size="11.00" fill="#000000">bool[1]</text>
<polygon fill="none" stroke="#000000" points="154.7709,-178.1855 154.7709,-200.1855 250.7709,-200.1855 250.7709,-178.1855 154.7709,-178.1855"/>
<text text-anchor="start" x="174.7709" y="-185.2855" font-family="Helvetica,sans-Serif" font-size="11.00" fill="#000000">created_at</text>
<polygon fill="none" stroke="#000000" points="250.7709,-178.1855 250.7709,-200.1855 342.7709,-200.1855 342.7709,-178.1855 250.7709,-178.1855"/>
<text text-anchor="start" x="253.3732" y="-185.8855" font-family="Helvetica,sans-Serif" font-size="11.00" fill="#000000">timestamptz[35,6]</text>
<polygon fill="#ffffff" stroke="transparent" points="154.7709,-159.1855 154.7709,-178.1855 206.7709,-178.1855 206.7709,-159.1855 154.7709,-159.1855"/>
<polygon fill="none" stroke="#000000" points="154.7709,-159.1855 154.7709,-178.1855 206.7709,-178.1855 206.7709,-159.1855 154.7709,-159.1855"/>
<text text-anchor="start" x="157.7709" y="-165.2855" font-family="Helvetica,sans-Serif" font-size="11.00" fill="#000000">&lt; 1</text>
<polygon fill="#ffffff" stroke="transparent" points="206.7709,-159.1855 206.7709,-178.1855 250.7709,-178.1855 250.7709,-159.1855 206.7709,-159.1855"/>
<polygon fill="none" stroke="#000000" points="206.7709,-159.1855 206.7709,-178.1855 250.7709,-178.1855 250.7709,-159.1855 206.7709,-159.1855"/>
<text text-anchor="start" x="241.6571" y="-165.2855" font-family="Helvetica,sans-Serif" font-size="11.00" fill="#000000"> &#160;</text>
<polygon fill="#ffffff" stroke="transparent" points="250.7709,-159.1855 250.7709,-178.1855 342.7709,-178.1855 342.7709,-159.1855 250.7709,-159.1855"/>
<polygon fill="none" stroke="#000000" points="250.7709,-159.1855 250.7709,-178.1855 342.7709,-178.1855 342.7709,-159.1855 250.7709,-159.1855"/>
<text text-anchor="start" x="324.1762" y="-165.2855" font-family="Helvetica,sans-Serif" font-size="11.00" fill="#000000">0 &gt;</text>
<polygon fill="none" stroke="#000000" stroke-width="2" points="153.7709,-158.1855 153.7709,-444.1855 343.7709,-444.1855 343.7709,-158.1855 153.7709,-158.1855"/>
</a>
</g>
</g>
<!-- release&#45;&gt;asset -->
<g id="edge14" class="edge">
<title>release:w&#45;&gt;asset:e</title>
<path fill="none" stroke="#000000" d="M140.6389,-345.9535C97.2529,-366.5545 169.7569,-495.1855 104.2709,-495.1855"/>
<polygon fill="#000000" stroke="#000000" points="146.9201,-344.7232 155.4629,-346.7183 150.8455,-343.9544 154.7709,-343.1855 154.7709,-343.1855 154.7709,-343.1855 150.8455,-343.9544 154.0789,-339.6526 146.9201,-344.7232 146.9201,-344.7232"/>
<ellipse fill="none" stroke="#000000" cx="143.7798" cy="-345.3383" rx="3.2" ry="3.2"/>
</g>
<!-- report_asset -->
<g id="node10" class="node">
<title>report_asset</title>
<g id="a_node10"><a xlink:href="../../tables/report_asset.html" xlink:title="report_asset" target="_top">
<polygon fill="#ffffff" stroke="transparent" points="196.7709,-712.6855 196.7709,-773.6855 300.7709,-773.6855 300.7709,-712.6855 196.7709,-712.6855"/>
<polygon fill="#f5f5f5" stroke="transparent" points="196.7709,-750.1855 196.7709,-773.1855 300.7709,-773.1855 300.7709,-750.1855 196.7709,-750.1855"/>
<polygon fill="none" stroke="#000000" points="196.7709,-750.1855 196.7709,-773.1855 300.7709,-773.1855 300.7709,-750.1855 196.7709,-750.1855"/>
<text text-anchor="start" x="201.7074" y="-759.2855" font-family="Helvetica,sans-Serif" font-weight="bold" font-size="11.00" fill="#000000">report_asset</text>
<text text-anchor="start" x="266.2928" y="-758.2855" font-family="Helvetica,sans-Serif" font-size="11.00" fill="#000000">[table]</text>
<polygon fill="none" stroke="#000000" points="196.7709,-731.1855 196.7709,-750.1855 300.7709,-750.1855 300.7709,-731.1855 196.7709,-731.1855"/>
<text text-anchor="start" x="199.7709" y="-737.2855" font-family="Helvetica,sans-Serif" font-size="11.00" fill="#000000">...</text>
<polygon fill="#ffffff" stroke="transparent" points="196.7709,-712.1855 196.7709,-731.1855 246.7709,-731.1855 246.7709,-712.1855 196.7709,-712.1855"/>
<polygon fill="none" stroke="#000000" points="196.7709,-712.1855 196.7709,-731.1855 246.7709,-731.1855 246.7709,-712.1855 196.7709,-712.1855"/>
<text text-anchor="start" x="199.7709" y="-718.2855" font-family="Helvetica,sans-Serif" font-size="11.00" fill="#000000">&lt; 2</text>
<polygon fill="#ffffff" stroke="transparent" points="246.7709,-712.1855 246.7709,-731.1855 273.7709,-731.1855 273.7709,-712.1855 246.7709,-712.1855"/>
<polygon fill="none" stroke="#000000" points="246.7709,-712.1855 246.7709,-731.1855 273.7709,-731.1855 273.7709,-712.1855 246.7709,-712.1855"/>
<text text-anchor="start" x="264.6571" y="-718.2855" font-family="Helvetica,sans-Serif" font-size="11.00" fill="#000000"> &#160;</text>
<polygon fill="#ffffff" stroke="transparent" points="273.7709,-712.1855 273.7709,-731.1855 300.7709,-731.1855 300.7709,-712.1855 273.7709,-712.1855"/>
<polygon fill="none" stroke="#000000" points="273.7709,-712.1855 273.7709,-731.1855 300.7709,-731.1855 300.7709,-712.1855 273.7709,-712.1855"/>
<text text-anchor="start" x="291.6571" y="-718.2855" font-family="Helvetica,sans-Serif" font-size="11.00" fill="#000000"> &#160;</text>
</a>
</g>
</g>
<!-- report_asset&#45;&gt;asset -->
<g id="edge15" class="edge">
<title>report_asset:w&#45;&gt;asset:e</title>
<path fill="none" stroke="#000000" d="M182.2583,-738.4876C164.1731,-733.6563 157.2669,-718.837 144.7709,-698.1855 120.957,-658.8293 150.2711,-495.1855 104.2709,-495.1855"/>
<polygon fill="#000000" stroke="#000000" points="188.8251,-739.2558 196.3526,-743.7611 192.798,-739.7206 196.7709,-740.1855 196.7709,-740.1855 196.7709,-740.1855 192.798,-739.7206 197.1893,-736.6099 188.8251,-739.2558 188.8251,-739.2558"/>
<ellipse fill="none" stroke="#000000" cx="185.6468" cy="-738.8839" rx="3.2" ry="3.2"/>
</g>
</g>
</svg>
