<?xml version="1.0" encoding="UTF-8" standalone="no"?>
<!DOCTYPE svg PUBLIC "-//W3C//DTD SVG 1.1//EN"
 "http://www.w3.org/Graphics/SVG/1.1/DTD/svg11.dtd">
<!-- Generated by graphviz version 2.40.1 (20161225.0304)
 -->
<!-- Title: oneDegreeRelationshipsDiagram Pages: 1 -->
<svg width="905pt" height="397pt"
 viewBox="0.00 0.00 905.00 397.21" xmlns="http://www.w3.org/2000/svg" xmlns:xlink="http://www.w3.org/1999/xlink">
<g id="graph0" class="graph" transform="scale(1 1) rotate(0) translate(4 393.2121)">
<title>oneDegreeRelationshipsDiagram</title>
<polygon fill="#ffffff" stroke="transparent" points="-4,4 -4,-393.2121 901,-393.2121 901,4 -4,4"/>
<text text-anchor="middle" x="72.4936" y="-7.3" font-family="Helvetica,sans-Serif" font-size="11.00" fill="#000000">Generated by SchemaSpy</text>
<!-- article -->
<g id="node1" class="node">
<title>article</title>
<g id="a_node1"><a xlink:href="../../tables/article.html" xlink:title="article" target="_top">
<polygon fill="#ffffff" stroke="transparent" points="224,-66.7121 224,-303.7121 316,-303.7121 316,-66.7121 224,-66.7121"/>
<polygon fill="#f5f5f5" stroke="transparent" points="224,-280.2121 224,-303.2121 316,-303.2121 316,-280.2121 224,-280.2121"/>
<polygon fill="none" stroke="#000000" points="224,-280.2121 224,-303.2121 316,-303.2121 316,-280.2121 224,-280.2121"/>
<text text-anchor="start" x="229" y="-289.3121" font-family="Helvetica,sans-Serif" font-weight="bold" font-size="11.00" fill="#000000">article</text>
<text text-anchor="start" x="281.0437" y="-288.3121" font-family="Helvetica,sans-Serif" font-size="11.00" fill="#000000">[table]</text>
<polygon fill="none" stroke="#000000" points="224,-258.2121 224,-280.2121 316,-280.2121 316,-258.2121 224,-258.2121"/>
<image xlink:href="../../images/primaryKeys.png" width="11px" height="12px" preserveAspectRatio="xMinYMin meet" x="229" y="-275.212"/>
<text text-anchor="start" x="244" y="-265.3121" font-family="Helvetica,sans-Serif" font-size="11.00" fill="#000000">id</text>
<polygon fill="#ffffff" stroke="transparent" points="224,-236.2121 224,-258.2121 316,-258.2121 316,-236.2121 224,-236.2121"/>
<polygon fill="none" stroke="#000000" points="224,-236.2121 224,-258.2121 316,-258.2121 316,-236.2121 224,-236.2121"/>
<image xlink:href="../../images/foreignKeys.png" width="11px" height="12px" preserveAspectRatio="xMinYMin meet" x="229" y="-253.212"/>
<text text-anchor="start" x="244" y="-243.3121" font-family="Helvetica,sans-Serif" font-size="11.00" fill="#000000">author_id</text>
<polygon fill="none" stroke="#000000" points="224,-214.2121 224,-236.2121 316,-236.2121 316,-214.2121 224,-214.2121"/>
<image xlink:href="../../images/foreignKeys.png" width="11px" height="12px" preserveAspectRatio="xMinYMin meet" x="229" y="-231.212"/>
<text text-anchor="start" x="244" y="-221.3121" font-family="Helvetica,sans-Serif" font-size="11.00" fill="#000000">upstream_id</text>
<polygon fill="none" stroke="#000000" points="224,-192.2121 224,-214.2121 316,-214.2121 316,-192.2121 224,-192.2121"/>
<image xlink:href="../../images/foreignKeys.png" width="11px" height="12px" preserveAspectRatio="xMinYMin meet" x="229" y="-209.212"/>
<text text-anchor="start" x="244" y="-199.3121" font-family="Helvetica,sans-Serif" font-size="11.00" fill="#000000">cover</text>
<polygon fill="#ffffff" stroke="transparent" points="224,-170.2121 224,-192.2121 316,-192.2121 316,-170.2121 224,-170.2121"/>
<polygon fill="none" stroke="#000000" points="224,-170.2121 224,-192.2121 316,-192.2121 316,-170.2121 224,-170.2121"/>
<text text-anchor="start" x="244" y="-177.3121" font-family="Helvetica,sans-Serif" font-size="11.00" fill="#000000">media_hash</text>
<polygon fill="#ffffff" stroke="transparent" points="224,-148.2121 224,-170.2121 316,-170.2121 316,-148.2121 224,-148.2121"/>
<polygon fill="none" stroke="#000000" points="224,-148.2121 224,-170.2121 316,-170.2121 316,-148.2121 224,-148.2121"/>
<text text-anchor="start" x="244" y="-155.3121" font-family="Helvetica,sans-Serif" font-size="11.00" fill="#000000">state</text>
<polygon fill="#ffffff" stroke="transparent" points="224,-126.2121 224,-148.2121 316,-148.2121 316,-126.2121 224,-126.2121"/>
<polygon fill="none" stroke="#000000" points="224,-126.2121 224,-148.2121 316,-148.2121 316,-126.2121 224,-126.2121"/>
<text text-anchor="start" x="244" y="-133.3121" font-family="Helvetica,sans-Serif" font-size="11.00" fill="#000000">created_at</text>
<polygon fill="none" stroke="#000000" points="224,-104.2121 224,-126.2121 316,-126.2121 316,-104.2121 224,-104.2121"/>
<image xlink:href="../../images/foreignKeys.png" width="11px" height="12px" preserveAspectRatio="xMinYMin meet" x="229" y="-121.212"/>
<text text-anchor="start" x="244" y="-111.3121" font-family="Helvetica,sans-Serif" font-size="11.00" fill="#000000">draft_id</text>
<polygon fill="none" stroke="#000000" points="224,-85.2121 224,-104.2121 316,-104.2121 316,-85.2121 224,-85.2121"/>
<text text-anchor="start" x="227" y="-91.3121" font-family="Helvetica,sans-Serif" font-size="11.00" fill="#000000">...</text>
<polygon fill="#ffffff" stroke="transparent" points="224,-66.2121 224,-85.2121 261,-85.2121 261,-66.2121 224,-66.2121"/>
<polygon fill="none" stroke="#000000" points="224,-66.2121 224,-85.2121 261,-85.2121 261,-66.2121 224,-66.2121"/>
<text text-anchor="start" x="227" y="-72.3121" font-family="Helvetica,sans-Serif" font-size="11.00" fill="#000000">&lt; 4</text>
<polygon fill="#ffffff" stroke="transparent" points="261,-66.2121 261,-85.2121 281,-85.2121 281,-66.2121 261,-66.2121"/>
<polygon fill="none" stroke="#000000" points="261,-66.2121 261,-85.2121 281,-85.2121 281,-66.2121 261,-66.2121"/>
<text text-anchor="start" x="271.8862" y="-72.3121" font-family="Helvetica,sans-Serif" font-size="11.00" fill="#000000"> &#160;</text>
<polygon fill="#ffffff" stroke="transparent" points="281,-66.2121 281,-85.2121 316,-85.2121 316,-66.2121 281,-66.2121"/>
<polygon fill="none" stroke="#000000" points="281,-66.2121 281,-85.2121 316,-85.2121 316,-66.2121 281,-66.2121"/>
<text text-anchor="start" x="291.2904" y="-72.3121" font-family="Helvetica,sans-Serif" font-size="11.00" fill="#000000">14 &gt;</text>
</a>
</g>
</g>
<!-- user -->
<g id="node2" class="node">
<title>user</title>
<g id="a_node2"><a xlink:href="../../tables/user.html" xlink:title="user" target="_top">
<polygon fill="#ffffff" stroke="transparent" points="8,-66.7121 8,-281.7121 175,-281.7121 175,-66.7121 8,-66.7121"/>
<polygon fill="#f5f5f5" stroke="transparent" points="8.5,-258.2121 8.5,-281.2121 175.5,-281.2121 175.5,-258.2121 8.5,-258.2121"/>
<polygon fill="none" stroke="#000000" points="8.5,-258.2121 8.5,-281.2121 175.5,-281.2121 175.5,-258.2121 8.5,-258.2121"/>
<text text-anchor="start" x="13.5" y="-267.3121" font-family="Helvetica,sans-Serif" font-weight="bold" font-size="11.00" fill="#000000">user</text>
<text text-anchor="start" x="140.5437" y="-266.3121" font-family="Helvetica,sans-Serif" font-size="11.00" fill="#000000">[table]</text>
<polygon fill="none" stroke="#000000" points="8.5,-236.2121 8.5,-258.2121 175.5,-258.2121 175.5,-236.2121 8.5,-236.2121"/>
<image xlink:href="../../images/primaryKeys.png" width="11px" height="12px" preserveAspectRatio="xMinYMin meet" x="13.5" y="-253.212"/>
<text text-anchor="start" x="28.5" y="-243.3121" font-family="Helvetica,sans-Serif" font-size="11.00" fill="#000000">id</text>
<polygon fill="#ffffff" stroke="transparent" points="8.5,-214.2121 8.5,-236.2121 175.5,-236.2121 175.5,-214.2121 8.5,-214.2121"/>
<polygon fill="none" stroke="#000000" points="8.5,-214.2121 8.5,-236.2121 175.5,-236.2121 175.5,-214.2121 8.5,-214.2121"/>
<text text-anchor="start" x="28.5" y="-221.3121" font-family="Helvetica,sans-Serif" font-size="11.00" fill="#000000">uuid</text>
<polygon fill="#ffffff" stroke="transparent" points="8.5,-192.2121 8.5,-214.2121 175.5,-214.2121 175.5,-192.2121 8.5,-192.2121"/>
<polygon fill="none" stroke="#000000" points="8.5,-192.2121 8.5,-214.2121 175.5,-214.2121 175.5,-192.2121 8.5,-192.2121"/>
<text text-anchor="start" x="28.5" y="-199.3121" font-family="Helvetica,sans-Serif" font-size="11.00" fill="#000000">user_name</text>
<polygon fill="none" stroke="#000000" points="8.5,-170.2121 8.5,-192.2121 175.5,-192.2121 175.5,-170.2121 8.5,-170.2121"/>
<image xlink:href="../../images/foreignKeys.png" width="11px" height="12px" preserveAspectRatio="xMinYMin meet" x="13.5" y="-187.212"/>
<text text-anchor="start" x="28.5" y="-177.3121" font-family="Helvetica,sans-Serif" font-size="11.00" fill="#000000">avatar</text>
<polygon fill="#ffffff" stroke="transparent" points="8.5,-148.2121 8.5,-170.2121 175.5,-170.2121 175.5,-148.2121 8.5,-148.2121"/>
<polygon fill="none" stroke="#000000" points="8.5,-148.2121 8.5,-170.2121 175.5,-170.2121 175.5,-148.2121 8.5,-148.2121"/>
<text text-anchor="start" x="28.5" y="-155.3121" font-family="Helvetica,sans-Serif" font-size="11.00" fill="#000000">email</text>
<polygon fill="#ffffff" stroke="transparent" points="8.5,-126.2121 8.5,-148.2121 175.5,-148.2121 175.5,-126.2121 8.5,-126.2121"/>
<polygon fill="none" stroke="#000000" points="8.5,-126.2121 8.5,-148.2121 175.5,-148.2121 175.5,-126.2121 8.5,-126.2121"/>
<text text-anchor="start" x="28.5" y="-133.3121" font-family="Helvetica,sans-Serif" font-size="11.00" fill="#000000">state</text>
<polygon fill="#ffffff" stroke="transparent" points="8.5,-104.2121 8.5,-126.2121 175.5,-126.2121 175.5,-104.2121 8.5,-104.2121"/>
<polygon fill="none" stroke="#000000" points="8.5,-104.2121 8.5,-126.2121 175.5,-126.2121 175.5,-104.2121 8.5,-104.2121"/>
<text text-anchor="start" x="28.5" y="-111.3121" font-family="Helvetica,sans-Serif" font-size="11.00" fill="#000000">liker_id</text>
<polygon fill="none" stroke="#000000" points="8.5,-85.2121 8.5,-104.2121 175.5,-104.2121 175.5,-85.2121 8.5,-85.2121"/>
<text text-anchor="start" x="11.5" y="-91.3121" font-family="Helvetica,sans-Serif" font-size="11.00" fill="#000000">...</text>
<polygon fill="#ffffff" stroke="transparent" points="8.5,-66.2121 8.5,-85.2121 82.5,-85.2121 82.5,-66.2121 8.5,-66.2121"/>
<polygon fill="none" stroke="#000000" points="8.5,-66.2121 8.5,-85.2121 82.5,-85.2121 82.5,-66.2121 8.5,-66.2121"/>
<text text-anchor="start" x="11.5" y="-72.3121" font-family="Helvetica,sans-Serif" font-size="11.00" fill="#000000">&lt; 1</text>
<polygon fill="#ffffff" stroke="transparent" points="82.5,-66.2121 82.5,-85.2121 121.5,-85.2121 121.5,-66.2121 82.5,-66.2121"/>
<polygon fill="none" stroke="#000000" points="82.5,-66.2121 82.5,-85.2121 121.5,-85.2121 121.5,-66.2121 82.5,-66.2121"/>
<text text-anchor="start" x="112.3862" y="-72.3121" font-family="Helvetica,sans-Serif" font-size="11.00" fill="#000000"> &#160;</text>
<polygon fill="#ffffff" stroke="transparent" points="121.5,-66.2121 121.5,-85.2121 175.5,-85.2121 175.5,-66.2121 121.5,-66.2121"/>
<polygon fill="none" stroke="#000000" points="121.5,-66.2121 121.5,-85.2121 175.5,-85.2121 175.5,-66.2121 121.5,-66.2121"/>
<text text-anchor="start" x="150.7904" y="-72.3121" font-family="Helvetica,sans-Serif" font-size="11.00" fill="#000000">42 &gt;</text>
</a>
</g>
</g>
<!-- article&#45;&gt;user -->
<g id="edge1" class="edge">
<title>article:w&#45;&gt;user:e</title>
<path fill="none" stroke="#000000" d="M209.2829,-247.2121C198.2886,-247.2121 191.1615,-247.2121 175.5,-247.2121"/>
<polygon fill="#000000" stroke="#000000" points="216,-247.2122 224,-250.8121 220,-247.2122 224,-247.2121 224,-247.2121 224,-247.2121 220,-247.2122 224,-243.6121 216,-247.2122 216,-247.2122"/>
<ellipse fill="none" stroke="#000000" cx="212.8" cy="-247.2122" rx="3.2" ry="3.2"/>
</g>
<!-- comment -->
<g id="node3" class="node">
<title>comment</title>
<g id="a_node3"><a xlink:href="../../tables/comment.html" xlink:title="comment" target="_top">
<polygon fill="#ffffff" stroke="transparent" points="365,-45.7121 365,-260.7121 500,-260.7121 500,-45.7121 365,-45.7121"/>
<polygon fill="#f5f5f5" stroke="transparent" points="365.5,-237.2121 365.5,-260.2121 500.5,-260.2121 500.5,-237.2121 365.5,-237.2121"/>
<polygon fill="none" stroke="#000000" points="365.5,-237.2121 365.5,-260.2121 500.5,-260.2121 500.5,-237.2121 365.5,-237.2121"/>
<text text-anchor="start" x="370.5" y="-246.3121" font-family="Helvetica,sans-Serif" font-weight="bold" font-size="11.00" fill="#000000">comment</text>
<text text-anchor="start" x="465.5437" y="-245.3121" font-family="Helvetica,sans-Serif" font-size="11.00" fill="#000000">[table]</text>
<polygon fill="none" stroke="#000000" points="365.5,-215.2121 365.5,-237.2121 500.5,-237.2121 500.5,-215.2121 365.5,-215.2121"/>
<image xlink:href="../../images/primaryKeys.png" width="11px" height="12px" preserveAspectRatio="xMinYMin meet" x="370.5" y="-232.212"/>
<text text-anchor="start" x="385.5" y="-222.3121" font-family="Helvetica,sans-Serif" font-size="11.00" fill="#000000">id</text>
<polygon fill="#ffffff" stroke="transparent" points="365.5,-193.2121 365.5,-215.2121 500.5,-215.2121 500.5,-193.2121 365.5,-193.2121"/>
<polygon fill="none" stroke="#000000" points="365.5,-193.2121 365.5,-215.2121 500.5,-215.2121 500.5,-193.2121 365.5,-193.2121"/>
<text text-anchor="start" x="385.5" y="-200.3121" font-family="Helvetica,sans-Serif" font-size="11.00" fill="#000000">uuid</text>
<polygon fill="#ffffff" stroke="transparent" points="365.5,-171.2121 365.5,-193.2121 500.5,-193.2121 500.5,-171.2121 365.5,-171.2121"/>
<polygon fill="none" stroke="#000000" points="365.5,-171.2121 365.5,-193.2121 500.5,-193.2121 500.5,-171.2121 365.5,-171.2121"/>
<image xlink:href="../../images/foreignKeys.png" width="11px" height="12px" preserveAspectRatio="xMinYMin meet" x="370.5" y="-188.212"/>
<text text-anchor="start" x="385.5" y="-178.3121" font-family="Helvetica,sans-Serif" font-size="11.00" fill="#000000">author_id</text>
<polygon fill="#ffffff" stroke="transparent" points="365.5,-149.2121 365.5,-171.2121 500.5,-171.2121 500.5,-149.2121 365.5,-149.2121"/>
<polygon fill="none" stroke="#000000" points="365.5,-149.2121 365.5,-171.2121 500.5,-171.2121 500.5,-149.2121 365.5,-149.2121"/>
<image xlink:href="../../images/foreignKeys.png" width="11px" height="12px" preserveAspectRatio="xMinYMin meet" x="370.5" y="-166.212"/>
<text text-anchor="start" x="385.5" y="-156.3121" font-family="Helvetica,sans-Serif" font-size="11.00" fill="#000000">article_id</text>
<polygon fill="#ffffff" stroke="transparent" points="365.5,-127.2121 365.5,-149.2121 500.5,-149.2121 500.5,-127.2121 365.5,-127.2121"/>
<polygon fill="none" stroke="#000000" points="365.5,-127.2121 365.5,-149.2121 500.5,-149.2121 500.5,-127.2121 365.5,-127.2121"/>
<image xlink:href="../../images/foreignKeys.png" width="11px" height="12px" preserveAspectRatio="xMinYMin meet" x="370.5" y="-144.212"/>
<text text-anchor="start" x="385.5" y="-134.3121" font-family="Helvetica,sans-Serif" font-size="11.00" fill="#000000">parent_comment_id</text>
<polygon fill="#ffffff" stroke="transparent" points="365.5,-105.2121 365.5,-127.2121 500.5,-127.2121 500.5,-105.2121 365.5,-105.2121"/>
<polygon fill="none" stroke="#000000" points="365.5,-105.2121 365.5,-127.2121 500.5,-127.2121 500.5,-105.2121 365.5,-105.2121"/>
<text text-anchor="start" x="385.5" y="-112.3121" font-family="Helvetica,sans-Serif" font-size="11.00" fill="#000000">state</text>
<polygon fill="none" stroke="#000000" points="365.5,-83.2121 365.5,-105.2121 500.5,-105.2121 500.5,-83.2121 365.5,-83.2121"/>
<image xlink:href="../../images/foreignKeys.png" width="11px" height="12px" preserveAspectRatio="xMinYMin meet" x="370.5" y="-100.212"/>
<text text-anchor="start" x="385.5" y="-90.3121" font-family="Helvetica,sans-Serif" font-size="11.00" fill="#000000">reply_to</text>
<polygon fill="none" stroke="#000000" points="365.5,-64.2121 365.5,-83.2121 500.5,-83.2121 500.5,-64.2121 365.5,-64.2121"/>
<text text-anchor="start" x="368.5" y="-70.3121" font-family="Helvetica,sans-Serif" font-size="11.00" fill="#000000">...</text>
<polygon fill="#ffffff" stroke="transparent" points="365.5,-45.2121 365.5,-64.2121 426.5,-64.2121 426.5,-45.2121 365.5,-45.2121"/>
<polygon fill="none" stroke="#000000" points="365.5,-45.2121 365.5,-64.2121 426.5,-64.2121 426.5,-45.2121 365.5,-45.2121"/>
<text text-anchor="start" x="368.5" y="-51.3121" font-family="Helvetica,sans-Serif" font-size="11.00" fill="#000000">&lt; 4</text>
<polygon fill="#ffffff" stroke="transparent" points="426.5,-45.2121 426.5,-64.2121 458.5,-64.2121 458.5,-45.2121 426.5,-45.2121"/>
<polygon fill="none" stroke="#000000" points="426.5,-45.2121 426.5,-64.2121 458.5,-64.2121 458.5,-45.2121 426.5,-45.2121"/>
<text text-anchor="start" x="449.3862" y="-51.3121" font-family="Helvetica,sans-Serif" font-size="11.00" fill="#000000"> &#160;</text>
<polygon fill="#ffffff" stroke="transparent" points="458.5,-45.2121 458.5,-64.2121 500.5,-64.2121 500.5,-45.2121 458.5,-45.2121"/>
<polygon fill="none" stroke="#000000" points="458.5,-45.2121 458.5,-64.2121 500.5,-64.2121 500.5,-45.2121 458.5,-45.2121"/>
<text text-anchor="start" x="481.9053" y="-51.3121" font-family="Helvetica,sans-Serif" font-size="11.00" fill="#000000">5 &gt;</text>
</a>
</g>
</g>
<!-- comment&#45;&gt;article -->
<g id="edge2" class="edge">
<title>comment:w&#45;&gt;article:e</title>
<path fill="none" stroke="#000000" d="M351.3375,-164.0915C323.7751,-183.5087 363.1786,-269.2121 316,-269.2121"/>
<polygon fill="#000000" stroke="#000000" points="357.7842,-162.3257 366.4511,-163.6842 361.6421,-161.2689 365.5,-160.2121 365.5,-160.2121 365.5,-160.2121 361.6421,-161.2689 364.5489,-156.74 357.7842,-162.3257 357.7842,-162.3257"/>
<ellipse fill="none" stroke="#000000" cx="354.6979" cy="-163.1711" rx="3.2" ry="3.2"/>
</g>
<!-- comment&#45;&gt;user -->
<g id="edge3" class="edge">
<title>comment:w&#45;&gt;user:e</title>
<path fill="none" stroke="#000000" d="M351.1303,-179.5379C318.6246,-164.225 366.9171,-87.2617 324,-56.2121 285.1106,-28.0765 253.2956,-25.9956 216,-56.2121 148.5756,-110.8388 262.2763,-247.2121 175.5,-247.2121"/>
<polygon fill="#000000" stroke="#000000" points="357.635,-180.7484 364.8413,-185.7514 361.5675,-181.4803 365.5,-182.2121 365.5,-182.2121 365.5,-182.2121 361.5675,-181.4803 366.1587,-178.6729 357.635,-180.7484 357.635,-180.7484"/>
<ellipse fill="none" stroke="#000000" cx="354.4891" cy="-180.1629" rx="3.2" ry="3.2"/>
</g>
<!-- report -->
<g id="node4" class="node">
<title>report</title>
<g id="a_node4"><a xlink:href="../../tables/report.html" xlink:title="report" target="_top">
<polygon fill="#ffffff" stroke="transparent" points="549,-121.2121 549,-365.2121 736,-365.2121 736,-121.2121 549,-121.2121"/>
<polygon fill="#f5f5f5" stroke="transparent" points="551.5,-340.2121 551.5,-363.2121 734.5,-363.2121 734.5,-340.2121 551.5,-340.2121"/>
<polygon fill="none" stroke="#000000" points="551.5,-340.2121 551.5,-363.2121 734.5,-363.2121 734.5,-340.2121 551.5,-340.2121"/>
<text text-anchor="start" x="556.5" y="-349.3121" font-family="Helvetica,sans-Serif" font-weight="bold" font-size="11.00" fill="#000000">report</text>
<text text-anchor="start" x="699.5437" y="-348.3121" font-family="Helvetica,sans-Serif" font-size="11.00" fill="#000000">[table]</text>
<polygon fill="none" stroke="#000000" points="551.5,-318.2121 551.5,-340.2121 642.5,-340.2121 642.5,-318.2121 551.5,-318.2121"/>
<image xlink:href="../../images/primaryKeys.png" width="11px" height="12px" preserveAspectRatio="xMinYMin meet" x="556.5" y="-335.212"/>
<text text-anchor="start" x="571.5" y="-325.3121" font-family="Helvetica,sans-Serif" font-size="11.00" fill="#000000">id</text>
<polygon fill="none" stroke="#000000" points="642.5,-318.2121 642.5,-340.2121 734.5,-340.2121 734.5,-318.2121 642.5,-318.2121"/>
<text text-anchor="start" x="645.5" y="-325.9121" font-family="Helvetica,sans-Serif" font-size="11.00" fill="#000000">bigserial[19]</text>
<polygon fill="none" stroke="#000000" points="551.5,-296.2121 551.5,-318.2121 642.5,-318.2121 642.5,-296.2121 551.5,-296.2121"/>
<image xlink:href="../../images/foreignKeys.png" width="11px" height="12px" preserveAspectRatio="xMinYMin meet" x="556.5" y="-313.212"/>
<text text-anchor="start" x="571.5" y="-303.3121" font-family="Helvetica,sans-Serif" font-size="11.00" fill="#000000">user_id</text>
<polygon fill="none" stroke="#000000" points="642.5,-296.2121 642.5,-318.2121 734.5,-318.2121 734.5,-296.2121 642.5,-296.2121"/>
<text text-anchor="start" x="645.5" y="-303.9121" font-family="Helvetica,sans-Serif" font-size="11.00" fill="#000000">int8[19]</text>
<polygon fill="none" stroke="#000000" points="551.5,-274.2121 551.5,-296.2121 642.5,-296.2121 642.5,-274.2121 551.5,-274.2121"/>
<image xlink:href="../../images/foreignKeys.png" width="11px" height="12px" preserveAspectRatio="xMinYMin meet" x="556.5" y="-291.212"/>
<text text-anchor="start" x="571.5" y="-281.3121" font-family="Helvetica,sans-Serif" font-size="11.00" fill="#000000">article_id</text>
<polygon fill="none" stroke="#000000" points="642.5,-274.2121 642.5,-296.2121 734.5,-296.2121 734.5,-274.2121 642.5,-274.2121"/>
<text text-anchor="start" x="645.5" y="-281.9121" font-family="Helvetica,sans-Serif" font-size="11.00" fill="#000000">int8[19]</text>
<polygon fill="none" stroke="#000000" points="551.5,-252.2121 551.5,-274.2121 642.5,-274.2121 642.5,-252.2121 551.5,-252.2121"/>
<image xlink:href="../../images/foreignKeys.png" width="11px" height="12px" preserveAspectRatio="xMinYMin meet" x="556.5" y="-269.212"/>
<text text-anchor="start" x="571.5" y="-259.3121" font-family="Helvetica,sans-Serif" font-size="11.00" fill="#000000">comment_id</text>
<polygon fill="none" stroke="#000000" points="642.5,-252.2121 642.5,-274.2121 734.5,-274.2121 734.5,-252.2121 642.5,-252.2121"/>
<text text-anchor="start" x="645.5" y="-259.9121" font-family="Helvetica,sans-Serif" font-size="11.00" fill="#000000">int8[19]</text>
<polygon fill="none" stroke="#000000" points="551.5,-230.2121 551.5,-252.2121 642.5,-252.2121 642.5,-230.2121 551.5,-230.2121"/>
<text text-anchor="start" x="571.5" y="-237.3121" font-family="Helvetica,sans-Serif" font-size="11.00" fill="#000000">category</text>
<polygon fill="none" stroke="#000000" points="642.5,-230.2121 642.5,-252.2121 734.5,-252.2121 734.5,-230.2121 642.5,-230.2121"/>
<text text-anchor="start" x="645.5" y="-237.9121" font-family="Helvetica,sans-Serif" font-size="11.00" fill="#000000">varchar[255]</text>
<polygon fill="none" stroke="#000000" points="551.5,-208.2121 551.5,-230.2121 642.5,-230.2121 642.5,-208.2121 551.5,-208.2121"/>
<text text-anchor="start" x="571.5" y="-215.3121" font-family="Helvetica,sans-Serif" font-size="11.00" fill="#000000">description</text>
<polygon fill="none" stroke="#000000" points="642.5,-208.2121 642.5,-230.2121 734.5,-230.2121 734.5,-208.2121 642.5,-208.2121"/>
<text text-anchor="start" x="645.5" y="-215.9121" font-family="Helvetica,sans-Serif" font-size="11.00" fill="#000000">text[2147483647]</text>
<polygon fill="none" stroke="#000000" points="551.5,-186.2121 551.5,-208.2121 642.5,-208.2121 642.5,-186.2121 551.5,-186.2121"/>
<text text-anchor="start" x="571.5" y="-193.3121" font-family="Helvetica,sans-Serif" font-size="11.00" fill="#000000">contact</text>
<polygon fill="none" stroke="#000000" points="642.5,-186.2121 642.5,-208.2121 734.5,-208.2121 734.5,-186.2121 642.5,-186.2121"/>
<text text-anchor="start" x="645.5" y="-193.9121" font-family="Helvetica,sans-Serif" font-size="11.00" fill="#000000">varchar[255]</text>
<polygon fill="none" stroke="#000000" points="551.5,-164.2121 551.5,-186.2121 642.5,-186.2121 642.5,-164.2121 551.5,-164.2121"/>
<text text-anchor="start" x="571.5" y="-171.3121" font-family="Helvetica,sans-Serif" font-size="11.00" fill="#000000">created_at</text>
<polygon fill="none" stroke="#000000" points="642.5,-164.2121 642.5,-186.2121 734.5,-186.2121 734.5,-164.2121 642.5,-164.2121"/>
<text text-anchor="start" x="645.1023" y="-171.9121" font-family="Helvetica,sans-Serif" font-size="11.00" fill="#000000">timestamptz[35,6]</text>
<polygon fill="none" stroke="#000000" points="551.5,-142.2121 551.5,-164.2121 642.5,-164.2121 642.5,-142.2121 551.5,-142.2121"/>
<text text-anchor="start" x="571.5" y="-149.3121" font-family="Helvetica,sans-Serif" font-size="11.00" fill="#000000">remark</text>
<polygon fill="none" stroke="#000000" points="642.5,-142.2121 642.5,-164.2121 734.5,-164.2121 734.5,-142.2121 642.5,-142.2121"/>
<text text-anchor="start" x="645.5" y="-149.9121" font-family="Helvetica,sans-Serif" font-size="11.00" fill="#000000">text[2147483647]</text>
<polygon fill="#ffffff" stroke="transparent" points="551.5,-123.2121 551.5,-142.2121 601.5,-142.2121 601.5,-123.2121 551.5,-123.2121"/>
<polygon fill="none" stroke="#000000" points="551.5,-123.2121 551.5,-142.2121 601.5,-142.2121 601.5,-123.2121 551.5,-123.2121"/>
<text text-anchor="start" x="554.5" y="-129.3121" font-family="Helvetica,sans-Serif" font-size="11.00" fill="#000000">&lt; 3</text>
<polygon fill="#ffffff" stroke="transparent" points="601.5,-123.2121 601.5,-142.2121 642.5,-142.2121 642.5,-123.2121 601.5,-123.2121"/>
<polygon fill="none" stroke="#000000" points="601.5,-123.2121 601.5,-142.2121 642.5,-142.2121 642.5,-123.2121 601.5,-123.2121"/>
<text text-anchor="start" x="633.3862" y="-129.3121" font-family="Helvetica,sans-Serif" font-size="11.00" fill="#000000"> &#160;</text>
<polygon fill="#ffffff" stroke="transparent" points="642.5,-123.2121 642.5,-142.2121 734.5,-142.2121 734.5,-123.2121 642.5,-123.2121"/>
<polygon fill="none" stroke="#000000" points="642.5,-123.2121 642.5,-142.2121 734.5,-142.2121 734.5,-123.2121 642.5,-123.2121"/>
<text text-anchor="start" x="715.9053" y="-129.3121" font-family="Helvetica,sans-Serif" font-size="11.00" fill="#000000">1 &gt;</text>
<polygon fill="none" stroke="#000000" stroke-width="2" points="550,-122.2121 550,-364.2121 735,-364.2121 735,-122.2121 550,-122.2121"/>
</a>
</g>
</g>
<!-- report&#45;&gt;article -->
<g id="edge4" class="edge">
<title>report:w&#45;&gt;article:e</title>
<path fill="none" stroke="#000000" d="M537.0056,-284.6427C485.814,-281.7925 339.256,-269.2121 316,-269.2121"/>
<polygon fill="#000000" stroke="#000000" points="543.5062,-284.898 551.3586,-288.8094 547.5031,-285.0551 551.5,-285.2121 551.5,-285.2121 551.5,-285.2121 547.5031,-285.0551 551.6414,-281.6149 543.5062,-284.898 543.5062,-284.898"/>
<ellipse fill="none" stroke="#000000" cx="540.3086" cy="-284.7724" rx="3.2" ry="3.2"/>
</g>
<!-- report&#45;&gt;user -->
<g id="edge6" class="edge">
<title>report:w&#45;&gt;user:e</title>
<path fill="none" stroke="#000000" d="M536.9444,-307.4691C398.5267,-312.3733 341.592,-385.0489 216,-314.2121 185.693,-297.1183 210.2953,-247.2121 175.5,-247.2121"/>
<polygon fill="#000000" stroke="#000000" points="543.5012,-307.3534 551.5636,-310.8116 547.5006,-307.2828 551.5,-307.2121 551.5,-307.2121 551.5,-307.2121 547.5006,-307.2828 551.4364,-303.6127 543.5012,-307.3534 543.5012,-307.3534"/>
<ellipse fill="none" stroke="#000000" cx="540.3017" cy="-307.4099" rx="3.2" ry="3.2"/>
</g>
<!-- report&#45;&gt;comment -->
<g id="edge5" class="edge">
<title>report:w&#45;&gt;comment:e</title>
<path fill="none" stroke="#000000" d="M537.5658,-258.9678C524.14,-249.2491 522.5965,-226.2121 500.5,-226.2121"/>
<polygon fill="#000000" stroke="#000000" points="543.8471,-260.881 550.451,-266.6559 547.6736,-262.0466 551.5,-263.2121 551.5,-263.2121 551.5,-263.2121 547.6736,-262.0466 552.549,-259.7684 543.8471,-260.881 543.8471,-260.881"/>
<ellipse fill="none" stroke="#000000" cx="540.786" cy="-259.9486" rx="3.2" ry="3.2"/>
</g>
<!-- report_asset -->
<g id="node5" class="node">
<title>report_asset</title>
<g id="a_node5"><a xlink:href="../../tables/report_asset.html" xlink:title="report_asset" target="_top">
<polygon fill="#ffffff" stroke="transparent" points="785,-277.2121 785,-385.2121 889,-385.2121 889,-277.2121 785,-277.2121"/>
<polygon fill="#f5f5f5" stroke="transparent" points="785,-362.2121 785,-385.2121 889,-385.2121 889,-362.2121 785,-362.2121"/>
<polygon fill="none" stroke="#000000" points="785,-362.2121 785,-385.2121 889,-385.2121 889,-362.2121 785,-362.2121"/>
<text text-anchor="start" x="789.9365" y="-371.3121" font-family="Helvetica,sans-Serif" font-weight="bold" font-size="11.00" fill="#000000">report_asset</text>
<text text-anchor="start" x="854.5219" y="-370.3121" font-family="Helvetica,sans-Serif" font-size="11.00" fill="#000000">[table]</text>
<polygon fill="none" stroke="#000000" points="785,-340.2121 785,-362.2121 889,-362.2121 889,-340.2121 785,-340.2121"/>
<image xlink:href="../../images/primaryKeys.png" width="11px" height="12px" preserveAspectRatio="xMinYMin meet" x="790" y="-357.212"/>
<text text-anchor="start" x="811" y="-347.3121" font-family="Helvetica,sans-Serif" font-size="11.00" fill="#000000">id</text>
<polygon fill="#ffffff" stroke="transparent" points="785,-318.2121 785,-340.2121 889,-340.2121 889,-318.2121 785,-318.2121"/>
<polygon fill="none" stroke="#000000" points="785,-318.2121 785,-340.2121 889,-340.2121 889,-318.2121 785,-318.2121"/>
<image xlink:href="../../images/foreignKeys.png" width="11px" height="12px" preserveAspectRatio="xMinYMin meet" x="790" y="-335.212"/>
<text text-anchor="start" x="811" y="-325.3121" font-family="Helvetica,sans-Serif" font-size="11.00" fill="#000000">report_id</text>
<polygon fill="#ffffff" stroke="transparent" points="785,-296.2121 785,-318.2121 889,-318.2121 889,-296.2121 785,-296.2121"/>
<polygon fill="none" stroke="#000000" points="785,-296.2121 785,-318.2121 889,-318.2121 889,-296.2121 785,-296.2121"/>
<image xlink:href="../../images/foreignKeys.png" width="11px" height="12px" preserveAspectRatio="xMinYMin meet" x="790" y="-313.212"/>
<text text-anchor="start" x="811" y="-303.3121" font-family="Helvetica,sans-Serif" font-size="11.00" fill="#000000">asset_id</text>
<polygon fill="#ffffff" stroke="transparent" points="785,-277.2121 785,-296.2121 835,-296.2121 835,-277.2121 785,-277.2121"/>
<polygon fill="none" stroke="#000000" points="785,-277.2121 785,-296.2121 835,-296.2121 835,-277.2121 785,-277.2121"/>
<text text-anchor="start" x="788" y="-283.3121" font-family="Helvetica,sans-Serif" font-size="11.00" fill="#000000">&lt; 2</text>
<polygon fill="#ffffff" stroke="transparent" points="835,-277.2121 835,-296.2121 862,-296.2121 862,-277.2121 835,-277.2121"/>
<polygon fill="none" stroke="#000000" points="835,-277.2121 835,-296.2121 862,-296.2121 862,-277.2121 835,-277.2121"/>
<text text-anchor="start" x="852.8862" y="-283.3121" font-family="Helvetica,sans-Serif" font-size="11.00" fill="#000000"> &#160;</text>
<polygon fill="#ffffff" stroke="transparent" points="862,-277.2121 862,-296.2121 889,-296.2121 889,-277.2121 862,-277.2121"/>
<polygon fill="none" stroke="#000000" points="862,-277.2121 862,-296.2121 889,-296.2121 889,-277.2121 862,-277.2121"/>
<text text-anchor="start" x="879.8862" y="-283.3121" font-family="Helvetica,sans-Serif" font-size="11.00" fill="#000000"> &#160;</text>
</a>
</g>
</g>
<!-- report_asset&#45;&gt;report -->
<g id="edge7" class="edge">
<title>report_asset:w&#45;&gt;report:e</title>
<path fill="none" stroke="#000000" d="M770.4203,-329.2121C758.5435,-329.2121 751.158,-329.2121 734.5,-329.2121"/>
<polygon fill="#000000" stroke="#000000" points="777,-329.2122 785,-332.8121 781,-329.2122 785,-329.2121 785,-329.2121 785,-329.2121 781,-329.2122 785,-325.6121 777,-329.2122 777,-329.2122"/>
<ellipse fill="none" stroke="#000000" cx="773.8" cy="-329.2122" rx="3.2" ry="3.2"/>
</g>
</g>
</svg>
