<?xml version="1.0" encoding="UTF-8" standalone="no"?>
<!DOCTYPE svg PUBLIC "-//W3C//DTD SVG 1.1//EN"
 "http://www.w3.org/Graphics/SVG/1.1/DTD/svg11.dtd">
<!-- Generated by graphviz version 2.40.1 (20161225.0304)
 -->
<!-- Title: oneDegreeRelationshipsDiagram Pages: 1 -->
<svg width="326pt" height="347pt"
 viewBox="0.00 0.00 326.00 347.20" xmlns="http://www.w3.org/2000/svg" xmlns:xlink="http://www.w3.org/1999/xlink">
<g id="graph0" class="graph" transform="scale(1 1) rotate(0) translate(4 343.2)">
<title>oneDegreeRelationshipsDiagram</title>
<polygon fill="#ffffff" stroke="transparent" points="-4,4 -4,-343.2 322,-343.2 322,4 -4,4"/>
<text text-anchor="middle" x="72.4936" y="-7.3" font-family="Helvetica,sans-Serif" font-size="11.00" fill="#000000">Generated by SchemaSpy</text>
<!-- report_asset -->
<g id="node1" class="node">
<title>report_asset</title>
<g id="a_node1"><a xlink:href="../../tables/report_asset.html" xlink:title="report_asset" target="_top">
<polygon fill="#ffffff" stroke="transparent" points="148,-172.7 148,-284.7 310,-284.7 310,-172.7 148,-172.7"/>
<polygon fill="#f5f5f5" stroke="transparent" points="150,-259.7 150,-282.7 308,-282.7 308,-259.7 150,-259.7"/>
<polygon fill="none" stroke="#000000" points="150,-259.7 150,-282.7 308,-282.7 308,-259.7 150,-259.7"/>
<text text-anchor="start" x="155" y="-268.8" font-family="Helvetica,sans-Serif" font-weight="bold" font-size="11.00" fill="#000000">report_asset</text>
<text text-anchor="start" x="273.0437" y="-267.8" font-family="Helvetica,sans-Serif" font-size="11.00" fill="#000000">[table]</text>
<polygon fill="none" stroke="#000000" points="150,-237.7 150,-259.7 243,-259.7 243,-237.7 150,-237.7"/>
<image xlink:href="../../images/primaryKeys.png" width="11px" height="12px" preserveAspectRatio="xMinYMin meet" x="155" y="-254.7"/>
<text text-anchor="start" x="170" y="-244.8" font-family="Helvetica,sans-Serif" font-size="11.00" fill="#000000">id</text>
<polygon fill="none" stroke="#000000" points="243,-237.7 243,-259.7 308,-259.7 308,-237.7 243,-237.7"/>
<text text-anchor="start" x="245.8561" y="-245.4" font-family="Helvetica,sans-Serif" font-size="11.00" fill="#000000">bigserial[19]</text>
<polygon fill="#ffffff" stroke="transparent" points="150,-215.7 150,-237.7 243,-237.7 243,-215.7 150,-215.7"/>
<polygon fill="none" stroke="#000000" points="150,-215.7 150,-237.7 243,-237.7 243,-215.7 150,-215.7"/>
<image xlink:href="../../images/foreignKeys.png" width="11px" height="12px" preserveAspectRatio="xMinYMin meet" x="155" y="-232.7"/>
<text text-anchor="start" x="170" y="-222.8" font-family="Helvetica,sans-Serif" font-size="11.00" fill="#000000">report_id</text>
<polygon fill="none" stroke="#000000" points="243,-215.7 243,-237.7 308,-237.7 308,-215.7 243,-215.7"/>
<text text-anchor="start" x="246" y="-223.4" font-family="Helvetica,sans-Serif" font-size="11.00" fill="#000000">int8[19]</text>
<polygon fill="#ffffff" stroke="transparent" points="150,-193.7 150,-215.7 243,-215.7 243,-193.7 150,-193.7"/>
<polygon fill="none" stroke="#000000" points="150,-193.7 150,-215.7 243,-215.7 243,-193.7 150,-193.7"/>
<image xlink:href="../../images/foreignKeys.png" width="11px" height="12px" preserveAspectRatio="xMinYMin meet" x="155" y="-210.7"/>
<text text-anchor="start" x="170" y="-200.8" font-family="Helvetica,sans-Serif" font-size="11.00" fill="#000000">asset_id</text>
<polygon fill="none" stroke="#000000" points="243,-193.7 243,-215.7 308,-215.7 308,-193.7 243,-193.7"/>
<text text-anchor="start" x="246" y="-201.4" font-family="Helvetica,sans-Serif" font-size="11.00" fill="#000000">int8[19]</text>
<polygon fill="#ffffff" stroke="transparent" points="150,-174.7 150,-193.7 201,-193.7 201,-174.7 150,-174.7"/>
<polygon fill="none" stroke="#000000" points="150,-174.7 150,-193.7 201,-193.7 201,-174.7 150,-174.7"/>
<text text-anchor="start" x="153" y="-180.8" font-family="Helvetica,sans-Serif" font-size="11.00" fill="#000000">&lt; 2</text>
<polygon fill="#ffffff" stroke="transparent" points="201,-174.7 201,-193.7 243,-193.7 243,-174.7 201,-174.7"/>
<polygon fill="none" stroke="#000000" points="201,-174.7 201,-193.7 243,-193.7 243,-174.7 201,-174.7"/>
<text text-anchor="start" x="233.8862" y="-180.8" font-family="Helvetica,sans-Serif" font-size="11.00" fill="#000000"> &#160;</text>
<polygon fill="#ffffff" stroke="transparent" points="243,-174.7 243,-193.7 308,-193.7 308,-174.7 243,-174.7"/>
<polygon fill="none" stroke="#000000" points="243,-174.7 243,-193.7 308,-193.7 308,-174.7 243,-174.7"/>
<text text-anchor="start" x="289.4053" y="-180.8" font-family="Helvetica,sans-Serif" font-size="11.00" fill="#000000">0 &gt;</text>
<polygon fill="none" stroke="#000000" stroke-width="2" points="149,-173.7 149,-283.7 309,-283.7 309,-173.7 149,-173.7"/>
</a>
</g>
</g>
<!-- asset -->
<g id="node2" class="node">
<title>asset</title>
<g id="a_node2"><a xlink:href="../../tables/asset.html" xlink:title="asset" target="_top">
<polygon fill="#ffffff" stroke="transparent" points="11,-38.2 11,-165.2 96,-165.2 96,-38.2 11,-38.2"/>
<polygon fill="#f5f5f5" stroke="transparent" points="11.5,-141.7 11.5,-164.7 96.5,-164.7 96.5,-141.7 11.5,-141.7"/>
<polygon fill="none" stroke="#000000" points="11.5,-141.7 11.5,-164.7 96.5,-164.7 96.5,-141.7 11.5,-141.7"/>
<text text-anchor="start" x="16.5" y="-150.8" font-family="Helvetica,sans-Serif" font-weight="bold" font-size="11.00" fill="#000000">asset</text>
<text text-anchor="start" x="61.5437" y="-149.8" font-family="Helvetica,sans-Serif" font-size="11.00" fill="#000000">[table]</text>
<polygon fill="none" stroke="#000000" points="11.5,-119.7 11.5,-141.7 96.5,-141.7 96.5,-119.7 11.5,-119.7"/>
<image xlink:href="../../images/primaryKeys.png" width="11px" height="12px" preserveAspectRatio="xMinYMin meet" x="16.5" y="-136.7"/>
<text text-anchor="start" x="31.5" y="-126.8" font-family="Helvetica,sans-Serif" font-size="11.00" fill="#000000">id</text>
<polygon fill="#ffffff" stroke="transparent" points="11.5,-97.7 11.5,-119.7 96.5,-119.7 96.5,-97.7 11.5,-97.7"/>
<polygon fill="none" stroke="#000000" points="11.5,-97.7 11.5,-119.7 96.5,-119.7 96.5,-97.7 11.5,-97.7"/>
<text text-anchor="start" x="31.5" y="-104.8" font-family="Helvetica,sans-Serif" font-size="11.00" fill="#000000">uuid</text>
<polygon fill="none" stroke="#000000" points="11.5,-75.7 11.5,-97.7 96.5,-97.7 96.5,-75.7 11.5,-75.7"/>
<image xlink:href="../../images/foreignKeys.png" width="11px" height="12px" preserveAspectRatio="xMinYMin meet" x="16.5" y="-92.7"/>
<text text-anchor="start" x="31.5" y="-82.8" font-family="Helvetica,sans-Serif" font-size="11.00" fill="#000000">author_id</text>
<polygon fill="none" stroke="#000000" points="11.5,-56.7 11.5,-75.7 96.5,-75.7 96.5,-56.7 11.5,-56.7"/>
<text text-anchor="start" x="14.5" y="-62.8" font-family="Helvetica,sans-Serif" font-size="11.00" fill="#000000">...</text>
<polygon fill="#ffffff" stroke="transparent" points="11.5,-37.7 11.5,-56.7 47.5,-56.7 47.5,-37.7 11.5,-37.7"/>
<polygon fill="none" stroke="#000000" points="11.5,-37.7 11.5,-56.7 47.5,-56.7 47.5,-37.7 11.5,-37.7"/>
<text text-anchor="start" x="14.5" y="-43.8" font-family="Helvetica,sans-Serif" font-size="11.00" fill="#000000">&lt; 1</text>
<polygon fill="#ffffff" stroke="transparent" points="47.5,-37.7 47.5,-56.7 67.5,-56.7 67.5,-37.7 47.5,-37.7"/>
<polygon fill="none" stroke="#000000" points="47.5,-37.7 47.5,-56.7 67.5,-56.7 67.5,-37.7 47.5,-37.7"/>
<text text-anchor="start" x="58.3862" y="-43.8" font-family="Helvetica,sans-Serif" font-size="11.00" fill="#000000"> &#160;</text>
<polygon fill="#ffffff" stroke="transparent" points="67.5,-37.7 67.5,-56.7 96.5,-56.7 96.5,-37.7 67.5,-37.7"/>
<polygon fill="none" stroke="#000000" points="67.5,-37.7 67.5,-56.7 96.5,-56.7 96.5,-37.7 67.5,-37.7"/>
<text text-anchor="start" x="77.9053" y="-43.8" font-family="Helvetica,sans-Serif" font-size="11.00" fill="#000000">9 &gt;</text>
</a>
</g>
</g>
<!-- report_asset&#45;&gt;asset -->
<g id="edge1" class="edge">
<title>report_asset:w&#45;&gt;asset:e</title>
<path fill="none" stroke="#000000" d="M135.9925,-200.2926C116.1261,-184.3617 131.0598,-130.7 96.5,-130.7"/>
<polygon fill="#000000" stroke="#000000" points="142.3688,-202.2988 148.9195,-208.134 146.1844,-203.4994 150,-204.7 150,-204.7 150,-204.7 146.1844,-203.4994 151.0805,-201.266 142.3688,-202.2988 142.3688,-202.2988"/>
<ellipse fill="none" stroke="#000000" cx="139.3164" cy="-201.3384" rx="3.2" ry="3.2"/>
</g>
<!-- report -->
<g id="node3" class="node">
<title>report</title>
<g id="a_node3"><a xlink:href="../../tables/report.html" xlink:title="report" target="_top">
<polygon fill="#ffffff" stroke="transparent" points="8,-186.2 8,-335.2 99,-335.2 99,-186.2 8,-186.2"/>
<polygon fill="#f5f5f5" stroke="transparent" points="8.5,-311.7 8.5,-334.7 99.5,-334.7 99.5,-311.7 8.5,-311.7"/>
<polygon fill="none" stroke="#000000" points="8.5,-311.7 8.5,-334.7 99.5,-334.7 99.5,-311.7 8.5,-311.7"/>
<text text-anchor="start" x="13.5" y="-320.8" font-family="Helvetica,sans-Serif" font-weight="bold" font-size="11.00" fill="#000000">report</text>
<text text-anchor="start" x="64.5437" y="-319.8" font-family="Helvetica,sans-Serif" font-size="11.00" fill="#000000">[table]</text>
<polygon fill="none" stroke="#000000" points="8.5,-289.7 8.5,-311.7 99.5,-311.7 99.5,-289.7 8.5,-289.7"/>
<image xlink:href="../../images/primaryKeys.png" width="11px" height="12px" preserveAspectRatio="xMinYMin meet" x="13.5" y="-306.7"/>
<text text-anchor="start" x="28.5" y="-296.8" font-family="Helvetica,sans-Serif" font-size="11.00" fill="#000000">id</text>
<polygon fill="none" stroke="#000000" points="8.5,-267.7 8.5,-289.7 99.5,-289.7 99.5,-267.7 8.5,-267.7"/>
<image xlink:href="../../images/foreignKeys.png" width="11px" height="12px" preserveAspectRatio="xMinYMin meet" x="13.5" y="-284.7"/>
<text text-anchor="start" x="28.5" y="-274.8" font-family="Helvetica,sans-Serif" font-size="11.00" fill="#000000">user_id</text>
<polygon fill="none" stroke="#000000" points="8.5,-245.7 8.5,-267.7 99.5,-267.7 99.5,-245.7 8.5,-245.7"/>
<image xlink:href="../../images/foreignKeys.png" width="11px" height="12px" preserveAspectRatio="xMinYMin meet" x="13.5" y="-262.7"/>
<text text-anchor="start" x="28.5" y="-252.8" font-family="Helvetica,sans-Serif" font-size="11.00" fill="#000000">article_id</text>
<polygon fill="none" stroke="#000000" points="8.5,-223.7 8.5,-245.7 99.5,-245.7 99.5,-223.7 8.5,-223.7"/>
<image xlink:href="../../images/foreignKeys.png" width="11px" height="12px" preserveAspectRatio="xMinYMin meet" x="13.5" y="-240.7"/>
<text text-anchor="start" x="28.5" y="-230.8" font-family="Helvetica,sans-Serif" font-size="11.00" fill="#000000">comment_id</text>
<polygon fill="none" stroke="#000000" points="8.5,-204.7 8.5,-223.7 99.5,-223.7 99.5,-204.7 8.5,-204.7"/>
<text text-anchor="start" x="11.5" y="-210.8" font-family="Helvetica,sans-Serif" font-size="11.00" fill="#000000">...</text>
<polygon fill="#ffffff" stroke="transparent" points="8.5,-185.7 8.5,-204.7 47.5,-204.7 47.5,-185.7 8.5,-185.7"/>
<polygon fill="none" stroke="#000000" points="8.5,-185.7 8.5,-204.7 47.5,-204.7 47.5,-185.7 8.5,-185.7"/>
<text text-anchor="start" x="11.5" y="-191.8" font-family="Helvetica,sans-Serif" font-size="11.00" fill="#000000">&lt; 3</text>
<polygon fill="#ffffff" stroke="transparent" points="47.5,-185.7 47.5,-204.7 68.5,-204.7 68.5,-185.7 47.5,-185.7"/>
<polygon fill="none" stroke="#000000" points="47.5,-185.7 47.5,-204.7 68.5,-204.7 68.5,-185.7 47.5,-185.7"/>
<text text-anchor="start" x="59.3862" y="-191.8" font-family="Helvetica,sans-Serif" font-size="11.00" fill="#000000"> &#160;</text>
<polygon fill="#ffffff" stroke="transparent" points="68.5,-185.7 68.5,-204.7 99.5,-204.7 99.5,-185.7 68.5,-185.7"/>
<polygon fill="none" stroke="#000000" points="68.5,-185.7 68.5,-204.7 99.5,-204.7 99.5,-185.7 68.5,-185.7"/>
<text text-anchor="start" x="80.9053" y="-191.8" font-family="Helvetica,sans-Serif" font-size="11.00" fill="#000000">1 &gt;</text>
</a>
</g>
</g>
<!-- report_asset&#45;&gt;report -->
<g id="edge2" class="edge">
<title>report_asset:w&#45;&gt;report:e</title>
<path fill="none" stroke="#000000" d="M136.1154,-231.329C117.4593,-247.5294 133.2515,-300.7 99.5,-300.7"/>
<polygon fill="#000000" stroke="#000000" points="142.4107,-229.2303 151.1386,-230.1152 146.2053,-227.9651 150,-226.7 150,-226.7 150,-226.7 146.2053,-227.9651 148.8614,-223.2848 142.4107,-229.2303 142.4107,-229.2303"/>
<ellipse fill="none" stroke="#000000" cx="139.3749" cy="-230.2424" rx="3.2" ry="3.2"/>
</g>
</g>
</svg>
