<?xml version="1.0" encoding="UTF-8" standalone="no"?>
<!DOCTYPE svg PUBLIC "-//W3C//DTD SVG 1.1//EN"
 "http://www.w3.org/Graphics/SVG/1.1/DTD/svg11.dtd">
<!-- Generated by graphviz version 2.40.1 (20161225.0304)
 -->
<!-- Title: twoDegreesRelationshipsDiagram Pages: 1 -->
<svg width="1045pt" height="540pt"
 viewBox="0.00 0.00 1044.57 539.78" xmlns="http://www.w3.org/2000/svg" xmlns:xlink="http://www.w3.org/1999/xlink">
<g id="graph0" class="graph" transform="scale(1 1) rotate(0) translate(4 535.7796)">
<title>twoDegreesRelationshipsDiagram</title>
<polygon fill="#ffffff" stroke="transparent" points="-4,4 -4,-535.7796 1040.5672,-535.7796 1040.5672,4 -4,4"/>
<text text-anchor="middle" x="72.4936" y="-7.3" font-family="Helvetica,sans-Serif" font-size="11.00" fill="#000000">Generated by SchemaSpy</text>
<!-- article -->
<g id="node1" class="node">
<title>article</title>
<g id="a_node1"><a xlink:href="../../tables/article.html" xlink:title="article" target="_top">
<polygon fill="#ffffff" stroke="transparent" points="468.5672,-139.7555 468.5672,-200.7555 540.5672,-200.7555 540.5672,-139.7555 468.5672,-139.7555"/>
<polygon fill="#f5f5f5" stroke="transparent" points="468.5672,-177.2555 468.5672,-200.2555 540.5672,-200.2555 540.5672,-177.2555 468.5672,-177.2555"/>
<polygon fill="none" stroke="#000000" points="468.5672,-177.2555 468.5672,-200.2555 540.5672,-200.2555 540.5672,-177.2555 468.5672,-177.2555"/>
<text text-anchor="start" x="473.402" y="-186.3555" font-family="Helvetica,sans-Serif" font-weight="bold" font-size="11.00" fill="#000000">article</text>
<text text-anchor="start" x="506.0891" y="-185.3555" font-family="Helvetica,sans-Serif" font-size="11.00" fill="#000000">[table]</text>
<polygon fill="none" stroke="#000000" points="468.5672,-158.2555 468.5672,-177.2555 540.5672,-177.2555 540.5672,-158.2555 468.5672,-158.2555"/>
<text text-anchor="start" x="471.5672" y="-164.3555" font-family="Helvetica,sans-Serif" font-size="11.00" fill="#000000">...</text>
<polygon fill="#ffffff" stroke="transparent" points="468.5672,-139.2555 468.5672,-158.2555 495.5672,-158.2555 495.5672,-139.2555 468.5672,-139.2555"/>
<polygon fill="none" stroke="#000000" points="468.5672,-139.2555 468.5672,-158.2555 495.5672,-158.2555 495.5672,-139.2555 468.5672,-139.2555"/>
<text text-anchor="start" x="471.5672" y="-145.3555" font-family="Helvetica,sans-Serif" font-size="11.00" fill="#000000">&lt; 4</text>
<polygon fill="#ffffff" stroke="transparent" points="495.5672,-139.2555 495.5672,-158.2555 510.5672,-158.2555 510.5672,-139.2555 495.5672,-139.2555"/>
<polygon fill="none" stroke="#000000" points="495.5672,-139.2555 495.5672,-158.2555 510.5672,-158.2555 510.5672,-139.2555 495.5672,-139.2555"/>
<text text-anchor="start" x="501.4534" y="-145.3555" font-family="Helvetica,sans-Serif" font-size="11.00" fill="#000000"> &#160;</text>
<polygon fill="#ffffff" stroke="transparent" points="510.5672,-139.2555 510.5672,-158.2555 540.5672,-158.2555 540.5672,-139.2555 510.5672,-139.2555"/>
<polygon fill="none" stroke="#000000" points="510.5672,-139.2555 510.5672,-158.2555 540.5672,-158.2555 540.5672,-139.2555 510.5672,-139.2555"/>
<text text-anchor="start" x="515.8576" y="-145.3555" font-family="Helvetica,sans-Serif" font-size="11.00" fill="#000000">14 &gt;</text>
</a>
</g>
</g>
<!-- user -->
<g id="node2" class="node">
<title>user</title>
<g id="a_node2"><a xlink:href="../../tables/user.html" xlink:title="user" target="_top">
<polygon fill="#ffffff" stroke="transparent" points="176.5672,-188.7555 176.5672,-249.7555 240.5672,-249.7555 240.5672,-188.7555 176.5672,-188.7555"/>
<polygon fill="#f5f5f5" stroke="transparent" points="176.5672,-226.2555 176.5672,-249.2555 240.5672,-249.2555 240.5672,-226.2555 176.5672,-226.2555"/>
<polygon fill="none" stroke="#000000" points="176.5672,-226.2555 176.5672,-249.2555 240.5672,-249.2555 240.5672,-226.2555 176.5672,-226.2555"/>
<text text-anchor="start" x="181.3714" y="-235.3555" font-family="Helvetica,sans-Serif" font-weight="bold" font-size="11.00" fill="#000000">user</text>
<text text-anchor="start" x="206.0891" y="-234.3555" font-family="Helvetica,sans-Serif" font-size="11.00" fill="#000000">[table]</text>
<polygon fill="none" stroke="#000000" points="176.5672,-207.2555 176.5672,-226.2555 240.5672,-226.2555 240.5672,-207.2555 176.5672,-207.2555"/>
<text text-anchor="start" x="179.5672" y="-213.3555" font-family="Helvetica,sans-Serif" font-size="11.00" fill="#000000">...</text>
<polygon fill="#ffffff" stroke="transparent" points="176.5672,-188.2555 176.5672,-207.2555 199.5672,-207.2555 199.5672,-188.2555 176.5672,-188.2555"/>
<polygon fill="none" stroke="#000000" points="176.5672,-188.2555 176.5672,-207.2555 199.5672,-207.2555 199.5672,-188.2555 176.5672,-188.2555"/>
<text text-anchor="start" x="179.5672" y="-194.3555" font-family="Helvetica,sans-Serif" font-size="11.00" fill="#000000">&lt; 1</text>
<polygon fill="#ffffff" stroke="transparent" points="199.5672,-188.2555 199.5672,-207.2555 212.5672,-207.2555 212.5672,-188.2555 199.5672,-188.2555"/>
<polygon fill="none" stroke="#000000" points="199.5672,-188.2555 199.5672,-207.2555 212.5672,-207.2555 212.5672,-188.2555 199.5672,-188.2555"/>
<text text-anchor="start" x="203.4534" y="-194.3555" font-family="Helvetica,sans-Serif" font-size="11.00" fill="#000000"> &#160;</text>
<polygon fill="#ffffff" stroke="transparent" points="212.5672,-188.2555 212.5672,-207.2555 240.5672,-207.2555 240.5672,-188.2555 212.5672,-188.2555"/>
<polygon fill="none" stroke="#000000" points="212.5672,-188.2555 212.5672,-207.2555 240.5672,-207.2555 240.5672,-188.2555 212.5672,-188.2555"/>
<text text-anchor="start" x="215.8576" y="-194.3555" font-family="Helvetica,sans-Serif" font-size="11.00" fill="#000000">42 &gt;</text>
</a>
</g>
</g>
<!-- article&#45;&gt;user -->
<g id="edge1" class="edge">
<title>article:w&#45;&gt;user:e</title>
<path fill="none" stroke="#000000" d="M454.9109,-171.9226C444.9733,-180.9042 445.4457,-200.3982 427.5672,-208.2555 351.4104,-241.7254 323.7543,-216.2555 240.5672,-216.2555"/>
<polygon fill="#000000" stroke="#000000" points="460.9971,-169.8427 469.7314,-170.6621 464.7821,-168.5491 468.5672,-167.2555 468.5672,-167.2555 468.5672,-167.2555 464.7821,-168.5491 467.403,-163.849 460.9971,-169.8427 460.9971,-169.8427"/>
<ellipse fill="none" stroke="#000000" cx="457.969" cy="-170.8775" rx="3.2" ry="3.2"/>
</g>
<!-- asset -->
<g id="node3" class="node">
<title>asset</title>
<g id="a_node3"><a xlink:href="../../tables/asset.html" xlink:title="asset" target="_top">
<polygon fill="#ffffff" stroke="transparent" points="14.5672,-186.7555 14.5672,-313.7555 99.5672,-313.7555 99.5672,-186.7555 14.5672,-186.7555"/>
<polygon fill="#f5f5f5" stroke="transparent" points="15.0672,-290.2555 15.0672,-313.2555 100.0672,-313.2555 100.0672,-290.2555 15.0672,-290.2555"/>
<polygon fill="none" stroke="#000000" points="15.0672,-290.2555 15.0672,-313.2555 100.0672,-313.2555 100.0672,-290.2555 15.0672,-290.2555"/>
<text text-anchor="start" x="20.0672" y="-299.3555" font-family="Helvetica,sans-Serif" font-weight="bold" font-size="11.00" fill="#000000">asset</text>
<text text-anchor="start" x="65.1109" y="-298.3555" font-family="Helvetica,sans-Serif" font-size="11.00" fill="#000000">[table]</text>
<polygon fill="none" stroke="#000000" points="15.0672,-268.2555 15.0672,-290.2555 100.0672,-290.2555 100.0672,-268.2555 15.0672,-268.2555"/>
<image xlink:href="../../images/primaryKeys.png" width="11px" height="12px" preserveAspectRatio="xMinYMin meet" x="20.0672" y="-285.256"/>
<text text-anchor="start" x="35.0672" y="-275.3555" font-family="Helvetica,sans-Serif" font-size="11.00" fill="#000000">id</text>
<polygon fill="#ffffff" stroke="transparent" points="15.0672,-246.2555 15.0672,-268.2555 100.0672,-268.2555 100.0672,-246.2555 15.0672,-246.2555"/>
<polygon fill="none" stroke="#000000" points="15.0672,-246.2555 15.0672,-268.2555 100.0672,-268.2555 100.0672,-246.2555 15.0672,-246.2555"/>
<text text-anchor="start" x="35.0672" y="-253.3555" font-family="Helvetica,sans-Serif" font-size="11.00" fill="#000000">uuid</text>
<polygon fill="none" stroke="#000000" points="15.0672,-224.2555 15.0672,-246.2555 100.0672,-246.2555 100.0672,-224.2555 15.0672,-224.2555"/>
<image xlink:href="../../images/foreignKeys.png" width="11px" height="12px" preserveAspectRatio="xMinYMin meet" x="20.0672" y="-241.256"/>
<text text-anchor="start" x="35.0672" y="-231.3555" font-family="Helvetica,sans-Serif" font-size="11.00" fill="#000000">author_id</text>
<polygon fill="none" stroke="#000000" points="15.0672,-205.2555 15.0672,-224.2555 100.0672,-224.2555 100.0672,-205.2555 15.0672,-205.2555"/>
<text text-anchor="start" x="18.0672" y="-211.3555" font-family="Helvetica,sans-Serif" font-size="11.00" fill="#000000">...</text>
<polygon fill="#ffffff" stroke="transparent" points="15.0672,-186.2555 15.0672,-205.2555 51.0672,-205.2555 51.0672,-186.2555 15.0672,-186.2555"/>
<polygon fill="none" stroke="#000000" points="15.0672,-186.2555 15.0672,-205.2555 51.0672,-205.2555 51.0672,-186.2555 15.0672,-186.2555"/>
<text text-anchor="start" x="18.0672" y="-192.3555" font-family="Helvetica,sans-Serif" font-size="11.00" fill="#000000">&lt; 1</text>
<polygon fill="#ffffff" stroke="transparent" points="51.0672,-186.2555 51.0672,-205.2555 71.0672,-205.2555 71.0672,-186.2555 51.0672,-186.2555"/>
<polygon fill="none" stroke="#000000" points="51.0672,-186.2555 51.0672,-205.2555 71.0672,-205.2555 71.0672,-186.2555 51.0672,-186.2555"/>
<text text-anchor="start" x="61.9534" y="-192.3555" font-family="Helvetica,sans-Serif" font-size="11.00" fill="#000000"> &#160;</text>
<polygon fill="#ffffff" stroke="transparent" points="71.0672,-186.2555 71.0672,-205.2555 100.0672,-205.2555 100.0672,-186.2555 71.0672,-186.2555"/>
<polygon fill="none" stroke="#000000" points="71.0672,-186.2555 71.0672,-205.2555 100.0672,-205.2555 100.0672,-186.2555 71.0672,-186.2555"/>
<text text-anchor="start" x="81.4725" y="-192.3555" font-family="Helvetica,sans-Serif" font-size="11.00" fill="#000000">9 &gt;</text>
</a>
</g>
</g>
<!-- article&#45;&gt;asset -->
<g id="edge2" class="edge">
<title>article:w&#45;&gt;asset:e</title>
<path fill="none" stroke="#000000" d="M454.7971,-172.1261C413.0805,-207.5091 473.1502,-424.8744 427.5672,-466.2555 333.1033,-552.0116 239.6138,-552.675 140.5672,-472.2555 72.5251,-417.0097 187.7132,-279.2555 100.0672,-279.2555"/>
<polygon fill="#000000" stroke="#000000" points="461.0251,-169.9233 469.7677,-170.6495 464.7961,-168.5894 468.5672,-167.2555 468.5672,-167.2555 468.5672,-167.2555 464.7961,-168.5894 467.3667,-163.8616 461.0251,-169.9233 461.0251,-169.9233"/>
<ellipse fill="none" stroke="#000000" cx="458.0082" cy="-170.9903" rx="3.2" ry="3.2"/>
</g>
<!-- draft -->
<g id="node4" class="node">
<title>draft</title>
<g id="a_node4"><a xlink:href="../../tables/draft.html" xlink:title="draft" target="_top">
<polygon fill="#ffffff" stroke="transparent" points="336.0672,-136.7555 336.0672,-197.7555 401.0672,-197.7555 401.0672,-136.7555 336.0672,-136.7555"/>
<polygon fill="#f5f5f5" stroke="transparent" points="336.5672,-174.2555 336.5672,-197.2555 401.5672,-197.2555 401.5672,-174.2555 336.5672,-174.2555"/>
<polygon fill="none" stroke="#000000" points="336.5672,-174.2555 336.5672,-197.2555 401.5672,-197.2555 401.5672,-174.2555 336.5672,-174.2555"/>
<text text-anchor="start" x="341.5645" y="-183.3555" font-family="Helvetica,sans-Serif" font-weight="bold" font-size="11.00" fill="#000000">draft</text>
<text text-anchor="start" x="367.0891" y="-182.3555" font-family="Helvetica,sans-Serif" font-size="11.00" fill="#000000">[table]</text>
<polygon fill="none" stroke="#000000" points="336.5672,-155.2555 336.5672,-174.2555 401.5672,-174.2555 401.5672,-155.2555 336.5672,-155.2555"/>
<text text-anchor="start" x="339.5672" y="-161.3555" font-family="Helvetica,sans-Serif" font-size="11.00" fill="#000000">...</text>
<polygon fill="#ffffff" stroke="transparent" points="336.5672,-136.2555 336.5672,-155.2555 362.5672,-155.2555 362.5672,-136.2555 336.5672,-136.2555"/>
<polygon fill="none" stroke="#000000" points="336.5672,-136.2555 336.5672,-155.2555 362.5672,-155.2555 362.5672,-136.2555 336.5672,-136.2555"/>
<text text-anchor="start" x="339.5672" y="-142.3555" font-family="Helvetica,sans-Serif" font-size="11.00" fill="#000000">&lt; 3</text>
<polygon fill="#ffffff" stroke="transparent" points="362.5672,-136.2555 362.5672,-155.2555 377.5672,-155.2555 377.5672,-136.2555 362.5672,-136.2555"/>
<polygon fill="none" stroke="#000000" points="362.5672,-136.2555 362.5672,-155.2555 377.5672,-155.2555 377.5672,-136.2555 362.5672,-136.2555"/>
<text text-anchor="start" x="368.4534" y="-142.3555" font-family="Helvetica,sans-Serif" font-size="11.00" fill="#000000"> &#160;</text>
<polygon fill="#ffffff" stroke="transparent" points="377.5672,-136.2555 377.5672,-155.2555 401.5672,-155.2555 401.5672,-136.2555 377.5672,-136.2555"/>
<polygon fill="none" stroke="#000000" points="377.5672,-136.2555 377.5672,-155.2555 401.5672,-155.2555 401.5672,-136.2555 377.5672,-136.2555"/>
<text text-anchor="start" x="382.9725" y="-142.3555" font-family="Helvetica,sans-Serif" font-size="11.00" fill="#000000">1 &gt;</text>
</a>
</g>
</g>
<!-- article&#45;&gt;draft -->
<g id="edge3" class="edge">
<title>article:w&#45;&gt;draft:e</title>
<path fill="none" stroke="#000000" d="M454.1396,-166.9893C435.2922,-166.2551 425.9023,-164.2555 401.5672,-164.2555"/>
<polygon fill="#000000" stroke="#000000" points="460.5686,-167.1079 468.5008,-170.8549 464.5679,-167.1817 468.5672,-167.2555 468.5672,-167.2555 468.5672,-167.2555 464.5679,-167.1817 468.6336,-163.6561 460.5686,-167.1079 460.5686,-167.1079"/>
<ellipse fill="none" stroke="#000000" cx="457.3691" cy="-167.0488" rx="3.2" ry="3.2"/>
</g>
<!-- user&#45;&gt;asset -->
<g id="edge22" class="edge">
<title>user:w&#45;&gt;asset:e</title>
<path fill="none" stroke="#000000" d="M162.0692,-219.1262C134.5855,-231.4509 138.4349,-279.2555 100.0672,-279.2555"/>
<polygon fill="#000000" stroke="#000000" points="168.7196,-217.8094 177.2665,-219.787 172.6434,-217.0325 176.5672,-216.2555 176.5672,-216.2555 176.5672,-216.2555 172.6434,-217.0325 175.8679,-212.7241 168.7196,-217.8094 168.7196,-217.8094"/>
<ellipse fill="none" stroke="#000000" cx="165.5805" cy="-218.431" rx="3.2" ry="3.2"/>
</g>
<!-- asset&#45;&gt;user -->
<g id="edge4" class="edge">
<title>asset:w&#45;&gt;user:e</title>
<path fill="none" stroke="#000000" d="M2.2741,-228.3151C-3.8061,-217.0257 3.0795,-194.7432 15.0672,-182.7555 23.926,-173.8967 231.7752,-175.8304 240.5672,-184.7555 250.392,-194.7292 254.5672,-216.2555 240.5672,-216.2555"/>
<polygon fill="#000000" stroke="#000000" points="8.0354,-231.4406 13.3505,-238.4199 11.5513,-233.3481 15.0672,-235.2555 15.0672,-235.2555 15.0672,-235.2555 11.5513,-233.3481 16.7839,-232.0912 8.0354,-231.4406 8.0354,-231.4406"/>
<ellipse fill="none" stroke="#000000" cx="5.2226" cy="-229.9147" rx="3.2" ry="3.2"/>
</g>
<!-- draft&#45;&gt;article -->
<g id="edge12" class="edge">
<title>draft:w&#45;&gt;article:e</title>
<path fill="none" stroke="#000000" d="M349.8648,-158.4779C370.795,-149.3842 409.0672,-132.7555 409.0672,-132.7555 438.2951,-133.0889 520.1357,-114.8525 540.5672,-135.7555 550.3532,-145.7673 554.5672,-167.2555 540.5672,-167.2555"/>
<polygon fill="#000000" stroke="#000000" points="343.9046,-161.0675 335.1326,-160.9537 340.2359,-162.6615 336.5672,-164.2555 336.5672,-164.2555 336.5672,-164.2555 340.2359,-162.6615 338.0018,-167.5573 343.9046,-161.0675 343.9046,-161.0675"/>
<ellipse fill="none" stroke="#000000" cx="346.8395" cy="-159.7923" rx="3.2" ry="3.2"/>
</g>
<!-- draft&#45;&gt;user -->
<g id="edge10" class="edge">
<title>draft:w&#45;&gt;user:e</title>
<path fill="none" stroke="#000000" d="M321.8409,-166.1062C287.6446,-175.3695 283.5942,-216.2555 240.5672,-216.2555"/>
<polygon fill="#000000" stroke="#000000" points="328.6296,-165.2531 337.0161,-167.8274 332.5984,-164.7543 336.5672,-164.2555 336.5672,-164.2555 336.5672,-164.2555 332.5984,-164.7543 336.1183,-160.6836 328.6296,-165.2531 328.6296,-165.2531"/>
<ellipse fill="none" stroke="#000000" cx="325.4546" cy="-165.6522" rx="3.2" ry="3.2"/>
</g>
<!-- draft&#45;&gt;asset -->
<g id="edge11" class="edge">
<title>draft:w&#45;&gt;asset:e</title>
<path fill="none" stroke="#000000" d="M321.7062,-163.895C244.6558,-160.169 206.9819,-129.7938 140.5672,-178.2555 101.4989,-206.7631 148.4305,-279.2555 100.0672,-279.2555"/>
<polygon fill="#000000" stroke="#000000" points="328.5696,-164.0614 336.4799,-167.8545 332.5684,-164.1585 336.5672,-164.2555 336.5672,-164.2555 336.5672,-164.2555 332.5684,-164.1585 336.6545,-160.6566 328.5696,-164.0614 328.5696,-164.0614"/>
<ellipse fill="none" stroke="#000000" cx="325.3705" cy="-163.9838" rx="3.2" ry="3.2"/>
</g>
<!-- asset_map -->
<g id="node5" class="node">
<title>asset_map</title>
<g id="a_node5"><a xlink:href="../../tables/asset_map.html" xlink:title="asset_map" target="_top">
<polygon fill="#ffffff" stroke="transparent" points="160.5672,-380.7555 160.5672,-441.7555 256.5672,-441.7555 256.5672,-380.7555 160.5672,-380.7555"/>
<polygon fill="#f5f5f5" stroke="transparent" points="160.5672,-418.2555 160.5672,-441.2555 256.5672,-441.2555 256.5672,-418.2555 160.5672,-418.2555"/>
<polygon fill="none" stroke="#000000" points="160.5672,-418.2555 160.5672,-441.2555 256.5672,-441.2555 256.5672,-418.2555 160.5672,-418.2555"/>
<text text-anchor="start" x="165.1706" y="-427.3555" font-family="Helvetica,sans-Serif" font-weight="bold" font-size="11.00" fill="#000000">asset_map</text>
<text text-anchor="start" x="222.0891" y="-426.3555" font-family="Helvetica,sans-Serif" font-size="11.00" fill="#000000">[table]</text>
<polygon fill="none" stroke="#000000" points="160.5672,-399.2555 160.5672,-418.2555 256.5672,-418.2555 256.5672,-399.2555 160.5672,-399.2555"/>
<text text-anchor="start" x="163.5672" y="-405.3555" font-family="Helvetica,sans-Serif" font-size="11.00" fill="#000000">...</text>
<polygon fill="#ffffff" stroke="transparent" points="160.5672,-380.2555 160.5672,-399.2555 206.5672,-399.2555 206.5672,-380.2555 160.5672,-380.2555"/>
<polygon fill="none" stroke="#000000" points="160.5672,-380.2555 160.5672,-399.2555 206.5672,-399.2555 206.5672,-380.2555 160.5672,-380.2555"/>
<text text-anchor="start" x="163.5672" y="-386.3555" font-family="Helvetica,sans-Serif" font-size="11.00" fill="#000000">&lt; 2</text>
<polygon fill="#ffffff" stroke="transparent" points="206.5672,-380.2555 206.5672,-399.2555 231.5672,-399.2555 231.5672,-380.2555 206.5672,-380.2555"/>
<polygon fill="none" stroke="#000000" points="206.5672,-380.2555 206.5672,-399.2555 231.5672,-399.2555 231.5672,-380.2555 206.5672,-380.2555"/>
<text text-anchor="start" x="222.4534" y="-386.3555" font-family="Helvetica,sans-Serif" font-size="11.00" fill="#000000"> &#160;</text>
<polygon fill="#ffffff" stroke="transparent" points="231.5672,-380.2555 231.5672,-399.2555 256.5672,-399.2555 256.5672,-380.2555 231.5672,-380.2555"/>
<polygon fill="none" stroke="#000000" points="231.5672,-380.2555 231.5672,-399.2555 256.5672,-399.2555 256.5672,-380.2555 231.5672,-380.2555"/>
<text text-anchor="start" x="247.4534" y="-386.3555" font-family="Helvetica,sans-Serif" font-size="11.00" fill="#000000"> &#160;</text>
</a>
</g>
</g>
<!-- asset_map&#45;&gt;asset -->
<g id="edge5" class="edge">
<title>asset_map:w&#45;&gt;asset:e</title>
<path fill="none" stroke="#000000" d="M146.4466,-405.3188C108.0831,-386.1171 157.7033,-279.2555 100.0672,-279.2555"/>
<polygon fill="#000000" stroke="#000000" points="152.7348,-406.6265 159.8342,-411.7801 156.651,-407.441 160.5672,-408.2555 160.5672,-408.2555 160.5672,-408.2555 156.651,-407.441 161.3002,-404.7309 152.7348,-406.6265 152.7348,-406.6265"/>
<ellipse fill="none" stroke="#000000" cx="149.6018" cy="-405.975" rx="3.2" ry="3.2"/>
</g>
<!-- audio_draft -->
<g id="node6" class="node">
<title>audio_draft</title>
<g id="a_node6"><a xlink:href="../../tables/audio_draft.html" xlink:title="audio_draft" target="_top">
<polygon fill="#ffffff" stroke="transparent" points="319.5672,-394.7555 319.5672,-455.7555 417.5672,-455.7555 417.5672,-394.7555 319.5672,-394.7555"/>
<polygon fill="#f5f5f5" stroke="transparent" points="319.5672,-432.2555 319.5672,-455.2555 417.5672,-455.2555 417.5672,-432.2555 319.5672,-432.2555"/>
<polygon fill="none" stroke="#000000" points="319.5672,-432.2555 319.5672,-455.2555 417.5672,-455.2555 417.5672,-432.2555 319.5672,-432.2555"/>
<text text-anchor="start" x="324.5568" y="-441.3555" font-family="Helvetica,sans-Serif" font-weight="bold" font-size="11.00" fill="#000000">audio_draft</text>
<text text-anchor="start" x="383.0891" y="-440.3555" font-family="Helvetica,sans-Serif" font-size="11.00" fill="#000000">[table]</text>
<polygon fill="none" stroke="#000000" points="319.5672,-413.2555 319.5672,-432.2555 417.5672,-432.2555 417.5672,-413.2555 319.5672,-413.2555"/>
<text text-anchor="start" x="322.5672" y="-419.3555" font-family="Helvetica,sans-Serif" font-size="11.00" fill="#000000">...</text>
<polygon fill="#ffffff" stroke="transparent" points="319.5672,-394.2555 319.5672,-413.2555 366.5672,-413.2555 366.5672,-394.2555 319.5672,-394.2555"/>
<polygon fill="none" stroke="#000000" points="319.5672,-394.2555 319.5672,-413.2555 366.5672,-413.2555 366.5672,-394.2555 319.5672,-394.2555"/>
<text text-anchor="start" x="322.5672" y="-400.3555" font-family="Helvetica,sans-Serif" font-size="11.00" fill="#000000">&lt; 2</text>
<polygon fill="#ffffff" stroke="transparent" points="366.5672,-394.2555 366.5672,-413.2555 391.5672,-413.2555 391.5672,-394.2555 366.5672,-394.2555"/>
<polygon fill="none" stroke="#000000" points="366.5672,-394.2555 366.5672,-413.2555 391.5672,-413.2555 391.5672,-394.2555 366.5672,-394.2555"/>
<text text-anchor="start" x="382.4534" y="-400.3555" font-family="Helvetica,sans-Serif" font-size="11.00" fill="#000000"> &#160;</text>
<polygon fill="#ffffff" stroke="transparent" points="391.5672,-394.2555 391.5672,-413.2555 417.5672,-413.2555 417.5672,-394.2555 391.5672,-394.2555"/>
<polygon fill="none" stroke="#000000" points="391.5672,-394.2555 391.5672,-413.2555 417.5672,-413.2555 417.5672,-394.2555 391.5672,-394.2555"/>
<text text-anchor="start" x="408.4534" y="-400.3555" font-family="Helvetica,sans-Serif" font-size="11.00" fill="#000000"> &#160;</text>
</a>
</g>
</g>
<!-- audio_draft&#45;&gt;user -->
<g id="edge7" class="edge">
<title>audio_draft:w&#45;&gt;user:e</title>
<path fill="none" stroke="#000000" d="M304.8979,-420.3478C234.0866,-399.5805 333.0704,-216.2555 240.5672,-216.2555"/>
<polygon fill="#000000" stroke="#000000" points="311.634,-421.2238 319.1029,-425.8255 315.6006,-421.7396 319.5672,-422.2555 319.5672,-422.2555 319.5672,-422.2555 315.6006,-421.7396 320.0315,-418.6856 311.634,-421.2238 311.634,-421.2238"/>
<ellipse fill="none" stroke="#000000" cx="308.4607" cy="-420.811" rx="3.2" ry="3.2"/>
</g>
<!-- audio_draft&#45;&gt;asset -->
<g id="edge6" class="edge">
<title>audio_draft:w&#45;&gt;asset:e</title>
<path fill="none" stroke="#000000" d="M305.5182,-426.3948C295.8629,-433.3499 292.8924,-447.1235 276.5672,-452.2555 218.9049,-470.3825 187.9292,-489.8104 140.5672,-452.2555 78.691,-403.1919 179.0349,-279.2555 100.0672,-279.2555"/>
<polygon fill="#000000" stroke="#000000" points="311.8933,-424.5165 320.5847,-425.7088 315.7303,-423.386 319.5672,-422.2555 319.5672,-422.2555 319.5672,-422.2555 315.7303,-423.386 318.5497,-418.8023 311.8933,-424.5165 311.8933,-424.5165"/>
<ellipse fill="none" stroke="#000000" cx="308.8238" cy="-425.4209" rx="3.2" ry="3.2"/>
</g>
<!-- comment -->
<g id="node7" class="node">
<title>comment</title>
<g id="a_node7"><a xlink:href="../../tables/comment.html" xlink:title="comment" target="_top">
<polygon fill="#ffffff" stroke="transparent" points="589.5672,-84.7555 589.5672,-145.7555 677.5672,-145.7555 677.5672,-84.7555 589.5672,-84.7555"/>
<polygon fill="#f5f5f5" stroke="transparent" points="589.5672,-122.2555 589.5672,-145.2555 677.5672,-145.2555 677.5672,-122.2555 589.5672,-122.2555"/>
<polygon fill="none" stroke="#000000" points="589.5672,-122.2555 589.5672,-145.2555 677.5672,-145.2555 677.5672,-122.2555 589.5672,-122.2555"/>
<text text-anchor="start" x="594.4545" y="-131.3555" font-family="Helvetica,sans-Serif" font-weight="bold" font-size="11.00" fill="#000000">comment</text>
<text text-anchor="start" x="643.0891" y="-130.3555" font-family="Helvetica,sans-Serif" font-size="11.00" fill="#000000">[table]</text>
<polygon fill="none" stroke="#000000" points="589.5672,-103.2555 589.5672,-122.2555 677.5672,-122.2555 677.5672,-103.2555 589.5672,-103.2555"/>
<text text-anchor="start" x="592.5672" y="-109.3555" font-family="Helvetica,sans-Serif" font-size="11.00" fill="#000000">...</text>
<polygon fill="#ffffff" stroke="transparent" points="589.5672,-84.2555 589.5672,-103.2555 627.5672,-103.2555 627.5672,-84.2555 589.5672,-84.2555"/>
<polygon fill="none" stroke="#000000" points="589.5672,-84.2555 589.5672,-103.2555 627.5672,-103.2555 627.5672,-84.2555 589.5672,-84.2555"/>
<text text-anchor="start" x="592.5672" y="-90.3555" font-family="Helvetica,sans-Serif" font-size="11.00" fill="#000000">&lt; 4</text>
<polygon fill="#ffffff" stroke="transparent" points="627.5672,-84.2555 627.5672,-103.2555 647.5672,-103.2555 647.5672,-84.2555 627.5672,-84.2555"/>
<polygon fill="none" stroke="#000000" points="627.5672,-84.2555 627.5672,-103.2555 647.5672,-103.2555 647.5672,-84.2555 627.5672,-84.2555"/>
<text text-anchor="start" x="638.4534" y="-90.3555" font-family="Helvetica,sans-Serif" font-size="11.00" fill="#000000"> &#160;</text>
<polygon fill="#ffffff" stroke="transparent" points="647.5672,-84.2555 647.5672,-103.2555 677.5672,-103.2555 677.5672,-84.2555 647.5672,-84.2555"/>
<polygon fill="none" stroke="#000000" points="647.5672,-84.2555 647.5672,-103.2555 677.5672,-103.2555 677.5672,-84.2555 647.5672,-84.2555"/>
<text text-anchor="start" x="658.9725" y="-90.3555" font-family="Helvetica,sans-Serif" font-size="11.00" fill="#000000">5 &gt;</text>
</a>
</g>
</g>
<!-- comment&#45;&gt;article -->
<g id="edge8" class="edge">
<title>comment:w&#45;&gt;article:e</title>
<path fill="none" stroke="#000000" d="M575.6937,-117.3312C561.2774,-130.9469 567.1671,-167.2555 540.5672,-167.2555"/>
<polygon fill="#000000" stroke="#000000" points="582.0542,-115.0042 590.8041,-115.6364 585.8107,-113.6299 589.5672,-112.2555 589.5672,-112.2555 589.5672,-112.2555 585.8107,-113.6299 588.3303,-108.8747 582.0542,-115.0042 582.0542,-115.0042"/>
<ellipse fill="none" stroke="#000000" cx="579.049" cy="-116.1037" rx="3.2" ry="3.2"/>
</g>
<!-- comment&#45;&gt;user -->
<g id="edge9" class="edge">
<title>comment:w&#45;&gt;user:e</title>
<path fill="none" stroke="#000000" d="M574.9738,-112.0537C461.2533,-108.9028 415.4767,-70.668 309.5672,-126.2555 264.938,-149.6795 290.97,-216.2555 240.5672,-216.2555"/>
<polygon fill="#000000" stroke="#000000" points="581.568,-112.1449 589.5174,-115.8552 585.5676,-112.2002 589.5672,-112.2555 589.5672,-112.2555 589.5672,-112.2555 585.5676,-112.2002 589.617,-108.6559 581.568,-112.1449 581.568,-112.1449"/>
<ellipse fill="none" stroke="#000000" cx="578.3683" cy="-112.1006" rx="3.2" ry="3.2"/>
</g>
<!-- feedback_asset -->
<g id="node8" class="node">
<title>feedback_asset</title>
<g id="a_node8"><a xlink:href="../../tables/feedback_asset.html" xlink:title="feedback_asset" target="_top">
<polygon fill="#ffffff" stroke="transparent" points="148.5672,-270.7555 148.5672,-331.7555 268.5672,-331.7555 268.5672,-270.7555 148.5672,-270.7555"/>
<polygon fill="#f5f5f5" stroke="transparent" points="148.5672,-308.2555 148.5672,-331.2555 268.5672,-331.2555 268.5672,-308.2555 148.5672,-308.2555"/>
<polygon fill="none" stroke="#000000" points="148.5672,-308.2555 148.5672,-331.2555 268.5672,-331.2555 268.5672,-308.2555 148.5672,-308.2555"/>
<text text-anchor="start" x="153.5507" y="-317.3555" font-family="Helvetica,sans-Serif" font-weight="bold" font-size="11.00" fill="#000000">feedback_asset</text>
<text text-anchor="start" x="234.0891" y="-316.3555" font-family="Helvetica,sans-Serif" font-size="11.00" fill="#000000">[table]</text>
<polygon fill="none" stroke="#000000" points="148.5672,-289.2555 148.5672,-308.2555 268.5672,-308.2555 268.5672,-289.2555 148.5672,-289.2555"/>
<text text-anchor="start" x="151.5672" y="-295.3555" font-family="Helvetica,sans-Serif" font-size="11.00" fill="#000000">...</text>
<polygon fill="#ffffff" stroke="transparent" points="148.5672,-270.2555 148.5672,-289.2555 206.5672,-289.2555 206.5672,-270.2555 148.5672,-270.2555"/>
<polygon fill="none" stroke="#000000" points="148.5672,-270.2555 148.5672,-289.2555 206.5672,-289.2555 206.5672,-270.2555 148.5672,-270.2555"/>
<text text-anchor="start" x="151.5672" y="-276.3555" font-family="Helvetica,sans-Serif" font-size="11.00" fill="#000000">&lt; 2</text>
<polygon fill="#ffffff" stroke="transparent" points="206.5672,-270.2555 206.5672,-289.2555 237.5672,-289.2555 237.5672,-270.2555 206.5672,-270.2555"/>
<polygon fill="none" stroke="#000000" points="206.5672,-270.2555 206.5672,-289.2555 237.5672,-289.2555 237.5672,-270.2555 206.5672,-270.2555"/>
<text text-anchor="start" x="228.4534" y="-276.3555" font-family="Helvetica,sans-Serif" font-size="11.00" fill="#000000"> &#160;</text>
<polygon fill="#ffffff" stroke="transparent" points="237.5672,-270.2555 237.5672,-289.2555 268.5672,-289.2555 268.5672,-270.2555 237.5672,-270.2555"/>
<polygon fill="none" stroke="#000000" points="237.5672,-270.2555 237.5672,-289.2555 268.5672,-289.2555 268.5672,-270.2555 237.5672,-270.2555"/>
<text text-anchor="start" x="259.4534" y="-276.3555" font-family="Helvetica,sans-Serif" font-size="11.00" fill="#000000"> &#160;</text>
</a>
</g>
</g>
<!-- feedback_asset&#45;&gt;asset -->
<g id="edge13" class="edge">
<title>feedback_asset:w&#45;&gt;asset:e</title>
<path fill="none" stroke="#000000" d="M134.1214,-295.1181C122.8902,-289.7215 117.2493,-279.2555 100.0672,-279.2555"/>
<polygon fill="#000000" stroke="#000000" points="140.7495,-296.5576 147.8031,-301.7735 144.6583,-297.4065 148.5672,-298.2555 148.5672,-298.2555 148.5672,-298.2555 144.6583,-297.4065 149.3313,-294.7375 140.7495,-296.5576 140.7495,-296.5576"/>
<ellipse fill="none" stroke="#000000" cx="137.6224" cy="-295.8784" rx="3.2" ry="3.2"/>
</g>
<!-- oauth_client -->
<g id="node9" class="node">
<title>oauth_client</title>
<g id="a_node9"><a xlink:href="../../tables/oauth_client.html" xlink:title="oauth_client" target="_top">
<polygon fill="#ffffff" stroke="transparent" points="317.5672,-286.7555 317.5672,-347.7555 419.5672,-347.7555 419.5672,-286.7555 317.5672,-286.7555"/>
<polygon fill="#f5f5f5" stroke="transparent" points="317.5672,-324.2555 317.5672,-347.2555 419.5672,-347.2555 419.5672,-324.2555 317.5672,-324.2555"/>
<polygon fill="none" stroke="#000000" points="317.5672,-324.2555 317.5672,-347.2555 419.5672,-347.2555 419.5672,-324.2555 317.5672,-324.2555"/>
<text text-anchor="start" x="322.4173" y="-333.3555" font-family="Helvetica,sans-Serif" font-weight="bold" font-size="11.00" fill="#000000">oauth_client</text>
<text text-anchor="start" x="385.0891" y="-332.3555" font-family="Helvetica,sans-Serif" font-size="11.00" fill="#000000">[table]</text>
<polygon fill="none" stroke="#000000" points="317.5672,-305.2555 317.5672,-324.2555 419.5672,-324.2555 419.5672,-305.2555 317.5672,-305.2555"/>
<text text-anchor="start" x="320.5672" y="-311.3555" font-family="Helvetica,sans-Serif" font-size="11.00" fill="#000000">...</text>
<polygon fill="#ffffff" stroke="transparent" points="317.5672,-286.2555 317.5672,-305.2555 362.5672,-305.2555 362.5672,-286.2555 317.5672,-286.2555"/>
<polygon fill="none" stroke="#000000" points="317.5672,-286.2555 317.5672,-305.2555 362.5672,-305.2555 362.5672,-286.2555 317.5672,-286.2555"/>
<text text-anchor="start" x="320.5672" y="-292.3555" font-family="Helvetica,sans-Serif" font-size="11.00" fill="#000000">&lt; 2</text>
<polygon fill="#ffffff" stroke="transparent" points="362.5672,-286.2555 362.5672,-305.2555 386.5672,-305.2555 386.5672,-286.2555 362.5672,-286.2555"/>
<polygon fill="none" stroke="#000000" points="362.5672,-286.2555 362.5672,-305.2555 386.5672,-305.2555 386.5672,-286.2555 362.5672,-286.2555"/>
<text text-anchor="start" x="377.4534" y="-292.3555" font-family="Helvetica,sans-Serif" font-size="11.00" fill="#000000"> &#160;</text>
<polygon fill="#ffffff" stroke="transparent" points="386.5672,-286.2555 386.5672,-305.2555 419.5672,-305.2555 419.5672,-286.2555 386.5672,-286.2555"/>
<polygon fill="none" stroke="#000000" points="386.5672,-286.2555 386.5672,-305.2555 419.5672,-305.2555 419.5672,-286.2555 386.5672,-286.2555"/>
<text text-anchor="start" x="400.9725" y="-292.3555" font-family="Helvetica,sans-Serif" font-size="11.00" fill="#000000">3 &gt;</text>
</a>
</g>
</g>
<!-- oauth_client&#45;&gt;user -->
<g id="edge15" class="edge">
<title>oauth_client:w&#45;&gt;user:e</title>
<path fill="none" stroke="#000000" d="M303.2627,-311.4283C268.1179,-295.3601 290.3332,-216.2555 240.5672,-216.2555"/>
<polygon fill="#000000" stroke="#000000" points="309.719,-312.7043 316.8691,-317.7872 313.6431,-313.4799 317.5672,-314.2555 317.5672,-314.2555 317.5672,-314.2555 313.6431,-313.4799 318.2653,-310.7238 309.719,-312.7043 309.719,-312.7043"/>
<ellipse fill="none" stroke="#000000" cx="306.5798" cy="-312.0838" rx="3.2" ry="3.2"/>
</g>
<!-- oauth_client&#45;&gt;asset -->
<g id="edge14" class="edge">
<title>oauth_client:w&#45;&gt;asset:e</title>
<path fill="none" stroke="#000000" d="M303.6398,-318.5435C294.8724,-325.1578 291.7208,-337.5748 276.5672,-342.2555 218.8151,-360.0943 193.62,-371.2198 140.5672,-342.2555 111.3511,-326.305 133.3538,-279.2555 100.0672,-279.2555"/>
<polygon fill="#000000" stroke="#000000" points="309.9214,-316.6095 318.6265,-317.6962 313.7443,-315.4325 317.5672,-314.2555 317.5672,-314.2555 317.5672,-314.2555 313.7443,-315.4325 316.5079,-310.8149 309.9214,-316.6095 309.9214,-316.6095"/>
<ellipse fill="none" stroke="#000000" cx="306.863" cy="-317.5511" rx="3.2" ry="3.2"/>
</g>
<!-- release -->
<g id="node10" class="node">
<title>release</title>
<g id="a_node10"><a xlink:href="../../tables/release.html" xlink:title="release" target="_top">
<polygon fill="#ffffff" stroke="transparent" points="169.0672,-78.7555 169.0672,-139.7555 248.0672,-139.7555 248.0672,-78.7555 169.0672,-78.7555"/>
<polygon fill="#f5f5f5" stroke="transparent" points="169.5672,-116.2555 169.5672,-139.2555 248.5672,-139.2555 248.5672,-116.2555 169.5672,-116.2555"/>
<polygon fill="none" stroke="#000000" points="169.5672,-116.2555 169.5672,-139.2555 248.5672,-139.2555 248.5672,-116.2555 169.5672,-116.2555"/>
<text text-anchor="start" x="174.536" y="-125.3555" font-family="Helvetica,sans-Serif" font-weight="bold" font-size="11.00" fill="#000000">release</text>
<text text-anchor="start" x="214.0891" y="-124.3555" font-family="Helvetica,sans-Serif" font-size="11.00" fill="#000000">[table]</text>
<polygon fill="none" stroke="#000000" points="169.5672,-97.2555 169.5672,-116.2555 248.5672,-116.2555 248.5672,-97.2555 169.5672,-97.2555"/>
<text text-anchor="start" x="172.5672" y="-103.3555" font-family="Helvetica,sans-Serif" font-size="11.00" fill="#000000">...</text>
<polygon fill="#ffffff" stroke="transparent" points="169.5672,-78.2555 169.5672,-97.2555 207.5672,-97.2555 207.5672,-78.2555 169.5672,-78.2555"/>
<polygon fill="none" stroke="#000000" points="169.5672,-78.2555 169.5672,-97.2555 207.5672,-97.2555 207.5672,-78.2555 169.5672,-78.2555"/>
<text text-anchor="start" x="172.5672" y="-84.3555" font-family="Helvetica,sans-Serif" font-size="11.00" fill="#000000">&lt; 1</text>
<polygon fill="#ffffff" stroke="transparent" points="207.5672,-78.2555 207.5672,-97.2555 227.5672,-97.2555 227.5672,-78.2555 207.5672,-78.2555"/>
<polygon fill="none" stroke="#000000" points="207.5672,-78.2555 207.5672,-97.2555 227.5672,-97.2555 227.5672,-78.2555 207.5672,-78.2555"/>
<text text-anchor="start" x="218.4534" y="-84.3555" font-family="Helvetica,sans-Serif" font-size="11.00" fill="#000000"> &#160;</text>
<polygon fill="#ffffff" stroke="transparent" points="227.5672,-78.2555 227.5672,-97.2555 248.5672,-97.2555 248.5672,-78.2555 227.5672,-78.2555"/>
<polygon fill="none" stroke="#000000" points="227.5672,-78.2555 227.5672,-97.2555 248.5672,-97.2555 248.5672,-78.2555 227.5672,-78.2555"/>
<text text-anchor="start" x="239.4534" y="-84.3555" font-family="Helvetica,sans-Serif" font-size="11.00" fill="#000000"> &#160;</text>
</a>
</g>
</g>
<!-- release&#45;&gt;asset -->
<g id="edge16" class="edge">
<title>release:w&#45;&gt;asset:e</title>
<path fill="none" stroke="#000000" d="M155.3239,-108.4429C98.6956,-128.4692 177.4262,-279.2555 100.0672,-279.2555"/>
<polygon fill="#000000" stroke="#000000" points="161.6599,-107.4699 170.1137,-109.8138 165.6135,-106.8627 169.5672,-106.2555 169.5672,-106.2555 169.5672,-106.2555 165.6135,-106.8627 169.0207,-102.6972 161.6599,-107.4699 161.6599,-107.4699"/>
<ellipse fill="none" stroke="#000000" cx="158.497" cy="-107.9557" rx="3.2" ry="3.2"/>
</g>
<!-- report -->
<g id="node11" class="node">
<title>report</title>
<g id="a_node11"><a xlink:href="../../tables/report.html" xlink:title="report" target="_top">
<polygon fill="#ffffff" stroke="transparent" points="726.5672,-88.7555 726.5672,-237.7555 817.5672,-237.7555 817.5672,-88.7555 726.5672,-88.7555"/>
<polygon fill="#f5f5f5" stroke="transparent" points="727.0672,-214.2555 727.0672,-237.2555 818.0672,-237.2555 818.0672,-214.2555 727.0672,-214.2555"/>
<polygon fill="none" stroke="#000000" points="727.0672,-214.2555 727.0672,-237.2555 818.0672,-237.2555 818.0672,-214.2555 727.0672,-214.2555"/>
<text text-anchor="start" x="732.0672" y="-223.3555" font-family="Helvetica,sans-Serif" font-weight="bold" font-size="11.00" fill="#000000">report</text>
<text text-anchor="start" x="783.1109" y="-222.3555" font-family="Helvetica,sans-Serif" font-size="11.00" fill="#000000">[table]</text>
<polygon fill="none" stroke="#000000" points="727.0672,-192.2555 727.0672,-214.2555 818.0672,-214.2555 818.0672,-192.2555 727.0672,-192.2555"/>
<image xlink:href="../../images/primaryKeys.png" width="11px" height="12px" preserveAspectRatio="xMinYMin meet" x="732.067" y="-209.256"/>
<text text-anchor="start" x="747.0672" y="-199.3555" font-family="Helvetica,sans-Serif" font-size="11.00" fill="#000000">id</text>
<polygon fill="none" stroke="#000000" points="727.0672,-170.2555 727.0672,-192.2555 818.0672,-192.2555 818.0672,-170.2555 727.0672,-170.2555"/>
<image xlink:href="../../images/foreignKeys.png" width="11px" height="12px" preserveAspectRatio="xMinYMin meet" x="732.067" y="-187.256"/>
<text text-anchor="start" x="747.0672" y="-177.3555" font-family="Helvetica,sans-Serif" font-size="11.00" fill="#000000">user_id</text>
<polygon fill="none" stroke="#000000" points="727.0672,-148.2555 727.0672,-170.2555 818.0672,-170.2555 818.0672,-148.2555 727.0672,-148.2555"/>
<image xlink:href="../../images/foreignKeys.png" width="11px" height="12px" preserveAspectRatio="xMinYMin meet" x="732.067" y="-165.256"/>
<text text-anchor="start" x="747.0672" y="-155.3555" font-family="Helvetica,sans-Serif" font-size="11.00" fill="#000000">article_id</text>
<polygon fill="none" stroke="#000000" points="727.0672,-126.2555 727.0672,-148.2555 818.0672,-148.2555 818.0672,-126.2555 727.0672,-126.2555"/>
<image xlink:href="../../images/foreignKeys.png" width="11px" height="12px" preserveAspectRatio="xMinYMin meet" x="732.067" y="-143.256"/>
<text text-anchor="start" x="747.0672" y="-133.3555" font-family="Helvetica,sans-Serif" font-size="11.00" fill="#000000">comment_id</text>
<polygon fill="none" stroke="#000000" points="727.0672,-107.2555 727.0672,-126.2555 818.0672,-126.2555 818.0672,-107.2555 727.0672,-107.2555"/>
<text text-anchor="start" x="730.0672" y="-113.3555" font-family="Helvetica,sans-Serif" font-size="11.00" fill="#000000">...</text>
<polygon fill="#ffffff" stroke="transparent" points="727.0672,-88.2555 727.0672,-107.2555 766.0672,-107.2555 766.0672,-88.2555 727.0672,-88.2555"/>
<polygon fill="none" stroke="#000000" points="727.0672,-88.2555 727.0672,-107.2555 766.0672,-107.2555 766.0672,-88.2555 727.0672,-88.2555"/>
<text text-anchor="start" x="730.0672" y="-94.3555" font-family="Helvetica,sans-Serif" font-size="11.00" fill="#000000">&lt; 3</text>
<polygon fill="#ffffff" stroke="transparent" points="766.0672,-88.2555 766.0672,-107.2555 787.0672,-107.2555 787.0672,-88.2555 766.0672,-88.2555"/>
<polygon fill="none" stroke="#000000" points="766.0672,-88.2555 766.0672,-107.2555 787.0672,-107.2555 787.0672,-88.2555 766.0672,-88.2555"/>
<text text-anchor="start" x="777.9534" y="-94.3555" font-family="Helvetica,sans-Serif" font-size="11.00" fill="#000000"> &#160;</text>
<polygon fill="#ffffff" stroke="transparent" points="787.0672,-88.2555 787.0672,-107.2555 818.0672,-107.2555 818.0672,-88.2555 787.0672,-88.2555"/>
<polygon fill="none" stroke="#000000" points="787.0672,-88.2555 787.0672,-107.2555 818.0672,-107.2555 818.0672,-88.2555 787.0672,-88.2555"/>
<text text-anchor="start" x="799.4725" y="-94.3555" font-family="Helvetica,sans-Serif" font-size="11.00" fill="#000000">1 &gt;</text>
</a>
</g>
</g>
<!-- report&#45;&gt;article -->
<g id="edge17" class="edge">
<title>report:w&#45;&gt;article:e</title>
<path fill="none" stroke="#000000" d="M712.6559,-159.34C641.3825,-160.195 618.509,-167.2555 540.5672,-167.2555"/>
<polygon fill="#000000" stroke="#000000" points="719.0673,-159.3025 727.0883,-162.8555 723.0673,-159.279 727.0672,-159.2555 727.0672,-159.2555 727.0672,-159.2555 723.0673,-159.279 727.0461,-155.6556 719.0673,-159.3025 719.0673,-159.3025"/>
<ellipse fill="none" stroke="#000000" cx="715.8674" cy="-159.3212" rx="3.2" ry="3.2"/>
</g>
<!-- report&#45;&gt;user -->
<g id="edge19" class="edge">
<title>report:w&#45;&gt;user:e</title>
<path fill="none" stroke="#000000" d="M712.2519,-181.4779C643.9887,-183.597 623.0392,-200.3865 548.5672,-211.2555 494.9459,-219.0814 481.6536,-222.9158 427.5672,-226.2555 375.2224,-229.4877 361.8759,-230.0263 309.5672,-226.2555 278.6603,-224.0275 271.5543,-216.2555 240.5672,-216.2555"/>
<polygon fill="#000000" stroke="#000000" points="719.0681,-181.3756 727.1212,-184.8551 723.0677,-181.3156 727.0672,-181.2555 727.0672,-181.2555 727.0672,-181.2555 723.0677,-181.3156 727.0132,-177.6559 719.0681,-181.3756 719.0681,-181.3756"/>
<ellipse fill="none" stroke="#000000" cx="715.8685" cy="-181.4237" rx="3.2" ry="3.2"/>
</g>
<!-- report&#45;&gt;comment -->
<g id="edge18" class="edge">
<title>report:w&#45;&gt;comment:e</title>
<path fill="none" stroke="#000000" d="M712.7661,-133.5667C700.8869,-126.6125 696.2447,-112.2555 677.5672,-112.2555"/>
<polygon fill="#000000" stroke="#000000" points="719.3207,-135.2574 726.168,-140.7414 723.194,-136.2564 727.0672,-137.2555 727.0672,-137.2555 727.0672,-137.2555 723.194,-136.2564 727.9664,-133.7696 719.3207,-135.2574 719.3207,-135.2574"/>
<ellipse fill="none" stroke="#000000" cx="716.2222" cy="-134.4581" rx="3.2" ry="3.2"/>
</g>
<!-- report_asset -->
<g id="node12" class="node">
<title>report_asset</title>
<g id="a_node12"><a xlink:href="../../tables/report_asset.html" xlink:title="report_asset" target="_top">
<polygon fill="#ffffff" stroke="transparent" points="866.5672,-85.2555 866.5672,-197.2555 1028.5672,-197.2555 1028.5672,-85.2555 866.5672,-85.2555"/>
<polygon fill="#f5f5f5" stroke="transparent" points="868.5672,-172.2555 868.5672,-195.2555 1026.5672,-195.2555 1026.5672,-172.2555 868.5672,-172.2555"/>
<polygon fill="none" stroke="#000000" points="868.5672,-172.2555 868.5672,-195.2555 1026.5672,-195.2555 1026.5672,-172.2555 868.5672,-172.2555"/>
<text text-anchor="start" x="873.5672" y="-181.3555" font-family="Helvetica,sans-Serif" font-weight="bold" font-size="11.00" fill="#000000">report_asset</text>
<text text-anchor="start" x="991.6109" y="-180.3555" font-family="Helvetica,sans-Serif" font-size="11.00" fill="#000000">[table]</text>
<polygon fill="none" stroke="#000000" points="868.5672,-150.2555 868.5672,-172.2555 961.5672,-172.2555 961.5672,-150.2555 868.5672,-150.2555"/>
<image xlink:href="../../images/primaryKeys.png" width="11px" height="12px" preserveAspectRatio="xMinYMin meet" x="873.567" y="-167.256"/>
<text text-anchor="start" x="888.5672" y="-157.3555" font-family="Helvetica,sans-Serif" font-size="11.00" fill="#000000">id</text>
<polygon fill="none" stroke="#000000" points="961.5672,-150.2555 961.5672,-172.2555 1026.5672,-172.2555 1026.5672,-150.2555 961.5672,-150.2555"/>
<text text-anchor="start" x="964.4233" y="-157.9555" font-family="Helvetica,sans-Serif" font-size="11.00" fill="#000000">bigserial[19]</text>
<polygon fill="#ffffff" stroke="transparent" points="868.5672,-128.2555 868.5672,-150.2555 961.5672,-150.2555 961.5672,-128.2555 868.5672,-128.2555"/>
<polygon fill="none" stroke="#000000" points="868.5672,-128.2555 868.5672,-150.2555 961.5672,-150.2555 961.5672,-128.2555 868.5672,-128.2555"/>
<image xlink:href="../../images/foreignKeys.png" width="11px" height="12px" preserveAspectRatio="xMinYMin meet" x="873.567" y="-145.256"/>
<text text-anchor="start" x="888.5672" y="-135.3555" font-family="Helvetica,sans-Serif" font-size="11.00" fill="#000000">report_id</text>
<polygon fill="none" stroke="#000000" points="961.5672,-128.2555 961.5672,-150.2555 1026.5672,-150.2555 1026.5672,-128.2555 961.5672,-128.2555"/>
<text text-anchor="start" x="964.5672" y="-135.9555" font-family="Helvetica,sans-Serif" font-size="11.00" fill="#000000">int8[19]</text>
<polygon fill="#ffffff" stroke="transparent" points="868.5672,-106.2555 868.5672,-128.2555 961.5672,-128.2555 961.5672,-106.2555 868.5672,-106.2555"/>
<polygon fill="none" stroke="#000000" points="868.5672,-106.2555 868.5672,-128.2555 961.5672,-128.2555 961.5672,-106.2555 868.5672,-106.2555"/>
<image xlink:href="../../images/foreignKeys.png" width="11px" height="12px" preserveAspectRatio="xMinYMin meet" x="873.567" y="-123.256"/>
<text text-anchor="start" x="888.5672" y="-113.3555" font-family="Helvetica,sans-Serif" font-size="11.00" fill="#000000">asset_id</text>
<polygon fill="none" stroke="#000000" points="961.5672,-106.2555 961.5672,-128.2555 1026.5672,-128.2555 1026.5672,-106.2555 961.5672,-106.2555"/>
<text text-anchor="start" x="964.5672" y="-113.9555" font-family="Helvetica,sans-Serif" font-size="11.00" fill="#000000">int8[19]</text>
<polygon fill="#ffffff" stroke="transparent" points="868.5672,-87.2555 868.5672,-106.2555 919.5672,-106.2555 919.5672,-87.2555 868.5672,-87.2555"/>
<polygon fill="none" stroke="#000000" points="868.5672,-87.2555 868.5672,-106.2555 919.5672,-106.2555 919.5672,-87.2555 868.5672,-87.2555"/>
<text text-anchor="start" x="871.5672" y="-93.3555" font-family="Helvetica,sans-Serif" font-size="11.00" fill="#000000">&lt; 2</text>
<polygon fill="#ffffff" stroke="transparent" points="919.5672,-87.2555 919.5672,-106.2555 961.5672,-106.2555 961.5672,-87.2555 919.5672,-87.2555"/>
<polygon fill="none" stroke="#000000" points="919.5672,-87.2555 919.5672,-106.2555 961.5672,-106.2555 961.5672,-87.2555 919.5672,-87.2555"/>
<text text-anchor="start" x="952.4534" y="-93.3555" font-family="Helvetica,sans-Serif" font-size="11.00" fill="#000000"> &#160;</text>
<polygon fill="#ffffff" stroke="transparent" points="961.5672,-87.2555 961.5672,-106.2555 1026.5672,-106.2555 1026.5672,-87.2555 961.5672,-87.2555"/>
<polygon fill="none" stroke="#000000" points="961.5672,-87.2555 961.5672,-106.2555 1026.5672,-106.2555 1026.5672,-87.2555 961.5672,-87.2555"/>
<text text-anchor="start" x="1007.9725" y="-93.3555" font-family="Helvetica,sans-Serif" font-size="11.00" fill="#000000">0 &gt;</text>
<polygon fill="none" stroke="#000000" stroke-width="2" points="867.5672,-86.2555 867.5672,-196.2555 1027.5672,-196.2555 1027.5672,-86.2555 867.5672,-86.2555"/>
</a>
</g>
</g>
<!-- report_asset&#45;&gt;asset -->
<g id="edge20" class="edge">
<title>report_asset:w&#45;&gt;asset:e</title>
<path fill="none" stroke="#000000" d="M854.5836,-112.9368C844.0508,-104.6048 843.3353,-86.4152 825.5672,-78.2555 747.4166,-42.3662 719.5646,-54.2555 633.5672,-54.2555 633.5672,-54.2555 633.5672,-54.2555 368.5672,-54.2555 267.043,-54.2555 216.8104,-1.2172 140.5672,-68.2555 68.8559,-131.3091 195.5568,-279.2555 100.0672,-279.2555"/>
<polygon fill="#000000" stroke="#000000" points="860.9234,-114.8948 867.5049,-120.6952 864.7453,-116.0751 868.5672,-117.2555 868.5672,-117.2555 868.5672,-117.2555 864.7453,-116.0751 869.6295,-113.8158 860.9234,-114.8948 860.9234,-114.8948"/>
<ellipse fill="none" stroke="#000000" cx="857.8659" cy="-113.9504" rx="3.2" ry="3.2"/>
</g>
<!-- report_asset&#45;&gt;report -->
<g id="edge21" class="edge">
<title>report_asset:w&#45;&gt;report:e</title>
<path fill="none" stroke="#000000" d="M854.9193,-143.8583C837.9752,-158.5329 848.3558,-203.2555 818.0672,-203.2555"/>
<polygon fill="#000000" stroke="#000000" points="860.9867,-141.8121 869.7176,-142.6668 864.7769,-140.5338 868.5672,-139.2555 868.5672,-139.2555 868.5672,-139.2555 864.7769,-140.5338 867.4168,-135.8443 860.9867,-141.8121 860.9867,-141.8121"/>
<ellipse fill="none" stroke="#000000" cx="857.9545" cy="-142.8347" rx="3.2" ry="3.2"/>
</g>
</g>
</svg>
