<?xml version="1.0" encoding="UTF-8" standalone="no"?>
<!DOCTYPE svg PUBLIC "-//W3C//DTD SVG 1.1//EN"
 "http://www.w3.org/Graphics/SVG/1.1/DTD/svg11.dtd">
<!-- Generated by graphviz version 2.40.1 (20161225.0304)
 -->
<!-- Title: oneDegreeRelationshipsDiagram Pages: 1 -->
<svg width="352pt" height="529pt"
 viewBox="0.00 0.00 352.00 528.70" xmlns="http://www.w3.org/2000/svg" xmlns:xlink="http://www.w3.org/1999/xlink">
<g id="graph0" class="graph" transform="scale(1 1) rotate(0) translate(4 524.7)">
<title>oneDegreeRelationshipsDiagram</title>
<polygon fill="#ffffff" stroke="transparent" points="-4,4 -4,-524.7 348,-524.7 348,4 -4,4"/>
<text text-anchor="middle" x="72.4936" y="-7.3" font-family="Helvetica,sans-Serif" font-size="11.00" fill="#000000">Generated by SchemaSpy</text>
<!-- action_tag -->
<g id="node1" class="node">
<title>action_tag</title>
<g id="a_node1"><a xlink:href="../../tables/action_tag.html" xlink:title="action_tag" target="_top">
<polygon fill="#ffffff" stroke="transparent" points="243,-367.7 243,-516.7 336,-516.7 336,-367.7 243,-367.7"/>
<polygon fill="#f5f5f5" stroke="transparent" points="243.5,-493.2 243.5,-516.2 336.5,-516.2 336.5,-493.2 243.5,-493.2"/>
<polygon fill="none" stroke="#000000" points="243.5,-493.2 243.5,-516.2 336.5,-516.2 336.5,-493.2 243.5,-493.2"/>
<text text-anchor="start" x="248.128" y="-502.3" font-family="Helvetica,sans-Serif" font-weight="bold" font-size="11.00" fill="#000000">action_tag</text>
<text text-anchor="start" x="302.0219" y="-501.3" font-family="Helvetica,sans-Serif" font-size="11.00" fill="#000000">[table]</text>
<polygon fill="none" stroke="#000000" points="243.5,-471.2 243.5,-493.2 336.5,-493.2 336.5,-471.2 243.5,-471.2"/>
<image xlink:href="../../images/primaryKeys.png" width="11px" height="12px" preserveAspectRatio="xMinYMin meet" x="248.5" y="-488.2"/>
<text text-anchor="start" x="267.5" y="-478.3" font-family="Helvetica,sans-Serif" font-size="11.00" fill="#000000">id</text>
<polygon fill="#ffffff" stroke="transparent" points="243.5,-449.2 243.5,-471.2 336.5,-471.2 336.5,-449.2 243.5,-449.2"/>
<polygon fill="none" stroke="#000000" points="243.5,-449.2 243.5,-471.2 336.5,-471.2 336.5,-449.2 243.5,-449.2"/>
<image xlink:href="../../images/foreignKeys.png" width="11px" height="12px" preserveAspectRatio="xMinYMin meet" x="248.5" y="-466.2"/>
<text text-anchor="start" x="267.5" y="-456.3" font-family="Helvetica,sans-Serif" font-size="11.00" fill="#000000">user_id</text>
<polygon fill="#ffffff" stroke="transparent" points="243.5,-427.2 243.5,-449.2 336.5,-449.2 336.5,-427.2 243.5,-427.2"/>
<polygon fill="none" stroke="#000000" points="243.5,-427.2 243.5,-449.2 336.5,-449.2 336.5,-427.2 243.5,-427.2"/>
<text text-anchor="start" x="267.5" y="-434.3" font-family="Helvetica,sans-Serif" font-size="11.00" fill="#000000">action</text>
<polygon fill="#ffffff" stroke="transparent" points="243.5,-405.2 243.5,-427.2 336.5,-427.2 336.5,-405.2 243.5,-405.2"/>
<polygon fill="none" stroke="#000000" points="243.5,-405.2 243.5,-427.2 336.5,-427.2 336.5,-405.2 243.5,-405.2"/>
<image xlink:href="../../images/foreignKeys.png" width="11px" height="12px" preserveAspectRatio="xMinYMin meet" x="248.5" y="-422.2"/>
<text text-anchor="start" x="267.5" y="-412.3" font-family="Helvetica,sans-Serif" font-size="11.00" fill="#000000">target_id</text>
<polygon fill="none" stroke="#000000" points="243.5,-386.2 243.5,-405.2 336.5,-405.2 336.5,-386.2 243.5,-386.2"/>
<text text-anchor="start" x="246.5" y="-392.3" font-family="Helvetica,sans-Serif" font-size="11.00" fill="#000000">...</text>
<polygon fill="#ffffff" stroke="transparent" points="243.5,-367.2 243.5,-386.2 288.5,-386.2 288.5,-367.2 243.5,-367.2"/>
<polygon fill="none" stroke="#000000" points="243.5,-367.2 243.5,-386.2 288.5,-386.2 288.5,-367.2 243.5,-367.2"/>
<text text-anchor="start" x="246.5" y="-373.3" font-family="Helvetica,sans-Serif" font-size="11.00" fill="#000000">&lt; 2</text>
<polygon fill="#ffffff" stroke="transparent" points="288.5,-367.2 288.5,-386.2 312.5,-386.2 312.5,-367.2 288.5,-367.2"/>
<polygon fill="none" stroke="#000000" points="288.5,-367.2 288.5,-386.2 312.5,-386.2 312.5,-367.2 288.5,-367.2"/>
<text text-anchor="start" x="303.3862" y="-373.3" font-family="Helvetica,sans-Serif" font-size="11.00" fill="#000000"> &#160;</text>
<polygon fill="#ffffff" stroke="transparent" points="312.5,-367.2 312.5,-386.2 336.5,-386.2 336.5,-367.2 312.5,-367.2"/>
<polygon fill="none" stroke="#000000" points="312.5,-367.2 312.5,-386.2 336.5,-386.2 336.5,-367.2 312.5,-367.2"/>
<text text-anchor="start" x="327.3862" y="-373.3" font-family="Helvetica,sans-Serif" font-size="11.00" fill="#000000"> &#160;</text>
</a>
</g>
</g>
<!-- tag -->
<g id="node2" class="node">
<title>tag</title>
<g id="a_node2"><a xlink:href="../../tables/tag.html" xlink:title="tag" target="_top">
<polygon fill="#ffffff" stroke="transparent" points="8,-38.2 8,-304.2 194,-304.2 194,-38.2 8,-38.2"/>
<polygon fill="#f5f5f5" stroke="transparent" points="10,-279.2 10,-302.2 192,-302.2 192,-279.2 10,-279.2"/>
<polygon fill="none" stroke="#000000" points="10,-279.2 10,-302.2 192,-302.2 192,-279.2 10,-279.2"/>
<text text-anchor="start" x="15" y="-288.3" font-family="Helvetica,sans-Serif" font-weight="bold" font-size="11.00" fill="#000000">tag</text>
<text text-anchor="start" x="157.0437" y="-287.3" font-family="Helvetica,sans-Serif" font-size="11.00" fill="#000000">[table]</text>
<polygon fill="none" stroke="#000000" points="10,-257.2 10,-279.2 95,-279.2 95,-257.2 10,-257.2"/>
<image xlink:href="../../images/primaryKeys.png" width="11px" height="12px" preserveAspectRatio="xMinYMin meet" x="15" y="-274.2"/>
<text text-anchor="start" x="30" y="-264.3" font-family="Helvetica,sans-Serif" font-size="11.00" fill="#000000">id</text>
<polygon fill="none" stroke="#000000" points="95,-257.2 95,-279.2 192,-279.2 192,-257.2 95,-257.2"/>
<text text-anchor="start" x="98" y="-264.9" font-family="Helvetica,sans-Serif" font-size="11.00" fill="#000000">bigserial[19]</text>
<polygon fill="#ffffff" stroke="transparent" points="10,-235.2 10,-257.2 95,-257.2 95,-235.2 10,-235.2"/>
<polygon fill="none" stroke="#000000" points="10,-235.2 10,-257.2 95,-257.2 95,-235.2 10,-235.2"/>
<text text-anchor="start" x="30" y="-242.3" font-family="Helvetica,sans-Serif" font-size="11.00" fill="#000000">content</text>
<polygon fill="none" stroke="#000000" points="95,-235.2 95,-257.2 192,-257.2 192,-235.2 95,-235.2"/>
<text text-anchor="start" x="98" y="-242.9" font-family="Helvetica,sans-Serif" font-size="11.00" fill="#000000">varchar[255]</text>
<polygon fill="none" stroke="#000000" points="10,-213.2 10,-235.2 95,-235.2 95,-213.2 10,-213.2"/>
<text text-anchor="start" x="30" y="-220.3" font-family="Helvetica,sans-Serif" font-size="11.00" fill="#000000">created_at</text>
<polygon fill="none" stroke="#000000" points="95,-213.2 95,-235.2 192,-235.2 192,-213.2 95,-213.2"/>
<text text-anchor="start" x="98" y="-220.9" font-family="Helvetica,sans-Serif" font-size="11.00" fill="#000000">timestamptz[35,6]</text>
<polygon fill="none" stroke="#000000" points="10,-191.2 10,-213.2 95,-213.2 95,-191.2 10,-191.2"/>
<text text-anchor="start" x="30" y="-198.3" font-family="Helvetica,sans-Serif" font-size="11.00" fill="#000000">updated_at</text>
<polygon fill="none" stroke="#000000" points="95,-191.2 95,-213.2 192,-213.2 192,-191.2 95,-191.2"/>
<text text-anchor="start" x="98" y="-198.9" font-family="Helvetica,sans-Serif" font-size="11.00" fill="#000000">timestamptz[35,6]</text>
<polygon fill="none" stroke="#000000" points="10,-169.2 10,-191.2 95,-191.2 95,-169.2 10,-169.2"/>
<text text-anchor="start" x="30" y="-176.3" font-family="Helvetica,sans-Serif" font-size="11.00" fill="#000000">remark</text>
<polygon fill="none" stroke="#000000" points="95,-169.2 95,-191.2 192,-191.2 192,-169.2 95,-169.2"/>
<text text-anchor="start" x="98" y="-176.9" font-family="Helvetica,sans-Serif" font-size="11.00" fill="#000000">text[2147483647]</text>
<polygon fill="none" stroke="#000000" points="10,-147.2 10,-169.2 95,-169.2 95,-147.2 10,-147.2"/>
<text text-anchor="start" x="30" y="-154.3" font-family="Helvetica,sans-Serif" font-size="11.00" fill="#000000">deleted</text>
<polygon fill="none" stroke="#000000" points="95,-147.2 95,-169.2 192,-169.2 192,-147.2 95,-147.2"/>
<text text-anchor="start" x="98" y="-154.9" font-family="Helvetica,sans-Serif" font-size="11.00" fill="#000000">bool[1]</text>
<polygon fill="none" stroke="#000000" points="10,-125.2 10,-147.2 95,-147.2 95,-125.2 10,-125.2"/>
<text text-anchor="start" x="30" y="-132.3" font-family="Helvetica,sans-Serif" font-size="11.00" fill="#000000">cover</text>
<polygon fill="none" stroke="#000000" points="95,-125.2 95,-147.2 192,-147.2 192,-125.2 95,-125.2"/>
<text text-anchor="start" x="98" y="-132.9" font-family="Helvetica,sans-Serif" font-size="11.00" fill="#000000">int8[19]</text>
<polygon fill="none" stroke="#000000" points="10,-103.2 10,-125.2 95,-125.2 95,-103.2 10,-103.2"/>
<text text-anchor="start" x="30" y="-110.3" font-family="Helvetica,sans-Serif" font-size="11.00" fill="#000000">description</text>
<polygon fill="none" stroke="#000000" points="95,-103.2 95,-125.2 192,-125.2 192,-103.2 95,-103.2"/>
<text text-anchor="start" x="98" y="-110.9" font-family="Helvetica,sans-Serif" font-size="11.00" fill="#000000">text[2147483647]</text>
<polygon fill="none" stroke="#000000" points="10,-81.2 10,-103.2 95,-103.2 95,-81.2 10,-81.2"/>
<text text-anchor="start" x="30" y="-88.3" font-family="Helvetica,sans-Serif" font-size="11.00" fill="#000000">editors</text>
<polygon fill="none" stroke="#000000" points="95,-81.2 95,-103.2 192,-103.2 192,-81.2 95,-81.2"/>
<text text-anchor="start" x="97.9468" y="-88.9" font-family="Helvetica,sans-Serif" font-size="11.00" fill="#000000">_text[2147483647]</text>
<polygon fill="none" stroke="#000000" points="10,-59.2 10,-81.2 95,-81.2 95,-59.2 10,-59.2"/>
<text text-anchor="start" x="30" y="-66.3" font-family="Helvetica,sans-Serif" font-size="11.00" fill="#000000">creator</text>
<polygon fill="none" stroke="#000000" points="95,-59.2 95,-81.2 192,-81.2 192,-59.2 95,-59.2"/>
<text text-anchor="start" x="98" y="-66.9" font-family="Helvetica,sans-Serif" font-size="11.00" fill="#000000">int8[19]</text>
<polygon fill="#ffffff" stroke="transparent" points="10,-40.2 10,-59.2 57,-59.2 57,-40.2 10,-40.2"/>
<polygon fill="none" stroke="#000000" points="10,-40.2 10,-59.2 57,-59.2 57,-40.2 10,-40.2"/>
<text text-anchor="start" x="13" y="-46.3" font-family="Helvetica,sans-Serif" font-size="11.00" fill="#000000">&lt; 0</text>
<polygon fill="#ffffff" stroke="transparent" points="57,-40.2 57,-59.2 95,-59.2 95,-40.2 57,-40.2"/>
<polygon fill="none" stroke="#000000" points="57,-40.2 57,-59.2 95,-59.2 95,-40.2 57,-40.2"/>
<text text-anchor="start" x="85.8862" y="-46.3" font-family="Helvetica,sans-Serif" font-size="11.00" fill="#000000"> &#160;</text>
<polygon fill="#ffffff" stroke="transparent" points="95,-40.2 95,-59.2 192,-59.2 192,-40.2 95,-40.2"/>
<polygon fill="none" stroke="#000000" points="95,-40.2 95,-59.2 192,-59.2 192,-40.2 95,-40.2"/>
<text text-anchor="start" x="173.4053" y="-46.3" font-family="Helvetica,sans-Serif" font-size="11.00" fill="#000000">3 &gt;</text>
<polygon fill="none" stroke="#000000" stroke-width="2" points="9,-39.2 9,-303.2 193,-303.2 193,-39.2 9,-39.2"/>
</a>
</g>
</g>
<!-- action_tag&#45;&gt;tag -->
<g id="edge1" class="edge">
<title>action_tag:w&#45;&gt;tag:e</title>
<path fill="none" stroke="#000000" d="M229.3649,-413.3757C187.1977,-392.9147 255.9332,-268.2 192,-268.2"/>
<polygon fill="#000000" stroke="#000000" points="235.6551,-414.6325 242.7946,-419.7302 239.5775,-415.4162 243.5,-416.2 243.5,-416.2 243.5,-416.2 239.5775,-415.4162 244.2054,-412.6698 235.6551,-414.6325 235.6551,-414.6325"/>
<ellipse fill="none" stroke="#000000" cx="232.5171" cy="-414.0054" rx="3.2" ry="3.2"/>
</g>
<!-- article_tag -->
<g id="node3" class="node">
<title>article_tag</title>
<g id="a_node3"><a xlink:href="../../tables/article_tag.html" xlink:title="article_tag" target="_top">
<polygon fill="#ffffff" stroke="transparent" points="243,-219.7 243,-346.7 336,-346.7 336,-219.7 243,-219.7"/>
<polygon fill="#f5f5f5" stroke="transparent" points="243.5,-323.2 243.5,-346.2 336.5,-346.2 336.5,-323.2 243.5,-323.2"/>
<polygon fill="none" stroke="#000000" points="243.5,-323.2 243.5,-346.2 336.5,-346.2 336.5,-323.2 243.5,-323.2"/>
<text text-anchor="start" x="248.134" y="-332.3" font-family="Helvetica,sans-Serif" font-weight="bold" font-size="11.00" fill="#000000">article_tag</text>
<text text-anchor="start" x="302.0219" y="-331.3" font-family="Helvetica,sans-Serif" font-size="11.00" fill="#000000">[table]</text>
<polygon fill="none" stroke="#000000" points="243.5,-301.2 243.5,-323.2 336.5,-323.2 336.5,-301.2 243.5,-301.2"/>
<image xlink:href="../../images/primaryKeys.png" width="11px" height="12px" preserveAspectRatio="xMinYMin meet" x="248.5" y="-318.2"/>
<text text-anchor="start" x="267.5" y="-308.3" font-family="Helvetica,sans-Serif" font-size="11.00" fill="#000000">id</text>
<polygon fill="#ffffff" stroke="transparent" points="243.5,-279.2 243.5,-301.2 336.5,-301.2 336.5,-279.2 243.5,-279.2"/>
<polygon fill="none" stroke="#000000" points="243.5,-279.2 243.5,-301.2 336.5,-301.2 336.5,-279.2 243.5,-279.2"/>
<image xlink:href="../../images/foreignKeys.png" width="11px" height="12px" preserveAspectRatio="xMinYMin meet" x="248.5" y="-296.2"/>
<text text-anchor="start" x="267.5" y="-286.3" font-family="Helvetica,sans-Serif" font-size="11.00" fill="#000000">article_id</text>
<polygon fill="#ffffff" stroke="transparent" points="243.5,-257.2 243.5,-279.2 336.5,-279.2 336.5,-257.2 243.5,-257.2"/>
<polygon fill="none" stroke="#000000" points="243.5,-257.2 243.5,-279.2 336.5,-279.2 336.5,-257.2 243.5,-257.2"/>
<image xlink:href="../../images/foreignKeys.png" width="11px" height="12px" preserveAspectRatio="xMinYMin meet" x="248.5" y="-274.2"/>
<text text-anchor="start" x="267.5" y="-264.3" font-family="Helvetica,sans-Serif" font-size="11.00" fill="#000000">tag_id</text>
<polygon fill="none" stroke="#000000" points="243.5,-238.2 243.5,-257.2 336.5,-257.2 336.5,-238.2 243.5,-238.2"/>
<text text-anchor="start" x="246.5" y="-244.3" font-family="Helvetica,sans-Serif" font-size="11.00" fill="#000000">...</text>
<polygon fill="#ffffff" stroke="transparent" points="243.5,-219.2 243.5,-238.2 288.5,-238.2 288.5,-219.2 243.5,-219.2"/>
<polygon fill="none" stroke="#000000" points="243.5,-219.2 243.5,-238.2 288.5,-238.2 288.5,-219.2 243.5,-219.2"/>
<text text-anchor="start" x="246.5" y="-225.3" font-family="Helvetica,sans-Serif" font-size="11.00" fill="#000000">&lt; 2</text>
<polygon fill="#ffffff" stroke="transparent" points="288.5,-219.2 288.5,-238.2 312.5,-238.2 312.5,-219.2 288.5,-219.2"/>
<polygon fill="none" stroke="#000000" points="288.5,-219.2 288.5,-238.2 312.5,-238.2 312.5,-219.2 288.5,-219.2"/>
<text text-anchor="start" x="303.3862" y="-225.3" font-family="Helvetica,sans-Serif" font-size="11.00" fill="#000000"> &#160;</text>
<polygon fill="#ffffff" stroke="transparent" points="312.5,-219.2 312.5,-238.2 336.5,-238.2 336.5,-219.2 312.5,-219.2"/>
<polygon fill="none" stroke="#000000" points="312.5,-219.2 312.5,-238.2 336.5,-238.2 336.5,-219.2 312.5,-219.2"/>
<text text-anchor="start" x="327.3862" y="-225.3" font-family="Helvetica,sans-Serif" font-size="11.00" fill="#000000"> &#160;</text>
</a>
</g>
</g>
<!-- article_tag&#45;&gt;tag -->
<g id="edge2" class="edge">
<title>article_tag:w&#45;&gt;tag:e</title>
<path fill="none" stroke="#000000" d="M229.0156,-268.2C216.6771,-268.2 209.1667,-268.2 192,-268.2"/>
<polygon fill="#000000" stroke="#000000" points="235.5,-268.2001 243.5,-271.8 239.5,-268.2 243.5,-268.2 243.5,-268.2 243.5,-268.2 239.5,-268.2 243.5,-264.6 235.5,-268.2001 235.5,-268.2001"/>
<ellipse fill="none" stroke="#000000" cx="232.3" cy="-268.2001" rx="3.2" ry="3.2"/>
</g>
<!-- tag_boost -->
<g id="node4" class="node">
<title>tag_boost</title>
<g id="a_node4"><a xlink:href="../../tables/tag_boost.html" xlink:title="tag_boost" target="_top">
<polygon fill="#ffffff" stroke="transparent" points="244,-93.7 244,-198.7 335,-198.7 335,-93.7 244,-93.7"/>
<polygon fill="#f5f5f5" stroke="transparent" points="244.5,-175.2 244.5,-198.2 335.5,-198.2 335.5,-175.2 244.5,-175.2"/>
<polygon fill="none" stroke="#000000" points="244.5,-175.2 244.5,-198.2 335.5,-198.2 335.5,-175.2 244.5,-175.2"/>
<text text-anchor="start" x="249.3484" y="-184.3" font-family="Helvetica,sans-Serif" font-weight="bold" font-size="11.00" fill="#000000">tag_boost</text>
<text text-anchor="start" x="301.0219" y="-183.3" font-family="Helvetica,sans-Serif" font-size="11.00" fill="#000000">[table]</text>
<polygon fill="none" stroke="#000000" points="244.5,-153.2 244.5,-175.2 335.5,-175.2 335.5,-153.2 244.5,-153.2"/>
<image xlink:href="../../images/primaryKeys.png" width="11px" height="12px" preserveAspectRatio="xMinYMin meet" x="249.5" y="-170.2"/>
<text text-anchor="start" x="267.5" y="-160.3" font-family="Helvetica,sans-Serif" font-size="11.00" fill="#000000">id</text>
<polygon fill="none" stroke="#000000" points="244.5,-131.2 244.5,-153.2 335.5,-153.2 335.5,-131.2 244.5,-131.2"/>
<image xlink:href="../../images/foreignKeys.png" width="11px" height="12px" preserveAspectRatio="xMinYMin meet" x="249.5" y="-148.2"/>
<text text-anchor="start" x="267.5" y="-138.3" font-family="Helvetica,sans-Serif" font-size="11.00" fill="#000000">tag_id</text>
<polygon fill="none" stroke="#000000" points="244.5,-112.2 244.5,-131.2 335.5,-131.2 335.5,-112.2 244.5,-112.2"/>
<text text-anchor="start" x="247.5" y="-118.3" font-family="Helvetica,sans-Serif" font-size="11.00" fill="#000000">...</text>
<polygon fill="#ffffff" stroke="transparent" points="244.5,-93.2 244.5,-112.2 288.5,-112.2 288.5,-93.2 244.5,-93.2"/>
<polygon fill="none" stroke="#000000" points="244.5,-93.2 244.5,-112.2 288.5,-112.2 288.5,-93.2 244.5,-93.2"/>
<text text-anchor="start" x="247.5" y="-99.3" font-family="Helvetica,sans-Serif" font-size="11.00" fill="#000000">&lt; 1</text>
<polygon fill="#ffffff" stroke="transparent" points="288.5,-93.2 288.5,-112.2 311.5,-112.2 311.5,-93.2 288.5,-93.2"/>
<polygon fill="none" stroke="#000000" points="288.5,-93.2 288.5,-112.2 311.5,-112.2 311.5,-93.2 288.5,-93.2"/>
<text text-anchor="start" x="302.3862" y="-99.3" font-family="Helvetica,sans-Serif" font-size="11.00" fill="#000000"> &#160;</text>
<polygon fill="#ffffff" stroke="transparent" points="311.5,-93.2 311.5,-112.2 335.5,-112.2 335.5,-93.2 311.5,-93.2"/>
<polygon fill="none" stroke="#000000" points="311.5,-93.2 311.5,-112.2 335.5,-112.2 335.5,-93.2 311.5,-93.2"/>
<text text-anchor="start" x="326.3862" y="-99.3" font-family="Helvetica,sans-Serif" font-size="11.00" fill="#000000"> &#160;</text>
</a>
</g>
</g>
<!-- tag_boost&#45;&gt;tag -->
<g id="edge3" class="edge">
<title>tag_boost:w&#45;&gt;tag:e</title>
<path fill="none" stroke="#000000" d="M230.1904,-145.5702C196.0423,-165.6077 246.7422,-268.2 192,-268.2"/>
<polygon fill="#000000" stroke="#000000" points="236.7131,-144.034 245.3253,-145.7041 240.6065,-143.117 244.5,-142.2 244.5,-142.2 244.5,-142.2 240.6065,-143.117 243.6747,-138.6959 236.7131,-144.034 236.7131,-144.034"/>
<ellipse fill="none" stroke="#000000" cx="233.5983" cy="-144.7676" rx="3.2" ry="3.2"/>
</g>
</g>
</svg>
