<?xml version="1.0" encoding="UTF-8" standalone="no"?>
<!DOCTYPE svg PUBLIC "-//W3C//DTD SVG 1.1//EN"
 "http://www.w3.org/Graphics/SVG/1.1/DTD/svg11.dtd">
<!-- Generated by graphviz version 2.40.1 (20161225.0304)
 -->
<!-- Title: twoDegreesRelationshipsDiagram Pages: 1 -->
<svg width="465pt" height="505pt"
 viewBox="0.00 0.00 465.00 505.20" xmlns="http://www.w3.org/2000/svg" xmlns:xlink="http://www.w3.org/1999/xlink">
<g id="graph0" class="graph" transform="scale(1 1) rotate(0) translate(4 501.2)">
<title>twoDegreesRelationshipsDiagram</title>
<polygon fill="#ffffff" stroke="transparent" points="-4,4 -4,-501.2 461,-501.2 461,4 -4,4"/>
<text text-anchor="middle" x="72.4936" y="-7.3" font-family="Helvetica,sans-Serif" font-size="11.00" fill="#000000">Generated by SchemaSpy</text>
<!-- action_tag -->
<g id="node1" class="node">
<title>action_tag</title>
<g id="a_node1"><a xlink:href="../../tables/action_tag.html" xlink:title="action_tag" target="_top">
<polygon fill="#ffffff" stroke="transparent" points="356,-38.2 356,-187.2 449,-187.2 449,-38.2 356,-38.2"/>
<polygon fill="#f5f5f5" stroke="transparent" points="356.5,-163.7 356.5,-186.7 449.5,-186.7 449.5,-163.7 356.5,-163.7"/>
<polygon fill="none" stroke="#000000" points="356.5,-163.7 356.5,-186.7 449.5,-186.7 449.5,-163.7 356.5,-163.7"/>
<text text-anchor="start" x="361.128" y="-172.8" font-family="Helvetica,sans-Serif" font-weight="bold" font-size="11.00" fill="#000000">action_tag</text>
<text text-anchor="start" x="415.0219" y="-171.8" font-family="Helvetica,sans-Serif" font-size="11.00" fill="#000000">[table]</text>
<polygon fill="none" stroke="#000000" points="356.5,-141.7 356.5,-163.7 449.5,-163.7 449.5,-141.7 356.5,-141.7"/>
<image xlink:href="../../images/primaryKeys.png" width="11px" height="12px" preserveAspectRatio="xMinYMin meet" x="361.5" y="-158.7"/>
<text text-anchor="start" x="380.5" y="-148.8" font-family="Helvetica,sans-Serif" font-size="11.00" fill="#000000">id</text>
<polygon fill="#ffffff" stroke="transparent" points="356.5,-119.7 356.5,-141.7 449.5,-141.7 449.5,-119.7 356.5,-119.7"/>
<polygon fill="none" stroke="#000000" points="356.5,-119.7 356.5,-141.7 449.5,-141.7 449.5,-119.7 356.5,-119.7"/>
<image xlink:href="../../images/foreignKeys.png" width="11px" height="12px" preserveAspectRatio="xMinYMin meet" x="361.5" y="-136.7"/>
<text text-anchor="start" x="380.5" y="-126.8" font-family="Helvetica,sans-Serif" font-size="11.00" fill="#000000">user_id</text>
<polygon fill="#ffffff" stroke="transparent" points="356.5,-97.7 356.5,-119.7 449.5,-119.7 449.5,-97.7 356.5,-97.7"/>
<polygon fill="none" stroke="#000000" points="356.5,-97.7 356.5,-119.7 449.5,-119.7 449.5,-97.7 356.5,-97.7"/>
<text text-anchor="start" x="380.5" y="-104.8" font-family="Helvetica,sans-Serif" font-size="11.00" fill="#000000">action</text>
<polygon fill="#ffffff" stroke="transparent" points="356.5,-75.7 356.5,-97.7 449.5,-97.7 449.5,-75.7 356.5,-75.7"/>
<polygon fill="none" stroke="#000000" points="356.5,-75.7 356.5,-97.7 449.5,-97.7 449.5,-75.7 356.5,-75.7"/>
<image xlink:href="../../images/foreignKeys.png" width="11px" height="12px" preserveAspectRatio="xMinYMin meet" x="361.5" y="-92.7"/>
<text text-anchor="start" x="380.5" y="-82.8" font-family="Helvetica,sans-Serif" font-size="11.00" fill="#000000">target_id</text>
<polygon fill="none" stroke="#000000" points="356.5,-56.7 356.5,-75.7 449.5,-75.7 449.5,-56.7 356.5,-56.7"/>
<text text-anchor="start" x="359.5" y="-62.8" font-family="Helvetica,sans-Serif" font-size="11.00" fill="#000000">...</text>
<polygon fill="#ffffff" stroke="transparent" points="356.5,-37.7 356.5,-56.7 401.5,-56.7 401.5,-37.7 356.5,-37.7"/>
<polygon fill="none" stroke="#000000" points="356.5,-37.7 356.5,-56.7 401.5,-56.7 401.5,-37.7 356.5,-37.7"/>
<text text-anchor="start" x="359.5" y="-43.8" font-family="Helvetica,sans-Serif" font-size="11.00" fill="#000000">&lt; 2</text>
<polygon fill="#ffffff" stroke="transparent" points="401.5,-37.7 401.5,-56.7 425.5,-56.7 425.5,-37.7 401.5,-37.7"/>
<polygon fill="none" stroke="#000000" points="401.5,-37.7 401.5,-56.7 425.5,-56.7 425.5,-37.7 401.5,-37.7"/>
<text text-anchor="start" x="416.3862" y="-43.8" font-family="Helvetica,sans-Serif" font-size="11.00" fill="#000000"> &#160;</text>
<polygon fill="#ffffff" stroke="transparent" points="425.5,-37.7 425.5,-56.7 449.5,-56.7 449.5,-37.7 425.5,-37.7"/>
<polygon fill="none" stroke="#000000" points="425.5,-37.7 425.5,-56.7 449.5,-56.7 449.5,-37.7 425.5,-37.7"/>
<text text-anchor="start" x="440.3862" y="-43.8" font-family="Helvetica,sans-Serif" font-size="11.00" fill="#000000"> &#160;</text>
</a>
</g>
</g>
<!-- tag -->
<g id="node2" class="node">
<title>tag</title>
<g id="a_node2"><a xlink:href="../../tables/tag.html" xlink:title="tag" target="_top">
<polygon fill="#ffffff" stroke="transparent" points="121,-121.7 121,-387.7 307,-387.7 307,-121.7 121,-121.7"/>
<polygon fill="#f5f5f5" stroke="transparent" points="123,-362.7 123,-385.7 305,-385.7 305,-362.7 123,-362.7"/>
<polygon fill="none" stroke="#000000" points="123,-362.7 123,-385.7 305,-385.7 305,-362.7 123,-362.7"/>
<text text-anchor="start" x="128" y="-371.8" font-family="Helvetica,sans-Serif" font-weight="bold" font-size="11.00" fill="#000000">tag</text>
<text text-anchor="start" x="270.0437" y="-370.8" font-family="Helvetica,sans-Serif" font-size="11.00" fill="#000000">[table]</text>
<polygon fill="none" stroke="#000000" points="123,-340.7 123,-362.7 208,-362.7 208,-340.7 123,-340.7"/>
<image xlink:href="../../images/primaryKeys.png" width="11px" height="12px" preserveAspectRatio="xMinYMin meet" x="128" y="-357.7"/>
<text text-anchor="start" x="143" y="-347.8" font-family="Helvetica,sans-Serif" font-size="11.00" fill="#000000">id</text>
<polygon fill="none" stroke="#000000" points="208,-340.7 208,-362.7 305,-362.7 305,-340.7 208,-340.7"/>
<text text-anchor="start" x="211" y="-348.4" font-family="Helvetica,sans-Serif" font-size="11.00" fill="#000000">bigserial[19]</text>
<polygon fill="#ffffff" stroke="transparent" points="123,-318.7 123,-340.7 208,-340.7 208,-318.7 123,-318.7"/>
<polygon fill="none" stroke="#000000" points="123,-318.7 123,-340.7 208,-340.7 208,-318.7 123,-318.7"/>
<text text-anchor="start" x="143" y="-325.8" font-family="Helvetica,sans-Serif" font-size="11.00" fill="#000000">content</text>
<polygon fill="none" stroke="#000000" points="208,-318.7 208,-340.7 305,-340.7 305,-318.7 208,-318.7"/>
<text text-anchor="start" x="211" y="-326.4" font-family="Helvetica,sans-Serif" font-size="11.00" fill="#000000">varchar[255]</text>
<polygon fill="none" stroke="#000000" points="123,-296.7 123,-318.7 208,-318.7 208,-296.7 123,-296.7"/>
<text text-anchor="start" x="143" y="-303.8" font-family="Helvetica,sans-Serif" font-size="11.00" fill="#000000">created_at</text>
<polygon fill="none" stroke="#000000" points="208,-296.7 208,-318.7 305,-318.7 305,-296.7 208,-296.7"/>
<text text-anchor="start" x="211" y="-304.4" font-family="Helvetica,sans-Serif" font-size="11.00" fill="#000000">timestamptz[35,6]</text>
<polygon fill="none" stroke="#000000" points="123,-274.7 123,-296.7 208,-296.7 208,-274.7 123,-274.7"/>
<text text-anchor="start" x="143" y="-281.8" font-family="Helvetica,sans-Serif" font-size="11.00" fill="#000000">updated_at</text>
<polygon fill="none" stroke="#000000" points="208,-274.7 208,-296.7 305,-296.7 305,-274.7 208,-274.7"/>
<text text-anchor="start" x="211" y="-282.4" font-family="Helvetica,sans-Serif" font-size="11.00" fill="#000000">timestamptz[35,6]</text>
<polygon fill="none" stroke="#000000" points="123,-252.7 123,-274.7 208,-274.7 208,-252.7 123,-252.7"/>
<text text-anchor="start" x="143" y="-259.8" font-family="Helvetica,sans-Serif" font-size="11.00" fill="#000000">remark</text>
<polygon fill="none" stroke="#000000" points="208,-252.7 208,-274.7 305,-274.7 305,-252.7 208,-252.7"/>
<text text-anchor="start" x="211" y="-260.4" font-family="Helvetica,sans-Serif" font-size="11.00" fill="#000000">text[2147483647]</text>
<polygon fill="none" stroke="#000000" points="123,-230.7 123,-252.7 208,-252.7 208,-230.7 123,-230.7"/>
<text text-anchor="start" x="143" y="-237.8" font-family="Helvetica,sans-Serif" font-size="11.00" fill="#000000">deleted</text>
<polygon fill="none" stroke="#000000" points="208,-230.7 208,-252.7 305,-252.7 305,-230.7 208,-230.7"/>
<text text-anchor="start" x="211" y="-238.4" font-family="Helvetica,sans-Serif" font-size="11.00" fill="#000000">bool[1]</text>
<polygon fill="none" stroke="#000000" points="123,-208.7 123,-230.7 208,-230.7 208,-208.7 123,-208.7"/>
<text text-anchor="start" x="143" y="-215.8" font-family="Helvetica,sans-Serif" font-size="11.00" fill="#000000">cover</text>
<polygon fill="none" stroke="#000000" points="208,-208.7 208,-230.7 305,-230.7 305,-208.7 208,-208.7"/>
<text text-anchor="start" x="211" y="-216.4" font-family="Helvetica,sans-Serif" font-size="11.00" fill="#000000">int8[19]</text>
<polygon fill="none" stroke="#000000" points="123,-186.7 123,-208.7 208,-208.7 208,-186.7 123,-186.7"/>
<text text-anchor="start" x="143" y="-193.8" font-family="Helvetica,sans-Serif" font-size="11.00" fill="#000000">description</text>
<polygon fill="none" stroke="#000000" points="208,-186.7 208,-208.7 305,-208.7 305,-186.7 208,-186.7"/>
<text text-anchor="start" x="211" y="-194.4" font-family="Helvetica,sans-Serif" font-size="11.00" fill="#000000">text[2147483647]</text>
<polygon fill="none" stroke="#000000" points="123,-164.7 123,-186.7 208,-186.7 208,-164.7 123,-164.7"/>
<text text-anchor="start" x="143" y="-171.8" font-family="Helvetica,sans-Serif" font-size="11.00" fill="#000000">editors</text>
<polygon fill="none" stroke="#000000" points="208,-164.7 208,-186.7 305,-186.7 305,-164.7 208,-164.7"/>
<text text-anchor="start" x="210.9468" y="-172.4" font-family="Helvetica,sans-Serif" font-size="11.00" fill="#000000">_text[2147483647]</text>
<polygon fill="none" stroke="#000000" points="123,-142.7 123,-164.7 208,-164.7 208,-142.7 123,-142.7"/>
<text text-anchor="start" x="143" y="-149.8" font-family="Helvetica,sans-Serif" font-size="11.00" fill="#000000">creator</text>
<polygon fill="none" stroke="#000000" points="208,-142.7 208,-164.7 305,-164.7 305,-142.7 208,-142.7"/>
<text text-anchor="start" x="211" y="-150.4" font-family="Helvetica,sans-Serif" font-size="11.00" fill="#000000">int8[19]</text>
<polygon fill="#ffffff" stroke="transparent" points="123,-123.7 123,-142.7 170,-142.7 170,-123.7 123,-123.7"/>
<polygon fill="none" stroke="#000000" points="123,-123.7 123,-142.7 170,-142.7 170,-123.7 123,-123.7"/>
<text text-anchor="start" x="126" y="-129.8" font-family="Helvetica,sans-Serif" font-size="11.00" fill="#000000">&lt; 0</text>
<polygon fill="#ffffff" stroke="transparent" points="170,-123.7 170,-142.7 208,-142.7 208,-123.7 170,-123.7"/>
<polygon fill="none" stroke="#000000" points="170,-123.7 170,-142.7 208,-142.7 208,-123.7 170,-123.7"/>
<text text-anchor="start" x="198.8862" y="-129.8" font-family="Helvetica,sans-Serif" font-size="11.00" fill="#000000"> &#160;</text>
<polygon fill="#ffffff" stroke="transparent" points="208,-123.7 208,-142.7 305,-142.7 305,-123.7 208,-123.7"/>
<polygon fill="none" stroke="#000000" points="208,-123.7 208,-142.7 305,-142.7 305,-123.7 208,-123.7"/>
<text text-anchor="start" x="286.4053" y="-129.8" font-family="Helvetica,sans-Serif" font-size="11.00" fill="#000000">3 &gt;</text>
<polygon fill="none" stroke="#000000" stroke-width="2" points="122,-122.7 122,-386.7 306,-386.7 306,-122.7 122,-122.7"/>
</a>
</g>
</g>
<!-- action_tag&#45;&gt;tag -->
<g id="edge1" class="edge">
<title>action_tag:w&#45;&gt;tag:e</title>
<path fill="none" stroke="#000000" d="M342.142,-88.2562C252.8285,-109.9738 419.5915,-351.7 305,-351.7"/>
<polygon fill="#000000" stroke="#000000" points="348.5466,-87.5621 356.888,-90.279 352.5233,-87.1311 356.5,-86.7 356.5,-86.7 356.5,-86.7 352.5233,-87.1311 356.112,-83.121 348.5466,-87.5621 348.5466,-87.5621"/>
<ellipse fill="none" stroke="#000000" cx="345.3652" cy="-87.907" rx="3.2" ry="3.2"/>
</g>
<!-- user -->
<g id="node3" class="node">
<title>user</title>
<g id="a_node3"><a xlink:href="../../tables/user.html" xlink:title="user" target="_top">
<polygon fill="#ffffff" stroke="transparent" points="8,-239.2 8,-300.2 72,-300.2 72,-239.2 8,-239.2"/>
<polygon fill="#f5f5f5" stroke="transparent" points="8,-276.7 8,-299.7 72,-299.7 72,-276.7 8,-276.7"/>
<polygon fill="none" stroke="#000000" points="8,-276.7 8,-299.7 72,-299.7 72,-276.7 8,-276.7"/>
<text text-anchor="start" x="12.8042" y="-285.8" font-family="Helvetica,sans-Serif" font-weight="bold" font-size="11.00" fill="#000000">user</text>
<text text-anchor="start" x="37.5219" y="-284.8" font-family="Helvetica,sans-Serif" font-size="11.00" fill="#000000">[table]</text>
<polygon fill="none" stroke="#000000" points="8,-257.7 8,-276.7 72,-276.7 72,-257.7 8,-257.7"/>
<text text-anchor="start" x="11" y="-263.8" font-family="Helvetica,sans-Serif" font-size="11.00" fill="#000000">...</text>
<polygon fill="#ffffff" stroke="transparent" points="8,-238.7 8,-257.7 31,-257.7 31,-238.7 8,-238.7"/>
<polygon fill="none" stroke="#000000" points="8,-238.7 8,-257.7 31,-257.7 31,-238.7 8,-238.7"/>
<text text-anchor="start" x="11" y="-244.8" font-family="Helvetica,sans-Serif" font-size="11.00" fill="#000000">&lt; 1</text>
<polygon fill="#ffffff" stroke="transparent" points="31,-238.7 31,-257.7 44,-257.7 44,-238.7 31,-238.7"/>
<polygon fill="none" stroke="#000000" points="31,-238.7 31,-257.7 44,-257.7 44,-238.7 31,-238.7"/>
<text text-anchor="start" x="34.8862" y="-244.8" font-family="Helvetica,sans-Serif" font-size="11.00" fill="#000000"> &#160;</text>
<polygon fill="#ffffff" stroke="transparent" points="44,-238.7 44,-257.7 72,-257.7 72,-238.7 44,-238.7"/>
<polygon fill="none" stroke="#000000" points="44,-238.7 44,-257.7 72,-257.7 72,-238.7 44,-238.7"/>
<text text-anchor="start" x="47.2904" y="-244.8" font-family="Helvetica,sans-Serif" font-size="11.00" fill="#000000">42 &gt;</text>
</a>
</g>
</g>
<!-- action_tag&#45;&gt;user -->
<g id="edge2" class="edge">
<title>action_tag:w&#45;&gt;user:e</title>
<path fill="none" stroke="#000000" d="M342.4516,-127.474C333.7625,-122.8974 328.9359,-114.7385 315,-111.7 227.283,-92.5748 184.1378,-56.9327 113,-111.7 56.5367,-155.1698 143.2582,-266.7 72,-266.7"/>
<polygon fill="#000000" stroke="#000000" points="348.7029,-128.9095 355.6943,-134.2087 352.6015,-129.8047 356.5,-130.7 356.5,-130.7 356.5,-130.7 352.6015,-129.8047 357.3057,-127.1913 348.7029,-128.9095 348.7029,-128.9095"/>
<ellipse fill="none" stroke="#000000" cx="345.5841" cy="-128.1933" rx="3.2" ry="3.2"/>
</g>
<!-- article -->
<g id="node4" class="node">
<title>article</title>
<g id="a_node4"><a xlink:href="../../tables/article.html" xlink:title="article" target="_top">
<polygon fill="#ffffff" stroke="transparent" points="178,-409.2 178,-470.2 250,-470.2 250,-409.2 178,-409.2"/>
<polygon fill="#f5f5f5" stroke="transparent" points="178,-446.7 178,-469.7 250,-469.7 250,-446.7 178,-446.7"/>
<polygon fill="none" stroke="#000000" points="178,-446.7 178,-469.7 250,-469.7 250,-446.7 178,-446.7"/>
<text text-anchor="start" x="182.8348" y="-455.8" font-family="Helvetica,sans-Serif" font-weight="bold" font-size="11.00" fill="#000000">article</text>
<text text-anchor="start" x="215.5219" y="-454.8" font-family="Helvetica,sans-Serif" font-size="11.00" fill="#000000">[table]</text>
<polygon fill="none" stroke="#000000" points="178,-427.7 178,-446.7 250,-446.7 250,-427.7 178,-427.7"/>
<text text-anchor="start" x="181" y="-433.8" font-family="Helvetica,sans-Serif" font-size="11.00" fill="#000000">...</text>
<polygon fill="#ffffff" stroke="transparent" points="178,-408.7 178,-427.7 205,-427.7 205,-408.7 178,-408.7"/>
<polygon fill="none" stroke="#000000" points="178,-408.7 178,-427.7 205,-427.7 205,-408.7 178,-408.7"/>
<text text-anchor="start" x="181" y="-414.8" font-family="Helvetica,sans-Serif" font-size="11.00" fill="#000000">&lt; 4</text>
<polygon fill="#ffffff" stroke="transparent" points="205,-408.7 205,-427.7 220,-427.7 220,-408.7 205,-408.7"/>
<polygon fill="none" stroke="#000000" points="205,-408.7 205,-427.7 220,-427.7 220,-408.7 205,-408.7"/>
<text text-anchor="start" x="210.8862" y="-414.8" font-family="Helvetica,sans-Serif" font-size="11.00" fill="#000000"> &#160;</text>
<polygon fill="#ffffff" stroke="transparent" points="220,-408.7 220,-427.7 250,-427.7 250,-408.7 220,-408.7"/>
<polygon fill="none" stroke="#000000" points="220,-408.7 220,-427.7 250,-427.7 250,-408.7 220,-408.7"/>
<text text-anchor="start" x="225.2904" y="-414.8" font-family="Helvetica,sans-Serif" font-size="11.00" fill="#000000">14 &gt;</text>
</a>
</g>
</g>
<!-- article&#45;&gt;user -->
<g id="edge3" class="edge">
<title>article:w&#45;&gt;user:e</title>
<path fill="none" stroke="#000000" d="M163.5372,-435.7812C140.8444,-432.5507 130.4844,-420.703 113,-398.7 74.7815,-350.6045 133.4315,-266.7 72,-266.7"/>
<polygon fill="#000000" stroke="#000000" points="170.0161,-436.1928 177.7717,-440.2928 174.008,-436.4464 178,-436.7 178,-436.7 178,-436.7 174.008,-436.4464 178.2283,-433.1072 170.0161,-436.1928 170.0161,-436.1928"/>
<ellipse fill="none" stroke="#000000" cx="166.8225" cy="-435.9899" rx="3.2" ry="3.2"/>
</g>
<!-- article_tag -->
<g id="node5" class="node">
<title>article_tag</title>
<g id="a_node5"><a xlink:href="../../tables/article_tag.html" xlink:title="article_tag" target="_top">
<polygon fill="#ffffff" stroke="transparent" points="356,-366.2 356,-493.2 449,-493.2 449,-366.2 356,-366.2"/>
<polygon fill="#f5f5f5" stroke="transparent" points="356.5,-469.7 356.5,-492.7 449.5,-492.7 449.5,-469.7 356.5,-469.7"/>
<polygon fill="none" stroke="#000000" points="356.5,-469.7 356.5,-492.7 449.5,-492.7 449.5,-469.7 356.5,-469.7"/>
<text text-anchor="start" x="361.134" y="-478.8" font-family="Helvetica,sans-Serif" font-weight="bold" font-size="11.00" fill="#000000">article_tag</text>
<text text-anchor="start" x="415.0219" y="-477.8" font-family="Helvetica,sans-Serif" font-size="11.00" fill="#000000">[table]</text>
<polygon fill="none" stroke="#000000" points="356.5,-447.7 356.5,-469.7 449.5,-469.7 449.5,-447.7 356.5,-447.7"/>
<image xlink:href="../../images/primaryKeys.png" width="11px" height="12px" preserveAspectRatio="xMinYMin meet" x="361.5" y="-464.7"/>
<text text-anchor="start" x="380.5" y="-454.8" font-family="Helvetica,sans-Serif" font-size="11.00" fill="#000000">id</text>
<polygon fill="#ffffff" stroke="transparent" points="356.5,-425.7 356.5,-447.7 449.5,-447.7 449.5,-425.7 356.5,-425.7"/>
<polygon fill="none" stroke="#000000" points="356.5,-425.7 356.5,-447.7 449.5,-447.7 449.5,-425.7 356.5,-425.7"/>
<image xlink:href="../../images/foreignKeys.png" width="11px" height="12px" preserveAspectRatio="xMinYMin meet" x="361.5" y="-442.7"/>
<text text-anchor="start" x="380.5" y="-432.8" font-family="Helvetica,sans-Serif" font-size="11.00" fill="#000000">article_id</text>
<polygon fill="#ffffff" stroke="transparent" points="356.5,-403.7 356.5,-425.7 449.5,-425.7 449.5,-403.7 356.5,-403.7"/>
<polygon fill="none" stroke="#000000" points="356.5,-403.7 356.5,-425.7 449.5,-425.7 449.5,-403.7 356.5,-403.7"/>
<image xlink:href="../../images/foreignKeys.png" width="11px" height="12px" preserveAspectRatio="xMinYMin meet" x="361.5" y="-420.7"/>
<text text-anchor="start" x="380.5" y="-410.8" font-family="Helvetica,sans-Serif" font-size="11.00" fill="#000000">tag_id</text>
<polygon fill="none" stroke="#000000" points="356.5,-384.7 356.5,-403.7 449.5,-403.7 449.5,-384.7 356.5,-384.7"/>
<text text-anchor="start" x="359.5" y="-390.8" font-family="Helvetica,sans-Serif" font-size="11.00" fill="#000000">...</text>
<polygon fill="#ffffff" stroke="transparent" points="356.5,-365.7 356.5,-384.7 401.5,-384.7 401.5,-365.7 356.5,-365.7"/>
<polygon fill="none" stroke="#000000" points="356.5,-365.7 356.5,-384.7 401.5,-384.7 401.5,-365.7 356.5,-365.7"/>
<text text-anchor="start" x="359.5" y="-371.8" font-family="Helvetica,sans-Serif" font-size="11.00" fill="#000000">&lt; 2</text>
<polygon fill="#ffffff" stroke="transparent" points="401.5,-365.7 401.5,-384.7 425.5,-384.7 425.5,-365.7 401.5,-365.7"/>
<polygon fill="none" stroke="#000000" points="401.5,-365.7 401.5,-384.7 425.5,-384.7 425.5,-365.7 401.5,-365.7"/>
<text text-anchor="start" x="416.3862" y="-371.8" font-family="Helvetica,sans-Serif" font-size="11.00" fill="#000000"> &#160;</text>
<polygon fill="#ffffff" stroke="transparent" points="425.5,-365.7 425.5,-384.7 449.5,-384.7 449.5,-365.7 425.5,-365.7"/>
<polygon fill="none" stroke="#000000" points="425.5,-365.7 425.5,-384.7 449.5,-384.7 449.5,-365.7 425.5,-365.7"/>
<text text-anchor="start" x="440.3862" y="-371.8" font-family="Helvetica,sans-Serif" font-size="11.00" fill="#000000"> &#160;</text>
</a>
</g>
</g>
<!-- article_tag&#45;&gt;tag -->
<g id="edge5" class="edge">
<title>article_tag:w&#45;&gt;tag:e</title>
<path fill="none" stroke="#000000" d="M342.799,-410.1692C325.6358,-395.7239 335.2316,-351.7 305,-351.7"/>
<polygon fill="#000000" stroke="#000000" points="348.9045,-412.1882 355.3697,-418.118 352.7023,-413.4441 356.5,-414.7 356.5,-414.7 356.5,-414.7 352.7023,-413.4441 357.6303,-411.282 348.9045,-412.1882 348.9045,-412.1882"/>
<ellipse fill="none" stroke="#000000" cx="345.8663" cy="-411.1835" rx="3.2" ry="3.2"/>
</g>
<!-- article_tag&#45;&gt;article -->
<g id="edge4" class="edge">
<title>article_tag:w&#45;&gt;article:e</title>
<path fill="none" stroke="#000000" d="M341.6775,-436.7C306.0301,-436.7 291.9714,-436.7 250,-436.7"/>
<polygon fill="#000000" stroke="#000000" points="348.5,-436.7001 356.5,-440.3 352.5,-436.7 356.5,-436.7 356.5,-436.7 356.5,-436.7 352.5,-436.7 356.5,-433.1 348.5,-436.7001 348.5,-436.7001"/>
<ellipse fill="none" stroke="#000000" cx="345.3" cy="-436.7001" rx="3.2" ry="3.2"/>
</g>
<!-- tag_boost -->
<g id="node6" class="node">
<title>tag_boost</title>
<g id="a_node6"><a xlink:href="../../tables/tag_boost.html" xlink:title="tag_boost" target="_top">
<polygon fill="#ffffff" stroke="transparent" points="357,-240.2 357,-345.2 448,-345.2 448,-240.2 357,-240.2"/>
<polygon fill="#f5f5f5" stroke="transparent" points="357.5,-321.7 357.5,-344.7 448.5,-344.7 448.5,-321.7 357.5,-321.7"/>
<polygon fill="none" stroke="#000000" points="357.5,-321.7 357.5,-344.7 448.5,-344.7 448.5,-321.7 357.5,-321.7"/>
<text text-anchor="start" x="362.3484" y="-330.8" font-family="Helvetica,sans-Serif" font-weight="bold" font-size="11.00" fill="#000000">tag_boost</text>
<text text-anchor="start" x="414.0219" y="-329.8" font-family="Helvetica,sans-Serif" font-size="11.00" fill="#000000">[table]</text>
<polygon fill="none" stroke="#000000" points="357.5,-299.7 357.5,-321.7 448.5,-321.7 448.5,-299.7 357.5,-299.7"/>
<image xlink:href="../../images/primaryKeys.png" width="11px" height="12px" preserveAspectRatio="xMinYMin meet" x="362.5" y="-316.7"/>
<text text-anchor="start" x="380.5" y="-306.8" font-family="Helvetica,sans-Serif" font-size="11.00" fill="#000000">id</text>
<polygon fill="none" stroke="#000000" points="357.5,-277.7 357.5,-299.7 448.5,-299.7 448.5,-277.7 357.5,-277.7"/>
<image xlink:href="../../images/foreignKeys.png" width="11px" height="12px" preserveAspectRatio="xMinYMin meet" x="362.5" y="-294.7"/>
<text text-anchor="start" x="380.5" y="-284.8" font-family="Helvetica,sans-Serif" font-size="11.00" fill="#000000">tag_id</text>
<polygon fill="none" stroke="#000000" points="357.5,-258.7 357.5,-277.7 448.5,-277.7 448.5,-258.7 357.5,-258.7"/>
<text text-anchor="start" x="360.5" y="-264.8" font-family="Helvetica,sans-Serif" font-size="11.00" fill="#000000">...</text>
<polygon fill="#ffffff" stroke="transparent" points="357.5,-239.7 357.5,-258.7 401.5,-258.7 401.5,-239.7 357.5,-239.7"/>
<polygon fill="none" stroke="#000000" points="357.5,-239.7 357.5,-258.7 401.5,-258.7 401.5,-239.7 357.5,-239.7"/>
<text text-anchor="start" x="360.5" y="-245.8" font-family="Helvetica,sans-Serif" font-size="11.00" fill="#000000">&lt; 1</text>
<polygon fill="#ffffff" stroke="transparent" points="401.5,-239.7 401.5,-258.7 424.5,-258.7 424.5,-239.7 401.5,-239.7"/>
<polygon fill="none" stroke="#000000" points="401.5,-239.7 401.5,-258.7 424.5,-258.7 424.5,-239.7 401.5,-239.7"/>
<text text-anchor="start" x="415.3862" y="-245.8" font-family="Helvetica,sans-Serif" font-size="11.00" fill="#000000"> &#160;</text>
<polygon fill="#ffffff" stroke="transparent" points="424.5,-239.7 424.5,-258.7 448.5,-258.7 448.5,-239.7 424.5,-239.7"/>
<polygon fill="none" stroke="#000000" points="424.5,-239.7 424.5,-258.7 448.5,-258.7 448.5,-239.7 424.5,-239.7"/>
<text text-anchor="start" x="439.3862" y="-245.8" font-family="Helvetica,sans-Serif" font-size="11.00" fill="#000000"> &#160;</text>
</a>
</g>
</g>
<!-- tag_boost&#45;&gt;tag -->
<g id="edge6" class="edge">
<title>tag_boost:w&#45;&gt;tag:e</title>
<path fill="none" stroke="#000000" d="M343.6489,-293.2308C326.2145,-307.6761 335.4681,-351.7 305,-351.7"/>
<polygon fill="#000000" stroke="#000000" points="349.8964,-291.1872 358.6192,-292.1216 353.6982,-289.9436 357.5,-288.7 357.5,-288.7 357.5,-288.7 353.6982,-289.9436 356.3808,-285.2784 349.8964,-291.1872 349.8964,-291.1872"/>
<ellipse fill="none" stroke="#000000" cx="346.855" cy="-292.1821" rx="3.2" ry="3.2"/>
</g>
</g>
</svg>
