<?xml version="1.0" encoding="UTF-8" standalone="no"?>
<!DOCTYPE svg PUBLIC "-//W3C//DTD SVG 1.1//EN"
 "http://www.w3.org/Graphics/SVG/1.1/DTD/svg11.dtd">
<!-- Generated by graphviz version 2.40.1 (20161225.0304)
 -->
<!-- Title: oneDegreeRelationshipsDiagram Pages: 1 -->
<svg width="339pt" height="206pt"
 viewBox="0.00 0.00 339.00 206.20" xmlns="http://www.w3.org/2000/svg" xmlns:xlink="http://www.w3.org/1999/xlink">
<g id="graph0" class="graph" transform="scale(1 1) rotate(0) translate(4 202.2)">
<title>oneDegreeRelationshipsDiagram</title>
<polygon fill="#ffffff" stroke="transparent" points="-4,4 -4,-202.2 335,-202.2 335,4 -4,4"/>
<text text-anchor="middle" x="72.4936" y="-7.3" font-family="Helvetica,sans-Serif" font-size="11.00" fill="#000000">Generated by SchemaSpy</text>
<!-- tag_boost -->
<g id="node1" class="node">
<title>tag_boost</title>
<g id="a_node1"><a xlink:href="../../tables/tag_boost.html" xlink:title="tag_boost" target="_top">
<polygon fill="#ffffff" stroke="transparent" points="142,-38.2 142,-194.2 323,-194.2 323,-38.2 142,-38.2"/>
<polygon fill="#f5f5f5" stroke="transparent" points="144.5,-169.2 144.5,-192.2 321.5,-192.2 321.5,-169.2 144.5,-169.2"/>
<polygon fill="none" stroke="#000000" points="144.5,-169.2 144.5,-192.2 321.5,-192.2 321.5,-169.2 144.5,-169.2"/>
<text text-anchor="start" x="149.5" y="-178.3" font-family="Helvetica,sans-Serif" font-weight="bold" font-size="11.00" fill="#000000">tag_boost</text>
<text text-anchor="start" x="286.5437" y="-177.3" font-family="Helvetica,sans-Serif" font-size="11.00" fill="#000000">[table]</text>
<polygon fill="none" stroke="#000000" points="144.5,-147.2 144.5,-169.2 229.5,-169.2 229.5,-147.2 144.5,-147.2"/>
<image xlink:href="../../images/primaryKeys.png" width="11px" height="12px" preserveAspectRatio="xMinYMin meet" x="149.5" y="-164.2"/>
<text text-anchor="start" x="164.5" y="-154.3" font-family="Helvetica,sans-Serif" font-size="11.00" fill="#000000">id</text>
<polygon fill="none" stroke="#000000" points="229.5,-147.2 229.5,-169.2 321.5,-169.2 321.5,-147.2 229.5,-147.2"/>
<text text-anchor="start" x="232.5" y="-154.9" font-family="Helvetica,sans-Serif" font-size="11.00" fill="#000000">bigserial[19]</text>
<polygon fill="none" stroke="#000000" points="144.5,-125.2 144.5,-147.2 229.5,-147.2 229.5,-125.2 144.5,-125.2"/>
<image xlink:href="../../images/foreignKeys.png" width="11px" height="12px" preserveAspectRatio="xMinYMin meet" x="149.5" y="-142.2"/>
<text text-anchor="start" x="164.5" y="-132.3" font-family="Helvetica,sans-Serif" font-size="11.00" fill="#000000">tag_id</text>
<polygon fill="none" stroke="#000000" points="229.5,-125.2 229.5,-147.2 321.5,-147.2 321.5,-125.2 229.5,-125.2"/>
<text text-anchor="start" x="232.5" y="-132.9" font-family="Helvetica,sans-Serif" font-size="11.00" fill="#000000">int8[19]</text>
<polygon fill="none" stroke="#000000" points="144.5,-103.2 144.5,-125.2 229.5,-125.2 229.5,-103.2 144.5,-103.2"/>
<text text-anchor="start" x="164.5" y="-110.3" font-family="Helvetica,sans-Serif" font-size="11.00" fill="#000000">boost</text>
<polygon fill="none" stroke="#000000" points="229.5,-103.2 229.5,-125.2 321.5,-125.2 321.5,-103.2 229.5,-103.2"/>
<text text-anchor="start" x="232.5" y="-110.9" font-family="Helvetica,sans-Serif" font-size="11.00" fill="#000000">float4[8,8]</text>
<polygon fill="none" stroke="#000000" points="144.5,-81.2 144.5,-103.2 229.5,-103.2 229.5,-81.2 144.5,-81.2"/>
<text text-anchor="start" x="164.5" y="-88.3" font-family="Helvetica,sans-Serif" font-size="11.00" fill="#000000">created_at</text>
<polygon fill="none" stroke="#000000" points="229.5,-81.2 229.5,-103.2 321.5,-103.2 321.5,-81.2 229.5,-81.2"/>
<text text-anchor="start" x="232.1023" y="-88.9" font-family="Helvetica,sans-Serif" font-size="11.00" fill="#000000">timestamptz[35,6]</text>
<polygon fill="none" stroke="#000000" points="144.5,-59.2 144.5,-81.2 229.5,-81.2 229.5,-59.2 144.5,-59.2"/>
<text text-anchor="start" x="164.5" y="-66.3" font-family="Helvetica,sans-Serif" font-size="11.00" fill="#000000">updated_at</text>
<polygon fill="none" stroke="#000000" points="229.5,-59.2 229.5,-81.2 321.5,-81.2 321.5,-59.2 229.5,-59.2"/>
<text text-anchor="start" x="232.1023" y="-66.9" font-family="Helvetica,sans-Serif" font-size="11.00" fill="#000000">timestamptz[35,6]</text>
<polygon fill="#ffffff" stroke="transparent" points="144.5,-40.2 144.5,-59.2 191.5,-59.2 191.5,-40.2 144.5,-40.2"/>
<polygon fill="none" stroke="#000000" points="144.5,-40.2 144.5,-59.2 191.5,-59.2 191.5,-40.2 144.5,-40.2"/>
<text text-anchor="start" x="147.5" y="-46.3" font-family="Helvetica,sans-Serif" font-size="11.00" fill="#000000">&lt; 1</text>
<polygon fill="#ffffff" stroke="transparent" points="191.5,-40.2 191.5,-59.2 229.5,-59.2 229.5,-40.2 191.5,-40.2"/>
<polygon fill="none" stroke="#000000" points="191.5,-40.2 191.5,-59.2 229.5,-59.2 229.5,-40.2 191.5,-40.2"/>
<text text-anchor="start" x="220.3862" y="-46.3" font-family="Helvetica,sans-Serif" font-size="11.00" fill="#000000"> &#160;</text>
<polygon fill="#ffffff" stroke="transparent" points="229.5,-40.2 229.5,-59.2 321.5,-59.2 321.5,-40.2 229.5,-40.2"/>
<polygon fill="none" stroke="#000000" points="229.5,-40.2 229.5,-59.2 321.5,-59.2 321.5,-40.2 229.5,-40.2"/>
<text text-anchor="start" x="302.9053" y="-46.3" font-family="Helvetica,sans-Serif" font-size="11.00" fill="#000000">0 &gt;</text>
<polygon fill="none" stroke="#000000" stroke-width="2" points="143,-39.2 143,-193.2 322,-193.2 322,-39.2 143,-39.2"/>
</a>
</g>
</g>
<!-- tag -->
<g id="node2" class="node">
<title>tag</title>
<g id="a_node2"><a xlink:href="../../tables/tag.html" xlink:title="tag" target="_top">
<polygon fill="#ffffff" stroke="transparent" points="8,-65.7 8,-170.7 93,-170.7 93,-65.7 8,-65.7"/>
<polygon fill="#f5f5f5" stroke="transparent" points="8.5,-147.2 8.5,-170.2 93.5,-170.2 93.5,-147.2 8.5,-147.2"/>
<polygon fill="none" stroke="#000000" points="8.5,-147.2 8.5,-170.2 93.5,-170.2 93.5,-147.2 8.5,-147.2"/>
<text text-anchor="start" x="13.5" y="-156.3" font-family="Helvetica,sans-Serif" font-weight="bold" font-size="11.00" fill="#000000">tag</text>
<text text-anchor="start" x="58.5437" y="-155.3" font-family="Helvetica,sans-Serif" font-size="11.00" fill="#000000">[table]</text>
<polygon fill="none" stroke="#000000" points="8.5,-125.2 8.5,-147.2 93.5,-147.2 93.5,-125.2 8.5,-125.2"/>
<image xlink:href="../../images/primaryKeys.png" width="11px" height="12px" preserveAspectRatio="xMinYMin meet" x="13.5" y="-142.2"/>
<text text-anchor="start" x="28.5" y="-132.3" font-family="Helvetica,sans-Serif" font-size="11.00" fill="#000000">id</text>
<polygon fill="#ffffff" stroke="transparent" points="8.5,-103.2 8.5,-125.2 93.5,-125.2 93.5,-103.2 8.5,-103.2"/>
<polygon fill="none" stroke="#000000" points="8.5,-103.2 8.5,-125.2 93.5,-125.2 93.5,-103.2 8.5,-103.2"/>
<text text-anchor="start" x="28.5" y="-110.3" font-family="Helvetica,sans-Serif" font-size="11.00" fill="#000000">content</text>
<polygon fill="none" stroke="#000000" points="8.5,-84.2 8.5,-103.2 93.5,-103.2 93.5,-84.2 8.5,-84.2"/>
<text text-anchor="start" x="11.5" y="-90.3" font-family="Helvetica,sans-Serif" font-size="11.00" fill="#000000">...</text>
<polygon fill="#ffffff" stroke="transparent" points="8.5,-65.2 8.5,-84.2 40.5,-84.2 40.5,-65.2 8.5,-65.2"/>
<polygon fill="none" stroke="#000000" points="8.5,-65.2 8.5,-84.2 40.5,-84.2 40.5,-65.2 8.5,-65.2"/>
<text text-anchor="start" x="11.5" y="-71.3" font-family="Helvetica,sans-Serif" font-size="11.00" fill="#000000"> &#160;</text>
<polygon fill="#ffffff" stroke="transparent" points="40.5,-65.2 40.5,-84.2 62.5,-84.2 62.5,-65.2 40.5,-65.2"/>
<polygon fill="none" stroke="#000000" points="40.5,-65.2 40.5,-84.2 62.5,-84.2 62.5,-65.2 40.5,-65.2"/>
<text text-anchor="start" x="53.3862" y="-71.3" font-family="Helvetica,sans-Serif" font-size="11.00" fill="#000000"> &#160;</text>
<polygon fill="#ffffff" stroke="transparent" points="62.5,-65.2 62.5,-84.2 93.5,-84.2 93.5,-65.2 62.5,-65.2"/>
<polygon fill="none" stroke="#000000" points="62.5,-65.2 62.5,-84.2 93.5,-84.2 93.5,-65.2 62.5,-65.2"/>
<text text-anchor="start" x="74.9053" y="-71.3" font-family="Helvetica,sans-Serif" font-size="11.00" fill="#000000">3 &gt;</text>
</a>
</g>
</g>
<!-- tag_boost&#45;&gt;tag -->
<g id="edge1" class="edge">
<title>tag_boost:w&#45;&gt;tag:e</title>
<path fill="none" stroke="#000000" d="M129.776,-136.2C117.7815,-136.2 110.3229,-136.2 93.5,-136.2"/>
<polygon fill="#000000" stroke="#000000" points="136.5,-136.2001 144.5,-139.8 140.5,-136.2 144.5,-136.2 144.5,-136.2 144.5,-136.2 140.5,-136.2 144.5,-132.6 136.5,-136.2001 136.5,-136.2001"/>
<ellipse fill="none" stroke="#000000" cx="133.3" cy="-136.2001" rx="3.2" ry="3.2"/>
</g>
</g>
</svg>
