<?xml version="1.0" encoding="UTF-8" standalone="no"?>
<!DOCTYPE svg PUBLIC "-//W3C//DTD SVG 1.1//EN"
 "http://www.w3.org/Graphics/SVG/1.1/DTD/svg11.dtd">
<!-- Generated by graphviz version 2.40.1 (20161225.0304)
 -->
<!-- Title: twoDegreesRelationshipsDiagram Pages: 1 -->
<svg width="339pt" height="371pt"
 viewBox="0.00 0.00 339.00 370.70" xmlns="http://www.w3.org/2000/svg" xmlns:xlink="http://www.w3.org/1999/xlink">
<g id="graph0" class="graph" transform="scale(1 1) rotate(0) translate(4 366.7)">
<title>twoDegreesRelationshipsDiagram</title>
<polygon fill="#ffffff" stroke="transparent" points="-4,4 -4,-366.7 335,-366.7 335,4 -4,4"/>
<text text-anchor="middle" x="72.4936" y="-7.3" font-family="Helvetica,sans-Serif" font-size="11.00" fill="#000000">Generated by SchemaSpy</text>
<!-- action_tag -->
<g id="node1" class="node">
<title>action_tag</title>
<g id="a_node1"><a xlink:href="../../tables/action_tag.html" xlink:title="action_tag" target="_top">
<polygon fill="#ffffff" stroke="transparent" points="186,-297.7 186,-358.7 279,-358.7 279,-297.7 186,-297.7"/>
<polygon fill="#f5f5f5" stroke="transparent" points="186.5,-335.2 186.5,-358.2 279.5,-358.2 279.5,-335.2 186.5,-335.2"/>
<polygon fill="none" stroke="#000000" points="186.5,-335.2 186.5,-358.2 279.5,-358.2 279.5,-335.2 186.5,-335.2"/>
<text text-anchor="start" x="191.128" y="-344.3" font-family="Helvetica,sans-Serif" font-weight="bold" font-size="11.00" fill="#000000">action_tag</text>
<text text-anchor="start" x="245.0219" y="-343.3" font-family="Helvetica,sans-Serif" font-size="11.00" fill="#000000">[table]</text>
<polygon fill="none" stroke="#000000" points="186.5,-316.2 186.5,-335.2 279.5,-335.2 279.5,-316.2 186.5,-316.2"/>
<text text-anchor="start" x="189.5" y="-322.3" font-family="Helvetica,sans-Serif" font-size="11.00" fill="#000000">...</text>
<polygon fill="#ffffff" stroke="transparent" points="186.5,-297.2 186.5,-316.2 231.5,-316.2 231.5,-297.2 186.5,-297.2"/>
<polygon fill="none" stroke="#000000" points="186.5,-297.2 186.5,-316.2 231.5,-316.2 231.5,-297.2 186.5,-297.2"/>
<text text-anchor="start" x="189.5" y="-303.3" font-family="Helvetica,sans-Serif" font-size="11.00" fill="#000000">&lt; 2</text>
<polygon fill="#ffffff" stroke="transparent" points="231.5,-297.2 231.5,-316.2 255.5,-316.2 255.5,-297.2 231.5,-297.2"/>
<polygon fill="none" stroke="#000000" points="231.5,-297.2 231.5,-316.2 255.5,-316.2 255.5,-297.2 231.5,-297.2"/>
<text text-anchor="start" x="246.3862" y="-303.3" font-family="Helvetica,sans-Serif" font-size="11.00" fill="#000000"> &#160;</text>
<polygon fill="#ffffff" stroke="transparent" points="255.5,-297.2 255.5,-316.2 279.5,-316.2 279.5,-297.2 255.5,-297.2"/>
<polygon fill="none" stroke="#000000" points="255.5,-297.2 255.5,-316.2 279.5,-316.2 279.5,-297.2 255.5,-297.2"/>
<text text-anchor="start" x="270.3862" y="-303.3" font-family="Helvetica,sans-Serif" font-size="11.00" fill="#000000"> &#160;</text>
</a>
</g>
</g>
<!-- tag -->
<g id="node2" class="node">
<title>tag</title>
<g id="a_node2"><a xlink:href="../../tables/tag.html" xlink:title="tag" target="_top">
<polygon fill="#ffffff" stroke="transparent" points="8,-172.7 8,-277.7 93,-277.7 93,-172.7 8,-172.7"/>
<polygon fill="#f5f5f5" stroke="transparent" points="8.5,-254.2 8.5,-277.2 93.5,-277.2 93.5,-254.2 8.5,-254.2"/>
<polygon fill="none" stroke="#000000" points="8.5,-254.2 8.5,-277.2 93.5,-277.2 93.5,-254.2 8.5,-254.2"/>
<text text-anchor="start" x="13.5" y="-263.3" font-family="Helvetica,sans-Serif" font-weight="bold" font-size="11.00" fill="#000000">tag</text>
<text text-anchor="start" x="58.5437" y="-262.3" font-family="Helvetica,sans-Serif" font-size="11.00" fill="#000000">[table]</text>
<polygon fill="none" stroke="#000000" points="8.5,-232.2 8.5,-254.2 93.5,-254.2 93.5,-232.2 8.5,-232.2"/>
<image xlink:href="../../images/primaryKeys.png" width="11px" height="12px" preserveAspectRatio="xMinYMin meet" x="13.5" y="-249.2"/>
<text text-anchor="start" x="28.5" y="-239.3" font-family="Helvetica,sans-Serif" font-size="11.00" fill="#000000">id</text>
<polygon fill="#ffffff" stroke="transparent" points="8.5,-210.2 8.5,-232.2 93.5,-232.2 93.5,-210.2 8.5,-210.2"/>
<polygon fill="none" stroke="#000000" points="8.5,-210.2 8.5,-232.2 93.5,-232.2 93.5,-210.2 8.5,-210.2"/>
<text text-anchor="start" x="28.5" y="-217.3" font-family="Helvetica,sans-Serif" font-size="11.00" fill="#000000">content</text>
<polygon fill="none" stroke="#000000" points="8.5,-191.2 8.5,-210.2 93.5,-210.2 93.5,-191.2 8.5,-191.2"/>
<text text-anchor="start" x="11.5" y="-197.3" font-family="Helvetica,sans-Serif" font-size="11.00" fill="#000000">...</text>
<polygon fill="#ffffff" stroke="transparent" points="8.5,-172.2 8.5,-191.2 40.5,-191.2 40.5,-172.2 8.5,-172.2"/>
<polygon fill="none" stroke="#000000" points="8.5,-172.2 8.5,-191.2 40.5,-191.2 40.5,-172.2 8.5,-172.2"/>
<text text-anchor="start" x="11.5" y="-178.3" font-family="Helvetica,sans-Serif" font-size="11.00" fill="#000000"> &#160;</text>
<polygon fill="#ffffff" stroke="transparent" points="40.5,-172.2 40.5,-191.2 62.5,-191.2 62.5,-172.2 40.5,-172.2"/>
<polygon fill="none" stroke="#000000" points="40.5,-172.2 40.5,-191.2 62.5,-191.2 62.5,-172.2 40.5,-172.2"/>
<text text-anchor="start" x="53.3862" y="-178.3" font-family="Helvetica,sans-Serif" font-size="11.00" fill="#000000"> &#160;</text>
<polygon fill="#ffffff" stroke="transparent" points="62.5,-172.2 62.5,-191.2 93.5,-191.2 93.5,-172.2 62.5,-172.2"/>
<polygon fill="none" stroke="#000000" points="62.5,-172.2 62.5,-191.2 93.5,-191.2 93.5,-172.2 62.5,-172.2"/>
<text text-anchor="start" x="74.9053" y="-178.3" font-family="Helvetica,sans-Serif" font-size="11.00" fill="#000000">3 &gt;</text>
</a>
</g>
</g>
<!-- action_tag&#45;&gt;tag -->
<g id="edge1" class="edge">
<title>action_tag:w&#45;&gt;tag:e</title>
<path fill="none" stroke="#000000" d="M171.859,-323.0209C156.0164,-317.5255 151.1552,-302.4497 134,-287.2 114.1353,-269.5418 120.0786,-243.2 93.5,-243.2"/>
<polygon fill="#000000" stroke="#000000" points="178.5872,-324.0223 185.97,-328.7608 182.5436,-324.6111 186.5,-325.2 186.5,-325.2 186.5,-325.2 182.5436,-324.6111 187.03,-321.6392 178.5872,-324.0223 178.5872,-324.0223"/>
<ellipse fill="none" stroke="#000000" cx="175.422" cy="-323.5512" rx="3.2" ry="3.2"/>
</g>
<!-- article_tag -->
<g id="node3" class="node">
<title>article_tag</title>
<g id="a_node3"><a xlink:href="../../tables/article_tag.html" xlink:title="article_tag" target="_top">
<polygon fill="#ffffff" stroke="transparent" points="186,-215.7 186,-276.7 279,-276.7 279,-215.7 186,-215.7"/>
<polygon fill="#f5f5f5" stroke="transparent" points="186.5,-253.2 186.5,-276.2 279.5,-276.2 279.5,-253.2 186.5,-253.2"/>
<polygon fill="none" stroke="#000000" points="186.5,-253.2 186.5,-276.2 279.5,-276.2 279.5,-253.2 186.5,-253.2"/>
<text text-anchor="start" x="191.134" y="-262.3" font-family="Helvetica,sans-Serif" font-weight="bold" font-size="11.00" fill="#000000">article_tag</text>
<text text-anchor="start" x="245.0219" y="-261.3" font-family="Helvetica,sans-Serif" font-size="11.00" fill="#000000">[table]</text>
<polygon fill="none" stroke="#000000" points="186.5,-234.2 186.5,-253.2 279.5,-253.2 279.5,-234.2 186.5,-234.2"/>
<text text-anchor="start" x="189.5" y="-240.3" font-family="Helvetica,sans-Serif" font-size="11.00" fill="#000000">...</text>
<polygon fill="#ffffff" stroke="transparent" points="186.5,-215.2 186.5,-234.2 231.5,-234.2 231.5,-215.2 186.5,-215.2"/>
<polygon fill="none" stroke="#000000" points="186.5,-215.2 186.5,-234.2 231.5,-234.2 231.5,-215.2 186.5,-215.2"/>
<text text-anchor="start" x="189.5" y="-221.3" font-family="Helvetica,sans-Serif" font-size="11.00" fill="#000000">&lt; 2</text>
<polygon fill="#ffffff" stroke="transparent" points="231.5,-215.2 231.5,-234.2 255.5,-234.2 255.5,-215.2 231.5,-215.2"/>
<polygon fill="none" stroke="#000000" points="231.5,-215.2 231.5,-234.2 255.5,-234.2 255.5,-215.2 231.5,-215.2"/>
<text text-anchor="start" x="246.3862" y="-221.3" font-family="Helvetica,sans-Serif" font-size="11.00" fill="#000000"> &#160;</text>
<polygon fill="#ffffff" stroke="transparent" points="255.5,-215.2 255.5,-234.2 279.5,-234.2 279.5,-215.2 255.5,-215.2"/>
<polygon fill="none" stroke="#000000" points="255.5,-215.2 255.5,-234.2 279.5,-234.2 279.5,-215.2 255.5,-215.2"/>
<text text-anchor="start" x="270.3862" y="-221.3" font-family="Helvetica,sans-Serif" font-size="11.00" fill="#000000"> &#160;</text>
</a>
</g>
</g>
<!-- article_tag&#45;&gt;tag -->
<g id="edge2" class="edge">
<title>article_tag:w&#45;&gt;tag:e</title>
<path fill="none" stroke="#000000" d="M171.9282,-243.2C141.9875,-243.2 129.5052,-243.2 93.5,-243.2"/>
<polygon fill="#000000" stroke="#000000" points="178.5,-243.2001 186.5,-246.8 182.5,-243.2 186.5,-243.2 186.5,-243.2 186.5,-243.2 182.5,-243.2 186.5,-239.6 178.5,-243.2001 178.5,-243.2001"/>
<ellipse fill="none" stroke="#000000" cx="175.3" cy="-243.2001" rx="3.2" ry="3.2"/>
</g>
<!-- tag_boost -->
<g id="node4" class="node">
<title>tag_boost</title>
<g id="a_node4"><a xlink:href="../../tables/tag_boost.html" xlink:title="tag_boost" target="_top">
<polygon fill="#ffffff" stroke="transparent" points="142,-38.2 142,-194.2 323,-194.2 323,-38.2 142,-38.2"/>
<polygon fill="#f5f5f5" stroke="transparent" points="144.5,-169.2 144.5,-192.2 321.5,-192.2 321.5,-169.2 144.5,-169.2"/>
<polygon fill="none" stroke="#000000" points="144.5,-169.2 144.5,-192.2 321.5,-192.2 321.5,-169.2 144.5,-169.2"/>
<text text-anchor="start" x="149.5" y="-178.3" font-family="Helvetica,sans-Serif" font-weight="bold" font-size="11.00" fill="#000000">tag_boost</text>
<text text-anchor="start" x="286.5437" y="-177.3" font-family="Helvetica,sans-Serif" font-size="11.00" fill="#000000">[table]</text>
<polygon fill="none" stroke="#000000" points="144.5,-147.2 144.5,-169.2 229.5,-169.2 229.5,-147.2 144.5,-147.2"/>
<image xlink:href="../../images/primaryKeys.png" width="11px" height="12px" preserveAspectRatio="xMinYMin meet" x="149.5" y="-164.2"/>
<text text-anchor="start" x="164.5" y="-154.3" font-family="Helvetica,sans-Serif" font-size="11.00" fill="#000000">id</text>
<polygon fill="none" stroke="#000000" points="229.5,-147.2 229.5,-169.2 321.5,-169.2 321.5,-147.2 229.5,-147.2"/>
<text text-anchor="start" x="232.5" y="-154.9" font-family="Helvetica,sans-Serif" font-size="11.00" fill="#000000">bigserial[19]</text>
<polygon fill="none" stroke="#000000" points="144.5,-125.2 144.5,-147.2 229.5,-147.2 229.5,-125.2 144.5,-125.2"/>
<image xlink:href="../../images/foreignKeys.png" width="11px" height="12px" preserveAspectRatio="xMinYMin meet" x="149.5" y="-142.2"/>
<text text-anchor="start" x="164.5" y="-132.3" font-family="Helvetica,sans-Serif" font-size="11.00" fill="#000000">tag_id</text>
<polygon fill="none" stroke="#000000" points="229.5,-125.2 229.5,-147.2 321.5,-147.2 321.5,-125.2 229.5,-125.2"/>
<text text-anchor="start" x="232.5" y="-132.9" font-family="Helvetica,sans-Serif" font-size="11.00" fill="#000000">int8[19]</text>
<polygon fill="none" stroke="#000000" points="144.5,-103.2 144.5,-125.2 229.5,-125.2 229.5,-103.2 144.5,-103.2"/>
<text text-anchor="start" x="164.5" y="-110.3" font-family="Helvetica,sans-Serif" font-size="11.00" fill="#000000">boost</text>
<polygon fill="none" stroke="#000000" points="229.5,-103.2 229.5,-125.2 321.5,-125.2 321.5,-103.2 229.5,-103.2"/>
<text text-anchor="start" x="232.5" y="-110.9" font-family="Helvetica,sans-Serif" font-size="11.00" fill="#000000">float4[8,8]</text>
<polygon fill="none" stroke="#000000" points="144.5,-81.2 144.5,-103.2 229.5,-103.2 229.5,-81.2 144.5,-81.2"/>
<text text-anchor="start" x="164.5" y="-88.3" font-family="Helvetica,sans-Serif" font-size="11.00" fill="#000000">created_at</text>
<polygon fill="none" stroke="#000000" points="229.5,-81.2 229.5,-103.2 321.5,-103.2 321.5,-81.2 229.5,-81.2"/>
<text text-anchor="start" x="232.1023" y="-88.9" font-family="Helvetica,sans-Serif" font-size="11.00" fill="#000000">timestamptz[35,6]</text>
<polygon fill="none" stroke="#000000" points="144.5,-59.2 144.5,-81.2 229.5,-81.2 229.5,-59.2 144.5,-59.2"/>
<text text-anchor="start" x="164.5" y="-66.3" font-family="Helvetica,sans-Serif" font-size="11.00" fill="#000000">updated_at</text>
<polygon fill="none" stroke="#000000" points="229.5,-59.2 229.5,-81.2 321.5,-81.2 321.5,-59.2 229.5,-59.2"/>
<text text-anchor="start" x="232.1023" y="-66.9" font-family="Helvetica,sans-Serif" font-size="11.00" fill="#000000">timestamptz[35,6]</text>
<polygon fill="#ffffff" stroke="transparent" points="144.5,-40.2 144.5,-59.2 191.5,-59.2 191.5,-40.2 144.5,-40.2"/>
<polygon fill="none" stroke="#000000" points="144.5,-40.2 144.5,-59.2 191.5,-59.2 191.5,-40.2 144.5,-40.2"/>
<text text-anchor="start" x="147.5" y="-46.3" font-family="Helvetica,sans-Serif" font-size="11.00" fill="#000000">&lt; 1</text>
<polygon fill="#ffffff" stroke="transparent" points="191.5,-40.2 191.5,-59.2 229.5,-59.2 229.5,-40.2 191.5,-40.2"/>
<polygon fill="none" stroke="#000000" points="191.5,-40.2 191.5,-59.2 229.5,-59.2 229.5,-40.2 191.5,-40.2"/>
<text text-anchor="start" x="220.3862" y="-46.3" font-family="Helvetica,sans-Serif" font-size="11.00" fill="#000000"> &#160;</text>
<polygon fill="#ffffff" stroke="transparent" points="229.5,-40.2 229.5,-59.2 321.5,-59.2 321.5,-40.2 229.5,-40.2"/>
<polygon fill="none" stroke="#000000" points="229.5,-40.2 229.5,-59.2 321.5,-59.2 321.5,-40.2 229.5,-40.2"/>
<text text-anchor="start" x="302.9053" y="-46.3" font-family="Helvetica,sans-Serif" font-size="11.00" fill="#000000">0 &gt;</text>
<polygon fill="none" stroke="#000000" stroke-width="2" points="143,-39.2 143,-193.2 322,-193.2 322,-39.2 143,-39.2"/>
</a>
</g>
</g>
<!-- tag_boost&#45;&gt;tag -->
<g id="edge3" class="edge">
<title>tag_boost:w&#45;&gt;tag:e</title>
<path fill="none" stroke="#000000" d="M130.4064,-140.0082C102.7616,-159.0691 140.2134,-243.2 93.5,-243.2"/>
<polygon fill="#000000" stroke="#000000" points="136.777,-138.2869 145.4391,-139.6754 140.6385,-137.2434 144.5,-136.2 144.5,-136.2 144.5,-136.2 140.6385,-137.2434 143.5609,-132.7246 136.777,-138.2869 136.777,-138.2869"/>
<ellipse fill="none" stroke="#000000" cx="133.6878" cy="-139.1216" rx="3.2" ry="3.2"/>
</g>
</g>
</svg>
