<?xml version="1.0" encoding="UTF-8" standalone="no"?>
<!DOCTYPE svg PUBLIC "-//W3C//DTD SVG 1.1//EN"
 "http://www.w3.org/Graphics/SVG/1.1/DTD/svg11.dtd">
<!-- Generated by graphviz version 2.40.1 (20161225.0304)
 -->
<!-- Title: oneDegreeRelationshipsDiagram Pages: 1 -->
<svg width="479pt" height="322pt"
 viewBox="0.00 0.00 479.00 321.70" xmlns="http://www.w3.org/2000/svg" xmlns:xlink="http://www.w3.org/1999/xlink">
<g id="graph0" class="graph" transform="scale(1 1) rotate(0) translate(4 317.7)">
<title>oneDegreeRelationshipsDiagram</title>
<polygon fill="#ffffff" stroke="transparent" points="-4,4 -4,-317.7 475,-317.7 475,4 -4,4"/>
<text text-anchor="middle" x="72.4936" y="-7.3" font-family="Helvetica,sans-Serif" font-size="11.00" fill="#000000">Generated by SchemaSpy</text>
<!-- transaction_obsolete -->
<g id="node1" class="node">
<title>transaction_obsolete</title>
<g id="a_node1"><a xlink:href="../../tables/transaction_obsolete.html" xlink:title="transaction_obsolete" target="_top">
<polygon fill="#ffffff" stroke="transparent" points="224,-65.7 224,-309.7 463,-309.7 463,-65.7 224,-65.7"/>
<polygon fill="#f5f5f5" stroke="transparent" points="226.5,-284.7 226.5,-307.7 461.5,-307.7 461.5,-284.7 226.5,-284.7"/>
<polygon fill="none" stroke="#000000" points="226.5,-284.7 226.5,-307.7 461.5,-307.7 461.5,-284.7 226.5,-284.7"/>
<text text-anchor="start" x="231.5" y="-293.8" font-family="Helvetica,sans-Serif" font-weight="bold" font-size="11.00" fill="#000000">transaction_obsolete</text>
<text text-anchor="start" x="426.5437" y="-292.8" font-family="Helvetica,sans-Serif" font-size="11.00" fill="#000000">[table]</text>
<polygon fill="none" stroke="#000000" points="226.5,-262.7 226.5,-284.7 367.5,-284.7 367.5,-262.7 226.5,-262.7"/>
<image xlink:href="../../images/primaryKeys.png" width="11px" height="12px" preserveAspectRatio="xMinYMin meet" x="231.5" y="-279.7"/>
<text text-anchor="start" x="246.5" y="-269.8" font-family="Helvetica,sans-Serif" font-size="11.00" fill="#000000">id</text>
<polygon fill="none" stroke="#000000" points="367.5,-262.7 367.5,-284.7 461.5,-284.7 461.5,-262.7 367.5,-262.7"/>
<text text-anchor="start" x="370.5" y="-270.4" font-family="Helvetica,sans-Serif" font-size="11.00" fill="#000000">bigserial[19]</text>
<polygon fill="none" stroke="#000000" points="226.5,-240.7 226.5,-262.7 367.5,-262.7 367.5,-240.7 226.5,-240.7"/>
<text text-anchor="start" x="246.5" y="-247.8" font-family="Helvetica,sans-Serif" font-size="11.00" fill="#000000">uuid</text>
<polygon fill="none" stroke="#000000" points="367.5,-240.7 367.5,-262.7 461.5,-262.7 461.5,-240.7 367.5,-240.7"/>
<text text-anchor="start" x="370.4758" y="-248.4" font-family="Helvetica,sans-Serif" font-size="11.00" fill="#000000">uuid[2147483647]</text>
<polygon fill="none" stroke="#000000" points="226.5,-218.7 226.5,-240.7 367.5,-240.7 367.5,-218.7 226.5,-218.7"/>
<image xlink:href="../../images/foreignKeys.png" width="11px" height="12px" preserveAspectRatio="xMinYMin meet" x="231.5" y="-235.7"/>
<text text-anchor="start" x="246.5" y="-225.8" font-family="Helvetica,sans-Serif" font-size="11.00" fill="#000000">sender_id</text>
<polygon fill="none" stroke="#000000" points="367.5,-218.7 367.5,-240.7 461.5,-240.7 461.5,-218.7 367.5,-218.7"/>
<text text-anchor="start" x="370.5" y="-226.4" font-family="Helvetica,sans-Serif" font-size="11.00" fill="#000000">int8[19]</text>
<polygon fill="none" stroke="#000000" points="226.5,-196.7 226.5,-218.7 367.5,-218.7 367.5,-196.7 226.5,-196.7"/>
<image xlink:href="../../images/foreignKeys.png" width="11px" height="12px" preserveAspectRatio="xMinYMin meet" x="231.5" y="-213.7"/>
<text text-anchor="start" x="246.5" y="-203.8" font-family="Helvetica,sans-Serif" font-size="11.00" fill="#000000">recipient_id</text>
<polygon fill="none" stroke="#000000" points="367.5,-196.7 367.5,-218.7 461.5,-218.7 461.5,-196.7 367.5,-196.7"/>
<text text-anchor="start" x="370.5" y="-204.4" font-family="Helvetica,sans-Serif" font-size="11.00" fill="#000000">int8[19]</text>
<polygon fill="none" stroke="#000000" points="226.5,-174.7 226.5,-196.7 367.5,-196.7 367.5,-174.7 226.5,-174.7"/>
<text text-anchor="start" x="246.5" y="-181.8" font-family="Helvetica,sans-Serif" font-size="11.00" fill="#000000">amount</text>
<polygon fill="none" stroke="#000000" points="367.5,-174.7 367.5,-196.7 461.5,-196.7 461.5,-174.7 367.5,-174.7"/>
<text text-anchor="start" x="370.5" y="-182.4" font-family="Helvetica,sans-Serif" font-size="11.00" fill="#000000">int4[10]</text>
<polygon fill="#ffffff" stroke="transparent" points="226.5,-152.7 226.5,-174.7 367.5,-174.7 367.5,-152.7 226.5,-152.7"/>
<polygon fill="none" stroke="#000000" points="226.5,-152.7 226.5,-174.7 367.5,-174.7 367.5,-152.7 226.5,-152.7"/>
<text text-anchor="start" x="246.5" y="-159.8" font-family="Helvetica,sans-Serif" font-size="11.00" fill="#000000">purpose</text>
<polygon fill="none" stroke="#000000" points="367.5,-152.7 367.5,-174.7 461.5,-174.7 461.5,-152.7 367.5,-152.7"/>
<text text-anchor="start" x="370.5" y="-160.4" font-family="Helvetica,sans-Serif" font-size="11.00" fill="#000000">text[2147483647]</text>
<polygon fill="#ffffff" stroke="transparent" points="226.5,-130.7 226.5,-152.7 367.5,-152.7 367.5,-130.7 226.5,-130.7"/>
<polygon fill="none" stroke="#000000" points="226.5,-130.7 226.5,-152.7 367.5,-152.7 367.5,-130.7 226.5,-130.7"/>
<text text-anchor="start" x="246.5" y="-137.8" font-family="Helvetica,sans-Serif" font-size="11.00" fill="#000000">reference_id</text>
<polygon fill="none" stroke="#000000" points="367.5,-130.7 367.5,-152.7 461.5,-152.7 461.5,-130.7 367.5,-130.7"/>
<text text-anchor="start" x="370.5" y="-138.4" font-family="Helvetica,sans-Serif" font-size="11.00" fill="#000000">int8[19]</text>
<polygon fill="none" stroke="#000000" points="226.5,-108.7 226.5,-130.7 367.5,-130.7 367.5,-108.7 226.5,-108.7"/>
<text text-anchor="start" x="246.5" y="-115.8" font-family="Helvetica,sans-Serif" font-size="11.00" fill="#000000">created_at</text>
<polygon fill="none" stroke="#000000" points="367.5,-108.7 367.5,-130.7 461.5,-130.7 461.5,-108.7 367.5,-108.7"/>
<text text-anchor="start" x="370.5" y="-116.4" font-family="Helvetica,sans-Serif" font-size="11.00" fill="#000000">timestamptz[35,6]</text>
<polygon fill="none" stroke="#000000" points="226.5,-86.7 226.5,-108.7 367.5,-108.7 367.5,-86.7 226.5,-86.7"/>
<text text-anchor="start" x="246.5" y="-93.8" font-family="Helvetica,sans-Serif" font-size="11.00" fill="#000000">type</text>
<polygon fill="none" stroke="#000000" points="367.5,-86.7 367.5,-108.7 461.5,-108.7 461.5,-86.7 367.5,-86.7"/>
<text text-anchor="start" x="370.5" y="-94.4" font-family="Helvetica,sans-Serif" font-size="11.00" fill="#000000">text[2147483647]</text>
<polygon fill="#ffffff" stroke="transparent" points="226.5,-67.7 226.5,-86.7 301.5,-86.7 301.5,-67.7 226.5,-67.7"/>
<polygon fill="none" stroke="#000000" points="226.5,-67.7 226.5,-86.7 301.5,-86.7 301.5,-67.7 226.5,-67.7"/>
<text text-anchor="start" x="229.5" y="-73.8" font-family="Helvetica,sans-Serif" font-size="11.00" fill="#000000">&lt; 2</text>
<polygon fill="#ffffff" stroke="transparent" points="301.5,-67.7 301.5,-86.7 367.5,-86.7 367.5,-67.7 301.5,-67.7"/>
<polygon fill="none" stroke="#000000" points="301.5,-67.7 301.5,-86.7 367.5,-86.7 367.5,-67.7 301.5,-67.7"/>
<text text-anchor="start" x="358.3862" y="-73.8" font-family="Helvetica,sans-Serif" font-size="11.00" fill="#000000"> &#160;</text>
<polygon fill="#ffffff" stroke="transparent" points="367.5,-67.7 367.5,-86.7 461.5,-86.7 461.5,-67.7 367.5,-67.7"/>
<polygon fill="none" stroke="#000000" points="367.5,-67.7 367.5,-86.7 461.5,-86.7 461.5,-67.7 367.5,-67.7"/>
<text text-anchor="start" x="442.9053" y="-73.8" font-family="Helvetica,sans-Serif" font-size="11.00" fill="#000000">0 &gt;</text>
<polygon fill="none" stroke="#000000" stroke-width="2" points="225,-66.7 225,-308.7 462,-308.7 462,-66.7 225,-66.7"/>
</a>
</g>
</g>
<!-- user -->
<g id="node2" class="node">
<title>user</title>
<g id="a_node2"><a xlink:href="../../tables/user.html" xlink:title="user" target="_top">
<polygon fill="#ffffff" stroke="transparent" points="8,-38.2 8,-253.2 175,-253.2 175,-38.2 8,-38.2"/>
<polygon fill="#f5f5f5" stroke="transparent" points="8.5,-229.7 8.5,-252.7 175.5,-252.7 175.5,-229.7 8.5,-229.7"/>
<polygon fill="none" stroke="#000000" points="8.5,-229.7 8.5,-252.7 175.5,-252.7 175.5,-229.7 8.5,-229.7"/>
<text text-anchor="start" x="13.5" y="-238.8" font-family="Helvetica,sans-Serif" font-weight="bold" font-size="11.00" fill="#000000">user</text>
<text text-anchor="start" x="140.5437" y="-237.8" font-family="Helvetica,sans-Serif" font-size="11.00" fill="#000000">[table]</text>
<polygon fill="none" stroke="#000000" points="8.5,-207.7 8.5,-229.7 175.5,-229.7 175.5,-207.7 8.5,-207.7"/>
<image xlink:href="../../images/primaryKeys.png" width="11px" height="12px" preserveAspectRatio="xMinYMin meet" x="13.5" y="-224.7"/>
<text text-anchor="start" x="28.5" y="-214.8" font-family="Helvetica,sans-Serif" font-size="11.00" fill="#000000">id</text>
<polygon fill="#ffffff" stroke="transparent" points="8.5,-185.7 8.5,-207.7 175.5,-207.7 175.5,-185.7 8.5,-185.7"/>
<polygon fill="none" stroke="#000000" points="8.5,-185.7 8.5,-207.7 175.5,-207.7 175.5,-185.7 8.5,-185.7"/>
<text text-anchor="start" x="28.5" y="-192.8" font-family="Helvetica,sans-Serif" font-size="11.00" fill="#000000">uuid</text>
<polygon fill="#ffffff" stroke="transparent" points="8.5,-163.7 8.5,-185.7 175.5,-185.7 175.5,-163.7 8.5,-163.7"/>
<polygon fill="none" stroke="#000000" points="8.5,-163.7 8.5,-185.7 175.5,-185.7 175.5,-163.7 8.5,-163.7"/>
<text text-anchor="start" x="28.5" y="-170.8" font-family="Helvetica,sans-Serif" font-size="11.00" fill="#000000">user_name</text>
<polygon fill="none" stroke="#000000" points="8.5,-141.7 8.5,-163.7 175.5,-163.7 175.5,-141.7 8.5,-141.7"/>
<image xlink:href="../../images/foreignKeys.png" width="11px" height="12px" preserveAspectRatio="xMinYMin meet" x="13.5" y="-158.7"/>
<text text-anchor="start" x="28.5" y="-148.8" font-family="Helvetica,sans-Serif" font-size="11.00" fill="#000000">avatar</text>
<polygon fill="#ffffff" stroke="transparent" points="8.5,-119.7 8.5,-141.7 175.5,-141.7 175.5,-119.7 8.5,-119.7"/>
<polygon fill="none" stroke="#000000" points="8.5,-119.7 8.5,-141.7 175.5,-141.7 175.5,-119.7 8.5,-119.7"/>
<text text-anchor="start" x="28.5" y="-126.8" font-family="Helvetica,sans-Serif" font-size="11.00" fill="#000000">email</text>
<polygon fill="#ffffff" stroke="transparent" points="8.5,-97.7 8.5,-119.7 175.5,-119.7 175.5,-97.7 8.5,-97.7"/>
<polygon fill="none" stroke="#000000" points="8.5,-97.7 8.5,-119.7 175.5,-119.7 175.5,-97.7 8.5,-97.7"/>
<text text-anchor="start" x="28.5" y="-104.8" font-family="Helvetica,sans-Serif" font-size="11.00" fill="#000000">state</text>
<polygon fill="#ffffff" stroke="transparent" points="8.5,-75.7 8.5,-97.7 175.5,-97.7 175.5,-75.7 8.5,-75.7"/>
<polygon fill="none" stroke="#000000" points="8.5,-75.7 8.5,-97.7 175.5,-97.7 175.5,-75.7 8.5,-75.7"/>
<text text-anchor="start" x="28.5" y="-82.8" font-family="Helvetica,sans-Serif" font-size="11.00" fill="#000000">liker_id</text>
<polygon fill="none" stroke="#000000" points="8.5,-56.7 8.5,-75.7 175.5,-75.7 175.5,-56.7 8.5,-56.7"/>
<text text-anchor="start" x="11.5" y="-62.8" font-family="Helvetica,sans-Serif" font-size="11.00" fill="#000000">...</text>
<polygon fill="#ffffff" stroke="transparent" points="8.5,-37.7 8.5,-56.7 82.5,-56.7 82.5,-37.7 8.5,-37.7"/>
<polygon fill="none" stroke="#000000" points="8.5,-37.7 8.5,-56.7 82.5,-56.7 82.5,-37.7 8.5,-37.7"/>
<text text-anchor="start" x="11.5" y="-43.8" font-family="Helvetica,sans-Serif" font-size="11.00" fill="#000000">&lt; 1</text>
<polygon fill="#ffffff" stroke="transparent" points="82.5,-37.7 82.5,-56.7 121.5,-56.7 121.5,-37.7 82.5,-37.7"/>
<polygon fill="none" stroke="#000000" points="82.5,-37.7 82.5,-56.7 121.5,-56.7 121.5,-37.7 82.5,-37.7"/>
<text text-anchor="start" x="112.3862" y="-43.8" font-family="Helvetica,sans-Serif" font-size="11.00" fill="#000000"> &#160;</text>
<polygon fill="#ffffff" stroke="transparent" points="121.5,-37.7 121.5,-56.7 175.5,-56.7 175.5,-37.7 121.5,-37.7"/>
<polygon fill="none" stroke="#000000" points="121.5,-37.7 121.5,-56.7 175.5,-56.7 175.5,-37.7 121.5,-37.7"/>
<text text-anchor="start" x="150.7904" y="-43.8" font-family="Helvetica,sans-Serif" font-size="11.00" fill="#000000">42 &gt;</text>
</a>
</g>
</g>
<!-- transaction_obsolete&#45;&gt;user -->
<g id="edge1" class="edge">
<title>transaction_obsolete:w&#45;&gt;user:e</title>
<path fill="none" stroke="#000000" d="M212.0097,-209.4188C199.8398,-212.5125 192.8909,-218.7 175.5,-218.7"/>
<polygon fill="#000000" stroke="#000000" points="218.5557,-208.6424 226.9241,-211.2749 222.5278,-208.1712 226.5,-207.7 226.5,-207.7 226.5,-207.7 222.5278,-208.1712 226.0759,-204.1251 218.5557,-208.6424 218.5557,-208.6424"/>
<ellipse fill="none" stroke="#000000" cx="215.378" cy="-209.0193" rx="3.2" ry="3.2"/>
</g>
<!-- transaction_obsolete&#45;&gt;user -->
<g id="edge2" class="edge">
<title>transaction_obsolete:w&#45;&gt;user:e</title>
<path fill="none" stroke="#000000" d="M212.0097,-227.9813C199.8398,-224.8875 192.8909,-218.7 175.5,-218.7"/>
<polygon fill="#000000" stroke="#000000" points="218.5557,-228.7576 226.0759,-233.2749 222.5278,-229.2288 226.5,-229.7 226.5,-229.7 226.5,-229.7 222.5278,-229.2288 226.9241,-226.1251 218.5557,-228.7576 218.5557,-228.7576"/>
<ellipse fill="none" stroke="#000000" cx="215.378" cy="-228.3807" rx="3.2" ry="3.2"/>
</g>
</g>
</svg>
