<?xml version="1.0" encoding="UTF-8" standalone="no"?>
<!DOCTYPE svg PUBLIC "-//W3C//DTD SVG 1.1//EN"
 "http://www.w3.org/Graphics/SVG/1.1/DTD/svg11.dtd">
<!-- Generated by graphviz version 2.40.1 (20161225.0304)
 -->
<!-- Title: oneDegreeRelationshipsDiagram Pages: 1 -->
<svg width="439pt" height="528pt"
 viewBox="0.00 0.00 439.00 528.20" xmlns="http://www.w3.org/2000/svg" xmlns:xlink="http://www.w3.org/1999/xlink">
<g id="graph0" class="graph" transform="scale(1 1) rotate(0) translate(4 524.2)">
<title>oneDegreeRelationshipsDiagram</title>
<polygon fill="#ffffff" stroke="transparent" points="-4,4 -4,-524.2 435,-524.2 435,4 -4,4"/>
<text text-anchor="middle" x="72.4936" y="-7.3" font-family="Helvetica,sans-Serif" font-size="11.00" fill="#000000">Generated by SchemaSpy</text>
<!-- transaction -->
<g id="node1" class="node">
<title>transaction</title>
<g id="a_node1"><a xlink:href="../../tables/transaction.html" xlink:title="transaction" target="_top">
<polygon fill="#ffffff" stroke="transparent" points="224,-140.2 224,-516.2 423,-516.2 423,-140.2 224,-140.2"/>
<polygon fill="#f5f5f5" stroke="transparent" points="226.5,-491.2 226.5,-514.2 421.5,-514.2 421.5,-491.2 226.5,-491.2"/>
<polygon fill="none" stroke="#000000" points="226.5,-491.2 226.5,-514.2 421.5,-514.2 421.5,-491.2 226.5,-491.2"/>
<text text-anchor="start" x="231.5" y="-500.3" font-family="Helvetica,sans-Serif" font-weight="bold" font-size="11.00" fill="#000000">transaction</text>
<text text-anchor="start" x="386.5437" y="-499.3" font-family="Helvetica,sans-Serif" font-size="11.00" fill="#000000">[table]</text>
<polygon fill="none" stroke="#000000" points="226.5,-469.2 226.5,-491.2 329.5,-491.2 329.5,-469.2 226.5,-469.2"/>
<image xlink:href="../../images/primaryKeys.png" width="11px" height="12px" preserveAspectRatio="xMinYMin meet" x="231.5" y="-486.2"/>
<text text-anchor="start" x="246.5" y="-476.3" font-family="Helvetica,sans-Serif" font-size="11.00" fill="#000000">id</text>
<polygon fill="none" stroke="#000000" points="329.5,-469.2 329.5,-491.2 421.5,-491.2 421.5,-469.2 329.5,-469.2"/>
<text text-anchor="start" x="332.5" y="-476.9" font-family="Helvetica,sans-Serif" font-size="11.00" fill="#000000">bigserial[19]</text>
<polygon fill="none" stroke="#000000" points="226.5,-447.2 226.5,-469.2 329.5,-469.2 329.5,-447.2 226.5,-447.2"/>
<text text-anchor="start" x="246.5" y="-454.3" font-family="Helvetica,sans-Serif" font-size="11.00" fill="#000000">amount</text>
<polygon fill="none" stroke="#000000" points="329.5,-447.2 329.5,-469.2 421.5,-469.2 421.5,-447.2 329.5,-447.2"/>
<text text-anchor="start" x="332.5" y="-454.9" font-family="Helvetica,sans-Serif" font-size="11.00" fill="#000000">numeric[36,18]</text>
<polygon fill="#ffffff" stroke="transparent" points="226.5,-425.2 226.5,-447.2 329.5,-447.2 329.5,-425.2 226.5,-425.2"/>
<polygon fill="none" stroke="#000000" points="226.5,-425.2 226.5,-447.2 329.5,-447.2 329.5,-425.2 226.5,-425.2"/>
<text text-anchor="start" x="246.5" y="-432.3" font-family="Helvetica,sans-Serif" font-size="11.00" fill="#000000">currency</text>
<polygon fill="none" stroke="#000000" points="329.5,-425.2 329.5,-447.2 421.5,-447.2 421.5,-425.2 329.5,-425.2"/>
<text text-anchor="start" x="332.5" y="-432.9" font-family="Helvetica,sans-Serif" font-size="11.00" fill="#000000">text[2147483647]</text>
<polygon fill="#ffffff" stroke="transparent" points="226.5,-403.2 226.5,-425.2 329.5,-425.2 329.5,-403.2 226.5,-403.2"/>
<polygon fill="none" stroke="#000000" points="226.5,-403.2 226.5,-425.2 329.5,-425.2 329.5,-403.2 226.5,-403.2"/>
<text text-anchor="start" x="246.5" y="-410.3" font-family="Helvetica,sans-Serif" font-size="11.00" fill="#000000">state</text>
<polygon fill="none" stroke="#000000" points="329.5,-403.2 329.5,-425.2 421.5,-425.2 421.5,-403.2 329.5,-403.2"/>
<text text-anchor="start" x="332.5" y="-410.9" font-family="Helvetica,sans-Serif" font-size="11.00" fill="#000000">text[2147483647]</text>
<polygon fill="#ffffff" stroke="transparent" points="226.5,-381.2 226.5,-403.2 329.5,-403.2 329.5,-381.2 226.5,-381.2"/>
<polygon fill="none" stroke="#000000" points="226.5,-381.2 226.5,-403.2 329.5,-403.2 329.5,-381.2 226.5,-381.2"/>
<text text-anchor="start" x="246.5" y="-388.3" font-family="Helvetica,sans-Serif" font-size="11.00" fill="#000000">purpose</text>
<polygon fill="none" stroke="#000000" points="329.5,-381.2 329.5,-403.2 421.5,-403.2 421.5,-381.2 329.5,-381.2"/>
<text text-anchor="start" x="332.5" y="-388.9" font-family="Helvetica,sans-Serif" font-size="11.00" fill="#000000">text[2147483647]</text>
<polygon fill="none" stroke="#000000" points="226.5,-359.2 226.5,-381.2 329.5,-381.2 329.5,-359.2 226.5,-359.2"/>
<text text-anchor="start" x="246.5" y="-366.3" font-family="Helvetica,sans-Serif" font-size="11.00" fill="#000000">provider</text>
<polygon fill="none" stroke="#000000" points="329.5,-359.2 329.5,-381.2 421.5,-381.2 421.5,-359.2 329.5,-359.2"/>
<text text-anchor="start" x="332.5" y="-366.9" font-family="Helvetica,sans-Serif" font-size="11.00" fill="#000000">text[2147483647]</text>
<polygon fill="#ffffff" stroke="transparent" points="226.5,-337.2 226.5,-359.2 329.5,-359.2 329.5,-337.2 226.5,-337.2"/>
<polygon fill="none" stroke="#000000" points="226.5,-337.2 226.5,-359.2 329.5,-359.2 329.5,-337.2 226.5,-337.2"/>
<text text-anchor="start" x="246.5" y="-344.3" font-family="Helvetica,sans-Serif" font-size="11.00" fill="#000000">provider_tx_id</text>
<polygon fill="none" stroke="#000000" points="329.5,-337.2 329.5,-359.2 421.5,-359.2 421.5,-337.2 329.5,-337.2"/>
<text text-anchor="start" x="332.5" y="-344.9" font-family="Helvetica,sans-Serif" font-size="11.00" fill="#000000">varchar[255]</text>
<polygon fill="#ffffff" stroke="transparent" points="226.5,-315.2 226.5,-337.2 329.5,-337.2 329.5,-315.2 226.5,-315.2"/>
<polygon fill="none" stroke="#000000" points="226.5,-315.2 226.5,-337.2 329.5,-337.2 329.5,-315.2 226.5,-315.2"/>
<image xlink:href="../../images/foreignKeys.png" width="11px" height="12px" preserveAspectRatio="xMinYMin meet" x="231.5" y="-332.2"/>
<text text-anchor="start" x="246.5" y="-322.3" font-family="Helvetica,sans-Serif" font-size="11.00" fill="#000000">sender_id</text>
<polygon fill="none" stroke="#000000" points="329.5,-315.2 329.5,-337.2 421.5,-337.2 421.5,-315.2 329.5,-315.2"/>
<text text-anchor="start" x="332.5" y="-322.9" font-family="Helvetica,sans-Serif" font-size="11.00" fill="#000000">int8[19]</text>
<polygon fill="#ffffff" stroke="transparent" points="226.5,-293.2 226.5,-315.2 329.5,-315.2 329.5,-293.2 226.5,-293.2"/>
<polygon fill="none" stroke="#000000" points="226.5,-293.2 226.5,-315.2 329.5,-315.2 329.5,-293.2 226.5,-293.2"/>
<image xlink:href="../../images/foreignKeys.png" width="11px" height="12px" preserveAspectRatio="xMinYMin meet" x="231.5" y="-310.2"/>
<text text-anchor="start" x="246.5" y="-300.3" font-family="Helvetica,sans-Serif" font-size="11.00" fill="#000000">recipient_id</text>
<polygon fill="none" stroke="#000000" points="329.5,-293.2 329.5,-315.2 421.5,-315.2 421.5,-293.2 329.5,-293.2"/>
<text text-anchor="start" x="332.5" y="-300.9" font-family="Helvetica,sans-Serif" font-size="11.00" fill="#000000">int8[19]</text>
<polygon fill="none" stroke="#000000" points="226.5,-271.2 226.5,-293.2 329.5,-293.2 329.5,-271.2 226.5,-271.2"/>
<text text-anchor="start" x="246.5" y="-278.3" font-family="Helvetica,sans-Serif" font-size="11.00" fill="#000000">target_id</text>
<polygon fill="none" stroke="#000000" points="329.5,-271.2 329.5,-293.2 421.5,-293.2 421.5,-271.2 329.5,-271.2"/>
<text text-anchor="start" x="332.5" y="-278.9" font-family="Helvetica,sans-Serif" font-size="11.00" fill="#000000">int8[19]</text>
<polygon fill="none" stroke="#000000" points="226.5,-249.2 226.5,-271.2 329.5,-271.2 329.5,-249.2 226.5,-249.2"/>
<image xlink:href="../../images/foreignKeys.png" width="11px" height="12px" preserveAspectRatio="xMinYMin meet" x="231.5" y="-266.2"/>
<text text-anchor="start" x="246.5" y="-256.3" font-family="Helvetica,sans-Serif" font-size="11.00" fill="#000000">target_type</text>
<polygon fill="none" stroke="#000000" points="329.5,-249.2 329.5,-271.2 421.5,-271.2 421.5,-249.2 329.5,-249.2"/>
<text text-anchor="start" x="332.5" y="-256.9" font-family="Helvetica,sans-Serif" font-size="11.00" fill="#000000">int8[19]</text>
<polygon fill="#ffffff" stroke="transparent" points="226.5,-227.2 226.5,-249.2 329.5,-249.2 329.5,-227.2 226.5,-227.2"/>
<polygon fill="none" stroke="#000000" points="226.5,-227.2 226.5,-249.2 329.5,-249.2 329.5,-227.2 226.5,-227.2"/>
<text text-anchor="start" x="246.5" y="-234.3" font-family="Helvetica,sans-Serif" font-size="11.00" fill="#000000">created_at</text>
<polygon fill="none" stroke="#000000" points="329.5,-227.2 329.5,-249.2 421.5,-249.2 421.5,-227.2 329.5,-227.2"/>
<text text-anchor="start" x="332.1023" y="-234.9" font-family="Helvetica,sans-Serif" font-size="11.00" fill="#000000">timestamptz[35,6]</text>
<polygon fill="none" stroke="#000000" points="226.5,-205.2 226.5,-227.2 329.5,-227.2 329.5,-205.2 226.5,-205.2"/>
<text text-anchor="start" x="246.5" y="-212.3" font-family="Helvetica,sans-Serif" font-size="11.00" fill="#000000">updated_at</text>
<polygon fill="none" stroke="#000000" points="329.5,-205.2 329.5,-227.2 421.5,-227.2 421.5,-205.2 329.5,-205.2"/>
<text text-anchor="start" x="332.1023" y="-212.9" font-family="Helvetica,sans-Serif" font-size="11.00" fill="#000000">timestamptz[35,6]</text>
<polygon fill="none" stroke="#000000" points="226.5,-183.2 226.5,-205.2 329.5,-205.2 329.5,-183.2 226.5,-183.2"/>
<text text-anchor="start" x="246.5" y="-190.3" font-family="Helvetica,sans-Serif" font-size="11.00" fill="#000000">fee</text>
<polygon fill="none" stroke="#000000" points="329.5,-183.2 329.5,-205.2 421.5,-205.2 421.5,-183.2 329.5,-183.2"/>
<text text-anchor="start" x="332.5" y="-190.9" font-family="Helvetica,sans-Serif" font-size="11.00" fill="#000000">numeric[36,18]</text>
<polygon fill="none" stroke="#000000" points="226.5,-161.2 226.5,-183.2 329.5,-183.2 329.5,-161.2 226.5,-161.2"/>
<text text-anchor="start" x="246.5" y="-168.3" font-family="Helvetica,sans-Serif" font-size="11.00" fill="#000000">remark</text>
<polygon fill="none" stroke="#000000" points="329.5,-161.2 329.5,-183.2 421.5,-183.2 421.5,-161.2 329.5,-161.2"/>
<text text-anchor="start" x="332.5" y="-168.9" font-family="Helvetica,sans-Serif" font-size="11.00" fill="#000000">varchar[255]</text>
<polygon fill="#ffffff" stroke="transparent" points="226.5,-142.2 226.5,-161.2 282.5,-161.2 282.5,-142.2 226.5,-142.2"/>
<polygon fill="none" stroke="#000000" points="226.5,-142.2 226.5,-161.2 282.5,-161.2 282.5,-142.2 226.5,-142.2"/>
<text text-anchor="start" x="229.5" y="-148.3" font-family="Helvetica,sans-Serif" font-size="11.00" fill="#000000">&lt; 3</text>
<polygon fill="#ffffff" stroke="transparent" points="282.5,-142.2 282.5,-161.2 329.5,-161.2 329.5,-142.2 282.5,-142.2"/>
<polygon fill="none" stroke="#000000" points="282.5,-142.2 282.5,-161.2 329.5,-161.2 329.5,-142.2 282.5,-142.2"/>
<text text-anchor="start" x="320.3862" y="-148.3" font-family="Helvetica,sans-Serif" font-size="11.00" fill="#000000"> &#160;</text>
<polygon fill="#ffffff" stroke="transparent" points="329.5,-142.2 329.5,-161.2 421.5,-161.2 421.5,-142.2 329.5,-142.2"/>
<polygon fill="none" stroke="#000000" points="329.5,-142.2 329.5,-161.2 421.5,-161.2 421.5,-142.2 329.5,-142.2"/>
<text text-anchor="start" x="402.9053" y="-148.3" font-family="Helvetica,sans-Serif" font-size="11.00" fill="#000000">0 &gt;</text>
<polygon fill="none" stroke="#000000" stroke-width="2" points="225,-141.2 225,-515.2 422,-515.2 422,-141.2 225,-141.2"/>
</a>
</g>
</g>
<!-- user -->
<g id="node2" class="node">
<title>user</title>
<g id="a_node2"><a xlink:href="../../tables/user.html" xlink:title="user" target="_top">
<polygon fill="#ffffff" stroke="transparent" points="8,-145.7 8,-360.7 175,-360.7 175,-145.7 8,-145.7"/>
<polygon fill="#f5f5f5" stroke="transparent" points="8.5,-337.2 8.5,-360.2 175.5,-360.2 175.5,-337.2 8.5,-337.2"/>
<polygon fill="none" stroke="#000000" points="8.5,-337.2 8.5,-360.2 175.5,-360.2 175.5,-337.2 8.5,-337.2"/>
<text text-anchor="start" x="13.5" y="-346.3" font-family="Helvetica,sans-Serif" font-weight="bold" font-size="11.00" fill="#000000">user</text>
<text text-anchor="start" x="140.5437" y="-345.3" font-family="Helvetica,sans-Serif" font-size="11.00" fill="#000000">[table]</text>
<polygon fill="none" stroke="#000000" points="8.5,-315.2 8.5,-337.2 175.5,-337.2 175.5,-315.2 8.5,-315.2"/>
<image xlink:href="../../images/primaryKeys.png" width="11px" height="12px" preserveAspectRatio="xMinYMin meet" x="13.5" y="-332.2"/>
<text text-anchor="start" x="28.5" y="-322.3" font-family="Helvetica,sans-Serif" font-size="11.00" fill="#000000">id</text>
<polygon fill="#ffffff" stroke="transparent" points="8.5,-293.2 8.5,-315.2 175.5,-315.2 175.5,-293.2 8.5,-293.2"/>
<polygon fill="none" stroke="#000000" points="8.5,-293.2 8.5,-315.2 175.5,-315.2 175.5,-293.2 8.5,-293.2"/>
<text text-anchor="start" x="28.5" y="-300.3" font-family="Helvetica,sans-Serif" font-size="11.00" fill="#000000">uuid</text>
<polygon fill="#ffffff" stroke="transparent" points="8.5,-271.2 8.5,-293.2 175.5,-293.2 175.5,-271.2 8.5,-271.2"/>
<polygon fill="none" stroke="#000000" points="8.5,-271.2 8.5,-293.2 175.5,-293.2 175.5,-271.2 8.5,-271.2"/>
<text text-anchor="start" x="28.5" y="-278.3" font-family="Helvetica,sans-Serif" font-size="11.00" fill="#000000">user_name</text>
<polygon fill="none" stroke="#000000" points="8.5,-249.2 8.5,-271.2 175.5,-271.2 175.5,-249.2 8.5,-249.2"/>
<image xlink:href="../../images/foreignKeys.png" width="11px" height="12px" preserveAspectRatio="xMinYMin meet" x="13.5" y="-266.2"/>
<text text-anchor="start" x="28.5" y="-256.3" font-family="Helvetica,sans-Serif" font-size="11.00" fill="#000000">avatar</text>
<polygon fill="#ffffff" stroke="transparent" points="8.5,-227.2 8.5,-249.2 175.5,-249.2 175.5,-227.2 8.5,-227.2"/>
<polygon fill="none" stroke="#000000" points="8.5,-227.2 8.5,-249.2 175.5,-249.2 175.5,-227.2 8.5,-227.2"/>
<text text-anchor="start" x="28.5" y="-234.3" font-family="Helvetica,sans-Serif" font-size="11.00" fill="#000000">email</text>
<polygon fill="#ffffff" stroke="transparent" points="8.5,-205.2 8.5,-227.2 175.5,-227.2 175.5,-205.2 8.5,-205.2"/>
<polygon fill="none" stroke="#000000" points="8.5,-205.2 8.5,-227.2 175.5,-227.2 175.5,-205.2 8.5,-205.2"/>
<text text-anchor="start" x="28.5" y="-212.3" font-family="Helvetica,sans-Serif" font-size="11.00" fill="#000000">state</text>
<polygon fill="#ffffff" stroke="transparent" points="8.5,-183.2 8.5,-205.2 175.5,-205.2 175.5,-183.2 8.5,-183.2"/>
<polygon fill="none" stroke="#000000" points="8.5,-183.2 8.5,-205.2 175.5,-205.2 175.5,-183.2 8.5,-183.2"/>
<text text-anchor="start" x="28.5" y="-190.3" font-family="Helvetica,sans-Serif" font-size="11.00" fill="#000000">liker_id</text>
<polygon fill="none" stroke="#000000" points="8.5,-164.2 8.5,-183.2 175.5,-183.2 175.5,-164.2 8.5,-164.2"/>
<text text-anchor="start" x="11.5" y="-170.3" font-family="Helvetica,sans-Serif" font-size="11.00" fill="#000000">...</text>
<polygon fill="#ffffff" stroke="transparent" points="8.5,-145.2 8.5,-164.2 82.5,-164.2 82.5,-145.2 8.5,-145.2"/>
<polygon fill="none" stroke="#000000" points="8.5,-145.2 8.5,-164.2 82.5,-164.2 82.5,-145.2 8.5,-145.2"/>
<text text-anchor="start" x="11.5" y="-151.3" font-family="Helvetica,sans-Serif" font-size="11.00" fill="#000000">&lt; 1</text>
<polygon fill="#ffffff" stroke="transparent" points="82.5,-145.2 82.5,-164.2 121.5,-164.2 121.5,-145.2 82.5,-145.2"/>
<polygon fill="none" stroke="#000000" points="82.5,-145.2 82.5,-164.2 121.5,-164.2 121.5,-145.2 82.5,-145.2"/>
<text text-anchor="start" x="112.3862" y="-151.3" font-family="Helvetica,sans-Serif" font-size="11.00" fill="#000000"> &#160;</text>
<polygon fill="#ffffff" stroke="transparent" points="121.5,-145.2 121.5,-164.2 175.5,-164.2 175.5,-145.2 121.5,-145.2"/>
<polygon fill="none" stroke="#000000" points="121.5,-145.2 121.5,-164.2 175.5,-164.2 175.5,-145.2 121.5,-145.2"/>
<text text-anchor="start" x="150.7904" y="-151.3" font-family="Helvetica,sans-Serif" font-size="11.00" fill="#000000">42 &gt;</text>
</a>
</g>
</g>
<!-- transaction&#45;&gt;user -->
<g id="edge1" class="edge">
<title>transaction:w&#45;&gt;user:e</title>
<path fill="none" stroke="#000000" d="M212.3489,-307.259C199.7843,-313.304 194.4,-326.2 175.5,-326.2"/>
<polygon fill="#000000" stroke="#000000" points="218.6806,-305.8903 227.2607,-307.7187 222.5903,-305.0452 226.5,-304.2 226.5,-304.2 226.5,-304.2 222.5903,-305.0452 225.7393,-300.6813 218.6806,-305.8903 218.6806,-305.8903"/>
<ellipse fill="none" stroke="#000000" cx="215.5528" cy="-306.5665" rx="3.2" ry="3.2"/>
</g>
<!-- transaction&#45;&gt;user -->
<g id="edge2" class="edge">
<title>transaction:w&#45;&gt;user:e</title>
<path fill="none" stroke="#000000" d="M211.776,-326.2C199.7815,-326.2 192.3229,-326.2 175.5,-326.2"/>
<polygon fill="#000000" stroke="#000000" points="218.5,-326.2001 226.5,-329.8 222.5,-326.2 226.5,-326.2 226.5,-326.2 226.5,-326.2 222.5,-326.2 226.5,-322.6 218.5,-326.2001 218.5,-326.2001"/>
<ellipse fill="none" stroke="#000000" cx="215.3" cy="-326.2001" rx="3.2" ry="3.2"/>
</g>
<!-- entity_type -->
<g id="node3" class="node">
<title>entity_type</title>
<g id="a_node3"><a xlink:href="../../tables/entity_type.html" xlink:title="entity_type" target="_top">
<polygon fill="#ffffff" stroke="transparent" points="43.5,-38.2 43.5,-124.2 139.5,-124.2 139.5,-38.2 43.5,-38.2"/>
<polygon fill="#f5f5f5" stroke="transparent" points="43.5,-101.2 43.5,-124.2 139.5,-124.2 139.5,-101.2 43.5,-101.2"/>
<polygon fill="none" stroke="#000000" points="43.5,-101.2 43.5,-124.2 139.5,-124.2 139.5,-101.2 43.5,-101.2"/>
<text text-anchor="start" x="48.407" y="-110.3" font-family="Helvetica,sans-Serif" font-weight="bold" font-size="11.00" fill="#000000">entity_type</text>
<text text-anchor="start" x="105.0219" y="-109.3" font-family="Helvetica,sans-Serif" font-size="11.00" fill="#000000">[table]</text>
<polygon fill="none" stroke="#000000" points="43.5,-79.2 43.5,-101.2 139.5,-101.2 139.5,-79.2 43.5,-79.2"/>
<image xlink:href="../../images/primaryKeys.png" width="11px" height="12px" preserveAspectRatio="xMinYMin meet" x="48.5" y="-96.2"/>
<text text-anchor="start" x="69.5" y="-86.3" font-family="Helvetica,sans-Serif" font-size="11.00" fill="#000000">id</text>
<polygon fill="#ffffff" stroke="transparent" points="43.5,-57.2 43.5,-79.2 139.5,-79.2 139.5,-57.2 43.5,-57.2"/>
<polygon fill="none" stroke="#000000" points="43.5,-57.2 43.5,-79.2 139.5,-79.2 139.5,-57.2 43.5,-57.2"/>
<text text-anchor="start" x="69.5" y="-64.3" font-family="Helvetica,sans-Serif" font-size="11.00" fill="#000000">table</text>
<polygon fill="#ffffff" stroke="transparent" points="43.5,-38.2 43.5,-57.2 80.5,-57.2 80.5,-38.2 43.5,-38.2"/>
<polygon fill="none" stroke="#000000" points="43.5,-38.2 43.5,-57.2 80.5,-57.2 80.5,-38.2 43.5,-38.2"/>
<text text-anchor="start" x="46.5" y="-44.3" font-family="Helvetica,sans-Serif" font-size="11.00" fill="#000000"> &#160;</text>
<polygon fill="#ffffff" stroke="transparent" points="80.5,-38.2 80.5,-57.2 105.5,-57.2 105.5,-38.2 80.5,-38.2"/>
<polygon fill="none" stroke="#000000" points="80.5,-38.2 80.5,-57.2 105.5,-57.2 105.5,-38.2 80.5,-38.2"/>
<text text-anchor="start" x="96.3862" y="-44.3" font-family="Helvetica,sans-Serif" font-size="11.00" fill="#000000"> &#160;</text>
<polygon fill="#ffffff" stroke="transparent" points="105.5,-38.2 105.5,-57.2 139.5,-57.2 139.5,-38.2 105.5,-38.2"/>
<polygon fill="none" stroke="#000000" points="105.5,-38.2 105.5,-57.2 139.5,-57.2 139.5,-38.2 105.5,-38.2"/>
<text text-anchor="start" x="120.9053" y="-44.3" font-family="Helvetica,sans-Serif" font-size="11.00" fill="#000000">3 &gt;</text>
</a>
</g>
</g>
<!-- transaction&#45;&gt;entity_type -->
<g id="edge3" class="edge">
<title>transaction:w&#45;&gt;entity_type:e</title>
<path fill="none" stroke="#000000" d="M212.1005,-258.1499C175.9567,-245.8071 210.8193,-180.4047 183,-135.2 168.4209,-111.5098 167.3169,-90.2 139.5,-90.2"/>
<polygon fill="#000000" stroke="#000000" points="218.5799,-259.0723 225.9925,-263.7641 222.5399,-259.6362 226.5,-260.2 226.5,-260.2 226.5,-260.2 222.5399,-259.6362 227.0075,-256.6359 218.5799,-259.0723 218.5799,-259.0723"/>
<ellipse fill="none" stroke="#000000" cx="215.4118" cy="-258.6212" rx="3.2" ry="3.2"/>
</g>
</g>
</svg>
