<?xml version="1.0" encoding="UTF-8" standalone="no"?>
<!DOCTYPE svg PUBLIC "-//W3C//DTD SVG 1.1//EN"
 "http://www.w3.org/Graphics/SVG/1.1/DTD/svg11.dtd">
<!-- Generated by graphviz version 2.40.1 (20161225.0304)
 -->
<!-- Title: oneDegreeRelationshipsDiagram Pages: 1 -->
<svg width="436pt" height="294pt"
 viewBox="0.00 0.00 436.00 294.20" xmlns="http://www.w3.org/2000/svg" xmlns:xlink="http://www.w3.org/1999/xlink">
<g id="graph0" class="graph" transform="scale(1 1) rotate(0) translate(4 290.2)">
<title>oneDegreeRelationshipsDiagram</title>
<polygon fill="#ffffff" stroke="transparent" points="-4,4 -4,-290.2 432,-290.2 432,4 -4,4"/>
<text text-anchor="middle" x="72.4936" y="-7.3" font-family="Helvetica,sans-Serif" font-size="11.00" fill="#000000">Generated by SchemaSpy</text>
<!-- user_oauth -->
<g id="node1" class="node">
<title>user_oauth</title>
<g id="a_node1"><a xlink:href="../../tables/user_oauth.html" xlink:title="user_oauth" target="_top">
<polygon fill="#ffffff" stroke="transparent" points="224,-38.2 224,-282.2 420,-282.2 420,-38.2 224,-38.2"/>
<polygon fill="#f5f5f5" stroke="transparent" points="226,-257.2 226,-280.2 418,-280.2 418,-257.2 226,-257.2"/>
<polygon fill="none" stroke="#000000" points="226,-257.2 226,-280.2 418,-280.2 418,-257.2 226,-257.2"/>
<text text-anchor="start" x="231" y="-266.3" font-family="Helvetica,sans-Serif" font-weight="bold" font-size="11.00" fill="#000000">user_oauth</text>
<text text-anchor="start" x="383.0437" y="-265.3" font-family="Helvetica,sans-Serif" font-size="11.00" fill="#000000">[table]</text>
<polygon fill="none" stroke="#000000" points="226,-235.2 226,-257.2 326,-257.2 326,-235.2 226,-235.2"/>
<image xlink:href="../../images/primaryKeys.png" width="11px" height="12px" preserveAspectRatio="xMinYMin meet" x="231" y="-252.2"/>
<text text-anchor="start" x="246" y="-242.3" font-family="Helvetica,sans-Serif" font-size="11.00" fill="#000000">id</text>
<polygon fill="none" stroke="#000000" points="326,-235.2 326,-257.2 418,-257.2 418,-235.2 326,-235.2"/>
<text text-anchor="start" x="329" y="-242.9" font-family="Helvetica,sans-Serif" font-size="11.00" fill="#000000">bigserial[19]</text>
<polygon fill="none" stroke="#000000" points="226,-213.2 226,-235.2 326,-235.2 326,-213.2 226,-213.2"/>
<image xlink:href="../../images/foreignKeys.png" width="11px" height="12px" preserveAspectRatio="xMinYMin meet" x="231" y="-230.2"/>
<text text-anchor="start" x="246" y="-220.3" font-family="Helvetica,sans-Serif" font-size="11.00" fill="#000000">user_id</text>
<polygon fill="none" stroke="#000000" points="326,-213.2 326,-235.2 418,-235.2 418,-213.2 326,-213.2"/>
<text text-anchor="start" x="329" y="-220.9" font-family="Helvetica,sans-Serif" font-size="11.00" fill="#000000">int8[19]</text>
<polygon fill="none" stroke="#000000" points="226,-191.2 226,-213.2 326,-213.2 326,-191.2 226,-191.2"/>
<text text-anchor="start" x="246" y="-198.3" font-family="Helvetica,sans-Serif" font-size="11.00" fill="#000000">access_token</text>
<polygon fill="none" stroke="#000000" points="326,-191.2 326,-213.2 418,-213.2 418,-191.2 326,-191.2"/>
<text text-anchor="start" x="329" y="-198.9" font-family="Helvetica,sans-Serif" font-size="11.00" fill="#000000">text[2147483647]</text>
<polygon fill="none" stroke="#000000" points="226,-169.2 226,-191.2 326,-191.2 326,-169.2 226,-169.2"/>
<text text-anchor="start" x="246" y="-176.3" font-family="Helvetica,sans-Serif" font-size="11.00" fill="#000000">created_at</text>
<polygon fill="none" stroke="#000000" points="326,-169.2 326,-191.2 418,-191.2 418,-169.2 326,-169.2"/>
<text text-anchor="start" x="328.6023" y="-176.9" font-family="Helvetica,sans-Serif" font-size="11.00" fill="#000000">timestamptz[35,6]</text>
<polygon fill="none" stroke="#000000" points="226,-147.2 226,-169.2 326,-169.2 326,-147.2 226,-147.2"/>
<text text-anchor="start" x="246" y="-154.3" font-family="Helvetica,sans-Serif" font-size="11.00" fill="#000000">updated_at</text>
<polygon fill="none" stroke="#000000" points="326,-147.2 326,-169.2 418,-169.2 418,-147.2 326,-147.2"/>
<text text-anchor="start" x="328.6023" y="-154.9" font-family="Helvetica,sans-Serif" font-size="11.00" fill="#000000">timestamptz[35,6]</text>
<polygon fill="none" stroke="#000000" points="226,-125.2 226,-147.2 326,-147.2 326,-125.2 226,-125.2"/>
<text text-anchor="start" x="246" y="-132.3" font-family="Helvetica,sans-Serif" font-size="11.00" fill="#000000">refresh_token</text>
<polygon fill="none" stroke="#000000" points="326,-125.2 326,-147.2 418,-147.2 418,-125.2 326,-125.2"/>
<text text-anchor="start" x="329" y="-132.9" font-family="Helvetica,sans-Serif" font-size="11.00" fill="#000000">varchar[255]</text>
<polygon fill="none" stroke="#000000" points="226,-103.2 226,-125.2 326,-125.2 326,-103.2 226,-103.2"/>
<text text-anchor="start" x="246" y="-110.3" font-family="Helvetica,sans-Serif" font-size="11.00" fill="#000000">provider</text>
<polygon fill="none" stroke="#000000" points="326,-103.2 326,-125.2 418,-125.2 418,-103.2 326,-103.2"/>
<text text-anchor="start" x="329" y="-110.9" font-family="Helvetica,sans-Serif" font-size="11.00" fill="#000000">text[2147483647]</text>
<polygon fill="none" stroke="#000000" points="226,-81.2 226,-103.2 326,-103.2 326,-81.2 226,-81.2"/>
<text text-anchor="start" x="246" y="-88.3" font-family="Helvetica,sans-Serif" font-size="11.00" fill="#000000">scope</text>
<polygon fill="none" stroke="#000000" points="326,-81.2 326,-103.2 418,-103.2 418,-81.2 326,-81.2"/>
<text text-anchor="start" x="329" y="-88.9" font-family="Helvetica,sans-Serif" font-size="11.00" fill="#000000">text[2147483647]</text>
<polygon fill="none" stroke="#000000" points="226,-59.2 226,-81.2 326,-81.2 326,-59.2 226,-59.2"/>
<text text-anchor="start" x="246" y="-66.3" font-family="Helvetica,sans-Serif" font-size="11.00" fill="#000000">expires</text>
<polygon fill="none" stroke="#000000" points="326,-59.2 326,-81.2 418,-81.2 418,-59.2 326,-59.2"/>
<text text-anchor="start" x="328.6023" y="-66.9" font-family="Helvetica,sans-Serif" font-size="11.00" fill="#000000">timestamptz[35,6]</text>
<polygon fill="#ffffff" stroke="transparent" points="226,-40.2 226,-59.2 280,-59.2 280,-40.2 226,-40.2"/>
<polygon fill="none" stroke="#000000" points="226,-40.2 226,-59.2 280,-59.2 280,-40.2 226,-40.2"/>
<text text-anchor="start" x="229" y="-46.3" font-family="Helvetica,sans-Serif" font-size="11.00" fill="#000000">&lt; 1</text>
<polygon fill="#ffffff" stroke="transparent" points="280,-40.2 280,-59.2 326,-59.2 326,-40.2 280,-40.2"/>
<polygon fill="none" stroke="#000000" points="280,-40.2 280,-59.2 326,-59.2 326,-40.2 280,-40.2"/>
<text text-anchor="start" x="316.8862" y="-46.3" font-family="Helvetica,sans-Serif" font-size="11.00" fill="#000000"> &#160;</text>
<polygon fill="#ffffff" stroke="transparent" points="326,-40.2 326,-59.2 418,-59.2 418,-40.2 326,-40.2"/>
<polygon fill="none" stroke="#000000" points="326,-40.2 326,-59.2 418,-59.2 418,-40.2 326,-40.2"/>
<text text-anchor="start" x="399.4053" y="-46.3" font-family="Helvetica,sans-Serif" font-size="11.00" fill="#000000">0 &gt;</text>
<polygon fill="none" stroke="#000000" stroke-width="2" points="225,-39.2 225,-281.2 419,-281.2 419,-39.2 225,-39.2"/>
</a>
</g>
</g>
<!-- user -->
<g id="node2" class="node">
<title>user</title>
<g id="a_node2"><a xlink:href="../../tables/user.html" xlink:title="user" target="_top">
<polygon fill="#ffffff" stroke="transparent" points="8,-43.7 8,-258.7 175,-258.7 175,-43.7 8,-43.7"/>
<polygon fill="#f5f5f5" stroke="transparent" points="8.5,-235.2 8.5,-258.2 175.5,-258.2 175.5,-235.2 8.5,-235.2"/>
<polygon fill="none" stroke="#000000" points="8.5,-235.2 8.5,-258.2 175.5,-258.2 175.5,-235.2 8.5,-235.2"/>
<text text-anchor="start" x="13.5" y="-244.3" font-family="Helvetica,sans-Serif" font-weight="bold" font-size="11.00" fill="#000000">user</text>
<text text-anchor="start" x="140.5437" y="-243.3" font-family="Helvetica,sans-Serif" font-size="11.00" fill="#000000">[table]</text>
<polygon fill="none" stroke="#000000" points="8.5,-213.2 8.5,-235.2 175.5,-235.2 175.5,-213.2 8.5,-213.2"/>
<image xlink:href="../../images/primaryKeys.png" width="11px" height="12px" preserveAspectRatio="xMinYMin meet" x="13.5" y="-230.2"/>
<text text-anchor="start" x="28.5" y="-220.3" font-family="Helvetica,sans-Serif" font-size="11.00" fill="#000000">id</text>
<polygon fill="#ffffff" stroke="transparent" points="8.5,-191.2 8.5,-213.2 175.5,-213.2 175.5,-191.2 8.5,-191.2"/>
<polygon fill="none" stroke="#000000" points="8.5,-191.2 8.5,-213.2 175.5,-213.2 175.5,-191.2 8.5,-191.2"/>
<text text-anchor="start" x="28.5" y="-198.3" font-family="Helvetica,sans-Serif" font-size="11.00" fill="#000000">uuid</text>
<polygon fill="#ffffff" stroke="transparent" points="8.5,-169.2 8.5,-191.2 175.5,-191.2 175.5,-169.2 8.5,-169.2"/>
<polygon fill="none" stroke="#000000" points="8.5,-169.2 8.5,-191.2 175.5,-191.2 175.5,-169.2 8.5,-169.2"/>
<text text-anchor="start" x="28.5" y="-176.3" font-family="Helvetica,sans-Serif" font-size="11.00" fill="#000000">user_name</text>
<polygon fill="none" stroke="#000000" points="8.5,-147.2 8.5,-169.2 175.5,-169.2 175.5,-147.2 8.5,-147.2"/>
<image xlink:href="../../images/foreignKeys.png" width="11px" height="12px" preserveAspectRatio="xMinYMin meet" x="13.5" y="-164.2"/>
<text text-anchor="start" x="28.5" y="-154.3" font-family="Helvetica,sans-Serif" font-size="11.00" fill="#000000">avatar</text>
<polygon fill="#ffffff" stroke="transparent" points="8.5,-125.2 8.5,-147.2 175.5,-147.2 175.5,-125.2 8.5,-125.2"/>
<polygon fill="none" stroke="#000000" points="8.5,-125.2 8.5,-147.2 175.5,-147.2 175.5,-125.2 8.5,-125.2"/>
<text text-anchor="start" x="28.5" y="-132.3" font-family="Helvetica,sans-Serif" font-size="11.00" fill="#000000">email</text>
<polygon fill="#ffffff" stroke="transparent" points="8.5,-103.2 8.5,-125.2 175.5,-125.2 175.5,-103.2 8.5,-103.2"/>
<polygon fill="none" stroke="#000000" points="8.5,-103.2 8.5,-125.2 175.5,-125.2 175.5,-103.2 8.5,-103.2"/>
<text text-anchor="start" x="28.5" y="-110.3" font-family="Helvetica,sans-Serif" font-size="11.00" fill="#000000">state</text>
<polygon fill="#ffffff" stroke="transparent" points="8.5,-81.2 8.5,-103.2 175.5,-103.2 175.5,-81.2 8.5,-81.2"/>
<polygon fill="none" stroke="#000000" points="8.5,-81.2 8.5,-103.2 175.5,-103.2 175.5,-81.2 8.5,-81.2"/>
<text text-anchor="start" x="28.5" y="-88.3" font-family="Helvetica,sans-Serif" font-size="11.00" fill="#000000">liker_id</text>
<polygon fill="none" stroke="#000000" points="8.5,-62.2 8.5,-81.2 175.5,-81.2 175.5,-62.2 8.5,-62.2"/>
<text text-anchor="start" x="11.5" y="-68.3" font-family="Helvetica,sans-Serif" font-size="11.00" fill="#000000">...</text>
<polygon fill="#ffffff" stroke="transparent" points="8.5,-43.2 8.5,-62.2 82.5,-62.2 82.5,-43.2 8.5,-43.2"/>
<polygon fill="none" stroke="#000000" points="8.5,-43.2 8.5,-62.2 82.5,-62.2 82.5,-43.2 8.5,-43.2"/>
<text text-anchor="start" x="11.5" y="-49.3" font-family="Helvetica,sans-Serif" font-size="11.00" fill="#000000">&lt; 1</text>
<polygon fill="#ffffff" stroke="transparent" points="82.5,-43.2 82.5,-62.2 121.5,-62.2 121.5,-43.2 82.5,-43.2"/>
<polygon fill="none" stroke="#000000" points="82.5,-43.2 82.5,-62.2 121.5,-62.2 121.5,-43.2 82.5,-43.2"/>
<text text-anchor="start" x="112.3862" y="-49.3" font-family="Helvetica,sans-Serif" font-size="11.00" fill="#000000"> &#160;</text>
<polygon fill="#ffffff" stroke="transparent" points="121.5,-43.2 121.5,-62.2 175.5,-62.2 175.5,-43.2 121.5,-43.2"/>
<polygon fill="none" stroke="#000000" points="121.5,-43.2 121.5,-62.2 175.5,-62.2 175.5,-43.2 121.5,-43.2"/>
<text text-anchor="start" x="150.7904" y="-49.3" font-family="Helvetica,sans-Serif" font-size="11.00" fill="#000000">42 &gt;</text>
</a>
</g>
</g>
<!-- user_oauth&#45;&gt;user -->
<g id="edge1" class="edge">
<title>user_oauth:w&#45;&gt;user:e</title>
<path fill="none" stroke="#000000" d="M211.4203,-224.2C199.5435,-224.2 192.158,-224.2 175.5,-224.2"/>
<polygon fill="#000000" stroke="#000000" points="218,-224.2001 226,-227.8 222,-224.2 226,-224.2 226,-224.2 226,-224.2 222,-224.2 226,-220.6 218,-224.2001 218,-224.2001"/>
<ellipse fill="none" stroke="#000000" cx="214.8" cy="-224.2001" rx="3.2" ry="3.2"/>
</g>
</g>
</svg>
