<?xml version="1.0" encoding="UTF-8" standalone="no"?>
<!DOCTYPE svg PUBLIC "-//W3C//DTD SVG 1.1//EN"
 "http://www.w3.org/Graphics/SVG/1.1/DTD/svg11.dtd">
<!-- Generated by graphviz version 2.40.1 (20161225.0304)
 -->
<!-- Title: oneDegreeRelationshipsDiagram Pages: 1 -->
<svg width="478pt" height="381pt"
 viewBox="0.00 0.00 478.00 380.70" xmlns="http://www.w3.org/2000/svg" xmlns:xlink="http://www.w3.org/1999/xlink">
<g id="graph0" class="graph" transform="scale(1 1) rotate(0) translate(4 376.7)">
<title>oneDegreeRelationshipsDiagram</title>
<polygon fill="#ffffff" stroke="transparent" points="-4,4 -4,-376.7 474,-376.7 474,4 -4,4"/>
<text text-anchor="middle" x="72.4936" y="-7.3" font-family="Helvetica,sans-Serif" font-size="11.00" fill="#000000">Generated by SchemaSpy</text>
<!-- user_oauth_likecoin -->
<g id="node1" class="node">
<title>user_oauth_likecoin</title>
<g id="a_node1"><a xlink:href="../../tables/user_oauth_likecoin.html" xlink:title="user_oauth_likecoin" target="_top">
<polygon fill="#ffffff" stroke="transparent" points="224,-38.2 224,-304.2 462,-304.2 462,-38.2 224,-38.2"/>
<polygon fill="#f5f5f5" stroke="transparent" points="226,-279.2 226,-302.2 460,-302.2 460,-279.2 226,-279.2"/>
<polygon fill="none" stroke="#000000" points="226,-279.2 226,-302.2 460,-302.2 460,-279.2 226,-279.2"/>
<text text-anchor="start" x="231" y="-288.3" font-family="Helvetica,sans-Serif" font-weight="bold" font-size="11.00" fill="#000000">user_oauth_likecoin</text>
<text text-anchor="start" x="425.0437" y="-287.3" font-family="Helvetica,sans-Serif" font-size="11.00" fill="#000000">[table]</text>
<polygon fill="none" stroke="#000000" points="226,-257.2 226,-279.2 363,-279.2 363,-257.2 226,-257.2"/>
<image xlink:href="../../images/primaryKeys.png" width="11px" height="12px" preserveAspectRatio="xMinYMin meet" x="231" y="-274.2"/>
<text text-anchor="start" x="246" y="-264.3" font-family="Helvetica,sans-Serif" font-size="11.00" fill="#000000">id</text>
<polygon fill="none" stroke="#000000" points="363,-257.2 363,-279.2 460,-279.2 460,-257.2 363,-257.2"/>
<text text-anchor="start" x="366" y="-264.9" font-family="Helvetica,sans-Serif" font-size="11.00" fill="#000000">bigserial[19]</text>
<polygon fill="none" stroke="#000000" points="226,-235.2 226,-257.2 363,-257.2 363,-235.2 226,-235.2"/>
<text text-anchor="start" x="246" y="-242.3" font-family="Helvetica,sans-Serif" font-size="11.00" fill="#000000">created_at</text>
<polygon fill="none" stroke="#000000" points="363,-235.2 363,-257.2 460,-257.2 460,-235.2 363,-235.2"/>
<text text-anchor="start" x="366" y="-242.9" font-family="Helvetica,sans-Serif" font-size="11.00" fill="#000000">timestamptz[35,6]</text>
<polygon fill="none" stroke="#000000" points="226,-213.2 226,-235.2 363,-235.2 363,-213.2 226,-213.2"/>
<text text-anchor="start" x="246" y="-220.3" font-family="Helvetica,sans-Serif" font-size="11.00" fill="#000000">updated_at</text>
<polygon fill="none" stroke="#000000" points="363,-213.2 363,-235.2 460,-235.2 460,-213.2 363,-213.2"/>
<text text-anchor="start" x="366" y="-220.9" font-family="Helvetica,sans-Serif" font-size="11.00" fill="#000000">timestamptz[35,6]</text>
<polygon fill="#ffffff" stroke="transparent" points="226,-191.2 226,-213.2 363,-213.2 363,-191.2 226,-191.2"/>
<polygon fill="none" stroke="#000000" points="226,-191.2 226,-213.2 363,-213.2 363,-191.2 226,-191.2"/>
<image xlink:href="../../images/foreignKeys.png" width="11px" height="12px" preserveAspectRatio="xMinYMin meet" x="231" y="-208.2"/>
<text text-anchor="start" x="246" y="-198.3" font-family="Helvetica,sans-Serif" font-size="11.00" fill="#000000">liker_id</text>
<polygon fill="none" stroke="#000000" points="363,-191.2 363,-213.2 460,-213.2 460,-191.2 363,-191.2"/>
<text text-anchor="start" x="366" y="-198.9" font-family="Helvetica,sans-Serif" font-size="11.00" fill="#000000">varchar[255]</text>
<polygon fill="none" stroke="#000000" points="226,-169.2 226,-191.2 363,-191.2 363,-169.2 226,-169.2"/>
<text text-anchor="start" x="246" y="-176.3" font-family="Helvetica,sans-Serif" font-size="11.00" fill="#000000">account_type</text>
<polygon fill="none" stroke="#000000" points="363,-169.2 363,-191.2 460,-191.2 460,-169.2 363,-169.2"/>
<text text-anchor="start" x="366" y="-176.9" font-family="Helvetica,sans-Serif" font-size="11.00" fill="#000000">text[2147483647]</text>
<polygon fill="none" stroke="#000000" points="226,-147.2 226,-169.2 363,-169.2 363,-147.2 226,-147.2"/>
<text text-anchor="start" x="246" y="-154.3" font-family="Helvetica,sans-Serif" font-size="11.00" fill="#000000">access_token</text>
<polygon fill="none" stroke="#000000" points="363,-147.2 363,-169.2 460,-169.2 460,-147.2 363,-147.2"/>
<text text-anchor="start" x="366" y="-154.9" font-family="Helvetica,sans-Serif" font-size="11.00" fill="#000000">text[2147483647]</text>
<polygon fill="none" stroke="#000000" points="226,-125.2 226,-147.2 363,-147.2 363,-125.2 226,-125.2"/>
<text text-anchor="start" x="246" y="-132.3" font-family="Helvetica,sans-Serif" font-size="11.00" fill="#000000">refresh_token</text>
<polygon fill="none" stroke="#000000" points="363,-125.2 363,-147.2 460,-147.2 460,-125.2 363,-125.2"/>
<text text-anchor="start" x="366" y="-132.9" font-family="Helvetica,sans-Serif" font-size="11.00" fill="#000000">text[2147483647]</text>
<polygon fill="none" stroke="#000000" points="226,-103.2 226,-125.2 363,-125.2 363,-103.2 226,-103.2"/>
<text text-anchor="start" x="246" y="-110.3" font-family="Helvetica,sans-Serif" font-size="11.00" fill="#000000">expires</text>
<polygon fill="none" stroke="#000000" points="363,-103.2 363,-125.2 460,-125.2 460,-103.2 363,-103.2"/>
<text text-anchor="start" x="366" y="-110.9" font-family="Helvetica,sans-Serif" font-size="11.00" fill="#000000">timestamptz[35,6]</text>
<polygon fill="none" stroke="#000000" points="226,-81.2 226,-103.2 363,-103.2 363,-81.2 226,-81.2"/>
<text text-anchor="start" x="246" y="-88.3" font-family="Helvetica,sans-Serif" font-size="11.00" fill="#000000">scope</text>
<polygon fill="none" stroke="#000000" points="363,-81.2 363,-103.2 460,-103.2 460,-81.2 363,-81.2"/>
<text text-anchor="start" x="365.9468" y="-88.9" font-family="Helvetica,sans-Serif" font-size="11.00" fill="#000000">_text[2147483647]</text>
<polygon fill="none" stroke="#000000" points="226,-59.2 226,-81.2 363,-81.2 363,-59.2 226,-59.2"/>
<text text-anchor="start" x="246" y="-66.3" font-family="Helvetica,sans-Serif" font-size="11.00" fill="#000000">pending_like</text>
<polygon fill="none" stroke="#000000" points="363,-59.2 363,-81.2 460,-81.2 460,-59.2 363,-59.2"/>
<text text-anchor="start" x="366" y="-66.9" font-family="Helvetica,sans-Serif" font-size="11.00" fill="#000000">numeric[36,18]</text>
<polygon fill="#ffffff" stroke="transparent" points="226,-40.2 226,-59.2 299,-59.2 299,-40.2 226,-40.2"/>
<polygon fill="none" stroke="#000000" points="226,-40.2 226,-59.2 299,-59.2 299,-40.2 226,-40.2"/>
<text text-anchor="start" x="229" y="-46.3" font-family="Helvetica,sans-Serif" font-size="11.00" fill="#000000">&lt; 1</text>
<polygon fill="#ffffff" stroke="transparent" points="299,-40.2 299,-59.2 363,-59.2 363,-40.2 299,-40.2"/>
<polygon fill="none" stroke="#000000" points="299,-40.2 299,-59.2 363,-59.2 363,-40.2 299,-40.2"/>
<text text-anchor="start" x="353.8862" y="-46.3" font-family="Helvetica,sans-Serif" font-size="11.00" fill="#000000"> &#160;</text>
<polygon fill="#ffffff" stroke="transparent" points="363,-40.2 363,-59.2 460,-59.2 460,-40.2 363,-40.2"/>
<polygon fill="none" stroke="#000000" points="363,-40.2 363,-59.2 460,-59.2 460,-40.2 363,-40.2"/>
<text text-anchor="start" x="441.4053" y="-46.3" font-family="Helvetica,sans-Serif" font-size="11.00" fill="#000000">0 &gt;</text>
<polygon fill="none" stroke="#000000" stroke-width="2" points="225,-39.2 225,-303.2 461,-303.2 461,-39.2 225,-39.2"/>
</a>
</g>
</g>
<!-- user -->
<g id="node2" class="node">
<title>user</title>
<g id="a_node2"><a xlink:href="../../tables/user.html" xlink:title="user" target="_top">
<polygon fill="#ffffff" stroke="transparent" points="8,-153.7 8,-368.7 175,-368.7 175,-153.7 8,-153.7"/>
<polygon fill="#f5f5f5" stroke="transparent" points="8.5,-345.2 8.5,-368.2 175.5,-368.2 175.5,-345.2 8.5,-345.2"/>
<polygon fill="none" stroke="#000000" points="8.5,-345.2 8.5,-368.2 175.5,-368.2 175.5,-345.2 8.5,-345.2"/>
<text text-anchor="start" x="13.5" y="-354.3" font-family="Helvetica,sans-Serif" font-weight="bold" font-size="11.00" fill="#000000">user</text>
<text text-anchor="start" x="140.5437" y="-353.3" font-family="Helvetica,sans-Serif" font-size="11.00" fill="#000000">[table]</text>
<polygon fill="none" stroke="#000000" points="8.5,-323.2 8.5,-345.2 175.5,-345.2 175.5,-323.2 8.5,-323.2"/>
<image xlink:href="../../images/primaryKeys.png" width="11px" height="12px" preserveAspectRatio="xMinYMin meet" x="13.5" y="-340.2"/>
<text text-anchor="start" x="28.5" y="-330.3" font-family="Helvetica,sans-Serif" font-size="11.00" fill="#000000">id</text>
<polygon fill="#ffffff" stroke="transparent" points="8.5,-301.2 8.5,-323.2 175.5,-323.2 175.5,-301.2 8.5,-301.2"/>
<polygon fill="none" stroke="#000000" points="8.5,-301.2 8.5,-323.2 175.5,-323.2 175.5,-301.2 8.5,-301.2"/>
<text text-anchor="start" x="28.5" y="-308.3" font-family="Helvetica,sans-Serif" font-size="11.00" fill="#000000">uuid</text>
<polygon fill="#ffffff" stroke="transparent" points="8.5,-279.2 8.5,-301.2 175.5,-301.2 175.5,-279.2 8.5,-279.2"/>
<polygon fill="none" stroke="#000000" points="8.5,-279.2 8.5,-301.2 175.5,-301.2 175.5,-279.2 8.5,-279.2"/>
<text text-anchor="start" x="28.5" y="-286.3" font-family="Helvetica,sans-Serif" font-size="11.00" fill="#000000">user_name</text>
<polygon fill="none" stroke="#000000" points="8.5,-257.2 8.5,-279.2 175.5,-279.2 175.5,-257.2 8.5,-257.2"/>
<image xlink:href="../../images/foreignKeys.png" width="11px" height="12px" preserveAspectRatio="xMinYMin meet" x="13.5" y="-274.2"/>
<text text-anchor="start" x="28.5" y="-264.3" font-family="Helvetica,sans-Serif" font-size="11.00" fill="#000000">avatar</text>
<polygon fill="#ffffff" stroke="transparent" points="8.5,-235.2 8.5,-257.2 175.5,-257.2 175.5,-235.2 8.5,-235.2"/>
<polygon fill="none" stroke="#000000" points="8.5,-235.2 8.5,-257.2 175.5,-257.2 175.5,-235.2 8.5,-235.2"/>
<text text-anchor="start" x="28.5" y="-242.3" font-family="Helvetica,sans-Serif" font-size="11.00" fill="#000000">email</text>
<polygon fill="#ffffff" stroke="transparent" points="8.5,-213.2 8.5,-235.2 175.5,-235.2 175.5,-213.2 8.5,-213.2"/>
<polygon fill="none" stroke="#000000" points="8.5,-213.2 8.5,-235.2 175.5,-235.2 175.5,-213.2 8.5,-213.2"/>
<text text-anchor="start" x="28.5" y="-220.3" font-family="Helvetica,sans-Serif" font-size="11.00" fill="#000000">state</text>
<polygon fill="#ffffff" stroke="transparent" points="8.5,-191.2 8.5,-213.2 175.5,-213.2 175.5,-191.2 8.5,-191.2"/>
<polygon fill="none" stroke="#000000" points="8.5,-191.2 8.5,-213.2 175.5,-213.2 175.5,-191.2 8.5,-191.2"/>
<text text-anchor="start" x="28.5" y="-198.3" font-family="Helvetica,sans-Serif" font-size="11.00" fill="#000000">liker_id</text>
<polygon fill="none" stroke="#000000" points="8.5,-172.2 8.5,-191.2 175.5,-191.2 175.5,-172.2 8.5,-172.2"/>
<text text-anchor="start" x="11.5" y="-178.3" font-family="Helvetica,sans-Serif" font-size="11.00" fill="#000000">...</text>
<polygon fill="#ffffff" stroke="transparent" points="8.5,-153.2 8.5,-172.2 82.5,-172.2 82.5,-153.2 8.5,-153.2"/>
<polygon fill="none" stroke="#000000" points="8.5,-153.2 8.5,-172.2 82.5,-172.2 82.5,-153.2 8.5,-153.2"/>
<text text-anchor="start" x="11.5" y="-159.3" font-family="Helvetica,sans-Serif" font-size="11.00" fill="#000000">&lt; 1</text>
<polygon fill="#ffffff" stroke="transparent" points="82.5,-153.2 82.5,-172.2 121.5,-172.2 121.5,-153.2 82.5,-153.2"/>
<polygon fill="none" stroke="#000000" points="82.5,-153.2 82.5,-172.2 121.5,-172.2 121.5,-153.2 82.5,-153.2"/>
<text text-anchor="start" x="112.3862" y="-159.3" font-family="Helvetica,sans-Serif" font-size="11.00" fill="#000000"> &#160;</text>
<polygon fill="#ffffff" stroke="transparent" points="121.5,-153.2 121.5,-172.2 175.5,-172.2 175.5,-153.2 121.5,-153.2"/>
<polygon fill="none" stroke="#000000" points="121.5,-153.2 121.5,-172.2 175.5,-172.2 175.5,-153.2 121.5,-153.2"/>
<text text-anchor="start" x="150.7904" y="-159.3" font-family="Helvetica,sans-Serif" font-size="11.00" fill="#000000">42 &gt;</text>
</a>
</g>
</g>
<!-- user_oauth_likecoin&#45;&gt;user -->
<g id="edge1" class="edge">
<title>user_oauth_likecoin:w&#45;&gt;user:e</title>
<path fill="none" stroke="#000000" d="M215.3362,-202.2C200.9956,-202.2 193.9115,-202.2 175.5,-202.2"/>
<polygon fill="#000000" stroke="#000000" points="225.2,-198.2 225.2,-206.2 223.6,-206.2 223.6,-198.2 225.2,-198.2"/>
<polyline fill="none" stroke="#000000" points="226,-202.2 222,-202.2 "/>
<ellipse fill="none" stroke="#000000" cx="218.8" cy="-202.2001" rx="3.2" ry="3.2"/>
</g>
</g>
</svg>
