<?xml version="1.0" encoding="UTF-8" standalone="no"?>
<!DOCTYPE svg PUBLIC "-//W3C//DTD SVG 1.1//EN"
 "http://www.w3.org/Graphics/SVG/1.1/DTD/svg11.dtd">
<!-- Generated by graphviz version 2.40.1 (20161225.0304)
 -->
<!-- Title: oneDegreeRelationshipsDiagram Pages: 1 -->
<svg width="481pt" height="514pt"
 viewBox="0.00 0.00 481.00 514.20" xmlns="http://www.w3.org/2000/svg" xmlns:xlink="http://www.w3.org/1999/xlink">
<g id="graph0" class="graph" transform="scale(1 1) rotate(0) translate(4 510.2)">
<title>oneDegreeRelationshipsDiagram</title>
<polygon fill="#ffffff" stroke="transparent" points="-4,4 -4,-510.2 477,-510.2 477,4 -4,4"/>
<text text-anchor="middle" x="72.4936" y="-7.3" font-family="Helvetica,sans-Serif" font-size="11.00" fill="#000000">Generated by SchemaSpy</text>
<!-- user_notify_setting -->
<g id="node1" class="node">
<title>user_notify_setting</title>
<g id="a_node1"><a xlink:href="../../tables/user_notify_setting.html" xlink:title="user_notify_setting" target="_top">
<polygon fill="#ffffff" stroke="transparent" points="224,-38.2 224,-502.2 465,-502.2 465,-38.2 224,-38.2"/>
<polygon fill="#f5f5f5" stroke="transparent" points="226.5,-477.2 226.5,-500.2 463.5,-500.2 463.5,-477.2 226.5,-477.2"/>
<polygon fill="none" stroke="#000000" points="226.5,-477.2 226.5,-500.2 463.5,-500.2 463.5,-477.2 226.5,-477.2"/>
<text text-anchor="start" x="231.5" y="-486.3" font-family="Helvetica,sans-Serif" font-weight="bold" font-size="11.00" fill="#000000">user_notify_setting</text>
<text text-anchor="start" x="428.5437" y="-485.3" font-family="Helvetica,sans-Serif" font-size="11.00" fill="#000000">[table]</text>
<polygon fill="none" stroke="#000000" points="226.5,-455.2 226.5,-477.2 371.5,-477.2 371.5,-455.2 226.5,-455.2"/>
<image xlink:href="../../images/primaryKeys.png" width="11px" height="12px" preserveAspectRatio="xMinYMin meet" x="231.5" y="-472.2"/>
<text text-anchor="start" x="246.5" y="-462.3" font-family="Helvetica,sans-Serif" font-size="11.00" fill="#000000">id</text>
<polygon fill="none" stroke="#000000" points="371.5,-455.2 371.5,-477.2 463.5,-477.2 463.5,-455.2 371.5,-455.2"/>
<text text-anchor="start" x="374.5" y="-462.9" font-family="Helvetica,sans-Serif" font-size="11.00" fill="#000000">bigserial[19]</text>
<polygon fill="none" stroke="#000000" points="226.5,-433.2 226.5,-455.2 371.5,-455.2 371.5,-433.2 226.5,-433.2"/>
<image xlink:href="../../images/foreignKeys.png" width="11px" height="12px" preserveAspectRatio="xMinYMin meet" x="231.5" y="-450.2"/>
<text text-anchor="start" x="246.5" y="-440.3" font-family="Helvetica,sans-Serif" font-size="11.00" fill="#000000">user_id</text>
<polygon fill="none" stroke="#000000" points="371.5,-433.2 371.5,-455.2 463.5,-455.2 463.5,-433.2 371.5,-433.2"/>
<text text-anchor="start" x="374.5" y="-440.9" font-family="Helvetica,sans-Serif" font-size="11.00" fill="#000000">int8[19]</text>
<polygon fill="none" stroke="#000000" points="226.5,-411.2 226.5,-433.2 371.5,-433.2 371.5,-411.2 226.5,-411.2"/>
<text text-anchor="start" x="246.5" y="-418.3" font-family="Helvetica,sans-Serif" font-size="11.00" fill="#000000">enable</text>
<polygon fill="none" stroke="#000000" points="371.5,-411.2 371.5,-433.2 463.5,-433.2 463.5,-411.2 371.5,-411.2"/>
<text text-anchor="start" x="374.5" y="-418.9" font-family="Helvetica,sans-Serif" font-size="11.00" fill="#000000">bool[1]</text>
<polygon fill="none" stroke="#000000" points="226.5,-389.2 226.5,-411.2 371.5,-411.2 371.5,-389.2 226.5,-389.2"/>
<text text-anchor="start" x="246.5" y="-396.3" font-family="Helvetica,sans-Serif" font-size="11.00" fill="#000000">mention</text>
<polygon fill="none" stroke="#000000" points="371.5,-389.2 371.5,-411.2 463.5,-411.2 463.5,-389.2 371.5,-389.2"/>
<text text-anchor="start" x="374.5" y="-396.9" font-family="Helvetica,sans-Serif" font-size="11.00" fill="#000000">bool[1]</text>
<polygon fill="none" stroke="#000000" points="226.5,-367.2 226.5,-389.2 371.5,-389.2 371.5,-367.2 226.5,-367.2"/>
<text text-anchor="start" x="246.5" y="-374.3" font-family="Helvetica,sans-Serif" font-size="11.00" fill="#000000">follow</text>
<polygon fill="none" stroke="#000000" points="371.5,-367.2 371.5,-389.2 463.5,-389.2 463.5,-367.2 371.5,-367.2"/>
<text text-anchor="start" x="374.5" y="-374.9" font-family="Helvetica,sans-Serif" font-size="11.00" fill="#000000">bool[1]</text>
<polygon fill="none" stroke="#000000" points="226.5,-345.2 226.5,-367.2 371.5,-367.2 371.5,-345.2 226.5,-345.2"/>
<text text-anchor="start" x="246.5" y="-352.3" font-family="Helvetica,sans-Serif" font-size="11.00" fill="#000000">comment</text>
<polygon fill="none" stroke="#000000" points="371.5,-345.2 371.5,-367.2 463.5,-367.2 463.5,-345.2 371.5,-345.2"/>
<text text-anchor="start" x="374.5" y="-352.9" font-family="Helvetica,sans-Serif" font-size="11.00" fill="#000000">bool[1]</text>
<polygon fill="none" stroke="#000000" points="226.5,-323.2 226.5,-345.2 371.5,-345.2 371.5,-323.2 226.5,-323.2"/>
<text text-anchor="start" x="246.5" y="-330.3" font-family="Helvetica,sans-Serif" font-size="11.00" fill="#000000">appreciation</text>
<polygon fill="none" stroke="#000000" points="371.5,-323.2 371.5,-345.2 463.5,-345.2 463.5,-323.2 371.5,-323.2"/>
<text text-anchor="start" x="374.5" y="-330.9" font-family="Helvetica,sans-Serif" font-size="11.00" fill="#000000">bool[1]</text>
<polygon fill="none" stroke="#000000" points="226.5,-301.2 226.5,-323.2 371.5,-323.2 371.5,-301.2 226.5,-301.2"/>
<text text-anchor="start" x="246.5" y="-308.3" font-family="Helvetica,sans-Serif" font-size="11.00" fill="#000000">article_subscription</text>
<polygon fill="none" stroke="#000000" points="371.5,-301.2 371.5,-323.2 463.5,-323.2 463.5,-301.2 371.5,-301.2"/>
<text text-anchor="start" x="374.5" y="-308.9" font-family="Helvetica,sans-Serif" font-size="11.00" fill="#000000">bool[1]</text>
<polygon fill="none" stroke="#000000" points="226.5,-279.2 226.5,-301.2 371.5,-301.2 371.5,-279.2 226.5,-279.2"/>
<text text-anchor="start" x="246.5" y="-286.3" font-family="Helvetica,sans-Serif" font-size="11.00" fill="#000000">comment_subscribed</text>
<polygon fill="none" stroke="#000000" points="371.5,-279.2 371.5,-301.2 463.5,-301.2 463.5,-279.2 371.5,-279.2"/>
<text text-anchor="start" x="374.5" y="-286.9" font-family="Helvetica,sans-Serif" font-size="11.00" fill="#000000">bool[1]</text>
<polygon fill="none" stroke="#000000" points="226.5,-257.2 226.5,-279.2 371.5,-279.2 371.5,-257.2 226.5,-257.2"/>
<text text-anchor="start" x="246.5" y="-264.3" font-family="Helvetica,sans-Serif" font-size="11.00" fill="#000000">downstream</text>
<polygon fill="none" stroke="#000000" points="371.5,-257.2 371.5,-279.2 463.5,-279.2 463.5,-257.2 371.5,-257.2"/>
<text text-anchor="start" x="374.5" y="-264.9" font-family="Helvetica,sans-Serif" font-size="11.00" fill="#000000">bool[1]</text>
<polygon fill="none" stroke="#000000" points="226.5,-235.2 226.5,-257.2 371.5,-257.2 371.5,-235.2 226.5,-235.2"/>
<text text-anchor="start" x="246.5" y="-242.3" font-family="Helvetica,sans-Serif" font-size="11.00" fill="#000000">comment_pinned</text>
<polygon fill="none" stroke="#000000" points="371.5,-235.2 371.5,-257.2 463.5,-257.2 463.5,-235.2 371.5,-235.2"/>
<text text-anchor="start" x="374.5" y="-242.9" font-family="Helvetica,sans-Serif" font-size="11.00" fill="#000000">bool[1]</text>
<polygon fill="none" stroke="#000000" points="226.5,-213.2 226.5,-235.2 371.5,-235.2 371.5,-213.2 226.5,-213.2"/>
<text text-anchor="start" x="246.5" y="-220.3" font-family="Helvetica,sans-Serif" font-size="11.00" fill="#000000">comment_voted</text>
<polygon fill="none" stroke="#000000" points="371.5,-213.2 371.5,-235.2 463.5,-235.2 463.5,-213.2 371.5,-213.2"/>
<text text-anchor="start" x="374.5" y="-220.9" font-family="Helvetica,sans-Serif" font-size="11.00" fill="#000000">bool[1]</text>
<polygon fill="none" stroke="#000000" points="226.5,-191.2 226.5,-213.2 371.5,-213.2 371.5,-191.2 226.5,-191.2"/>
<text text-anchor="start" x="246.5" y="-198.3" font-family="Helvetica,sans-Serif" font-size="11.00" fill="#000000">wallet_update</text>
<polygon fill="none" stroke="#000000" points="371.5,-191.2 371.5,-213.2 463.5,-213.2 463.5,-191.2 371.5,-191.2"/>
<text text-anchor="start" x="374.5" y="-198.9" font-family="Helvetica,sans-Serif" font-size="11.00" fill="#000000">bool[1]</text>
<polygon fill="none" stroke="#000000" points="226.5,-169.2 226.5,-191.2 371.5,-191.2 371.5,-169.2 226.5,-169.2"/>
<text text-anchor="start" x="246.5" y="-176.3" font-family="Helvetica,sans-Serif" font-size="11.00" fill="#000000">official_notice</text>
<polygon fill="none" stroke="#000000" points="371.5,-169.2 371.5,-191.2 463.5,-191.2 463.5,-169.2 371.5,-169.2"/>
<text text-anchor="start" x="374.5" y="-176.9" font-family="Helvetica,sans-Serif" font-size="11.00" fill="#000000">bool[1]</text>
<polygon fill="none" stroke="#000000" points="226.5,-147.2 226.5,-169.2 371.5,-169.2 371.5,-147.2 226.5,-147.2"/>
<text text-anchor="start" x="246.5" y="-154.3" font-family="Helvetica,sans-Serif" font-size="11.00" fill="#000000">report_feedback</text>
<polygon fill="none" stroke="#000000" points="371.5,-147.2 371.5,-169.2 463.5,-169.2 463.5,-147.2 371.5,-147.2"/>
<text text-anchor="start" x="374.5" y="-154.9" font-family="Helvetica,sans-Serif" font-size="11.00" fill="#000000">bool[1]</text>
<polygon fill="none" stroke="#000000" points="226.5,-125.2 226.5,-147.2 371.5,-147.2 371.5,-125.2 226.5,-125.2"/>
<text text-anchor="start" x="246.5" y="-132.3" font-family="Helvetica,sans-Serif" font-size="11.00" fill="#000000">created_at</text>
<polygon fill="none" stroke="#000000" points="371.5,-125.2 371.5,-147.2 463.5,-147.2 463.5,-125.2 371.5,-125.2"/>
<text text-anchor="start" x="374.1023" y="-132.9" font-family="Helvetica,sans-Serif" font-size="11.00" fill="#000000">timestamptz[35,6]</text>
<polygon fill="none" stroke="#000000" points="226.5,-103.2 226.5,-125.2 371.5,-125.2 371.5,-103.2 226.5,-103.2"/>
<text text-anchor="start" x="246.5" y="-110.3" font-family="Helvetica,sans-Serif" font-size="11.00" fill="#000000">updated_at</text>
<polygon fill="none" stroke="#000000" points="371.5,-103.2 371.5,-125.2 463.5,-125.2 463.5,-103.2 371.5,-103.2"/>
<text text-anchor="start" x="374.1023" y="-110.9" font-family="Helvetica,sans-Serif" font-size="11.00" fill="#000000">timestamptz[35,6]</text>
<polygon fill="none" stroke="#000000" points="226.5,-81.2 226.5,-103.2 371.5,-103.2 371.5,-81.2 226.5,-81.2"/>
<text text-anchor="start" x="246.5" y="-88.3" font-family="Helvetica,sans-Serif" font-size="11.00" fill="#000000">email</text>
<polygon fill="none" stroke="#000000" points="371.5,-81.2 371.5,-103.2 463.5,-103.2 463.5,-81.2 371.5,-81.2"/>
<text text-anchor="start" x="374.5" y="-88.9" font-family="Helvetica,sans-Serif" font-size="11.00" fill="#000000">bool[1]</text>
<polygon fill="none" stroke="#000000" points="226.5,-59.2 226.5,-81.2 371.5,-81.2 371.5,-59.2 226.5,-59.2"/>
<text text-anchor="start" x="246.5" y="-66.3" font-family="Helvetica,sans-Serif" font-size="11.00" fill="#000000">tag</text>
<polygon fill="none" stroke="#000000" points="371.5,-59.2 371.5,-81.2 463.5,-81.2 463.5,-59.2 371.5,-59.2"/>
<text text-anchor="start" x="374.5" y="-66.9" font-family="Helvetica,sans-Serif" font-size="11.00" fill="#000000">bool[1]</text>
<polygon fill="#ffffff" stroke="transparent" points="226.5,-40.2 226.5,-59.2 303.5,-59.2 303.5,-40.2 226.5,-40.2"/>
<polygon fill="none" stroke="#000000" points="226.5,-40.2 226.5,-59.2 303.5,-59.2 303.5,-40.2 226.5,-40.2"/>
<text text-anchor="start" x="229.5" y="-46.3" font-family="Helvetica,sans-Serif" font-size="11.00" fill="#000000">&lt; 1</text>
<polygon fill="#ffffff" stroke="transparent" points="303.5,-40.2 303.5,-59.2 371.5,-59.2 371.5,-40.2 303.5,-40.2"/>
<polygon fill="none" stroke="#000000" points="303.5,-40.2 303.5,-59.2 371.5,-59.2 371.5,-40.2 303.5,-40.2"/>
<text text-anchor="start" x="362.3862" y="-46.3" font-family="Helvetica,sans-Serif" font-size="11.00" fill="#000000"> &#160;</text>
<polygon fill="#ffffff" stroke="transparent" points="371.5,-40.2 371.5,-59.2 463.5,-59.2 463.5,-40.2 371.5,-40.2"/>
<polygon fill="none" stroke="#000000" points="371.5,-40.2 371.5,-59.2 463.5,-59.2 463.5,-40.2 371.5,-40.2"/>
<text text-anchor="start" x="444.9053" y="-46.3" font-family="Helvetica,sans-Serif" font-size="11.00" fill="#000000">0 &gt;</text>
<polygon fill="none" stroke="#000000" stroke-width="2" points="225,-39.2 225,-501.2 464,-501.2 464,-39.2 225,-39.2"/>
</a>
</g>
</g>
<!-- user -->
<g id="node2" class="node">
<title>user</title>
<g id="a_node2"><a xlink:href="../../tables/user.html" xlink:title="user" target="_top">
<polygon fill="#ffffff" stroke="transparent" points="8,-263.7 8,-478.7 175,-478.7 175,-263.7 8,-263.7"/>
<polygon fill="#f5f5f5" stroke="transparent" points="8.5,-455.2 8.5,-478.2 175.5,-478.2 175.5,-455.2 8.5,-455.2"/>
<polygon fill="none" stroke="#000000" points="8.5,-455.2 8.5,-478.2 175.5,-478.2 175.5,-455.2 8.5,-455.2"/>
<text text-anchor="start" x="13.5" y="-464.3" font-family="Helvetica,sans-Serif" font-weight="bold" font-size="11.00" fill="#000000">user</text>
<text text-anchor="start" x="140.5437" y="-463.3" font-family="Helvetica,sans-Serif" font-size="11.00" fill="#000000">[table]</text>
<polygon fill="none" stroke="#000000" points="8.5,-433.2 8.5,-455.2 175.5,-455.2 175.5,-433.2 8.5,-433.2"/>
<image xlink:href="../../images/primaryKeys.png" width="11px" height="12px" preserveAspectRatio="xMinYMin meet" x="13.5" y="-450.2"/>
<text text-anchor="start" x="28.5" y="-440.3" font-family="Helvetica,sans-Serif" font-size="11.00" fill="#000000">id</text>
<polygon fill="#ffffff" stroke="transparent" points="8.5,-411.2 8.5,-433.2 175.5,-433.2 175.5,-411.2 8.5,-411.2"/>
<polygon fill="none" stroke="#000000" points="8.5,-411.2 8.5,-433.2 175.5,-433.2 175.5,-411.2 8.5,-411.2"/>
<text text-anchor="start" x="28.5" y="-418.3" font-family="Helvetica,sans-Serif" font-size="11.00" fill="#000000">uuid</text>
<polygon fill="#ffffff" stroke="transparent" points="8.5,-389.2 8.5,-411.2 175.5,-411.2 175.5,-389.2 8.5,-389.2"/>
<polygon fill="none" stroke="#000000" points="8.5,-389.2 8.5,-411.2 175.5,-411.2 175.5,-389.2 8.5,-389.2"/>
<text text-anchor="start" x="28.5" y="-396.3" font-family="Helvetica,sans-Serif" font-size="11.00" fill="#000000">user_name</text>
<polygon fill="none" stroke="#000000" points="8.5,-367.2 8.5,-389.2 175.5,-389.2 175.5,-367.2 8.5,-367.2"/>
<image xlink:href="../../images/foreignKeys.png" width="11px" height="12px" preserveAspectRatio="xMinYMin meet" x="13.5" y="-384.2"/>
<text text-anchor="start" x="28.5" y="-374.3" font-family="Helvetica,sans-Serif" font-size="11.00" fill="#000000">avatar</text>
<polygon fill="#ffffff" stroke="transparent" points="8.5,-345.2 8.5,-367.2 175.5,-367.2 175.5,-345.2 8.5,-345.2"/>
<polygon fill="none" stroke="#000000" points="8.5,-345.2 8.5,-367.2 175.5,-367.2 175.5,-345.2 8.5,-345.2"/>
<text text-anchor="start" x="28.5" y="-352.3" font-family="Helvetica,sans-Serif" font-size="11.00" fill="#000000">email</text>
<polygon fill="#ffffff" stroke="transparent" points="8.5,-323.2 8.5,-345.2 175.5,-345.2 175.5,-323.2 8.5,-323.2"/>
<polygon fill="none" stroke="#000000" points="8.5,-323.2 8.5,-345.2 175.5,-345.2 175.5,-323.2 8.5,-323.2"/>
<text text-anchor="start" x="28.5" y="-330.3" font-family="Helvetica,sans-Serif" font-size="11.00" fill="#000000">state</text>
<polygon fill="#ffffff" stroke="transparent" points="8.5,-301.2 8.5,-323.2 175.5,-323.2 175.5,-301.2 8.5,-301.2"/>
<polygon fill="none" stroke="#000000" points="8.5,-301.2 8.5,-323.2 175.5,-323.2 175.5,-301.2 8.5,-301.2"/>
<text text-anchor="start" x="28.5" y="-308.3" font-family="Helvetica,sans-Serif" font-size="11.00" fill="#000000">liker_id</text>
<polygon fill="none" stroke="#000000" points="8.5,-282.2 8.5,-301.2 175.5,-301.2 175.5,-282.2 8.5,-282.2"/>
<text text-anchor="start" x="11.5" y="-288.3" font-family="Helvetica,sans-Serif" font-size="11.00" fill="#000000">...</text>
<polygon fill="#ffffff" stroke="transparent" points="8.5,-263.2 8.5,-282.2 82.5,-282.2 82.5,-263.2 8.5,-263.2"/>
<polygon fill="none" stroke="#000000" points="8.5,-263.2 8.5,-282.2 82.5,-282.2 82.5,-263.2 8.5,-263.2"/>
<text text-anchor="start" x="11.5" y="-269.3" font-family="Helvetica,sans-Serif" font-size="11.00" fill="#000000">&lt; 1</text>
<polygon fill="#ffffff" stroke="transparent" points="82.5,-263.2 82.5,-282.2 121.5,-282.2 121.5,-263.2 82.5,-263.2"/>
<polygon fill="none" stroke="#000000" points="82.5,-263.2 82.5,-282.2 121.5,-282.2 121.5,-263.2 82.5,-263.2"/>
<text text-anchor="start" x="112.3862" y="-269.3" font-family="Helvetica,sans-Serif" font-size="11.00" fill="#000000"> &#160;</text>
<polygon fill="#ffffff" stroke="transparent" points="121.5,-263.2 121.5,-282.2 175.5,-282.2 175.5,-263.2 121.5,-263.2"/>
<polygon fill="none" stroke="#000000" points="121.5,-263.2 121.5,-282.2 175.5,-282.2 175.5,-263.2 121.5,-263.2"/>
<text text-anchor="start" x="150.7904" y="-269.3" font-family="Helvetica,sans-Serif" font-size="11.00" fill="#000000">42 &gt;</text>
</a>
</g>
</g>
<!-- user_notify_setting&#45;&gt;user -->
<g id="edge1" class="edge">
<title>user_notify_setting:w&#45;&gt;user:e</title>
<path fill="none" stroke="#000000" d="M211.776,-444.2C199.7815,-444.2 192.3229,-444.2 175.5,-444.2"/>
<polygon fill="#000000" stroke="#000000" points="218.5,-444.2001 226.5,-447.8 222.5,-444.2 226.5,-444.2 226.5,-444.2 226.5,-444.2 222.5,-444.2 226.5,-440.6 218.5,-444.2001 218.5,-444.2001"/>
<ellipse fill="none" stroke="#000000" cx="215.3" cy="-444.2001" rx="3.2" ry="3.2"/>
</g>
</g>
</svg>
