<?xml version="1.0" encoding="UTF-8" standalone="no"?>
<!DOCTYPE svg PUBLIC "-//W3C//DTD SVG 1.1//EN"
 "http://www.w3.org/Graphics/SVG/1.1/DTD/svg11.dtd">
<!-- Generated by graphviz version 2.40.1 (20161225.0304)
 -->
<!-- Title: oneDegreeRelationshipsDiagram Pages: 1 -->
<svg width="457pt" height="487pt"
 viewBox="0.00 0.00 457.00 486.70" xmlns="http://www.w3.org/2000/svg" xmlns:xlink="http://www.w3.org/1999/xlink">
<g id="graph0" class="graph" transform="scale(1 1) rotate(0) translate(4 482.7)">
<title>oneDegreeRelationshipsDiagram</title>
<polygon fill="#ffffff" stroke="transparent" points="-4,4 -4,-482.7 453,-482.7 453,4 -4,4"/>
<text text-anchor="middle" x="72.4936" y="-7.3" font-family="Helvetica,sans-Serif" font-size="11.00" fill="#000000">Generated by SchemaSpy</text>
<!-- verification_code -->
<g id="node1" class="node">
<title>verification_code</title>
<g id="a_node1"><a xlink:href="../../tables/verification_code.html" xlink:title="verification_code" target="_top">
<polygon fill="#ffffff" stroke="transparent" points="224,-164.7 224,-474.7 441,-474.7 441,-164.7 224,-164.7"/>
<polygon fill="#f5f5f5" stroke="transparent" points="226.5,-449.7 226.5,-472.7 439.5,-472.7 439.5,-449.7 226.5,-449.7"/>
<polygon fill="none" stroke="#000000" points="226.5,-449.7 226.5,-472.7 439.5,-472.7 439.5,-449.7 226.5,-449.7"/>
<text text-anchor="start" x="231.5" y="-458.8" font-family="Helvetica,sans-Serif" font-weight="bold" font-size="11.00" fill="#000000">verification_code</text>
<text text-anchor="start" x="404.5437" y="-457.8" font-family="Helvetica,sans-Serif" font-size="11.00" fill="#000000">[table]</text>
<polygon fill="none" stroke="#000000" points="226.5,-427.7 226.5,-449.7 345.5,-449.7 345.5,-427.7 226.5,-427.7"/>
<image xlink:href="../../images/primaryKeys.png" width="11px" height="12px" preserveAspectRatio="xMinYMin meet" x="231.5" y="-444.7"/>
<text text-anchor="start" x="246.5" y="-434.8" font-family="Helvetica,sans-Serif" font-size="11.00" fill="#000000">id</text>
<polygon fill="none" stroke="#000000" points="345.5,-427.7 345.5,-449.7 439.5,-449.7 439.5,-427.7 345.5,-427.7"/>
<text text-anchor="start" x="348.5" y="-435.4" font-family="Helvetica,sans-Serif" font-size="11.00" fill="#000000">bigserial[19]</text>
<polygon fill="#ffffff" stroke="transparent" points="226.5,-405.7 226.5,-427.7 345.5,-427.7 345.5,-405.7 226.5,-405.7"/>
<polygon fill="none" stroke="#000000" points="226.5,-405.7 226.5,-427.7 345.5,-427.7 345.5,-405.7 226.5,-405.7"/>
<text text-anchor="start" x="246.5" y="-412.8" font-family="Helvetica,sans-Serif" font-size="11.00" fill="#000000">uuid</text>
<polygon fill="none" stroke="#000000" points="345.5,-405.7 345.5,-427.7 439.5,-427.7 439.5,-405.7 345.5,-405.7"/>
<text text-anchor="start" x="348.4758" y="-413.4" font-family="Helvetica,sans-Serif" font-size="11.00" fill="#000000">uuid[2147483647]</text>
<polygon fill="none" stroke="#000000" points="226.5,-383.7 226.5,-405.7 345.5,-405.7 345.5,-383.7 226.5,-383.7"/>
<text text-anchor="start" x="246.5" y="-390.8" font-family="Helvetica,sans-Serif" font-size="11.00" fill="#000000">created_at</text>
<polygon fill="none" stroke="#000000" points="345.5,-383.7 345.5,-405.7 439.5,-405.7 439.5,-383.7 345.5,-383.7"/>
<text text-anchor="start" x="348.5" y="-391.4" font-family="Helvetica,sans-Serif" font-size="11.00" fill="#000000">timestamptz[35,6]</text>
<polygon fill="none" stroke="#000000" points="226.5,-361.7 226.5,-383.7 345.5,-383.7 345.5,-361.7 226.5,-361.7"/>
<text text-anchor="start" x="246.5" y="-368.8" font-family="Helvetica,sans-Serif" font-size="11.00" fill="#000000">updated_at</text>
<polygon fill="none" stroke="#000000" points="345.5,-361.7 345.5,-383.7 439.5,-383.7 439.5,-361.7 345.5,-361.7"/>
<text text-anchor="start" x="348.5" y="-369.4" font-family="Helvetica,sans-Serif" font-size="11.00" fill="#000000">timestamptz[35,6]</text>
<polygon fill="none" stroke="#000000" points="226.5,-339.7 226.5,-361.7 345.5,-361.7 345.5,-339.7 226.5,-339.7"/>
<text text-anchor="start" x="246.5" y="-346.8" font-family="Helvetica,sans-Serif" font-size="11.00" fill="#000000">expired_at</text>
<polygon fill="none" stroke="#000000" points="345.5,-339.7 345.5,-361.7 439.5,-361.7 439.5,-339.7 345.5,-339.7"/>
<text text-anchor="start" x="348.5" y="-347.4" font-family="Helvetica,sans-Serif" font-size="11.00" fill="#000000">timestamptz[35,6]</text>
<polygon fill="none" stroke="#000000" points="226.5,-317.7 226.5,-339.7 345.5,-339.7 345.5,-317.7 226.5,-317.7"/>
<text text-anchor="start" x="246.5" y="-324.8" font-family="Helvetica,sans-Serif" font-size="11.00" fill="#000000">verified_at</text>
<polygon fill="none" stroke="#000000" points="345.5,-317.7 345.5,-339.7 439.5,-339.7 439.5,-317.7 345.5,-317.7"/>
<text text-anchor="start" x="348.5" y="-325.4" font-family="Helvetica,sans-Serif" font-size="11.00" fill="#000000">timestamptz[35,6]</text>
<polygon fill="none" stroke="#000000" points="226.5,-295.7 226.5,-317.7 345.5,-317.7 345.5,-295.7 226.5,-295.7"/>
<text text-anchor="start" x="246.5" y="-302.8" font-family="Helvetica,sans-Serif" font-size="11.00" fill="#000000">used_at</text>
<polygon fill="none" stroke="#000000" points="345.5,-295.7 345.5,-317.7 439.5,-317.7 439.5,-295.7 345.5,-295.7"/>
<text text-anchor="start" x="348.5" y="-303.4" font-family="Helvetica,sans-Serif" font-size="11.00" fill="#000000">timestamptz[35,6]</text>
<polygon fill="none" stroke="#000000" points="226.5,-273.7 226.5,-295.7 345.5,-295.7 345.5,-273.7 226.5,-273.7"/>
<text text-anchor="start" x="246.5" y="-280.8" font-family="Helvetica,sans-Serif" font-size="11.00" fill="#000000">code</text>
<polygon fill="none" stroke="#000000" points="345.5,-273.7 345.5,-295.7 439.5,-295.7 439.5,-273.7 345.5,-273.7"/>
<text text-anchor="start" x="348.5" y="-281.4" font-family="Helvetica,sans-Serif" font-size="11.00" fill="#000000">varchar[255]</text>
<polygon fill="none" stroke="#000000" points="226.5,-251.7 226.5,-273.7 345.5,-273.7 345.5,-251.7 226.5,-251.7"/>
<text text-anchor="start" x="246.5" y="-258.8" font-family="Helvetica,sans-Serif" font-size="11.00" fill="#000000">type</text>
<polygon fill="none" stroke="#000000" points="345.5,-251.7 345.5,-273.7 439.5,-273.7 439.5,-251.7 345.5,-251.7"/>
<text text-anchor="start" x="348.5" y="-259.4" font-family="Helvetica,sans-Serif" font-size="11.00" fill="#000000">text[2147483647]</text>
<polygon fill="none" stroke="#000000" points="226.5,-229.7 226.5,-251.7 345.5,-251.7 345.5,-229.7 226.5,-229.7"/>
<text text-anchor="start" x="246.5" y="-236.8" font-family="Helvetica,sans-Serif" font-size="11.00" fill="#000000">status</text>
<polygon fill="none" stroke="#000000" points="345.5,-229.7 345.5,-251.7 439.5,-251.7 439.5,-229.7 345.5,-229.7"/>
<text text-anchor="start" x="348.5" y="-237.4" font-family="Helvetica,sans-Serif" font-size="11.00" fill="#000000">text[2147483647]</text>
<polygon fill="none" stroke="#000000" points="226.5,-207.7 226.5,-229.7 345.5,-229.7 345.5,-207.7 226.5,-207.7"/>
<image xlink:href="../../images/foreignKeys.png" width="11px" height="12px" preserveAspectRatio="xMinYMin meet" x="231.5" y="-224.7"/>
<text text-anchor="start" x="246.5" y="-214.8" font-family="Helvetica,sans-Serif" font-size="11.00" fill="#000000">user_id</text>
<polygon fill="none" stroke="#000000" points="345.5,-207.7 345.5,-229.7 439.5,-229.7 439.5,-207.7 345.5,-207.7"/>
<text text-anchor="start" x="348.5" y="-215.4" font-family="Helvetica,sans-Serif" font-size="11.00" fill="#000000">int8[19]</text>
<polygon fill="none" stroke="#000000" points="226.5,-185.7 226.5,-207.7 345.5,-207.7 345.5,-185.7 226.5,-185.7"/>
<text text-anchor="start" x="246.5" y="-192.8" font-family="Helvetica,sans-Serif" font-size="11.00" fill="#000000">email</text>
<polygon fill="none" stroke="#000000" points="345.5,-185.7 345.5,-207.7 439.5,-207.7 439.5,-185.7 345.5,-185.7"/>
<text text-anchor="start" x="348.5" y="-193.4" font-family="Helvetica,sans-Serif" font-size="11.00" fill="#000000">varchar[255]</text>
<polygon fill="#ffffff" stroke="transparent" points="226.5,-166.7 226.5,-185.7 290.5,-185.7 290.5,-166.7 226.5,-166.7"/>
<polygon fill="none" stroke="#000000" points="226.5,-166.7 226.5,-185.7 290.5,-185.7 290.5,-166.7 226.5,-166.7"/>
<text text-anchor="start" x="229.5" y="-172.8" font-family="Helvetica,sans-Serif" font-size="11.00" fill="#000000">&lt; 1</text>
<polygon fill="#ffffff" stroke="transparent" points="290.5,-166.7 290.5,-185.7 345.5,-185.7 345.5,-166.7 290.5,-166.7"/>
<polygon fill="none" stroke="#000000" points="290.5,-166.7 290.5,-185.7 345.5,-185.7 345.5,-166.7 290.5,-166.7"/>
<text text-anchor="start" x="336.3862" y="-172.8" font-family="Helvetica,sans-Serif" font-size="11.00" fill="#000000"> &#160;</text>
<polygon fill="#ffffff" stroke="transparent" points="345.5,-166.7 345.5,-185.7 439.5,-185.7 439.5,-166.7 345.5,-166.7"/>
<polygon fill="none" stroke="#000000" points="345.5,-166.7 345.5,-185.7 439.5,-185.7 439.5,-166.7 345.5,-166.7"/>
<text text-anchor="start" x="420.9053" y="-172.8" font-family="Helvetica,sans-Serif" font-size="11.00" fill="#000000">0 &gt;</text>
<polygon fill="none" stroke="#000000" stroke-width="2" points="225,-165.7 225,-473.7 440,-473.7 440,-165.7 225,-165.7"/>
</a>
</g>
</g>
<!-- user -->
<g id="node2" class="node">
<title>user</title>
<g id="a_node2"><a xlink:href="../../tables/user.html" xlink:title="user" target="_top">
<polygon fill="#ffffff" stroke="transparent" points="8,-38.2 8,-253.2 175,-253.2 175,-38.2 8,-38.2"/>
<polygon fill="#f5f5f5" stroke="transparent" points="8.5,-229.7 8.5,-252.7 175.5,-252.7 175.5,-229.7 8.5,-229.7"/>
<polygon fill="none" stroke="#000000" points="8.5,-229.7 8.5,-252.7 175.5,-252.7 175.5,-229.7 8.5,-229.7"/>
<text text-anchor="start" x="13.5" y="-238.8" font-family="Helvetica,sans-Serif" font-weight="bold" font-size="11.00" fill="#000000">user</text>
<text text-anchor="start" x="140.5437" y="-237.8" font-family="Helvetica,sans-Serif" font-size="11.00" fill="#000000">[table]</text>
<polygon fill="none" stroke="#000000" points="8.5,-207.7 8.5,-229.7 175.5,-229.7 175.5,-207.7 8.5,-207.7"/>
<image xlink:href="../../images/primaryKeys.png" width="11px" height="12px" preserveAspectRatio="xMinYMin meet" x="13.5" y="-224.7"/>
<text text-anchor="start" x="28.5" y="-214.8" font-family="Helvetica,sans-Serif" font-size="11.00" fill="#000000">id</text>
<polygon fill="#ffffff" stroke="transparent" points="8.5,-185.7 8.5,-207.7 175.5,-207.7 175.5,-185.7 8.5,-185.7"/>
<polygon fill="none" stroke="#000000" points="8.5,-185.7 8.5,-207.7 175.5,-207.7 175.5,-185.7 8.5,-185.7"/>
<text text-anchor="start" x="28.5" y="-192.8" font-family="Helvetica,sans-Serif" font-size="11.00" fill="#000000">uuid</text>
<polygon fill="#ffffff" stroke="transparent" points="8.5,-163.7 8.5,-185.7 175.5,-185.7 175.5,-163.7 8.5,-163.7"/>
<polygon fill="none" stroke="#000000" points="8.5,-163.7 8.5,-185.7 175.5,-185.7 175.5,-163.7 8.5,-163.7"/>
<text text-anchor="start" x="28.5" y="-170.8" font-family="Helvetica,sans-Serif" font-size="11.00" fill="#000000">user_name</text>
<polygon fill="none" stroke="#000000" points="8.5,-141.7 8.5,-163.7 175.5,-163.7 175.5,-141.7 8.5,-141.7"/>
<image xlink:href="../../images/foreignKeys.png" width="11px" height="12px" preserveAspectRatio="xMinYMin meet" x="13.5" y="-158.7"/>
<text text-anchor="start" x="28.5" y="-148.8" font-family="Helvetica,sans-Serif" font-size="11.00" fill="#000000">avatar</text>
<polygon fill="#ffffff" stroke="transparent" points="8.5,-119.7 8.5,-141.7 175.5,-141.7 175.5,-119.7 8.5,-119.7"/>
<polygon fill="none" stroke="#000000" points="8.5,-119.7 8.5,-141.7 175.5,-141.7 175.5,-119.7 8.5,-119.7"/>
<text text-anchor="start" x="28.5" y="-126.8" font-family="Helvetica,sans-Serif" font-size="11.00" fill="#000000">email</text>
<polygon fill="#ffffff" stroke="transparent" points="8.5,-97.7 8.5,-119.7 175.5,-119.7 175.5,-97.7 8.5,-97.7"/>
<polygon fill="none" stroke="#000000" points="8.5,-97.7 8.5,-119.7 175.5,-119.7 175.5,-97.7 8.5,-97.7"/>
<text text-anchor="start" x="28.5" y="-104.8" font-family="Helvetica,sans-Serif" font-size="11.00" fill="#000000">state</text>
<polygon fill="#ffffff" stroke="transparent" points="8.5,-75.7 8.5,-97.7 175.5,-97.7 175.5,-75.7 8.5,-75.7"/>
<polygon fill="none" stroke="#000000" points="8.5,-75.7 8.5,-97.7 175.5,-97.7 175.5,-75.7 8.5,-75.7"/>
<text text-anchor="start" x="28.5" y="-82.8" font-family="Helvetica,sans-Serif" font-size="11.00" fill="#000000">liker_id</text>
<polygon fill="none" stroke="#000000" points="8.5,-56.7 8.5,-75.7 175.5,-75.7 175.5,-56.7 8.5,-56.7"/>
<text text-anchor="start" x="11.5" y="-62.8" font-family="Helvetica,sans-Serif" font-size="11.00" fill="#000000">...</text>
<polygon fill="#ffffff" stroke="transparent" points="8.5,-37.7 8.5,-56.7 82.5,-56.7 82.5,-37.7 8.5,-37.7"/>
<polygon fill="none" stroke="#000000" points="8.5,-37.7 8.5,-56.7 82.5,-56.7 82.5,-37.7 8.5,-37.7"/>
<text text-anchor="start" x="11.5" y="-43.8" font-family="Helvetica,sans-Serif" font-size="11.00" fill="#000000">&lt; 1</text>
<polygon fill="#ffffff" stroke="transparent" points="82.5,-37.7 82.5,-56.7 121.5,-56.7 121.5,-37.7 82.5,-37.7"/>
<polygon fill="none" stroke="#000000" points="82.5,-37.7 82.5,-56.7 121.5,-56.7 121.5,-37.7 82.5,-37.7"/>
<text text-anchor="start" x="112.3862" y="-43.8" font-family="Helvetica,sans-Serif" font-size="11.00" fill="#000000"> &#160;</text>
<polygon fill="#ffffff" stroke="transparent" points="121.5,-37.7 121.5,-56.7 175.5,-56.7 175.5,-37.7 121.5,-37.7"/>
<polygon fill="none" stroke="#000000" points="121.5,-37.7 121.5,-56.7 175.5,-56.7 175.5,-37.7 121.5,-37.7"/>
<text text-anchor="start" x="150.7904" y="-43.8" font-family="Helvetica,sans-Serif" font-size="11.00" fill="#000000">42 &gt;</text>
</a>
</g>
</g>
<!-- verification_code&#45;&gt;user -->
<g id="edge1" class="edge">
<title>verification_code:w&#45;&gt;user:e</title>
<path fill="none" stroke="#000000" d="M211.776,-218.7C199.7815,-218.7 192.3229,-218.7 175.5,-218.7"/>
<polygon fill="#000000" stroke="#000000" points="218.5,-218.7001 226.5,-222.3 222.5,-218.7 226.5,-218.7 226.5,-218.7 226.5,-218.7 222.5,-218.7 226.5,-215.1 218.5,-218.7001 218.5,-218.7001"/>
<ellipse fill="none" stroke="#000000" cx="215.3" cy="-218.7001" rx="3.2" ry="3.2"/>
</g>
</g>
</svg>
