<?xml version="1.0" encoding="UTF-8" standalone="no"?>
<!DOCTYPE svg PUBLIC "-//W3C//DTD SVG 1.1//EN"
 "http://www.w3.org/Graphics/SVG/1.1/DTD/svg11.dtd">
<!-- Generated by graphviz version 2.40.1 (20161225.0304)
 -->
<!-- Title: feature_flag Pages: 1 -->
<svg width="209pt" height="172pt"
 viewBox="0.00 0.00 209.00 172.00" xmlns="http://www.w3.org/2000/svg" xmlns:xlink="http://www.w3.org/1999/xlink">
<g id="graph0" class="graph" transform="scale(1 1) rotate(0) translate(4 168)">
<title>feature_flag</title>
<polygon fill="#ffffff" stroke="transparent" points="-4,4 -4,-168 205,-168 205,4 -4,4"/>
<!-- feature_flag -->
<g id="node1" class="node">
<title>feature_flag</title>
<g id="a_node1"><a xlink:href="../../tables/feature_flag.html" xlink:title="feature_flag" target="_top">
<polygon fill="#ffffff" stroke="transparent" points="8,-4 8,-160 193,-160 193,-4 8,-4"/>
<polygon fill="#f5f5f5" stroke="transparent" points="10.5,-135 10.5,-158 191.5,-158 191.5,-135 10.5,-135"/>
<polygon fill="none" stroke="#000000" points="10.5,-135 10.5,-158 191.5,-158 191.5,-135 10.5,-135"/>
<text text-anchor="start" x="15.5" y="-144.1" font-family="Helvetica,sans-Serif" font-weight="bold" font-size="11.00" fill="#000000">feature_flag</text>
<text text-anchor="start" x="156.5437" y="-143.1" font-family="Helvetica,sans-Serif" font-size="11.00" fill="#000000">[table]</text>
<polygon fill="none" stroke="#000000" points="10.5,-113 10.5,-135 99.5,-135 99.5,-113 10.5,-113"/>
<image xlink:href="../../images/primaryKeys.png" width="11px" height="12px" preserveAspectRatio="xMinYMin meet" x="15.5" y="-130"/>
<text text-anchor="start" x="30.5" y="-120.1" font-family="Helvetica,sans-Serif" font-size="11.00" fill="#000000">id</text>
<polygon fill="none" stroke="#000000" points="99.5,-113 99.5,-135 191.5,-135 191.5,-113 99.5,-113"/>
<text text-anchor="start" x="102.5" y="-120.7" font-family="Helvetica,sans-Serif" font-size="11.00" fill="#000000">bigserial[19]</text>
<polygon fill="#ffffff" stroke="transparent" points="10.5,-91 10.5,-113 99.5,-113 99.5,-91 10.5,-91"/>
<polygon fill="none" stroke="#000000" points="10.5,-91 10.5,-113 99.5,-113 99.5,-91 10.5,-91"/>
<text text-anchor="start" x="30.5" y="-98.1" font-family="Helvetica,sans-Serif" font-size="11.00" fill="#000000">name</text>
<polygon fill="none" stroke="#000000" points="99.5,-91 99.5,-113 191.5,-113 191.5,-91 99.5,-91"/>
<text text-anchor="start" x="102.5" y="-98.7" font-family="Helvetica,sans-Serif" font-size="11.00" fill="#000000">varchar[255]</text>
<polygon fill="none" stroke="#000000" points="10.5,-69 10.5,-91 99.5,-91 99.5,-69 10.5,-69"/>
<text text-anchor="start" x="30.5" y="-76.1" font-family="Helvetica,sans-Serif" font-size="11.00" fill="#000000">created_at</text>
<polygon fill="none" stroke="#000000" points="99.5,-69 99.5,-91 191.5,-91 191.5,-69 99.5,-69"/>
<text text-anchor="start" x="102.1023" y="-76.7" font-family="Helvetica,sans-Serif" font-size="11.00" fill="#000000">timestamptz[35,6]</text>
<polygon fill="none" stroke="#000000" points="10.5,-47 10.5,-69 99.5,-69 99.5,-47 10.5,-47"/>
<text text-anchor="start" x="30.5" y="-54.1" font-family="Helvetica,sans-Serif" font-size="11.00" fill="#000000">updated_at</text>
<polygon fill="none" stroke="#000000" points="99.5,-47 99.5,-69 191.5,-69 191.5,-47 99.5,-47"/>
<text text-anchor="start" x="102.1023" y="-54.7" font-family="Helvetica,sans-Serif" font-size="11.00" fill="#000000">timestamptz[35,6]</text>
<polygon fill="none" stroke="#000000" points="10.5,-25 10.5,-47 99.5,-47 99.5,-25 10.5,-25"/>
<text text-anchor="start" x="30.5" y="-32.1" font-family="Helvetica,sans-Serif" font-size="11.00" fill="#000000">flag</text>
<polygon fill="none" stroke="#000000" points="99.5,-25 99.5,-47 191.5,-47 191.5,-25 99.5,-25"/>
<text text-anchor="start" x="102.5" y="-32.7" font-family="Helvetica,sans-Serif" font-size="11.00" fill="#000000">text[2147483647]</text>
<polygon fill="#ffffff" stroke="transparent" points="10.5,-6 10.5,-25 59.5,-25 59.5,-6 10.5,-6"/>
<polygon fill="none" stroke="#000000" points="10.5,-6 10.5,-25 59.5,-25 59.5,-6 10.5,-6"/>
<text text-anchor="start" x="13.5" y="-12.1" font-family="Helvetica,sans-Serif" font-size="11.00" fill="#000000">&lt; 0</text>
<polygon fill="#ffffff" stroke="transparent" points="59.5,-6 59.5,-25 99.5,-25 99.5,-6 59.5,-6"/>
<polygon fill="none" stroke="#000000" points="59.5,-6 59.5,-25 99.5,-25 99.5,-6 59.5,-6"/>
<text text-anchor="start" x="90.3862" y="-12.1" font-family="Helvetica,sans-Serif" font-size="11.00" fill="#000000"> &#160;</text>
<polygon fill="#ffffff" stroke="transparent" points="99.5,-6 99.5,-25 191.5,-25 191.5,-6 99.5,-6"/>
<polygon fill="none" stroke="#000000" points="99.5,-6 99.5,-25 191.5,-25 191.5,-6 99.5,-6"/>
<text text-anchor="start" x="172.9053" y="-12.1" font-family="Helvetica,sans-Serif" font-size="11.00" fill="#000000">0 &gt;</text>
<polygon fill="none" stroke="#000000" stroke-width="2" points="9,-5 9,-159 192,-159 192,-5 9,-5"/>
</a>
</g>
</g>
</g>
</svg>
