<?xml version="1.0" encoding="UTF-8" standalone="no"?>
<!DOCTYPE svg PUBLIC "-//W3C//DTD SVG 1.1//EN"
 "http://www.w3.org/Graphics/SVG/1.1/DTD/svg11.dtd">
<!-- Generated by graphviz version 2.40.1 (20161225.0304)
 -->
<!-- Title: knex_migrations Pages: 1 -->
<svg width="236pt" height="150pt"
 viewBox="0.00 0.00 236.00 150.00" xmlns="http://www.w3.org/2000/svg" xmlns:xlink="http://www.w3.org/1999/xlink">
<g id="graph0" class="graph" transform="scale(1 1) rotate(0) translate(4 146)">
<title>knex_migrations</title>
<polygon fill="#ffffff" stroke="transparent" points="-4,4 -4,-146 232,-146 232,4 -4,4"/>
<!-- knex_migrations -->
<g id="node1" class="node">
<title>knex_migrations</title>
<g id="a_node1"><a xlink:href="../../tables/knex_migrations.html" xlink:title="knex_migrations" target="_top">
<polygon fill="#ffffff" stroke="transparent" points="8,-4 8,-138 220,-138 220,-4 8,-4"/>
<polygon fill="#f5f5f5" stroke="transparent" points="10,-113 10,-136 218,-136 218,-113 10,-113"/>
<polygon fill="none" stroke="#000000" points="10,-113 10,-136 218,-136 218,-113 10,-113"/>
<text text-anchor="start" x="15" y="-122.1" font-family="Helvetica,sans-Serif" font-weight="bold" font-size="11.00" fill="#000000">knex_migrations</text>
<text text-anchor="start" x="183.0437" y="-121.1" font-family="Helvetica,sans-Serif" font-size="11.00" fill="#000000">[table]</text>
<polygon fill="none" stroke="#000000" points="10,-91 10,-113 126,-113 126,-91 10,-91"/>
<image xlink:href="../../images/primaryKeys.png" width="11px" height="12px" preserveAspectRatio="xMinYMin meet" x="15" y="-108"/>
<text text-anchor="start" x="30" y="-98.1" font-family="Helvetica,sans-Serif" font-size="11.00" fill="#000000">id</text>
<polygon fill="none" stroke="#000000" points="126,-91 126,-113 218,-113 218,-91 126,-91"/>
<text text-anchor="start" x="129" y="-98.7" font-family="Helvetica,sans-Serif" font-size="11.00" fill="#000000">serial[10]</text>
<polygon fill="none" stroke="#000000" points="10,-69 10,-91 126,-91 126,-69 10,-69"/>
<text text-anchor="start" x="30" y="-76.1" font-family="Helvetica,sans-Serif" font-size="11.00" fill="#000000">name</text>
<polygon fill="none" stroke="#000000" points="126,-69 126,-91 218,-91 218,-69 126,-69"/>
<text text-anchor="start" x="129" y="-76.7" font-family="Helvetica,sans-Serif" font-size="11.00" fill="#000000">varchar[255]</text>
<polygon fill="none" stroke="#000000" points="10,-47 10,-69 126,-69 126,-47 10,-47"/>
<text text-anchor="start" x="30" y="-54.1" font-family="Helvetica,sans-Serif" font-size="11.00" fill="#000000">batch</text>
<polygon fill="none" stroke="#000000" points="126,-47 126,-69 218,-69 218,-47 126,-47"/>
<text text-anchor="start" x="129" y="-54.7" font-family="Helvetica,sans-Serif" font-size="11.00" fill="#000000">int4[10]</text>
<polygon fill="none" stroke="#000000" points="10,-25 10,-47 126,-47 126,-25 10,-25"/>
<text text-anchor="start" x="30" y="-32.1" font-family="Helvetica,sans-Serif" font-size="11.00" fill="#000000">migration_time</text>
<polygon fill="none" stroke="#000000" points="126,-25 126,-47 218,-47 218,-25 126,-25"/>
<text text-anchor="start" x="128.6023" y="-32.7" font-family="Helvetica,sans-Serif" font-size="11.00" fill="#000000">timestamptz[35,6]</text>
<polygon fill="#ffffff" stroke="transparent" points="10,-6 10,-25 72,-25 72,-6 10,-6"/>
<polygon fill="none" stroke="#000000" points="10,-6 10,-25 72,-25 72,-6 10,-6"/>
<text text-anchor="start" x="13" y="-12.1" font-family="Helvetica,sans-Serif" font-size="11.00" fill="#000000">&lt; 0</text>
<polygon fill="#ffffff" stroke="transparent" points="72,-6 72,-25 126,-25 126,-6 72,-6"/>
<polygon fill="none" stroke="#000000" points="72,-6 72,-25 126,-25 126,-6 72,-6"/>
<text text-anchor="start" x="116.8862" y="-12.1" font-family="Helvetica,sans-Serif" font-size="11.00" fill="#000000"> &#160;</text>
<polygon fill="#ffffff" stroke="transparent" points="126,-6 126,-25 218,-25 218,-6 126,-6"/>
<polygon fill="none" stroke="#000000" points="126,-6 126,-25 218,-25 218,-6 126,-6"/>
<text text-anchor="start" x="199.4053" y="-12.1" font-family="Helvetica,sans-Serif" font-size="11.00" fill="#000000">0 &gt;</text>
<polygon fill="none" stroke="#000000" stroke-width="2" points="9,-5 9,-137 219,-137 219,-5 9,-5"/>
</a>
</g>
</g>
</g>
</svg>
